<svg xmlns="http://www.w3.org/2000/svg" xmlns:xlink="http://www.w3.org/1999/xlink" version="1.1" class="marks" width="508" height="410" viewBox="0 0 508 410" style="background-color: white;"><g fill="none" stroke-miterlimit="10" transform="translate(5,5)"><g class="mark-group role-frame root" role="graphics-object" aria-roledescription="group mark container"><g transform="translate(0,0)"><path class="background" aria-hidden="true" d="M0,0h420v400h-420Z" fill="transparent"></path><g><g class="mark-rule role-mark layer_0_layer_0_marks" role="graphics-object" aria-roledescription="rule mark container"><line aria-label="xcoord_1: −0.762598618026; ycoord_1: 0.794626214106; xcoord_2: 0.475045251956; ycoord_2: 0.855223168606; Branch: 1" role="graphics-symbol" aria-roledescription="rule mark" transform="translate(95.61020729606622,120.53737858944783)" x2="185.64658049734123" y2="-6.059695450093997" stroke="rgb(65, 105, 241)" stroke-width="5" opacity="1"></line><line aria-label="xcoord_1: −0.453497621659; ycoord_1: −0.392414992886; xcoord_2: −0.762598618026; ycoord_2: 0.794626214106; Branch: 1" role="graphics-symbol" aria-roledescription="rule mark" transform="translate(141.97535675118337,239.2414992886458)" x2="-46.36514945511715" y2="-118.70412069919797" stroke="rgb(65, 105, 241)" stroke-width="5" opacity="1"></line><line aria-label="xcoord_1: 0.475045251956; ycoord_1: 0.855223168606; xcoord_2: 0.715471807209; ycoord_2: −0.360573931341; Branch: 1" role="graphics-symbol" aria-roledescription="rule mark" transform="translate(281.25678779340745,114.47768313935383)" x2="36.06398328791039" y2="121.57970999472035" stroke="rgb(65, 105, 241)" stroke-width="5" opacity="1"></line><line aria-label="xcoord_1: −0.453497621659; ycoord_1: −0.392414992886; xcoord_2: 0.715471807209; ycoord_2: −0.360573931341; Branch: 1" role="graphics-symbol" aria-roledescription="rule mark" transform="translate(141.97535675118337,239.2414992886458)" x2="175.34541433013447" y2="-3.184106154571623" stroke="rgb(65, 105, 241)" stroke-width="5" opacity="1"></line><line aria-label="xcoord_1: 0.715471807209; ycoord_1: −0.360573931341; xcoord_2: 0.0949815521628; ycoord_2: −1.31788629893; Branch: 1" role="graphics-symbol" aria-roledescription="rule mark" transform="translate(317.32077108131784,236.05739313407418)" x2="-93.07353825689515" y2="95.73123675939507" stroke="rgb(65, 105, 241)" stroke-width="5" opacity="1"></line><line aria-label="xcoord_1: −0.453497621659; ycoord_1: −0.392414992886; xcoord_2: 0.0949815521628; ycoord_2: −1.31788629893; Branch: 1" role="graphics-symbol" aria-roledescription="rule mark" transform="translate(141.97535675118337,239.2414992886458)" x2="82.27187607323933" y2="92.54713060482345" stroke="rgb(65, 105, 241)" stroke-width="5" opacity="1"></line></g><g class="mark-symbol role-mark layer_0_layer_1_marks" role="graphics-symbol" aria-roledescription="symbol mark container"></g><g class="mark-rule role-mark layer_1_marks" role="graphics-object" aria-roledescription="rule mark container"><line aria-label="xcoord_1: 0.475045251956; ycoord_1: 0.855223168606; xcoord_2: 0.53055543733; ycoord_2: 1.40170321681; Connector: undefined" role="graphics-symbol" aria-roledescription="rule mark" transform="translate(281.25678779340745,114.47768313935383)" x2="8.326527806103286" y2="-54.648004820744724" stroke="gray" stroke-width="3" stroke-dasharray="4,4" opacity="1"></line><line aria-label="xcoord_1: 0.475045251956; ycoord_1: 0.855223168606; xcoord_2: 0.996877713297; ycoord_2: 1.03654771667; Connector: undefined" role="graphics-symbol" aria-roledescription="rule mark" transform="translate(281.25678779340745,114.47768313935383)" x2="78.2748692010693" y2="-18.132454806573293" stroke="gray" stroke-width="3" stroke-dasharray="4,4" opacity="1"></line><line aria-label="xcoord_1: 0.715471807209; ycoord_1: −0.360573931341; xcoord_2: 1.24330244579; ycoord_2: −0.210601997657; Connector: undefined" role="graphics-symbol" aria-roledescription="rule mark" transform="translate(317.32077108131784,236.05739313407418)" x2="79.17459578678603" y2="-14.997193368378248" stroke="gray" stroke-width="3" stroke-dasharray="4,4" opacity="1"></line><line aria-label="xcoord_1: 0.0949815521628; ycoord_1: −1.31788629893; xcoord_2: 0.43204669972; ycoord_2: −1.74908403964; Connector: undefined" role="graphics-symbol" aria-roledescription="rule mark" transform="translate(224.2472328244227,331.78862989346925)" x2="50.55977213353438" y2="43.11977407054286" stroke="gray" stroke-width="3" stroke-dasharray="4,4" opacity="1"></line><line aria-label="xcoord_1: 0.0949815521628; ycoord_1: −1.31788629893; xcoord_2: −0.278392829941; ycoord_2: −1.72046908852; Connector: undefined" role="graphics-symbol" aria-roledescription="rule mark" transform="translate(224.2472328244227,331.78862989346925)" x2="-56.006157315534324" y2="40.25827895807981" stroke="gray" stroke-width="3" stroke-dasharray="4,4" opacity="1"></line><line aria-label="xcoord_1: −0.762598618026; ycoord_1: 0.794626214106; xcoord_2: −1.22204049676; ycoord_2: 1.13659191961; Connector: undefined" role="graphics-symbol" aria-roledescription="rule mark" transform="translate(95.61020729606622,120.53737858944783)" x2="-68.91628180990047" y2="-34.196570550735885" stroke="gray" stroke-width="3" stroke-dasharray="4,4" opacity="1"></line><line aria-label="xcoord_1: 0.715471807209; ycoord_1: −0.360573931341; xcoord_2: 1.11511543334; ycoord_2: −0.733134393813; Connector: undefined" role="graphics-symbol" aria-roledescription="rule mark" transform="translate(317.32077108131784,236.05739313407418)" x2="59.94654392029986" y2="37.25604624719472" stroke="gray" stroke-width="3" stroke-dasharray="4,4" opacity="1"></line><line aria-label="xcoord_1: −0.762598618026; ycoord_1: 0.794626214106; xcoord_2: −1.26103104271; ycoord_2: 0.579918390922; Connector: undefined" role="graphics-symbol" aria-roledescription="rule mark" transform="translate(95.61020729606622,120.53737858944783)" x2="-74.76486370253093" y2="21.470782318382533" stroke="gray" stroke-width="3" stroke-dasharray="4,4" opacity="1"></line><line aria-label="xcoord_1: −0.762598618026; ycoord_1: 0.794626214106; xcoord_2: −0.689583170786; ycoord_2: 1.32789489834; Connector: undefined" role="graphics-symbol" aria-roledescription="rule mark" transform="translate(95.61020729606622,120.53737858944783)" x2="10.952317086080498" y2="-53.326868423645294" stroke="gray" stroke-width="3" stroke-dasharray="4,4" opacity="1"></line><line aria-label="xcoord_1: −0.453497621659; ycoord_1: −0.392414992886; xcoord_2: −0.936252560925; ycoord_2: −0.648340782287; Connector: undefined" role="graphics-symbol" aria-roledescription="rule mark" transform="translate(141.97535675118337,239.2414992886458)" x2="-72.41324088998384" y2="25.592578940102612" stroke="gray" stroke-width="3" stroke-dasharray="4,4" opacity="1"></line></g><g class="mark-symbol role-mark layer_2_marks" role="graphics-object" aria-roledescription="symbol mark container"><path aria-label="xcoord_1: 0.715471807209; ycoord_1: −0.360573931341; Bus: bus" role="graphics-symbol" aria-roledescription="circle" transform="translate(317.32077108131784,236.05739313407418)" d="M6.124,0A6.124,6.124,0,1,1,-6.124,0A6.124,6.124,0,1,1,6.124,0" fill="#31A354" stroke-width="2" opacity="1"></path><path aria-label="xcoord_1: −0.453497621659; ycoord_1: −0.392414992886; Bus: bus" role="graphics-symbol" aria-roledescription="circle" transform="translate(141.97535675118337,239.2414992886458)" d="M6.124,0A6.124,6.124,0,1,1,-6.124,0A6.124,6.124,0,1,1,6.124,0" fill="#31A354" stroke-width="2" opacity="1"></path><path aria-label="xcoord_1: 0.0949815521628; ycoord_1: −1.31788629893; Bus: bus" role="graphics-symbol" aria-roledescription="circle" transform="translate(224.2472328244227,331.78862989346925)" d="M6.124,0A6.124,6.124,0,1,1,-6.124,0A6.124,6.124,0,1,1,6.124,0" fill="#31A354" stroke-width="2" opacity="1"></path><path aria-label="xcoord_1: −0.762598618026; ycoord_1: 0.794626214106; Bus: bus" role="graphics-symbol" aria-roledescription="circle" transform="translate(95.61020729606622,120.53737858944783)" d="M6.124,0A6.124,6.124,0,1,1,-6.124,0A6.124,6.124,0,1,1,6.124,0" fill="#31A354" stroke-width="2" opacity="1"></path><path aria-label="xcoord_1: 0.475045251956; ycoord_1: 0.855223168606; Bus: bus" role="graphics-symbol" aria-roledescription="circle" transform="translate(281.25678779340745,114.47768313935383)" d="M6.124,0A6.124,6.124,0,1,1,-6.124,0A6.124,6.124,0,1,1,6.124,0" fill="#31A354" stroke-width="2" opacity="1"></path></g><g class="mark-symbol role-mark layer_3_marks" role="graphics-object" aria-roledescription="symbol mark container"><path aria-label="xcoord_1: 1.11511543334; ycoord_1: −0.733134393813; Gen: 1" role="graphics-symbol" aria-roledescription="circle" transform="translate(377.2673150016177,273.3134393812689)" d="M5,0A5,5,0,1,1,-5,0A5,5,0,1,1,5,0" fill="orange" stroke-width="2" opacity="1"></path><path aria-label="xcoord_1: −0.689583170786; ycoord_1: 1.32789489834; Gen: 1" role="graphics-symbol" aria-roledescription="circle" transform="translate(106.56252438214672,67.21051016580253)" d="M5,0A5,5,0,1,1,-5,0A5,5,0,1,1,5,0" fill="orange" stroke-width="2" opacity="1"></path><path aria-label="xcoord_1: −0.278392829941; ycoord_1: −1.72046908852; Gen: 1" role="graphics-symbol" aria-roledescription="circle" transform="translate(168.24107550888837,372.04690885154906)" d="M5,0A5,5,0,1,1,-5,0A5,5,0,1,1,5,0" fill="orange" stroke-width="2" opacity="1"></path><path aria-label="xcoord_1: −1.22204049676; ycoord_1: 1.13659191961; Gen: 1" role="graphics-symbol" aria-roledescription="circle" transform="translate(26.693925486165753,86.34080803871194)" d="M5,0A5,5,0,1,1,-5,0A5,5,0,1,1,5,0" fill="orange" stroke-width="2" opacity="1"></path><path aria-label="xcoord_1: 0.53055543733; ycoord_1: 1.40170321681; Gen: 1" role="graphics-symbol" aria-roledescription="circle" transform="translate(289.58331559951074,59.829678318609105)" d="M5,0A5,5,0,1,1,-5,0A5,5,0,1,1,5,0" fill="orange" stroke-width="2" opacity="1"></path></g><g class="mark-symbol role-mark layer_4_marks" role="graphics-object" aria-roledescription="symbol mark container"><path aria-label="xcoord_1: 1.24330244579; ycoord_1: −0.210601997657; Load: load" role="graphics-symbol" aria-roledescription="circle" transform="translate(396.4953668681039,221.06019976569593)" d="M3.536,0A3.536,3.536,0,1,1,-3.536,0A3.536,3.536,0,1,1,3.536,0" fill="#CB181D" stroke-width="2" opacity="1"></path><path aria-label="xcoord_1: −0.936252560925; ycoord_1: −0.648340782287; Load: load" role="graphics-symbol" aria-roledescription="circle" transform="translate(69.56211586119953,264.8340782287484)" d="M3.536,0A3.536,3.536,0,1,1,-3.536,0A3.536,3.536,0,1,1,3.536,0" fill="#CB181D" stroke-width="2" opacity="1"></path><path aria-label="xcoord_1: 0.43204669972; ycoord_1: −1.74908403964; Load: load" role="graphics-symbol" aria-roledescription="circle" transform="translate(274.8070049579571,374.9084039640121)" d="M3.536,0A3.536,3.536,0,1,1,-3.536,0A3.536,3.536,0,1,1,3.536,0" fill="#CB181D" stroke-width="2" opacity="1"></path><path aria-label="xcoord_1: −1.26103104271; ycoord_1: 0.579918390922; Load: load" role="graphics-symbol" aria-roledescription="circle" transform="translate(20.845343593535294,142.00816090783036)" d="M3.536,0A3.536,3.536,0,1,1,-3.536,0A3.536,3.536,0,1,1,3.536,0" fill="#CB181D" stroke-width="2" opacity="1"></path><path aria-label="xcoord_1: 0.996877713297; ycoord_1: 1.03654771667; Load: load" role="graphics-symbol" aria-roledescription="circle" transform="translate(359.53165699447675,96.34522833278054)" d="M3.536,0A3.536,3.536,0,1,1,-3.536,0A3.536,3.536,0,1,1,3.536,0" fill="#CB181D" stroke-width="2" opacity="1"></path></g><g class="mark-group role-legend" role="graphics-symbol" aria-roledescription="legend" aria-label="Gradient legend titled 'Branch' for stroke color with values from 1 to 1"><g transform="translate(438,0)"><path class="background" aria-hidden="true" d="M0,0h38v216h-38Z" pointer-events="none"></path><g><g class="mark-group role-legend-entry"><g transform="translate(0,16)"><path class="background" aria-hidden="true" d="M0,0h0v0h0Z" pointer-events="none"></path><g><g class="mark-rect role-legend-gradient" pointer-events="none"><path d="M0,0h16v200h-16Z" fill="url(vscode-webview://1hpnk13ve6p825gg406ejf30cbhjrs0tdmedd37j2uck71tgco8k/index.html?id=de7836a0-002a-4ded-bc73-98fc472b7953&amp;origin=33c12138-9750-4a4e-ac34-1bf4d449cfd0&amp;swVersion=4&amp;extensionId=julialang.language-julia&amp;platform=electron&amp;vscode-resource-base-authority=vscode-resource.vscode-cdn.net&amp;parentOrigin=vscode-file%3A%2F%2Fvscode-app#gradient_0)" stroke="#ddd" stroke-width="0" opacity="1"></path></g><g class="mark-text role-legend-label" pointer-events="none"><text text-anchor="start" transform="translate(18,103)" font-family="sans-serif" font-size="10px" fill="#000" opacity="1">1</text></g></g><path class="foreground" aria-hidden="true" d="" pointer-events="none" display="none"></path></g></g><g class="mark-text role-legend-title" pointer-events="none"><text text-anchor="start" transform="translate(0,9)" font-family="sans-serif" font-size="11px" font-weight="bold" fill="#000" opacity="1">Branch</text></g></g><path class="foreground" aria-hidden="true" d="" pointer-events="none" display="none"></path></g></g><g class="mark-group role-legend" role="graphics-symbol" aria-roledescription="legend" aria-label="Symbol legend titled 'Connector' for stroke color with 1 value: undefined"><g transform="translate(438,224)"><path class="background" aria-hidden="true" d="M0,0h60v27h-60Z" pointer-events="none"></path><g><g class="mark-group role-legend-entry"><g transform="translate(0,16)"><path class="background" aria-hidden="true" d="M0,0h0v0h0Z" pointer-events="none"></path><g><g class="mark-group role-scope" role="graphics-object" aria-roledescription="group mark container"><g transform="translate(0,0)"><path class="background" aria-hidden="true" d="M0,0h59.9306640625v11h-59.9306640625Z" pointer-events="none" opacity="1"></path><g><g class="mark-symbol role-legend-symbol" pointer-events="none"><path transform="translate(6,6)" d="M-5,0L5,0" fill="transparent" stroke="gray" stroke-width="1.5" opacity="1"></path></g><g class="mark-text role-legend-label" pointer-events="none"><text text-anchor="start" transform="translate(16,9)" font-family="sans-serif" font-size="10px" fill="#000" opacity="1">undefined</text></g></g><path class="foreground" aria-hidden="true" d="" pointer-events="none" display="none"></path></g></g></g><path class="foreground" aria-hidden="true" d="" pointer-events="none" display="none"></path></g></g><g class="mark-text role-legend-title" pointer-events="none"><text text-anchor="start" transform="translate(0,9)" font-family="sans-serif" font-size="11px" font-weight="bold" fill="#000" opacity="1">Connector</text></g></g><path class="foreground" aria-hidden="true" d="" pointer-events="none" display="none"></path></g></g><g class="mark-group role-legend" role="graphics-symbol" aria-roledescription="legend" aria-label="Symbol legend titled 'Bus' for fill color with 1 value: bus"><g transform="translate(438,259)"><path class="background" aria-hidden="true" d="M0,0h33v27h-33Z" pointer-events="none"></path><g><g class="mark-group role-legend-entry"><g transform="translate(0,16)"><path class="background" aria-hidden="true" d="M0,0h0v0h0Z" pointer-events="none"></path><g><g class="mark-group role-scope" role="graphics-object" aria-roledescription="group mark container"><g transform="translate(0,0)"><path class="background" aria-hidden="true" d="M0,0h32.123046875v11h-32.123046875Z" pointer-events="none" opacity="1"></path><g><g class="mark-symbol role-legend-symbol" pointer-events="none"><path transform="translate(6,6)" d="M5,0A5,5,0,1,1,-5,0A5,5,0,1,1,5,0" fill="#31A354" stroke-width="1.5" opacity="1"></path></g><g class="mark-text role-legend-label" pointer-events="none"><text text-anchor="start" transform="translate(16,9)" font-family="sans-serif" font-size="10px" fill="#000" opacity="1">bus</text></g></g><path class="foreground" aria-hidden="true" d="" pointer-events="none" display="none"></path></g></g></g><path class="foreground" aria-hidden="true" d="" pointer-events="none" display="none"></path></g></g><g class="mark-text role-legend-title" pointer-events="none"><text text-anchor="start" transform="translate(0,9)" font-family="sans-serif" font-size="11px" font-weight="bold" fill="#000" opacity="1">Bus</text></g></g><path class="foreground" aria-hidden="true" d="" pointer-events="none" display="none"></path></g></g><g class="mark-group role-legend" role="graphics-symbol" aria-roledescription="legend" aria-label="Symbol legend titled 'Gen' for fill color with 1 value: 1"><g transform="translate(438,294)"><path class="background" aria-hidden="true" d="M0,0h22v27h-22Z" pointer-events="none"></path><g><g class="mark-group role-legend-entry"><g transform="translate(0,16)"><path class="background" aria-hidden="true" d="M0,0h0v0h0Z" pointer-events="none"></path><g><g class="mark-group role-scope" role="graphics-object" aria-roledescription="group mark container"><g transform="translate(0,0)"><path class="background" aria-hidden="true" d="M0,0h21.5615234375v11h-21.5615234375Z" pointer-events="none" opacity="1"></path><g><g class="mark-symbol role-legend-symbol" pointer-events="none"><path transform="translate(6,6)" d="M5,0A5,5,0,1,1,-5,0A5,5,0,1,1,5,0" fill="orange" stroke-width="1.5" opacity="1"></path></g><g class="mark-text role-legend-label" pointer-events="none"><text text-anchor="start" transform="translate(16,9)" font-family="sans-serif" font-size="10px" fill="#000" opacity="1">1</text></g></g><path class="foreground" aria-hidden="true" d="" pointer-events="none" display="none"></path></g></g></g><path class="foreground" aria-hidden="true" d="" pointer-events="none" display="none"></path></g></g><g class="mark-text role-legend-title" pointer-events="none"><text text-anchor="start" transform="translate(0,9)" font-family="sans-serif" font-size="11px" font-weight="bold" fill="#000" opacity="1">Gen</text></g></g><path class="foreground" aria-hidden="true" d="" pointer-events="none" display="none"></path></g></g><g class="mark-group role-legend" role="graphics-symbol" aria-roledescription="legend" aria-label="Symbol legend titled 'Load' for fill color with 1 value: load"><g transform="translate(438,329)"><path class="background" aria-hidden="true" d="M0,0h35v27h-35Z" pointer-events="none"></path><g><g class="mark-group role-legend-entry"><g transform="translate(0,16)"><path class="background" aria-hidden="true" d="M0,0h0v0h0Z" pointer-events="none"></path><g><g class="mark-group role-scope" role="graphics-object" aria-roledescription="group mark container"><g transform="translate(0,0)"><path class="background" aria-hidden="true" d="M0,0h34.90625v11h-34.90625Z" pointer-events="none" opacity="1"></path><g><g class="mark-symbol role-legend-symbol" pointer-events="none"><path transform="translate(6,6)" d="M5,0A5,5,0,1,1,-5,0A5,5,0,1,1,5,0" fill="#CB181D" stroke-width="1.5" opacity="1"></path></g><g class="mark-text role-legend-label" pointer-events="none"><text text-anchor="start" transform="translate(16,9)" font-family="sans-serif" font-size="10px" fill="#000" opacity="1">load</text></g></g><path class="foreground" aria-hidden="true" d="" pointer-events="none" display="none"></path></g></g></g><path class="foreground" aria-hidden="true" d="" pointer-events="none" display="none"></path></g></g><g class="mark-text role-legend-title" pointer-events="none"><text text-anchor="start" transform="translate(0,9)" font-family="sans-serif" font-size="11px" font-weight="bold" fill="#000" opacity="1">Load</text></g></g><path class="foreground" aria-hidden="true" d="" pointer-events="none" display="none"></path></g></g></g><path class="foreground" aria-hidden="true" d="" display="none"></path></g></g></g><defs><linearGradient id="gradient_0" x1="0" x2="0" y1="1" y2="0"><stop offset="0" stop-color="rgb(230, 245, 255)"></stop><stop offset="0.05" stop-color="rgb(214, 230, 255)"></stop><stop offset="0.1" stop-color="rgb(198, 215, 255)"></stop><stop offset="0.15" stop-color="rgb(182, 200, 255)"></stop><stop offset="0.2" stop-color="rgb(166, 186, 255)"></stop><stop offset="0.25" stop-color="rgb(150, 172, 255)"></stop><stop offset="0.3" stop-color="rgb(134, 158, 255)"></stop><stop offset="0.35" stop-color="rgb(118, 144, 255)"></stop><stop offset="0.4" stop-color="rgb(101, 131, 255)"></stop><stop offset="0.45" stop-color="rgb(84, 118, 255)"></stop><stop offset="0.5" stop-color="rgb(65, 105, 241)"></stop><stop offset="0.55" stop-color="rgb(118, 94, 237)"></stop><stop offset="0.6" stop-color="rgb(157, 78, 228)"></stop><stop offset="0.65" stop-color="rgb(189, 56, 213)"></stop><stop offset="0.7" stop-color="rgb(216, 14, 193)"></stop><stop offset="0.75" stop-color="rgb(237, 0, 168)"></stop><stop offset="0.8" stop-color="rgb(252, 0, 141)"></stop><stop offset="0.85" stop-color="rgb(255, 0, 112)"></stop><stop offset="0.9" stop-color="rgb(255, 0, 81)"></stop><stop offset="0.95" stop-color="rgb(255, 0, 49)"></stop><stop offset="1" stop-color="rgb(255, 0, 0)"></stop></linearGradient></defs></svg>