<svg xmlns="http://www.w3.org/2000/svg" xmlns:xlink="http://www.w3.org/1999/xlink" width="600" height="400" viewBox="0 0 2400 1600">
<defs>
  <clipPath id="clip150">
    <rect x="0" y="0" width="2400" height="1600"></rect>
  </clipPath>
</defs>
<path clip-path="url(#clip150)" d="M0 1600 L2400 1600 L2400 0 L0 0  Z" fill="#ffffff" fill-rule="evenodd" fill-opacity="1"></path>
<defs>
  <clipPath id="clip151">
    <rect x="480" y="0" width="1681" height="1600"></rect>
  </clipPath>
</defs>
<path clip-path="url(#clip150)" d="M219.866 1423.18 L2352.76 1423.18 L2352.76 123.472 L219.866 123.472  Z" fill="#ffffff" fill-rule="evenodd" fill-opacity="1"></path>
<defs>
  <clipPath id="clip152">
    <rect x="219" y="123" width="2134" height="1301"></rect>
  </clipPath>
</defs>
<polyline clip-path="url(#clip152)" style="stroke:#000000; stroke-linecap:round; stroke-linejoin:round; stroke-width:2; stroke-opacity:0.1; fill:none" points="278.253,1423.18 278.253,123.472 "></polyline>
<polyline clip-path="url(#clip152)" style="stroke:#000000; stroke-linecap:round; stroke-linejoin:round; stroke-width:2; stroke-opacity:0.1; fill:none" points="772.884,1423.18 772.884,123.472 "></polyline>
<polyline clip-path="url(#clip152)" style="stroke:#000000; stroke-linecap:round; stroke-linejoin:round; stroke-width:2; stroke-opacity:0.1; fill:none" points="1267.52,1423.18 1267.52,123.472 "></polyline>
<polyline clip-path="url(#clip152)" style="stroke:#000000; stroke-linecap:round; stroke-linejoin:round; stroke-width:2; stroke-opacity:0.1; fill:none" points="1762.15,1423.18 1762.15,123.472 "></polyline>
<polyline clip-path="url(#clip152)" style="stroke:#000000; stroke-linecap:round; stroke-linejoin:round; stroke-width:2; stroke-opacity:0.1; fill:none" points="2256.78,1423.18 2256.78,123.472 "></polyline>
<polyline clip-path="url(#clip150)" style="stroke:#000000; stroke-linecap:round; stroke-linejoin:round; stroke-width:4; stroke-opacity:1; fill:none" points="219.866,1423.18 2352.76,1423.18 "></polyline>
<polyline clip-path="url(#clip150)" style="stroke:#000000; stroke-linecap:round; stroke-linejoin:round; stroke-width:4; stroke-opacity:1; fill:none" points="278.253,1423.18 278.253,1404.28 "></polyline>
<polyline clip-path="url(#clip150)" style="stroke:#000000; stroke-linecap:round; stroke-linejoin:round; stroke-width:4; stroke-opacity:1; fill:none" points="772.884,1423.18 772.884,1404.28 "></polyline>
<polyline clip-path="url(#clip150)" style="stroke:#000000; stroke-linecap:round; stroke-linejoin:round; stroke-width:4; stroke-opacity:1; fill:none" points="1267.52,1423.18 1267.52,1404.28 "></polyline>
<polyline clip-path="url(#clip150)" style="stroke:#000000; stroke-linecap:round; stroke-linejoin:round; stroke-width:4; stroke-opacity:1; fill:none" points="1762.15,1423.18 1762.15,1404.28 "></polyline>
<polyline clip-path="url(#clip150)" style="stroke:#000000; stroke-linecap:round; stroke-linejoin:round; stroke-width:4; stroke-opacity:1; fill:none" points="2256.78,1423.18 2256.78,1404.28 "></polyline>
<path clip-path="url(#clip150)" d="M278.253 1454.1 Q274.641 1454.1 272.813 1457.66 Q271.007 1461.2 271.007 1468.33 Q271.007 1475.44 272.813 1479.01 Q274.641 1482.55 278.253 1482.55 Q281.887 1482.55 283.692 1479.01 Q285.521 1475.44 285.521 1468.33 Q285.521 1461.2 283.692 1457.66 Q281.887 1454.1 278.253 1454.1 M278.253 1450.39 Q284.063 1450.39 287.118 1455 Q290.197 1459.58 290.197 1468.33 Q290.197 1477.06 287.118 1481.67 Q284.063 1486.25 278.253 1486.25 Q272.442 1486.25 269.364 1481.67 Q266.308 1477.06 266.308 1468.33 Q266.308 1459.58 269.364 1455 Q272.442 1450.39 278.253 1450.39 Z" fill="#000000" fill-rule="nonzero" fill-opacity="1"></path><path clip-path="url(#clip150)" d="M736.576 1481.64 L752.896 1481.64 L752.896 1485.58 L730.951 1485.58 L730.951 1481.64 Q733.613 1478.89 738.197 1474.26 Q742.803 1469.61 743.984 1468.27 Q746.229 1465.74 747.108 1464.01 Q748.011 1462.25 748.011 1460.56 Q748.011 1457.8 746.067 1456.07 Q744.146 1454.33 741.044 1454.33 Q738.845 1454.33 736.391 1455.09 Q733.96 1455.86 731.183 1457.41 L731.183 1452.69 Q734.007 1451.55 736.46 1450.97 Q738.914 1450.39 740.951 1450.39 Q746.321 1450.39 749.516 1453.08 Q752.71 1455.77 752.71 1460.26 Q752.71 1462.39 751.9 1464.31 Q751.113 1466.2 749.007 1468.8 Q748.428 1469.47 745.326 1472.69 Q742.224 1475.88 736.576 1481.64 Z" fill="#000000" fill-rule="nonzero" fill-opacity="1"></path><path clip-path="url(#clip150)" d="M762.757 1451.02 L781.113 1451.02 L781.113 1454.96 L767.039 1454.96 L767.039 1463.43 Q768.057 1463.08 769.076 1462.92 Q770.094 1462.73 771.113 1462.73 Q776.9 1462.73 780.28 1465.9 Q783.659 1469.08 783.659 1474.49 Q783.659 1480.07 780.187 1483.17 Q776.715 1486.25 770.395 1486.25 Q768.219 1486.25 765.951 1485.88 Q763.706 1485.51 761.298 1484.77 L761.298 1480.07 Q763.382 1481.2 765.604 1481.76 Q767.826 1482.32 770.303 1482.32 Q774.307 1482.32 776.645 1480.21 Q778.983 1478.1 778.983 1474.49 Q778.983 1470.88 776.645 1468.77 Q774.307 1466.67 770.303 1466.67 Q768.428 1466.67 766.553 1467.08 Q764.701 1467.5 762.757 1468.38 L762.757 1451.02 Z" fill="#000000" fill-rule="nonzero" fill-opacity="1"></path><path clip-path="url(#clip150)" d="M802.872 1454.1 Q799.261 1454.1 797.432 1457.66 Q795.627 1461.2 795.627 1468.33 Q795.627 1475.44 797.432 1479.01 Q799.261 1482.55 802.872 1482.55 Q806.506 1482.55 808.312 1479.01 Q810.141 1475.44 810.141 1468.33 Q810.141 1461.2 808.312 1457.66 Q806.506 1454.1 802.872 1454.1 M802.872 1450.39 Q808.682 1450.39 811.738 1455 Q814.816 1459.58 814.816 1468.33 Q814.816 1477.06 811.738 1481.67 Q808.682 1486.25 802.872 1486.25 Q797.062 1486.25 793.983 1481.67 Q790.928 1477.06 790.928 1468.33 Q790.928 1459.58 793.983 1455 Q797.062 1450.39 802.872 1450.39 Z" fill="#000000" fill-rule="nonzero" fill-opacity="1"></path><path clip-path="url(#clip150)" d="M1227.13 1451.02 L1245.49 1451.02 L1245.49 1454.96 L1231.42 1454.96 L1231.42 1463.43 Q1232.43 1463.08 1233.45 1462.92 Q1234.47 1462.73 1235.49 1462.73 Q1241.28 1462.73 1244.66 1465.9 Q1248.04 1469.08 1248.04 1474.49 Q1248.04 1480.07 1244.56 1483.17 Q1241.09 1486.25 1234.77 1486.25 Q1232.6 1486.25 1230.33 1485.88 Q1228.08 1485.51 1225.68 1484.77 L1225.68 1480.07 Q1227.76 1481.2 1229.98 1481.76 Q1232.2 1482.32 1234.68 1482.32 Q1238.68 1482.32 1241.02 1480.21 Q1243.36 1478.1 1243.36 1474.49 Q1243.36 1470.88 1241.02 1468.77 Q1238.68 1466.67 1234.68 1466.67 Q1232.8 1466.67 1230.93 1467.08 Q1229.08 1467.5 1227.13 1468.38 L1227.13 1451.02 Z" fill="#000000" fill-rule="nonzero" fill-opacity="1"></path><path clip-path="url(#clip150)" d="M1267.25 1454.1 Q1263.64 1454.1 1261.81 1457.66 Q1260 1461.2 1260 1468.33 Q1260 1475.44 1261.81 1479.01 Q1263.64 1482.55 1267.25 1482.55 Q1270.88 1482.55 1272.69 1479.01 Q1274.52 1475.44 1274.52 1468.33 Q1274.52 1461.2 1272.69 1457.66 Q1270.88 1454.1 1267.25 1454.1 M1267.25 1450.39 Q1273.06 1450.39 1276.11 1455 Q1279.19 1459.58 1279.19 1468.33 Q1279.19 1477.06 1276.11 1481.67 Q1273.06 1486.25 1267.25 1486.25 Q1261.44 1486.25 1258.36 1481.67 Q1255.3 1477.06 1255.3 1468.33 Q1255.3 1459.58 1258.36 1455 Q1261.44 1450.39 1267.25 1450.39 Z" fill="#000000" fill-rule="nonzero" fill-opacity="1"></path><path clip-path="url(#clip150)" d="M1297.41 1454.1 Q1293.8 1454.1 1291.97 1457.66 Q1290.17 1461.2 1290.17 1468.33 Q1290.17 1475.44 1291.97 1479.01 Q1293.8 1482.55 1297.41 1482.55 Q1301.05 1482.55 1302.85 1479.01 Q1304.68 1475.44 1304.68 1468.33 Q1304.68 1461.2 1302.85 1457.66 Q1301.05 1454.1 1297.41 1454.1 M1297.41 1450.39 Q1303.22 1450.39 1306.28 1455 Q1309.36 1459.58 1309.36 1468.33 Q1309.36 1477.06 1306.28 1481.67 Q1303.22 1486.25 1297.41 1486.25 Q1291.6 1486.25 1288.52 1481.67 Q1285.47 1477.06 1285.47 1468.33 Q1285.47 1459.58 1288.52 1455 Q1291.6 1450.39 1297.41 1450.39 Z" fill="#000000" fill-rule="nonzero" fill-opacity="1"></path><path clip-path="url(#clip150)" d="M1720.42 1451.02 L1742.64 1451.02 L1742.64 1453.01 L1730.1 1485.58 L1725.21 1485.58 L1737.02 1454.96 L1720.42 1454.96 L1720.42 1451.02 Z" fill="#000000" fill-rule="nonzero" fill-opacity="1"></path><path clip-path="url(#clip150)" d="M1751.81 1451.02 L1770.17 1451.02 L1770.17 1454.96 L1756.09 1454.96 L1756.09 1463.43 Q1757.11 1463.08 1758.13 1462.92 Q1759.15 1462.73 1760.17 1462.73 Q1765.95 1462.73 1769.33 1465.9 Q1772.71 1469.08 1772.71 1474.49 Q1772.71 1480.07 1769.24 1483.17 Q1765.77 1486.25 1759.45 1486.25 Q1757.27 1486.25 1755.01 1485.88 Q1752.76 1485.51 1750.35 1484.77 L1750.35 1480.07 Q1752.44 1481.2 1754.66 1481.76 Q1756.88 1482.32 1759.36 1482.32 Q1763.36 1482.32 1765.7 1480.21 Q1768.04 1478.1 1768.04 1474.49 Q1768.04 1470.88 1765.7 1468.77 Q1763.36 1466.67 1759.36 1466.67 Q1757.48 1466.67 1755.61 1467.08 Q1753.76 1467.5 1751.81 1468.38 L1751.81 1451.02 Z" fill="#000000" fill-rule="nonzero" fill-opacity="1"></path><path clip-path="url(#clip150)" d="M1791.93 1454.1 Q1788.32 1454.1 1786.49 1457.66 Q1784.68 1461.2 1784.68 1468.33 Q1784.68 1475.44 1786.49 1479.01 Q1788.32 1482.55 1791.93 1482.55 Q1795.56 1482.55 1797.37 1479.01 Q1799.19 1475.44 1799.19 1468.33 Q1799.19 1461.2 1797.37 1457.66 Q1795.56 1454.1 1791.93 1454.1 M1791.93 1450.39 Q1797.74 1450.39 1800.79 1455 Q1803.87 1459.58 1803.87 1468.33 Q1803.87 1477.06 1800.79 1481.67 Q1797.74 1486.25 1791.93 1486.25 Q1786.12 1486.25 1783.04 1481.67 Q1779.98 1477.06 1779.98 1468.33 Q1779.98 1459.58 1783.04 1455 Q1786.12 1450.39 1791.93 1450.39 Z" fill="#000000" fill-rule="nonzero" fill-opacity="1"></path><path clip-path="url(#clip150)" d="M2201.3 1481.64 L2208.94 1481.64 L2208.94 1455.28 L2200.63 1456.95 L2200.63 1452.69 L2208.9 1451.02 L2213.57 1451.02 L2213.57 1481.64 L2221.21 1481.64 L2221.21 1485.58 L2201.3 1485.58 L2201.3 1481.64 Z" fill="#000000" fill-rule="nonzero" fill-opacity="1"></path><path clip-path="url(#clip150)" d="M2240.66 1454.1 Q2237.04 1454.1 2235.22 1457.66 Q2233.41 1461.2 2233.41 1468.33 Q2233.41 1475.44 2235.22 1479.01 Q2237.04 1482.55 2240.66 1482.55 Q2244.29 1482.55 2246.09 1479.01 Q2247.92 1475.44 2247.92 1468.33 Q2247.92 1461.2 2246.09 1457.66 Q2244.29 1454.1 2240.66 1454.1 M2240.66 1450.39 Q2246.47 1450.39 2249.52 1455 Q2252.6 1459.58 2252.6 1468.33 Q2252.6 1477.06 2249.52 1481.67 Q2246.47 1486.25 2240.66 1486.25 Q2234.84 1486.25 2231.77 1481.67 Q2228.71 1477.06 2228.71 1468.33 Q2228.71 1459.58 2231.77 1455 Q2234.84 1450.39 2240.66 1450.39 Z" fill="#000000" fill-rule="nonzero" fill-opacity="1"></path><path clip-path="url(#clip150)" d="M2270.82 1454.1 Q2267.21 1454.1 2265.38 1457.66 Q2263.57 1461.2 2263.57 1468.33 Q2263.57 1475.44 2265.38 1479.01 Q2267.21 1482.55 2270.82 1482.55 Q2274.45 1482.55 2276.26 1479.01 Q2278.09 1475.44 2278.09 1468.33 Q2278.09 1461.2 2276.26 1457.66 Q2274.45 1454.1 2270.82 1454.1 M2270.82 1450.39 Q2276.63 1450.39 2279.68 1455 Q2282.76 1459.58 2282.76 1468.33 Q2282.76 1477.06 2279.68 1481.67 Q2276.63 1486.25 2270.82 1486.25 Q2265.01 1486.25 2261.93 1481.67 Q2258.87 1477.06 2258.87 1468.33 Q2258.87 1459.58 2261.93 1455 Q2265.01 1450.39 2270.82 1450.39 Z" fill="#000000" fill-rule="nonzero" fill-opacity="1"></path><path clip-path="url(#clip150)" d="M2300.98 1454.1 Q2297.37 1454.1 2295.54 1457.66 Q2293.73 1461.2 2293.73 1468.33 Q2293.73 1475.44 2295.54 1479.01 Q2297.37 1482.55 2300.98 1482.55 Q2304.61 1482.55 2306.42 1479.01 Q2308.25 1475.44 2308.25 1468.33 Q2308.25 1461.2 2306.42 1457.66 Q2304.61 1454.1 2300.98 1454.1 M2300.98 1450.39 Q2306.79 1450.39 2309.84 1455 Q2312.92 1459.58 2312.92 1468.33 Q2312.92 1477.06 2309.84 1481.67 Q2306.79 1486.25 2300.98 1486.25 Q2295.17 1486.25 2292.09 1481.67 Q2289.03 1477.06 2289.03 1468.33 Q2289.03 1459.58 2292.09 1455 Q2295.17 1450.39 2300.98 1450.39 Z" fill="#000000" fill-rule="nonzero" fill-opacity="1"></path><path clip-path="url(#clip150)" d="M1052.15 1520.52 L1082.19 1520.52 L1082.19 1525.93 L1058.58 1525.93 L1058.58 1540 L1081.21 1540 L1081.21 1545.41 L1058.58 1545.41 L1058.58 1562.63 L1082.77 1562.63 L1082.77 1568.04 L1052.15 1568.04 L1052.15 1520.52 Z" fill="#000000" fill-rule="nonzero" fill-opacity="1"></path><path clip-path="url(#clip150)" d="M1098.75 1562.7 L1098.75 1581.6 L1092.86 1581.6 L1092.86 1532.4 L1098.75 1532.4 L1098.75 1537.81 Q1100.59 1534.62 1103.39 1533.1 Q1106.23 1531.54 1110.14 1531.54 Q1116.63 1531.54 1120.68 1536.69 Q1124.75 1541.85 1124.75 1550.25 Q1124.75 1558.65 1120.68 1563.81 Q1116.63 1568.97 1110.14 1568.97 Q1106.23 1568.97 1103.39 1567.44 Q1100.59 1565.88 1098.75 1562.7 M1118.67 1550.25 Q1118.67 1543.79 1116 1540.13 Q1113.35 1536.44 1108.71 1536.44 Q1104.06 1536.44 1101.39 1540.13 Q1098.75 1543.79 1098.75 1550.25 Q1098.75 1556.71 1101.39 1560.4 Q1104.06 1564.07 1108.71 1564.07 Q1113.35 1564.07 1116 1560.4 Q1118.67 1556.71 1118.67 1550.25 Z" fill="#000000" fill-rule="nonzero" fill-opacity="1"></path><path clip-path="url(#clip150)" d="M1148.27 1536.5 Q1143.56 1536.5 1140.82 1540.19 Q1138.09 1543.85 1138.09 1550.25 Q1138.09 1556.65 1140.79 1560.34 Q1143.53 1564 1148.27 1564 Q1152.95 1564 1155.69 1560.31 Q1158.42 1556.62 1158.42 1550.25 Q1158.42 1543.92 1155.69 1540.23 Q1152.95 1536.5 1148.27 1536.5 M1148.27 1531.54 Q1155.91 1531.54 1160.27 1536.5 Q1164.63 1541.47 1164.63 1550.25 Q1164.63 1559 1160.27 1564 Q1155.91 1568.97 1148.27 1568.97 Q1140.6 1568.97 1136.24 1564 Q1131.91 1559 1131.91 1550.25 Q1131.91 1541.47 1136.24 1536.5 Q1140.6 1531.54 1148.27 1531.54 Z" fill="#000000" fill-rule="nonzero" fill-opacity="1"></path><path clip-path="url(#clip150)" d="M1199.99 1533.76 L1199.99 1539.24 Q1197.51 1537.87 1195 1537.2 Q1192.51 1536.5 1189.97 1536.5 Q1184.27 1536.5 1181.12 1540.13 Q1177.97 1543.73 1177.97 1550.25 Q1177.97 1556.78 1181.12 1560.4 Q1184.27 1564 1189.97 1564 Q1192.51 1564 1195 1563.33 Q1197.51 1562.63 1199.99 1561.26 L1199.99 1566.68 Q1197.54 1567.82 1194.9 1568.39 Q1192.29 1568.97 1189.33 1568.97 Q1181.28 1568.97 1176.53 1563.91 Q1171.79 1558.85 1171.79 1550.25 Q1171.79 1541.53 1176.57 1536.53 Q1181.37 1531.54 1189.71 1531.54 Q1192.42 1531.54 1195 1532.11 Q1197.57 1532.65 1199.99 1533.76 Z" fill="#000000" fill-rule="nonzero" fill-opacity="1"></path><path clip-path="url(#clip150)" d="M1239.81 1546.53 L1239.81 1568.04 L1233.95 1568.04 L1233.95 1546.72 Q1233.95 1541.66 1231.98 1539.14 Q1230.01 1536.63 1226.06 1536.63 Q1221.32 1536.63 1218.58 1539.65 Q1215.84 1542.68 1215.84 1547.9 L1215.84 1568.04 L1209.95 1568.04 L1209.95 1518.52 L1215.84 1518.52 L1215.84 1537.93 Q1217.94 1534.72 1220.78 1533.13 Q1223.64 1531.54 1227.36 1531.54 Q1233.51 1531.54 1236.66 1535.36 Q1239.81 1539.14 1239.81 1546.53 Z" fill="#000000" fill-rule="nonzero" fill-opacity="1"></path><path clip-path="url(#clip150)" d="M1301.84 1546.53 L1301.84 1568.04 L1295.99 1568.04 L1295.99 1546.72 Q1295.99 1541.66 1294.01 1539.14 Q1292.04 1536.63 1288.09 1536.63 Q1283.35 1536.63 1280.61 1539.65 Q1277.88 1542.68 1277.88 1547.9 L1277.88 1568.04 L1271.99 1568.04 L1271.99 1532.4 L1277.88 1532.4 L1277.88 1537.93 Q1279.98 1534.72 1282.81 1533.13 Q1285.67 1531.54 1289.4 1531.54 Q1295.54 1531.54 1298.69 1535.36 Q1301.84 1539.14 1301.84 1546.53 Z" fill="#000000" fill-rule="nonzero" fill-opacity="1"></path><path clip-path="url(#clip150)" d="M1312.92 1553.98 L1312.92 1532.4 L1318.78 1532.4 L1318.78 1553.75 Q1318.78 1558.81 1320.75 1561.36 Q1322.72 1563.87 1326.67 1563.87 Q1331.41 1563.87 1334.15 1560.85 Q1336.92 1557.83 1336.92 1552.61 L1336.92 1532.4 L1342.77 1532.4 L1342.77 1568.04 L1336.92 1568.04 L1336.92 1562.57 Q1334.79 1565.82 1331.95 1567.41 Q1329.15 1568.97 1325.43 1568.97 Q1319.29 1568.97 1316.1 1565.15 Q1312.92 1561.33 1312.92 1553.98 M1327.66 1531.54 L1327.66 1531.54 Z" fill="#000000" fill-rule="nonzero" fill-opacity="1"></path><path clip-path="url(#clip150)" d="M1382.59 1539.24 Q1384.79 1535.29 1387.84 1533.41 Q1390.9 1531.54 1395.04 1531.54 Q1400.61 1531.54 1403.63 1535.45 Q1406.65 1539.33 1406.65 1546.53 L1406.65 1568.04 L1400.77 1568.04 L1400.77 1546.72 Q1400.77 1541.59 1398.95 1539.11 Q1397.14 1536.63 1393.41 1536.63 Q1388.86 1536.63 1386.22 1539.65 Q1383.58 1542.68 1383.58 1547.9 L1383.58 1568.04 L1377.69 1568.04 L1377.69 1546.72 Q1377.69 1541.56 1375.88 1539.11 Q1374.06 1536.63 1370.27 1536.63 Q1365.79 1536.63 1363.15 1539.68 Q1360.5 1542.71 1360.5 1547.9 L1360.5 1568.04 L1354.62 1568.04 L1354.62 1532.4 L1360.5 1532.4 L1360.5 1537.93 Q1362.51 1534.66 1365.31 1533.1 Q1368.11 1531.54 1371.96 1531.54 Q1375.84 1531.54 1378.55 1533.51 Q1381.29 1535.48 1382.59 1539.24 Z" fill="#000000" fill-rule="nonzero" fill-opacity="1"></path><path clip-path="url(#clip150)" d="M1443.93 1550.25 Q1443.93 1543.79 1441.25 1540.13 Q1438.61 1536.44 1433.96 1536.44 Q1429.32 1536.44 1426.64 1540.13 Q1424 1543.79 1424 1550.25 Q1424 1556.71 1426.64 1560.4 Q1429.32 1564.07 1433.96 1564.07 Q1438.61 1564.07 1441.25 1560.4 Q1443.93 1556.71 1443.93 1550.25 M1424 1537.81 Q1425.85 1534.62 1428.65 1533.1 Q1431.48 1531.54 1435.4 1531.54 Q1441.89 1531.54 1445.93 1536.69 Q1450.01 1541.85 1450.01 1550.25 Q1450.01 1558.65 1445.93 1563.81 Q1441.89 1568.97 1435.4 1568.97 Q1431.48 1568.97 1428.65 1567.44 Q1425.85 1565.88 1424 1562.7 L1424 1568.04 L1418.11 1568.04 L1418.11 1518.52 L1424 1518.52 L1424 1537.81 Z" fill="#000000" fill-rule="nonzero" fill-opacity="1"></path><path clip-path="url(#clip150)" d="M1490.2 1548.76 L1490.2 1551.62 L1463.28 1551.62 Q1463.66 1557.67 1466.91 1560.85 Q1470.18 1564 1476.01 1564 Q1479.38 1564 1482.53 1563.17 Q1485.72 1562.35 1488.84 1560.69 L1488.84 1566.23 Q1485.69 1567.57 1482.37 1568.27 Q1479.06 1568.97 1475.66 1568.97 Q1467.13 1568.97 1462.13 1564 Q1457.17 1559.04 1457.17 1550.57 Q1457.17 1541.82 1461.88 1536.69 Q1466.62 1531.54 1474.64 1531.54 Q1481.83 1531.54 1486 1536.18 Q1490.2 1540.8 1490.2 1548.76 M1484.35 1547.04 Q1484.28 1542.23 1481.64 1539.37 Q1479.03 1536.5 1474.7 1536.5 Q1469.8 1536.5 1466.84 1539.27 Q1463.91 1542.04 1463.47 1547.07 L1484.35 1547.04 Z" fill="#000000" fill-rule="nonzero" fill-opacity="1"></path><path clip-path="url(#clip150)" d="M1520.47 1537.87 Q1519.49 1537.3 1518.31 1537.04 Q1517.16 1536.76 1515.76 1536.76 Q1510.8 1536.76 1508.12 1540 Q1505.48 1543.22 1505.48 1549.27 L1505.48 1568.04 L1499.59 1568.04 L1499.59 1532.4 L1505.48 1532.4 L1505.48 1537.93 Q1507.33 1534.69 1510.29 1533.13 Q1513.25 1531.54 1517.48 1531.54 Q1518.09 1531.54 1518.82 1531.63 Q1519.55 1531.7 1520.44 1531.85 L1520.47 1537.87 Z" fill="#000000" fill-rule="nonzero" fill-opacity="1"></path><polyline clip-path="url(#clip152)" style="stroke:#000000; stroke-linecap:round; stroke-linejoin:round; stroke-width:2; stroke-opacity:0.1; fill:none" points="219.866,1223.17 2352.76,1223.17 "></polyline>
<polyline clip-path="url(#clip152)" style="stroke:#000000; stroke-linecap:round; stroke-linejoin:round; stroke-width:2; stroke-opacity:0.1; fill:none" points="219.866,954.976 2352.76,954.976 "></polyline>
<polyline clip-path="url(#clip152)" style="stroke:#000000; stroke-linecap:round; stroke-linejoin:round; stroke-width:2; stroke-opacity:0.1; fill:none" points="219.866,686.785 2352.76,686.785 "></polyline>
<polyline clip-path="url(#clip152)" style="stroke:#000000; stroke-linecap:round; stroke-linejoin:round; stroke-width:2; stroke-opacity:0.1; fill:none" points="219.866,418.594 2352.76,418.594 "></polyline>
<polyline clip-path="url(#clip152)" style="stroke:#000000; stroke-linecap:round; stroke-linejoin:round; stroke-width:2; stroke-opacity:0.1; fill:none" points="219.866,150.403 2352.76,150.403 "></polyline>
<polyline clip-path="url(#clip150)" style="stroke:#000000; stroke-linecap:round; stroke-linejoin:round; stroke-width:4; stroke-opacity:1; fill:none" points="219.866,1423.18 219.866,123.472 "></polyline>
<polyline clip-path="url(#clip150)" style="stroke:#000000; stroke-linecap:round; stroke-linejoin:round; stroke-width:4; stroke-opacity:1; fill:none" points="219.866,1223.17 238.764,1223.17 "></polyline>
<polyline clip-path="url(#clip150)" style="stroke:#000000; stroke-linecap:round; stroke-linejoin:round; stroke-width:4; stroke-opacity:1; fill:none" points="219.866,954.976 238.764,954.976 "></polyline>
<polyline clip-path="url(#clip150)" style="stroke:#000000; stroke-linecap:round; stroke-linejoin:round; stroke-width:4; stroke-opacity:1; fill:none" points="219.866,686.785 238.764,686.785 "></polyline>
<polyline clip-path="url(#clip150)" style="stroke:#000000; stroke-linecap:round; stroke-linejoin:round; stroke-width:4; stroke-opacity:1; fill:none" points="219.866,418.594 238.764,418.594 "></polyline>
<polyline clip-path="url(#clip150)" style="stroke:#000000; stroke-linecap:round; stroke-linejoin:round; stroke-width:4; stroke-opacity:1; fill:none" points="219.866,150.403 238.764,150.403 "></polyline>
<path clip-path="url(#clip150)" d="M128.288 1208.97 Q124.677 1208.97 122.848 1212.53 Q121.043 1216.07 121.043 1223.2 Q121.043 1230.31 122.848 1233.87 Q124.677 1237.41 128.288 1237.41 Q131.922 1237.41 133.728 1233.87 Q135.556 1230.31 135.556 1223.2 Q135.556 1216.07 133.728 1212.53 Q131.922 1208.97 128.288 1208.97 M128.288 1205.26 Q134.098 1205.26 137.154 1209.87 Q140.232 1214.45 140.232 1223.2 Q140.232 1231.93 137.154 1236.53 Q134.098 1241.12 128.288 1241.12 Q122.478 1241.12 119.399 1236.53 Q116.343 1231.93 116.343 1223.2 Q116.343 1214.45 119.399 1209.87 Q122.478 1205.26 128.288 1205.26 Z" fill="#000000" fill-rule="nonzero" fill-opacity="1"></path><path clip-path="url(#clip150)" d="M148.45 1234.57 L153.334 1234.57 L153.334 1240.45 L148.45 1240.45 L148.45 1234.57 Z" fill="#000000" fill-rule="nonzero" fill-opacity="1"></path><path clip-path="url(#clip150)" d="M167.547 1236.51 L183.866 1236.51 L183.866 1240.45 L161.922 1240.45 L161.922 1236.51 Q164.584 1233.76 169.167 1229.13 Q173.774 1224.47 174.954 1223.13 Q177.2 1220.61 178.079 1218.87 Q178.982 1217.11 178.982 1215.42 Q178.982 1212.67 177.038 1210.93 Q175.116 1209.2 172.014 1209.2 Q169.815 1209.2 167.362 1209.96 Q164.931 1210.72 162.153 1212.28 L162.153 1207.55 Q164.977 1206.42 167.431 1205.84 Q169.885 1205.26 171.922 1205.26 Q177.292 1205.26 180.487 1207.95 Q183.681 1210.63 183.681 1215.12 Q183.681 1217.25 182.871 1219.17 Q182.084 1221.07 179.977 1223.66 Q179.399 1224.34 176.297 1227.55 Q173.195 1230.75 167.547 1236.51 Z" fill="#000000" fill-rule="nonzero" fill-opacity="1"></path><path clip-path="url(#clip150)" d="M126.205 940.775 Q122.593 940.775 120.765 944.339 Q118.959 947.881 118.959 955.011 Q118.959 962.117 120.765 965.682 Q122.593 969.224 126.205 969.224 Q129.839 969.224 131.644 965.682 Q133.473 962.117 133.473 955.011 Q133.473 947.881 131.644 944.339 Q129.839 940.775 126.205 940.775 M126.205 937.071 Q132.015 937.071 135.07 941.677 Q138.149 946.261 138.149 955.011 Q138.149 963.738 135.07 968.344 Q132.015 972.927 126.205 972.927 Q120.394 972.927 117.316 968.344 Q114.26 963.738 114.26 955.011 Q114.26 946.261 117.316 941.677 Q120.394 937.071 126.205 937.071 Z" fill="#000000" fill-rule="nonzero" fill-opacity="1"></path><path clip-path="url(#clip150)" d="M146.366 966.376 L151.251 966.376 L151.251 972.256 L146.366 972.256 L146.366 966.376 Z" fill="#000000" fill-rule="nonzero" fill-opacity="1"></path><path clip-path="url(#clip150)" d="M174.283 941.77 L162.477 960.219 L174.283 960.219 L174.283 941.77 M173.056 937.696 L178.936 937.696 L178.936 960.219 L183.866 960.219 L183.866 964.108 L178.936 964.108 L178.936 972.256 L174.283 972.256 L174.283 964.108 L158.681 964.108 L158.681 959.594 L173.056 937.696 Z" fill="#000000" fill-rule="nonzero" fill-opacity="1"></path><path clip-path="url(#clip150)" d="M126.529 672.584 Q122.918 672.584 121.089 676.149 Q119.283 679.69 119.283 686.82 Q119.283 693.926 121.089 697.491 Q122.918 701.033 126.529 701.033 Q130.163 701.033 131.968 697.491 Q133.797 693.926 133.797 686.82 Q133.797 679.69 131.968 676.149 Q130.163 672.584 126.529 672.584 M126.529 668.88 Q132.339 668.88 135.394 673.486 Q138.473 678.07 138.473 686.82 Q138.473 695.547 135.394 700.153 Q132.339 704.736 126.529 704.736 Q120.718 704.736 117.64 700.153 Q114.584 695.547 114.584 686.82 Q114.584 678.07 117.64 673.486 Q120.718 668.88 126.529 668.88 Z" fill="#000000" fill-rule="nonzero" fill-opacity="1"></path><path clip-path="url(#clip150)" d="M146.691 698.185 L151.575 698.185 L151.575 704.065 L146.691 704.065 L146.691 698.185 Z" fill="#000000" fill-rule="nonzero" fill-opacity="1"></path><path clip-path="url(#clip150)" d="M172.339 684.922 Q169.19 684.922 167.339 687.074 Q165.51 689.227 165.51 692.977 Q165.51 696.704 167.339 698.88 Q169.19 701.033 172.339 701.033 Q175.487 701.033 177.315 698.88 Q179.167 696.704 179.167 692.977 Q179.167 689.227 177.315 687.074 Q175.487 684.922 172.339 684.922 M181.621 670.269 L181.621 674.528 Q179.862 673.695 178.056 673.255 Q176.274 672.815 174.514 672.815 Q169.885 672.815 167.431 675.94 Q165.001 679.065 164.653 685.385 Q166.019 683.371 168.079 682.306 Q170.139 681.218 172.616 681.218 Q177.825 681.218 180.834 684.389 Q183.866 687.537 183.866 692.977 Q183.866 698.301 180.718 701.519 Q177.57 704.736 172.339 704.736 Q166.343 704.736 163.172 700.153 Q160.001 695.547 160.001 686.82 Q160.001 678.625 163.89 673.764 Q167.778 668.88 174.329 668.88 Q176.089 668.88 177.871 669.227 Q179.676 669.574 181.621 670.269 Z" fill="#000000" fill-rule="nonzero" fill-opacity="1"></path><path clip-path="url(#clip150)" d="M126.783 404.393 Q123.172 404.393 121.343 407.958 Q119.538 411.499 119.538 418.629 Q119.538 425.735 121.343 429.3 Q123.172 432.842 126.783 432.842 Q130.417 432.842 132.223 429.3 Q134.052 425.735 134.052 418.629 Q134.052 411.499 132.223 407.958 Q130.417 404.393 126.783 404.393 M126.783 400.689 Q132.593 400.689 135.649 405.296 Q138.728 409.879 138.728 418.629 Q138.728 427.356 135.649 431.962 Q132.593 436.545 126.783 436.545 Q120.973 436.545 117.894 431.962 Q114.839 427.356 114.839 418.629 Q114.839 409.879 117.894 405.296 Q120.973 400.689 126.783 400.689 Z" fill="#000000" fill-rule="nonzero" fill-opacity="1"></path><path clip-path="url(#clip150)" d="M146.945 429.995 L151.829 429.995 L151.829 435.874 L146.945 435.874 L146.945 429.995 Z" fill="#000000" fill-rule="nonzero" fill-opacity="1"></path><path clip-path="url(#clip150)" d="M172.014 419.462 Q168.681 419.462 166.76 421.245 Q164.862 423.027 164.862 426.152 Q164.862 429.277 166.76 431.059 Q168.681 432.842 172.014 432.842 Q175.348 432.842 177.269 431.059 Q179.19 429.254 179.19 426.152 Q179.19 423.027 177.269 421.245 Q175.371 419.462 172.014 419.462 M167.339 417.471 Q164.329 416.731 162.64 414.671 Q160.973 412.61 160.973 409.647 Q160.973 405.504 163.913 403.096 Q166.876 400.689 172.014 400.689 Q177.176 400.689 180.116 403.096 Q183.056 405.504 183.056 409.647 Q183.056 412.61 181.366 414.671 Q179.7 416.731 176.714 417.471 Q180.093 418.258 181.968 420.55 Q183.866 422.842 183.866 426.152 Q183.866 431.175 180.788 433.86 Q177.732 436.545 172.014 436.545 Q166.297 436.545 163.218 433.86 Q160.163 431.175 160.163 426.152 Q160.163 422.842 162.061 420.55 Q163.959 418.258 167.339 417.471 M165.626 410.087 Q165.626 412.772 167.292 414.277 Q168.982 415.782 172.014 415.782 Q175.024 415.782 176.714 414.277 Q178.426 412.772 178.426 410.087 Q178.426 407.402 176.714 405.897 Q175.024 404.393 172.014 404.393 Q168.982 404.393 167.292 405.897 Q165.626 407.402 165.626 410.087 Z" fill="#000000" fill-rule="nonzero" fill-opacity="1"></path><path clip-path="url(#clip150)" d="M117.501 163.748 L125.14 163.748 L125.14 137.382 L116.83 139.049 L116.83 134.79 L125.093 133.123 L129.769 133.123 L129.769 163.748 L137.408 163.748 L137.408 167.683 L117.501 167.683 L117.501 163.748 Z" fill="#000000" fill-rule="nonzero" fill-opacity="1"></path><path clip-path="url(#clip150)" d="M146.853 161.804 L151.737 161.804 L151.737 167.683 L146.853 167.683 L146.853 161.804 Z" fill="#000000" fill-rule="nonzero" fill-opacity="1"></path><path clip-path="url(#clip150)" d="M171.922 136.202 Q168.311 136.202 166.482 139.767 Q164.677 143.308 164.677 150.438 Q164.677 157.544 166.482 161.109 Q168.311 164.651 171.922 164.651 Q175.556 164.651 177.362 161.109 Q179.19 157.544 179.19 150.438 Q179.19 143.308 177.362 139.767 Q175.556 136.202 171.922 136.202 M171.922 132.498 Q177.732 132.498 180.788 137.105 Q183.866 141.688 183.866 150.438 Q183.866 159.165 180.788 163.771 Q177.732 168.354 171.922 168.354 Q166.112 168.354 163.033 163.771 Q159.978 159.165 159.978 150.438 Q159.978 141.688 163.033 137.105 Q166.112 132.498 171.922 132.498 Z" fill="#000000" fill-rule="nonzero" fill-opacity="1"></path><path clip-path="url(#clip150)" d="M16.4842 1101.54 L16.4842 1091.96 L48.8219 1079.83 L16.4842 1067.64 L16.4842 1058.06 L64.0042 1058.06 L64.0042 1064.33 L22.277 1064.33 L54.8694 1076.59 L54.8694 1083.05 L22.277 1095.3 L64.0042 1095.3 L64.0042 1101.54 L16.4842 1101.54 Z" fill="#000000" fill-rule="nonzero" fill-opacity="1"></path><path clip-path="url(#clip150)" d="M44.7161 1015.06 L47.5806 1015.06 L47.5806 1041.99 Q53.6281 1041.61 56.8109 1038.36 Q59.9619 1035.08 59.9619 1029.26 Q59.9619 1025.89 59.1344 1022.73 Q58.3069 1019.55 56.6518 1016.43 L62.1899 1016.43 Q63.5267 1019.58 64.227 1022.89 Q64.9272 1026.2 64.9272 1029.61 Q64.9272 1038.14 59.9619 1043.14 Q54.9967 1048.1 46.5303 1048.1 Q37.7774 1048.1 32.6531 1043.39 Q27.4968 1038.65 27.4968 1030.63 Q27.4968 1023.43 32.1438 1019.27 Q36.7589 1015.06 44.7161 1015.06 M42.9973 1020.92 Q38.1912 1020.98 35.3266 1023.63 Q32.4621 1026.24 32.4621 1030.56 Q32.4621 1035.47 35.2312 1038.43 Q38.0002 1041.35 43.0292 1041.8 L42.9973 1020.92 Z" fill="#000000" fill-rule="nonzero" fill-opacity="1"></path><path clip-path="url(#clip150)" d="M46.0847 989.251 Q46.0847 996.349 47.7079 999.086 Q49.3312 1001.82 53.2461 1001.82 Q56.3653 1001.82 58.2114 999.786 Q60.0256 997.717 60.0256 994.184 Q60.0256 989.314 56.5881 986.386 Q53.1188 983.426 47.3897 983.426 L46.0847 983.426 L46.0847 989.251 M43.6657 977.57 L64.0042 977.57 L64.0042 983.426 L58.5933 983.426 Q61.8398 985.431 63.3994 988.423 Q64.9272 991.415 64.9272 995.744 Q64.9272 1001.22 61.8716 1004.46 Q58.7843 1007.68 53.6281 1007.68 Q47.6125 1007.68 44.5569 1003.67 Q41.5014 999.627 41.5014 991.638 L41.5014 983.426 L40.9285 983.426 Q36.8862 983.426 34.6901 986.1 Q32.4621 988.741 32.4621 993.548 Q32.4621 996.603 33.1941 999.5 Q33.9262 1002.4 35.3903 1005.07 L29.9795 1005.07 Q28.7381 1001.85 28.1334 998.831 Q27.4968 995.807 27.4968 992.943 Q27.4968 985.209 31.5072 981.389 Q35.5176 977.57 43.6657 977.57 Z" fill="#000000" fill-rule="nonzero" fill-opacity="1"></path><path clip-path="url(#clip150)" d="M42.4881 935.874 L64.0042 935.874 L64.0042 941.731 L42.679 941.731 Q37.6183 941.731 35.1038 943.704 Q32.5894 945.677 32.5894 949.624 Q32.5894 954.367 35.6131 957.104 Q38.6368 959.841 43.8567 959.841 L64.0042 959.841 L64.0042 965.729 L28.3562 965.729 L28.3562 959.841 L33.8944 959.841 Q30.6797 957.741 29.0883 954.908 Q27.4968 952.043 27.4968 948.319 Q27.4968 942.176 31.3163 939.025 Q35.1038 935.874 42.4881 935.874 Z" fill="#000000" fill-rule="nonzero" fill-opacity="1"></path><path clip-path="url(#clip150)" d="M22.818 887.336 L46.4666 896.057 L46.4666 878.583 L22.818 887.336 M16.4842 890.964 L16.4842 883.676 L64.0042 865.565 L64.0042 872.249 L51.8138 876.578 L51.8138 897.998 L64.0042 902.327 L64.0042 909.107 L16.4842 890.964 Z" fill="#000000" fill-rule="nonzero" fill-opacity="1"></path><path clip-path="url(#clip150)" d="M46.212 833.291 Q39.7508 833.291 36.0905 835.965 Q32.3984 838.606 32.3984 843.253 Q32.3984 847.9 36.0905 850.574 Q39.7508 853.216 46.212 853.216 Q52.6732 853.216 56.3653 850.574 Q60.0256 847.9 60.0256 843.253 Q60.0256 838.606 56.3653 835.965 Q52.6732 833.291 46.212 833.291 M33.7671 853.216 Q30.5842 851.37 29.0564 848.569 Q27.4968 845.736 27.4968 841.821 Q27.4968 835.328 32.6531 831.286 Q37.8093 827.212 46.212 827.212 Q54.6147 827.212 59.771 831.286 Q64.9272 835.328 64.9272 841.821 Q64.9272 845.736 63.3994 848.569 Q61.8398 851.37 58.657 853.216 L64.0042 853.216 L64.0042 859.104 L14.479 859.104 L14.479 853.216 L33.7671 853.216 Z" fill="#000000" fill-rule="nonzero" fill-opacity="1"></path><path clip-path="url(#clip150)" d="M29.4065 794.778 L34.9447 794.778 Q33.6716 797.261 33.035 799.935 Q32.3984 802.608 32.3984 805.473 Q32.3984 809.833 33.7352 812.029 Q35.072 814.194 37.7456 814.194 Q39.7826 814.194 40.9603 812.634 Q42.1061 811.075 43.1565 806.364 L43.6021 804.359 Q44.9389 798.12 47.3897 795.51 Q49.8086 792.869 54.1691 792.869 Q59.1344 792.869 62.0308 796.815 Q64.9272 800.73 64.9272 807.605 Q64.9272 810.47 64.3543 813.589 Q63.8132 816.676 62.6992 820.114 L56.6518 820.114 Q58.3387 816.867 59.198 813.716 Q60.0256 810.565 60.0256 807.478 Q60.0256 803.34 58.6251 801.112 Q57.1929 798.884 54.6147 798.884 Q52.2276 798.884 50.9545 800.508 Q49.6813 802.099 48.5037 807.542 L48.0262 809.579 Q46.8804 815.021 44.5251 817.44 Q42.138 819.859 38.0002 819.859 Q32.9713 819.859 30.2341 816.295 Q27.4968 812.73 27.4968 806.173 Q27.4968 802.927 27.9743 800.062 Q28.4517 797.197 29.4065 794.778 Z" fill="#000000" fill-rule="nonzero" fill-opacity="1"></path><path clip-path="url(#clip150)" d="M32.4621 769.729 Q32.4621 774.44 36.1542 777.177 Q39.8145 779.914 46.212 779.914 Q52.6095 779.914 56.3017 777.209 Q59.9619 774.472 59.9619 769.729 Q59.9619 765.051 56.2698 762.313 Q52.5777 759.576 46.212 759.576 Q39.8781 759.576 36.186 762.313 Q32.4621 765.051 32.4621 769.729 M27.4968 769.729 Q27.4968 762.091 32.4621 757.73 Q37.4273 753.369 46.212 753.369 Q54.9649 753.369 59.9619 757.73 Q64.9272 762.091 64.9272 769.729 Q64.9272 777.4 59.9619 781.761 Q54.9649 786.089 46.212 786.089 Q37.4273 786.089 32.4621 781.761 Q27.4968 777.4 27.4968 769.729 Z" fill="#000000" fill-rule="nonzero" fill-opacity="1"></path><path clip-path="url(#clip150)" d="M14.479 743.662 L14.479 737.805 L64.0042 737.805 L64.0042 743.662 L14.479 743.662 Z" fill="#000000" fill-rule="nonzero" fill-opacity="1"></path><path clip-path="url(#clip150)" d="M49.9359 726.156 L28.3562 726.156 L28.3562 720.3 L49.7131 720.3 Q54.7739 720.3 57.3202 718.326 Q59.8346 716.353 59.8346 712.406 Q59.8346 707.664 56.8109 704.926 Q53.7872 702.157 48.5673 702.157 L28.3562 702.157 L28.3562 696.301 L64.0042 696.301 L64.0042 702.157 L58.5296 702.157 Q61.7762 704.29 63.3676 707.123 Q64.9272 709.924 64.9272 713.647 Q64.9272 719.79 61.1078 722.973 Q57.2883 726.156 49.9359 726.156 M27.4968 711.419 L27.4968 711.419 Z" fill="#000000" fill-rule="nonzero" fill-opacity="1"></path><path clip-path="url(#clip150)" d="M18.2347 678.445 L28.3562 678.445 L28.3562 666.382 L32.9077 666.382 L32.9077 678.445 L52.2594 678.445 Q56.6199 678.445 57.8613 677.267 Q59.1026 676.058 59.1026 672.398 L59.1026 666.382 L64.0042 666.382 L64.0042 672.398 Q64.0042 679.177 61.4897 681.755 Q58.9434 684.333 52.2594 684.333 L32.9077 684.333 L32.9077 688.63 L28.3562 688.63 L28.3562 684.333 L18.2347 684.333 L18.2347 678.445 Z" fill="#000000" fill-rule="nonzero" fill-opacity="1"></path><path clip-path="url(#clip150)" d="M44.7161 628.188 L47.5806 628.188 L47.5806 655.115 Q53.6281 654.733 56.8109 651.486 Q59.9619 648.208 59.9619 642.383 Q59.9619 639.01 59.1344 635.859 Q58.3069 632.676 56.6518 629.556 L62.1899 629.556 Q63.5267 632.708 64.227 636.018 Q64.9272 639.328 64.9272 642.734 Q64.9272 651.264 59.9619 656.261 Q54.9967 661.226 46.5303 661.226 Q37.7774 661.226 32.6531 656.515 Q27.4968 651.773 27.4968 643.752 Q27.4968 636.559 32.1438 632.389 Q36.7589 628.188 44.7161 628.188 M42.9973 634.044 Q38.1912 634.108 35.3266 636.75 Q32.4621 639.36 32.4621 643.688 Q32.4621 648.59 35.2312 651.55 Q38.0002 654.478 43.0292 654.924 L42.9973 634.044 Z" fill="#000000" fill-rule="nonzero" fill-opacity="1"></path><path clip-path="url(#clip150)" d="M16.4842 597.601 L16.4842 567.555 L21.895 567.555 L21.895 591.171 L35.9632 591.171 L35.9632 568.541 L41.3741 568.541 L41.3741 591.171 L58.5933 591.171 L58.5933 566.982 L64.0042 566.982 L64.0042 597.601 L16.4842 597.601 Z" fill="#000000" fill-rule="nonzero" fill-opacity="1"></path><path clip-path="url(#clip150)" d="M33.8307 536.012 Q33.2578 536.999 33.0032 538.177 Q32.7167 539.323 32.7167 540.723 Q32.7167 545.688 35.9632 548.362 Q39.1779 551.004 45.2253 551.004 L64.0042 551.004 L64.0042 556.892 L28.3562 556.892 L28.3562 551.004 L33.8944 551.004 Q30.6479 549.158 29.0883 546.198 Q27.4968 543.238 27.4968 539.004 Q27.4968 538.4 27.5923 537.668 Q27.656 536.935 27.8151 536.044 L33.8307 536.012 Z" fill="#000000" fill-rule="nonzero" fill-opacity="1"></path><path clip-path="url(#clip150)" d="M33.8307 510.359 Q33.2578 511.345 33.0032 512.523 Q32.7167 513.669 32.7167 515.069 Q32.7167 520.035 35.9632 522.708 Q39.1779 525.35 45.2253 525.35 L64.0042 525.35 L64.0042 531.238 L28.3562 531.238 L28.3562 525.35 L33.8944 525.35 Q30.6479 523.504 29.0883 520.544 Q27.4968 517.584 27.4968 513.351 Q27.4968 512.746 27.5923 512.014 Q27.656 511.282 27.8151 510.39 L33.8307 510.359 Z" fill="#000000" fill-rule="nonzero" fill-opacity="1"></path><path clip-path="url(#clip150)" d="M32.4621 491.834 Q32.4621 496.545 36.1542 499.282 Q39.8145 502.02 46.212 502.02 Q52.6095 502.02 56.3017 499.314 Q59.9619 496.577 59.9619 491.834 Q59.9619 487.156 56.2698 484.418 Q52.5777 481.681 46.212 481.681 Q39.8781 481.681 36.186 484.418 Q32.4621 487.156 32.4621 491.834 M27.4968 491.834 Q27.4968 484.196 32.4621 479.835 Q37.4273 475.475 46.212 475.475 Q54.9649 475.475 59.9619 479.835 Q64.9272 484.196 64.9272 491.834 Q64.9272 499.505 59.9619 503.866 Q54.9649 508.194 46.212 508.194 Q37.4273 508.194 32.4621 503.866 Q27.4968 499.505 27.4968 491.834 Z" fill="#000000" fill-rule="nonzero" fill-opacity="1"></path><path clip-path="url(#clip150)" d="M33.8307 445.11 Q33.2578 446.097 33.0032 447.274 Q32.7167 448.42 32.7167 449.821 Q32.7167 454.786 35.9632 457.46 Q39.1779 460.101 45.2253 460.101 L64.0042 460.101 L64.0042 465.99 L28.3562 465.99 L28.3562 460.101 L33.8944 460.101 Q30.6479 458.255 29.0883 455.295 Q27.4968 452.335 27.4968 448.102 Q27.4968 447.497 27.5923 446.765 Q27.656 446.033 27.8151 445.142 L33.8307 445.11 Z" fill="#000000" fill-rule="nonzero" fill-opacity="1"></path><path clip-path="url(#clip150)" d="M512.467 72.576 L489.377 12.096 L497.924 12.096 L517.085 63.0159 L536.286 12.096 L544.793 12.096 L521.743 72.576 L512.467 72.576 Z" fill="#000000" fill-rule="nonzero" fill-opacity="1"></path><path clip-path="url(#clip150)" d="M567.478 49.7694 Q558.445 49.7694 554.961 51.8354 Q551.477 53.9013 551.477 58.8839 Q551.477 62.8538 554.07 65.2034 Q556.703 67.5124 561.199 67.5124 Q567.397 67.5124 571.124 63.1374 Q574.891 58.7219 574.891 51.4303 L574.891 49.7694 L567.478 49.7694 M582.345 46.6907 L582.345 72.576 L574.891 72.576 L574.891 65.6895 Q572.339 69.8214 568.531 71.8063 Q564.724 73.7508 559.214 73.7508 Q552.247 73.7508 548.115 69.8619 Q544.023 65.9325 544.023 59.3701 Q544.023 51.7138 549.128 47.825 Q554.272 43.9361 564.44 43.9361 L574.891 43.9361 L574.891 43.2069 Q574.891 38.0623 571.489 35.2672 Q568.126 32.4315 562.009 32.4315 Q558.121 32.4315 554.434 33.3632 Q550.748 34.295 547.345 36.1584 L547.345 29.2718 Q551.437 27.692 555.285 26.9223 Q559.133 26.1121 562.779 26.1121 Q572.623 26.1121 577.484 31.2163 Q582.345 36.3204 582.345 46.6907 Z" fill="#000000" fill-rule="nonzero" fill-opacity="1"></path><path clip-path="url(#clip150)" d="M623.988 34.1734 Q622.732 33.4443 621.234 33.1202 Q619.775 32.7556 617.993 32.7556 Q611.673 32.7556 608.271 36.8875 Q604.908 40.9789 604.908 48.6757 L604.908 72.576 L597.414 72.576 L597.414 27.2059 L604.908 27.2059 L604.908 34.2544 Q607.258 30.1225 611.025 28.1376 Q614.793 26.1121 620.18 26.1121 Q620.95 26.1121 621.882 26.2337 Q622.813 26.3147 623.948 26.5172 L623.988 34.1734 Z" fill="#000000" fill-rule="nonzero" fill-opacity="1"></path><path clip-path="url(#clip150)" d="M631.806 27.2059 L639.26 27.2059 L639.26 72.576 L631.806 72.576 L631.806 27.2059 M631.806 9.54393 L639.26 9.54393 L639.26 18.9825 L631.806 18.9825 L631.806 9.54393 Z" fill="#000000" fill-rule="nonzero" fill-opacity="1"></path><path clip-path="url(#clip150)" d="M675.475 49.7694 Q666.442 49.7694 662.958 51.8354 Q659.474 53.9013 659.474 58.8839 Q659.474 62.8538 662.067 65.2034 Q664.7 67.5124 669.196 67.5124 Q675.394 67.5124 679.121 63.1374 Q682.888 58.7219 682.888 51.4303 L682.888 49.7694 L675.475 49.7694 M690.342 46.6907 L690.342 72.576 L682.888 72.576 L682.888 65.6895 Q680.336 69.8214 676.528 71.8063 Q672.721 73.7508 667.211 73.7508 Q660.244 73.7508 656.112 69.8619 Q652.021 65.9325 652.021 59.3701 Q652.021 51.7138 657.125 47.825 Q662.269 43.9361 672.437 43.9361 L682.888 43.9361 L682.888 43.2069 Q682.888 38.0623 679.486 35.2672 Q676.123 32.4315 670.007 32.4315 Q666.118 32.4315 662.431 33.3632 Q658.745 34.295 655.342 36.1584 L655.342 29.2718 Q659.434 27.692 663.282 26.9223 Q667.13 26.1121 670.776 26.1121 Q680.62 26.1121 685.481 31.2163 Q690.342 36.3204 690.342 46.6907 Z" fill="#000000" fill-rule="nonzero" fill-opacity="1"></path><path clip-path="url(#clip150)" d="M713.068 14.324 L713.068 27.2059 L728.421 27.2059 L728.421 32.9987 L713.068 32.9987 L713.068 57.6282 Q713.068 63.1779 714.566 64.7578 Q716.106 66.3376 720.764 66.3376 L728.421 66.3376 L728.421 72.576 L720.764 72.576 Q712.136 72.576 708.855 69.3758 Q705.573 66.1351 705.573 57.6282 L705.573 32.9987 L700.105 32.9987 L700.105 27.2059 L705.573 27.2059 L705.573 14.324 L713.068 14.324 Z" fill="#000000" fill-rule="nonzero" fill-opacity="1"></path><path clip-path="url(#clip150)" d="M738.224 27.2059 L745.677 27.2059 L745.677 72.576 L738.224 72.576 L738.224 27.2059 M738.224 9.54393 L745.677 9.54393 L745.677 18.9825 L738.224 18.9825 L738.224 9.54393 Z" fill="#000000" fill-rule="nonzero" fill-opacity="1"></path><path clip-path="url(#clip150)" d="M778.854 32.4315 Q772.859 32.4315 769.375 37.1306 Q765.891 41.7891 765.891 49.9314 Q765.891 58.0738 769.335 62.7728 Q772.818 67.4314 778.854 67.4314 Q784.809 67.4314 788.293 62.7323 Q791.777 58.0333 791.777 49.9314 Q791.777 41.8701 788.293 37.1711 Q784.809 32.4315 778.854 32.4315 M778.854 26.1121 Q788.576 26.1121 794.126 32.4315 Q799.676 38.7509 799.676 49.9314 Q799.676 61.0714 794.126 67.4314 Q788.576 73.7508 778.854 73.7508 Q769.092 73.7508 763.542 67.4314 Q758.033 61.0714 758.033 49.9314 Q758.033 38.7509 763.542 32.4315 Q769.092 26.1121 778.854 26.1121 Z" fill="#000000" fill-rule="nonzero" fill-opacity="1"></path><path clip-path="url(#clip150)" d="M849.745 45.1919 L849.745 72.576 L842.291 72.576 L842.291 45.4349 Q842.291 38.994 839.78 35.7938 Q837.268 32.5936 832.245 32.5936 Q826.209 32.5936 822.726 36.4419 Q819.242 40.2903 819.242 46.9338 L819.242 72.576 L811.748 72.576 L811.748 27.2059 L819.242 27.2059 L819.242 34.2544 Q821.915 30.163 825.521 28.1376 Q829.167 26.1121 833.906 26.1121 Q841.724 26.1121 845.735 30.9732 Q849.745 35.7938 849.745 45.1919 Z" fill="#000000" fill-rule="nonzero" fill-opacity="1"></path><path clip-path="url(#clip150)" d="M908.564 32.4315 Q902.569 32.4315 899.085 37.1306 Q895.601 41.7891 895.601 49.9314 Q895.601 58.0738 899.045 62.7728 Q902.528 67.4314 908.564 67.4314 Q914.519 67.4314 918.003 62.7323 Q921.487 58.0333 921.487 49.9314 Q921.487 41.8701 918.003 37.1711 Q914.519 32.4315 908.564 32.4315 M908.564 26.1121 Q918.286 26.1121 923.836 32.4315 Q929.386 38.7509 929.386 49.9314 Q929.386 61.0714 923.836 67.4314 Q918.286 73.7508 908.564 73.7508 Q898.802 73.7508 893.252 67.4314 Q887.743 61.0714 887.743 49.9314 Q887.743 38.7509 893.252 32.4315 Q898.802 26.1121 908.564 26.1121 Z" fill="#000000" fill-rule="nonzero" fill-opacity="1"></path><path clip-path="url(#clip150)" d="M964.71 9.54393 L964.71 15.7418 L957.58 15.7418 Q953.57 15.7418 951.99 17.3622 Q950.451 18.9825 950.451 23.1955 L950.451 27.2059 L962.725 27.2059 L962.725 32.9987 L950.451 32.9987 L950.451 72.576 L942.956 72.576 L942.956 32.9987 L935.827 32.9987 L935.827 27.2059 L942.956 27.2059 L942.956 24.0462 Q942.956 16.471 946.481 13.0277 Q950.005 9.54393 957.661 9.54393 L964.71 9.54393 Z" fill="#000000" fill-rule="nonzero" fill-opacity="1"></path><path clip-path="url(#clip150)" d="M1013.24 72.576 L990.149 12.096 L998.697 12.096 L1017.86 63.0159 L1037.06 12.096 L1045.57 12.096 L1022.52 72.576 L1013.24 72.576 Z" fill="#000000" fill-rule="nonzero" fill-opacity="1"></path><path clip-path="url(#clip150)" d="M1068.25 49.7694 Q1059.22 49.7694 1055.73 51.8354 Q1052.25 53.9013 1052.25 58.8839 Q1052.25 62.8538 1054.84 65.2034 Q1057.48 67.5124 1061.97 67.5124 Q1068.17 67.5124 1071.9 63.1374 Q1075.66 58.7219 1075.66 51.4303 L1075.66 49.7694 L1068.25 49.7694 M1083.12 46.6907 L1083.12 72.576 L1075.66 72.576 L1075.66 65.6895 Q1073.11 69.8214 1069.3 71.8063 Q1065.5 73.7508 1059.99 73.7508 Q1053.02 73.7508 1048.89 69.8619 Q1044.8 65.9325 1044.8 59.3701 Q1044.8 51.7138 1049.9 47.825 Q1055.04 43.9361 1065.21 43.9361 L1075.66 43.9361 L1075.66 43.2069 Q1075.66 38.0623 1072.26 35.2672 Q1068.9 32.4315 1062.78 32.4315 Q1058.89 32.4315 1055.21 33.3632 Q1051.52 34.295 1048.12 36.1584 L1048.12 29.2718 Q1052.21 27.692 1056.06 26.9223 Q1059.91 26.1121 1063.55 26.1121 Q1073.4 26.1121 1078.26 31.2163 Q1083.12 36.3204 1083.12 46.6907 Z" fill="#000000" fill-rule="nonzero" fill-opacity="1"></path><path clip-path="url(#clip150)" d="M1098.47 9.54393 L1105.92 9.54393 L1105.92 72.576 L1098.47 72.576 L1098.47 9.54393 Z" fill="#000000" fill-rule="nonzero" fill-opacity="1"></path><path clip-path="url(#clip150)" d="M1121.52 27.2059 L1128.97 27.2059 L1128.97 72.576 L1121.52 72.576 L1121.52 27.2059 M1121.52 9.54393 L1128.97 9.54393 L1128.97 18.9825 L1121.52 18.9825 L1121.52 9.54393 Z" fill="#000000" fill-rule="nonzero" fill-opacity="1"></path><path clip-path="url(#clip150)" d="M1174.43 34.0924 L1174.43 9.54393 L1181.88 9.54393 L1181.88 72.576 L1174.43 72.576 L1174.43 65.7705 Q1172.08 69.8214 1168.47 71.8063 Q1164.91 73.7508 1159.88 73.7508 Q1151.66 73.7508 1146.47 67.1883 Q1141.33 60.6258 1141.33 49.9314 Q1141.33 39.2371 1146.47 32.6746 Q1151.66 26.1121 1159.88 26.1121 Q1164.91 26.1121 1168.47 28.0971 Q1172.08 30.0415 1174.43 34.0924 M1149.03 49.9314 Q1149.03 58.1548 1152.39 62.8538 Q1155.79 67.5124 1161.71 67.5124 Q1167.62 67.5124 1171.02 62.8538 Q1174.43 58.1548 1174.43 49.9314 Q1174.43 41.7081 1171.02 37.0496 Q1167.62 32.3505 1161.71 32.3505 Q1155.79 32.3505 1152.39 37.0496 Q1149.03 41.7081 1149.03 49.9314 Z" fill="#000000" fill-rule="nonzero" fill-opacity="1"></path><path clip-path="url(#clip150)" d="M1217.85 49.7694 Q1208.82 49.7694 1205.33 51.8354 Q1201.85 53.9013 1201.85 58.8839 Q1201.85 62.8538 1204.44 65.2034 Q1207.08 67.5124 1211.57 67.5124 Q1217.77 67.5124 1221.5 63.1374 Q1225.26 58.7219 1225.26 51.4303 L1225.26 49.7694 L1217.85 49.7694 M1232.72 46.6907 L1232.72 72.576 L1225.26 72.576 L1225.26 65.6895 Q1222.71 69.8214 1218.9 71.8063 Q1215.1 73.7508 1209.59 73.7508 Q1202.62 73.7508 1198.49 69.8619 Q1194.4 65.9325 1194.4 59.3701 Q1194.4 51.7138 1199.5 47.825 Q1204.64 43.9361 1214.81 43.9361 L1225.26 43.9361 L1225.26 43.2069 Q1225.26 38.0623 1221.86 35.2672 Q1218.5 32.4315 1212.38 32.4315 Q1208.49 32.4315 1204.81 33.3632 Q1201.12 34.295 1197.72 36.1584 L1197.72 29.2718 Q1201.81 27.692 1205.66 26.9223 Q1209.51 26.1121 1213.15 26.1121 Q1223 26.1121 1227.86 31.2163 Q1232.72 36.3204 1232.72 46.6907 Z" fill="#000000" fill-rule="nonzero" fill-opacity="1"></path><path clip-path="url(#clip150)" d="M1255.44 14.324 L1255.44 27.2059 L1270.8 27.2059 L1270.8 32.9987 L1255.44 32.9987 L1255.44 57.6282 Q1255.44 63.1779 1256.94 64.7578 Q1258.48 66.3376 1263.14 66.3376 L1270.8 66.3376 L1270.8 72.576 L1263.14 72.576 Q1254.51 72.576 1251.23 69.3758 Q1247.95 66.1351 1247.95 57.6282 L1247.95 32.9987 L1242.48 32.9987 L1242.48 27.2059 L1247.95 27.2059 L1247.95 14.324 L1255.44 14.324 Z" fill="#000000" fill-rule="nonzero" fill-opacity="1"></path><path clip-path="url(#clip150)" d="M1280.6 27.2059 L1288.05 27.2059 L1288.05 72.576 L1280.6 72.576 L1280.6 27.2059 M1280.6 9.54393 L1288.05 9.54393 L1288.05 18.9825 L1280.6 18.9825 L1280.6 9.54393 Z" fill="#000000" fill-rule="nonzero" fill-opacity="1"></path><path clip-path="url(#clip150)" d="M1321.23 32.4315 Q1315.23 32.4315 1311.75 37.1306 Q1308.27 41.7891 1308.27 49.9314 Q1308.27 58.0738 1311.71 62.7728 Q1315.19 67.4314 1321.23 67.4314 Q1327.18 67.4314 1330.67 62.7323 Q1334.15 58.0333 1334.15 49.9314 Q1334.15 41.8701 1330.67 37.1711 Q1327.18 32.4315 1321.23 32.4315 M1321.23 26.1121 Q1330.95 26.1121 1336.5 32.4315 Q1342.05 38.7509 1342.05 49.9314 Q1342.05 61.0714 1336.5 67.4314 Q1330.95 73.7508 1321.23 73.7508 Q1311.47 73.7508 1305.92 67.4314 Q1300.41 61.0714 1300.41 49.9314 Q1300.41 38.7509 1305.92 32.4315 Q1311.47 26.1121 1321.23 26.1121 Z" fill="#000000" fill-rule="nonzero" fill-opacity="1"></path><path clip-path="url(#clip150)" d="M1392.12 45.1919 L1392.12 72.576 L1384.67 72.576 L1384.67 45.4349 Q1384.67 38.994 1382.16 35.7938 Q1379.64 32.5936 1374.62 32.5936 Q1368.58 32.5936 1365.1 36.4419 Q1361.62 40.2903 1361.62 46.9338 L1361.62 72.576 L1354.12 72.576 L1354.12 27.2059 L1361.62 27.2059 L1361.62 34.2544 Q1364.29 30.163 1367.9 28.1376 Q1371.54 26.1121 1376.28 26.1121 Q1384.1 26.1121 1388.11 30.9732 Q1392.12 35.7938 1392.12 45.1919 Z" fill="#000000" fill-rule="nonzero" fill-opacity="1"></path><path clip-path="url(#clip150)" d="M1433.68 12.096 L1441.87 12.096 L1441.87 65.6895 L1471.32 65.6895 L1471.32 72.576 L1433.68 72.576 L1433.68 12.096 Z" fill="#000000" fill-rule="nonzero" fill-opacity="1"></path><path clip-path="url(#clip150)" d="M1495.7 32.4315 Q1489.71 32.4315 1486.22 37.1306 Q1482.74 41.7891 1482.74 49.9314 Q1482.74 58.0738 1486.18 62.7728 Q1489.67 67.4314 1495.7 67.4314 Q1501.66 67.4314 1505.14 62.7323 Q1508.62 58.0333 1508.62 49.9314 Q1508.62 41.8701 1505.14 37.1711 Q1501.66 32.4315 1495.7 32.4315 M1495.7 26.1121 Q1505.42 26.1121 1510.97 32.4315 Q1516.52 38.7509 1516.52 49.9314 Q1516.52 61.0714 1510.97 67.4314 Q1505.42 73.7508 1495.7 73.7508 Q1485.94 73.7508 1480.39 67.4314 Q1474.88 61.0714 1474.88 49.9314 Q1474.88 38.7509 1480.39 32.4315 Q1485.94 26.1121 1495.7 26.1121 Z" fill="#000000" fill-rule="nonzero" fill-opacity="1"></path><path clip-path="url(#clip150)" d="M1557.8 28.5427 L1557.8 35.5912 Q1554.64 33.9709 1551.24 33.1607 Q1547.84 32.3505 1544.19 32.3505 Q1538.64 32.3505 1535.85 34.0519 Q1533.09 35.7533 1533.09 39.156 Q1533.09 41.7486 1535.08 43.2475 Q1537.06 44.7058 1543.06 46.0426 L1545.61 46.6097 Q1553.55 48.3111 1556.87 51.4303 Q1560.23 54.509 1560.23 60.0587 Q1560.23 66.3781 1555.21 70.0644 Q1550.23 73.7508 1541.48 73.7508 Q1537.83 73.7508 1533.86 73.0216 Q1529.93 72.3329 1525.56 70.9151 L1525.56 63.2184 Q1529.69 65.3654 1533.7 66.4591 Q1537.71 67.5124 1541.64 67.5124 Q1546.91 67.5124 1549.74 65.73 Q1552.58 63.9071 1552.58 60.6258 Q1552.58 57.5877 1550.51 55.9673 Q1548.49 54.3469 1541.56 52.8481 L1538.97 52.2405 Q1532.04 50.7821 1528.96 47.7845 Q1525.88 44.7463 1525.88 39.4801 Q1525.88 33.0797 1530.42 29.5959 Q1534.96 26.1121 1543.3 26.1121 Q1547.43 26.1121 1551.08 26.7198 Q1554.72 27.3274 1557.8 28.5427 Z" fill="#000000" fill-rule="nonzero" fill-opacity="1"></path><path clip-path="url(#clip150)" d="M1601.03 28.5427 L1601.03 35.5912 Q1597.87 33.9709 1594.46 33.1607 Q1591.06 32.3505 1587.41 32.3505 Q1581.87 32.3505 1579.07 34.0519 Q1576.32 35.7533 1576.32 39.156 Q1576.32 41.7486 1578.3 43.2475 Q1580.29 44.7058 1586.28 46.0426 L1588.83 46.6097 Q1596.77 48.3111 1600.09 51.4303 Q1603.46 54.509 1603.46 60.0587 Q1603.46 66.3781 1598.43 70.0644 Q1593.45 73.7508 1584.7 73.7508 Q1581.05 73.7508 1577.08 73.0216 Q1573.16 72.3329 1568.78 70.9151 L1568.78 63.2184 Q1572.91 65.3654 1576.92 66.4591 Q1580.93 67.5124 1584.86 67.5124 Q1590.13 67.5124 1592.96 65.73 Q1595.8 63.9071 1595.8 60.6258 Q1595.8 57.5877 1593.73 55.9673 Q1591.71 54.3469 1584.78 52.8481 L1582.19 52.2405 Q1575.26 50.7821 1572.18 47.7845 Q1569.1 44.7463 1569.1 39.4801 Q1569.1 33.0797 1573.64 29.5959 Q1578.18 26.1121 1586.52 26.1121 Q1590.66 26.1121 1594.3 26.7198 Q1597.95 27.3274 1601.03 28.5427 Z" fill="#000000" fill-rule="nonzero" fill-opacity="1"></path><path clip-path="url(#clip150)" d="M1637.36 27.2059 L1644.82 27.2059 L1654.13 62.6108 L1663.41 27.2059 L1672.2 27.2059 L1681.52 62.6108 L1690.79 27.2059 L1698.25 27.2059 L1686.38 72.576 L1677.59 72.576 L1667.83 35.3887 L1658.02 72.576 L1649.23 72.576 L1637.36 27.2059 Z" fill="#000000" fill-rule="nonzero" fill-opacity="1"></path><path clip-path="url(#clip150)" d="M1709.55 27.2059 L1717 27.2059 L1717 72.576 L1709.55 72.576 L1709.55 27.2059 M1709.55 9.54393 L1717 9.54393 L1717 18.9825 L1709.55 18.9825 L1709.55 9.54393 Z" fill="#000000" fill-rule="nonzero" fill-opacity="1"></path><path clip-path="url(#clip150)" d="M1739.97 14.324 L1739.97 27.2059 L1755.32 27.2059 L1755.32 32.9987 L1739.97 32.9987 L1739.97 57.6282 Q1739.97 63.1779 1741.47 64.7578 Q1743.01 66.3376 1747.67 66.3376 L1755.32 66.3376 L1755.32 72.576 L1747.67 72.576 Q1739.04 72.576 1735.76 69.3758 Q1732.48 66.1351 1732.48 57.6282 L1732.48 32.9987 L1727.01 32.9987 L1727.01 27.2059 L1732.48 27.2059 L1732.48 14.324 L1739.97 14.324 Z" fill="#000000" fill-rule="nonzero" fill-opacity="1"></path><path clip-path="url(#clip150)" d="M1802.84 45.1919 L1802.84 72.576 L1795.39 72.576 L1795.39 45.4349 Q1795.39 38.994 1792.88 35.7938 Q1790.37 32.5936 1785.34 32.5936 Q1779.31 32.5936 1775.82 36.4419 Q1772.34 40.2903 1772.34 46.9338 L1772.34 72.576 L1764.84 72.576 L1764.84 9.54393 L1772.34 9.54393 L1772.34 34.2544 Q1775.01 30.163 1778.62 28.1376 Q1782.26 26.1121 1787 26.1121 Q1794.82 26.1121 1798.83 30.9732 Q1802.84 35.7938 1802.84 45.1919 Z" fill="#000000" fill-rule="nonzero" fill-opacity="1"></path><path clip-path="url(#clip150)" d="M1844.4 12.096 L1882.64 12.096 L1882.64 18.9825 L1852.59 18.9825 L1852.59 36.8875 L1881.39 36.8875 L1881.39 43.7741 L1852.59 43.7741 L1852.59 65.6895 L1883.37 65.6895 L1883.37 72.576 L1844.4 72.576 L1844.4 12.096 Z" fill="#000000" fill-rule="nonzero" fill-opacity="1"></path><path clip-path="url(#clip150)" d="M1903.71 65.7705 L1903.71 89.8329 L1896.22 89.8329 L1896.22 27.2059 L1903.71 27.2059 L1903.71 34.0924 Q1906.06 30.0415 1909.62 28.0971 Q1913.23 26.1121 1918.21 26.1121 Q1926.48 26.1121 1931.62 32.6746 Q1936.81 39.2371 1936.81 49.9314 Q1936.81 60.6258 1931.62 67.1883 Q1926.48 73.7508 1918.21 73.7508 Q1913.23 73.7508 1909.62 71.8063 Q1906.06 69.8214 1903.71 65.7705 M1929.07 49.9314 Q1929.07 41.7081 1925.67 37.0496 Q1922.3 32.3505 1916.39 32.3505 Q1910.47 32.3505 1907.07 37.0496 Q1903.71 41.7081 1903.71 49.9314 Q1903.71 58.1548 1907.07 62.8538 Q1910.47 67.5124 1916.39 67.5124 Q1922.3 67.5124 1925.67 62.8538 Q1929.07 58.1548 1929.07 49.9314 Z" fill="#000000" fill-rule="nonzero" fill-opacity="1"></path><path clip-path="url(#clip150)" d="M1966.74 32.4315 Q1960.75 32.4315 1957.26 37.1306 Q1953.78 41.7891 1953.78 49.9314 Q1953.78 58.0738 1957.22 62.7728 Q1960.71 67.4314 1966.74 67.4314 Q1972.7 67.4314 1976.18 62.7323 Q1979.66 58.0333 1979.66 49.9314 Q1979.66 41.8701 1976.18 37.1711 Q1972.7 32.4315 1966.74 32.4315 M1966.74 26.1121 Q1976.46 26.1121 1982.01 32.4315 Q1987.56 38.7509 1987.56 49.9314 Q1987.56 61.0714 1982.01 67.4314 Q1976.46 73.7508 1966.74 73.7508 Q1956.98 73.7508 1951.43 67.4314 Q1945.92 61.0714 1945.92 49.9314 Q1945.92 38.7509 1951.43 32.4315 Q1956.98 26.1121 1966.74 26.1121 Z" fill="#000000" fill-rule="nonzero" fill-opacity="1"></path><path clip-path="url(#clip150)" d="M2032.57 28.9478 L2032.57 35.9153 Q2029.41 34.1734 2026.21 33.3227 Q2023.05 32.4315 2019.81 32.4315 Q2012.56 32.4315 2008.55 37.0496 Q2004.54 41.6271 2004.54 49.9314 Q2004.54 58.2358 2008.55 62.8538 Q2012.56 67.4314 2019.81 67.4314 Q2023.05 67.4314 2026.21 66.5807 Q2029.41 65.6895 2032.57 63.9476 L2032.57 70.8341 Q2029.45 72.2924 2026.09 73.0216 Q2022.77 73.7508 2019 73.7508 Q2008.75 73.7508 2002.71 67.3098 Q1996.68 60.8689 1996.68 49.9314 Q1996.68 38.832 2002.75 32.472 Q2008.87 26.1121 2019.48 26.1121 Q2022.93 26.1121 2026.21 26.8413 Q2029.49 27.5299 2032.57 28.9478 Z" fill="#000000" fill-rule="nonzero" fill-opacity="1"></path><path clip-path="url(#clip150)" d="M2083.25 45.1919 L2083.25 72.576 L2075.79 72.576 L2075.79 45.4349 Q2075.79 38.994 2073.28 35.7938 Q2070.77 32.5936 2065.75 32.5936 Q2059.71 32.5936 2056.23 36.4419 Q2052.74 40.2903 2052.74 46.9338 L2052.74 72.576 L2045.25 72.576 L2045.25 9.54393 L2052.74 9.54393 L2052.74 34.2544 Q2055.42 30.163 2059.02 28.1376 Q2062.67 26.1121 2067.41 26.1121 Q2075.22 26.1121 2079.24 30.9732 Q2083.25 35.7938 2083.25 45.1919 Z" fill="#000000" fill-rule="nonzero" fill-opacity="1"></path><polyline clip-path="url(#clip152)" style="stroke:#009af9; stroke-linecap:round; stroke-linejoin:round; stroke-width:4; stroke-opacity:1; fill:none" points="280.231,160.256 282.21,317.714 284.188,372.113 286.167,371.621 288.145,356.713 290.124,344.39 292.102,338.031 294.081,337.955 296.059,343.485 298.038,353.73 300.016,367.857 301.995,384.759 303.973,403.388 305.952,422.487 307.93,438.329 309.909,445.792 311.887,444.028 313.866,436.217 315.845,429.98 317.823,432.609 319.802,445.814 321.78,465.041 323.759,483.202 325.737,495.986 327.716,501.66 329.694,503.57 331.673,506.315 333.651,511.844 335.63,520.338 337.608,530.646 339.587,540.147 341.565,545.005 343.544,544.34 345.522,543.765 347.501,550.501 349.479,561.818 351.458,570.096 353.436,574.106 355.415,576.701 357.394,580.415 359.372,585.696 361.351,591.047 363.329,594.312 365.308,595.074 367.286,596.845 369.265,601.963 371.243,607.903 373.222,611.759 375.2,614.27 377.179,616.946 379.157,620.35 381.136,623.41 383.114,625.386 385.093,626.778 387.071,629.025 389.05,632.48 391.028,636.406 393.007,639.838 394.986,642.559 396.964,645.068 398.943,647.742 400.921,650.4 402.9,652.742 404.878,654.713 406.857,656.793 408.835,659.371 410.814,662.391 412.792,665.546 414.771,668.543 416.749,671.377 418.728,674.109 420.706,676.771 422.685,679.358 424.663,681.86 426.642,684.345 428.62,686.888 430.599,689.587 432.578,692.513 434.556,695.549 436.535,698.59 438.513,701.579 440.492,704.521 442.47,707.413 444.449,710.247 446.427,713.048 448.406,715.844 450.384,718.697 452.363,721.695 454.341,724.827 456.32,728.07 458.298,731.324 460.277,734.528 462.255,737.681 464.234,740.794 466.212,743.887 468.191,747.049 470.169,750.345 472.148,753.785 474.127,757.296 476.105,760.847 478.084,764.434 480.062,768.068 482.041,771.767 484.019,775.709 485.998,779.847 487.976,784.155 489.955,788.585 491.933,793.008 493.912,797.362 495.89,801.621 497.869,805.794 499.847,809.981 501.826,814.199 503.804,818.491 505.783,822.796 507.761,827.099 509.74,831.376 511.719,835.649 513.697,839.959 515.676,844.321 517.654,848.753 519.633,853.251 521.611,857.752 523.59,862.201 525.568,866.633 527.547,871.025 529.525,875.372 531.504,879.751 533.482,884.205 535.461,888.707 537.439,893.312 539.418,897.99 541.396,902.723 543.375,907.465 545.353,912.251 547.332,917.109 549.31,922.047 551.289,927.039 553.268,932.01 555.246,936.977 557.225,941.947 559.203,946.988 561.182,952.18 563.16,957.336 565.139,962.375 567.117,967.474 569.096,972.653 571.074,977.794 573.053,982.839 575.031,987.87 577.01,992.941 578.988,998.026 580.967,1002.97 582.945,1007.83 584.924,1012.69 586.902,1017.61 588.881,1022.39 590.86,1026.95 592.838,1031.28 594.817,1035.62 596.795,1040.1 598.774,1044.23 600.752,1048.15 602.731,1052.1 604.709,1055.89 606.688,1059.47 608.666,1062.84 610.645,1066.1 612.623,1069.23 614.602,1072.24 616.58,1075.05 618.559,1077.71 620.537,1080.28 622.516,1082.71 624.494,1084.97 626.473,1087.08 628.451,1089.14 630.43,1091.14 632.409,1093.01 634.387,1094.7 636.366,1096.47 638.344,1098.04 640.323,1099.36 642.301,1100.86 644.28,1102.13 646.258,1103.31 648.237,1104.48 650.215,1105.7 652.194,1106.76 654.172,1107.71 656.151,1108.76 658.129,1109.77 660.108,1110.65 662.086,1111.63 664.065,1112.72 666.043,1113.76 668.022,1114.8 670.001,1115.91 671.979,1116.96 673.958,1117.99 675.936,1118.97 677.915,1120.07 679.893,1121.15 681.872,1122.26 683.85,1123.39 685.829,1124.5 687.807,1125.56 689.786,1126.57 691.764,1127.58 693.743,1128.52 695.721,1129.37 697.7,1130.28 699.678,1131.16 701.657,1132.02 703.635,1132.96 705.614,1133.93 707.592,1134.87 709.571,1135.87 711.55,1136.87 713.528,1137.82 715.507,1138.77 717.485,1139.66 719.464,1140.51 721.442,1141.4 723.421,1142.26 725.399,1143.12 727.378,1144.06 729.356,1144.98 731.335,1145.91 733.313,1146.89 735.292,1147.84 737.27,1148.78 739.249,1149.71 741.227,1150.6 743.206,1151.5 745.184,1152.41 747.163,1153.28 749.142,1154.12 751.12,1154.92 753.099,1155.75 755.077,1156.6 757.056,1157.46 759.034,1158.29 761.013,1159.12 762.991,1159.93 764.97,1160.74 766.948,1161.54 768.927,1162.38 770.905,1163.23 772.884,1164.17 774.862,1165.04 776.841,1166.05 778.819,1166.9 780.798,1167.87 782.776,1168.71 784.755,1169.67 786.733,1170.46 788.712,1171.46 790.691,1172.28 792.669,1173.28 794.648,1174.16 796.626,1174.96 798.605,1175.86 800.583,1176.66 802.562,1177.54 804.54,1178.38 806.519,1179.24 808.497,1180.09 810.476,1180.97 812.454,1181.77 814.433,1182.66 816.411,1183.31 818.39,1184.15 820.368,1184.76 822.347,1185.85 824.325,1186.76 826.304,1187.85 828.283,1188.73 830.261,1189.28 832.24,1190.41 834.218,1191.14 836.197,1192.21 838.175,1193.04 840.154,1193.48 842.132,1194.7 844.111,1195.42 846.089,1196.15 848.068,1197.14 850.046,1197.65 852.025,1198.73 854.003,1199.43 855.982,1200.13 857.96,1201.11 859.939,1201.75 861.917,1202.58 863.896,1203.5 865.874,1203.98 867.853,1205.04 869.832,1205.39 871.81,1206.55 873.789,1207.11 875.767,1208.1 877.746,1208.85 879.724,1209.5 881.703,1210.48 883.681,1210.93 885.66,1212.04 887.638,1212.71 889.617,1213.46 891.595,1214.43 893.574,1214.95 895.552,1216.04 897.531,1216.73 899.509,1217.52 901.488,1218.53 903.466,1219.02 905.445,1220.22 907.424,1220.79 909.402,1221.85 911.381,1222.68 913.359,1223.36 915.338,1224.45 917.316,1224.9 919.295,1226.19 921.273,1226.6 923.252,1227.97 925.23,1228.41 927.209,1229.71 929.187,1230.41 931.166,1231.28 933.144,1232.22 935.123,1232.78 937.101,1234.02 939.08,1234.3 941.058,1235.74 943.037,1235.78 945.016,1237.32 946.994,1237.25 948.973,1239.04 950.951,1239.21 952.93,1240.98 954.908,1241.48 956.887,1242.7 958.865,1243.64 960.844,1244.07 962.822,1245.38 964.801,1245.53 966.779,1247.16 968.758,1247.49 970.736,1249.08 972.715,1249.66 974.693,1250.83 976.672,1251.7 978.65,1252.46 980.629,1253.63 982.607,1254 984.586,1255.17 986.565,1255.14 988.543,1256.98 990.522,1257.44 992.5,1259.16 994.479,1259.86 996.457,1261.16 998.436,1261.98 1000.41,1262.95 1002.39,1263.99 1004.37,1264.57 1006.35,1265.73 1008.33,1265.09 1010.31,1266.87 1012.29,1267.08 1014.26,1269.63 1016.24,1270.48 1018.22,1271.13 1020.2,1272.18 1022.18,1271.52 1024.16,1273.89 1026.14,1274.35 1028.11,1276.32 1030.09,1277.18 1032.07,1277.81 1034.05,1279.08 1036.03,1278.85 1038.01,1280.59 1039.98,1280.8 1041.96,1283.01 1043.94,1283.74 1045.92,1284.76 1047.9,1285.97 1049.88,1286.05 1051.86,1287.55 1053.83,1287.09 1055.81,1289.5 1057.79,1290.05 1059.77,1291.82 1061.75,1292.68 1063.73,1293.57 1065.71,1294.79 1067.68,1294.89 1069.66,1296.4 1071.64,1295.84 1073.62,1298.23 1075.6,1298.42 1077.58,1300.7 1079.56,1301.39 1081.53,1302.58 1083.51,1303.75 1085.49,1304.06 1087.47,1305.47 1089.45,1304.88 1091.43,1307.16 1093.4,1307.04 1095.38,1309.6 1097.36,1310.16 1099.34,1311.75 1101.32,1312.77 1103.3,1313.34 1105.28,1314.73 1107.25,1314.3 1109.23,1316.27 1111.21,1315.74 1113.19,1318.55 1115.17,1319.04 1117.15,1321.06 1119.13,1322.03 1121.1,1322.56 1123.08,1323.82 1125.06,1322.28 1127.04,1325.03 1129.02,1325.12 1131,1328.29 1132.98,1329.28 1134.95,1329.72 1136.93,1331.05 1138.91,1329.55 1140.89,1332.94 1142.87,1333.63 1144.85,1335.87 1146.83,1336.92 1148.8,1337.17 1150.78,1338.9 1152.76,1338.95 1154.74,1341.1 1156.72,1341.34 1158.7,1343.29 1160.67,1343.72 1162.65,1345.5 1164.63,1346.28 1166.61,1347.51 1168.59,1348.53 1170.57,1349.27 1172.55,1350.54 1174.52,1350.73 1176.5,1352.22 1178.48,1351.27 1180.46,1352.41 1182.44,1348.71 1184.42,1353.76 1186.4,1354.22 1188.37,1357.15 1190.35,1357.56 1192.33,1358.47 1194.31,1359.12 1196.29,1358.6 1198.27,1359.54 1200.25,1358.34 1202.22,1359.63 1204.2,1358.47 1206.18,1360.52 1208.16,1359.84 1210.14,1362.01 1212.12,1361.7 1214.09,1363.29 1216.07,1362.79 1218.05,1364.09 1220.03,1363.65 1222.01,1364.97 1223.99,1364.67 1225.97,1365.65 1227.94,1365.33 1229.92,1366.26 1231.9,1365.65 1233.88,1366.64 1235.86,1365.45 1237.84,1366.54 1239.82,1364.39 1241.79,1366.22 1243.77,1364.65 1245.75,1367.32 1247.73,1367.23 1249.71,1368.97 1251.69,1369.09 1253.67,1369.47 1255.64,1369.76 1257.62,1369.32 1259.6,1369.66 1261.58,1368.3 1263.56,1368.78 1265.54,1366.69 1267.52,1369.24 1269.49,1369.45 1271.47,1370.92 1273.45,1371.12 1275.43,1371.02 1277.41,1371.11 1279.39,1369.94 1281.36,1370.49 1283.34,1369.38 1285.32,1371.11 1287.3,1371.25 1289.28,1372.21 1291.26,1372.35 1293.24,1372.04 1295.21,1372.29 1297.19,1371.84 1299.17,1372.56 1301.15,1372.55 1303.13,1372.98 1305.11,1373.11 1307.09,1372.94 1309.06,1373.22 1311.04,1372.63 1313.02,1373.09 1315,1372.69 1316.98,1373.28 1318.96,1373.06 1320.94,1373.7 1322.91,1373.62 1324.89,1374.04 1326.87,1374.07 1328.85,1374.17 1330.83,1374.27 1332.81,1374.16 1334.78,1374.36 1336.76,1374.29 1338.74,1374.49 1340.72,1374.53 1342.7,1374.63 1344.68,1374.74 1346.66,1374.79 1348.63,1374.87 1350.61,1374.92 1352.59,1374.95 1354.57,1375.04 1356.55,1375.1 1358.53,1375.18 1360.51,1375.27 1362.48,1375.32 1364.46,1375.41 1366.44,1375.42 1368.42,1375.54 1370.4,1375.41 1372.38,1375.59 1374.36,1374.91 1376.33,1374.74 1378.31,1372.01 1380.29,1370.81 1382.27,1367.95 1384.25,1372.35 1386.23,1374.51 1388.21,1376.21 1390.18,1376.16 1392.16,1373.97 1394.14,1372.79 1396.12,1371.01 1398.1,1374.31 1400.08,1375.72 1402.05,1376.51 1404.03,1376.29 1406.01,1374.18 1407.99,1374.07 1409.97,1373.35 1411.95,1375.6 1413.93,1376.26 1415.9,1376.96 1417.88,1376.99 1419.86,1376.03 1421.84,1376.24 1423.82,1375.4 1425.8,1376.58 1427.78,1376.62 1429.75,1377.39 1431.73,1377.43 1433.71,1377.16 1435.69,1377.16 1437.67,1375.91 1439.65,1376.47 1441.63,1376.01 1443.6,1377.25 1445.58,1377.29 1447.56,1377.86 1449.54,1377.91 1451.52,1377.8 1453.5,1377.93 1455.47,1377.02 1457.45,1377.24 1459.43,1376.3 1461.41,1377.12 1463.39,1377.02 1465.37,1378.1 1467.35,1378.23 1469.32,1378.36 1471.3,1378.41 1473.28,1377.6 1475.26,1377.73 1477.24,1376.76 1479.22,1377.43 1481.2,1377.28 1483.17,1378.29 1485.15,1378.45 1487.13,1378.83 1489.11,1378.88 1491.09,1378.74 1493.07,1378.71 1495.05,1377.64 1497.02,1377.68 1499,1376.91 1500.98,1377.94 1502.96,1378.18 1504.94,1379.06 1506.92,1379.11 1508.9,1379.24 1510.87,1379.3 1512.85,1378.96 1514.83,1378.95 1516.81,1377.96 1518.79,1378.07 1520.77,1377.4 1522.74,1378.38 1524.72,1378.42 1526.7,1379.39 1528.68,1379.41 1530.66,1379.72 1532.64,1379.63 1534.62,1379.74 1536.59,1379.48 1538.57,1379.57 1540.55,1378.8 1542.53,1378.96 1544.51,1378.05 1546.49,1378.5 1548.47,1377.92 1550.44,1378.78 1552.42,1378.64 1554.4,1379.66 1556.38,1379.61 1558.36,1380.15 1560.34,1379.94 1562.32,1380.2 1564.29,1379.76 1566.27,1380.04 1568.25,1379.34 1570.23,1379.71 1572.21,1379.08 1574.19,1379.65 1576.17,1379.15 1578.14,1379.79 1580.12,1379.43 1582.1,1380.19 1584.08,1379.89 1586.06,1380.45 1588.04,1380.16 1590.01,1380.55 1591.99,1380.21 1593.97,1380.58 1595.95,1380.24 1597.93,1380.6 1599.91,1380.01 1601.89,1380.33 1603.86,1379.43 1605.84,1379.67 1607.82,1378.81 1609.8,1379.25 1611.78,1378.47 1613.76,1379.42 1615.74,1379.16 1617.71,1380.24 1619.69,1380.37 1621.67,1381.08 1623.65,1381.07 1625.63,1381.01 1627.61,1381.07 1629.59,1380.07 1631.56,1380.11 1633.54,1379.04 1635.52,1379.63 1637.5,1379.09 1639.48,1380.21 1641.46,1380.4 1643.43,1381.36 1645.41,1381.45 1647.39,1381.3 1649.37,1381.07 1651.35,1379.66 1653.33,1379.37 1655.31,1378.07 1657.28,1380.22 1659.26,1380.97 1661.24,1381.59 1663.22,1381.55 1665.2,1380.28 1667.18,1380.1 1669.16,1378.82 1671.13,1380.31 1673.11,1380.72 1675.09,1381.66 1677.07,1381.82 1679.05,1381.01 1681.03,1380.91 1683.01,1379.72 1684.98,1380.48 1686.96,1380.39 1688.94,1381.54 1690.92,1381.85 1692.9,1381.9 1694.88,1381.89 1696.86,1380.87 1698.83,1380.78 1700.81,1379.87 1702.79,1380.91 1704.77,1381.18 1706.75,1382.02 1708.73,1382.18 1710.7,1381.59 1712.68,1381.64 1714.66,1380.74 1716.64,1381.2 1718.62,1380.92 1720.6,1381.84 1722.58,1381.94 1724.55,1382.39 1726.53,1382.46 1728.51,1382.02 1730.49,1382.08 1732.47,1381.24 1734.45,1381.54 1736.43,1380.84 1738.4,1381.64 1740.38,1381.51 1742.36,1382.28 1744.34,1382.18 1746.32,1382.57 1748.3,1382.55 1750.28,1382.28 1752.25,1382.42 1754.23,1381.96 1756.21,1382.43 1758.19,1382.03 1760.17,1382.54 1762.15,1382.31 1764.12,1382.71 1766.1,1382.57 1768.08,1382.8 1770.06,1382.69 1772.04,1382.85 1774.02,1382.55 1776,1382.75 1777.97,1382.31 1779.95,1382.63 1781.93,1382.04 1783.91,1382.23 1785.89,1381.24 1787.87,1381.52 1789.85,1380.83 1791.82,1381.91 1793.8,1381.85 1795.78,1382.7 1797.76,1382.65 1799.74,1383.1 1801.72,1383.13 1803.7,1382.81 1805.67,1382.86 1807.65,1382.22 1809.63,1382.42 1811.61,1381.44 1813.59,1381.91 1815.57,1381.31 1817.55,1382.21 1819.52,1382.03 1821.5,1382.86 1823.48,1382.69 1825.46,1383.25 1827.44,1383.25 1829.42,1383.32 1831.39,1383.38 1833.37,1383.17 1835.35,1383.29 1837.33,1382.85 1839.31,1383.08 1841.29,1382.14 1843.27,1381.98 1845.24,1380.74 1847.22,1381.83 1849.2,1381.95 1851.18,1383.03 1853.16,1383.05 1855.14,1383.63 1857.12,1383.67 1859.09,1383.33 1861.07,1383.33 1863.05,1382.51 1865.03,1382.43 1867.01,1381.61 1868.99,1382.31 1870.97,1382.07 1872.94,1382.94 1874.92,1382.82 1876.9,1383.42 1878.88,1383.17 1880.86,1383.66 1882.84,1383.54 1884.81,1383.78 1886.79,1383.75 1888.77,1383.79 1890.75,1383.8 1892.73,1383.78 1894.71,1383.82 1896.69,1383.71 1898.66,1383.77 1900.64,1383.29 1902.62,1383.12 1904.6,1381.56 1906.58,1381.5 1908.56,1380.83 1910.54,1382.67 1912.51,1383.12 1914.49,1383.98 1916.47,1384.08 1918.45,1383.89 1920.43,1383.83 1922.41,1382.96 1924.39,1382.83 1926.36,1381.93 1928.34,1382.58 1930.32,1382.26 1932.3,1383.07 1934.28,1383.08 1936.26,1383.77 1938.24,1383.55 1940.21,1383.91 1942.19,1383.76 1944.17,1384.12 1946.15,1384.06 1948.13,1384.26 1950.11,1384.12 1952.08,1384.18 1954.06,1383.7 1956.04,1383.73 1958.02,1382.99 1960,1383.04 1961.98,1382.15 1963.96,1382.51 1965.93,1382.07 1967.91,1383.14 1969.89,1383.38 1971.87,1384.2 1973.85,1384.33 1975.83,1384.37 1977.81,1384.37 1979.78,1383.76 1981.76,1383.49 1983.74,1382.48 1985.72,1382.73 1987.7,1382.15 1989.68,1383.26 1991.66,1383.57 1993.63,1384.34 1995.61,1384.5 1997.59,1384.63 1999.57,1384.59 2001.55,1384.08 2003.53,1383.87 2005.5,1382.91 2007.48,1382.8 2009.46,1382.07 2011.44,1383.21 2013.42,1383.46 2015.4,1384.35 2017.38,1384.61 2019.35,1384.61 2021.33,1384.42 2023.31,1383.57 2025.29,1383.11 2027.27,1382.08 2029.25,1383.16 2031.23,1383.43 2033.2,1384.47 2035.18,1384.82 2037.16,1384.66 2039.14,1384.31 2041.12,1383.12 2043.1,1382.82 2045.08,1382.05 2047.05,1383.56 2049.03,1384.2 2051.01,1384.93 2052.99,1385.04 2054.97,1384.59 2056.95,1384.32 2058.93,1383.23 2060.9,1383.18 2062.88,1382.7 2064.86,1383.86 2066.84,1384.39 2068.82,1385.05 2070.8,1385.15 2072.77,1385.07 2074.75,1385.04 2076.73,1384.63 2078.71,1384.52 2080.69,1384.07 2082.67,1384.14 2084.65,1383.72 2086.62,1383.95 2088.6,1383.2 2090.58,1383.52 2092.56,1383.22 2094.54,1384.11 2096.52,1384.44 2098.5,1385.08 2100.47,1385.23 2102.45,1385.27 2104.43,1385.27 2106.41,1384.86 2108.39,1384.72 2110.37,1384.16 2112.35,1384.18 2114.32,1383.86 2116.3,1384.28 2118.28,1383.81 2120.26,1384.04 2122.24,1383.49 2124.22,1384.25 2126.19,1384.38 2128.17,1385.06 2130.15,1385.29 2132.13,1385.59 2134.11,1385.64 2136.09,1385.39 2138.07,1385.27 2140.04,1384.69 2142.02,1384.56 2144,1384.02 2145.98,1384.56 2147.96,1384.27 2149.94,1384.7 2151.92,1384.47 2153.89,1384.78 2155.87,1384.86 2157.85,1385.31 2159.83,1385.4 2161.81,1385.75 2163.79,1385.78 2165.77,1385.89 2167.74,1385.9 2169.72,1385.81 2171.7,1385.83 2173.68,1385.57 2175.66,1385.45 2177.64,1384.67 2179.62,1384.26 2181.59,1383.1 2183.57,1384.19 2185.55,1384.51 2187.53,1385.44 2189.51,1385.77 2191.49,1386.02 2193.46,1386.09 2195.44,1385.96 2197.42,1385.88 2199.4,1385.26 2201.38,1384.77 2203.36,1383.31 2205.34,1384.44 2207.31,1384.76 2209.29,1385.6 2211.27,1385.93 2213.25,1386.13 2215.23,1386.12 2217.21,1386.16 2219.19,1386.14 2221.16,1386.15 2223.14,1386.16 2225.12,1386.19 2227.1,1386.24 2229.08,1386.2 2231.06,1386.22 2233.04,1385.97 2235.01,1385.73 2236.99,1384.96 2238.97,1384.58 2240.95,1383.4 2242.93,1384.59 2244.91,1384.89 2246.89,1385.74 2248.86,1386.14 2250.84,1386.37 2252.82,1386.4 2254.8,1386.06 2256.78,1385.62 2258.76,1384.56 2260.73,1384.5 2262.71,1383.89 2264.69,1385.26 2266.67,1385.72 2268.65,1386.1 2270.63,1386.05 2272.61,1386.05 2274.58,1385.59 2276.56,1385.35 2278.54,1384.22 2280.52,1384.54 2282.5,1384.23 2284.48,1385.34 2286.46,1385.47 2288.43,1385.93 2290.41,1386.02 2292.39,1386.22 "></polyline>
<path clip-path="url(#clip150)" d="M1187.84 270.476 L2281.66 270.476 L2281.66 166.796 L1187.84 166.796  Z" fill="#ffffff" fill-rule="evenodd" fill-opacity="1"></path>
<polyline clip-path="url(#clip150)" style="stroke:#000000; stroke-linecap:round; stroke-linejoin:round; stroke-width:4; stroke-opacity:1; fill:none" points="1187.84,270.476 2281.66,270.476 2281.66,166.796 1187.84,166.796 1187.84,270.476 "></polyline>
<polyline clip-path="url(#clip150)" style="stroke:#009af9; stroke-linecap:round; stroke-linejoin:round; stroke-width:4; stroke-opacity:1; fill:none" points="1211.54,218.636 1353.73,218.636 "></polyline>
<path clip-path="url(#clip150)" d="M1393.82 219.712 Q1395.33 220.221 1396.74 221.888 Q1398.17 223.555 1399.61 226.471 L1404.35 235.916 L1399.33 235.916 L1394.91 227.05 Q1393.2 223.578 1391.58 222.444 Q1389.98 221.309 1387.2 221.309 L1382.11 221.309 L1382.11 235.916 L1377.43 235.916 L1377.43 201.356 L1387.99 201.356 Q1393.91 201.356 1396.83 203.833 Q1399.75 206.309 1399.75 211.309 Q1399.75 214.573 1398.22 216.726 Q1396.72 218.879 1393.82 219.712 M1382.11 205.198 L1382.11 217.467 L1387.99 217.467 Q1391.37 217.467 1393.08 215.916 Q1394.82 214.342 1394.82 211.309 Q1394.82 208.277 1393.08 206.749 Q1391.37 205.198 1387.99 205.198 L1382.11 205.198 Z" fill="#000000" fill-rule="nonzero" fill-opacity="1"></path><path clip-path="url(#clip150)" d="M1430.23 221.888 L1430.23 223.971 L1410.65 223.971 Q1410.93 228.369 1413.29 230.684 Q1415.67 232.976 1419.91 232.976 Q1422.36 232.976 1424.66 232.374 Q1426.97 231.772 1429.24 230.569 L1429.24 234.596 Q1426.95 235.568 1424.54 236.078 Q1422.13 236.587 1419.66 236.587 Q1413.45 236.587 1409.82 232.976 Q1406.21 229.365 1406.21 223.207 Q1406.21 216.842 1409.63 213.115 Q1413.08 209.365 1418.91 209.365 Q1424.15 209.365 1427.18 212.745 Q1430.23 216.101 1430.23 221.888 M1425.97 220.638 Q1425.93 217.143 1424.01 215.059 Q1422.11 212.976 1418.96 212.976 Q1415.4 212.976 1413.24 214.99 Q1411.11 217.004 1410.79 220.661 L1425.97 220.638 Z" fill="#000000" fill-rule="nonzero" fill-opacity="1"></path><path clip-path="url(#clip150)" d="M1437.22 199.897 L1441.48 199.897 L1441.48 235.916 L1437.22 235.916 L1437.22 199.897 Z" fill="#000000" fill-rule="nonzero" fill-opacity="1"></path><path clip-path="url(#clip150)" d="M1462.18 222.883 Q1457.02 222.883 1455.03 224.064 Q1453.03 225.244 1453.03 228.092 Q1453.03 230.36 1454.52 231.703 Q1456.02 233.022 1458.59 233.022 Q1462.13 233.022 1464.26 230.522 Q1466.41 227.999 1466.41 223.832 L1466.41 222.883 L1462.18 222.883 M1470.67 221.124 L1470.67 235.916 L1466.41 235.916 L1466.41 231.981 Q1464.96 234.342 1462.78 235.476 Q1460.6 236.587 1457.46 236.587 Q1453.47 236.587 1451.11 234.365 Q1448.78 232.119 1448.78 228.369 Q1448.78 223.994 1451.69 221.772 Q1454.63 219.55 1460.44 219.55 L1466.41 219.55 L1466.41 219.133 Q1466.41 216.194 1464.47 214.596 Q1462.55 212.976 1459.05 212.976 Q1456.83 212.976 1454.72 213.508 Q1452.62 214.041 1450.67 215.106 L1450.67 211.17 Q1453.01 210.268 1455.21 209.828 Q1457.41 209.365 1459.49 209.365 Q1465.12 209.365 1467.9 212.282 Q1470.67 215.198 1470.67 221.124 Z" fill="#000000" fill-rule="nonzero" fill-opacity="1"></path><path clip-path="url(#clip150)" d="M1483.66 202.629 L1483.66 209.99 L1492.43 209.99 L1492.43 213.3 L1483.66 213.3 L1483.66 227.374 Q1483.66 230.545 1484.52 231.448 Q1485.4 232.351 1488.06 232.351 L1492.43 232.351 L1492.43 235.916 L1488.06 235.916 Q1483.13 235.916 1481.25 234.087 Q1479.38 232.235 1479.38 227.374 L1479.38 213.3 L1476.25 213.3 L1476.25 209.99 L1479.38 209.99 L1479.38 202.629 L1483.66 202.629 Z" fill="#000000" fill-rule="nonzero" fill-opacity="1"></path><path clip-path="url(#clip150)" d="M1498.03 209.99 L1502.29 209.99 L1502.29 235.916 L1498.03 235.916 L1498.03 209.99 M1498.03 199.897 L1502.29 199.897 L1502.29 205.291 L1498.03 205.291 L1498.03 199.897 Z" fill="#000000" fill-rule="nonzero" fill-opacity="1"></path><path clip-path="url(#clip150)" d="M1508.15 209.99 L1512.66 209.99 L1520.77 231.749 L1528.87 209.99 L1533.38 209.99 L1523.66 235.916 L1517.87 235.916 L1508.15 209.99 Z" fill="#000000" fill-rule="nonzero" fill-opacity="1"></path><path clip-path="url(#clip150)" d="M1561.44 221.888 L1561.44 223.971 L1541.85 223.971 Q1542.13 228.369 1544.49 230.684 Q1546.88 232.976 1551.11 232.976 Q1553.57 232.976 1555.86 232.374 Q1558.17 231.772 1560.44 230.569 L1560.44 234.596 Q1558.15 235.568 1555.74 236.078 Q1553.33 236.587 1550.86 236.587 Q1544.65 236.587 1541.02 232.976 Q1537.41 229.365 1537.41 223.207 Q1537.41 216.842 1540.84 213.115 Q1544.28 209.365 1550.12 209.365 Q1555.35 209.365 1558.38 212.745 Q1561.44 216.101 1561.44 221.888 M1557.18 220.638 Q1557.13 217.143 1555.21 215.059 Q1553.31 212.976 1550.16 212.976 Q1546.6 212.976 1544.45 214.99 Q1542.32 217.004 1541.99 220.661 L1557.18 220.638 Z" fill="#000000" fill-rule="nonzero" fill-opacity="1"></path><path clip-path="url(#clip150)" d="M1583.68 201.356 L1605.53 201.356 L1605.53 205.291 L1588.36 205.291 L1588.36 215.522 L1604.82 215.522 L1604.82 219.457 L1588.36 219.457 L1588.36 231.981 L1605.95 231.981 L1605.95 235.916 L1583.68 235.916 L1583.68 201.356 Z" fill="#000000" fill-rule="nonzero" fill-opacity="1"></path><path clip-path="url(#clip150)" d="M1628.47 213.971 Q1627.76 213.555 1626.9 213.37 Q1626.07 213.161 1625.05 213.161 Q1621.44 213.161 1619.49 215.522 Q1617.57 217.86 1617.57 222.258 L1617.57 235.916 L1613.29 235.916 L1613.29 209.99 L1617.57 209.99 L1617.57 214.018 Q1618.91 211.657 1621.07 210.522 Q1623.22 209.365 1626.3 209.365 Q1626.74 209.365 1627.27 209.434 Q1627.8 209.481 1628.45 209.596 L1628.47 213.971 Z" fill="#000000" fill-rule="nonzero" fill-opacity="1"></path><path clip-path="url(#clip150)" d="M1647.13 213.971 Q1646.41 213.555 1645.56 213.37 Q1644.72 213.161 1643.7 213.161 Q1640.09 213.161 1638.15 215.522 Q1636.23 217.86 1636.23 222.258 L1636.23 235.916 L1631.95 235.916 L1631.95 209.99 L1636.23 209.99 L1636.23 214.018 Q1637.57 211.657 1639.72 210.522 Q1641.88 209.365 1644.95 209.365 Q1645.39 209.365 1645.93 209.434 Q1646.46 209.481 1647.11 209.596 L1647.13 213.971 Z" fill="#000000" fill-rule="nonzero" fill-opacity="1"></path><path clip-path="url(#clip150)" d="M1660.6 212.976 Q1657.18 212.976 1655.19 215.661 Q1653.2 218.323 1653.2 222.976 Q1653.2 227.629 1655.16 230.314 Q1657.15 232.976 1660.6 232.976 Q1664.01 232.976 1666 230.291 Q1667.99 227.606 1667.99 222.976 Q1667.99 218.37 1666 215.684 Q1664.01 212.976 1660.6 212.976 M1660.6 209.365 Q1666.16 209.365 1669.33 212.976 Q1672.5 216.587 1672.5 222.976 Q1672.5 229.342 1669.33 232.976 Q1666.16 236.587 1660.6 236.587 Q1655.02 236.587 1651.85 232.976 Q1648.7 229.342 1648.7 222.976 Q1648.7 216.587 1651.85 212.976 Q1655.02 209.365 1660.6 209.365 Z" fill="#000000" fill-rule="nonzero" fill-opacity="1"></path><path clip-path="url(#clip150)" d="M1694.58 213.971 Q1693.87 213.555 1693.01 213.37 Q1692.18 213.161 1691.16 213.161 Q1687.55 213.161 1685.6 215.522 Q1683.68 217.86 1683.68 222.258 L1683.68 235.916 L1679.4 235.916 L1679.4 209.99 L1683.68 209.99 L1683.68 214.018 Q1685.02 211.657 1687.18 210.522 Q1689.33 209.365 1692.41 209.365 Q1692.85 209.365 1693.38 209.434 Q1693.91 209.481 1694.56 209.596 L1694.58 213.971 Z" fill="#000000" fill-rule="nonzero" fill-opacity="1"></path><path clip-path="url(#clip150)" d="M1714.68 214.388 L1744.35 214.388 L1744.35 218.277 L1714.68 218.277 L1714.68 214.388 M1714.68 223.832 L1744.35 223.832 L1744.35 227.768 L1714.68 227.768 L1714.68 223.832 Z" fill="#000000" fill-rule="nonzero" fill-opacity="1"></path><path clip-path="url(#clip150)" d="M1770.32 231.981 L1777.96 231.981 L1777.96 205.615 L1769.65 207.282 L1769.65 203.022 L1777.92 201.356 L1782.59 201.356 L1782.59 231.981 L1790.23 231.981 L1790.23 235.916 L1770.32 235.916 L1770.32 231.981 Z" fill="#000000" fill-rule="nonzero" fill-opacity="1"></path><path clip-path="url(#clip150)" d="M1799.82 235.198 L1799.82 230.939 Q1801.57 231.772 1803.38 232.212 Q1805.19 232.652 1806.92 232.652 Q1811.55 232.652 1813.98 229.55 Q1816.44 226.425 1816.78 220.082 Q1815.44 222.073 1813.38 223.138 Q1811.32 224.203 1808.82 224.203 Q1803.63 224.203 1800.6 221.078 Q1797.59 217.93 1797.59 212.49 Q1797.59 207.166 1800.74 203.948 Q1803.89 200.731 1809.12 200.731 Q1815.12 200.731 1818.26 205.337 Q1821.44 209.92 1821.44 218.67 Q1821.44 226.842 1817.55 231.726 Q1813.68 236.587 1807.13 236.587 Q1805.37 236.587 1803.57 236.24 Q1801.76 235.893 1799.82 235.198 M1809.12 220.545 Q1812.27 220.545 1814.1 218.393 Q1815.95 216.24 1815.95 212.49 Q1815.95 208.763 1814.1 206.61 Q1812.27 204.434 1809.12 204.434 Q1805.97 204.434 1804.12 206.61 Q1802.29 208.763 1802.29 212.49 Q1802.29 216.24 1804.12 218.393 Q1805.97 220.545 1809.12 220.545 Z" fill="#000000" fill-rule="nonzero" fill-opacity="1"></path><path clip-path="url(#clip150)" d="M1829.84 230.036 L1834.72 230.036 L1834.72 235.916 L1829.84 235.916 L1829.84 230.036 Z" fill="#000000" fill-rule="nonzero" fill-opacity="1"></path><path clip-path="url(#clip150)" d="M1844.95 201.356 L1863.31 201.356 L1863.31 205.291 L1849.24 205.291 L1849.24 213.763 Q1850.25 213.416 1851.27 213.254 Q1852.29 213.069 1853.31 213.069 Q1859.1 213.069 1862.48 216.24 Q1865.86 219.411 1865.86 224.828 Q1865.86 230.406 1862.38 233.508 Q1858.91 236.587 1852.59 236.587 Q1850.42 236.587 1848.15 236.217 Q1845.9 235.846 1843.5 235.106 L1843.5 230.406 Q1845.58 231.541 1847.8 232.096 Q1850.02 232.652 1852.5 232.652 Q1856.5 232.652 1858.84 230.545 Q1861.18 228.439 1861.18 224.828 Q1861.18 221.217 1858.84 219.11 Q1856.5 217.004 1852.5 217.004 Q1850.63 217.004 1848.75 217.42 Q1846.9 217.837 1844.95 218.717 L1844.95 201.356 Z" fill="#000000" fill-rule="nonzero" fill-opacity="1"></path><path clip-path="url(#clip150)" d="M1875.88 231.981 L1883.52 231.981 L1883.52 205.615 L1875.21 207.282 L1875.21 203.022 L1883.47 201.356 L1888.15 201.356 L1888.15 231.981 L1895.79 231.981 L1895.79 235.916 L1875.88 235.916 L1875.88 231.981 Z" fill="#000000" fill-rule="nonzero" fill-opacity="1"></path><path clip-path="url(#clip150)" d="M1909.26 231.981 L1925.58 231.981 L1925.58 235.916 L1903.63 235.916 L1903.63 231.981 Q1906.3 229.226 1910.88 224.596 Q1915.49 219.944 1916.67 218.601 Q1918.91 216.078 1919.79 214.342 Q1920.69 212.583 1920.69 210.893 Q1920.69 208.138 1918.75 206.402 Q1916.83 204.666 1913.73 204.666 Q1911.53 204.666 1909.07 205.43 Q1906.64 206.194 1903.87 207.745 L1903.87 203.022 Q1906.69 201.888 1909.14 201.309 Q1911.6 200.731 1913.63 200.731 Q1919 200.731 1922.2 203.416 Q1925.39 206.101 1925.39 210.592 Q1925.39 212.721 1924.58 214.643 Q1923.8 216.541 1921.69 219.133 Q1921.11 219.805 1918.01 223.022 Q1914.91 226.217 1909.26 231.981 Z" fill="#000000" fill-rule="nonzero" fill-opacity="1"></path><path clip-path="url(#clip150)" d="M1939.42 231.981 L1955.74 231.981 L1955.74 235.916 L1933.8 235.916 L1933.8 231.981 Q1936.46 229.226 1941.04 224.596 Q1945.65 219.944 1946.83 218.601 Q1949.07 216.078 1949.95 214.342 Q1950.86 212.583 1950.86 210.893 Q1950.86 208.138 1948.91 206.402 Q1946.99 204.666 1943.89 204.666 Q1941.69 204.666 1939.24 205.43 Q1936.81 206.194 1934.03 207.745 L1934.03 203.022 Q1936.85 201.888 1939.31 201.309 Q1941.76 200.731 1943.8 200.731 Q1949.17 200.731 1952.36 203.416 Q1955.56 206.101 1955.56 210.592 Q1955.56 212.721 1954.74 214.643 Q1953.96 216.541 1951.85 219.133 Q1951.27 219.805 1948.17 223.022 Q1945.07 226.217 1939.42 231.981 Z" fill="#000000" fill-rule="nonzero" fill-opacity="1"></path><path clip-path="url(#clip150)" d="M1965.6 201.356 L1983.96 201.356 L1983.96 205.291 L1969.88 205.291 L1969.88 213.763 Q1970.9 213.416 1971.92 213.254 Q1972.94 213.069 1973.96 213.069 Q1979.74 213.069 1983.12 216.24 Q1986.5 219.411 1986.5 224.828 Q1986.5 230.406 1983.03 233.508 Q1979.56 236.587 1973.24 236.587 Q1971.06 236.587 1968.8 236.217 Q1966.55 235.846 1964.14 235.106 L1964.14 230.406 Q1966.23 231.541 1968.45 232.096 Q1970.67 232.652 1973.15 232.652 Q1977.15 232.652 1979.49 230.545 Q1981.83 228.439 1981.83 224.828 Q1981.83 221.217 1979.49 219.11 Q1977.15 217.004 1973.15 217.004 Q1971.27 217.004 1969.4 217.42 Q1967.55 217.837 1965.6 218.717 L1965.6 201.356 Z" fill="#000000" fill-rule="nonzero" fill-opacity="1"></path><path clip-path="url(#clip150)" d="M2008.56 205.43 L1996.76 223.879 L2008.56 223.879 L2008.56 205.43 M2007.34 201.356 L2013.22 201.356 L2013.22 223.879 L2018.15 223.879 L2018.15 227.768 L2013.22 227.768 L2013.22 235.916 L2008.56 235.916 L2008.56 227.768 L1992.96 227.768 L1992.96 223.254 L2007.34 201.356 Z" fill="#000000" fill-rule="nonzero" fill-opacity="1"></path><path clip-path="url(#clip150)" d="M2025.93 201.356 L2044.28 201.356 L2044.28 205.291 L2030.21 205.291 L2030.21 213.763 Q2031.23 213.416 2032.24 213.254 Q2033.26 213.069 2034.28 213.069 Q2040.07 213.069 2043.45 216.24 Q2046.83 219.411 2046.83 224.828 Q2046.83 230.406 2043.36 233.508 Q2039.88 236.587 2033.56 236.587 Q2031.39 236.587 2029.12 236.217 Q2026.87 235.846 2024.47 235.106 L2024.47 230.406 Q2026.55 231.541 2028.77 232.096 Q2030.99 232.652 2033.47 232.652 Q2037.48 232.652 2039.81 230.545 Q2042.15 228.439 2042.15 224.828 Q2042.15 221.217 2039.81 219.11 Q2037.48 217.004 2033.47 217.004 Q2031.6 217.004 2029.72 217.42 Q2027.87 217.837 2025.93 218.717 L2025.93 201.356 Z" fill="#000000" fill-rule="nonzero" fill-opacity="1"></path><path clip-path="url(#clip150)" d="M2060.07 231.981 L2076.39 231.981 L2076.39 235.916 L2054.44 235.916 L2054.44 231.981 Q2057.11 229.226 2061.69 224.596 Q2066.3 219.944 2067.48 218.601 Q2069.72 216.078 2070.6 214.342 Q2071.5 212.583 2071.5 210.893 Q2071.5 208.138 2069.56 206.402 Q2067.64 204.666 2064.54 204.666 Q2062.34 204.666 2059.88 205.43 Q2057.45 206.194 2054.67 207.745 L2054.67 203.022 Q2057.5 201.888 2059.95 201.309 Q2062.41 200.731 2064.44 200.731 Q2069.81 200.731 2073.01 203.416 Q2076.2 206.101 2076.2 210.592 Q2076.2 212.721 2075.39 214.643 Q2074.61 216.541 2072.5 219.133 Q2071.92 219.805 2068.82 223.022 Q2065.72 226.217 2060.07 231.981 Z" fill="#000000" fill-rule="nonzero" fill-opacity="1"></path><path clip-path="url(#clip150)" d="M2087.01 231.981 L2094.65 231.981 L2094.65 205.615 L2086.34 207.282 L2086.34 203.022 L2094.61 201.356 L2099.28 201.356 L2099.28 231.981 L2106.92 231.981 L2106.92 235.916 L2087.01 235.916 L2087.01 231.981 Z" fill="#000000" fill-rule="nonzero" fill-opacity="1"></path><path clip-path="url(#clip150)" d="M2115.18 201.356 L2137.41 201.356 L2137.41 203.346 L2124.86 235.916 L2119.98 235.916 L2131.78 205.291 L2115.18 205.291 L2115.18 201.356 Z" fill="#000000" fill-rule="nonzero" fill-opacity="1"></path><path clip-path="url(#clip150)" d="M2156.53 219.504 Q2153.19 219.504 2151.27 221.286 Q2149.37 223.069 2149.37 226.194 Q2149.37 229.319 2151.27 231.101 Q2153.19 232.883 2156.53 232.883 Q2159.86 232.883 2161.78 231.101 Q2163.7 229.295 2163.7 226.194 Q2163.7 223.069 2161.78 221.286 Q2159.88 219.504 2156.53 219.504 M2151.85 217.513 Q2148.84 216.772 2147.15 214.712 Q2145.48 212.652 2145.48 209.689 Q2145.48 205.546 2148.42 203.138 Q2151.39 200.731 2156.53 200.731 Q2161.69 200.731 2164.63 203.138 Q2167.57 205.546 2167.57 209.689 Q2167.57 212.652 2165.88 214.712 Q2164.21 216.772 2161.23 217.513 Q2164.6 218.3 2166.48 220.592 Q2168.38 222.883 2168.38 226.194 Q2168.38 231.217 2165.3 233.902 Q2162.24 236.587 2156.53 236.587 Q2150.81 236.587 2147.73 233.902 Q2144.67 231.217 2144.67 226.194 Q2144.67 222.883 2146.57 220.592 Q2148.47 218.3 2151.85 217.513 M2150.14 210.129 Q2150.14 212.814 2151.8 214.319 Q2153.49 215.823 2156.53 215.823 Q2159.54 215.823 2161.23 214.319 Q2162.94 212.814 2162.94 210.129 Q2162.94 207.444 2161.23 205.939 Q2159.54 204.434 2156.53 204.434 Q2153.49 204.434 2151.8 205.939 Q2150.14 207.444 2150.14 210.129 Z" fill="#000000" fill-rule="nonzero" fill-opacity="1"></path><path clip-path="url(#clip150)" d="M2175.51 201.356 L2197.73 201.356 L2197.73 203.346 L2185.18 235.916 L2180.3 235.916 L2192.1 205.291 L2175.51 205.291 L2175.51 201.356 Z" fill="#000000" fill-rule="nonzero" fill-opacity="1"></path><path clip-path="url(#clip150)" d="M2206.99 235.198 L2206.99 230.939 Q2208.75 231.772 2210.55 232.212 Q2212.36 232.652 2214.1 232.652 Q2218.72 232.652 2221.16 229.55 Q2223.61 226.425 2223.96 220.082 Q2222.61 222.073 2220.55 223.138 Q2218.49 224.203 2215.99 224.203 Q2210.81 224.203 2207.78 221.078 Q2204.77 217.93 2204.77 212.49 Q2204.77 207.166 2207.91 203.948 Q2211.06 200.731 2216.29 200.731 Q2222.29 200.731 2225.44 205.337 Q2228.61 209.92 2228.61 218.67 Q2228.61 226.842 2224.72 231.726 Q2220.85 236.587 2214.3 236.587 Q2212.54 236.587 2210.74 236.24 Q2208.93 235.893 2206.99 235.198 M2216.29 220.545 Q2219.44 220.545 2221.27 218.393 Q2223.12 216.24 2223.12 212.49 Q2223.12 208.763 2221.27 206.61 Q2219.44 204.434 2216.29 204.434 Q2213.15 204.434 2211.29 206.61 Q2209.47 208.763 2209.47 212.49 Q2209.47 216.24 2211.29 218.393 Q2213.15 220.545 2216.29 220.545 Z" fill="#000000" fill-rule="nonzero" fill-opacity="1"></path><path clip-path="url(#clip150)" d="M2237.06 201.356 L2255.41 201.356 L2255.41 205.291 L2241.34 205.291 L2241.34 213.763 Q2242.36 213.416 2243.38 213.254 Q2244.4 213.069 2245.41 213.069 Q2251.2 213.069 2254.58 216.24 Q2257.96 219.411 2257.96 224.828 Q2257.96 230.406 2254.49 233.508 Q2251.02 236.587 2244.7 236.587 Q2242.52 236.587 2240.25 236.217 Q2238.01 235.846 2235.6 235.106 L2235.6 230.406 Q2237.68 231.541 2239.91 232.096 Q2242.13 232.652 2244.6 232.652 Q2248.61 232.652 2250.95 230.545 Q2253.28 228.439 2253.28 224.828 Q2253.28 221.217 2250.95 219.11 Q2248.61 217.004 2244.6 217.004 Q2242.73 217.004 2240.85 217.42 Q2239 217.837 2237.06 218.717 L2237.06 201.356 Z" fill="#000000" fill-rule="nonzero" fill-opacity="1"></path></svg>