<svg xmlns="http://www.w3.org/2000/svg" xmlns:xlink="http://www.w3.org/1999/xlink" width="600" height="400" viewBox="0 0 2400 1600">
<defs>
  <clipPath id="clip230">
    <rect x="0" y="0" width="2400" height="1600"></rect>
  </clipPath>
</defs>
<path clip-path="url(#clip230)" d="M0 1600 L2400 1600 L2400 0 L0 0  Z" fill="#ffffff" fill-rule="evenodd" fill-opacity="1"></path>
<defs>
  <clipPath id="clip231">
    <rect x="480" y="0" width="1681" height="1600"></rect>
  </clipPath>
</defs>
<path clip-path="url(#clip230)" d="M219.866 1423.18 L2352.76 1423.18 L2352.76 123.472 L219.866 123.472  Z" fill="#ffffff" fill-rule="evenodd" fill-opacity="1"></path>
<defs>
  <clipPath id="clip232">
    <rect x="219" y="123" width="2134" height="1301"></rect>
  </clipPath>
</defs>
<polyline clip-path="url(#clip232)" style="stroke:#000000; stroke-linecap:round; stroke-linejoin:round; stroke-width:2; stroke-opacity:0.1; fill:none" points="278.254,1423.18 278.254,123.472 "></polyline>
<polyline clip-path="url(#clip232)" style="stroke:#000000; stroke-linecap:round; stroke-linejoin:round; stroke-width:2; stroke-opacity:0.1; fill:none" points="772.4,1423.18 772.4,123.472 "></polyline>
<polyline clip-path="url(#clip232)" style="stroke:#000000; stroke-linecap:round; stroke-linejoin:round; stroke-width:2; stroke-opacity:0.1; fill:none" points="1266.55,1423.18 1266.55,123.472 "></polyline>
<polyline clip-path="url(#clip232)" style="stroke:#000000; stroke-linecap:round; stroke-linejoin:round; stroke-width:2; stroke-opacity:0.1; fill:none" points="1760.69,1423.18 1760.69,123.472 "></polyline>
<polyline clip-path="url(#clip232)" style="stroke:#000000; stroke-linecap:round; stroke-linejoin:round; stroke-width:2; stroke-opacity:0.1; fill:none" points="2254.84,1423.18 2254.84,123.472 "></polyline>
<polyline clip-path="url(#clip230)" style="stroke:#000000; stroke-linecap:round; stroke-linejoin:round; stroke-width:4; stroke-opacity:1; fill:none" points="219.866,1423.18 2352.76,1423.18 "></polyline>
<polyline clip-path="url(#clip230)" style="stroke:#000000; stroke-linecap:round; stroke-linejoin:round; stroke-width:4; stroke-opacity:1; fill:none" points="278.254,1423.18 278.254,1404.28 "></polyline>
<polyline clip-path="url(#clip230)" style="stroke:#000000; stroke-linecap:round; stroke-linejoin:round; stroke-width:4; stroke-opacity:1; fill:none" points="772.4,1423.18 772.4,1404.28 "></polyline>
<polyline clip-path="url(#clip230)" style="stroke:#000000; stroke-linecap:round; stroke-linejoin:round; stroke-width:4; stroke-opacity:1; fill:none" points="1266.55,1423.18 1266.55,1404.28 "></polyline>
<polyline clip-path="url(#clip230)" style="stroke:#000000; stroke-linecap:round; stroke-linejoin:round; stroke-width:4; stroke-opacity:1; fill:none" points="1760.69,1423.18 1760.69,1404.28 "></polyline>
<polyline clip-path="url(#clip230)" style="stroke:#000000; stroke-linecap:round; stroke-linejoin:round; stroke-width:4; stroke-opacity:1; fill:none" points="2254.84,1423.18 2254.84,1404.28 "></polyline>
<path clip-path="url(#clip230)" d="M278.254 1454.1 Q274.643 1454.1 272.815 1457.66 Q271.009 1461.2 271.009 1468.33 Q271.009 1475.44 272.815 1479.01 Q274.643 1482.55 278.254 1482.55 Q281.889 1482.55 283.694 1479.01 Q285.523 1475.44 285.523 1468.33 Q285.523 1461.2 283.694 1457.66 Q281.889 1454.1 278.254 1454.1 M278.254 1450.39 Q284.065 1450.39 287.12 1455 Q290.199 1459.58 290.199 1468.33 Q290.199 1477.06 287.12 1481.67 Q284.065 1486.25 278.254 1486.25 Q272.444 1486.25 269.366 1481.67 Q266.31 1477.06 266.31 1468.33 Q266.31 1459.58 269.366 1455 Q272.444 1450.39 278.254 1450.39 Z" fill="#000000" fill-rule="nonzero" fill-opacity="1"></path><path clip-path="url(#clip230)" d="M736.092 1481.64 L752.412 1481.64 L752.412 1485.58 L730.467 1485.58 L730.467 1481.64 Q733.129 1478.89 737.713 1474.26 Q742.319 1469.61 743.5 1468.27 Q745.745 1465.74 746.625 1464.01 Q747.527 1462.25 747.527 1460.56 Q747.527 1457.8 745.583 1456.07 Q743.662 1454.33 740.56 1454.33 Q738.361 1454.33 735.907 1455.09 Q733.476 1455.86 730.699 1457.41 L730.699 1452.69 Q733.523 1451.55 735.976 1450.97 Q738.43 1450.39 740.467 1450.39 Q745.838 1450.39 749.032 1453.08 Q752.226 1455.77 752.226 1460.26 Q752.226 1462.39 751.416 1464.31 Q750.629 1466.2 748.523 1468.8 Q747.944 1469.47 744.842 1472.69 Q741.74 1475.88 736.092 1481.64 Z" fill="#000000" fill-rule="nonzero" fill-opacity="1"></path><path clip-path="url(#clip230)" d="M762.273 1451.02 L780.629 1451.02 L780.629 1454.96 L766.555 1454.96 L766.555 1463.43 Q767.574 1463.08 768.592 1462.92 Q769.611 1462.73 770.629 1462.73 Q776.416 1462.73 779.796 1465.9 Q783.175 1469.08 783.175 1474.49 Q783.175 1480.07 779.703 1483.17 Q776.231 1486.25 769.911 1486.25 Q767.736 1486.25 765.467 1485.88 Q763.222 1485.51 760.814 1484.77 L760.814 1480.07 Q762.898 1481.2 765.12 1481.76 Q767.342 1482.32 769.819 1482.32 Q773.823 1482.32 776.161 1480.21 Q778.499 1478.1 778.499 1474.49 Q778.499 1470.88 776.161 1468.77 Q773.823 1466.67 769.819 1466.67 Q767.944 1466.67 766.069 1467.08 Q764.217 1467.5 762.273 1468.38 L762.273 1451.02 Z" fill="#000000" fill-rule="nonzero" fill-opacity="1"></path><path clip-path="url(#clip230)" d="M802.388 1454.1 Q798.777 1454.1 796.948 1457.66 Q795.143 1461.2 795.143 1468.33 Q795.143 1475.44 796.948 1479.01 Q798.777 1482.55 802.388 1482.55 Q806.022 1482.55 807.828 1479.01 Q809.657 1475.44 809.657 1468.33 Q809.657 1461.2 807.828 1457.66 Q806.022 1454.1 802.388 1454.1 M802.388 1450.39 Q808.198 1450.39 811.254 1455 Q814.333 1459.58 814.333 1468.33 Q814.333 1477.06 811.254 1481.67 Q808.198 1486.25 802.388 1486.25 Q796.578 1486.25 793.499 1481.67 Q790.444 1477.06 790.444 1468.33 Q790.444 1459.58 793.499 1455 Q796.578 1450.39 802.388 1450.39 Z" fill="#000000" fill-rule="nonzero" fill-opacity="1"></path><path clip-path="url(#clip230)" d="M1226.16 1451.02 L1244.52 1451.02 L1244.52 1454.96 L1230.45 1454.96 L1230.45 1463.43 Q1231.46 1463.08 1232.48 1462.92 Q1233.5 1462.73 1234.52 1462.73 Q1240.31 1462.73 1243.69 1465.9 Q1247.07 1469.08 1247.07 1474.49 Q1247.07 1480.07 1243.59 1483.17 Q1240.12 1486.25 1233.8 1486.25 Q1231.63 1486.25 1229.36 1485.88 Q1227.11 1485.51 1224.71 1484.77 L1224.71 1480.07 Q1226.79 1481.2 1229.01 1481.76 Q1231.23 1482.32 1233.71 1482.32 Q1237.71 1482.32 1240.05 1480.21 Q1242.39 1478.1 1242.39 1474.49 Q1242.39 1470.88 1240.05 1468.77 Q1237.71 1466.67 1233.71 1466.67 Q1231.83 1466.67 1229.96 1467.08 Q1228.11 1467.5 1226.16 1468.38 L1226.16 1451.02 Z" fill="#000000" fill-rule="nonzero" fill-opacity="1"></path><path clip-path="url(#clip230)" d="M1266.28 1454.1 Q1262.67 1454.1 1260.84 1457.66 Q1259.03 1461.2 1259.03 1468.33 Q1259.03 1475.44 1260.84 1479.01 Q1262.67 1482.55 1266.28 1482.55 Q1269.91 1482.55 1271.72 1479.01 Q1273.55 1475.44 1273.55 1468.33 Q1273.55 1461.2 1271.72 1457.66 Q1269.91 1454.1 1266.28 1454.1 M1266.28 1450.39 Q1272.09 1450.39 1275.14 1455 Q1278.22 1459.58 1278.22 1468.33 Q1278.22 1477.06 1275.14 1481.67 Q1272.09 1486.25 1266.28 1486.25 Q1260.47 1486.25 1257.39 1481.67 Q1254.33 1477.06 1254.33 1468.33 Q1254.33 1459.58 1257.39 1455 Q1260.47 1450.39 1266.28 1450.39 Z" fill="#000000" fill-rule="nonzero" fill-opacity="1"></path><path clip-path="url(#clip230)" d="M1296.44 1454.1 Q1292.83 1454.1 1291 1457.66 Q1289.2 1461.2 1289.2 1468.33 Q1289.2 1475.44 1291 1479.01 Q1292.83 1482.55 1296.44 1482.55 Q1300.08 1482.55 1301.88 1479.01 Q1303.71 1475.44 1303.71 1468.33 Q1303.71 1461.2 1301.88 1457.66 Q1300.08 1454.1 1296.44 1454.1 M1296.44 1450.39 Q1302.25 1450.39 1305.31 1455 Q1308.39 1459.58 1308.39 1468.33 Q1308.39 1477.06 1305.31 1481.67 Q1302.25 1486.25 1296.44 1486.25 Q1290.63 1486.25 1287.55 1481.67 Q1284.5 1477.06 1284.5 1468.33 Q1284.5 1459.58 1287.55 1455 Q1290.63 1450.39 1296.44 1450.39 Z" fill="#000000" fill-rule="nonzero" fill-opacity="1"></path><path clip-path="url(#clip230)" d="M1718.97 1451.02 L1741.19 1451.02 L1741.19 1453.01 L1728.64 1485.58 L1723.76 1485.58 L1735.56 1454.96 L1718.97 1454.96 L1718.97 1451.02 Z" fill="#000000" fill-rule="nonzero" fill-opacity="1"></path><path clip-path="url(#clip230)" d="M1750.36 1451.02 L1768.71 1451.02 L1768.71 1454.96 L1754.64 1454.96 L1754.64 1463.43 Q1755.66 1463.08 1756.67 1462.92 Q1757.69 1462.73 1758.71 1462.73 Q1764.5 1462.73 1767.88 1465.9 Q1771.26 1469.08 1771.26 1474.49 Q1771.26 1480.07 1767.79 1483.17 Q1764.31 1486.25 1757.99 1486.25 Q1755.82 1486.25 1753.55 1485.88 Q1751.3 1485.51 1748.9 1484.77 L1748.9 1480.07 Q1750.98 1481.2 1753.2 1481.76 Q1755.42 1482.32 1757.9 1482.32 Q1761.91 1482.32 1764.24 1480.21 Q1766.58 1478.1 1766.58 1474.49 Q1766.58 1470.88 1764.24 1468.77 Q1761.91 1466.67 1757.9 1466.67 Q1756.03 1466.67 1754.15 1467.08 Q1752.3 1467.5 1750.36 1468.38 L1750.36 1451.02 Z" fill="#000000" fill-rule="nonzero" fill-opacity="1"></path><path clip-path="url(#clip230)" d="M1790.47 1454.1 Q1786.86 1454.1 1785.03 1457.66 Q1783.23 1461.2 1783.23 1468.33 Q1783.23 1475.44 1785.03 1479.01 Q1786.86 1482.55 1790.47 1482.55 Q1794.1 1482.55 1795.91 1479.01 Q1797.74 1475.44 1797.74 1468.33 Q1797.74 1461.2 1795.91 1457.66 Q1794.1 1454.1 1790.47 1454.1 M1790.47 1450.39 Q1796.28 1450.39 1799.34 1455 Q1802.41 1459.58 1802.41 1468.33 Q1802.41 1477.06 1799.34 1481.67 Q1796.28 1486.25 1790.47 1486.25 Q1784.66 1486.25 1781.58 1481.67 Q1778.53 1477.06 1778.53 1468.33 Q1778.53 1459.58 1781.58 1455 Q1784.66 1450.39 1790.47 1450.39 Z" fill="#000000" fill-rule="nonzero" fill-opacity="1"></path><path clip-path="url(#clip230)" d="M2199.36 1481.64 L2207 1481.64 L2207 1455.28 L2198.69 1456.95 L2198.69 1452.69 L2206.95 1451.02 L2211.63 1451.02 L2211.63 1481.64 L2219.27 1481.64 L2219.27 1485.58 L2199.36 1485.58 L2199.36 1481.64 Z" fill="#000000" fill-rule="nonzero" fill-opacity="1"></path><path clip-path="url(#clip230)" d="M2238.71 1454.1 Q2235.1 1454.1 2233.27 1457.66 Q2231.47 1461.2 2231.47 1468.33 Q2231.47 1475.44 2233.27 1479.01 Q2235.1 1482.55 2238.71 1482.55 Q2242.35 1482.55 2244.15 1479.01 Q2245.98 1475.44 2245.98 1468.33 Q2245.98 1461.2 2244.15 1457.66 Q2242.35 1454.1 2238.71 1454.1 M2238.71 1450.39 Q2244.52 1450.39 2247.58 1455 Q2250.66 1459.58 2250.66 1468.33 Q2250.66 1477.06 2247.58 1481.67 Q2244.52 1486.25 2238.71 1486.25 Q2232.9 1486.25 2229.82 1481.67 Q2226.77 1477.06 2226.77 1468.33 Q2226.77 1459.58 2229.82 1455 Q2232.9 1450.39 2238.71 1450.39 Z" fill="#000000" fill-rule="nonzero" fill-opacity="1"></path><path clip-path="url(#clip230)" d="M2268.88 1454.1 Q2265.26 1454.1 2263.44 1457.66 Q2261.63 1461.2 2261.63 1468.33 Q2261.63 1475.44 2263.44 1479.01 Q2265.26 1482.55 2268.88 1482.55 Q2272.51 1482.55 2274.32 1479.01 Q2276.14 1475.44 2276.14 1468.33 Q2276.14 1461.2 2274.32 1457.66 Q2272.51 1454.1 2268.88 1454.1 M2268.88 1450.39 Q2274.69 1450.39 2277.74 1455 Q2280.82 1459.58 2280.82 1468.33 Q2280.82 1477.06 2277.74 1481.67 Q2274.69 1486.25 2268.88 1486.25 Q2263.07 1486.25 2259.99 1481.67 Q2256.93 1477.06 2256.93 1468.33 Q2256.93 1459.58 2259.99 1455 Q2263.07 1450.39 2268.88 1450.39 Z" fill="#000000" fill-rule="nonzero" fill-opacity="1"></path><path clip-path="url(#clip230)" d="M2299.04 1454.1 Q2295.43 1454.1 2293.6 1457.66 Q2291.79 1461.2 2291.79 1468.33 Q2291.79 1475.44 2293.6 1479.01 Q2295.43 1482.55 2299.04 1482.55 Q2302.67 1482.55 2304.48 1479.01 Q2306.31 1475.44 2306.31 1468.33 Q2306.31 1461.2 2304.48 1457.66 Q2302.67 1454.1 2299.04 1454.1 M2299.04 1450.39 Q2304.85 1450.39 2307.9 1455 Q2310.98 1459.58 2310.98 1468.33 Q2310.98 1477.06 2307.9 1481.67 Q2304.85 1486.25 2299.04 1486.25 Q2293.23 1486.25 2290.15 1481.67 Q2287.09 1477.06 2287.09 1468.33 Q2287.09 1459.58 2290.15 1455 Q2293.23 1450.39 2299.04 1450.39 Z" fill="#000000" fill-rule="nonzero" fill-opacity="1"></path><path clip-path="url(#clip230)" d="M1052.15 1520.52 L1082.19 1520.52 L1082.19 1525.93 L1058.58 1525.93 L1058.58 1540 L1081.21 1540 L1081.21 1545.41 L1058.58 1545.41 L1058.58 1562.63 L1082.77 1562.63 L1082.77 1568.04 L1052.15 1568.04 L1052.15 1520.52 Z" fill="#000000" fill-rule="nonzero" fill-opacity="1"></path><path clip-path="url(#clip230)" d="M1098.75 1562.7 L1098.75 1581.6 L1092.86 1581.6 L1092.86 1532.4 L1098.75 1532.4 L1098.75 1537.81 Q1100.59 1534.62 1103.39 1533.1 Q1106.23 1531.54 1110.14 1531.54 Q1116.63 1531.54 1120.68 1536.69 Q1124.75 1541.85 1124.75 1550.25 Q1124.75 1558.65 1120.68 1563.81 Q1116.63 1568.97 1110.14 1568.97 Q1106.23 1568.97 1103.39 1567.44 Q1100.59 1565.88 1098.75 1562.7 M1118.67 1550.25 Q1118.67 1543.79 1116 1540.13 Q1113.35 1536.44 1108.71 1536.44 Q1104.06 1536.44 1101.39 1540.13 Q1098.75 1543.79 1098.75 1550.25 Q1098.75 1556.71 1101.39 1560.4 Q1104.06 1564.07 1108.71 1564.07 Q1113.35 1564.07 1116 1560.4 Q1118.67 1556.71 1118.67 1550.25 Z" fill="#000000" fill-rule="nonzero" fill-opacity="1"></path><path clip-path="url(#clip230)" d="M1148.27 1536.5 Q1143.56 1536.5 1140.82 1540.19 Q1138.09 1543.85 1138.09 1550.25 Q1138.09 1556.65 1140.79 1560.34 Q1143.53 1564 1148.27 1564 Q1152.95 1564 1155.69 1560.31 Q1158.42 1556.62 1158.42 1550.25 Q1158.42 1543.92 1155.69 1540.23 Q1152.95 1536.5 1148.27 1536.5 M1148.27 1531.54 Q1155.91 1531.54 1160.27 1536.5 Q1164.63 1541.47 1164.63 1550.25 Q1164.63 1559 1160.27 1564 Q1155.91 1568.97 1148.27 1568.97 Q1140.6 1568.97 1136.24 1564 Q1131.91 1559 1131.91 1550.25 Q1131.91 1541.47 1136.24 1536.5 Q1140.6 1531.54 1148.27 1531.54 Z" fill="#000000" fill-rule="nonzero" fill-opacity="1"></path><path clip-path="url(#clip230)" d="M1199.99 1533.76 L1199.99 1539.24 Q1197.51 1537.87 1195 1537.2 Q1192.51 1536.5 1189.97 1536.5 Q1184.27 1536.5 1181.12 1540.13 Q1177.97 1543.73 1177.97 1550.25 Q1177.97 1556.78 1181.12 1560.4 Q1184.27 1564 1189.97 1564 Q1192.51 1564 1195 1563.33 Q1197.51 1562.63 1199.99 1561.26 L1199.99 1566.68 Q1197.54 1567.82 1194.9 1568.39 Q1192.29 1568.97 1189.33 1568.97 Q1181.28 1568.97 1176.53 1563.91 Q1171.79 1558.85 1171.79 1550.25 Q1171.79 1541.53 1176.57 1536.53 Q1181.37 1531.54 1189.71 1531.54 Q1192.42 1531.54 1195 1532.11 Q1197.57 1532.65 1199.99 1533.76 Z" fill="#000000" fill-rule="nonzero" fill-opacity="1"></path><path clip-path="url(#clip230)" d="M1239.81 1546.53 L1239.81 1568.04 L1233.95 1568.04 L1233.95 1546.72 Q1233.95 1541.66 1231.98 1539.14 Q1230.01 1536.63 1226.06 1536.63 Q1221.32 1536.63 1218.58 1539.65 Q1215.84 1542.68 1215.84 1547.9 L1215.84 1568.04 L1209.95 1568.04 L1209.95 1518.52 L1215.84 1518.52 L1215.84 1537.93 Q1217.94 1534.72 1220.78 1533.13 Q1223.64 1531.54 1227.36 1531.54 Q1233.51 1531.54 1236.66 1535.36 Q1239.81 1539.14 1239.81 1546.53 Z" fill="#000000" fill-rule="nonzero" fill-opacity="1"></path><path clip-path="url(#clip230)" d="M1301.84 1546.53 L1301.84 1568.04 L1295.99 1568.04 L1295.99 1546.72 Q1295.99 1541.66 1294.01 1539.14 Q1292.04 1536.63 1288.09 1536.63 Q1283.35 1536.63 1280.61 1539.65 Q1277.88 1542.68 1277.88 1547.9 L1277.88 1568.04 L1271.99 1568.04 L1271.99 1532.4 L1277.88 1532.4 L1277.88 1537.93 Q1279.98 1534.72 1282.81 1533.13 Q1285.67 1531.54 1289.4 1531.54 Q1295.54 1531.54 1298.69 1535.36 Q1301.84 1539.14 1301.84 1546.53 Z" fill="#000000" fill-rule="nonzero" fill-opacity="1"></path><path clip-path="url(#clip230)" d="M1312.92 1553.98 L1312.92 1532.4 L1318.78 1532.4 L1318.78 1553.75 Q1318.78 1558.81 1320.75 1561.36 Q1322.72 1563.87 1326.67 1563.87 Q1331.41 1563.87 1334.15 1560.85 Q1336.92 1557.83 1336.92 1552.61 L1336.92 1532.4 L1342.77 1532.4 L1342.77 1568.04 L1336.92 1568.04 L1336.92 1562.57 Q1334.79 1565.82 1331.95 1567.41 Q1329.15 1568.97 1325.43 1568.97 Q1319.29 1568.97 1316.1 1565.15 Q1312.92 1561.33 1312.92 1553.98 M1327.66 1531.54 L1327.66 1531.54 Z" fill="#000000" fill-rule="nonzero" fill-opacity="1"></path><path clip-path="url(#clip230)" d="M1382.59 1539.24 Q1384.79 1535.29 1387.84 1533.41 Q1390.9 1531.54 1395.04 1531.54 Q1400.61 1531.54 1403.63 1535.45 Q1406.65 1539.33 1406.65 1546.53 L1406.65 1568.04 L1400.77 1568.04 L1400.77 1546.72 Q1400.77 1541.59 1398.95 1539.11 Q1397.14 1536.63 1393.41 1536.63 Q1388.86 1536.63 1386.22 1539.65 Q1383.58 1542.68 1383.58 1547.9 L1383.58 1568.04 L1377.69 1568.04 L1377.69 1546.72 Q1377.69 1541.56 1375.88 1539.11 Q1374.06 1536.63 1370.27 1536.63 Q1365.79 1536.63 1363.15 1539.68 Q1360.5 1542.71 1360.5 1547.9 L1360.5 1568.04 L1354.62 1568.04 L1354.62 1532.4 L1360.5 1532.4 L1360.5 1537.93 Q1362.51 1534.66 1365.31 1533.1 Q1368.11 1531.54 1371.96 1531.54 Q1375.84 1531.54 1378.55 1533.51 Q1381.29 1535.48 1382.59 1539.24 Z" fill="#000000" fill-rule="nonzero" fill-opacity="1"></path><path clip-path="url(#clip230)" d="M1443.93 1550.25 Q1443.93 1543.79 1441.25 1540.13 Q1438.61 1536.44 1433.96 1536.44 Q1429.32 1536.44 1426.64 1540.13 Q1424 1543.79 1424 1550.25 Q1424 1556.71 1426.64 1560.4 Q1429.32 1564.07 1433.96 1564.07 Q1438.61 1564.07 1441.25 1560.4 Q1443.93 1556.71 1443.93 1550.25 M1424 1537.81 Q1425.85 1534.62 1428.65 1533.1 Q1431.48 1531.54 1435.4 1531.54 Q1441.89 1531.54 1445.93 1536.69 Q1450.01 1541.85 1450.01 1550.25 Q1450.01 1558.65 1445.93 1563.81 Q1441.89 1568.97 1435.4 1568.97 Q1431.48 1568.97 1428.65 1567.44 Q1425.85 1565.88 1424 1562.7 L1424 1568.04 L1418.11 1568.04 L1418.11 1518.52 L1424 1518.52 L1424 1537.81 Z" fill="#000000" fill-rule="nonzero" fill-opacity="1"></path><path clip-path="url(#clip230)" d="M1490.2 1548.76 L1490.2 1551.62 L1463.28 1551.62 Q1463.66 1557.67 1466.91 1560.85 Q1470.18 1564 1476.01 1564 Q1479.38 1564 1482.53 1563.17 Q1485.72 1562.35 1488.84 1560.69 L1488.84 1566.23 Q1485.69 1567.57 1482.37 1568.27 Q1479.06 1568.97 1475.66 1568.97 Q1467.13 1568.97 1462.13 1564 Q1457.17 1559.04 1457.17 1550.57 Q1457.17 1541.82 1461.88 1536.69 Q1466.62 1531.54 1474.64 1531.54 Q1481.83 1531.54 1486 1536.18 Q1490.2 1540.8 1490.2 1548.76 M1484.35 1547.04 Q1484.28 1542.23 1481.64 1539.37 Q1479.03 1536.5 1474.7 1536.5 Q1469.8 1536.5 1466.84 1539.27 Q1463.91 1542.04 1463.47 1547.07 L1484.35 1547.04 Z" fill="#000000" fill-rule="nonzero" fill-opacity="1"></path><path clip-path="url(#clip230)" d="M1520.47 1537.87 Q1519.49 1537.3 1518.31 1537.04 Q1517.16 1536.76 1515.76 1536.76 Q1510.8 1536.76 1508.12 1540 Q1505.48 1543.22 1505.48 1549.27 L1505.48 1568.04 L1499.59 1568.04 L1499.59 1532.4 L1505.48 1532.4 L1505.48 1537.93 Q1507.33 1534.69 1510.29 1533.13 Q1513.25 1531.54 1517.48 1531.54 Q1518.09 1531.54 1518.82 1531.63 Q1519.55 1531.7 1520.44 1531.85 L1520.47 1537.87 Z" fill="#000000" fill-rule="nonzero" fill-opacity="1"></path><polyline clip-path="url(#clip232)" style="stroke:#000000; stroke-linecap:round; stroke-linejoin:round; stroke-width:2; stroke-opacity:0.1; fill:none" points="219.866,1222.06 2352.76,1222.06 "></polyline>
<polyline clip-path="url(#clip232)" style="stroke:#000000; stroke-linecap:round; stroke-linejoin:round; stroke-width:2; stroke-opacity:0.1; fill:none" points="219.866,953.099 2352.76,953.099 "></polyline>
<polyline clip-path="url(#clip232)" style="stroke:#000000; stroke-linecap:round; stroke-linejoin:round; stroke-width:2; stroke-opacity:0.1; fill:none" points="219.866,684.137 2352.76,684.137 "></polyline>
<polyline clip-path="url(#clip232)" style="stroke:#000000; stroke-linecap:round; stroke-linejoin:round; stroke-width:2; stroke-opacity:0.1; fill:none" points="219.866,415.175 2352.76,415.175 "></polyline>
<polyline clip-path="url(#clip232)" style="stroke:#000000; stroke-linecap:round; stroke-linejoin:round; stroke-width:2; stroke-opacity:0.1; fill:none" points="219.866,146.214 2352.76,146.214 "></polyline>
<polyline clip-path="url(#clip230)" style="stroke:#000000; stroke-linecap:round; stroke-linejoin:round; stroke-width:4; stroke-opacity:1; fill:none" points="219.866,1423.18 219.866,123.472 "></polyline>
<polyline clip-path="url(#clip230)" style="stroke:#000000; stroke-linecap:round; stroke-linejoin:round; stroke-width:4; stroke-opacity:1; fill:none" points="219.866,1222.06 238.764,1222.06 "></polyline>
<polyline clip-path="url(#clip230)" style="stroke:#000000; stroke-linecap:round; stroke-linejoin:round; stroke-width:4; stroke-opacity:1; fill:none" points="219.866,953.099 238.764,953.099 "></polyline>
<polyline clip-path="url(#clip230)" style="stroke:#000000; stroke-linecap:round; stroke-linejoin:round; stroke-width:4; stroke-opacity:1; fill:none" points="219.866,684.137 238.764,684.137 "></polyline>
<polyline clip-path="url(#clip230)" style="stroke:#000000; stroke-linecap:round; stroke-linejoin:round; stroke-width:4; stroke-opacity:1; fill:none" points="219.866,415.175 238.764,415.175 "></polyline>
<polyline clip-path="url(#clip230)" style="stroke:#000000; stroke-linecap:round; stroke-linejoin:round; stroke-width:4; stroke-opacity:1; fill:none" points="219.866,146.214 238.764,146.214 "></polyline>
<path clip-path="url(#clip230)" d="M128.288 1207.86 Q124.677 1207.86 122.848 1211.42 Q121.043 1214.97 121.043 1222.1 Q121.043 1229.2 122.848 1232.77 Q124.677 1236.31 128.288 1236.31 Q131.922 1236.31 133.728 1232.77 Q135.556 1229.2 135.556 1222.1 Q135.556 1214.97 133.728 1211.42 Q131.922 1207.86 128.288 1207.86 M128.288 1204.16 Q134.098 1204.16 137.154 1208.76 Q140.232 1213.35 140.232 1222.1 Q140.232 1230.82 137.154 1235.43 Q134.098 1240.01 128.288 1240.01 Q122.478 1240.01 119.399 1235.43 Q116.343 1230.82 116.343 1222.1 Q116.343 1213.35 119.399 1208.76 Q122.478 1204.16 128.288 1204.16 Z" fill="#000000" fill-rule="nonzero" fill-opacity="1"></path><path clip-path="url(#clip230)" d="M148.45 1233.46 L153.334 1233.46 L153.334 1239.34 L148.45 1239.34 L148.45 1233.46 Z" fill="#000000" fill-rule="nonzero" fill-opacity="1"></path><path clip-path="url(#clip230)" d="M167.547 1235.41 L183.866 1235.41 L183.866 1239.34 L161.922 1239.34 L161.922 1235.41 Q164.584 1232.65 169.167 1228.02 Q173.774 1223.37 174.954 1222.03 Q177.2 1219.5 178.079 1217.77 Q178.982 1216.01 178.982 1214.32 Q178.982 1211.56 177.038 1209.83 Q175.116 1208.09 172.014 1208.09 Q169.815 1208.09 167.362 1208.85 Q164.931 1209.62 162.153 1211.17 L162.153 1206.45 Q164.977 1205.31 167.431 1204.73 Q169.885 1204.16 171.922 1204.16 Q177.292 1204.16 180.487 1206.84 Q183.681 1209.53 183.681 1214.02 Q183.681 1216.15 182.871 1218.07 Q182.084 1219.97 179.977 1222.56 Q179.399 1223.23 176.297 1226.45 Q173.195 1229.64 167.547 1235.41 Z" fill="#000000" fill-rule="nonzero" fill-opacity="1"></path><path clip-path="url(#clip230)" d="M126.205 938.898 Q122.593 938.898 120.765 942.462 Q118.959 946.004 118.959 953.134 Q118.959 960.24 120.765 963.805 Q122.593 967.347 126.205 967.347 Q129.839 967.347 131.644 963.805 Q133.473 960.24 133.473 953.134 Q133.473 946.004 131.644 942.462 Q129.839 938.898 126.205 938.898 M126.205 935.194 Q132.015 935.194 135.07 939.8 Q138.149 944.384 138.149 953.134 Q138.149 961.861 135.07 966.467 Q132.015 971.05 126.205 971.05 Q120.394 971.05 117.316 966.467 Q114.26 961.861 114.26 953.134 Q114.26 944.384 117.316 939.8 Q120.394 935.194 126.205 935.194 Z" fill="#000000" fill-rule="nonzero" fill-opacity="1"></path><path clip-path="url(#clip230)" d="M146.366 964.499 L151.251 964.499 L151.251 970.379 L146.366 970.379 L146.366 964.499 Z" fill="#000000" fill-rule="nonzero" fill-opacity="1"></path><path clip-path="url(#clip230)" d="M174.283 939.893 L162.477 958.342 L174.283 958.342 L174.283 939.893 M173.056 935.819 L178.936 935.819 L178.936 958.342 L183.866 958.342 L183.866 962.231 L178.936 962.231 L178.936 970.379 L174.283 970.379 L174.283 962.231 L158.681 962.231 L158.681 957.717 L173.056 935.819 Z" fill="#000000" fill-rule="nonzero" fill-opacity="1"></path><path clip-path="url(#clip230)" d="M126.529 669.936 Q122.918 669.936 121.089 673.501 Q119.283 677.042 119.283 684.172 Q119.283 691.278 121.089 694.843 Q122.918 698.385 126.529 698.385 Q130.163 698.385 131.968 694.843 Q133.797 691.278 133.797 684.172 Q133.797 677.042 131.968 673.501 Q130.163 669.936 126.529 669.936 M126.529 666.232 Q132.339 666.232 135.394 670.839 Q138.473 675.422 138.473 684.172 Q138.473 692.899 135.394 697.505 Q132.339 702.088 126.529 702.088 Q120.718 702.088 117.64 697.505 Q114.584 692.899 114.584 684.172 Q114.584 675.422 117.64 670.839 Q120.718 666.232 126.529 666.232 Z" fill="#000000" fill-rule="nonzero" fill-opacity="1"></path><path clip-path="url(#clip230)" d="M146.691 695.538 L151.575 695.538 L151.575 701.417 L146.691 701.417 L146.691 695.538 Z" fill="#000000" fill-rule="nonzero" fill-opacity="1"></path><path clip-path="url(#clip230)" d="M172.339 682.274 Q169.19 682.274 167.339 684.427 Q165.51 686.579 165.51 690.329 Q165.51 694.056 167.339 696.232 Q169.19 698.385 172.339 698.385 Q175.487 698.385 177.315 696.232 Q179.167 694.056 179.167 690.329 Q179.167 686.579 177.315 684.427 Q175.487 682.274 172.339 682.274 M181.621 667.621 L181.621 671.88 Q179.862 671.047 178.056 670.607 Q176.274 670.167 174.514 670.167 Q169.885 670.167 167.431 673.292 Q165.001 676.417 164.653 682.737 Q166.019 680.723 168.079 679.658 Q170.139 678.57 172.616 678.57 Q177.825 678.57 180.834 681.741 Q183.866 684.889 183.866 690.329 Q183.866 695.653 180.718 698.871 Q177.57 702.088 172.339 702.088 Q166.343 702.088 163.172 697.505 Q160.001 692.899 160.001 684.172 Q160.001 675.978 163.89 671.116 Q167.778 666.232 174.329 666.232 Q176.089 666.232 177.871 666.579 Q179.676 666.927 181.621 667.621 Z" fill="#000000" fill-rule="nonzero" fill-opacity="1"></path><path clip-path="url(#clip230)" d="M126.783 400.974 Q123.172 400.974 121.343 404.539 Q119.538 408.081 119.538 415.21 Q119.538 422.317 121.343 425.881 Q123.172 429.423 126.783 429.423 Q130.417 429.423 132.223 425.881 Q134.052 422.317 134.052 415.21 Q134.052 408.081 132.223 404.539 Q130.417 400.974 126.783 400.974 M126.783 397.27 Q132.593 397.27 135.649 401.877 Q138.728 406.46 138.728 415.21 Q138.728 423.937 135.649 428.543 Q132.593 433.127 126.783 433.127 Q120.973 433.127 117.894 428.543 Q114.839 423.937 114.839 415.21 Q114.839 406.46 117.894 401.877 Q120.973 397.27 126.783 397.27 Z" fill="#000000" fill-rule="nonzero" fill-opacity="1"></path><path clip-path="url(#clip230)" d="M146.945 426.576 L151.829 426.576 L151.829 432.455 L146.945 432.455 L146.945 426.576 Z" fill="#000000" fill-rule="nonzero" fill-opacity="1"></path><path clip-path="url(#clip230)" d="M172.014 416.043 Q168.681 416.043 166.76 417.826 Q164.862 419.608 164.862 422.733 Q164.862 425.858 166.76 427.641 Q168.681 429.423 172.014 429.423 Q175.348 429.423 177.269 427.641 Q179.19 425.835 179.19 422.733 Q179.19 419.608 177.269 417.826 Q175.371 416.043 172.014 416.043 M167.339 414.053 Q164.329 413.312 162.64 411.252 Q160.973 409.192 160.973 406.229 Q160.973 402.085 163.913 399.678 Q166.876 397.27 172.014 397.27 Q177.176 397.27 180.116 399.678 Q183.056 402.085 183.056 406.229 Q183.056 409.192 181.366 411.252 Q179.7 413.312 176.714 414.053 Q180.093 414.84 181.968 417.131 Q183.866 419.423 183.866 422.733 Q183.866 427.756 180.788 430.442 Q177.732 433.127 172.014 433.127 Q166.297 433.127 163.218 430.442 Q160.163 427.756 160.163 422.733 Q160.163 419.423 162.061 417.131 Q163.959 414.84 167.339 414.053 M165.626 406.669 Q165.626 409.354 167.292 410.858 Q168.982 412.363 172.014 412.363 Q175.024 412.363 176.714 410.858 Q178.426 409.354 178.426 406.669 Q178.426 403.983 176.714 402.479 Q175.024 400.974 172.014 400.974 Q168.982 400.974 167.292 402.479 Q165.626 403.983 165.626 406.669 Z" fill="#000000" fill-rule="nonzero" fill-opacity="1"></path><path clip-path="url(#clip230)" d="M117.501 159.558 L125.14 159.558 L125.14 133.193 L116.83 134.86 L116.83 130.6 L125.093 128.934 L129.769 128.934 L129.769 159.558 L137.408 159.558 L137.408 163.494 L117.501 163.494 L117.501 159.558 Z" fill="#000000" fill-rule="nonzero" fill-opacity="1"></path><path clip-path="url(#clip230)" d="M146.853 157.614 L151.737 157.614 L151.737 163.494 L146.853 163.494 L146.853 157.614 Z" fill="#000000" fill-rule="nonzero" fill-opacity="1"></path><path clip-path="url(#clip230)" d="M171.922 132.012 Q168.311 132.012 166.482 135.577 Q164.677 139.119 164.677 146.248 Q164.677 153.355 166.482 156.92 Q168.311 160.461 171.922 160.461 Q175.556 160.461 177.362 156.92 Q179.19 153.355 179.19 146.248 Q179.19 139.119 177.362 135.577 Q175.556 132.012 171.922 132.012 M171.922 128.309 Q177.732 128.309 180.788 132.915 Q183.866 137.498 183.866 146.248 Q183.866 154.975 180.788 159.582 Q177.732 164.165 171.922 164.165 Q166.112 164.165 163.033 159.582 Q159.978 154.975 159.978 146.248 Q159.978 137.498 163.033 132.915 Q166.112 128.309 171.922 128.309 Z" fill="#000000" fill-rule="nonzero" fill-opacity="1"></path><path clip-path="url(#clip230)" d="M16.4842 1101.54 L16.4842 1091.96 L48.8219 1079.83 L16.4842 1067.64 L16.4842 1058.06 L64.0042 1058.06 L64.0042 1064.33 L22.277 1064.33 L54.8694 1076.59 L54.8694 1083.05 L22.277 1095.3 L64.0042 1095.3 L64.0042 1101.54 L16.4842 1101.54 Z" fill="#000000" fill-rule="nonzero" fill-opacity="1"></path><path clip-path="url(#clip230)" d="M44.7161 1015.06 L47.5806 1015.06 L47.5806 1041.99 Q53.6281 1041.61 56.8109 1038.36 Q59.9619 1035.08 59.9619 1029.26 Q59.9619 1025.89 59.1344 1022.73 Q58.3069 1019.55 56.6518 1016.43 L62.1899 1016.43 Q63.5267 1019.58 64.227 1022.89 Q64.9272 1026.2 64.9272 1029.61 Q64.9272 1038.14 59.9619 1043.14 Q54.9967 1048.1 46.5303 1048.1 Q37.7774 1048.1 32.6531 1043.39 Q27.4968 1038.65 27.4968 1030.63 Q27.4968 1023.43 32.1438 1019.27 Q36.7589 1015.06 44.7161 1015.06 M42.9973 1020.92 Q38.1912 1020.98 35.3266 1023.63 Q32.4621 1026.24 32.4621 1030.56 Q32.4621 1035.47 35.2312 1038.43 Q38.0002 1041.35 43.0292 1041.8 L42.9973 1020.92 Z" fill="#000000" fill-rule="nonzero" fill-opacity="1"></path><path clip-path="url(#clip230)" d="M46.0847 989.251 Q46.0847 996.349 47.7079 999.086 Q49.3312 1001.82 53.2461 1001.82 Q56.3653 1001.82 58.2114 999.786 Q60.0256 997.717 60.0256 994.184 Q60.0256 989.314 56.5881 986.386 Q53.1188 983.426 47.3897 983.426 L46.0847 983.426 L46.0847 989.251 M43.6657 977.57 L64.0042 977.57 L64.0042 983.426 L58.5933 983.426 Q61.8398 985.431 63.3994 988.423 Q64.9272 991.415 64.9272 995.744 Q64.9272 1001.22 61.8716 1004.46 Q58.7843 1007.68 53.6281 1007.68 Q47.6125 1007.68 44.5569 1003.67 Q41.5014 999.627 41.5014 991.638 L41.5014 983.426 L40.9285 983.426 Q36.8862 983.426 34.6901 986.1 Q32.4621 988.741 32.4621 993.548 Q32.4621 996.603 33.1941 999.5 Q33.9262 1002.4 35.3903 1005.07 L29.9795 1005.07 Q28.7381 1001.85 28.1334 998.831 Q27.4968 995.807 27.4968 992.943 Q27.4968 985.209 31.5072 981.389 Q35.5176 977.57 43.6657 977.57 Z" fill="#000000" fill-rule="nonzero" fill-opacity="1"></path><path clip-path="url(#clip230)" d="M42.4881 935.874 L64.0042 935.874 L64.0042 941.731 L42.679 941.731 Q37.6183 941.731 35.1038 943.704 Q32.5894 945.677 32.5894 949.624 Q32.5894 954.367 35.6131 957.104 Q38.6368 959.841 43.8567 959.841 L64.0042 959.841 L64.0042 965.729 L28.3562 965.729 L28.3562 959.841 L33.8944 959.841 Q30.6797 957.741 29.0883 954.908 Q27.4968 952.043 27.4968 948.319 Q27.4968 942.176 31.3163 939.025 Q35.1038 935.874 42.4881 935.874 Z" fill="#000000" fill-rule="nonzero" fill-opacity="1"></path><path clip-path="url(#clip230)" d="M22.818 887.336 L46.4666 896.057 L46.4666 878.583 L22.818 887.336 M16.4842 890.964 L16.4842 883.676 L64.0042 865.565 L64.0042 872.249 L51.8138 876.578 L51.8138 897.998 L64.0042 902.327 L64.0042 909.107 L16.4842 890.964 Z" fill="#000000" fill-rule="nonzero" fill-opacity="1"></path><path clip-path="url(#clip230)" d="M46.212 833.291 Q39.7508 833.291 36.0905 835.965 Q32.3984 838.606 32.3984 843.253 Q32.3984 847.9 36.0905 850.574 Q39.7508 853.216 46.212 853.216 Q52.6732 853.216 56.3653 850.574 Q60.0256 847.9 60.0256 843.253 Q60.0256 838.606 56.3653 835.965 Q52.6732 833.291 46.212 833.291 M33.7671 853.216 Q30.5842 851.37 29.0564 848.569 Q27.4968 845.736 27.4968 841.821 Q27.4968 835.328 32.6531 831.286 Q37.8093 827.212 46.212 827.212 Q54.6147 827.212 59.771 831.286 Q64.9272 835.328 64.9272 841.821 Q64.9272 845.736 63.3994 848.569 Q61.8398 851.37 58.657 853.216 L64.0042 853.216 L64.0042 859.104 L14.479 859.104 L14.479 853.216 L33.7671 853.216 Z" fill="#000000" fill-rule="nonzero" fill-opacity="1"></path><path clip-path="url(#clip230)" d="M29.4065 794.778 L34.9447 794.778 Q33.6716 797.261 33.035 799.935 Q32.3984 802.608 32.3984 805.473 Q32.3984 809.833 33.7352 812.029 Q35.072 814.194 37.7456 814.194 Q39.7826 814.194 40.9603 812.634 Q42.1061 811.075 43.1565 806.364 L43.6021 804.359 Q44.9389 798.12 47.3897 795.51 Q49.8086 792.869 54.1691 792.869 Q59.1344 792.869 62.0308 796.815 Q64.9272 800.73 64.9272 807.605 Q64.9272 810.47 64.3543 813.589 Q63.8132 816.676 62.6992 820.114 L56.6518 820.114 Q58.3387 816.867 59.198 813.716 Q60.0256 810.565 60.0256 807.478 Q60.0256 803.34 58.6251 801.112 Q57.1929 798.884 54.6147 798.884 Q52.2276 798.884 50.9545 800.508 Q49.6813 802.099 48.5037 807.542 L48.0262 809.579 Q46.8804 815.021 44.5251 817.44 Q42.138 819.859 38.0002 819.859 Q32.9713 819.859 30.2341 816.295 Q27.4968 812.73 27.4968 806.173 Q27.4968 802.927 27.9743 800.062 Q28.4517 797.197 29.4065 794.778 Z" fill="#000000" fill-rule="nonzero" fill-opacity="1"></path><path clip-path="url(#clip230)" d="M32.4621 769.729 Q32.4621 774.44 36.1542 777.177 Q39.8145 779.914 46.212 779.914 Q52.6095 779.914 56.3017 777.209 Q59.9619 774.472 59.9619 769.729 Q59.9619 765.051 56.2698 762.313 Q52.5777 759.576 46.212 759.576 Q39.8781 759.576 36.186 762.313 Q32.4621 765.051 32.4621 769.729 M27.4968 769.729 Q27.4968 762.091 32.4621 757.73 Q37.4273 753.369 46.212 753.369 Q54.9649 753.369 59.9619 757.73 Q64.9272 762.091 64.9272 769.729 Q64.9272 777.4 59.9619 781.761 Q54.9649 786.089 46.212 786.089 Q37.4273 786.089 32.4621 781.761 Q27.4968 777.4 27.4968 769.729 Z" fill="#000000" fill-rule="nonzero" fill-opacity="1"></path><path clip-path="url(#clip230)" d="M14.479 743.662 L14.479 737.805 L64.0042 737.805 L64.0042 743.662 L14.479 743.662 Z" fill="#000000" fill-rule="nonzero" fill-opacity="1"></path><path clip-path="url(#clip230)" d="M49.9359 726.156 L28.3562 726.156 L28.3562 720.3 L49.7131 720.3 Q54.7739 720.3 57.3202 718.326 Q59.8346 716.353 59.8346 712.406 Q59.8346 707.664 56.8109 704.926 Q53.7872 702.157 48.5673 702.157 L28.3562 702.157 L28.3562 696.301 L64.0042 696.301 L64.0042 702.157 L58.5296 702.157 Q61.7762 704.29 63.3676 707.123 Q64.9272 709.924 64.9272 713.647 Q64.9272 719.79 61.1078 722.973 Q57.2883 726.156 49.9359 726.156 M27.4968 711.419 L27.4968 711.419 Z" fill="#000000" fill-rule="nonzero" fill-opacity="1"></path><path clip-path="url(#clip230)" d="M18.2347 678.445 L28.3562 678.445 L28.3562 666.382 L32.9077 666.382 L32.9077 678.445 L52.2594 678.445 Q56.6199 678.445 57.8613 677.267 Q59.1026 676.058 59.1026 672.398 L59.1026 666.382 L64.0042 666.382 L64.0042 672.398 Q64.0042 679.177 61.4897 681.755 Q58.9434 684.333 52.2594 684.333 L32.9077 684.333 L32.9077 688.63 L28.3562 688.63 L28.3562 684.333 L18.2347 684.333 L18.2347 678.445 Z" fill="#000000" fill-rule="nonzero" fill-opacity="1"></path><path clip-path="url(#clip230)" d="M44.7161 628.188 L47.5806 628.188 L47.5806 655.115 Q53.6281 654.733 56.8109 651.486 Q59.9619 648.208 59.9619 642.383 Q59.9619 639.01 59.1344 635.859 Q58.3069 632.676 56.6518 629.556 L62.1899 629.556 Q63.5267 632.708 64.227 636.018 Q64.9272 639.328 64.9272 642.734 Q64.9272 651.264 59.9619 656.261 Q54.9967 661.226 46.5303 661.226 Q37.7774 661.226 32.6531 656.515 Q27.4968 651.773 27.4968 643.752 Q27.4968 636.559 32.1438 632.389 Q36.7589 628.188 44.7161 628.188 M42.9973 634.044 Q38.1912 634.108 35.3266 636.75 Q32.4621 639.36 32.4621 643.688 Q32.4621 648.59 35.2312 651.55 Q38.0002 654.478 43.0292 654.924 L42.9973 634.044 Z" fill="#000000" fill-rule="nonzero" fill-opacity="1"></path><path clip-path="url(#clip230)" d="M16.4842 597.601 L16.4842 567.555 L21.895 567.555 L21.895 591.171 L35.9632 591.171 L35.9632 568.541 L41.3741 568.541 L41.3741 591.171 L58.5933 591.171 L58.5933 566.982 L64.0042 566.982 L64.0042 597.601 L16.4842 597.601 Z" fill="#000000" fill-rule="nonzero" fill-opacity="1"></path><path clip-path="url(#clip230)" d="M33.8307 536.012 Q33.2578 536.999 33.0032 538.177 Q32.7167 539.323 32.7167 540.723 Q32.7167 545.688 35.9632 548.362 Q39.1779 551.004 45.2253 551.004 L64.0042 551.004 L64.0042 556.892 L28.3562 556.892 L28.3562 551.004 L33.8944 551.004 Q30.6479 549.158 29.0883 546.198 Q27.4968 543.238 27.4968 539.004 Q27.4968 538.4 27.5923 537.668 Q27.656 536.935 27.8151 536.044 L33.8307 536.012 Z" fill="#000000" fill-rule="nonzero" fill-opacity="1"></path><path clip-path="url(#clip230)" d="M33.8307 510.359 Q33.2578 511.345 33.0032 512.523 Q32.7167 513.669 32.7167 515.069 Q32.7167 520.035 35.9632 522.708 Q39.1779 525.35 45.2253 525.35 L64.0042 525.35 L64.0042 531.238 L28.3562 531.238 L28.3562 525.35 L33.8944 525.35 Q30.6479 523.504 29.0883 520.544 Q27.4968 517.584 27.4968 513.351 Q27.4968 512.746 27.5923 512.014 Q27.656 511.282 27.8151 510.39 L33.8307 510.359 Z" fill="#000000" fill-rule="nonzero" fill-opacity="1"></path><path clip-path="url(#clip230)" d="M32.4621 491.834 Q32.4621 496.545 36.1542 499.282 Q39.8145 502.02 46.212 502.02 Q52.6095 502.02 56.3017 499.314 Q59.9619 496.577 59.9619 491.834 Q59.9619 487.156 56.2698 484.418 Q52.5777 481.681 46.212 481.681 Q39.8781 481.681 36.186 484.418 Q32.4621 487.156 32.4621 491.834 M27.4968 491.834 Q27.4968 484.196 32.4621 479.835 Q37.4273 475.475 46.212 475.475 Q54.9649 475.475 59.9619 479.835 Q64.9272 484.196 64.9272 491.834 Q64.9272 499.505 59.9619 503.866 Q54.9649 508.194 46.212 508.194 Q37.4273 508.194 32.4621 503.866 Q27.4968 499.505 27.4968 491.834 Z" fill="#000000" fill-rule="nonzero" fill-opacity="1"></path><path clip-path="url(#clip230)" d="M33.8307 445.11 Q33.2578 446.097 33.0032 447.274 Q32.7167 448.42 32.7167 449.821 Q32.7167 454.786 35.9632 457.46 Q39.1779 460.101 45.2253 460.101 L64.0042 460.101 L64.0042 465.99 L28.3562 465.99 L28.3562 460.101 L33.8944 460.101 Q30.6479 458.255 29.0883 455.295 Q27.4968 452.335 27.4968 448.102 Q27.4968 447.497 27.5923 446.765 Q27.656 446.033 27.8151 445.142 L33.8307 445.11 Z" fill="#000000" fill-rule="nonzero" fill-opacity="1"></path><path clip-path="url(#clip230)" d="M512.467 72.576 L489.377 12.096 L497.924 12.096 L517.085 63.0159 L536.286 12.096 L544.793 12.096 L521.743 72.576 L512.467 72.576 Z" fill="#000000" fill-rule="nonzero" fill-opacity="1"></path><path clip-path="url(#clip230)" d="M567.478 49.7694 Q558.445 49.7694 554.961 51.8354 Q551.477 53.9013 551.477 58.8839 Q551.477 62.8538 554.07 65.2034 Q556.703 67.5124 561.199 67.5124 Q567.397 67.5124 571.124 63.1374 Q574.891 58.7219 574.891 51.4303 L574.891 49.7694 L567.478 49.7694 M582.345 46.6907 L582.345 72.576 L574.891 72.576 L574.891 65.6895 Q572.339 69.8214 568.531 71.8063 Q564.724 73.7508 559.214 73.7508 Q552.247 73.7508 548.115 69.8619 Q544.023 65.9325 544.023 59.3701 Q544.023 51.7138 549.128 47.825 Q554.272 43.9361 564.44 43.9361 L574.891 43.9361 L574.891 43.2069 Q574.891 38.0623 571.489 35.2672 Q568.126 32.4315 562.009 32.4315 Q558.121 32.4315 554.434 33.3632 Q550.748 34.295 547.345 36.1584 L547.345 29.2718 Q551.437 27.692 555.285 26.9223 Q559.133 26.1121 562.779 26.1121 Q572.623 26.1121 577.484 31.2163 Q582.345 36.3204 582.345 46.6907 Z" fill="#000000" fill-rule="nonzero" fill-opacity="1"></path><path clip-path="url(#clip230)" d="M623.988 34.1734 Q622.732 33.4443 621.234 33.1202 Q619.775 32.7556 617.993 32.7556 Q611.673 32.7556 608.271 36.8875 Q604.908 40.9789 604.908 48.6757 L604.908 72.576 L597.414 72.576 L597.414 27.2059 L604.908 27.2059 L604.908 34.2544 Q607.258 30.1225 611.025 28.1376 Q614.793 26.1121 620.18 26.1121 Q620.95 26.1121 621.882 26.2337 Q622.813 26.3147 623.948 26.5172 L623.988 34.1734 Z" fill="#000000" fill-rule="nonzero" fill-opacity="1"></path><path clip-path="url(#clip230)" d="M631.806 27.2059 L639.26 27.2059 L639.26 72.576 L631.806 72.576 L631.806 27.2059 M631.806 9.54393 L639.26 9.54393 L639.26 18.9825 L631.806 18.9825 L631.806 9.54393 Z" fill="#000000" fill-rule="nonzero" fill-opacity="1"></path><path clip-path="url(#clip230)" d="M675.475 49.7694 Q666.442 49.7694 662.958 51.8354 Q659.474 53.9013 659.474 58.8839 Q659.474 62.8538 662.067 65.2034 Q664.7 67.5124 669.196 67.5124 Q675.394 67.5124 679.121 63.1374 Q682.888 58.7219 682.888 51.4303 L682.888 49.7694 L675.475 49.7694 M690.342 46.6907 L690.342 72.576 L682.888 72.576 L682.888 65.6895 Q680.336 69.8214 676.528 71.8063 Q672.721 73.7508 667.211 73.7508 Q660.244 73.7508 656.112 69.8619 Q652.021 65.9325 652.021 59.3701 Q652.021 51.7138 657.125 47.825 Q662.269 43.9361 672.437 43.9361 L682.888 43.9361 L682.888 43.2069 Q682.888 38.0623 679.486 35.2672 Q676.123 32.4315 670.007 32.4315 Q666.118 32.4315 662.431 33.3632 Q658.745 34.295 655.342 36.1584 L655.342 29.2718 Q659.434 27.692 663.282 26.9223 Q667.13 26.1121 670.776 26.1121 Q680.62 26.1121 685.481 31.2163 Q690.342 36.3204 690.342 46.6907 Z" fill="#000000" fill-rule="nonzero" fill-opacity="1"></path><path clip-path="url(#clip230)" d="M713.068 14.324 L713.068 27.2059 L728.421 27.2059 L728.421 32.9987 L713.068 32.9987 L713.068 57.6282 Q713.068 63.1779 714.566 64.7578 Q716.106 66.3376 720.764 66.3376 L728.421 66.3376 L728.421 72.576 L720.764 72.576 Q712.136 72.576 708.855 69.3758 Q705.573 66.1351 705.573 57.6282 L705.573 32.9987 L700.105 32.9987 L700.105 27.2059 L705.573 27.2059 L705.573 14.324 L713.068 14.324 Z" fill="#000000" fill-rule="nonzero" fill-opacity="1"></path><path clip-path="url(#clip230)" d="M738.224 27.2059 L745.677 27.2059 L745.677 72.576 L738.224 72.576 L738.224 27.2059 M738.224 9.54393 L745.677 9.54393 L745.677 18.9825 L738.224 18.9825 L738.224 9.54393 Z" fill="#000000" fill-rule="nonzero" fill-opacity="1"></path><path clip-path="url(#clip230)" d="M778.854 32.4315 Q772.859 32.4315 769.375 37.1306 Q765.891 41.7891 765.891 49.9314 Q765.891 58.0738 769.335 62.7728 Q772.818 67.4314 778.854 67.4314 Q784.809 67.4314 788.293 62.7323 Q791.777 58.0333 791.777 49.9314 Q791.777 41.8701 788.293 37.1711 Q784.809 32.4315 778.854 32.4315 M778.854 26.1121 Q788.576 26.1121 794.126 32.4315 Q799.676 38.7509 799.676 49.9314 Q799.676 61.0714 794.126 67.4314 Q788.576 73.7508 778.854 73.7508 Q769.092 73.7508 763.542 67.4314 Q758.033 61.0714 758.033 49.9314 Q758.033 38.7509 763.542 32.4315 Q769.092 26.1121 778.854 26.1121 Z" fill="#000000" fill-rule="nonzero" fill-opacity="1"></path><path clip-path="url(#clip230)" d="M849.745 45.1919 L849.745 72.576 L842.291 72.576 L842.291 45.4349 Q842.291 38.994 839.78 35.7938 Q837.268 32.5936 832.245 32.5936 Q826.209 32.5936 822.726 36.4419 Q819.242 40.2903 819.242 46.9338 L819.242 72.576 L811.748 72.576 L811.748 27.2059 L819.242 27.2059 L819.242 34.2544 Q821.915 30.163 825.521 28.1376 Q829.167 26.1121 833.906 26.1121 Q841.724 26.1121 845.735 30.9732 Q849.745 35.7938 849.745 45.1919 Z" fill="#000000" fill-rule="nonzero" fill-opacity="1"></path><path clip-path="url(#clip230)" d="M908.564 32.4315 Q902.569 32.4315 899.085 37.1306 Q895.601 41.7891 895.601 49.9314 Q895.601 58.0738 899.045 62.7728 Q902.528 67.4314 908.564 67.4314 Q914.519 67.4314 918.003 62.7323 Q921.487 58.0333 921.487 49.9314 Q921.487 41.8701 918.003 37.1711 Q914.519 32.4315 908.564 32.4315 M908.564 26.1121 Q918.286 26.1121 923.836 32.4315 Q929.386 38.7509 929.386 49.9314 Q929.386 61.0714 923.836 67.4314 Q918.286 73.7508 908.564 73.7508 Q898.802 73.7508 893.252 67.4314 Q887.743 61.0714 887.743 49.9314 Q887.743 38.7509 893.252 32.4315 Q898.802 26.1121 908.564 26.1121 Z" fill="#000000" fill-rule="nonzero" fill-opacity="1"></path><path clip-path="url(#clip230)" d="M964.71 9.54393 L964.71 15.7418 L957.58 15.7418 Q953.57 15.7418 951.99 17.3622 Q950.451 18.9825 950.451 23.1955 L950.451 27.2059 L962.725 27.2059 L962.725 32.9987 L950.451 32.9987 L950.451 72.576 L942.956 72.576 L942.956 32.9987 L935.827 32.9987 L935.827 27.2059 L942.956 27.2059 L942.956 24.0462 Q942.956 16.471 946.481 13.0277 Q950.005 9.54393 957.661 9.54393 L964.71 9.54393 Z" fill="#000000" fill-rule="nonzero" fill-opacity="1"></path><path clip-path="url(#clip230)" d="M1013.24 72.576 L990.149 12.096 L998.697 12.096 L1017.86 63.0159 L1037.06 12.096 L1045.57 12.096 L1022.52 72.576 L1013.24 72.576 Z" fill="#000000" fill-rule="nonzero" fill-opacity="1"></path><path clip-path="url(#clip230)" d="M1068.25 49.7694 Q1059.22 49.7694 1055.73 51.8354 Q1052.25 53.9013 1052.25 58.8839 Q1052.25 62.8538 1054.84 65.2034 Q1057.48 67.5124 1061.97 67.5124 Q1068.17 67.5124 1071.9 63.1374 Q1075.66 58.7219 1075.66 51.4303 L1075.66 49.7694 L1068.25 49.7694 M1083.12 46.6907 L1083.12 72.576 L1075.66 72.576 L1075.66 65.6895 Q1073.11 69.8214 1069.3 71.8063 Q1065.5 73.7508 1059.99 73.7508 Q1053.02 73.7508 1048.89 69.8619 Q1044.8 65.9325 1044.8 59.3701 Q1044.8 51.7138 1049.9 47.825 Q1055.04 43.9361 1065.21 43.9361 L1075.66 43.9361 L1075.66 43.2069 Q1075.66 38.0623 1072.26 35.2672 Q1068.9 32.4315 1062.78 32.4315 Q1058.89 32.4315 1055.21 33.3632 Q1051.52 34.295 1048.12 36.1584 L1048.12 29.2718 Q1052.21 27.692 1056.06 26.9223 Q1059.91 26.1121 1063.55 26.1121 Q1073.4 26.1121 1078.26 31.2163 Q1083.12 36.3204 1083.12 46.6907 Z" fill="#000000" fill-rule="nonzero" fill-opacity="1"></path><path clip-path="url(#clip230)" d="M1098.47 9.54393 L1105.92 9.54393 L1105.92 72.576 L1098.47 72.576 L1098.47 9.54393 Z" fill="#000000" fill-rule="nonzero" fill-opacity="1"></path><path clip-path="url(#clip230)" d="M1121.52 27.2059 L1128.97 27.2059 L1128.97 72.576 L1121.52 72.576 L1121.52 27.2059 M1121.52 9.54393 L1128.97 9.54393 L1128.97 18.9825 L1121.52 18.9825 L1121.52 9.54393 Z" fill="#000000" fill-rule="nonzero" fill-opacity="1"></path><path clip-path="url(#clip230)" d="M1174.43 34.0924 L1174.43 9.54393 L1181.88 9.54393 L1181.88 72.576 L1174.43 72.576 L1174.43 65.7705 Q1172.08 69.8214 1168.47 71.8063 Q1164.91 73.7508 1159.88 73.7508 Q1151.66 73.7508 1146.47 67.1883 Q1141.33 60.6258 1141.33 49.9314 Q1141.33 39.2371 1146.47 32.6746 Q1151.66 26.1121 1159.88 26.1121 Q1164.91 26.1121 1168.47 28.0971 Q1172.08 30.0415 1174.43 34.0924 M1149.03 49.9314 Q1149.03 58.1548 1152.39 62.8538 Q1155.79 67.5124 1161.71 67.5124 Q1167.62 67.5124 1171.02 62.8538 Q1174.43 58.1548 1174.43 49.9314 Q1174.43 41.7081 1171.02 37.0496 Q1167.62 32.3505 1161.71 32.3505 Q1155.79 32.3505 1152.39 37.0496 Q1149.03 41.7081 1149.03 49.9314 Z" fill="#000000" fill-rule="nonzero" fill-opacity="1"></path><path clip-path="url(#clip230)" d="M1217.85 49.7694 Q1208.82 49.7694 1205.33 51.8354 Q1201.85 53.9013 1201.85 58.8839 Q1201.85 62.8538 1204.44 65.2034 Q1207.08 67.5124 1211.57 67.5124 Q1217.77 67.5124 1221.5 63.1374 Q1225.26 58.7219 1225.26 51.4303 L1225.26 49.7694 L1217.85 49.7694 M1232.72 46.6907 L1232.72 72.576 L1225.26 72.576 L1225.26 65.6895 Q1222.71 69.8214 1218.9 71.8063 Q1215.1 73.7508 1209.59 73.7508 Q1202.62 73.7508 1198.49 69.8619 Q1194.4 65.9325 1194.4 59.3701 Q1194.4 51.7138 1199.5 47.825 Q1204.64 43.9361 1214.81 43.9361 L1225.26 43.9361 L1225.26 43.2069 Q1225.26 38.0623 1221.86 35.2672 Q1218.5 32.4315 1212.38 32.4315 Q1208.49 32.4315 1204.81 33.3632 Q1201.12 34.295 1197.72 36.1584 L1197.72 29.2718 Q1201.81 27.692 1205.66 26.9223 Q1209.51 26.1121 1213.15 26.1121 Q1223 26.1121 1227.86 31.2163 Q1232.72 36.3204 1232.72 46.6907 Z" fill="#000000" fill-rule="nonzero" fill-opacity="1"></path><path clip-path="url(#clip230)" d="M1255.44 14.324 L1255.44 27.2059 L1270.8 27.2059 L1270.8 32.9987 L1255.44 32.9987 L1255.44 57.6282 Q1255.44 63.1779 1256.94 64.7578 Q1258.48 66.3376 1263.14 66.3376 L1270.8 66.3376 L1270.8 72.576 L1263.14 72.576 Q1254.51 72.576 1251.23 69.3758 Q1247.95 66.1351 1247.95 57.6282 L1247.95 32.9987 L1242.48 32.9987 L1242.48 27.2059 L1247.95 27.2059 L1247.95 14.324 L1255.44 14.324 Z" fill="#000000" fill-rule="nonzero" fill-opacity="1"></path><path clip-path="url(#clip230)" d="M1280.6 27.2059 L1288.05 27.2059 L1288.05 72.576 L1280.6 72.576 L1280.6 27.2059 M1280.6 9.54393 L1288.05 9.54393 L1288.05 18.9825 L1280.6 18.9825 L1280.6 9.54393 Z" fill="#000000" fill-rule="nonzero" fill-opacity="1"></path><path clip-path="url(#clip230)" d="M1321.23 32.4315 Q1315.23 32.4315 1311.75 37.1306 Q1308.27 41.7891 1308.27 49.9314 Q1308.27 58.0738 1311.71 62.7728 Q1315.19 67.4314 1321.23 67.4314 Q1327.18 67.4314 1330.67 62.7323 Q1334.15 58.0333 1334.15 49.9314 Q1334.15 41.8701 1330.67 37.1711 Q1327.18 32.4315 1321.23 32.4315 M1321.23 26.1121 Q1330.95 26.1121 1336.5 32.4315 Q1342.05 38.7509 1342.05 49.9314 Q1342.05 61.0714 1336.5 67.4314 Q1330.95 73.7508 1321.23 73.7508 Q1311.47 73.7508 1305.92 67.4314 Q1300.41 61.0714 1300.41 49.9314 Q1300.41 38.7509 1305.92 32.4315 Q1311.47 26.1121 1321.23 26.1121 Z" fill="#000000" fill-rule="nonzero" fill-opacity="1"></path><path clip-path="url(#clip230)" d="M1392.12 45.1919 L1392.12 72.576 L1384.67 72.576 L1384.67 45.4349 Q1384.67 38.994 1382.16 35.7938 Q1379.64 32.5936 1374.62 32.5936 Q1368.58 32.5936 1365.1 36.4419 Q1361.62 40.2903 1361.62 46.9338 L1361.62 72.576 L1354.12 72.576 L1354.12 27.2059 L1361.62 27.2059 L1361.62 34.2544 Q1364.29 30.163 1367.9 28.1376 Q1371.54 26.1121 1376.28 26.1121 Q1384.1 26.1121 1388.11 30.9732 Q1392.12 35.7938 1392.12 45.1919 Z" fill="#000000" fill-rule="nonzero" fill-opacity="1"></path><path clip-path="url(#clip230)" d="M1433.68 12.096 L1441.87 12.096 L1441.87 65.6895 L1471.32 65.6895 L1471.32 72.576 L1433.68 72.576 L1433.68 12.096 Z" fill="#000000" fill-rule="nonzero" fill-opacity="1"></path><path clip-path="url(#clip230)" d="M1495.7 32.4315 Q1489.71 32.4315 1486.22 37.1306 Q1482.74 41.7891 1482.74 49.9314 Q1482.74 58.0738 1486.18 62.7728 Q1489.67 67.4314 1495.7 67.4314 Q1501.66 67.4314 1505.14 62.7323 Q1508.62 58.0333 1508.62 49.9314 Q1508.62 41.8701 1505.14 37.1711 Q1501.66 32.4315 1495.7 32.4315 M1495.7 26.1121 Q1505.42 26.1121 1510.97 32.4315 Q1516.52 38.7509 1516.52 49.9314 Q1516.52 61.0714 1510.97 67.4314 Q1505.42 73.7508 1495.7 73.7508 Q1485.94 73.7508 1480.39 67.4314 Q1474.88 61.0714 1474.88 49.9314 Q1474.88 38.7509 1480.39 32.4315 Q1485.94 26.1121 1495.7 26.1121 Z" fill="#000000" fill-rule="nonzero" fill-opacity="1"></path><path clip-path="url(#clip230)" d="M1557.8 28.5427 L1557.8 35.5912 Q1554.64 33.9709 1551.24 33.1607 Q1547.84 32.3505 1544.19 32.3505 Q1538.64 32.3505 1535.85 34.0519 Q1533.09 35.7533 1533.09 39.156 Q1533.09 41.7486 1535.08 43.2475 Q1537.06 44.7058 1543.06 46.0426 L1545.61 46.6097 Q1553.55 48.3111 1556.87 51.4303 Q1560.23 54.509 1560.23 60.0587 Q1560.23 66.3781 1555.21 70.0644 Q1550.23 73.7508 1541.48 73.7508 Q1537.83 73.7508 1533.86 73.0216 Q1529.93 72.3329 1525.56 70.9151 L1525.56 63.2184 Q1529.69 65.3654 1533.7 66.4591 Q1537.71 67.5124 1541.64 67.5124 Q1546.91 67.5124 1549.74 65.73 Q1552.58 63.9071 1552.58 60.6258 Q1552.58 57.5877 1550.51 55.9673 Q1548.49 54.3469 1541.56 52.8481 L1538.97 52.2405 Q1532.04 50.7821 1528.96 47.7845 Q1525.88 44.7463 1525.88 39.4801 Q1525.88 33.0797 1530.42 29.5959 Q1534.96 26.1121 1543.3 26.1121 Q1547.43 26.1121 1551.08 26.7198 Q1554.72 27.3274 1557.8 28.5427 Z" fill="#000000" fill-rule="nonzero" fill-opacity="1"></path><path clip-path="url(#clip230)" d="M1601.03 28.5427 L1601.03 35.5912 Q1597.87 33.9709 1594.46 33.1607 Q1591.06 32.3505 1587.41 32.3505 Q1581.87 32.3505 1579.07 34.0519 Q1576.32 35.7533 1576.32 39.156 Q1576.32 41.7486 1578.3 43.2475 Q1580.29 44.7058 1586.28 46.0426 L1588.83 46.6097 Q1596.77 48.3111 1600.09 51.4303 Q1603.46 54.509 1603.46 60.0587 Q1603.46 66.3781 1598.43 70.0644 Q1593.45 73.7508 1584.7 73.7508 Q1581.05 73.7508 1577.08 73.0216 Q1573.16 72.3329 1568.78 70.9151 L1568.78 63.2184 Q1572.91 65.3654 1576.92 66.4591 Q1580.93 67.5124 1584.86 67.5124 Q1590.13 67.5124 1592.96 65.73 Q1595.8 63.9071 1595.8 60.6258 Q1595.8 57.5877 1593.73 55.9673 Q1591.71 54.3469 1584.78 52.8481 L1582.19 52.2405 Q1575.26 50.7821 1572.18 47.7845 Q1569.1 44.7463 1569.1 39.4801 Q1569.1 33.0797 1573.64 29.5959 Q1578.18 26.1121 1586.52 26.1121 Q1590.66 26.1121 1594.3 26.7198 Q1597.95 27.3274 1601.03 28.5427 Z" fill="#000000" fill-rule="nonzero" fill-opacity="1"></path><path clip-path="url(#clip230)" d="M1637.36 27.2059 L1644.82 27.2059 L1654.13 62.6108 L1663.41 27.2059 L1672.2 27.2059 L1681.52 62.6108 L1690.79 27.2059 L1698.25 27.2059 L1686.38 72.576 L1677.59 72.576 L1667.83 35.3887 L1658.02 72.576 L1649.23 72.576 L1637.36 27.2059 Z" fill="#000000" fill-rule="nonzero" fill-opacity="1"></path><path clip-path="url(#clip230)" d="M1709.55 27.2059 L1717 27.2059 L1717 72.576 L1709.55 72.576 L1709.55 27.2059 M1709.55 9.54393 L1717 9.54393 L1717 18.9825 L1709.55 18.9825 L1709.55 9.54393 Z" fill="#000000" fill-rule="nonzero" fill-opacity="1"></path><path clip-path="url(#clip230)" d="M1739.97 14.324 L1739.97 27.2059 L1755.32 27.2059 L1755.32 32.9987 L1739.97 32.9987 L1739.97 57.6282 Q1739.97 63.1779 1741.47 64.7578 Q1743.01 66.3376 1747.67 66.3376 L1755.32 66.3376 L1755.32 72.576 L1747.67 72.576 Q1739.04 72.576 1735.76 69.3758 Q1732.48 66.1351 1732.48 57.6282 L1732.48 32.9987 L1727.01 32.9987 L1727.01 27.2059 L1732.48 27.2059 L1732.48 14.324 L1739.97 14.324 Z" fill="#000000" fill-rule="nonzero" fill-opacity="1"></path><path clip-path="url(#clip230)" d="M1802.84 45.1919 L1802.84 72.576 L1795.39 72.576 L1795.39 45.4349 Q1795.39 38.994 1792.88 35.7938 Q1790.37 32.5936 1785.34 32.5936 Q1779.31 32.5936 1775.82 36.4419 Q1772.34 40.2903 1772.34 46.9338 L1772.34 72.576 L1764.84 72.576 L1764.84 9.54393 L1772.34 9.54393 L1772.34 34.2544 Q1775.01 30.163 1778.62 28.1376 Q1782.26 26.1121 1787 26.1121 Q1794.82 26.1121 1798.83 30.9732 Q1802.84 35.7938 1802.84 45.1919 Z" fill="#000000" fill-rule="nonzero" fill-opacity="1"></path><path clip-path="url(#clip230)" d="M1844.4 12.096 L1882.64 12.096 L1882.64 18.9825 L1852.59 18.9825 L1852.59 36.8875 L1881.39 36.8875 L1881.39 43.7741 L1852.59 43.7741 L1852.59 65.6895 L1883.37 65.6895 L1883.37 72.576 L1844.4 72.576 L1844.4 12.096 Z" fill="#000000" fill-rule="nonzero" fill-opacity="1"></path><path clip-path="url(#clip230)" d="M1903.71 65.7705 L1903.71 89.8329 L1896.22 89.8329 L1896.22 27.2059 L1903.71 27.2059 L1903.71 34.0924 Q1906.06 30.0415 1909.62 28.0971 Q1913.23 26.1121 1918.21 26.1121 Q1926.48 26.1121 1931.62 32.6746 Q1936.81 39.2371 1936.81 49.9314 Q1936.81 60.6258 1931.62 67.1883 Q1926.48 73.7508 1918.21 73.7508 Q1913.23 73.7508 1909.62 71.8063 Q1906.06 69.8214 1903.71 65.7705 M1929.07 49.9314 Q1929.07 41.7081 1925.67 37.0496 Q1922.3 32.3505 1916.39 32.3505 Q1910.47 32.3505 1907.07 37.0496 Q1903.71 41.7081 1903.71 49.9314 Q1903.71 58.1548 1907.07 62.8538 Q1910.47 67.5124 1916.39 67.5124 Q1922.3 67.5124 1925.67 62.8538 Q1929.07 58.1548 1929.07 49.9314 Z" fill="#000000" fill-rule="nonzero" fill-opacity="1"></path><path clip-path="url(#clip230)" d="M1966.74 32.4315 Q1960.75 32.4315 1957.26 37.1306 Q1953.78 41.7891 1953.78 49.9314 Q1953.78 58.0738 1957.22 62.7728 Q1960.71 67.4314 1966.74 67.4314 Q1972.7 67.4314 1976.18 62.7323 Q1979.66 58.0333 1979.66 49.9314 Q1979.66 41.8701 1976.18 37.1711 Q1972.7 32.4315 1966.74 32.4315 M1966.74 26.1121 Q1976.46 26.1121 1982.01 32.4315 Q1987.56 38.7509 1987.56 49.9314 Q1987.56 61.0714 1982.01 67.4314 Q1976.46 73.7508 1966.74 73.7508 Q1956.98 73.7508 1951.43 67.4314 Q1945.92 61.0714 1945.92 49.9314 Q1945.92 38.7509 1951.43 32.4315 Q1956.98 26.1121 1966.74 26.1121 Z" fill="#000000" fill-rule="nonzero" fill-opacity="1"></path><path clip-path="url(#clip230)" d="M2032.57 28.9478 L2032.57 35.9153 Q2029.41 34.1734 2026.21 33.3227 Q2023.05 32.4315 2019.81 32.4315 Q2012.56 32.4315 2008.55 37.0496 Q2004.54 41.6271 2004.54 49.9314 Q2004.54 58.2358 2008.55 62.8538 Q2012.56 67.4314 2019.81 67.4314 Q2023.05 67.4314 2026.21 66.5807 Q2029.41 65.6895 2032.57 63.9476 L2032.57 70.8341 Q2029.45 72.2924 2026.09 73.0216 Q2022.77 73.7508 2019 73.7508 Q2008.75 73.7508 2002.71 67.3098 Q1996.68 60.8689 1996.68 49.9314 Q1996.68 38.832 2002.75 32.472 Q2008.87 26.1121 2019.48 26.1121 Q2022.93 26.1121 2026.21 26.8413 Q2029.49 27.5299 2032.57 28.9478 Z" fill="#000000" fill-rule="nonzero" fill-opacity="1"></path><path clip-path="url(#clip230)" d="M2083.25 45.1919 L2083.25 72.576 L2075.79 72.576 L2075.79 45.4349 Q2075.79 38.994 2073.28 35.7938 Q2070.77 32.5936 2065.75 32.5936 Q2059.71 32.5936 2056.23 36.4419 Q2052.74 40.2903 2052.74 46.9338 L2052.74 72.576 L2045.25 72.576 L2045.25 9.54393 L2052.74 9.54393 L2052.74 34.2544 Q2055.42 30.163 2059.02 28.1376 Q2062.67 26.1121 2067.41 26.1121 Q2075.22 26.1121 2079.24 30.9732 Q2083.25 35.7938 2083.25 45.1919 Z" fill="#000000" fill-rule="nonzero" fill-opacity="1"></path><polyline clip-path="url(#clip232)" style="stroke:#009af9; stroke-linecap:round; stroke-linejoin:round; stroke-width:4; stroke-opacity:1; fill:none" points="280.231,160.256 282.208,314.236 284.184,368.273 286.161,366.808 288.137,352.893 290.114,338.987 292.091,331.791 294.067,331.326 296.044,336.559 298.02,346.564 299.997,360.66 301.973,378.094 303.95,397.828 305.927,417.676 307.903,433.472 309.88,442.391 311.856,442.249 313.833,435.437 315.81,428.773 317.786,430.423 319.763,442.316 321.739,461.055 323.716,479.183 325.692,492.37 327.669,498.934 329.646,501.317 331.622,503.196 333.599,507.783 335.575,515.725 337.552,526.081 339.529,536.263 341.505,542.882 343.482,543.761 345.458,542.947 347.435,547.916 349.411,558.743 351.388,567.569 353.365,571.209 355.341,573.435 357.318,576.891 359.294,582.171 361.271,588.211 363.247,592.874 365.224,594.215 367.201,595.257 369.177,599.149 371.154,604.429 373.13,608.558 375.107,611.514 377.084,614.295 379.06,617.636 381.037,621.078 383.013,623.765 384.99,625.787 386.966,627.827 388.943,630.882 390.92,634.538 392.896,637.951 394.873,640.868 396.849,643.633 398.826,646.494 400.803,649.367 402.779,651.95 404.756,654.334 406.732,656.773 408.709,659.604 410.685,662.729 412.662,665.961 414.639,669.031 416.615,671.965 418.592,674.842 420.568,677.67 422.545,680.413 424.522,682.997 426.498,685.659 428.475,688.509 430.451,691.648 432.428,695.01 434.404,698.478 436.381,701.891 438.358,705.237 440.334,708.506 442.311,711.701 444.287,714.843 446.264,718.007 448.241,721.297 450.217,724.762 452.194,728.31 454.17,731.804 456.147,735.2 458.123,738.502 460.1,741.738 462.077,744.965 464.053,748.267 466.03,751.675 468.006,755.213 469.983,758.799 471.959,762.376 473.936,765.898 475.913,769.36 477.889,772.749 479.866,776.169 481.842,779.682 483.819,783.322 485.796,787.085 487.772,790.919 489.749,794.747 491.725,798.543 493.702,802.333 495.678,806.091 497.655,809.934 499.632,813.956 501.608,818.12 503.585,822.295 505.561,826.4 507.538,830.424 509.515,834.405 511.491,838.471 513.468,842.717 515.444,847.079 517.421,851.478 519.397,855.856 521.374,860.199 523.351,864.512 525.327,868.887 527.304,873.384 529.28,877.953 531.257,882.49 533.234,887.01 535.21,891.519 537.187,896.094 539.163,900.787 541.14,905.584 543.116,910.4 545.093,915.194 547.07,919.972 549.046,924.838 551.023,929.793 552.999,934.799 554.976,939.755 556.952,944.649 558.929,949.476 560.906,954.328 562.882,959.3 564.859,964.325 566.835,969.294 568.812,974.246 570.789,979.19 572.765,984.212 574.742,989.254 576.718,994.167 578.695,998.926 580.671,1003.57 582.648,1008.23 584.625,1012.85 586.601,1017.25 588.578,1021.53 590.554,1025.82 592.531,1030.16 594.508,1034.33 596.484,1038.33 598.461,1042.39 600.437,1046.37 602.414,1050.06 604.39,1053.54 606.367,1057.05 608.344,1060.33 610.32,1063.38 612.297,1066.39 614.273,1069.35 616.25,1072.07 618.227,1074.54 620.203,1077.02 622.18,1079.25 624.156,1081.32 626.133,1083.27 628.109,1085.25 630.086,1087 632.063,1088.54 634.039,1090.31 636.016,1091.82 637.992,1093.18 639.969,1094.54 641.945,1095.83 643.922,1096.97 645.899,1097.95 647.875,1099.21 649.852,1100.19 651.828,1100.99 653.805,1102.01 655.782,1102.92 657.758,1103.64 659.735,1104.35 661.711,1105.39 663.688,1106.17 665.664,1106.67 667.641,1107.69 669.618,1108.6 671.594,1109.22 673.571,1109.94 675.547,1110.93 677.524,1111.62 679.501,1112.22 681.477,1113.27 683.454,1114.07 685.43,1114.7 687.407,1115.53 689.383,1116.36 691.36,1117.02 693.337,1117.83 695.313,1118.66 697.29,1119.31 699.266,1119.94 701.243,1120.77 703.22,1121.54 705.196,1122.25 707.173,1123.01 709.149,1123.86 711.126,1124.63 713.102,1125.33 715.079,1126.11 717.056,1126.91 719.032,1127.57 721.009,1128.35 722.985,1129.17 724.962,1129.88 726.939,1130.65 728.915,1131.45 730.892,1132.17 732.868,1132.85 734.845,1133.7 736.821,1134.39 738.798,1135.03 740.775,1135.93 742.751,1136.6 744.728,1137.21 746.704,1138.14 748.681,1138.78 750.657,1139.43 752.634,1140.35 754.611,1141.04 756.587,1141.68 758.564,1142.62 760.54,1143.29 762.517,1143.96 764.494,1144.91 766.47,1145.58 768.447,1146.33 770.423,1147.33 772.4,1148.11 774.376,1148.87 776.353,1149.92 778.33,1150.7 780.306,1151.59 782.283,1152.58 784.259,1153.35 786.236,1154.31 788.213,1155.06 790.189,1156 792.166,1156.71 794.142,1157.62 796.119,1158.43 798.095,1159.19 800.072,1160.14 802.049,1160.69 804.025,1161.78 806.002,1162.49 807.978,1163.3 809.955,1164.26 811.932,1164.66 813.908,1165.94 815.885,1166.55 817.861,1167.55 819.838,1168.39 821.814,1169.07 823.791,1170.08 825.768,1170.72 827.744,1171.76 829.721,1172.23 831.697,1173.41 833.674,1173.19 835.65,1174.69 837.627,1174.62 839.604,1176.67 841.58,1177.42 843.557,1177.74 845.533,1178.94 847.51,1179 849.487,1180.7 851.463,1181.47 853.44,1181.63 855.416,1182.93 857.393,1183.17 859.369,1184.72 861.346,1185.52 863.323,1185.72 865.299,1187.12 867.276,1187.65 869.252,1188.51 871.229,1189.6 873.206,1189.94 875.182,1191.16 877.159,1191.94 879.135,1192.53 881.112,1193.61 883.088,1194.26 885.065,1195.1 887.042,1196.05 889.018,1196.57 890.995,1197.71 892.971,1198.36 894.948,1199.35 896.925,1200.13 898.901,1200.99 900.878,1201.88 902.854,1202.67 904.831,1203.64 906.807,1204.4 908.784,1205.36 910.761,1206.25 912.737,1207.06 914.714,1208.07 916.69,1208.92 918.667,1209.84 920.643,1210.79 922.62,1211.65 924.597,1212.62 926.573,1213.54 928.55,1214.46 930.526,1215.45 932.503,1216.27 934.48,1217.36 936.456,1218.01 938.433,1219.24 940.409,1220.02 942.386,1221.08 944.362,1222.06 946.339,1222.85 948.316,1224.01 950.292,1224.76 952.269,1225.94 954.245,1226.77 956.222,1227.86 958.199,1228.6 960.175,1229.75 962.152,1230.36 964.128,1231.55 966.105,1232 968.081,1233.43 970.058,1234.08 972.035,1235.54 974.011,1236.42 975.988,1237.54 977.964,1238.53 979.941,1239.51 981.918,1240.55 983.894,1241.3 985.871,1242.42 987.847,1242.91 989.824,1243.93 991.8,1244.14 993.777,1245.1 995.754,1245.17 997.73,1247.6 999.707,1249.12 1001.68,1250.25 1003.66,1250.77 1005.64,1250.94 1007.61,1252.7 1009.59,1254.14 1011.57,1255.42 1013.54,1256.23 1015.52,1256.46 1017.5,1257.75 1019.47,1258.98 1021.45,1260.55 1023.43,1261.5 1025.4,1261.81 1027.38,1262.68 1029.36,1263.3 1031.33,1265.4 1033.31,1266.71 1035.29,1267.65 1037.26,1268.53 1039.24,1269.07 1041.21,1270.58 1043.19,1271.71 1045.17,1273 1047.14,1274.01 1049.12,1274.74 1051.1,1276 1053.07,1277.01 1055.05,1278.25 1057.03,1279.32 1059,1280.28 1060.98,1281.38 1062.96,1282.31 1064.93,1283.53 1066.91,1284.59 1068.89,1285.67 1070.86,1286.74 1072.84,1287.74 1074.82,1288.91 1076.79,1289.93 1078.77,1291.11 1080.75,1292.19 1082.72,1293.29 1084.7,1294.38 1086.68,1295.47 1088.65,1296.58 1090.63,1297.65 1092.61,1298.79 1094.58,1299.76 1096.56,1300.9 1098.54,1301.54 1100.51,1302.81 1102.49,1303.5 1104.47,1305.22 1106.44,1306.33 1108.42,1307.7 1110.4,1308.83 1112.37,1310.09 1114.35,1311.12 1116.33,1312.34 1118.3,1313.14 1120.28,1314.27 1122.25,1314.58 1124.23,1315.75 1126.21,1316.27 1128.18,1318.27 1130.16,1319.69 1132.14,1321.76 1134.11,1323.04 1136.09,1324.03 1138.07,1324.9 1140.04,1325.24 1142.02,1326.53 1144,1327.44 1145.97,1329.36 1147.95,1330.91 1149.93,1332.57 1151.9,1333.68 1153.88,1334.23 1155.86,1335.11 1157.83,1335.33 1159.81,1336.37 1161.79,1337.03 1163.76,1338.85 1165.74,1340.37 1167.72,1342.32 1169.69,1343.69 1171.67,1344.66 1173.65,1345.29 1175.62,1345.11 1177.6,1345.14 1179.58,1344.77 1181.55,1345.75 1183.53,1347.31 1185.51,1349.95 1187.48,1351.37 1189.46,1352.5 1191.44,1353.17 1193.41,1353.45 1195.39,1353.85 1197.36,1353.86 1199.34,1354.64 1201.32,1354.98 1203.29,1356.17 1205.27,1356.64 1207.25,1358.02 1209.22,1358.7 1211.2,1359.38 1213.18,1359.87 1215.15,1360.17 1217.13,1360.68 1219.11,1360.91 1221.08,1361.48 1223.06,1361.67 1225.04,1362.18 1227.01,1362.12 1228.99,1362.67 1230.97,1362.5 1232.94,1363.02 1234.92,1362.64 1236.9,1363.12 1238.87,1362.66 1240.85,1363.18 1242.83,1363.69 1244.8,1364.89 1246.78,1365.27 1248.76,1366.2 1250.73,1366.68 1252.71,1367.14 1254.69,1367.4 1256.66,1367.5 1258.64,1367.57 1260.62,1367.47 1262.59,1367.3 1264.57,1366.51 1266.55,1365.76 1268.52,1365.88 1270.5,1367.31 1272.48,1368.46 1274.45,1369.46 1276.43,1370.05 1278.4,1370.3 1280.38,1370.3 1282.36,1369.74 1284.33,1368.94 1286.31,1368.05 1288.29,1367.82 1290.26,1369.52 1292.24,1371.28 1294.22,1372 1296.19,1372.1 1298.17,1371.84 1300.15,1371.26 1302.12,1371.08 1304.1,1370.68 1306.08,1371.13 1308.05,1371.81 1310.03,1372.99 1312.01,1373.39 1313.98,1373.91 1315.96,1374.09 1317.94,1373.98 1319.91,1374.14 1321.89,1373.94 1323.87,1374.02 1325.84,1373.61 1327.82,1373.41 1329.8,1372.44 1331.77,1371.92 1333.75,1372.56 1335.73,1374.05 1337.7,1374.88 1339.68,1375.9 1341.66,1376.08 1343.63,1375.66 1345.61,1375.54 1347.59,1375.04 1349.56,1375.31 1351.54,1375.14 1353.51,1375.68 1355.49,1375.61 1357.47,1376.2 1359.44,1376.36 1361.42,1377.1 1363.4,1377.29 1365.37,1377.26 1367.35,1377.27 1369.33,1376.91 1371.3,1377.04 1373.28,1376.79 1375.26,1377.13 1377.23,1377.01 1379.21,1377.4 1381.19,1377.37 1383.16,1377.92 1385.14,1378.11 1387.12,1378.48 1389.09,1378.56 1391.07,1378.34 1393.05,1378.31 1395.02,1377.94 1397,1378 1398.98,1377.54 1400.95,1377.33 1402.93,1376.96 1404.91,1377.18 1406.88,1377.45 1408.86,1378.35 1410.84,1378.89 1412.81,1379.52 1414.79,1379.55 1416.77,1379.12 1418.74,1378.9 1420.72,1378.39 1422.7,1378.42 1424.67,1378.24 1426.65,1378.41 1428.62,1378.47 1430.6,1379.04 1432.58,1379.52 1434.55,1380.15 1436.53,1380.25 1438.51,1379.98 1440.48,1379.81 1442.46,1379.31 1444.44,1379.24 1446.41,1378.87 1448.39,1378.75 1450.37,1378.82 1452.34,1379.47 1454.32,1380.1 1456.3,1380.73 1458.27,1380.78 1460.25,1380.37 1462.23,1380.2 1464.2,1379.76 1466.18,1379.92 1468.16,1379.87 1470.13,1380.25 1472.11,1380.37 1474.09,1380.89 1476.06,1381.13 1478.04,1381.19 1480.02,1381.13 1481.99,1380.76 1483.97,1380.78 1485.95,1380.61 1487.92,1380.93 1489.9,1381.09 1491.88,1381.38 1493.85,1381.46 1495.83,1381.41 1497.81,1381.41 1499.78,1381.26 1501.76,1381.34 1503.74,1381.28 1505.71,1381.47 1507.69,1381.53 1509.66,1381.74 1511.64,1381.8 1513.62,1381.78 1515.59,1381.82 1517.57,1381.74 1519.55,1381.81 1521.52,1381.72 1523.5,1381.86 1525.48,1381.86 1527.45,1382.03 1529.43,1382.05 1531.41,1382.13 1533.38,1382.15 1535.36,1382.19 1537.34,1382.22 1539.31,1382.19 1541.29,1382.24 1543.27,1382.13 1545.24,1382.13 1547.22,1382 1549.2,1382.05 1551.17,1381.96 1553.15,1381.99 1555.13,1381.78 1557.1,1381.65 1559.08,1381.08 1561.06,1379.99 1563.03,1378.63 1565.01,1376.77 1566.99,1377.29 1568.96,1378.7 1570.94,1380.74 1572.92,1382.49 1574.89,1382.8 1576.87,1381.88 1578.85,1381.05 1580.82,1380.78 1582.8,1380.79 1584.77,1381.46 1586.75,1382.29 1588.73,1382.88 1590.7,1382.95 1592.68,1382.55 1594.66,1382.26 1596.63,1381.98 1598.61,1382.04 1600.59,1382.19 1602.56,1382.53 1604.54,1382.98 1606.52,1383.14 1608.49,1382.98 1610.47,1382.61 1612.45,1382.47 1614.42,1382.38 1616.4,1382.69 1618.38,1382.98 1620.35,1383.22 1622.33,1383.25 1624.31,1383.05 1626.28,1382.91 1628.26,1382.85 1630.24,1382.97 1632.21,1383.16 1634.19,1383.36 1636.17,1383.43 1638.14,1383.43 1640.12,1383.43 1642.1,1383.27 1644.07,1383.35 1646.05,1383.26 1648.03,1383.36 1650,1383.28 1651.98,1383.37 1653.96,1383.33 1655.93,1383.45 1657.91,1383.42 1659.89,1383.57 1661.86,1383.57 1663.84,1383.66 1665.81,1383.66 1667.79,1383.68 1669.77,1383.69 1671.74,1383.57 1673.72,1383.56 1675.7,1383.23 1677.67,1382.96 1679.65,1381.87 1681.63,1380.43 1683.6,1378.12 1685.58,1378.54 1687.56,1379.59 1689.53,1381.89 1691.51,1383.2 1693.49,1383.86 1695.46,1383.65 1697.44,1383 1699.42,1382.66 1701.39,1382.21 1703.37,1382.75 1705.35,1382.87 1707.32,1383.54 1709.3,1383.71 1711.28,1384.04 1713.25,1384.06 1715.23,1383.98 1717.21,1383.94 1719.18,1383.63 1721.16,1383.79 1723.14,1383.69 1725.11,1383.97 1727.09,1384 1729.07,1384.07 1731.04,1384.08 1733.02,1383.92 1735,1383.84 1736.97,1383.3 1738.95,1383.01 1740.92,1382.07 1742.9,1381.54 1744.88,1380.5 1746.85,1381.23 1748.83,1381.57 1750.81,1382.97 1752.78,1383.79 1754.76,1384.27 1756.74,1384.2 1758.71,1383.7 1760.69,1383.38 1762.67,1382.53 1764.64,1382.73 1766.62,1382.66 1768.6,1383.65 1770.57,1383.77 1772.55,1384.27 1774.53,1384.34 1776.5,1384.15 1778.48,1384.14 1780.46,1383.54 1782.43,1383.46 1784.41,1382.69 1786.39,1382.38 1788.36,1381.83 1790.34,1382.55 1792.32,1382.96 1794.29,1384.13 1796.27,1384.4 1798.25,1384.29 1800.22,1384.12 1802.2,1383.38 1804.18,1383.63 1806.15,1383.17 1808.13,1383.84 1810.11,1383.79 1812.08,1384.36 1814.06,1384.44 1816.03,1384.54 1818.01,1384.49 1819.99,1383.99 1821.96,1384.1 1823.94,1383.32 1825.92,1383.75 1827.89,1383.26 1829.87,1383.91 1831.85,1383.67 1833.82,1384.27 1835.8,1384.12 1837.78,1384.47 1839.75,1384.46 1841.73,1384.67 1843.71,1384.66 1845.68,1384.66 1847.66,1384.73 1849.64,1384.57 1851.61,1384.69 1853.59,1384.56 1855.57,1384.7 1857.54,1384.59 1859.52,1384.73 1861.5,1384.71 1863.47,1384.73 1865.45,1384.77 1867.43,1384.67 1869.4,1384.77 1871.38,1384.54 1873.36,1384.62 1875.33,1384.04 1877.31,1383.84 1879.29,1382.59 1881.26,1381.9 1883.24,1380.66 1885.22,1382.59 1887.19,1383.79 1889.17,1384.89 1891.15,1384.93 1893.12,1383.95 1895.1,1383.47 1897.07,1382.36 1899.05,1382.7 1901.03,1382.86 1903,1384.2 1904.98,1384.5 1906.96,1385.02 1908.93,1385.02 1910.91,1384.61 1912.89,1384.58 1914.86,1383.82 1916.84,1384.1 1918.82,1383.64 1920.79,1384.13 1922.77,1383.97 1924.75,1384.78 1926.72,1384.69 1928.7,1385.06 1930.68,1385.01 1932.65,1385.01 1934.63,1385.08 1936.61,1384.79 1938.58,1384.94 1940.56,1384.38 1942.54,1384.56 1944.51,1383.81 1946.49,1383.71 1948.47,1382.97 1950.44,1383.43 1952.42,1383.47 1954.4,1384.57 1956.37,1384.64 1958.35,1385.21 1960.33,1385.24 1962.3,1385.01 1964.28,1384.96 1966.26,1384.13 1968.23,1384.13 1970.21,1383.28 1972.18,1383.79 1974.16,1383.77 1976.14,1384.67 1978.11,1384.67 1980.09,1385.28 1982.07,1385.31 1984.04,1385.2 1986.02,1385.24 1988,1384.81 1989.97,1384.98 1991.95,1384.26 1993.93,1384.36 1995.9,1383.56 1997.88,1384.11 1999.86,1383.86 2001.83,1384.59 2003.81,1384.58 2005.79,1385.26 2007.76,1385.2 2009.74,1385.45 2011.72,1385.44 2013.69,1385.24 2015.67,1385.37 2017.65,1385.02 2019.62,1385.18 2021.6,1384.51 2023.58,1384.64 2025.55,1383.82 2027.53,1384.13 2029.51,1383.85 2031.48,1384.58 2033.46,1384.48 2035.44,1385.17 2037.41,1385.07 2039.39,1385.51 2041.37,1385.47 2043.34,1385.54 2045.32,1385.58 2047.29,1385.38 2049.27,1385.54 2051.25,1385.37 2053.22,1385.55 2055.2,1385.45 2057.18,1385.59 2059.15,1385.6 2061.13,1385.52 2063.11,1385.61 2065.08,1385.39 2067.06,1385.5 2069.04,1384.89 2071.01,1384.78 2072.99,1383.43 2074.97,1383.34 2076.94,1383.24 2078.92,1384.63 2080.9,1384.99 2082.87,1385.68 2084.85,1385.74 2086.83,1385.53 2088.8,1385.46 2090.78,1384.65 2092.76,1384.54 2094.73,1383.61 2096.71,1384.29 2098.69,1384.32 2100.66,1385.15 2102.64,1385.13 2104.62,1385.73 2106.59,1385.8 2108.57,1385.68 2110.55,1385.58 2112.52,1384.85 2114.5,1384.75 2116.48,1383.67 2118.45,1384.13 2120.43,1384.29 2122.41,1385.28 2124.38,1385.34 2126.36,1385.82 2128.33,1385.83 2130.31,1385.91 2132.29,1385.91 2134.26,1385.72 2136.24,1385.82 2138.22,1385.45 2140.19,1385.55 2142.17,1384.84 2144.15,1384.7 2146.12,1383.75 2148.1,1384.58 2150.08,1384.57 2152.05,1385.37 2154.03,1385.35 2156.01,1385.79 2157.98,1385.66 2159.96,1385.94 2161.94,1385.84 2163.91,1386.04 2165.89,1385.99 2167.87,1386 2169.84,1386.02 2171.82,1385.95 2173.8,1386 2175.77,1385.79 2177.75,1385.81 2179.73,1385.09 2181.7,1385 2183.68,1384.01 2185.66,1384.3 2187.63,1384.26 2189.61,1385.27 2191.59,1385.45 2193.56,1385.95 2195.54,1385.87 2197.52,1386.15 2199.49,1386.08 2201.47,1386.19 2203.44,1386.18 2205.42,1386.11 2207.4,1386.18 2209.37,1385.9 2211.35,1385.88 2213.33,1385.02 2215.3,1384.54 2217.28,1383.79 2219.26,1384.64 2221.23,1385.14 2223.21,1385.96 2225.19,1386.08 2227.16,1386.3 2229.14,1386.3 2231.12,1386 2233.09,1385.91 2235.07,1385.06 2237.05,1385.03 2239.02,1384.2 2241,1384.95 2242.98,1385.08 2244.95,1385.96 2246.93,1386.09 2248.91,1386.37 2250.88,1386.36 2252.86,1386.4 2254.84,1386.35 2256.81,1386.35 2258.79,1386.07 2260.77,1386 2262.74,1385.24 2264.72,1385 2266.7,1384.23 2268.67,1384.99 2270.65,1385.17 2272.63,1385.92 2274.6,1385.95 2276.58,1386.26 2278.56,1386.07 2280.53,1386.23 2282.51,1385.93 2284.48,1386.01 2286.46,1385.52 2288.44,1385.5 2290.41,1384.82 2292.39,1385.36 "></polyline>
<path clip-path="url(#clip230)" d="M1157.59 270.476 L2281.66 270.476 L2281.66 166.796 L1157.59 166.796  Z" fill="#ffffff" fill-rule="evenodd" fill-opacity="1"></path>
<polyline clip-path="url(#clip230)" style="stroke:#000000; stroke-linecap:round; stroke-linejoin:round; stroke-width:4; stroke-opacity:1; fill:none" points="1157.59,270.476 2281.66,270.476 2281.66,166.796 1157.59,166.796 1157.59,270.476 "></polyline>
<polyline clip-path="url(#clip230)" style="stroke:#009af9; stroke-linecap:round; stroke-linejoin:round; stroke-width:4; stroke-opacity:1; fill:none" points="1181.29,218.636 1323.48,218.636 "></polyline>
<path clip-path="url(#clip230)" d="M1363.57 219.712 Q1365.07 220.221 1366.48 221.888 Q1367.92 223.555 1369.35 226.471 L1374.1 235.916 L1369.08 235.916 L1364.66 227.05 Q1362.94 223.578 1361.32 222.444 Q1359.72 221.309 1356.95 221.309 L1351.85 221.309 L1351.85 235.916 L1347.18 235.916 L1347.18 201.356 L1357.73 201.356 Q1363.66 201.356 1366.58 203.833 Q1369.49 206.309 1369.49 211.309 Q1369.49 214.573 1367.97 216.726 Q1366.46 218.879 1363.57 219.712 M1351.85 205.198 L1351.85 217.467 L1357.73 217.467 Q1361.11 217.467 1362.83 215.916 Q1364.56 214.342 1364.56 211.309 Q1364.56 208.277 1362.83 206.749 Q1361.11 205.198 1357.73 205.198 L1351.85 205.198 Z" fill="#000000" fill-rule="nonzero" fill-opacity="1"></path><path clip-path="url(#clip230)" d="M1399.98 221.888 L1399.98 223.971 L1380.4 223.971 Q1380.67 228.369 1383.03 230.684 Q1385.42 232.976 1389.66 232.976 Q1392.11 232.976 1394.4 232.374 Q1396.72 231.772 1398.98 230.569 L1398.98 234.596 Q1396.69 235.568 1394.28 236.078 Q1391.88 236.587 1389.4 236.587 Q1383.2 236.587 1379.56 232.976 Q1375.95 229.365 1375.95 223.207 Q1375.95 216.842 1379.38 213.115 Q1382.83 209.365 1388.66 209.365 Q1393.89 209.365 1396.92 212.745 Q1399.98 216.101 1399.98 221.888 M1395.72 220.638 Q1395.67 217.143 1393.75 215.059 Q1391.85 212.976 1388.71 212.976 Q1385.14 212.976 1382.99 214.99 Q1380.86 217.004 1380.53 220.661 L1395.72 220.638 Z" fill="#000000" fill-rule="nonzero" fill-opacity="1"></path><path clip-path="url(#clip230)" d="M1406.97 199.897 L1411.23 199.897 L1411.23 235.916 L1406.97 235.916 L1406.97 199.897 Z" fill="#000000" fill-rule="nonzero" fill-opacity="1"></path><path clip-path="url(#clip230)" d="M1431.92 222.883 Q1426.76 222.883 1424.77 224.064 Q1422.78 225.244 1422.78 228.092 Q1422.78 230.36 1424.26 231.703 Q1425.77 233.022 1428.34 233.022 Q1431.88 233.022 1434.01 230.522 Q1436.16 227.999 1436.16 223.832 L1436.16 222.883 L1431.92 222.883 M1440.42 221.124 L1440.42 235.916 L1436.16 235.916 L1436.16 231.981 Q1434.7 234.342 1432.53 235.476 Q1430.35 236.587 1427.2 236.587 Q1423.22 236.587 1420.86 234.365 Q1418.52 232.119 1418.52 228.369 Q1418.52 223.994 1421.44 221.772 Q1424.38 219.55 1430.19 219.55 L1436.16 219.55 L1436.16 219.133 Q1436.16 216.194 1434.22 214.596 Q1432.29 212.976 1428.8 212.976 Q1426.58 212.976 1424.47 213.508 Q1422.36 214.041 1420.42 215.106 L1420.42 211.17 Q1422.76 210.268 1424.96 209.828 Q1427.16 209.365 1429.24 209.365 Q1434.86 209.365 1437.64 212.282 Q1440.42 215.198 1440.42 221.124 Z" fill="#000000" fill-rule="nonzero" fill-opacity="1"></path><path clip-path="url(#clip230)" d="M1453.4 202.629 L1453.4 209.99 L1462.18 209.99 L1462.18 213.3 L1453.4 213.3 L1453.4 227.374 Q1453.4 230.545 1454.26 231.448 Q1455.14 232.351 1457.8 232.351 L1462.18 232.351 L1462.18 235.916 L1457.8 235.916 Q1452.87 235.916 1451 234.087 Q1449.12 232.235 1449.12 227.374 L1449.12 213.3 L1446 213.3 L1446 209.99 L1449.12 209.99 L1449.12 202.629 L1453.4 202.629 Z" fill="#000000" fill-rule="nonzero" fill-opacity="1"></path><path clip-path="url(#clip230)" d="M1467.78 209.99 L1472.04 209.99 L1472.04 235.916 L1467.78 235.916 L1467.78 209.99 M1467.78 199.897 L1472.04 199.897 L1472.04 205.291 L1467.78 205.291 L1467.78 199.897 Z" fill="#000000" fill-rule="nonzero" fill-opacity="1"></path><path clip-path="url(#clip230)" d="M1477.9 209.99 L1482.41 209.99 L1490.51 231.749 L1498.61 209.99 L1503.13 209.99 L1493.4 235.916 L1487.62 235.916 L1477.9 209.99 Z" fill="#000000" fill-rule="nonzero" fill-opacity="1"></path><path clip-path="url(#clip230)" d="M1531.18 221.888 L1531.18 223.971 L1511.6 223.971 Q1511.88 228.369 1514.24 230.684 Q1516.62 232.976 1520.86 232.976 Q1523.31 232.976 1525.6 232.374 Q1527.92 231.772 1530.19 230.569 L1530.19 234.596 Q1527.9 235.568 1525.49 236.078 Q1523.08 236.587 1520.6 236.587 Q1514.4 236.587 1510.77 232.976 Q1507.15 229.365 1507.15 223.207 Q1507.15 216.842 1510.58 213.115 Q1514.03 209.365 1519.86 209.365 Q1525.09 209.365 1528.13 212.745 Q1531.18 216.101 1531.18 221.888 M1526.92 220.638 Q1526.88 217.143 1524.96 215.059 Q1523.06 212.976 1519.91 212.976 Q1516.34 212.976 1514.19 214.99 Q1512.06 217.004 1511.74 220.661 L1526.92 220.638 Z" fill="#000000" fill-rule="nonzero" fill-opacity="1"></path><path clip-path="url(#clip230)" d="M1553.43 201.356 L1575.28 201.356 L1575.28 205.291 L1558.1 205.291 L1558.1 215.522 L1574.56 215.522 L1574.56 219.457 L1558.1 219.457 L1558.1 231.981 L1575.7 231.981 L1575.7 235.916 L1553.43 235.916 L1553.43 201.356 Z" fill="#000000" fill-rule="nonzero" fill-opacity="1"></path><path clip-path="url(#clip230)" d="M1598.22 213.971 Q1597.5 213.555 1596.64 213.37 Q1595.81 213.161 1594.79 213.161 Q1591.18 213.161 1589.24 215.522 Q1587.32 217.86 1587.32 222.258 L1587.32 235.916 L1583.03 235.916 L1583.03 209.99 L1587.32 209.99 L1587.32 214.018 Q1588.66 211.657 1590.81 210.522 Q1592.96 209.365 1596.04 209.365 Q1596.48 209.365 1597.02 209.434 Q1597.55 209.481 1598.2 209.596 L1598.22 213.971 Z" fill="#000000" fill-rule="nonzero" fill-opacity="1"></path><path clip-path="url(#clip230)" d="M1616.88 213.971 Q1616.16 213.555 1615.3 213.37 Q1614.47 213.161 1613.45 213.161 Q1609.84 213.161 1607.89 215.522 Q1605.97 217.86 1605.97 222.258 L1605.97 235.916 L1601.69 235.916 L1601.69 209.99 L1605.97 209.99 L1605.97 214.018 Q1607.32 211.657 1609.47 210.522 Q1611.62 209.365 1614.7 209.365 Q1615.14 209.365 1615.67 209.434 Q1616.2 209.481 1616.85 209.596 L1616.88 213.971 Z" fill="#000000" fill-rule="nonzero" fill-opacity="1"></path><path clip-path="url(#clip230)" d="M1630.35 212.976 Q1626.92 212.976 1624.93 215.661 Q1622.94 218.323 1622.94 222.976 Q1622.94 227.629 1624.91 230.314 Q1626.9 232.976 1630.35 232.976 Q1633.75 232.976 1635.74 230.291 Q1637.73 227.606 1637.73 222.976 Q1637.73 218.37 1635.74 215.684 Q1633.75 212.976 1630.35 212.976 M1630.35 209.365 Q1635.9 209.365 1639.08 212.976 Q1642.25 216.587 1642.25 222.976 Q1642.25 229.342 1639.08 232.976 Q1635.9 236.587 1630.35 236.587 Q1624.77 236.587 1621.6 232.976 Q1618.45 229.342 1618.45 222.976 Q1618.45 216.587 1621.6 212.976 Q1624.77 209.365 1630.35 209.365 Z" fill="#000000" fill-rule="nonzero" fill-opacity="1"></path><path clip-path="url(#clip230)" d="M1664.33 213.971 Q1663.61 213.555 1662.76 213.37 Q1661.92 213.161 1660.9 213.161 Q1657.29 213.161 1655.35 215.522 Q1653.43 217.86 1653.43 222.258 L1653.43 235.916 L1649.14 235.916 L1649.14 209.99 L1653.43 209.99 L1653.43 214.018 Q1654.77 211.657 1656.92 210.522 Q1659.08 209.365 1662.15 209.365 Q1662.59 209.365 1663.13 209.434 Q1663.66 209.481 1664.31 209.596 L1664.33 213.971 Z" fill="#000000" fill-rule="nonzero" fill-opacity="1"></path><path clip-path="url(#clip230)" d="M1684.42 214.388 L1714.1 214.388 L1714.1 218.277 L1684.42 218.277 L1684.42 214.388 M1684.42 223.832 L1714.1 223.832 L1714.1 227.768 L1684.42 227.768 L1684.42 223.832 Z" fill="#000000" fill-rule="nonzero" fill-opacity="1"></path><path clip-path="url(#clip230)" d="M1740.07 231.981 L1747.71 231.981 L1747.71 205.615 L1739.4 207.282 L1739.4 203.022 L1747.66 201.356 L1752.34 201.356 L1752.34 231.981 L1759.98 231.981 L1759.98 235.916 L1740.07 235.916 L1740.07 231.981 Z" fill="#000000" fill-rule="nonzero" fill-opacity="1"></path><path clip-path="url(#clip230)" d="M1779.42 219.504 Q1776.09 219.504 1774.17 221.286 Q1772.27 223.069 1772.27 226.194 Q1772.27 229.319 1774.17 231.101 Q1776.09 232.883 1779.42 232.883 Q1782.76 232.883 1784.68 231.101 Q1786.6 229.295 1786.6 226.194 Q1786.6 223.069 1784.68 221.286 Q1782.78 219.504 1779.42 219.504 M1774.75 217.513 Q1771.74 216.772 1770.05 214.712 Q1768.38 212.652 1768.38 209.689 Q1768.38 205.546 1771.32 203.138 Q1774.28 200.731 1779.42 200.731 Q1784.58 200.731 1787.52 203.138 Q1790.46 205.546 1790.46 209.689 Q1790.46 212.652 1788.77 214.712 Q1787.11 216.772 1784.12 217.513 Q1787.5 218.3 1789.38 220.592 Q1791.27 222.883 1791.27 226.194 Q1791.27 231.217 1788.19 233.902 Q1785.14 236.587 1779.42 236.587 Q1773.7 236.587 1770.63 233.902 Q1767.57 231.217 1767.57 226.194 Q1767.57 222.883 1769.47 220.592 Q1771.37 218.3 1774.75 217.513 M1773.03 210.129 Q1773.03 212.814 1774.7 214.319 Q1776.39 215.823 1779.42 215.823 Q1782.43 215.823 1784.12 214.319 Q1785.83 212.814 1785.83 210.129 Q1785.83 207.444 1784.12 205.939 Q1782.43 204.434 1779.42 204.434 Q1776.39 204.434 1774.7 205.939 Q1773.03 207.444 1773.03 210.129 Z" fill="#000000" fill-rule="nonzero" fill-opacity="1"></path><path clip-path="url(#clip230)" d="M1799.58 230.036 L1804.47 230.036 L1804.47 235.916 L1799.58 235.916 L1799.58 230.036 Z" fill="#000000" fill-rule="nonzero" fill-opacity="1"></path><path clip-path="url(#clip230)" d="M1828.82 217.282 Q1832.18 217.999 1834.05 220.268 Q1835.95 222.536 1835.95 225.869 Q1835.95 230.985 1832.43 233.786 Q1828.91 236.587 1822.43 236.587 Q1820.25 236.587 1817.94 236.147 Q1815.65 235.731 1813.19 234.874 L1813.19 230.36 Q1815.14 231.494 1817.45 232.073 Q1819.77 232.652 1822.29 232.652 Q1826.69 232.652 1828.98 230.916 Q1831.3 229.18 1831.3 225.869 Q1831.3 222.814 1829.14 221.101 Q1827.01 219.365 1823.19 219.365 L1819.17 219.365 L1819.17 215.522 L1823.38 215.522 Q1826.83 215.522 1828.66 214.157 Q1830.49 212.768 1830.49 210.175 Q1830.49 207.513 1828.59 206.101 Q1826.71 204.666 1823.19 204.666 Q1821.27 204.666 1819.07 205.083 Q1816.88 205.499 1814.24 206.379 L1814.24 202.212 Q1816.9 201.471 1819.21 201.101 Q1821.55 200.731 1823.61 200.731 Q1828.94 200.731 1832.04 203.161 Q1835.14 205.569 1835.14 209.689 Q1835.14 212.559 1833.5 214.55 Q1831.85 216.518 1828.82 217.282 Z" fill="#000000" fill-rule="nonzero" fill-opacity="1"></path><path clip-path="url(#clip230)" d="M1844.86 201.356 L1863.22 201.356 L1863.22 205.291 L1849.14 205.291 L1849.14 213.763 Q1850.16 213.416 1851.18 213.254 Q1852.2 213.069 1853.22 213.069 Q1859 213.069 1862.38 216.24 Q1865.76 219.411 1865.76 224.828 Q1865.76 230.406 1862.29 233.508 Q1858.82 236.587 1852.5 236.587 Q1850.32 236.587 1848.06 236.217 Q1845.81 235.846 1843.4 235.106 L1843.4 230.406 Q1845.49 231.541 1847.71 232.096 Q1849.93 232.652 1852.41 232.652 Q1856.41 232.652 1858.75 230.545 Q1861.09 228.439 1861.09 224.828 Q1861.09 221.217 1858.75 219.11 Q1856.41 217.004 1852.41 217.004 Q1850.53 217.004 1848.66 217.42 Q1846.81 217.837 1844.86 218.717 L1844.86 201.356 Z" fill="#000000" fill-rule="nonzero" fill-opacity="1"></path><path clip-path="url(#clip230)" d="M1873.8 201.356 L1896.02 201.356 L1896.02 203.346 L1883.47 235.916 L1878.59 235.916 L1890.39 205.291 L1873.8 205.291 L1873.8 201.356 Z" fill="#000000" fill-rule="nonzero" fill-opacity="1"></path><path clip-path="url(#clip230)" d="M1915.72 216.772 Q1912.57 216.772 1910.72 218.925 Q1908.89 221.078 1908.89 224.828 Q1908.89 228.555 1910.72 230.731 Q1912.57 232.883 1915.72 232.883 Q1918.87 232.883 1920.69 230.731 Q1922.55 228.555 1922.55 224.828 Q1922.55 221.078 1920.69 218.925 Q1918.87 216.772 1915.72 216.772 M1925 202.12 L1925 206.379 Q1923.24 205.546 1921.43 205.106 Q1919.65 204.666 1917.89 204.666 Q1913.26 204.666 1910.81 207.791 Q1908.38 210.916 1908.03 217.235 Q1909.4 215.221 1911.46 214.157 Q1913.52 213.069 1916 213.069 Q1921.2 213.069 1924.21 216.24 Q1927.24 219.388 1927.24 224.828 Q1927.24 230.152 1924.1 233.369 Q1920.95 236.587 1915.72 236.587 Q1909.72 236.587 1906.55 232.004 Q1903.38 227.397 1903.38 218.67 Q1903.38 210.476 1907.27 205.615 Q1911.16 200.731 1917.71 200.731 Q1919.47 200.731 1921.25 201.078 Q1923.06 201.425 1925 202.12 Z" fill="#000000" fill-rule="nonzero" fill-opacity="1"></path><path clip-path="url(#clip230)" d="M1949.47 217.282 Q1952.82 217.999 1954.7 220.268 Q1956.6 222.536 1956.6 225.869 Q1956.6 230.985 1953.08 233.786 Q1949.56 236.587 1943.08 236.587 Q1940.9 236.587 1938.59 236.147 Q1936.3 235.731 1933.84 234.874 L1933.84 230.36 Q1935.79 231.494 1938.1 232.073 Q1940.42 232.652 1942.94 232.652 Q1947.34 232.652 1949.63 230.916 Q1951.94 229.18 1951.94 225.869 Q1951.94 222.814 1949.79 221.101 Q1947.66 219.365 1943.84 219.365 L1939.81 219.365 L1939.81 215.522 L1944.03 215.522 Q1947.48 215.522 1949.31 214.157 Q1951.13 212.768 1951.13 210.175 Q1951.13 207.513 1949.24 206.101 Q1947.36 204.666 1943.84 204.666 Q1941.92 204.666 1939.72 205.083 Q1937.52 205.499 1934.88 206.379 L1934.88 202.212 Q1937.55 201.471 1939.86 201.101 Q1942.2 200.731 1944.26 200.731 Q1949.58 200.731 1952.68 203.161 Q1955.79 205.569 1955.79 209.689 Q1955.79 212.559 1954.14 214.55 Q1952.5 216.518 1949.47 217.282 Z" fill="#000000" fill-rule="nonzero" fill-opacity="1"></path><path clip-path="url(#clip230)" d="M1978.31 205.43 L1966.5 223.879 L1978.31 223.879 L1978.31 205.43 M1977.08 201.356 L1982.96 201.356 L1982.96 223.879 L1987.89 223.879 L1987.89 227.768 L1982.96 227.768 L1982.96 235.916 L1978.31 235.916 L1978.31 227.768 L1962.71 227.768 L1962.71 223.254 L1977.08 201.356 Z" fill="#000000" fill-rule="nonzero" fill-opacity="1"></path><path clip-path="url(#clip230)" d="M2008.47 205.43 L1996.67 223.879 L2008.47 223.879 L2008.47 205.43 M2007.24 201.356 L2013.12 201.356 L2013.12 223.879 L2018.05 223.879 L2018.05 227.768 L2013.12 227.768 L2013.12 235.916 L2008.47 235.916 L2008.47 227.768 L1992.87 227.768 L1992.87 223.254 L2007.24 201.356 Z" fill="#000000" fill-rule="nonzero" fill-opacity="1"></path><path clip-path="url(#clip230)" d="M2024.61 201.356 L2046.83 201.356 L2046.83 203.346 L2034.28 235.916 L2029.4 235.916 L2041.2 205.291 L2024.61 205.291 L2024.61 201.356 Z" fill="#000000" fill-rule="nonzero" fill-opacity="1"></path><path clip-path="url(#clip230)" d="M2066.53 216.772 Q2063.38 216.772 2061.53 218.925 Q2059.7 221.078 2059.7 224.828 Q2059.7 228.555 2061.53 230.731 Q2063.38 232.883 2066.53 232.883 Q2069.67 232.883 2071.5 230.731 Q2073.36 228.555 2073.36 224.828 Q2073.36 221.078 2071.5 218.925 Q2069.67 216.772 2066.53 216.772 M2075.81 202.12 L2075.81 206.379 Q2074.05 205.546 2072.24 205.106 Q2070.46 204.666 2068.7 204.666 Q2064.07 204.666 2061.62 207.791 Q2059.19 210.916 2058.84 217.235 Q2060.21 215.221 2062.27 214.157 Q2064.33 213.069 2066.8 213.069 Q2072.01 213.069 2075.02 216.24 Q2078.05 219.388 2078.05 224.828 Q2078.05 230.152 2074.91 233.369 Q2071.76 236.587 2066.53 236.587 Q2060.53 236.587 2057.36 232.004 Q2054.19 227.397 2054.19 218.67 Q2054.19 210.476 2058.08 205.615 Q2061.97 200.731 2068.52 200.731 Q2070.28 200.731 2072.06 201.078 Q2073.86 201.425 2075.81 202.12 Z" fill="#000000" fill-rule="nonzero" fill-opacity="1"></path><path clip-path="url(#clip230)" d="M2086.92 231.981 L2094.56 231.981 L2094.56 205.615 L2086.25 207.282 L2086.25 203.022 L2094.51 201.356 L2099.19 201.356 L2099.19 231.981 L2106.83 231.981 L2106.83 235.916 L2086.92 235.916 L2086.92 231.981 Z" fill="#000000" fill-rule="nonzero" fill-opacity="1"></path><path clip-path="url(#clip230)" d="M2126.27 219.504 Q2122.94 219.504 2121.02 221.286 Q2119.12 223.069 2119.12 226.194 Q2119.12 229.319 2121.02 231.101 Q2122.94 232.883 2126.27 232.883 Q2129.61 232.883 2131.53 231.101 Q2133.45 229.295 2133.45 226.194 Q2133.45 223.069 2131.53 221.286 Q2129.63 219.504 2126.27 219.504 M2121.6 217.513 Q2118.59 216.772 2116.9 214.712 Q2115.23 212.652 2115.23 209.689 Q2115.23 205.546 2118.17 203.138 Q2121.13 200.731 2126.27 200.731 Q2131.43 200.731 2134.37 203.138 Q2137.31 205.546 2137.31 209.689 Q2137.31 212.652 2135.62 214.712 Q2133.96 216.772 2130.97 217.513 Q2134.35 218.3 2136.23 220.592 Q2138.12 222.883 2138.12 226.194 Q2138.12 231.217 2135.04 233.902 Q2131.99 236.587 2126.27 236.587 Q2120.55 236.587 2117.48 233.902 Q2114.42 231.217 2114.42 226.194 Q2114.42 222.883 2116.32 220.592 Q2118.22 218.3 2121.6 217.513 M2119.88 210.129 Q2119.88 212.814 2121.55 214.319 Q2123.24 215.823 2126.27 215.823 Q2129.28 215.823 2130.97 214.319 Q2132.68 212.814 2132.68 210.129 Q2132.68 207.444 2130.97 205.939 Q2129.28 204.434 2126.27 204.434 Q2123.24 204.434 2121.55 205.939 Q2119.88 207.444 2119.88 210.129 Z" fill="#000000" fill-rule="nonzero" fill-opacity="1"></path><path clip-path="url(#clip230)" d="M2146.57 235.198 L2146.57 230.939 Q2148.33 231.772 2150.14 232.212 Q2151.94 232.652 2153.68 232.652 Q2158.31 232.652 2160.74 229.55 Q2163.19 226.425 2163.54 220.082 Q2162.2 222.073 2160.14 223.138 Q2158.08 224.203 2155.58 224.203 Q2150.39 224.203 2147.36 221.078 Q2144.35 217.93 2144.35 212.49 Q2144.35 207.166 2147.5 203.948 Q2150.65 200.731 2155.88 200.731 Q2161.87 200.731 2165.02 205.337 Q2168.19 209.92 2168.19 218.67 Q2168.19 226.842 2164.3 231.726 Q2160.44 236.587 2153.89 236.587 Q2152.13 236.587 2150.32 236.24 Q2148.52 235.893 2146.57 235.198 M2155.88 220.545 Q2159.03 220.545 2160.85 218.393 Q2162.71 216.24 2162.71 212.49 Q2162.71 208.763 2160.85 206.61 Q2159.03 204.434 2155.88 204.434 Q2152.73 204.434 2150.88 206.61 Q2149.05 208.763 2149.05 212.49 Q2149.05 216.24 2150.88 218.393 Q2152.73 220.545 2155.88 220.545 Z" fill="#000000" fill-rule="nonzero" fill-opacity="1"></path><path clip-path="url(#clip230)" d="M2177.41 231.981 L2185.04 231.981 L2185.04 205.615 L2176.73 207.282 L2176.73 203.022 L2185 201.356 L2189.67 201.356 L2189.67 231.981 L2197.31 231.981 L2197.31 235.916 L2177.41 235.916 L2177.41 231.981 Z" fill="#000000" fill-rule="nonzero" fill-opacity="1"></path><path clip-path="url(#clip230)" d="M2206.9 235.198 L2206.9 230.939 Q2208.66 231.772 2210.46 232.212 Q2212.27 232.652 2214 232.652 Q2218.63 232.652 2221.06 229.55 Q2223.52 226.425 2223.86 220.082 Q2222.52 222.073 2220.46 223.138 Q2218.4 224.203 2215.9 224.203 Q2210.72 224.203 2207.68 221.078 Q2204.67 217.93 2204.67 212.49 Q2204.67 207.166 2207.82 203.948 Q2210.97 200.731 2216.2 200.731 Q2222.2 200.731 2225.35 205.337 Q2228.52 209.92 2228.52 218.67 Q2228.52 226.842 2224.63 231.726 Q2220.76 236.587 2214.21 236.587 Q2212.45 236.587 2210.65 236.24 Q2208.84 235.893 2206.9 235.198 M2216.2 220.545 Q2219.35 220.545 2221.18 218.393 Q2223.03 216.24 2223.03 212.49 Q2223.03 208.763 2221.18 206.61 Q2219.35 204.434 2216.2 204.434 Q2213.05 204.434 2211.2 206.61 Q2209.37 208.763 2209.37 212.49 Q2209.37 216.24 2211.2 218.393 Q2213.05 220.545 2216.2 220.545 Z" fill="#000000" fill-rule="nonzero" fill-opacity="1"></path><path clip-path="url(#clip230)" d="M2235.74 201.356 L2257.96 201.356 L2257.96 203.346 L2245.41 235.916 L2240.53 235.916 L2252.34 205.291 L2235.74 205.291 L2235.74 201.356 Z" fill="#000000" fill-rule="nonzero" fill-opacity="1"></path></svg>