<svg xmlns="http://www.w3.org/2000/svg" xmlns:xlink="http://www.w3.org/1999/xlink" width="600" height="400" viewBox="0 0 2400 1600">
<defs>
  <clipPath id="clip330">
    <rect x="0" y="0" width="2400" height="1600"></rect>
  </clipPath>
</defs>
<path clip-path="url(#clip330)" d="M0 1600 L2400 1600 L2400 0 L0 0  Z" fill="#ffffff" fill-rule="evenodd" fill-opacity="1"></path>
<defs>
  <clipPath id="clip331">
    <rect x="480" y="0" width="1681" height="1600"></rect>
  </clipPath>
</defs>
<path clip-path="url(#clip330)" d="M249.542 1423.18 L2352.76 1423.18 L2352.76 123.472 L249.542 123.472  Z" fill="#ffffff" fill-rule="evenodd" fill-opacity="1"></path>
<defs>
  <clipPath id="clip332">
    <rect x="249" y="123" width="2104" height="1301"></rect>
  </clipPath>
</defs>
<polyline clip-path="url(#clip332)" style="stroke:#000000; stroke-linecap:round; stroke-linejoin:round; stroke-width:2; stroke-opacity:0.1; fill:none" points="726.786,1423.18 726.786,123.472 "></polyline>
<polyline clip-path="url(#clip332)" style="stroke:#000000; stroke-linecap:round; stroke-linejoin:round; stroke-width:2; stroke-opacity:0.1; fill:none" points="1248.93,1423.18 1248.93,123.472 "></polyline>
<polyline clip-path="url(#clip332)" style="stroke:#000000; stroke-linecap:round; stroke-linejoin:round; stroke-width:2; stroke-opacity:0.1; fill:none" points="1771.08,1423.18 1771.08,123.472 "></polyline>
<polyline clip-path="url(#clip332)" style="stroke:#000000; stroke-linecap:round; stroke-linejoin:round; stroke-width:2; stroke-opacity:0.1; fill:none" points="2293.23,1423.18 2293.23,123.472 "></polyline>
<polyline clip-path="url(#clip330)" style="stroke:#000000; stroke-linecap:round; stroke-linejoin:round; stroke-width:4; stroke-opacity:1; fill:none" points="249.542,1423.18 2352.76,1423.18 "></polyline>
<polyline clip-path="url(#clip330)" style="stroke:#000000; stroke-linecap:round; stroke-linejoin:round; stroke-width:4; stroke-opacity:1; fill:none" points="726.786,1423.18 726.786,1404.28 "></polyline>
<polyline clip-path="url(#clip330)" style="stroke:#000000; stroke-linecap:round; stroke-linejoin:round; stroke-width:4; stroke-opacity:1; fill:none" points="1248.93,1423.18 1248.93,1404.28 "></polyline>
<polyline clip-path="url(#clip330)" style="stroke:#000000; stroke-linecap:round; stroke-linejoin:round; stroke-width:4; stroke-opacity:1; fill:none" points="1771.08,1423.18 1771.08,1404.28 "></polyline>
<polyline clip-path="url(#clip330)" style="stroke:#000000; stroke-linecap:round; stroke-linejoin:round; stroke-width:4; stroke-opacity:1; fill:none" points="2293.23,1423.18 2293.23,1404.28 "></polyline>
<path clip-path="url(#clip330)" d="M689.587 1454.1 Q685.976 1454.1 684.147 1457.66 Q682.341 1461.2 682.341 1468.33 Q682.341 1475.44 684.147 1479.01 Q685.976 1482.55 689.587 1482.55 Q693.221 1482.55 695.027 1479.01 Q696.855 1475.44 696.855 1468.33 Q696.855 1461.2 695.027 1457.66 Q693.221 1454.1 689.587 1454.1 M689.587 1450.39 Q695.397 1450.39 698.453 1455 Q701.531 1459.58 701.531 1468.33 Q701.531 1477.06 698.453 1481.67 Q695.397 1486.25 689.587 1486.25 Q683.777 1486.25 680.698 1481.67 Q677.642 1477.06 677.642 1468.33 Q677.642 1459.58 680.698 1455 Q683.777 1450.39 689.587 1450.39 Z" fill="#000000" fill-rule="nonzero" fill-opacity="1"></path><path clip-path="url(#clip330)" d="M709.749 1479.7 L714.633 1479.7 L714.633 1485.58 L709.749 1485.58 L709.749 1479.7 Z" fill="#000000" fill-rule="nonzero" fill-opacity="1"></path><path clip-path="url(#clip330)" d="M734.818 1454.1 Q731.207 1454.1 729.378 1457.66 Q727.573 1461.2 727.573 1468.33 Q727.573 1475.44 729.378 1479.01 Q731.207 1482.55 734.818 1482.55 Q738.452 1482.55 740.258 1479.01 Q742.087 1475.44 742.087 1468.33 Q742.087 1461.2 740.258 1457.66 Q738.452 1454.1 734.818 1454.1 M734.818 1450.39 Q740.628 1450.39 743.684 1455 Q746.762 1459.58 746.762 1468.33 Q746.762 1477.06 743.684 1481.67 Q740.628 1486.25 734.818 1486.25 Q729.008 1486.25 725.929 1481.67 Q722.874 1477.06 722.874 1468.33 Q722.874 1459.58 725.929 1455 Q729.008 1450.39 734.818 1450.39 Z" fill="#000000" fill-rule="nonzero" fill-opacity="1"></path><path clip-path="url(#clip330)" d="M755.026 1451.02 L773.383 1451.02 L773.383 1454.96 L759.309 1454.96 L759.309 1463.43 Q760.327 1463.08 761.346 1462.92 Q762.364 1462.73 763.383 1462.73 Q769.17 1462.73 772.549 1465.9 Q775.929 1469.08 775.929 1474.49 Q775.929 1480.07 772.457 1483.17 Q768.985 1486.25 762.665 1486.25 Q760.489 1486.25 758.221 1485.88 Q755.975 1485.51 753.568 1484.77 L753.568 1480.07 Q755.651 1481.2 757.873 1481.76 Q760.096 1482.32 762.573 1482.32 Q766.577 1482.32 768.915 1480.21 Q771.253 1478.1 771.253 1474.49 Q771.253 1470.88 768.915 1468.77 Q766.577 1466.67 762.573 1466.67 Q760.698 1466.67 758.823 1467.08 Q756.971 1467.5 755.026 1468.38 L755.026 1451.02 Z" fill="#000000" fill-rule="nonzero" fill-opacity="1"></path><path clip-path="url(#clip330)" d="M1211.24 1454.1 Q1207.63 1454.1 1205.8 1457.66 Q1203.99 1461.2 1203.99 1468.33 Q1203.99 1475.44 1205.8 1479.01 Q1207.63 1482.55 1211.24 1482.55 Q1214.87 1482.55 1216.68 1479.01 Q1218.51 1475.44 1218.51 1468.33 Q1218.51 1461.2 1216.68 1457.66 Q1214.87 1454.1 1211.24 1454.1 M1211.24 1450.39 Q1217.05 1450.39 1220.1 1455 Q1223.18 1459.58 1223.18 1468.33 Q1223.18 1477.06 1220.1 1481.67 Q1217.05 1486.25 1211.24 1486.25 Q1205.43 1486.25 1202.35 1481.67 Q1199.29 1477.06 1199.29 1468.33 Q1199.29 1459.58 1202.35 1455 Q1205.43 1450.39 1211.24 1450.39 Z" fill="#000000" fill-rule="nonzero" fill-opacity="1"></path><path clip-path="url(#clip330)" d="M1231.4 1479.7 L1236.28 1479.7 L1236.28 1485.58 L1231.4 1485.58 L1231.4 1479.7 Z" fill="#000000" fill-rule="nonzero" fill-opacity="1"></path><path clip-path="url(#clip330)" d="M1247.28 1481.64 L1254.92 1481.64 L1254.92 1455.28 L1246.61 1456.95 L1246.61 1452.69 L1254.87 1451.02 L1259.55 1451.02 L1259.55 1481.64 L1267.19 1481.64 L1267.19 1485.58 L1247.28 1485.58 L1247.28 1481.64 Z" fill="#000000" fill-rule="nonzero" fill-opacity="1"></path><path clip-path="url(#clip330)" d="M1286.63 1454.1 Q1283.02 1454.1 1281.19 1457.66 Q1279.39 1461.2 1279.39 1468.33 Q1279.39 1475.44 1281.19 1479.01 Q1283.02 1482.55 1286.63 1482.55 Q1290.26 1482.55 1292.07 1479.01 Q1293.9 1475.44 1293.9 1468.33 Q1293.9 1461.2 1292.07 1457.66 Q1290.26 1454.1 1286.63 1454.1 M1286.63 1450.39 Q1292.44 1450.39 1295.5 1455 Q1298.58 1459.58 1298.58 1468.33 Q1298.58 1477.06 1295.5 1481.67 Q1292.44 1486.25 1286.63 1486.25 Q1280.82 1486.25 1277.74 1481.67 Q1274.69 1477.06 1274.69 1468.33 Q1274.69 1459.58 1277.74 1455 Q1280.82 1450.39 1286.63 1450.39 Z" fill="#000000" fill-rule="nonzero" fill-opacity="1"></path><path clip-path="url(#clip330)" d="M1733.88 1454.1 Q1730.27 1454.1 1728.44 1457.66 Q1726.64 1461.2 1726.64 1468.33 Q1726.64 1475.44 1728.44 1479.01 Q1730.27 1482.55 1733.88 1482.55 Q1737.52 1482.55 1739.32 1479.01 Q1741.15 1475.44 1741.15 1468.33 Q1741.15 1461.2 1739.32 1457.66 Q1737.52 1454.1 1733.88 1454.1 M1733.88 1450.39 Q1739.69 1450.39 1742.75 1455 Q1745.83 1459.58 1745.83 1468.33 Q1745.83 1477.06 1742.75 1481.67 Q1739.69 1486.25 1733.88 1486.25 Q1728.07 1486.25 1724.99 1481.67 Q1721.94 1477.06 1721.94 1468.33 Q1721.94 1459.58 1724.99 1455 Q1728.07 1450.39 1733.88 1450.39 Z" fill="#000000" fill-rule="nonzero" fill-opacity="1"></path><path clip-path="url(#clip330)" d="M1754.05 1479.7 L1758.93 1479.7 L1758.93 1485.58 L1754.05 1485.58 L1754.05 1479.7 Z" fill="#000000" fill-rule="nonzero" fill-opacity="1"></path><path clip-path="url(#clip330)" d="M1769.93 1481.64 L1777.56 1481.64 L1777.56 1455.28 L1769.25 1456.95 L1769.25 1452.69 L1777.52 1451.02 L1782.19 1451.02 L1782.19 1481.64 L1789.83 1481.64 L1789.83 1485.58 L1769.93 1485.58 L1769.93 1481.64 Z" fill="#000000" fill-rule="nonzero" fill-opacity="1"></path><path clip-path="url(#clip330)" d="M1799.32 1451.02 L1817.68 1451.02 L1817.68 1454.96 L1803.61 1454.96 L1803.61 1463.43 Q1804.62 1463.08 1805.64 1462.92 Q1806.66 1462.73 1807.68 1462.73 Q1813.47 1462.73 1816.85 1465.9 Q1820.23 1469.08 1820.23 1474.49 Q1820.23 1480.07 1816.75 1483.17 Q1813.28 1486.25 1806.96 1486.25 Q1804.79 1486.25 1802.52 1485.88 Q1800.27 1485.51 1797.86 1484.77 L1797.86 1480.07 Q1799.95 1481.2 1802.17 1481.76 Q1804.39 1482.32 1806.87 1482.32 Q1810.87 1482.32 1813.21 1480.21 Q1815.55 1478.1 1815.55 1474.49 Q1815.55 1470.88 1813.21 1468.77 Q1810.87 1466.67 1806.87 1466.67 Q1804.99 1466.67 1803.12 1467.08 Q1801.27 1467.5 1799.32 1468.38 L1799.32 1451.02 Z" fill="#000000" fill-rule="nonzero" fill-opacity="1"></path><path clip-path="url(#clip330)" d="M2255.53 1454.1 Q2251.92 1454.1 2250.09 1457.66 Q2248.29 1461.2 2248.29 1468.33 Q2248.29 1475.44 2250.09 1479.01 Q2251.92 1482.55 2255.53 1482.55 Q2259.17 1482.55 2260.97 1479.01 Q2262.8 1475.44 2262.8 1468.33 Q2262.8 1461.2 2260.97 1457.66 Q2259.17 1454.1 2255.53 1454.1 M2255.53 1450.39 Q2261.34 1450.39 2264.4 1455 Q2267.48 1459.58 2267.48 1468.33 Q2267.48 1477.06 2264.4 1481.67 Q2261.34 1486.25 2255.53 1486.25 Q2249.72 1486.25 2246.65 1481.67 Q2243.59 1477.06 2243.59 1468.33 Q2243.59 1459.58 2246.65 1455 Q2249.72 1450.39 2255.53 1450.39 Z" fill="#000000" fill-rule="nonzero" fill-opacity="1"></path><path clip-path="url(#clip330)" d="M2275.7 1479.7 L2280.58 1479.7 L2280.58 1485.58 L2275.7 1485.58 L2275.7 1479.7 Z" fill="#000000" fill-rule="nonzero" fill-opacity="1"></path><path clip-path="url(#clip330)" d="M2294.79 1481.64 L2311.11 1481.64 L2311.11 1485.58 L2289.17 1485.58 L2289.17 1481.64 Q2291.83 1478.89 2296.41 1474.26 Q2301.02 1469.61 2302.2 1468.27 Q2304.45 1465.74 2305.33 1464.01 Q2306.23 1462.25 2306.23 1460.56 Q2306.23 1457.8 2304.28 1456.07 Q2302.36 1454.33 2299.26 1454.33 Q2297.06 1454.33 2294.61 1455.09 Q2292.18 1455.86 2289.4 1457.41 L2289.4 1452.69 Q2292.22 1451.55 2294.68 1450.97 Q2297.13 1450.39 2299.17 1450.39 Q2304.54 1450.39 2307.73 1453.08 Q2310.93 1455.77 2310.93 1460.26 Q2310.93 1462.39 2310.12 1464.31 Q2309.33 1466.2 2307.22 1468.8 Q2306.65 1469.47 2303.54 1472.69 Q2300.44 1475.88 2294.79 1481.64 Z" fill="#000000" fill-rule="nonzero" fill-opacity="1"></path><path clip-path="url(#clip330)" d="M2330.93 1454.1 Q2327.32 1454.1 2325.49 1457.66 Q2323.68 1461.2 2323.68 1468.33 Q2323.68 1475.44 2325.49 1479.01 Q2327.32 1482.55 2330.93 1482.55 Q2334.56 1482.55 2336.37 1479.01 Q2338.2 1475.44 2338.2 1468.33 Q2338.2 1461.2 2336.37 1457.66 Q2334.56 1454.1 2330.93 1454.1 M2330.93 1450.39 Q2336.74 1450.39 2339.79 1455 Q2342.87 1459.58 2342.87 1468.33 Q2342.87 1477.06 2339.79 1481.67 Q2336.74 1486.25 2330.93 1486.25 Q2325.12 1486.25 2322.04 1481.67 Q2318.98 1477.06 2318.98 1468.33 Q2318.98 1459.58 2322.04 1455 Q2325.12 1450.39 2330.93 1450.39 Z" fill="#000000" fill-rule="nonzero" fill-opacity="1"></path><path clip-path="url(#clip330)" d="M1108.2 1547.13 Q1105.44 1547.13 1103.84 1549.49 Q1102.28 1551.84 1102.28 1556.04 Q1102.28 1560.18 1103.84 1562.57 Q1105.44 1564.92 1108.2 1564.92 Q1110.91 1564.92 1112.47 1562.57 Q1114.06 1560.18 1114.06 1556.04 Q1114.06 1551.87 1112.47 1549.52 Q1110.91 1547.13 1108.2 1547.13 M1108.2 1543.09 Q1113.23 1543.09 1116.19 1546.59 Q1119.15 1550.09 1119.15 1556.04 Q1119.15 1562 1116.16 1565.5 Q1113.2 1568.97 1108.2 1568.97 Q1103.11 1568.97 1100.15 1565.5 Q1097.19 1562 1097.19 1556.04 Q1097.19 1550.06 1100.15 1546.59 Q1103.14 1543.09 1108.2 1543.09 M1075.36 1523.71 Q1072.62 1523.71 1071.03 1526.09 Q1069.47 1528.45 1069.47 1532.59 Q1069.47 1536.79 1071.03 1539.14 Q1072.59 1541.5 1075.36 1541.5 Q1078.13 1541.5 1079.69 1539.14 Q1081.28 1536.79 1081.28 1532.59 Q1081.28 1528.48 1079.69 1526.09 Q1078.09 1523.71 1075.36 1523.71 M1104.1 1519.66 L1109.19 1519.66 L1079.46 1568.97 L1074.37 1568.97 L1104.1 1519.66 M1075.36 1519.66 Q1080.39 1519.66 1083.38 1523.17 Q1086.37 1526.63 1086.37 1532.59 Q1086.37 1538.6 1083.38 1542.07 Q1080.42 1545.54 1075.36 1545.54 Q1070.3 1545.54 1067.34 1542.07 Q1064.41 1538.57 1064.41 1532.59 Q1064.41 1526.67 1067.37 1523.17 Q1070.33 1519.66 1075.36 1519.66 Z" fill="#000000" fill-rule="nonzero" fill-opacity="1"></path><path clip-path="url(#clip330)" d="M1163.43 1536.5 Q1158.72 1536.5 1155.98 1540.19 Q1153.24 1543.85 1153.24 1550.25 Q1153.24 1556.65 1155.95 1560.34 Q1158.68 1564 1163.43 1564 Q1168.11 1564 1170.84 1560.31 Q1173.58 1556.62 1173.58 1550.25 Q1173.58 1543.92 1170.84 1540.23 Q1168.11 1536.5 1163.43 1536.5 M1163.43 1531.54 Q1171.07 1531.54 1175.43 1536.5 Q1179.79 1541.47 1179.79 1550.25 Q1179.79 1559 1175.43 1564 Q1171.07 1568.97 1163.43 1568.97 Q1155.76 1568.97 1151.4 1564 Q1147.07 1559 1147.07 1550.25 Q1147.07 1541.47 1151.4 1536.5 Q1155.76 1531.54 1163.43 1531.54 Z" fill="#000000" fill-rule="nonzero" fill-opacity="1"></path><path clip-path="url(#clip330)" d="M1207.54 1518.52 L1207.54 1523.39 L1201.94 1523.39 Q1198.79 1523.39 1197.55 1524.66 Q1196.34 1525.93 1196.34 1529.24 L1196.34 1532.4 L1205.98 1532.4 L1205.98 1536.95 L1196.34 1536.95 L1196.34 1568.04 L1190.45 1568.04 L1190.45 1536.95 L1184.85 1536.95 L1184.85 1532.4 L1190.45 1532.4 L1190.45 1529.91 Q1190.45 1523.96 1193.22 1521.26 Q1195.99 1518.52 1202 1518.52 L1207.54 1518.52 Z" fill="#000000" fill-rule="nonzero" fill-opacity="1"></path><path clip-path="url(#clip330)" d="M1233.16 1518.52 L1239.02 1518.52 L1239.02 1568.04 L1233.16 1568.04 L1233.16 1518.52 Z" fill="#000000" fill-rule="nonzero" fill-opacity="1"></path><path clip-path="url(#clip330)" d="M1265.09 1536.5 Q1260.38 1536.5 1257.64 1540.19 Q1254.9 1543.85 1254.9 1550.25 Q1254.9 1556.65 1257.61 1560.34 Q1260.34 1564 1265.09 1564 Q1269.77 1564 1272.5 1560.31 Q1275.24 1556.62 1275.24 1550.25 Q1275.24 1543.92 1272.5 1540.23 Q1269.77 1536.5 1265.09 1536.5 M1265.09 1531.54 Q1272.73 1531.54 1277.09 1536.5 Q1281.45 1541.47 1281.45 1550.25 Q1281.45 1559 1277.09 1564 Q1272.73 1568.97 1265.09 1568.97 Q1257.42 1568.97 1253.06 1564 Q1248.73 1559 1248.73 1550.25 Q1248.73 1541.47 1253.06 1536.5 Q1257.42 1531.54 1265.09 1531.54 Z" fill="#000000" fill-rule="nonzero" fill-opacity="1"></path><path clip-path="url(#clip330)" d="M1307.36 1550.12 Q1300.26 1550.12 1297.52 1551.75 Q1294.78 1553.37 1294.78 1557.29 Q1294.78 1560.4 1296.82 1562.25 Q1298.89 1564.07 1302.42 1564.07 Q1307.29 1564.07 1310.22 1560.63 Q1313.18 1557.16 1313.18 1551.43 L1313.18 1550.12 L1307.36 1550.12 M1319.04 1547.71 L1319.04 1568.04 L1313.18 1568.04 L1313.18 1562.63 Q1311.17 1565.88 1308.18 1567.44 Q1305.19 1568.97 1300.86 1568.97 Q1295.39 1568.97 1292.14 1565.91 Q1288.93 1562.82 1288.93 1557.67 Q1288.93 1551.65 1292.94 1548.6 Q1296.98 1545.54 1304.97 1545.54 L1313.18 1545.54 L1313.18 1544.97 Q1313.18 1540.93 1310.51 1538.73 Q1307.86 1536.5 1303.06 1536.5 Q1300 1536.5 1297.11 1537.23 Q1294.21 1537.97 1291.54 1539.43 L1291.54 1534.02 Q1294.75 1532.78 1297.78 1532.17 Q1300.8 1531.54 1303.66 1531.54 Q1311.4 1531.54 1315.22 1535.55 Q1319.04 1539.56 1319.04 1547.71 Z" fill="#000000" fill-rule="nonzero" fill-opacity="1"></path><path clip-path="url(#clip330)" d="M1354.56 1537.81 L1354.56 1518.52 L1360.41 1518.52 L1360.41 1568.04 L1354.56 1568.04 L1354.56 1562.7 Q1352.71 1565.88 1349.88 1567.44 Q1347.08 1568.97 1343.13 1568.97 Q1336.67 1568.97 1332.6 1563.81 Q1328.55 1558.65 1328.55 1550.25 Q1328.55 1541.85 1332.6 1536.69 Q1336.67 1531.54 1343.13 1531.54 Q1347.08 1531.54 1349.88 1533.1 Q1352.71 1534.62 1354.56 1537.81 M1334.6 1550.25 Q1334.6 1556.71 1337.24 1560.4 Q1339.92 1564.07 1344.56 1564.07 Q1349.21 1564.07 1351.88 1560.4 Q1354.56 1556.71 1354.56 1550.25 Q1354.56 1543.79 1351.88 1540.13 Q1349.21 1536.44 1344.56 1536.44 Q1339.92 1536.44 1337.24 1540.13 Q1334.6 1543.79 1334.6 1550.25 Z" fill="#000000" fill-rule="nonzero" fill-opacity="1"></path><path clip-path="url(#clip330)" d="M1415.92 1533.45 L1415.92 1538.98 Q1413.44 1537.71 1410.77 1537.07 Q1408.09 1536.44 1405.23 1536.44 Q1400.87 1536.44 1398.67 1537.77 Q1396.51 1539.11 1396.51 1541.79 Q1396.51 1543.82 1398.07 1545 Q1399.63 1546.15 1404.34 1547.2 L1406.34 1547.64 Q1412.58 1548.98 1415.19 1551.43 Q1417.83 1553.85 1417.83 1558.21 Q1417.83 1563.17 1413.89 1566.07 Q1409.97 1568.97 1403.1 1568.97 Q1400.23 1568.97 1397.11 1568.39 Q1394.02 1567.85 1390.59 1566.74 L1390.59 1560.69 Q1393.83 1562.38 1396.98 1563.24 Q1400.14 1564.07 1403.22 1564.07 Q1407.36 1564.07 1409.59 1562.66 Q1411.82 1561.23 1411.82 1558.65 Q1411.82 1556.27 1410.19 1554.99 Q1408.6 1553.72 1403.16 1552.54 L1401.12 1552.07 Q1395.68 1550.92 1393.26 1548.56 Q1390.84 1546.18 1390.84 1542.04 Q1390.84 1537.01 1394.41 1534.27 Q1397.97 1531.54 1404.53 1531.54 Q1407.77 1531.54 1410.64 1532.01 Q1413.5 1532.49 1415.92 1533.45 Z" fill="#000000" fill-rule="nonzero" fill-opacity="1"></path><path clip-path="url(#clip330)" d="M1456.79 1546.53 L1456.79 1568.04 L1450.93 1568.04 L1450.93 1546.72 Q1450.93 1541.66 1448.96 1539.14 Q1446.99 1536.63 1443.04 1536.63 Q1438.3 1536.63 1435.56 1539.65 Q1432.82 1542.68 1432.82 1547.9 L1432.82 1568.04 L1426.94 1568.04 L1426.94 1518.52 L1432.82 1518.52 L1432.82 1537.93 Q1434.92 1534.72 1437.76 1533.13 Q1440.62 1531.54 1444.35 1531.54 Q1450.49 1531.54 1453.64 1535.36 Q1456.79 1539.14 1456.79 1546.53 Z" fill="#000000" fill-rule="nonzero" fill-opacity="1"></path><path clip-path="url(#clip330)" d="M1498.96 1548.76 L1498.96 1551.62 L1472.04 1551.62 Q1472.42 1557.67 1475.66 1560.85 Q1478.94 1564 1484.77 1564 Q1488.14 1564 1491.29 1563.17 Q1494.48 1562.35 1497.59 1560.69 L1497.59 1566.23 Q1494.44 1567.57 1491.13 1568.27 Q1487.82 1568.97 1484.42 1568.97 Q1475.89 1568.97 1470.89 1564 Q1465.93 1559.04 1465.93 1550.57 Q1465.93 1541.82 1470.64 1536.69 Q1475.38 1531.54 1483.4 1531.54 Q1490.59 1531.54 1494.76 1536.18 Q1498.96 1540.8 1498.96 1548.76 M1493.11 1547.04 Q1493.04 1542.23 1490.4 1539.37 Q1487.79 1536.5 1483.46 1536.5 Q1478.56 1536.5 1475.6 1539.27 Q1472.67 1542.04 1472.23 1547.07 L1493.11 1547.04 Z" fill="#000000" fill-rule="nonzero" fill-opacity="1"></path><path clip-path="url(#clip330)" d="M1532.03 1537.81 L1532.03 1518.52 L1537.89 1518.52 L1537.89 1568.04 L1532.03 1568.04 L1532.03 1562.7 Q1530.19 1565.88 1527.35 1567.44 Q1524.55 1568.97 1520.61 1568.97 Q1514.15 1568.97 1510.07 1563.81 Q1506.03 1558.65 1506.03 1550.25 Q1506.03 1541.85 1510.07 1536.69 Q1514.15 1531.54 1520.61 1531.54 Q1524.55 1531.54 1527.35 1533.1 Q1530.19 1534.62 1532.03 1537.81 M1512.08 1550.25 Q1512.08 1556.71 1514.72 1560.4 Q1517.39 1564.07 1522.04 1564.07 Q1526.69 1564.07 1529.36 1560.4 Q1532.03 1556.71 1532.03 1550.25 Q1532.03 1543.79 1529.36 1540.13 Q1526.69 1536.44 1522.04 1536.44 Q1517.39 1536.44 1514.72 1540.13 Q1512.08 1543.79 1512.08 1550.25 Z" fill="#000000" fill-rule="nonzero" fill-opacity="1"></path><polyline clip-path="url(#clip332)" style="stroke:#000000; stroke-linecap:round; stroke-linejoin:round; stroke-width:2; stroke-opacity:0.1; fill:none" points="249.542,1386.4 2352.76,1386.4 "></polyline>
<polyline clip-path="url(#clip332)" style="stroke:#000000; stroke-linecap:round; stroke-linejoin:round; stroke-width:2; stroke-opacity:0.1; fill:none" points="249.542,1079.86 2352.76,1079.86 "></polyline>
<polyline clip-path="url(#clip332)" style="stroke:#000000; stroke-linecap:round; stroke-linejoin:round; stroke-width:2; stroke-opacity:0.1; fill:none" points="249.542,773.326 2352.76,773.326 "></polyline>
<polyline clip-path="url(#clip332)" style="stroke:#000000; stroke-linecap:round; stroke-linejoin:round; stroke-width:2; stroke-opacity:0.1; fill:none" points="249.542,466.791 2352.76,466.791 "></polyline>
<polyline clip-path="url(#clip332)" style="stroke:#000000; stroke-linecap:round; stroke-linejoin:round; stroke-width:2; stroke-opacity:0.1; fill:none" points="249.542,160.256 2352.76,160.256 "></polyline>
<polyline clip-path="url(#clip330)" style="stroke:#000000; stroke-linecap:round; stroke-linejoin:round; stroke-width:4; stroke-opacity:1; fill:none" points="249.542,1423.18 249.542,123.472 "></polyline>
<polyline clip-path="url(#clip330)" style="stroke:#000000; stroke-linecap:round; stroke-linejoin:round; stroke-width:4; stroke-opacity:1; fill:none" points="249.542,1386.4 268.44,1386.4 "></polyline>
<polyline clip-path="url(#clip330)" style="stroke:#000000; stroke-linecap:round; stroke-linejoin:round; stroke-width:4; stroke-opacity:1; fill:none" points="249.542,1079.86 268.44,1079.86 "></polyline>
<polyline clip-path="url(#clip330)" style="stroke:#000000; stroke-linecap:round; stroke-linejoin:round; stroke-width:4; stroke-opacity:1; fill:none" points="249.542,773.326 268.44,773.326 "></polyline>
<polyline clip-path="url(#clip330)" style="stroke:#000000; stroke-linecap:round; stroke-linejoin:round; stroke-width:4; stroke-opacity:1; fill:none" points="249.542,466.791 268.44,466.791 "></polyline>
<polyline clip-path="url(#clip330)" style="stroke:#000000; stroke-linecap:round; stroke-linejoin:round; stroke-width:4; stroke-opacity:1; fill:none" points="249.542,160.256 268.44,160.256 "></polyline>
<path clip-path="url(#clip330)" d="M126.205 1372.19 Q122.593 1372.19 120.765 1375.76 Q118.959 1379.3 118.959 1386.43 Q118.959 1393.54 120.765 1397.1 Q122.593 1400.64 126.205 1400.64 Q129.839 1400.64 131.644 1397.1 Q133.473 1393.54 133.473 1386.43 Q133.473 1379.3 131.644 1375.76 Q129.839 1372.19 126.205 1372.19 M126.205 1368.49 Q132.015 1368.49 135.07 1373.1 Q138.149 1377.68 138.149 1386.43 Q138.149 1395.16 135.07 1399.76 Q132.015 1404.35 126.205 1404.35 Q120.394 1404.35 117.316 1399.76 Q114.26 1395.16 114.26 1386.43 Q114.26 1377.68 117.316 1373.1 Q120.394 1368.49 126.205 1368.49 Z" fill="#000000" fill-rule="nonzero" fill-opacity="1"></path><path clip-path="url(#clip330)" d="M146.366 1397.8 L151.251 1397.8 L151.251 1403.68 L146.366 1403.68 L146.366 1397.8 Z" fill="#000000" fill-rule="nonzero" fill-opacity="1"></path><path clip-path="url(#clip330)" d="M171.436 1372.19 Q167.825 1372.19 165.996 1375.76 Q164.19 1379.3 164.19 1386.43 Q164.19 1393.54 165.996 1397.1 Q167.825 1400.64 171.436 1400.64 Q175.07 1400.64 176.876 1397.1 Q178.704 1393.54 178.704 1386.43 Q178.704 1379.3 176.876 1375.76 Q175.07 1372.19 171.436 1372.19 M171.436 1368.49 Q177.246 1368.49 180.301 1373.1 Q183.38 1377.68 183.38 1386.43 Q183.38 1395.16 180.301 1399.76 Q177.246 1404.35 171.436 1404.35 Q165.626 1404.35 162.547 1399.76 Q159.491 1395.16 159.491 1386.43 Q159.491 1377.68 162.547 1373.1 Q165.626 1368.49 171.436 1368.49 Z" fill="#000000" fill-rule="nonzero" fill-opacity="1"></path><path clip-path="url(#clip330)" d="M201.598 1372.19 Q197.987 1372.19 196.158 1375.76 Q194.352 1379.3 194.352 1386.43 Q194.352 1393.54 196.158 1397.1 Q197.987 1400.64 201.598 1400.64 Q205.232 1400.64 207.037 1397.1 Q208.866 1393.54 208.866 1386.43 Q208.866 1379.3 207.037 1375.76 Q205.232 1372.19 201.598 1372.19 M201.598 1368.49 Q207.408 1368.49 210.463 1373.1 Q213.542 1377.68 213.542 1386.43 Q213.542 1395.16 210.463 1399.76 Q207.408 1404.35 201.598 1404.35 Q195.787 1404.35 192.709 1399.76 Q189.653 1395.16 189.653 1386.43 Q189.653 1377.68 192.709 1373.1 Q195.787 1368.49 201.598 1368.49 Z" fill="#000000" fill-rule="nonzero" fill-opacity="1"></path><path clip-path="url(#clip330)" d="M127.2 1065.66 Q123.589 1065.66 121.76 1069.22 Q119.955 1072.77 119.955 1079.9 Q119.955 1087 121.76 1090.57 Q123.589 1094.11 127.2 1094.11 Q130.834 1094.11 132.64 1090.57 Q134.468 1087 134.468 1079.9 Q134.468 1072.77 132.64 1069.22 Q130.834 1065.66 127.2 1065.66 M127.2 1061.96 Q133.01 1061.96 136.066 1066.56 Q139.144 1071.15 139.144 1079.9 Q139.144 1088.62 136.066 1093.23 Q133.01 1097.81 127.2 1097.81 Q121.39 1097.81 118.311 1093.23 Q115.256 1088.62 115.256 1079.9 Q115.256 1071.15 118.311 1066.56 Q121.39 1061.96 127.2 1061.96 Z" fill="#000000" fill-rule="nonzero" fill-opacity="1"></path><path clip-path="url(#clip330)" d="M147.362 1091.26 L152.246 1091.26 L152.246 1097.14 L147.362 1097.14 L147.362 1091.26 Z" fill="#000000" fill-rule="nonzero" fill-opacity="1"></path><path clip-path="url(#clip330)" d="M166.459 1093.21 L182.778 1093.21 L182.778 1097.14 L160.834 1097.14 L160.834 1093.21 Q163.496 1090.45 168.079 1085.82 Q172.686 1081.17 173.866 1079.83 Q176.112 1077.3 176.991 1075.57 Q177.894 1073.81 177.894 1072.12 Q177.894 1069.36 175.95 1067.63 Q174.028 1065.89 170.927 1065.89 Q168.727 1065.89 166.274 1066.65 Q163.843 1067.42 161.065 1068.97 L161.065 1064.25 Q163.89 1063.11 166.343 1062.53 Q168.797 1061.96 170.834 1061.96 Q176.204 1061.96 179.399 1064.64 Q182.593 1067.33 182.593 1071.82 Q182.593 1073.95 181.783 1075.87 Q180.996 1077.77 178.889 1080.36 Q178.311 1081.03 175.209 1084.25 Q172.107 1087.44 166.459 1093.21 Z" fill="#000000" fill-rule="nonzero" fill-opacity="1"></path><path clip-path="url(#clip330)" d="M192.639 1062.58 L210.996 1062.58 L210.996 1066.52 L196.922 1066.52 L196.922 1074.99 Q197.94 1074.64 198.959 1074.48 Q199.977 1074.29 200.996 1074.29 Q206.783 1074.29 210.162 1077.47 Q213.542 1080.64 213.542 1086.05 Q213.542 1091.63 210.07 1094.73 Q206.598 1097.81 200.278 1097.81 Q198.102 1097.81 195.834 1097.44 Q193.588 1097.07 191.181 1096.33 L191.181 1091.63 Q193.264 1092.77 195.487 1093.32 Q197.709 1093.88 200.186 1093.88 Q204.19 1093.88 206.528 1091.77 Q208.866 1089.66 208.866 1086.05 Q208.866 1082.44 206.528 1080.34 Q204.19 1078.23 200.186 1078.23 Q198.311 1078.23 196.436 1078.65 Q194.584 1079.06 192.639 1079.94 L192.639 1062.58 Z" fill="#000000" fill-rule="nonzero" fill-opacity="1"></path><path clip-path="url(#clip330)" d="M126.205 759.125 Q122.593 759.125 120.765 762.689 Q118.959 766.231 118.959 773.361 Q118.959 780.467 120.765 784.032 Q122.593 787.574 126.205 787.574 Q129.839 787.574 131.644 784.032 Q133.473 780.467 133.473 773.361 Q133.473 766.231 131.644 762.689 Q129.839 759.125 126.205 759.125 M126.205 755.421 Q132.015 755.421 135.07 760.027 Q138.149 764.611 138.149 773.361 Q138.149 782.088 135.07 786.694 Q132.015 791.277 126.205 791.277 Q120.394 791.277 117.316 786.694 Q114.26 782.088 114.26 773.361 Q114.26 764.611 117.316 760.027 Q120.394 755.421 126.205 755.421 Z" fill="#000000" fill-rule="nonzero" fill-opacity="1"></path><path clip-path="url(#clip330)" d="M146.366 784.726 L151.251 784.726 L151.251 790.606 L146.366 790.606 L146.366 784.726 Z" fill="#000000" fill-rule="nonzero" fill-opacity="1"></path><path clip-path="url(#clip330)" d="M161.482 756.046 L179.839 756.046 L179.839 759.981 L165.765 759.981 L165.765 768.453 Q166.783 768.106 167.802 767.944 Q168.82 767.759 169.839 767.759 Q175.626 767.759 179.005 770.93 Q182.385 774.101 182.385 779.518 Q182.385 785.097 178.913 788.199 Q175.44 791.277 169.121 791.277 Q166.945 791.277 164.677 790.907 Q162.431 790.537 160.024 789.796 L160.024 785.097 Q162.107 786.231 164.329 786.787 Q166.552 787.342 169.028 787.342 Q173.033 787.342 175.371 785.236 Q177.709 783.129 177.709 779.518 Q177.709 775.907 175.371 773.801 Q173.033 771.694 169.028 771.694 Q167.153 771.694 165.278 772.111 Q163.427 772.527 161.482 773.407 L161.482 756.046 Z" fill="#000000" fill-rule="nonzero" fill-opacity="1"></path><path clip-path="url(#clip330)" d="M201.598 759.125 Q197.987 759.125 196.158 762.689 Q194.352 766.231 194.352 773.361 Q194.352 780.467 196.158 784.032 Q197.987 787.574 201.598 787.574 Q205.232 787.574 207.037 784.032 Q208.866 780.467 208.866 773.361 Q208.866 766.231 207.037 762.689 Q205.232 759.125 201.598 759.125 M201.598 755.421 Q207.408 755.421 210.463 760.027 Q213.542 764.611 213.542 773.361 Q213.542 782.088 210.463 786.694 Q207.408 791.277 201.598 791.277 Q195.787 791.277 192.709 786.694 Q189.653 782.088 189.653 773.361 Q189.653 764.611 192.709 760.027 Q195.787 755.421 201.598 755.421 Z" fill="#000000" fill-rule="nonzero" fill-opacity="1"></path><path clip-path="url(#clip330)" d="M127.2 452.59 Q123.589 452.59 121.76 456.155 Q119.955 459.696 119.955 466.826 Q119.955 473.932 121.76 477.497 Q123.589 481.039 127.2 481.039 Q130.834 481.039 132.64 477.497 Q134.468 473.932 134.468 466.826 Q134.468 459.696 132.64 456.155 Q130.834 452.59 127.2 452.59 M127.2 448.886 Q133.01 448.886 136.066 453.493 Q139.144 458.076 139.144 466.826 Q139.144 475.553 136.066 480.159 Q133.01 484.742 127.2 484.742 Q121.39 484.742 118.311 480.159 Q115.256 475.553 115.256 466.826 Q115.256 458.076 118.311 453.493 Q121.39 448.886 127.2 448.886 Z" fill="#000000" fill-rule="nonzero" fill-opacity="1"></path><path clip-path="url(#clip330)" d="M147.362 478.192 L152.246 478.192 L152.246 484.071 L147.362 484.071 L147.362 478.192 Z" fill="#000000" fill-rule="nonzero" fill-opacity="1"></path><path clip-path="url(#clip330)" d="M161.251 449.511 L183.473 449.511 L183.473 451.502 L170.927 484.071 L166.042 484.071 L177.848 453.446 L161.251 453.446 L161.251 449.511 Z" fill="#000000" fill-rule="nonzero" fill-opacity="1"></path><path clip-path="url(#clip330)" d="M192.639 449.511 L210.996 449.511 L210.996 453.446 L196.922 453.446 L196.922 461.918 Q197.94 461.571 198.959 461.409 Q199.977 461.224 200.996 461.224 Q206.783 461.224 210.162 464.395 Q213.542 467.567 213.542 472.983 Q213.542 478.562 210.07 481.664 Q206.598 484.742 200.278 484.742 Q198.102 484.742 195.834 484.372 Q193.588 484.002 191.181 483.261 L191.181 478.562 Q193.264 479.696 195.487 480.252 Q197.709 480.807 200.186 480.807 Q204.19 480.807 206.528 478.701 Q208.866 476.594 208.866 472.983 Q208.866 469.372 206.528 467.266 Q204.19 465.159 200.186 465.159 Q198.311 465.159 196.436 465.576 Q194.584 465.993 192.639 466.872 L192.639 449.511 Z" fill="#000000" fill-rule="nonzero" fill-opacity="1"></path><path clip-path="url(#clip330)" d="M117.015 173.601 L124.654 173.601 L124.654 147.236 L116.343 148.902 L116.343 144.643 L124.607 142.976 L129.283 142.976 L129.283 173.601 L136.922 173.601 L136.922 177.536 L117.015 177.536 L117.015 173.601 Z" fill="#000000" fill-rule="nonzero" fill-opacity="1"></path><path clip-path="url(#clip330)" d="M146.366 171.657 L151.251 171.657 L151.251 177.536 L146.366 177.536 L146.366 171.657 Z" fill="#000000" fill-rule="nonzero" fill-opacity="1"></path><path clip-path="url(#clip330)" d="M171.436 146.055 Q167.825 146.055 165.996 149.62 Q164.19 153.161 164.19 160.291 Q164.19 167.397 165.996 170.962 Q167.825 174.504 171.436 174.504 Q175.07 174.504 176.876 170.962 Q178.704 167.397 178.704 160.291 Q178.704 153.161 176.876 149.62 Q175.07 146.055 171.436 146.055 M171.436 142.351 Q177.246 142.351 180.301 146.958 Q183.38 151.541 183.38 160.291 Q183.38 169.018 180.301 173.624 Q177.246 178.208 171.436 178.208 Q165.626 178.208 162.547 173.624 Q159.491 169.018 159.491 160.291 Q159.491 151.541 162.547 146.958 Q165.626 142.351 171.436 142.351 Z" fill="#000000" fill-rule="nonzero" fill-opacity="1"></path><path clip-path="url(#clip330)" d="M201.598 146.055 Q197.987 146.055 196.158 149.62 Q194.352 153.161 194.352 160.291 Q194.352 167.397 196.158 170.962 Q197.987 174.504 201.598 174.504 Q205.232 174.504 207.037 170.962 Q208.866 167.397 208.866 160.291 Q208.866 153.161 207.037 149.62 Q205.232 146.055 201.598 146.055 M201.598 142.351 Q207.408 142.351 210.463 146.958 Q213.542 151.541 213.542 160.291 Q213.542 169.018 210.463 173.624 Q207.408 178.208 201.598 178.208 Q195.787 178.208 192.709 173.624 Q189.653 169.018 189.653 160.291 Q189.653 151.541 192.709 146.958 Q195.787 142.351 201.598 142.351 Z" fill="#000000" fill-rule="nonzero" fill-opacity="1"></path><path clip-path="url(#clip330)" d="M16.4842 1309.75 L16.4842 1303.32 L58.5933 1303.32 L58.5933 1280.18 L64.0042 1280.18 L64.0042 1309.75 L16.4842 1309.75 Z" fill="#000000" fill-rule="nonzero" fill-opacity="1"></path><path clip-path="url(#clip330)" d="M28.3562 1273.69 L28.3562 1267.83 L64.0042 1267.83 L64.0042 1273.69 L28.3562 1273.69 M14.479 1273.69 L14.479 1267.83 L21.895 1267.83 L21.895 1273.69 L14.479 1273.69 Z" fill="#000000" fill-rule="nonzero" fill-opacity="1"></path><path clip-path="url(#clip330)" d="M42.4881 1225.94 L64.0042 1225.94 L64.0042 1231.8 L42.679 1231.8 Q37.6183 1231.8 35.1038 1233.77 Q32.5894 1235.75 32.5894 1239.69 Q32.5894 1244.44 35.6131 1247.17 Q38.6368 1249.91 43.8567 1249.91 L64.0042 1249.91 L64.0042 1255.8 L28.3562 1255.8 L28.3562 1249.91 L33.8944 1249.91 Q30.6797 1247.81 29.0883 1244.98 Q27.4968 1242.11 27.4968 1238.39 Q27.4968 1232.25 31.3163 1229.09 Q35.1038 1225.94 42.4881 1225.94 Z" fill="#000000" fill-rule="nonzero" fill-opacity="1"></path><path clip-path="url(#clip330)" d="M44.7161 1183.77 L47.5806 1183.77 L47.5806 1210.7 Q53.6281 1210.32 56.8109 1207.07 Q59.9619 1203.79 59.9619 1197.97 Q59.9619 1194.59 59.1344 1191.44 Q58.3069 1188.26 56.6518 1185.14 L62.1899 1185.14 Q63.5267 1188.29 64.227 1191.6 Q64.9272 1194.91 64.9272 1198.32 Q64.9272 1206.85 59.9619 1211.84 Q54.9967 1216.81 46.5303 1216.81 Q37.7774 1216.81 32.6531 1212.1 Q27.4968 1207.36 27.4968 1199.33 Q27.4968 1192.14 32.1438 1187.97 Q36.7589 1183.77 44.7161 1183.77 M42.9973 1189.63 Q38.1912 1189.69 35.3266 1192.33 Q32.4621 1194.94 32.4621 1199.27 Q32.4621 1204.17 35.2312 1207.13 Q38.0002 1210.06 43.0292 1210.51 L42.9973 1189.63 Z" fill="#000000" fill-rule="nonzero" fill-opacity="1"></path><path clip-path="url(#clip330)" d="M29.4065 1130.71 L34.9447 1130.71 Q33.6716 1133.2 33.035 1135.87 Q32.3984 1138.54 32.3984 1141.41 Q32.3984 1145.77 33.7352 1147.96 Q35.072 1150.13 37.7456 1150.13 Q39.7826 1150.13 40.9603 1148.57 Q42.1061 1147.01 43.1565 1142.3 L43.6021 1140.29 Q44.9389 1134.05 47.3897 1131.44 Q49.8086 1128.8 54.1691 1128.8 Q59.1344 1128.8 62.0308 1132.75 Q64.9272 1136.66 64.9272 1143.54 Q64.9272 1146.4 64.3543 1149.52 Q63.8132 1152.61 62.6992 1156.05 L56.6518 1156.05 Q58.3387 1152.8 59.198 1149.65 Q60.0256 1146.5 60.0256 1143.41 Q60.0256 1139.27 58.6251 1137.05 Q57.1929 1134.82 54.6147 1134.82 Q52.2276 1134.82 50.9545 1136.44 Q49.6813 1138.03 48.5037 1143.48 L48.0262 1145.51 Q46.8804 1150.96 44.5251 1153.37 Q42.138 1155.79 38.0002 1155.79 Q32.9713 1155.79 30.2341 1152.23 Q27.4968 1148.66 27.4968 1142.11 Q27.4968 1138.86 27.9743 1136 Q28.4517 1133.13 29.4065 1130.71 Z" fill="#000000" fill-rule="nonzero" fill-opacity="1"></path><path clip-path="url(#clip330)" d="M18.2347 1113.68 L28.3562 1113.68 L28.3562 1101.62 L32.9077 1101.62 L32.9077 1113.68 L52.2594 1113.68 Q56.6199 1113.68 57.8613 1112.51 Q59.1026 1111.3 59.1026 1107.64 L59.1026 1101.62 L64.0042 1101.62 L64.0042 1107.64 Q64.0042 1114.42 61.4897 1116.99 Q58.9434 1119.57 52.2594 1119.57 L32.9077 1119.57 L32.9077 1123.87 L28.3562 1123.87 L28.3562 1119.57 L18.2347 1119.57 L18.2347 1113.68 Z" fill="#000000" fill-rule="nonzero" fill-opacity="1"></path><path clip-path="url(#clip330)" d="M46.0847 1077.72 Q46.0847 1084.82 47.7079 1087.55 Q49.3312 1090.29 53.2461 1090.29 Q56.3653 1090.29 58.2114 1088.25 Q60.0256 1086.18 60.0256 1082.65 Q60.0256 1077.78 56.5881 1074.85 Q53.1188 1071.89 47.3897 1071.89 L46.0847 1071.89 L46.0847 1077.72 M43.6657 1066.04 L64.0042 1066.04 L64.0042 1071.89 L58.5933 1071.89 Q61.8398 1073.9 63.3994 1076.89 Q64.9272 1079.88 64.9272 1084.21 Q64.9272 1089.69 61.8716 1092.93 Q58.7843 1096.15 53.6281 1096.15 Q47.6125 1096.15 44.5569 1092.14 Q41.5014 1088.09 41.5014 1080.11 L41.5014 1071.89 L40.9285 1071.89 Q36.8862 1071.89 34.6901 1074.57 Q32.4621 1077.21 32.4621 1082.02 Q32.4621 1085.07 33.1941 1087.97 Q33.9262 1090.86 35.3903 1093.54 L29.9795 1093.54 Q28.7381 1090.32 28.1334 1087.3 Q27.4968 1084.27 27.4968 1081.41 Q27.4968 1073.68 31.5072 1069.86 Q35.5176 1066.04 43.6657 1066.04 Z" fill="#000000" fill-rule="nonzero" fill-opacity="1"></path><path clip-path="url(#clip330)" d="M18.2347 1048.18 L28.3562 1048.18 L28.3562 1036.12 L32.9077 1036.12 L32.9077 1048.18 L52.2594 1048.18 Q56.6199 1048.18 57.8613 1047 Q59.1026 1045.79 59.1026 1042.13 L59.1026 1036.12 L64.0042 1036.12 L64.0042 1042.13 Q64.0042 1048.91 61.4897 1051.49 Q58.9434 1054.07 52.2594 1054.07 L32.9077 1054.07 L32.9077 1058.37 L28.3562 1058.37 L28.3562 1054.07 L18.2347 1054.07 L18.2347 1048.18 Z" fill="#000000" fill-rule="nonzero" fill-opacity="1"></path><path clip-path="url(#clip330)" d="M49.9359 1029.02 L28.3562 1029.02 L28.3562 1023.16 L49.7131 1023.16 Q54.7739 1023.16 57.3202 1021.19 Q59.8346 1019.22 59.8346 1015.27 Q59.8346 1010.53 56.8109 1007.79 Q53.7872 1005.02 48.5673 1005.02 L28.3562 1005.02 L28.3562 999.165 L64.0042 999.165 L64.0042 1005.02 L58.5296 1005.02 Q61.7762 1007.15 63.3676 1009.99 Q64.9272 1012.79 64.9272 1016.51 Q64.9272 1022.65 61.1078 1025.84 Q57.2883 1029.02 49.9359 1029.02 M27.4968 1014.28 L27.4968 1014.28 Z" fill="#000000" fill-rule="nonzero" fill-opacity="1"></path><path clip-path="url(#clip330)" d="M29.4065 964.377 L34.9447 964.377 Q33.6716 966.859 33.035 969.533 Q32.3984 972.207 32.3984 975.071 Q32.3984 979.432 33.7352 981.628 Q35.072 983.792 37.7456 983.792 Q39.7826 983.792 40.9603 982.233 Q42.1061 980.673 43.1565 975.962 L43.6021 973.957 Q44.9389 967.719 47.3897 965.109 Q49.8086 962.467 54.1691 962.467 Q59.1344 962.467 62.0308 966.414 Q64.9272 970.329 64.9272 977.204 Q64.9272 980.068 64.3543 983.187 Q63.8132 986.275 62.6992 989.712 L56.6518 989.712 Q58.3387 986.466 59.198 983.315 Q60.0256 980.164 60.0256 977.076 Q60.0256 972.939 58.6251 970.711 Q57.1929 968.483 54.6147 968.483 Q52.2276 968.483 50.9545 970.106 Q49.6813 971.697 48.5037 977.14 L48.0262 979.177 Q46.8804 984.62 44.5251 987.039 Q42.138 989.458 38.0002 989.458 Q32.9713 989.458 30.2341 985.893 Q27.4968 982.328 27.4968 975.771 Q27.4968 972.525 27.9743 969.66 Q28.4517 966.796 29.4065 964.377 Z" fill="#000000" fill-rule="nonzero" fill-opacity="1"></path><path clip-path="url(#clip330)" d="M14.5426 918.353 Q21.8632 922.618 29.0246 924.687 Q36.186 926.755 43.5384 926.755 Q50.8908 926.755 58.1159 924.687 Q65.3091 922.586 72.5979 918.353 L72.5979 923.445 Q65.1182 928.22 57.8931 930.607 Q50.668 932.962 43.5384 932.962 Q36.4406 932.962 29.2474 930.607 Q22.0542 928.251 14.5426 923.445 L14.5426 918.353 Z" fill="#000000" fill-rule="nonzero" fill-opacity="1"></path><path clip-path="url(#clip330)" d="M58.5933 905.048 L58.5933 894.545 L22.3406 894.545 L24.6323 905.971 L18.7758 905.971 L16.4842 894.609 L16.4842 888.179 L58.5933 888.179 L58.5933 877.676 L64.0042 877.676 L64.0042 905.048 L58.5933 905.048 Z" fill="#000000" fill-rule="nonzero" fill-opacity="1"></path><path clip-path="url(#clip330)" d="M34.4036 864.753 L34.4036 823.949 L39.7508 823.949 L39.7508 864.753 L34.4036 864.753 M47.3897 864.753 L47.3897 823.949 L52.8005 823.949 L52.8005 864.753 L47.3897 864.753 Z" fill="#000000" fill-rule="nonzero" fill-opacity="1"></path><path clip-path="url(#clip330)" d="M29.7248 785.246 L35.1993 785.246 Q33.8307 787.728 33.1623 790.243 Q32.4621 792.725 32.4621 795.272 Q32.4621 800.969 36.0905 804.12 Q39.6872 807.271 46.212 807.271 Q52.7369 807.271 56.3653 804.12 Q59.9619 800.969 59.9619 795.272 Q59.9619 792.725 59.2935 790.243 Q58.5933 787.728 57.2247 785.246 L62.6355 785.246 Q63.7814 787.697 64.3543 790.338 Q64.9272 792.948 64.9272 795.908 Q64.9272 803.961 59.8664 808.703 Q54.8057 813.446 46.212 813.446 Q37.491 813.446 32.4939 808.672 Q27.4968 803.865 27.4968 795.526 Q27.4968 792.821 28.0697 790.243 Q28.6108 787.665 29.7248 785.246 Z" fill="#000000" fill-rule="nonzero" fill-opacity="1"></path><path clip-path="url(#clip330)" d="M14.479 775.061 L14.479 769.204 L64.0042 769.204 L64.0042 775.061 L14.479 775.061 Z" fill="#000000" fill-rule="nonzero" fill-opacity="1"></path><path clip-path="url(#clip330)" d="M32.4621 743.137 Q32.4621 747.847 36.1542 750.584 Q39.8145 753.322 46.212 753.322 Q52.6095 753.322 56.3017 750.616 Q59.9619 747.879 59.9619 743.137 Q59.9619 738.458 56.2698 735.721 Q52.5777 732.983 46.212 732.983 Q39.8781 732.983 36.186 735.721 Q32.4621 738.458 32.4621 743.137 M27.4968 743.137 Q27.4968 735.498 32.4621 731.137 Q37.4273 726.777 46.212 726.777 Q54.9649 726.777 59.9619 731.137 Q64.9272 735.498 64.9272 743.137 Q64.9272 750.807 59.9619 755.168 Q54.9649 759.496 46.212 759.496 Q37.4273 759.496 32.4621 755.168 Q27.4968 750.807 27.4968 743.137 Z" fill="#000000" fill-rule="nonzero" fill-opacity="1"></path><path clip-path="url(#clip330)" d="M29.4065 694.343 L34.9447 694.343 Q33.6716 696.826 33.035 699.5 Q32.3984 702.173 32.3984 705.038 Q32.3984 709.398 33.7352 711.595 Q35.072 713.759 37.7456 713.759 Q39.7826 713.759 40.9603 712.199 Q42.1061 710.64 43.1565 705.929 L43.6021 703.924 Q44.9389 697.685 47.3897 695.076 Q49.8086 692.434 54.1691 692.434 Q59.1344 692.434 62.0308 696.381 Q64.9272 700.295 64.9272 707.17 Q64.9272 710.035 64.3543 713.154 Q63.8132 716.242 62.6992 719.679 L56.6518 719.679 Q58.3387 716.432 59.198 713.281 Q60.0256 710.13 60.0256 707.043 Q60.0256 702.905 58.6251 700.677 Q57.1929 698.449 54.6147 698.449 Q52.2276 698.449 50.9545 700.073 Q49.6813 701.664 48.5037 707.107 L48.0262 709.144 Q46.8804 714.586 44.5251 717.005 Q42.138 719.424 38.0002 719.424 Q32.9713 719.424 30.2341 715.86 Q27.4968 712.295 27.4968 705.738 Q27.4968 702.492 27.9743 699.627 Q28.4517 696.762 29.4065 694.343 Z" fill="#000000" fill-rule="nonzero" fill-opacity="1"></path><path clip-path="url(#clip330)" d="M44.7161 652.616 L47.5806 652.616 L47.5806 679.543 Q53.6281 679.161 56.8109 675.915 Q59.9619 672.636 59.9619 666.812 Q59.9619 663.438 59.1344 660.287 Q58.3069 657.104 56.6518 653.985 L62.1899 653.985 Q63.5267 657.136 64.227 660.446 Q64.9272 663.756 64.9272 667.162 Q64.9272 675.692 59.9619 680.689 Q54.9967 685.654 46.5303 685.654 Q37.7774 685.654 32.6531 680.944 Q27.4968 676.201 27.4968 668.18 Q27.4968 660.987 32.1438 656.818 Q36.7589 652.616 44.7161 652.616 M42.9973 658.473 Q38.1912 658.536 35.3266 661.178 Q32.4621 663.788 32.4621 668.117 Q32.4621 673.018 35.2312 675.978 Q38.0002 678.907 43.0292 679.352 L42.9973 658.473 Z" fill="#000000" fill-rule="nonzero" fill-opacity="1"></path><path clip-path="url(#clip330)" d="M33.7671 619.546 L14.479 619.546 L14.479 613.69 L64.0042 613.69 L64.0042 619.546 L58.657 619.546 Q61.8398 621.392 63.3994 624.225 Q64.9272 627.026 64.9272 630.973 Q64.9272 637.434 59.771 641.508 Q54.6147 645.55 46.212 645.55 Q37.8093 645.55 32.6531 641.508 Q27.4968 637.434 27.4968 630.973 Q27.4968 627.026 29.0564 624.225 Q30.5842 621.392 33.7671 619.546 M46.212 639.503 Q52.6732 639.503 56.3653 636.861 Q60.0256 634.188 60.0256 629.541 Q60.0256 624.894 56.3653 622.22 Q52.6732 619.546 46.212 619.546 Q39.7508 619.546 36.0905 622.22 Q32.3984 624.894 32.3984 629.541 Q32.3984 634.188 36.0905 636.861 Q39.7508 639.503 46.212 639.503 Z" fill="#000000" fill-rule="nonzero" fill-opacity="1"></path><path clip-path="url(#clip330)" d="M38.4458 571.199 Q41.024 574.095 43.6021 575.464 Q46.1484 576.801 48.9493 576.801 Q53.5962 576.801 56.6836 573.427 Q59.771 570.053 59.771 564.96 Q59.771 561.937 58.7843 559.295 Q57.7658 556.653 55.7287 554.33 L38.4458 571.199 M34.881 566.711 L51.4319 550.542 Q48.5991 548.664 45.3845 547.614 Q42.138 546.564 38.5095 546.373 L38.5095 540.453 Q42.7109 540.834 46.8167 542.49 Q50.9226 544.145 54.933 547.105 L64.0042 538.225 L64.0042 546.245 L59.3254 550.797 Q62.1581 554.107 63.5586 557.735 Q64.9272 561.364 64.9272 565.533 Q64.9272 573.204 60.5667 578.074 Q56.1743 582.944 49.3312 582.944 Q45.2572 582.944 41.6924 580.811 Q38.0957 578.679 34.9447 574.414 Q32.9395 575.941 30.9661 576.737 Q28.9609 577.533 27.0512 577.533 Q21.895 577.533 18.7758 574 Q15.6248 570.467 15.6248 564.61 Q15.6248 561.969 16.1977 559.359 Q16.7706 556.717 17.9164 554.011 L23.7092 554.011 Q22.2133 556.781 21.4494 559.295 Q20.6537 561.809 20.6537 563.974 Q20.6537 567.316 22.4361 569.416 Q24.1867 571.485 26.9876 571.485 Q28.6108 571.485 30.2659 570.562 Q31.8892 569.607 34.881 566.711 Z" fill="#000000" fill-rule="nonzero" fill-opacity="1"></path><path clip-path="url(#clip330)" d="M20.7174 494.779 Q20.7174 499.744 25.6189 502.258 Q30.4887 504.741 40.2919 504.741 Q50.0633 504.741 54.9649 502.258 Q59.8346 499.744 59.8346 494.779 Q59.8346 489.781 54.9649 487.299 Q50.0633 484.784 40.2919 484.784 Q30.4887 484.784 25.6189 487.299 Q20.7174 489.781 20.7174 494.779 M15.6248 494.779 Q15.6248 486.79 21.9587 482.588 Q28.2607 478.355 40.2919 478.355 Q52.2913 478.355 58.6251 482.588 Q64.9272 486.79 64.9272 494.779 Q64.9272 502.768 58.6251 507.001 Q52.2913 511.202 40.2919 511.202 Q28.2607 511.202 21.9587 507.001 Q15.6248 502.768 15.6248 494.779 Z" fill="#000000" fill-rule="nonzero" fill-opacity="1"></path><path clip-path="url(#clip330)" d="M34.4036 467.12 L34.4036 426.315 L39.7508 426.315 L39.7508 467.12 L34.4036 467.12 M47.3897 467.12 L47.3897 426.315 L52.8005 426.315 L52.8005 467.12 L47.3897 467.12 Z" fill="#000000" fill-rule="nonzero" fill-opacity="1"></path><path clip-path="url(#clip330)" d="M32.4621 399.452 Q32.4621 404.163 36.1542 406.9 Q39.8145 409.637 46.212 409.637 Q52.6095 409.637 56.3017 406.932 Q59.9619 404.195 59.9619 399.452 Q59.9619 394.773 56.2698 392.036 Q52.5777 389.299 46.212 389.299 Q39.8781 389.299 36.186 392.036 Q32.4621 394.773 32.4621 399.452 M27.4968 399.452 Q27.4968 391.813 32.4621 387.453 Q37.4273 383.092 46.212 383.092 Q54.9649 383.092 59.9619 387.453 Q64.9272 391.813 64.9272 399.452 Q64.9272 407.123 59.9619 411.483 Q54.9649 415.812 46.212 415.812 Q37.4273 415.812 32.4621 411.483 Q27.4968 407.123 27.4968 399.452 Z" fill="#000000" fill-rule="nonzero" fill-opacity="1"></path><path clip-path="url(#clip330)" d="M58.657 367.719 L77.5631 367.719 L77.5631 373.607 L28.3562 373.607 L28.3562 367.719 L33.7671 367.719 Q30.5842 365.873 29.0564 363.072 Q27.4968 360.239 27.4968 356.324 Q27.4968 349.831 32.6531 345.789 Q37.8093 341.715 46.212 341.715 Q54.6147 341.715 59.771 345.789 Q64.9272 349.831 64.9272 356.324 Q64.9272 360.239 63.3994 363.072 Q61.8398 365.873 58.657 367.719 M46.212 347.794 Q39.7508 347.794 36.0905 350.468 Q32.3984 353.11 32.3984 357.757 Q32.3984 362.404 36.0905 365.077 Q39.7508 367.719 46.212 367.719 Q52.6732 367.719 56.3653 365.077 Q60.0256 362.404 60.0256 357.757 Q60.0256 353.11 56.3653 350.468 Q52.6732 347.794 46.212 347.794 Z" fill="#000000" fill-rule="nonzero" fill-opacity="1"></path><path clip-path="url(#clip330)" d="M44.7161 301.516 L47.5806 301.516 L47.5806 328.443 Q53.6281 328.061 56.8109 324.814 Q59.9619 321.536 59.9619 315.711 Q59.9619 312.337 59.1344 309.186 Q58.3069 306.004 56.6518 302.884 L62.1899 302.884 Q63.5267 306.035 64.227 309.346 Q64.9272 312.656 64.9272 316.061 Q64.9272 324.591 59.9619 329.588 Q54.9967 334.554 46.5303 334.554 Q37.7774 334.554 32.6531 329.843 Q27.4968 325.101 27.4968 317.08 Q27.4968 309.887 32.1438 305.717 Q36.7589 301.516 44.7161 301.516 M42.9973 307.372 Q38.1912 307.436 35.3266 310.078 Q32.4621 312.688 32.4621 317.016 Q32.4621 321.918 35.2312 324.878 Q38.0002 327.806 43.0292 328.252 L42.9973 307.372 Z" fill="#000000" fill-rule="nonzero" fill-opacity="1"></path><path clip-path="url(#clip330)" d="M42.4881 262.271 L64.0042 262.271 L64.0042 268.128 L42.679 268.128 Q37.6183 268.128 35.1038 270.101 Q32.5894 272.074 32.5894 276.021 Q32.5894 280.764 35.6131 283.501 Q38.6368 286.238 43.8567 286.238 L64.0042 286.238 L64.0042 292.126 L28.3562 292.126 L28.3562 286.238 L33.8944 286.238 Q30.6797 284.137 29.0883 281.305 Q27.4968 278.44 27.4968 274.716 Q27.4968 268.573 31.3163 265.422 Q35.1038 262.271 42.4881 262.271 Z" fill="#000000" fill-rule="nonzero" fill-opacity="1"></path><path clip-path="url(#clip330)" d="M14.5426 251.513 L14.5426 246.421 Q22.0542 241.646 29.2474 239.291 Q36.4406 236.904 43.5384 236.904 Q50.668 236.904 57.8931 239.291 Q65.1182 241.646 72.5979 246.421 L72.5979 251.513 Q65.3091 247.28 58.1159 245.211 Q50.8908 243.11 43.5384 243.11 Q36.186 243.11 29.0246 245.211 Q21.8632 247.28 14.5426 251.513 Z" fill="#000000" fill-rule="nonzero" fill-opacity="1"></path><path clip-path="url(#clip330)" d="M530.89 72.576 L507.8 12.096 L516.347 12.096 L535.508 63.0159 L554.709 12.096 L563.216 12.096 L540.166 72.576 L530.89 72.576 Z" fill="#000000" fill-rule="nonzero" fill-opacity="1"></path><path clip-path="url(#clip330)" d="M585.901 49.7694 Q576.868 49.7694 573.384 51.8354 Q569.9 53.9013 569.9 58.8839 Q569.9 62.8538 572.493 65.2034 Q575.126 67.5124 579.622 67.5124 Q585.82 67.5124 589.547 63.1374 Q593.314 58.7219 593.314 51.4303 L593.314 49.7694 L585.901 49.7694 M600.768 46.6907 L600.768 72.576 L593.314 72.576 L593.314 65.6895 Q590.762 69.8214 586.954 71.8063 Q583.146 73.7508 577.637 73.7508 Q570.67 73.7508 566.538 69.8619 Q562.446 65.9325 562.446 59.3701 Q562.446 51.7138 567.55 47.825 Q572.695 43.9361 582.863 43.9361 L593.314 43.9361 L593.314 43.2069 Q593.314 38.0623 589.911 35.2672 Q586.549 32.4315 580.432 32.4315 Q576.543 32.4315 572.857 33.3632 Q569.171 34.295 565.768 36.1584 L565.768 29.2718 Q569.859 27.692 573.708 26.9223 Q577.556 26.1121 581.202 26.1121 Q591.046 26.1121 595.907 31.2163 Q600.768 36.3204 600.768 46.6907 Z" fill="#000000" fill-rule="nonzero" fill-opacity="1"></path><path clip-path="url(#clip330)" d="M642.411 34.1734 Q641.155 33.4443 639.657 33.1202 Q638.198 32.7556 636.416 32.7556 Q630.096 32.7556 626.694 36.8875 Q623.331 40.9789 623.331 48.6757 L623.331 72.576 L615.837 72.576 L615.837 27.2059 L623.331 27.2059 L623.331 34.2544 Q625.681 30.1225 629.448 28.1376 Q633.216 26.1121 638.603 26.1121 Q639.373 26.1121 640.305 26.2337 Q641.236 26.3147 642.371 26.5172 L642.411 34.1734 Z" fill="#000000" fill-rule="nonzero" fill-opacity="1"></path><path clip-path="url(#clip330)" d="M650.229 27.2059 L657.683 27.2059 L657.683 72.576 L650.229 72.576 L650.229 27.2059 M650.229 9.54393 L657.683 9.54393 L657.683 18.9825 L650.229 18.9825 L650.229 9.54393 Z" fill="#000000" fill-rule="nonzero" fill-opacity="1"></path><path clip-path="url(#clip330)" d="M693.898 49.7694 Q684.865 49.7694 681.381 51.8354 Q677.897 53.9013 677.897 58.8839 Q677.897 62.8538 680.49 65.2034 Q683.123 67.5124 687.619 67.5124 Q693.817 67.5124 697.544 63.1374 Q701.311 58.7219 701.311 51.4303 L701.311 49.7694 L693.898 49.7694 M708.765 46.6907 L708.765 72.576 L701.311 72.576 L701.311 65.6895 Q698.759 69.8214 694.951 71.8063 Q691.144 73.7508 685.634 73.7508 Q678.667 73.7508 674.535 69.8619 Q670.443 65.9325 670.443 59.3701 Q670.443 51.7138 675.548 47.825 Q680.692 43.9361 690.86 43.9361 L701.311 43.9361 L701.311 43.2069 Q701.311 38.0623 697.909 35.2672 Q694.546 32.4315 688.429 32.4315 Q684.541 32.4315 680.854 33.3632 Q677.168 34.295 673.765 36.1584 L673.765 29.2718 Q677.857 27.692 681.705 26.9223 Q685.553 26.1121 689.199 26.1121 Q699.043 26.1121 703.904 31.2163 Q708.765 36.3204 708.765 46.6907 Z" fill="#000000" fill-rule="nonzero" fill-opacity="1"></path><path clip-path="url(#clip330)" d="M731.491 14.324 L731.491 27.2059 L746.843 27.2059 L746.843 32.9987 L731.491 32.9987 L731.491 57.6282 Q731.491 63.1779 732.989 64.7578 Q734.529 66.3376 739.187 66.3376 L746.843 66.3376 L746.843 72.576 L739.187 72.576 Q730.559 72.576 727.278 69.3758 Q723.996 66.1351 723.996 57.6282 L723.996 32.9987 L718.528 32.9987 L718.528 27.2059 L723.996 27.2059 L723.996 14.324 L731.491 14.324 Z" fill="#000000" fill-rule="nonzero" fill-opacity="1"></path><path clip-path="url(#clip330)" d="M756.647 27.2059 L764.1 27.2059 L764.1 72.576 L756.647 72.576 L756.647 27.2059 M756.647 9.54393 L764.1 9.54393 L764.1 18.9825 L756.647 18.9825 L756.647 9.54393 Z" fill="#000000" fill-rule="nonzero" fill-opacity="1"></path><path clip-path="url(#clip330)" d="M797.277 32.4315 Q791.282 32.4315 787.798 37.1306 Q784.314 41.7891 784.314 49.9314 Q784.314 58.0738 787.758 62.7728 Q791.241 67.4314 797.277 67.4314 Q803.232 67.4314 806.716 62.7323 Q810.2 58.0333 810.2 49.9314 Q810.2 41.8701 806.716 37.1711 Q803.232 32.4315 797.277 32.4315 M797.277 26.1121 Q806.999 26.1121 812.549 32.4315 Q818.099 38.7509 818.099 49.9314 Q818.099 61.0714 812.549 67.4314 Q806.999 73.7508 797.277 73.7508 Q787.515 73.7508 781.965 67.4314 Q776.456 61.0714 776.456 49.9314 Q776.456 38.7509 781.965 32.4315 Q787.515 26.1121 797.277 26.1121 Z" fill="#000000" fill-rule="nonzero" fill-opacity="1"></path><path clip-path="url(#clip330)" d="M868.168 45.1919 L868.168 72.576 L860.714 72.576 L860.714 45.4349 Q860.714 38.994 858.203 35.7938 Q855.691 32.5936 850.668 32.5936 Q844.632 32.5936 841.149 36.4419 Q837.665 40.2903 837.665 46.9338 L837.665 72.576 L830.171 72.576 L830.171 27.2059 L837.665 27.2059 L837.665 34.2544 Q840.338 30.163 843.944 28.1376 Q847.589 26.1121 852.329 26.1121 Q860.147 26.1121 864.158 30.9732 Q868.168 35.7938 868.168 45.1919 Z" fill="#000000" fill-rule="nonzero" fill-opacity="1"></path><path clip-path="url(#clip330)" d="M926.987 32.4315 Q920.992 32.4315 917.508 37.1306 Q914.024 41.7891 914.024 49.9314 Q914.024 58.0738 917.468 62.7728 Q920.951 67.4314 926.987 67.4314 Q932.942 67.4314 936.426 62.7323 Q939.91 58.0333 939.91 49.9314 Q939.91 41.8701 936.426 37.1711 Q932.942 32.4315 926.987 32.4315 M926.987 26.1121 Q936.709 26.1121 942.259 32.4315 Q947.809 38.7509 947.809 49.9314 Q947.809 61.0714 942.259 67.4314 Q936.709 73.7508 926.987 73.7508 Q917.225 73.7508 911.675 67.4314 Q906.166 61.0714 906.166 49.9314 Q906.166 38.7509 911.675 32.4315 Q917.225 26.1121 926.987 26.1121 Z" fill="#000000" fill-rule="nonzero" fill-opacity="1"></path><path clip-path="url(#clip330)" d="M983.133 9.54393 L983.133 15.7418 L976.003 15.7418 Q971.993 15.7418 970.413 17.3622 Q968.874 18.9825 968.874 23.1955 L968.874 27.2059 L981.148 27.2059 L981.148 32.9987 L968.874 32.9987 L968.874 72.576 L961.379 72.576 L961.379 32.9987 L954.25 32.9987 L954.25 27.2059 L961.379 27.2059 L961.379 24.0462 Q961.379 16.471 964.904 13.0277 Q968.428 9.54393 976.084 9.54393 L983.133 9.54393 Z" fill="#000000" fill-rule="nonzero" fill-opacity="1"></path><path clip-path="url(#clip330)" d="M1015.74 9.54393 L1023.2 9.54393 L1023.2 72.576 L1015.74 72.576 L1015.74 9.54393 Z" fill="#000000" fill-rule="nonzero" fill-opacity="1"></path><path clip-path="url(#clip330)" d="M1038.79 27.2059 L1046.25 27.2059 L1046.25 72.576 L1038.79 72.576 L1038.79 27.2059 M1038.79 9.54393 L1046.25 9.54393 L1046.25 18.9825 L1038.79 18.9825 L1038.79 9.54393 Z" fill="#000000" fill-rule="nonzero" fill-opacity="1"></path><path clip-path="url(#clip330)" d="M1099.56 45.1919 L1099.56 72.576 L1092.1 72.576 L1092.1 45.4349 Q1092.1 38.994 1089.59 35.7938 Q1087.08 32.5936 1082.06 32.5936 Q1076.02 32.5936 1072.54 36.4419 Q1069.05 40.2903 1069.05 46.9338 L1069.05 72.576 L1061.56 72.576 L1061.56 27.2059 L1069.05 27.2059 L1069.05 34.2544 Q1071.73 30.163 1075.33 28.1376 Q1078.98 26.1121 1083.72 26.1121 Q1091.53 26.1121 1095.55 30.9732 Q1099.56 35.7938 1099.56 45.1919 Z" fill="#000000" fill-rule="nonzero" fill-opacity="1"></path><path clip-path="url(#clip330)" d="M1153.23 48.0275 L1153.23 51.6733 L1118.96 51.6733 Q1119.45 59.3701 1123.58 63.421 Q1127.75 67.4314 1135.16 67.4314 Q1139.46 67.4314 1143.47 66.3781 Q1147.52 65.3249 1151.49 63.2184 L1151.49 70.267 Q1147.48 71.9684 1143.26 72.8596 Q1139.05 73.7508 1134.72 73.7508 Q1123.86 73.7508 1117.5 67.4314 Q1111.18 61.1119 1111.18 50.3365 Q1111.18 39.1965 1117.18 32.6746 Q1123.21 26.1121 1133.42 26.1121 Q1142.58 26.1121 1147.88 32.0264 Q1153.23 37.9003 1153.23 48.0275 M1145.78 45.84 Q1145.7 39.7232 1142.33 36.0774 Q1139.01 32.4315 1133.5 32.4315 Q1127.26 32.4315 1123.5 35.9558 Q1119.77 39.4801 1119.2 45.8805 L1145.78 45.84 Z" fill="#000000" fill-rule="nonzero" fill-opacity="1"></path><path clip-path="url(#clip330)" d="M1220.76 28.5427 L1220.76 35.5912 Q1217.6 33.9709 1214.2 33.1607 Q1210.79 32.3505 1207.15 32.3505 Q1201.6 32.3505 1198.8 34.0519 Q1196.05 35.7533 1196.05 39.156 Q1196.05 41.7486 1198.03 43.2475 Q1200.02 44.7058 1206.01 46.0426 L1208.57 46.6097 Q1216.51 48.3111 1219.83 51.4303 Q1223.19 54.509 1223.19 60.0587 Q1223.19 66.3781 1218.17 70.0644 Q1213.18 73.7508 1204.43 73.7508 Q1200.79 73.7508 1196.82 73.0216 Q1192.89 72.3329 1188.51 70.9151 L1188.51 63.2184 Q1192.65 65.3654 1196.66 66.4591 Q1200.67 67.5124 1204.6 67.5124 Q1209.86 67.5124 1212.7 65.73 Q1215.53 63.9071 1215.53 60.6258 Q1215.53 57.5877 1213.47 55.9673 Q1211.44 54.3469 1204.51 52.8481 L1201.92 52.2405 Q1195 50.7821 1191.92 47.7845 Q1188.84 44.7463 1188.84 39.4801 Q1188.84 33.0797 1193.37 29.5959 Q1197.91 26.1121 1206.26 26.1121 Q1210.39 26.1121 1214.03 26.7198 Q1217.68 27.3274 1220.76 28.5427 Z" fill="#000000" fill-rule="nonzero" fill-opacity="1"></path><path clip-path="url(#clip330)" d="M1242.43 14.324 L1242.43 27.2059 L1257.78 27.2059 L1257.78 32.9987 L1242.43 32.9987 L1242.43 57.6282 Q1242.43 63.1779 1243.93 64.7578 Q1245.47 66.3376 1250.13 66.3376 L1257.78 66.3376 L1257.78 72.576 L1250.13 72.576 Q1241.5 72.576 1238.22 69.3758 Q1234.94 66.1351 1234.94 57.6282 L1234.94 32.9987 L1229.47 32.9987 L1229.47 27.2059 L1234.94 27.2059 L1234.94 14.324 L1242.43 14.324 Z" fill="#000000" fill-rule="nonzero" fill-opacity="1"></path><path clip-path="url(#clip330)" d="M1288.21 49.7694 Q1279.17 49.7694 1275.69 51.8354 Q1272.21 53.9013 1272.21 58.8839 Q1272.21 62.8538 1274.8 65.2034 Q1277.43 67.5124 1281.93 67.5124 Q1288.13 67.5124 1291.85 63.1374 Q1295.62 58.7219 1295.62 51.4303 L1295.62 49.7694 L1288.21 49.7694 M1303.07 46.6907 L1303.07 72.576 L1295.62 72.576 L1295.62 65.6895 Q1293.07 69.8214 1289.26 71.8063 Q1285.45 73.7508 1279.94 73.7508 Q1272.97 73.7508 1268.84 69.8619 Q1264.75 65.9325 1264.75 59.3701 Q1264.75 51.7138 1269.86 47.825 Q1275 43.9361 1285.17 43.9361 L1295.62 43.9361 L1295.62 43.2069 Q1295.62 38.0623 1292.22 35.2672 Q1288.85 32.4315 1282.74 32.4315 Q1278.85 32.4315 1275.16 33.3632 Q1271.48 34.295 1268.07 36.1584 L1268.07 29.2718 Q1272.16 27.692 1276.01 26.9223 Q1279.86 26.1121 1283.51 26.1121 Q1293.35 26.1121 1298.21 31.2163 Q1303.07 36.3204 1303.07 46.6907 Z" fill="#000000" fill-rule="nonzero" fill-opacity="1"></path><path clip-path="url(#clip330)" d="M1325.8 14.324 L1325.8 27.2059 L1341.15 27.2059 L1341.15 32.9987 L1325.8 32.9987 L1325.8 57.6282 Q1325.8 63.1779 1327.3 64.7578 Q1328.84 66.3376 1333.5 66.3376 L1341.15 66.3376 L1341.15 72.576 L1333.5 72.576 Q1324.87 72.576 1321.59 69.3758 Q1318.3 66.1351 1318.3 57.6282 L1318.3 32.9987 L1312.84 32.9987 L1312.84 27.2059 L1318.3 27.2059 L1318.3 14.324 L1325.8 14.324 Z" fill="#000000" fill-rule="nonzero" fill-opacity="1"></path><path clip-path="url(#clip330)" d="M1350.19 54.671 L1350.19 27.2059 L1357.64 27.2059 L1357.64 54.3874 Q1357.64 60.8284 1360.15 64.0691 Q1362.66 67.2693 1367.69 67.2693 Q1373.72 67.2693 1377.2 63.421 Q1380.73 59.5726 1380.73 52.9291 L1380.73 27.2059 L1388.18 27.2059 L1388.18 72.576 L1380.73 72.576 L1380.73 65.6084 Q1378.01 69.7404 1374.41 71.7658 Q1370.84 73.7508 1366.11 73.7508 Q1358.29 73.7508 1354.24 68.8897 Q1350.19 64.0286 1350.19 54.671 M1368.94 26.1121 L1368.94 26.1121 Z" fill="#000000" fill-rule="nonzero" fill-opacity="1"></path><path clip-path="url(#clip330)" d="M1432.46 28.5427 L1432.46 35.5912 Q1429.3 33.9709 1425.9 33.1607 Q1422.49 32.3505 1418.85 32.3505 Q1413.3 32.3505 1410.5 34.0519 Q1407.75 35.7533 1407.75 39.156 Q1407.75 41.7486 1409.73 43.2475 Q1411.72 44.7058 1417.71 46.0426 L1420.27 46.6097 Q1428.21 48.3111 1431.53 51.4303 Q1434.89 54.509 1434.89 60.0587 Q1434.89 66.3781 1429.87 70.0644 Q1424.88 73.7508 1416.13 73.7508 Q1412.49 73.7508 1408.52 73.0216 Q1404.59 72.3329 1400.21 70.9151 L1400.21 63.2184 Q1404.35 65.3654 1408.36 66.4591 Q1412.37 67.5124 1416.3 67.5124 Q1421.56 67.5124 1424.4 65.73 Q1427.23 63.9071 1427.23 60.6258 Q1427.23 57.5877 1425.17 55.9673 Q1423.14 54.3469 1416.21 52.8481 L1413.62 52.2405 Q1406.7 50.7821 1403.62 47.7845 Q1400.54 44.7463 1400.54 39.4801 Q1400.54 33.0797 1405.07 29.5959 Q1409.61 26.1121 1417.96 26.1121 Q1422.09 26.1121 1425.73 26.7198 Q1429.38 27.3274 1432.46 28.5427 Z" fill="#000000" fill-rule="nonzero" fill-opacity="1"></path><path clip-path="url(#clip330)" d="M1468.8 27.2059 L1476.25 27.2059 L1485.57 62.6108 L1494.84 27.2059 L1503.63 27.2059 L1512.95 62.6108 L1522.23 27.2059 L1529.68 27.2059 L1517.81 72.576 L1509.02 72.576 L1499.26 35.3887 L1489.46 72.576 L1480.66 72.576 L1468.8 27.2059 Z" fill="#000000" fill-rule="nonzero" fill-opacity="1"></path><path clip-path="url(#clip330)" d="M1540.98 27.2059 L1548.44 27.2059 L1548.44 72.576 L1540.98 72.576 L1540.98 27.2059 M1540.98 9.54393 L1548.44 9.54393 L1548.44 18.9825 L1540.98 18.9825 L1540.98 9.54393 Z" fill="#000000" fill-rule="nonzero" fill-opacity="1"></path><path clip-path="url(#clip330)" d="M1571.41 14.324 L1571.41 27.2059 L1586.76 27.2059 L1586.76 32.9987 L1571.41 32.9987 L1571.41 57.6282 Q1571.41 63.1779 1572.9 64.7578 Q1574.44 66.3376 1579.1 66.3376 L1586.76 66.3376 L1586.76 72.576 L1579.1 72.576 Q1570.47 72.576 1567.19 69.3758 Q1563.91 66.1351 1563.91 57.6282 L1563.91 32.9987 L1558.44 32.9987 L1558.44 27.2059 L1563.91 27.2059 L1563.91 14.324 L1571.41 14.324 Z" fill="#000000" fill-rule="nonzero" fill-opacity="1"></path><path clip-path="url(#clip330)" d="M1634.28 45.1919 L1634.28 72.576 L1626.82 72.576 L1626.82 45.4349 Q1626.82 38.994 1624.31 35.7938 Q1621.8 32.5936 1616.78 32.5936 Q1610.74 32.5936 1607.26 36.4419 Q1603.77 40.2903 1603.77 46.9338 L1603.77 72.576 L1596.28 72.576 L1596.28 9.54393 L1603.77 9.54393 L1603.77 34.2544 Q1606.45 30.163 1610.05 28.1376 Q1613.7 26.1121 1618.44 26.1121 Q1626.25 26.1121 1630.26 30.9732 Q1634.28 35.7938 1634.28 45.1919 Z" fill="#000000" fill-rule="nonzero" fill-opacity="1"></path><path clip-path="url(#clip330)" d="M1675.84 12.096 L1684.02 12.096 L1684.02 65.6895 L1713.47 65.6895 L1713.47 72.576 L1675.84 72.576 L1675.84 12.096 Z" fill="#000000" fill-rule="nonzero" fill-opacity="1"></path><path clip-path="url(#clip330)" d="M1737.86 32.4315 Q1731.86 32.4315 1728.38 37.1306 Q1724.89 41.7891 1724.89 49.9314 Q1724.89 58.0738 1728.34 62.7728 Q1731.82 67.4314 1737.86 67.4314 Q1743.81 67.4314 1747.3 62.7323 Q1750.78 58.0333 1750.78 49.9314 Q1750.78 41.8701 1747.3 37.1711 Q1743.81 32.4315 1737.86 32.4315 M1737.86 26.1121 Q1747.58 26.1121 1753.13 32.4315 Q1758.68 38.7509 1758.68 49.9314 Q1758.68 61.0714 1753.13 67.4314 Q1747.58 73.7508 1737.86 73.7508 Q1728.09 73.7508 1722.54 67.4314 Q1717.04 61.0714 1717.04 49.9314 Q1717.04 38.7509 1722.54 32.4315 Q1728.09 26.1121 1737.86 26.1121 Z" fill="#000000" fill-rule="nonzero" fill-opacity="1"></path><path clip-path="url(#clip330)" d="M1791.65 49.7694 Q1782.62 49.7694 1779.14 51.8354 Q1775.65 53.9013 1775.65 58.8839 Q1775.65 62.8538 1778.24 65.2034 Q1780.88 67.5124 1785.37 67.5124 Q1791.57 67.5124 1795.3 63.1374 Q1799.07 58.7219 1799.07 51.4303 L1799.07 49.7694 L1791.65 49.7694 M1806.52 46.6907 L1806.52 72.576 L1799.07 72.576 L1799.07 65.6895 Q1796.51 69.8214 1792.71 71.8063 Q1788.9 73.7508 1783.39 73.7508 Q1776.42 73.7508 1772.29 69.8619 Q1768.2 65.9325 1768.2 59.3701 Q1768.2 51.7138 1773.3 47.825 Q1778.45 43.9361 1788.61 43.9361 L1799.07 43.9361 L1799.07 43.2069 Q1799.07 38.0623 1795.66 35.2672 Q1792.3 32.4315 1786.18 32.4315 Q1782.3 32.4315 1778.61 33.3632 Q1774.92 34.295 1771.52 36.1584 L1771.52 29.2718 Q1775.61 27.692 1779.46 26.9223 Q1783.31 26.1121 1786.95 26.1121 Q1796.8 26.1121 1801.66 31.2163 Q1806.52 36.3204 1806.52 46.6907 Z" fill="#000000" fill-rule="nonzero" fill-opacity="1"></path><path clip-path="url(#clip330)" d="M1851.73 34.0924 L1851.73 9.54393 L1859.18 9.54393 L1859.18 72.576 L1851.73 72.576 L1851.73 65.7705 Q1849.38 69.8214 1845.77 71.8063 Q1842.21 73.7508 1837.18 73.7508 Q1828.96 73.7508 1823.78 67.1883 Q1818.63 60.6258 1818.63 49.9314 Q1818.63 39.2371 1823.78 32.6746 Q1828.96 26.1121 1837.18 26.1121 Q1842.21 26.1121 1845.77 28.0971 Q1849.38 30.0415 1851.73 34.0924 M1826.33 49.9314 Q1826.33 58.1548 1829.69 62.8538 Q1833.09 67.5124 1839.01 67.5124 Q1844.92 67.5124 1848.32 62.8538 Q1851.73 58.1548 1851.73 49.9314 Q1851.73 41.7081 1848.32 37.0496 Q1844.92 32.3505 1839.01 32.3505 Q1833.09 32.3505 1829.69 37.0496 Q1826.33 41.7081 1826.33 49.9314 Z" fill="#000000" fill-rule="nonzero" fill-opacity="1"></path><path clip-path="url(#clip330)" d="M1937.49 14.0809 L1937.49 22.0612 Q1932.83 19.8332 1928.69 18.7395 Q1924.56 17.6457 1920.71 17.6457 Q1914.03 17.6457 1910.38 20.2383 Q1906.78 22.8309 1906.78 27.611 Q1906.78 31.6214 1909.17 33.6873 Q1911.6 35.7128 1918.32 36.9686 L1923.27 37.9813 Q1932.42 39.7232 1936.76 44.1387 Q1941.13 48.5136 1941.13 55.8863 Q1941.13 64.6767 1935.22 69.2137 Q1929.34 73.7508 1917.96 73.7508 Q1913.67 73.7508 1908.8 72.7785 Q1903.98 71.8063 1898.8 69.9024 L1898.8 61.4765 Q1903.78 64.2716 1908.56 65.6895 Q1913.34 67.1073 1917.96 67.1073 Q1924.97 67.1073 1928.78 64.3527 Q1932.58 61.598 1932.58 56.4939 Q1932.58 52.0379 1929.83 49.5264 Q1927.11 47.0148 1920.88 45.759 L1915.89 44.7868 Q1906.74 42.9639 1902.65 39.075 Q1898.56 35.1862 1898.56 28.2591 Q1898.56 20.2383 1904.19 15.6203 Q1909.86 11.0023 1919.78 11.0023 Q1924.04 11.0023 1928.45 11.7719 Q1932.87 12.5416 1937.49 14.0809 Z" fill="#000000" fill-rule="nonzero" fill-opacity="1"></path><path clip-path="url(#clip330)" d="M1991.28 45.1919 L1991.28 72.576 L1983.83 72.576 L1983.83 45.4349 Q1983.83 38.994 1981.32 35.7938 Q1978.8 32.5936 1973.78 32.5936 Q1967.75 32.5936 1964.26 36.4419 Q1960.78 40.2903 1960.78 46.9338 L1960.78 72.576 L1953.28 72.576 L1953.28 9.54393 L1960.78 9.54393 L1960.78 34.2544 Q1963.45 30.163 1967.06 28.1376 Q1970.7 26.1121 1975.44 26.1121 Q1983.26 26.1121 1987.27 30.9732 Q1991.28 35.7938 1991.28 45.1919 Z" fill="#000000" fill-rule="nonzero" fill-opacity="1"></path><path clip-path="url(#clip330)" d="M2044.96 48.0275 L2044.96 51.6733 L2010.69 51.6733 Q2011.17 59.3701 2015.3 63.421 Q2019.48 67.4314 2026.89 67.4314 Q2031.18 67.4314 2035.19 66.3781 Q2039.24 65.3249 2043.21 63.2184 L2043.21 70.267 Q2039.2 71.9684 2034.99 72.8596 Q2030.78 73.7508 2026.44 73.7508 Q2015.59 73.7508 2009.23 67.4314 Q2002.91 61.1119 2002.91 50.3365 Q2002.91 39.1965 2008.9 32.6746 Q2014.94 26.1121 2025.15 26.1121 Q2034.3 26.1121 2039.61 32.0264 Q2044.96 37.9003 2044.96 48.0275 M2037.5 45.84 Q2037.42 39.7232 2034.06 36.0774 Q2030.74 32.4315 2025.23 32.4315 Q2018.99 32.4315 2015.22 35.9558 Q2011.5 39.4801 2010.93 45.8805 L2037.5 45.84 Z" fill="#000000" fill-rule="nonzero" fill-opacity="1"></path><path clip-path="url(#clip330)" d="M2087.04 34.0924 L2087.04 9.54393 L2094.5 9.54393 L2094.5 72.576 L2087.04 72.576 L2087.04 65.7705 Q2084.7 69.8214 2081.09 71.8063 Q2077.53 73.7508 2072.5 73.7508 Q2064.28 73.7508 2059.09 67.1883 Q2053.95 60.6258 2053.95 49.9314 Q2053.95 39.2371 2059.09 32.6746 Q2064.28 26.1121 2072.5 26.1121 Q2077.53 26.1121 2081.09 28.0971 Q2084.7 30.0415 2087.04 34.0924 M2061.65 49.9314 Q2061.65 58.1548 2065.01 62.8538 Q2068.41 67.5124 2074.32 67.5124 Q2080.24 67.5124 2083.64 62.8538 Q2087.04 58.1548 2087.04 49.9314 Q2087.04 41.7081 2083.64 37.0496 Q2080.24 32.3505 2074.32 32.3505 Q2068.41 32.3505 2065.01 37.0496 Q2061.65 41.7081 2061.65 49.9314 Z" fill="#000000" fill-rule="nonzero" fill-opacity="1"></path><polyline clip-path="url(#clip332)" style="stroke:#009af9; stroke-linecap:round; stroke-linejoin:round; stroke-width:4; stroke-opacity:1; fill:none" points="309.067,1386.4 413.497,1386.4 517.926,1386.4 622.356,1386.4 726.786,1386.4 831.215,1386.4 935.645,1386.4 1040.07,1386.4 1144.5,1386.4 1248.93,1386.4 1353.36,1386.4 1457.79,1386.4 1562.22,160.256 1666.65,160.256 1771.08,1386.4 1875.51,1386.4 1979.94,1386.4 2084.37,1386.4 2188.8,1386.4 2293.23,1386.4 "></polyline>
<polyline clip-path="url(#clip332)" style="stroke:#e26f46; stroke-linecap:round; stroke-linejoin:round; stroke-width:4; stroke-opacity:1; fill:none" points="309.067,160.256 413.497,160.256 517.926,160.256 622.356,160.256 726.786,160.256 831.215,160.256 935.645,160.256 1040.07,160.256 1144.5,160.256 1248.93,160.256 1353.36,160.256 1457.79,160.256 1562.22,1386.4 1666.65,1386.4 1771.08,160.256 1875.51,1386.4 1979.94,1386.4 2084.37,1386.4 2188.8,1386.4 2293.23,1386.4 "></polyline>
<polyline clip-path="url(#clip332)" style="stroke:#3da44d; stroke-linecap:round; stroke-linejoin:round; stroke-width:4; stroke-opacity:1; fill:none" points="309.067,1386.4 413.497,1386.4 517.926,1386.4 622.356,1386.4 726.786,1386.4 831.215,1386.4 935.645,1386.4 1040.07,1386.4 1144.5,1386.4 1248.93,1386.4 1353.36,1386.4 1457.79,1386.4 1562.22,1386.4 1666.65,1386.4 1771.08,1386.4 1875.51,1386.4 1979.94,1386.4 2084.37,1386.4 2188.8,1386.4 2293.23,1386.4 "></polyline>
<polyline clip-path="url(#clip332)" style="stroke:#c271d2; stroke-linecap:round; stroke-linejoin:round; stroke-width:4; stroke-opacity:1; fill:none" points="309.067,1386.4 413.497,1386.4 517.926,1386.4 622.356,1386.4 726.786,1386.4 831.215,1386.4 935.645,1386.4 1040.07,1386.4 1144.5,1386.4 1248.93,1386.4 1353.36,1386.4 1457.79,1386.4 1562.22,1386.4 1666.65,1386.4 1771.08,1386.4 1875.51,1386.4 1979.94,1386.4 2084.37,1386.4 2188.8,1386.4 2293.23,1386.4 "></polyline>
<polyline clip-path="url(#clip332)" style="stroke:#ac8d18; stroke-linecap:round; stroke-linejoin:round; stroke-width:4; stroke-opacity:1; fill:none" points="309.067,1386.4 413.497,1386.4 517.926,1386.4 622.356,1386.4 726.786,1386.4 831.215,1386.4 935.645,1386.4 1040.07,1386.4 1144.5,1386.4 1248.93,1386.4 1353.36,1386.4 1457.79,1386.4 1562.22,1386.4 1666.65,1386.4 1771.08,1386.4 1875.51,1386.4 1979.94,1386.4 2084.37,1386.4 2188.8,1386.4 2293.23,1386.4 "></polyline>
<polyline clip-path="url(#clip332)" style="stroke:#00a9ad; stroke-linecap:round; stroke-linejoin:round; stroke-width:4; stroke-opacity:1; fill:none" points="309.067,160.256 413.497,160.256 517.926,160.256 622.356,160.256 726.786,160.256 831.215,160.256 935.645,160.256 1040.07,160.256 1144.5,160.256 1248.93,160.256 1353.36,160.256 1457.79,160.256 1562.22,1386.4 1666.65,1386.4 1771.08,1386.4 1875.51,1386.4 1979.94,1386.4 2084.37,1386.4 2188.8,1386.4 2293.23,1386.4 "></polyline>
<path clip-path="url(#clip330)" d="M1935.62 529.676 L2282.65 529.676 L2282.65 166.796 L1935.62 166.796  Z" fill="#ffffff" fill-rule="evenodd" fill-opacity="1"></path>
<polyline clip-path="url(#clip330)" style="stroke:#000000; stroke-linecap:round; stroke-linejoin:round; stroke-width:4; stroke-opacity:1; fill:none" points="1935.62,529.676 2282.65,529.676 2282.65,166.796 1935.62,166.796 1935.62,529.676 "></polyline>
<polyline clip-path="url(#clip330)" style="stroke:#009af9; stroke-linecap:round; stroke-linejoin:round; stroke-width:4; stroke-opacity:1; fill:none" points="1958.98,218.636 2099.2,218.636 "></polyline>
<path clip-path="url(#clip330)" d="M2122.57 201.356 L2127.24 201.356 L2127.24 231.981 L2144.07 231.981 L2144.07 235.916 L2122.57 235.916 L2122.57 201.356 Z" fill="#000000" fill-rule="nonzero" fill-opacity="1"></path><path clip-path="url(#clip330)" d="M2148.79 209.99 L2153.05 209.99 L2153.05 235.916 L2148.79 235.916 L2148.79 209.99 M2148.79 199.897 L2153.05 199.897 L2153.05 205.291 L2148.79 205.291 L2148.79 199.897 Z" fill="#000000" fill-rule="nonzero" fill-opacity="1"></path><path clip-path="url(#clip330)" d="M2183.52 220.268 L2183.52 235.916 L2179.26 235.916 L2179.26 220.407 Q2179.26 216.726 2177.82 214.897 Q2176.39 213.069 2173.52 213.069 Q2170.07 213.069 2168.08 215.268 Q2166.09 217.467 2166.09 221.263 L2166.09 235.916 L2161.8 235.916 L2161.8 209.99 L2166.09 209.99 L2166.09 214.018 Q2167.61 211.68 2169.67 210.522 Q2171.76 209.365 2174.47 209.365 Q2178.93 209.365 2181.22 212.143 Q2183.52 214.897 2183.52 220.268 Z" fill="#000000" fill-rule="nonzero" fill-opacity="1"></path><path clip-path="url(#clip330)" d="M2214.19 221.888 L2214.19 223.971 L2194.6 223.971 Q2194.88 228.369 2197.24 230.684 Q2199.63 232.976 2203.86 232.976 Q2206.32 232.976 2208.61 232.374 Q2210.92 231.772 2213.19 230.569 L2213.19 234.596 Q2210.9 235.568 2208.49 236.078 Q2206.09 236.587 2203.61 236.587 Q2197.41 236.587 2193.77 232.976 Q2190.16 229.365 2190.16 223.207 Q2190.16 216.842 2193.59 213.115 Q2197.03 209.365 2202.87 209.365 Q2208.1 209.365 2211.13 212.745 Q2214.19 216.101 2214.19 221.888 M2209.93 220.638 Q2209.88 217.143 2207.96 215.059 Q2206.06 212.976 2202.91 212.976 Q2199.35 212.976 2197.2 214.99 Q2195.07 217.004 2194.74 220.661 L2209.93 220.638 Z" fill="#000000" fill-rule="nonzero" fill-opacity="1"></path><path clip-path="url(#clip330)" d="M2237.66 231.981 L2245.3 231.981 L2245.3 205.615 L2236.99 207.282 L2236.99 203.022 L2245.25 201.356 L2249.93 201.356 L2249.93 231.981 L2257.57 231.981 L2257.57 235.916 L2237.66 235.916 L2237.66 231.981 Z" fill="#000000" fill-rule="nonzero" fill-opacity="1"></path><polyline clip-path="url(#clip330)" style="stroke:#e26f46; stroke-linecap:round; stroke-linejoin:round; stroke-width:4; stroke-opacity:1; fill:none" points="1958.98,270.476 2099.2,270.476 "></polyline>
<path clip-path="url(#clip330)" d="M2122.57 253.196 L2127.24 253.196 L2127.24 283.821 L2144.07 283.821 L2144.07 287.756 L2122.57 287.756 L2122.57 253.196 Z" fill="#000000" fill-rule="nonzero" fill-opacity="1"></path><path clip-path="url(#clip330)" d="M2148.79 261.83 L2153.05 261.83 L2153.05 287.756 L2148.79 287.756 L2148.79 261.83 M2148.79 251.737 L2153.05 251.737 L2153.05 257.131 L2148.79 257.131 L2148.79 251.737 Z" fill="#000000" fill-rule="nonzero" fill-opacity="1"></path><path clip-path="url(#clip330)" d="M2183.52 272.108 L2183.52 287.756 L2179.26 287.756 L2179.26 272.247 Q2179.26 268.566 2177.82 266.737 Q2176.39 264.909 2173.52 264.909 Q2170.07 264.909 2168.08 267.108 Q2166.09 269.307 2166.09 273.103 L2166.09 287.756 L2161.8 287.756 L2161.8 261.83 L2166.09 261.83 L2166.09 265.858 Q2167.61 263.52 2169.67 262.362 Q2171.76 261.205 2174.47 261.205 Q2178.93 261.205 2181.22 263.983 Q2183.52 266.737 2183.52 272.108 Z" fill="#000000" fill-rule="nonzero" fill-opacity="1"></path><path clip-path="url(#clip330)" d="M2214.19 273.728 L2214.19 275.811 L2194.6 275.811 Q2194.88 280.209 2197.24 282.524 Q2199.63 284.816 2203.86 284.816 Q2206.32 284.816 2208.61 284.214 Q2210.92 283.612 2213.19 282.409 L2213.19 286.436 Q2210.9 287.408 2208.49 287.918 Q2206.09 288.427 2203.61 288.427 Q2197.41 288.427 2193.77 284.816 Q2190.16 281.205 2190.16 275.047 Q2190.16 268.682 2193.59 264.955 Q2197.03 261.205 2202.87 261.205 Q2208.1 261.205 2211.13 264.585 Q2214.19 267.941 2214.19 273.728 M2209.93 272.478 Q2209.88 268.983 2207.96 266.899 Q2206.06 264.816 2202.91 264.816 Q2199.35 264.816 2197.2 266.83 Q2195.07 268.844 2194.74 272.501 L2209.93 272.478 Z" fill="#000000" fill-rule="nonzero" fill-opacity="1"></path><path clip-path="url(#clip330)" d="M2240.88 283.821 L2257.2 283.821 L2257.2 287.756 L2235.25 287.756 L2235.25 283.821 Q2237.91 281.066 2242.5 276.436 Q2247.1 271.784 2248.28 270.441 Q2250.53 267.918 2251.41 266.182 Q2252.31 264.423 2252.31 262.733 Q2252.31 259.978 2250.37 258.242 Q2248.45 256.506 2245.34 256.506 Q2243.15 256.506 2240.69 257.27 Q2238.26 258.034 2235.48 259.585 L2235.48 254.862 Q2238.31 253.728 2240.76 253.149 Q2243.22 252.571 2245.25 252.571 Q2250.62 252.571 2253.82 255.256 Q2257.01 257.941 2257.01 262.432 Q2257.01 264.561 2256.2 266.483 Q2255.41 268.381 2253.31 270.973 Q2252.73 271.645 2249.63 274.862 Q2246.53 278.057 2240.88 283.821 Z" fill="#000000" fill-rule="nonzero" fill-opacity="1"></path><polyline clip-path="url(#clip330)" style="stroke:#3da44d; stroke-linecap:round; stroke-linejoin:round; stroke-width:4; stroke-opacity:1; fill:none" points="1958.98,322.316 2099.2,322.316 "></polyline>
<path clip-path="url(#clip330)" d="M2122.57 305.036 L2127.24 305.036 L2127.24 335.661 L2144.07 335.661 L2144.07 339.596 L2122.57 339.596 L2122.57 305.036 Z" fill="#000000" fill-rule="nonzero" fill-opacity="1"></path><path clip-path="url(#clip330)" d="M2148.79 313.67 L2153.05 313.67 L2153.05 339.596 L2148.79 339.596 L2148.79 313.67 M2148.79 303.577 L2153.05 303.577 L2153.05 308.971 L2148.79 308.971 L2148.79 303.577 Z" fill="#000000" fill-rule="nonzero" fill-opacity="1"></path><path clip-path="url(#clip330)" d="M2183.52 323.948 L2183.52 339.596 L2179.26 339.596 L2179.26 324.087 Q2179.26 320.406 2177.82 318.577 Q2176.39 316.749 2173.52 316.749 Q2170.07 316.749 2168.08 318.948 Q2166.09 321.147 2166.09 324.943 L2166.09 339.596 L2161.8 339.596 L2161.8 313.67 L2166.09 313.67 L2166.09 317.698 Q2167.61 315.36 2169.67 314.202 Q2171.76 313.045 2174.47 313.045 Q2178.93 313.045 2181.22 315.823 Q2183.52 318.577 2183.52 323.948 Z" fill="#000000" fill-rule="nonzero" fill-opacity="1"></path><path clip-path="url(#clip330)" d="M2214.19 325.568 L2214.19 327.651 L2194.6 327.651 Q2194.88 332.049 2197.24 334.364 Q2199.63 336.656 2203.86 336.656 Q2206.32 336.656 2208.61 336.054 Q2210.92 335.452 2213.19 334.249 L2213.19 338.276 Q2210.9 339.248 2208.49 339.758 Q2206.09 340.267 2203.61 340.267 Q2197.41 340.267 2193.77 336.656 Q2190.16 333.045 2190.16 326.887 Q2190.16 320.522 2193.59 316.795 Q2197.03 313.045 2202.87 313.045 Q2208.1 313.045 2211.13 316.425 Q2214.19 319.781 2214.19 325.568 M2209.93 324.318 Q2209.88 320.823 2207.96 318.739 Q2206.06 316.656 2202.91 316.656 Q2199.35 316.656 2197.2 318.67 Q2195.07 320.684 2194.74 324.341 L2209.93 324.318 Z" fill="#000000" fill-rule="nonzero" fill-opacity="1"></path><path clip-path="url(#clip330)" d="M2251.02 320.962 Q2254.37 321.679 2256.25 323.948 Q2258.15 326.216 2258.15 329.549 Q2258.15 334.665 2254.63 337.466 Q2251.11 340.267 2244.63 340.267 Q2242.45 340.267 2240.14 339.827 Q2237.84 339.411 2235.39 338.554 L2235.39 334.04 Q2237.34 335.174 2239.65 335.753 Q2241.97 336.332 2244.49 336.332 Q2248.89 336.332 2251.18 334.596 Q2253.49 332.86 2253.49 329.549 Q2253.49 326.494 2251.34 324.781 Q2249.21 323.045 2245.39 323.045 L2241.36 323.045 L2241.36 319.202 L2245.58 319.202 Q2249.03 319.202 2250.85 317.837 Q2252.68 316.448 2252.68 313.855 Q2252.68 311.193 2250.78 309.781 Q2248.91 308.346 2245.39 308.346 Q2243.47 308.346 2241.27 308.763 Q2239.07 309.179 2236.43 310.059 L2236.43 305.892 Q2239.09 305.151 2241.41 304.781 Q2243.75 304.411 2245.81 304.411 Q2251.13 304.411 2254.23 306.841 Q2257.34 309.249 2257.34 313.369 Q2257.34 316.239 2255.69 318.23 Q2254.05 320.198 2251.02 320.962 Z" fill="#000000" fill-rule="nonzero" fill-opacity="1"></path><polyline clip-path="url(#clip330)" style="stroke:#c271d2; stroke-linecap:round; stroke-linejoin:round; stroke-width:4; stroke-opacity:1; fill:none" points="1958.98,374.156 2099.2,374.156 "></polyline>
<path clip-path="url(#clip330)" d="M2122.57 356.876 L2127.24 356.876 L2127.24 387.501 L2144.07 387.501 L2144.07 391.436 L2122.57 391.436 L2122.57 356.876 Z" fill="#000000" fill-rule="nonzero" fill-opacity="1"></path><path clip-path="url(#clip330)" d="M2148.79 365.51 L2153.05 365.51 L2153.05 391.436 L2148.79 391.436 L2148.79 365.51 M2148.79 355.417 L2153.05 355.417 L2153.05 360.811 L2148.79 360.811 L2148.79 355.417 Z" fill="#000000" fill-rule="nonzero" fill-opacity="1"></path><path clip-path="url(#clip330)" d="M2183.52 375.788 L2183.52 391.436 L2179.26 391.436 L2179.26 375.927 Q2179.26 372.246 2177.82 370.417 Q2176.39 368.589 2173.52 368.589 Q2170.07 368.589 2168.08 370.788 Q2166.09 372.987 2166.09 376.783 L2166.09 391.436 L2161.8 391.436 L2161.8 365.51 L2166.09 365.51 L2166.09 369.538 Q2167.61 367.2 2169.67 366.042 Q2171.76 364.885 2174.47 364.885 Q2178.93 364.885 2181.22 367.663 Q2183.52 370.417 2183.52 375.788 Z" fill="#000000" fill-rule="nonzero" fill-opacity="1"></path><path clip-path="url(#clip330)" d="M2214.19 377.408 L2214.19 379.491 L2194.6 379.491 Q2194.88 383.889 2197.24 386.204 Q2199.63 388.496 2203.86 388.496 Q2206.32 388.496 2208.61 387.894 Q2210.92 387.292 2213.19 386.089 L2213.19 390.116 Q2210.9 391.088 2208.49 391.598 Q2206.09 392.107 2203.61 392.107 Q2197.41 392.107 2193.77 388.496 Q2190.16 384.885 2190.16 378.727 Q2190.16 372.362 2193.59 368.635 Q2197.03 364.885 2202.87 364.885 Q2208.1 364.885 2211.13 368.265 Q2214.19 371.621 2214.19 377.408 M2209.93 376.158 Q2209.88 372.663 2207.96 370.579 Q2206.06 368.496 2202.91 368.496 Q2199.35 368.496 2197.2 370.51 Q2195.07 372.524 2194.74 376.181 L2209.93 376.158 Z" fill="#000000" fill-rule="nonzero" fill-opacity="1"></path><path clip-path="url(#clip330)" d="M2249.7 360.95 L2237.89 379.399 L2249.7 379.399 L2249.7 360.95 M2248.47 356.876 L2254.35 356.876 L2254.35 379.399 L2259.28 379.399 L2259.28 383.288 L2254.35 383.288 L2254.35 391.436 L2249.7 391.436 L2249.7 383.288 L2234.09 383.288 L2234.09 378.774 L2248.47 356.876 Z" fill="#000000" fill-rule="nonzero" fill-opacity="1"></path><polyline clip-path="url(#clip330)" style="stroke:#ac8d18; stroke-linecap:round; stroke-linejoin:round; stroke-width:4; stroke-opacity:1; fill:none" points="1958.98,425.996 2099.2,425.996 "></polyline>
<path clip-path="url(#clip330)" d="M2122.57 408.716 L2127.24 408.716 L2127.24 439.341 L2144.07 439.341 L2144.07 443.276 L2122.57 443.276 L2122.57 408.716 Z" fill="#000000" fill-rule="nonzero" fill-opacity="1"></path><path clip-path="url(#clip330)" d="M2148.79 417.35 L2153.05 417.35 L2153.05 443.276 L2148.79 443.276 L2148.79 417.35 M2148.79 407.257 L2153.05 407.257 L2153.05 412.651 L2148.79 412.651 L2148.79 407.257 Z" fill="#000000" fill-rule="nonzero" fill-opacity="1"></path><path clip-path="url(#clip330)" d="M2183.52 427.628 L2183.52 443.276 L2179.26 443.276 L2179.26 427.767 Q2179.26 424.086 2177.82 422.257 Q2176.39 420.429 2173.52 420.429 Q2170.07 420.429 2168.08 422.628 Q2166.09 424.827 2166.09 428.623 L2166.09 443.276 L2161.8 443.276 L2161.8 417.35 L2166.09 417.35 L2166.09 421.378 Q2167.61 419.04 2169.67 417.882 Q2171.76 416.725 2174.47 416.725 Q2178.93 416.725 2181.22 419.503 Q2183.52 422.257 2183.52 427.628 Z" fill="#000000" fill-rule="nonzero" fill-opacity="1"></path><path clip-path="url(#clip330)" d="M2214.19 429.248 L2214.19 431.331 L2194.6 431.331 Q2194.88 435.729 2197.24 438.044 Q2199.63 440.336 2203.86 440.336 Q2206.32 440.336 2208.61 439.734 Q2210.92 439.132 2213.19 437.929 L2213.19 441.956 Q2210.9 442.928 2208.49 443.438 Q2206.09 443.947 2203.61 443.947 Q2197.41 443.947 2193.77 440.336 Q2190.16 436.725 2190.16 430.567 Q2190.16 424.202 2193.59 420.475 Q2197.03 416.725 2202.87 416.725 Q2208.1 416.725 2211.13 420.105 Q2214.19 423.461 2214.19 429.248 M2209.93 427.998 Q2209.88 424.503 2207.96 422.419 Q2206.06 420.336 2202.91 420.336 Q2199.35 420.336 2197.2 422.35 Q2195.07 424.364 2194.74 428.021 L2209.93 427.998 Z" fill="#000000" fill-rule="nonzero" fill-opacity="1"></path><path clip-path="url(#clip330)" d="M2236.9 408.716 L2255.25 408.716 L2255.25 412.651 L2241.18 412.651 L2241.18 421.123 Q2242.2 420.776 2243.22 420.614 Q2244.23 420.429 2245.25 420.429 Q2251.04 420.429 2254.42 423.6 Q2257.8 426.771 2257.8 432.188 Q2257.8 437.766 2254.33 440.868 Q2250.85 443.947 2244.53 443.947 Q2242.36 443.947 2240.09 443.577 Q2237.84 443.206 2235.44 442.466 L2235.44 437.766 Q2237.52 438.901 2239.74 439.456 Q2241.97 440.012 2244.44 440.012 Q2248.45 440.012 2250.78 437.905 Q2253.12 435.799 2253.12 432.188 Q2253.12 428.577 2250.78 426.47 Q2248.45 424.364 2244.44 424.364 Q2242.57 424.364 2240.69 424.78 Q2238.84 425.197 2236.9 426.077 L2236.9 408.716 Z" fill="#000000" fill-rule="nonzero" fill-opacity="1"></path><polyline clip-path="url(#clip330)" style="stroke:#00a9ad; stroke-linecap:round; stroke-linejoin:round; stroke-width:4; stroke-opacity:1; fill:none" points="1958.98,477.836 2099.2,477.836 "></polyline>
<path clip-path="url(#clip330)" d="M2122.57 460.556 L2127.24 460.556 L2127.24 491.181 L2144.07 491.181 L2144.07 495.116 L2122.57 495.116 L2122.57 460.556 Z" fill="#000000" fill-rule="nonzero" fill-opacity="1"></path><path clip-path="url(#clip330)" d="M2148.79 469.19 L2153.05 469.19 L2153.05 495.116 L2148.79 495.116 L2148.79 469.19 M2148.79 459.097 L2153.05 459.097 L2153.05 464.491 L2148.79 464.491 L2148.79 459.097 Z" fill="#000000" fill-rule="nonzero" fill-opacity="1"></path><path clip-path="url(#clip330)" d="M2183.52 479.468 L2183.52 495.116 L2179.26 495.116 L2179.26 479.607 Q2179.26 475.926 2177.82 474.097 Q2176.39 472.269 2173.52 472.269 Q2170.07 472.269 2168.08 474.468 Q2166.09 476.667 2166.09 480.463 L2166.09 495.116 L2161.8 495.116 L2161.8 469.19 L2166.09 469.19 L2166.09 473.218 Q2167.61 470.88 2169.67 469.722 Q2171.76 468.565 2174.47 468.565 Q2178.93 468.565 2181.22 471.343 Q2183.52 474.097 2183.52 479.468 Z" fill="#000000" fill-rule="nonzero" fill-opacity="1"></path><path clip-path="url(#clip330)" d="M2214.19 481.088 L2214.19 483.171 L2194.6 483.171 Q2194.88 487.569 2197.24 489.884 Q2199.63 492.176 2203.86 492.176 Q2206.32 492.176 2208.61 491.574 Q2210.92 490.972 2213.19 489.769 L2213.19 493.796 Q2210.9 494.768 2208.49 495.278 Q2206.09 495.787 2203.61 495.787 Q2197.41 495.787 2193.77 492.176 Q2190.16 488.565 2190.16 482.407 Q2190.16 476.042 2193.59 472.315 Q2197.03 468.565 2202.87 468.565 Q2208.1 468.565 2211.13 471.945 Q2214.19 475.301 2214.19 481.088 M2209.93 479.838 Q2209.88 476.343 2207.96 474.259 Q2206.06 472.176 2202.91 472.176 Q2199.35 472.176 2197.2 474.19 Q2195.07 476.204 2194.74 479.861 L2209.93 479.838 Z" fill="#000000" fill-rule="nonzero" fill-opacity="1"></path><path clip-path="url(#clip330)" d="M2247.43 475.972 Q2244.28 475.972 2242.43 478.125 Q2240.6 480.278 2240.6 484.028 Q2240.6 487.755 2242.43 489.931 Q2244.28 492.083 2247.43 492.083 Q2250.58 492.083 2252.4 489.931 Q2254.26 487.755 2254.26 484.028 Q2254.26 480.278 2252.4 478.125 Q2250.58 475.972 2247.43 475.972 M2256.71 461.32 L2256.71 465.579 Q2254.95 464.746 2253.15 464.306 Q2251.36 463.866 2249.6 463.866 Q2244.97 463.866 2242.52 466.991 Q2240.09 470.116 2239.74 476.435 Q2241.11 474.421 2243.17 473.357 Q2245.23 472.269 2247.71 472.269 Q2252.91 472.269 2255.92 475.44 Q2258.96 478.588 2258.96 484.028 Q2258.96 489.352 2255.81 492.569 Q2252.66 495.787 2247.43 495.787 Q2241.43 495.787 2238.26 491.204 Q2235.09 486.597 2235.09 477.87 Q2235.09 469.676 2238.98 464.815 Q2242.87 459.931 2249.42 459.931 Q2251.18 459.931 2252.96 460.278 Q2254.77 460.625 2256.71 461.32 Z" fill="#000000" fill-rule="nonzero" fill-opacity="1"></path></svg>