<svg xmlns="http://www.w3.org/2000/svg" xmlns:xlink="http://www.w3.org/1999/xlink" width="600" height="400" viewBox="0 0 2400 1600">
<defs>
  <clipPath id="clip950">
    <rect x="0" y="0" width="2400" height="1600"></rect>
  </clipPath>
</defs>
<path clip-path="url(#clip950)" d="M0 1600 L2400 1600 L2400 0 L0 0  Z" fill="#ffffff" fill-rule="evenodd" fill-opacity="1"></path>
<defs>
  <clipPath id="clip951">
    <rect x="480" y="0" width="1681" height="1600"></rect>
  </clipPath>
</defs>
<path clip-path="url(#clip950)" d="M205.121 1423.18 L2352.76 1423.18 L2352.76 123.472 L205.121 123.472  Z" fill="#ffffff" fill-rule="evenodd" fill-opacity="1"></path>
<defs>
  <clipPath id="clip952">
    <rect x="205" y="123" width="2149" height="1301"></rect>
  </clipPath>
</defs>
<polyline clip-path="url(#clip952)" style="stroke:#000000; stroke-linecap:round; stroke-linejoin:round; stroke-width:2; stroke-opacity:0.1; fill:none" points="217.888,1423.18 217.888,123.472 "></polyline>
<polyline clip-path="url(#clip952)" style="stroke:#000000; stroke-linecap:round; stroke-linejoin:round; stroke-width:2; stroke-opacity:0.1; fill:none" points="736.41,1423.18 736.41,123.472 "></polyline>
<polyline clip-path="url(#clip952)" style="stroke:#000000; stroke-linecap:round; stroke-linejoin:round; stroke-width:2; stroke-opacity:0.1; fill:none" points="1254.93,1423.18 1254.93,123.472 "></polyline>
<polyline clip-path="url(#clip952)" style="stroke:#000000; stroke-linecap:round; stroke-linejoin:round; stroke-width:2; stroke-opacity:0.1; fill:none" points="1773.45,1423.18 1773.45,123.472 "></polyline>
<polyline clip-path="url(#clip952)" style="stroke:#000000; stroke-linecap:round; stroke-linejoin:round; stroke-width:2; stroke-opacity:0.1; fill:none" points="2291.97,1423.18 2291.97,123.472 "></polyline>
<polyline clip-path="url(#clip950)" style="stroke:#000000; stroke-linecap:round; stroke-linejoin:round; stroke-width:4; stroke-opacity:1; fill:none" points="205.121,1423.18 2352.76,1423.18 "></polyline>
<polyline clip-path="url(#clip950)" style="stroke:#000000; stroke-linecap:round; stroke-linejoin:round; stroke-width:4; stroke-opacity:1; fill:none" points="217.888,1423.18 217.888,1404.28 "></polyline>
<polyline clip-path="url(#clip950)" style="stroke:#000000; stroke-linecap:round; stroke-linejoin:round; stroke-width:4; stroke-opacity:1; fill:none" points="736.41,1423.18 736.41,1404.28 "></polyline>
<polyline clip-path="url(#clip950)" style="stroke:#000000; stroke-linecap:round; stroke-linejoin:round; stroke-width:4; stroke-opacity:1; fill:none" points="1254.93,1423.18 1254.93,1404.28 "></polyline>
<polyline clip-path="url(#clip950)" style="stroke:#000000; stroke-linecap:round; stroke-linejoin:round; stroke-width:4; stroke-opacity:1; fill:none" points="1773.45,1423.18 1773.45,1404.28 "></polyline>
<polyline clip-path="url(#clip950)" style="stroke:#000000; stroke-linecap:round; stroke-linejoin:round; stroke-width:4; stroke-opacity:1; fill:none" points="2291.97,1423.18 2291.97,1404.28 "></polyline>
<path clip-path="url(#clip950)" d="M217.888 1454.1 Q214.277 1454.1 212.449 1457.66 Q210.643 1461.2 210.643 1468.33 Q210.643 1475.44 212.449 1479.01 Q214.277 1482.55 217.888 1482.55 Q221.523 1482.55 223.328 1479.01 Q225.157 1475.44 225.157 1468.33 Q225.157 1461.2 223.328 1457.66 Q221.523 1454.1 217.888 1454.1 M217.888 1450.39 Q223.698 1450.39 226.754 1455 Q229.833 1459.58 229.833 1468.33 Q229.833 1477.06 226.754 1481.67 Q223.698 1486.25 217.888 1486.25 Q212.078 1486.25 208.999 1481.67 Q205.944 1477.06 205.944 1468.33 Q205.944 1459.58 208.999 1455 Q212.078 1450.39 217.888 1450.39 Z" fill="#000000" fill-rule="nonzero" fill-opacity="1"></path><path clip-path="url(#clip950)" d="M715.681 1481.64 L732 1481.64 L732 1485.58 L710.056 1485.58 L710.056 1481.64 Q712.718 1478.89 717.301 1474.26 Q721.907 1469.61 723.088 1468.27 Q725.333 1465.74 726.213 1464.01 Q727.116 1462.25 727.116 1460.56 Q727.116 1457.8 725.171 1456.07 Q723.25 1454.33 720.148 1454.33 Q717.949 1454.33 715.495 1455.09 Q713.065 1455.86 710.287 1457.41 L710.287 1452.69 Q713.111 1451.55 715.565 1450.97 Q718.019 1450.39 720.056 1450.39 Q725.426 1450.39 728.62 1453.08 Q731.815 1455.77 731.815 1460.26 Q731.815 1462.39 731.005 1464.31 Q730.218 1466.2 728.111 1468.8 Q727.532 1469.47 724.431 1472.69 Q721.329 1475.88 715.681 1481.64 Z" fill="#000000" fill-rule="nonzero" fill-opacity="1"></path><path clip-path="url(#clip950)" d="M741.861 1451.02 L760.217 1451.02 L760.217 1454.96 L746.143 1454.96 L746.143 1463.43 Q747.162 1463.08 748.18 1462.92 Q749.199 1462.73 750.217 1462.73 Q756.004 1462.73 759.384 1465.9 Q762.764 1469.08 762.764 1474.49 Q762.764 1480.07 759.291 1483.17 Q755.819 1486.25 749.5 1486.25 Q747.324 1486.25 745.055 1485.88 Q742.81 1485.51 740.403 1484.77 L740.403 1480.07 Q742.486 1481.2 744.708 1481.76 Q746.93 1482.32 749.407 1482.32 Q753.412 1482.32 755.75 1480.21 Q758.088 1478.1 758.088 1474.49 Q758.088 1470.88 755.75 1468.77 Q753.412 1466.67 749.407 1466.67 Q747.532 1466.67 745.657 1467.08 Q743.805 1467.5 741.861 1468.38 L741.861 1451.02 Z" fill="#000000" fill-rule="nonzero" fill-opacity="1"></path><path clip-path="url(#clip950)" d="M1229.63 1451.02 L1247.99 1451.02 L1247.99 1454.96 L1233.91 1454.96 L1233.91 1463.43 Q1234.93 1463.08 1235.95 1462.92 Q1236.97 1462.73 1237.99 1462.73 Q1243.77 1462.73 1247.15 1465.9 Q1250.53 1469.08 1250.53 1474.49 Q1250.53 1480.07 1247.06 1483.17 Q1243.59 1486.25 1237.27 1486.25 Q1235.09 1486.25 1232.82 1485.88 Q1230.58 1485.51 1228.17 1484.77 L1228.17 1480.07 Q1230.26 1481.2 1232.48 1481.76 Q1234.7 1482.32 1237.18 1482.32 Q1241.18 1482.32 1243.52 1480.21 Q1245.86 1478.1 1245.86 1474.49 Q1245.86 1470.88 1243.52 1468.77 Q1241.18 1466.67 1237.18 1466.67 Q1235.3 1466.67 1233.43 1467.08 Q1231.57 1467.5 1229.63 1468.38 L1229.63 1451.02 Z" fill="#000000" fill-rule="nonzero" fill-opacity="1"></path><path clip-path="url(#clip950)" d="M1269.75 1454.1 Q1266.13 1454.1 1264.31 1457.66 Q1262.5 1461.2 1262.5 1468.33 Q1262.5 1475.44 1264.31 1479.01 Q1266.13 1482.55 1269.75 1482.55 Q1273.38 1482.55 1275.19 1479.01 Q1277.01 1475.44 1277.01 1468.33 Q1277.01 1461.2 1275.19 1457.66 Q1273.38 1454.1 1269.75 1454.1 M1269.75 1450.39 Q1275.56 1450.39 1278.61 1455 Q1281.69 1459.58 1281.69 1468.33 Q1281.69 1477.06 1278.61 1481.67 Q1275.56 1486.25 1269.75 1486.25 Q1263.94 1486.25 1260.86 1481.67 Q1257.8 1477.06 1257.8 1468.33 Q1257.8 1459.58 1260.86 1455 Q1263.94 1450.39 1269.75 1450.39 Z" fill="#000000" fill-rule="nonzero" fill-opacity="1"></path><path clip-path="url(#clip950)" d="M1747.31 1451.02 L1769.53 1451.02 L1769.53 1453.01 L1756.98 1485.58 L1752.1 1485.58 L1763.9 1454.96 L1747.31 1454.96 L1747.31 1451.02 Z" fill="#000000" fill-rule="nonzero" fill-opacity="1"></path><path clip-path="url(#clip950)" d="M1778.7 1451.02 L1797.05 1451.02 L1797.05 1454.96 L1782.98 1454.96 L1782.98 1463.43 Q1784 1463.08 1785.01 1462.92 Q1786.03 1462.73 1787.05 1462.73 Q1792.84 1462.73 1796.22 1465.9 Q1799.6 1469.08 1799.6 1474.49 Q1799.6 1480.07 1796.13 1483.17 Q1792.65 1486.25 1786.33 1486.25 Q1784.16 1486.25 1781.89 1485.88 Q1779.64 1485.51 1777.24 1484.77 L1777.24 1480.07 Q1779.32 1481.2 1781.54 1481.76 Q1783.76 1482.32 1786.24 1482.32 Q1790.25 1482.32 1792.58 1480.21 Q1794.92 1478.1 1794.92 1474.49 Q1794.92 1470.88 1792.58 1468.77 Q1790.25 1466.67 1786.24 1466.67 Q1784.37 1466.67 1782.49 1467.08 Q1780.64 1467.5 1778.7 1468.38 L1778.7 1451.02 Z" fill="#000000" fill-rule="nonzero" fill-opacity="1"></path><path clip-path="url(#clip950)" d="M2251.58 1481.64 L2259.22 1481.64 L2259.22 1455.28 L2250.91 1456.95 L2250.91 1452.69 L2259.17 1451.02 L2263.85 1451.02 L2263.85 1481.64 L2271.49 1481.64 L2271.49 1485.58 L2251.58 1485.58 L2251.58 1481.64 Z" fill="#000000" fill-rule="nonzero" fill-opacity="1"></path><path clip-path="url(#clip950)" d="M2290.93 1454.1 Q2287.32 1454.1 2285.49 1457.66 Q2283.69 1461.2 2283.69 1468.33 Q2283.69 1475.44 2285.49 1479.01 Q2287.32 1482.55 2290.93 1482.55 Q2294.57 1482.55 2296.37 1479.01 Q2298.2 1475.44 2298.2 1468.33 Q2298.2 1461.2 2296.37 1457.66 Q2294.57 1454.1 2290.93 1454.1 M2290.93 1450.39 Q2296.74 1450.39 2299.8 1455 Q2302.88 1459.58 2302.88 1468.33 Q2302.88 1477.06 2299.8 1481.67 Q2296.74 1486.25 2290.93 1486.25 Q2285.12 1486.25 2282.04 1481.67 Q2278.99 1477.06 2278.99 1468.33 Q2278.99 1459.58 2282.04 1455 Q2285.12 1450.39 2290.93 1450.39 Z" fill="#000000" fill-rule="nonzero" fill-opacity="1"></path><path clip-path="url(#clip950)" d="M2321.09 1454.1 Q2317.48 1454.1 2315.65 1457.66 Q2313.85 1461.2 2313.85 1468.33 Q2313.85 1475.44 2315.65 1479.01 Q2317.48 1482.55 2321.09 1482.55 Q2324.73 1482.55 2326.53 1479.01 Q2328.36 1475.44 2328.36 1468.33 Q2328.36 1461.2 2326.53 1457.66 Q2324.73 1454.1 2321.09 1454.1 M2321.09 1450.39 Q2326.9 1450.39 2329.96 1455 Q2333.04 1459.58 2333.04 1468.33 Q2333.04 1477.06 2329.96 1481.67 Q2326.9 1486.25 2321.09 1486.25 Q2315.28 1486.25 2312.21 1481.67 Q2309.15 1477.06 2309.15 1468.33 Q2309.15 1459.58 2312.21 1455 Q2315.28 1450.39 2321.09 1450.39 Z" fill="#000000" fill-rule="nonzero" fill-opacity="1"></path><path clip-path="url(#clip950)" d="M885.41 1525.81 L885.41 1543.66 L893.495 1543.66 Q897.983 1543.66 900.434 1541.34 Q902.884 1539.02 902.884 1534.72 Q902.884 1530.45 900.434 1528.13 Q897.983 1525.81 893.495 1525.81 L885.41 1525.81 M878.981 1520.52 L893.495 1520.52 Q901.484 1520.52 905.558 1524.15 Q909.664 1527.75 909.664 1534.72 Q909.664 1541.75 905.558 1545.35 Q901.484 1548.95 893.495 1548.95 L885.41 1548.95 L885.41 1568.04 L878.981 1568.04 L878.981 1520.52 Z" fill="#000000" fill-rule="nonzero" fill-opacity="1"></path><path clip-path="url(#clip950)" d="M946.203 1548.76 L946.203 1551.62 L919.276 1551.62 Q919.658 1557.67 922.904 1560.85 Q926.183 1564 932.007 1564 Q935.381 1564 938.532 1563.17 Q941.715 1562.35 944.834 1560.69 L944.834 1566.23 Q941.683 1567.57 938.373 1568.27 Q935.063 1568.97 931.657 1568.97 Q923.127 1568.97 918.13 1564 Q913.165 1559.04 913.165 1550.57 Q913.165 1541.82 917.876 1536.69 Q922.618 1531.54 930.639 1531.54 Q937.832 1531.54 942.002 1536.18 Q946.203 1540.8 946.203 1548.76 M940.347 1547.04 Q940.283 1542.23 937.641 1539.37 Q935.031 1536.5 930.702 1536.5 Q925.801 1536.5 922.841 1539.27 Q919.913 1542.04 919.467 1547.07 L940.347 1547.04 Z" fill="#000000" fill-rule="nonzero" fill-opacity="1"></path><path clip-path="url(#clip950)" d="M976.472 1537.87 Q975.485 1537.3 974.308 1537.04 Q973.162 1536.76 971.761 1536.76 Q966.796 1536.76 964.122 1540 Q961.481 1543.22 961.481 1549.27 L961.481 1568.04 L955.592 1568.04 L955.592 1532.4 L961.481 1532.4 L961.481 1537.93 Q963.327 1534.69 966.287 1533.13 Q969.247 1531.54 973.48 1531.54 Q974.085 1531.54 974.817 1531.63 Q975.549 1531.7 976.44 1531.85 L976.472 1537.87 Z" fill="#000000" fill-rule="nonzero" fill-opacity="1"></path><path clip-path="url(#clip950)" d="M1006.84 1533.76 L1006.84 1539.24 Q1004.35 1537.87 1001.84 1537.2 Q999.357 1536.5 996.81 1536.5 Q991.113 1536.5 987.962 1540.13 Q984.811 1543.73 984.811 1550.25 Q984.811 1556.78 987.962 1560.4 Q991.113 1564 996.81 1564 Q999.357 1564 1001.84 1563.33 Q1004.35 1562.63 1006.84 1561.26 L1006.84 1566.68 Q1004.39 1567.82 1001.74 1568.39 Q999.134 1568.97 996.174 1568.97 Q988.121 1568.97 983.379 1563.91 Q978.636 1558.85 978.636 1550.25 Q978.636 1541.53 983.411 1536.53 Q988.217 1531.54 996.556 1531.54 Q999.261 1531.54 1001.84 1532.11 Q1004.42 1532.65 1006.84 1533.76 Z" fill="#000000" fill-rule="nonzero" fill-opacity="1"></path><path clip-path="url(#clip950)" d="M1047.51 1548.76 L1047.51 1551.62 L1020.59 1551.62 Q1020.97 1557.67 1024.21 1560.85 Q1027.49 1564 1033.32 1564 Q1036.69 1564 1039.84 1563.17 Q1043.03 1562.35 1046.14 1560.69 L1046.14 1566.23 Q1042.99 1567.57 1039.68 1568.27 Q1036.37 1568.97 1032.97 1568.97 Q1024.44 1568.97 1019.44 1564 Q1014.48 1559.04 1014.48 1550.57 Q1014.48 1541.82 1019.19 1536.69 Q1023.93 1531.54 1031.95 1531.54 Q1039.14 1531.54 1043.31 1536.18 Q1047.51 1540.8 1047.51 1548.76 M1041.66 1547.04 Q1041.59 1542.23 1038.95 1539.37 Q1036.34 1536.5 1032.01 1536.5 Q1027.11 1536.5 1024.15 1539.27 Q1021.22 1542.04 1020.78 1547.07 L1041.66 1547.04 Z" fill="#000000" fill-rule="nonzero" fill-opacity="1"></path><path clip-path="url(#clip950)" d="M1086.76 1546.53 L1086.76 1568.04 L1080.9 1568.04 L1080.9 1546.72 Q1080.9 1541.66 1078.93 1539.14 Q1076.95 1536.63 1073.01 1536.63 Q1068.27 1536.63 1065.53 1539.65 Q1062.79 1542.68 1062.79 1547.9 L1062.79 1568.04 L1056.9 1568.04 L1056.9 1532.4 L1062.79 1532.4 L1062.79 1537.93 Q1064.89 1534.72 1067.72 1533.13 Q1070.59 1531.54 1074.31 1531.54 Q1080.46 1531.54 1083.61 1535.36 Q1086.76 1539.14 1086.76 1546.53 Z" fill="#000000" fill-rule="nonzero" fill-opacity="1"></path><path clip-path="url(#clip950)" d="M1104.23 1522.27 L1104.23 1532.4 L1116.29 1532.4 L1116.29 1536.95 L1104.23 1536.95 L1104.23 1556.3 Q1104.23 1560.66 1105.41 1561.9 Q1106.62 1563.14 1110.28 1563.14 L1116.29 1563.14 L1116.29 1568.04 L1110.28 1568.04 Q1103.5 1568.04 1100.92 1565.53 Q1098.34 1562.98 1098.34 1556.3 L1098.34 1536.95 L1094.05 1536.95 L1094.05 1532.4 L1098.34 1532.4 L1098.34 1522.27 L1104.23 1522.27 Z" fill="#000000" fill-rule="nonzero" fill-opacity="1"></path><path clip-path="url(#clip950)" d="M1140.2 1550.12 Q1133.1 1550.12 1130.36 1551.75 Q1127.63 1553.37 1127.63 1557.29 Q1127.63 1560.4 1129.66 1562.25 Q1131.73 1564.07 1135.26 1564.07 Q1140.13 1564.07 1143.06 1560.63 Q1146.02 1557.16 1146.02 1551.43 L1146.02 1550.12 L1140.2 1550.12 M1151.88 1547.71 L1151.88 1568.04 L1146.02 1568.04 L1146.02 1562.63 Q1144.02 1565.88 1141.03 1567.44 Q1138.03 1568.97 1133.7 1568.97 Q1128.23 1568.97 1124.98 1565.91 Q1121.77 1562.82 1121.77 1557.67 Q1121.77 1551.65 1125.78 1548.6 Q1129.82 1545.54 1137.81 1545.54 L1146.02 1545.54 L1146.02 1544.97 Q1146.02 1540.93 1143.35 1538.73 Q1140.71 1536.5 1135.9 1536.5 Q1132.85 1536.5 1129.95 1537.23 Q1127.05 1537.97 1124.38 1539.43 L1124.38 1534.02 Q1127.59 1532.78 1130.62 1532.17 Q1133.64 1531.54 1136.51 1531.54 Q1144.24 1531.54 1148.06 1535.55 Q1151.88 1539.56 1151.88 1547.71 Z" fill="#000000" fill-rule="nonzero" fill-opacity="1"></path><path clip-path="url(#clip950)" d="M1187.4 1549.81 Q1187.4 1543.44 1184.76 1539.94 Q1182.15 1536.44 1177.41 1536.44 Q1172.69 1536.44 1170.05 1539.94 Q1167.44 1543.44 1167.44 1549.81 Q1167.44 1556.14 1170.05 1559.64 Q1172.69 1563.14 1177.41 1563.14 Q1182.15 1563.14 1184.76 1559.64 Q1187.4 1556.14 1187.4 1549.81 M1193.26 1563.62 Q1193.26 1572.72 1189.21 1577.15 Q1185.17 1581.6 1176.83 1581.6 Q1173.75 1581.6 1171.01 1581.13 Q1168.27 1580.68 1165.69 1579.72 L1165.69 1574.03 Q1168.27 1575.43 1170.79 1576.1 Q1173.3 1576.76 1175.91 1576.76 Q1181.67 1576.76 1184.54 1573.74 Q1187.4 1570.75 1187.4 1564.67 L1187.4 1561.77 Q1185.59 1564.92 1182.75 1566.48 Q1179.92 1568.04 1175.97 1568.04 Q1169.42 1568.04 1165.41 1563.05 Q1161.4 1558.05 1161.4 1549.81 Q1161.4 1541.53 1165.41 1536.53 Q1169.42 1531.54 1175.97 1531.54 Q1179.92 1531.54 1182.75 1533.1 Q1185.59 1534.66 1187.4 1537.81 L1187.4 1532.4 L1193.26 1532.4 L1193.26 1563.62 Z" fill="#000000" fill-rule="nonzero" fill-opacity="1"></path><path clip-path="url(#clip950)" d="M1235.81 1548.76 L1235.81 1551.62 L1208.88 1551.62 Q1209.27 1557.67 1212.51 1560.85 Q1215.79 1564 1221.62 1564 Q1224.99 1564 1228.14 1563.17 Q1231.32 1562.35 1234.44 1560.69 L1234.44 1566.23 Q1231.29 1567.57 1227.98 1568.27 Q1224.67 1568.97 1221.27 1568.97 Q1212.74 1568.97 1207.74 1564 Q1202.77 1559.04 1202.77 1550.57 Q1202.77 1541.82 1207.48 1536.69 Q1212.23 1531.54 1220.25 1531.54 Q1227.44 1531.54 1231.61 1536.18 Q1235.81 1540.8 1235.81 1548.76 M1229.95 1547.04 Q1229.89 1542.23 1227.25 1539.37 Q1224.64 1536.5 1220.31 1536.5 Q1215.41 1536.5 1212.45 1539.27 Q1209.52 1542.04 1209.07 1547.07 L1229.95 1547.04 Z" fill="#000000" fill-rule="nonzero" fill-opacity="1"></path><path clip-path="url(#clip950)" d="M1279.96 1536.5 Q1275.25 1536.5 1272.51 1540.19 Q1269.77 1543.85 1269.77 1550.25 Q1269.77 1556.65 1272.48 1560.34 Q1275.21 1564 1279.96 1564 Q1284.64 1564 1287.37 1560.31 Q1290.11 1556.62 1290.11 1550.25 Q1290.11 1543.92 1287.37 1540.23 Q1284.64 1536.5 1279.96 1536.5 M1279.96 1531.54 Q1287.6 1531.54 1291.96 1536.5 Q1296.32 1541.47 1296.32 1550.25 Q1296.32 1559 1291.96 1564 Q1287.6 1568.97 1279.96 1568.97 Q1272.29 1568.97 1267.93 1564 Q1263.6 1559 1263.6 1550.25 Q1263.6 1541.47 1267.93 1536.5 Q1272.29 1531.54 1279.96 1531.54 Z" fill="#000000" fill-rule="nonzero" fill-opacity="1"></path><path clip-path="url(#clip950)" d="M1324.07 1518.52 L1324.07 1523.39 L1318.47 1523.39 Q1315.32 1523.39 1314.08 1524.66 Q1312.87 1525.93 1312.87 1529.24 L1312.87 1532.4 L1322.51 1532.4 L1322.51 1536.95 L1312.87 1536.95 L1312.87 1568.04 L1306.98 1568.04 L1306.98 1536.95 L1301.38 1536.95 L1301.38 1532.4 L1306.98 1532.4 L1306.98 1529.91 Q1306.98 1523.96 1309.75 1521.26 Q1312.52 1518.52 1318.53 1518.52 L1324.07 1518.52 Z" fill="#000000" fill-rule="nonzero" fill-opacity="1"></path><path clip-path="url(#clip950)" d="M1349.95 1520.52 L1356.38 1520.52 L1356.38 1562.63 L1379.52 1562.63 L1379.52 1568.04 L1349.95 1568.04 L1349.95 1520.52 Z" fill="#000000" fill-rule="nonzero" fill-opacity="1"></path><path clip-path="url(#clip950)" d="M1398.68 1536.5 Q1393.97 1536.5 1391.23 1540.19 Q1388.49 1543.85 1388.49 1550.25 Q1388.49 1556.65 1391.2 1560.34 Q1393.93 1564 1398.68 1564 Q1403.36 1564 1406.09 1560.31 Q1408.83 1556.62 1408.83 1550.25 Q1408.83 1543.92 1406.09 1540.23 Q1403.36 1536.5 1398.68 1536.5 M1398.68 1531.54 Q1406.32 1531.54 1410.68 1536.5 Q1415.04 1541.47 1415.04 1550.25 Q1415.04 1559 1410.68 1564 Q1406.32 1568.97 1398.68 1568.97 Q1391.01 1568.97 1386.65 1564 Q1382.32 1559 1382.32 1550.25 Q1382.32 1541.47 1386.65 1536.5 Q1391.01 1531.54 1398.68 1531.54 Z" fill="#000000" fill-rule="nonzero" fill-opacity="1"></path><path clip-path="url(#clip950)" d="M1440.95 1550.12 Q1433.85 1550.12 1431.11 1551.75 Q1428.37 1553.37 1428.37 1557.29 Q1428.37 1560.4 1430.41 1562.25 Q1432.48 1564.07 1436.01 1564.07 Q1440.88 1564.07 1443.81 1560.63 Q1446.77 1557.16 1446.77 1551.43 L1446.77 1550.12 L1440.95 1550.12 M1452.63 1547.71 L1452.63 1568.04 L1446.77 1568.04 L1446.77 1562.63 Q1444.77 1565.88 1441.77 1567.44 Q1438.78 1568.97 1434.45 1568.97 Q1428.98 1568.97 1425.73 1565.91 Q1422.52 1562.82 1422.52 1557.67 Q1422.52 1551.65 1426.53 1548.6 Q1430.57 1545.54 1438.56 1545.54 L1446.77 1545.54 L1446.77 1544.97 Q1446.77 1540.93 1444.1 1538.73 Q1441.45 1536.5 1436.65 1536.5 Q1433.59 1536.5 1430.7 1537.23 Q1427.8 1537.97 1425.13 1539.43 L1425.13 1534.02 Q1428.34 1532.78 1431.37 1532.17 Q1434.39 1531.54 1437.25 1531.54 Q1444.99 1531.54 1448.81 1535.55 Q1452.63 1539.56 1452.63 1547.71 Z" fill="#000000" fill-rule="nonzero" fill-opacity="1"></path><path clip-path="url(#clip950)" d="M1488.15 1537.81 L1488.15 1518.52 L1494 1518.52 L1494 1568.04 L1488.15 1568.04 L1488.15 1562.7 Q1486.3 1565.88 1483.47 1567.44 Q1480.67 1568.97 1476.72 1568.97 Q1470.26 1568.97 1466.19 1563.81 Q1462.14 1558.65 1462.14 1550.25 Q1462.14 1541.85 1466.19 1536.69 Q1470.26 1531.54 1476.72 1531.54 Q1480.67 1531.54 1483.47 1533.1 Q1486.3 1534.62 1488.15 1537.81 M1468.19 1550.25 Q1468.19 1556.71 1470.83 1560.4 Q1473.51 1564.07 1478.15 1564.07 Q1482.8 1564.07 1485.47 1560.4 Q1488.15 1556.71 1488.15 1550.25 Q1488.15 1543.79 1485.47 1540.13 Q1482.8 1536.44 1478.15 1536.44 Q1473.51 1536.44 1470.83 1540.13 Q1468.19 1543.79 1468.19 1550.25 Z" fill="#000000" fill-rule="nonzero" fill-opacity="1"></path><path clip-path="url(#clip950)" d="M1555.53 1522.08 L1555.53 1528.35 Q1551.87 1526.6 1548.62 1525.74 Q1545.38 1524.88 1542.35 1524.88 Q1537.1 1524.88 1534.24 1526.92 Q1531.4 1528.96 1531.4 1532.71 Q1531.4 1535.87 1533.28 1537.49 Q1535.19 1539.08 1540.47 1540.07 L1544.36 1540.86 Q1551.55 1542.23 1554.96 1545.7 Q1558.39 1549.14 1558.39 1554.93 Q1558.39 1561.84 1553.75 1565.4 Q1549.13 1568.97 1540.19 1568.97 Q1536.81 1568.97 1532.99 1568.2 Q1529.21 1567.44 1525.13 1565.94 L1525.13 1559.32 Q1529.05 1561.52 1532.8 1562.63 Q1536.56 1563.75 1540.19 1563.75 Q1545.69 1563.75 1548.69 1561.58 Q1551.68 1559.42 1551.68 1555.41 Q1551.68 1551.91 1549.51 1549.93 Q1547.38 1547.96 1542.48 1546.97 L1538.56 1546.21 Q1531.37 1544.78 1528.16 1541.72 Q1524.94 1538.67 1524.94 1533.22 Q1524.94 1526.92 1529.37 1523.29 Q1533.82 1519.66 1541.62 1519.66 Q1544.96 1519.66 1548.43 1520.27 Q1551.9 1520.87 1555.53 1522.08 Z" fill="#000000" fill-rule="nonzero" fill-opacity="1"></path><path clip-path="url(#clip950)" d="M1597.8 1546.53 L1597.8 1568.04 L1591.94 1568.04 L1591.94 1546.72 Q1591.94 1541.66 1589.97 1539.14 Q1587.99 1536.63 1584.05 1536.63 Q1579.3 1536.63 1576.57 1539.65 Q1573.83 1542.68 1573.83 1547.9 L1573.83 1568.04 L1567.94 1568.04 L1567.94 1518.52 L1573.83 1518.52 L1573.83 1537.93 Q1575.93 1534.72 1578.76 1533.13 Q1581.63 1531.54 1585.35 1531.54 Q1591.49 1531.54 1594.65 1535.36 Q1597.8 1539.14 1597.8 1546.53 Z" fill="#000000" fill-rule="nonzero" fill-opacity="1"></path><path clip-path="url(#clip950)" d="M1639.97 1548.76 L1639.97 1551.62 L1613.04 1551.62 Q1613.42 1557.67 1616.67 1560.85 Q1619.95 1564 1625.77 1564 Q1629.15 1564 1632.3 1563.17 Q1635.48 1562.35 1638.6 1560.69 L1638.6 1566.23 Q1635.45 1567.57 1632.14 1568.27 Q1628.83 1568.97 1625.42 1568.97 Q1616.89 1568.97 1611.9 1564 Q1606.93 1559.04 1606.93 1550.57 Q1606.93 1541.82 1611.64 1536.69 Q1616.38 1531.54 1624.41 1531.54 Q1631.6 1531.54 1635.77 1536.18 Q1639.97 1540.8 1639.97 1548.76 M1634.11 1547.04 Q1634.05 1542.23 1631.41 1539.37 Q1628.8 1536.5 1624.47 1536.5 Q1619.57 1536.5 1616.61 1539.27 Q1613.68 1542.04 1613.23 1547.07 L1634.11 1547.04 Z" fill="#000000" fill-rule="nonzero" fill-opacity="1"></path><path clip-path="url(#clip950)" d="M1673.04 1537.81 L1673.04 1518.52 L1678.9 1518.52 L1678.9 1568.04 L1673.04 1568.04 L1673.04 1562.7 Q1671.19 1565.88 1668.36 1567.44 Q1665.56 1568.97 1661.61 1568.97 Q1655.15 1568.97 1651.08 1563.81 Q1647.04 1558.65 1647.04 1550.25 Q1647.04 1541.85 1651.08 1536.69 Q1655.15 1531.54 1661.61 1531.54 Q1665.56 1531.54 1668.36 1533.1 Q1671.19 1534.62 1673.04 1537.81 M1653.08 1550.25 Q1653.08 1556.71 1655.72 1560.4 Q1658.4 1564.07 1663.05 1564.07 Q1667.69 1564.07 1670.37 1560.4 Q1673.04 1556.71 1673.04 1550.25 Q1673.04 1543.79 1670.37 1540.13 Q1667.69 1536.44 1663.05 1536.44 Q1658.4 1536.44 1655.72 1540.13 Q1653.08 1543.79 1653.08 1550.25 Z" fill="#000000" fill-rule="nonzero" fill-opacity="1"></path><polyline clip-path="url(#clip952)" style="stroke:#000000; stroke-linecap:round; stroke-linejoin:round; stroke-width:2; stroke-opacity:0.1; fill:none" points="205.121,1386.4 2352.76,1386.4 "></polyline>
<polyline clip-path="url(#clip952)" style="stroke:#000000; stroke-linecap:round; stroke-linejoin:round; stroke-width:2; stroke-opacity:0.1; fill:none" points="205.121,1092.12 2352.76,1092.12 "></polyline>
<polyline clip-path="url(#clip952)" style="stroke:#000000; stroke-linecap:round; stroke-linejoin:round; stroke-width:2; stroke-opacity:0.1; fill:none" points="205.121,797.849 2352.76,797.849 "></polyline>
<polyline clip-path="url(#clip952)" style="stroke:#000000; stroke-linecap:round; stroke-linejoin:round; stroke-width:2; stroke-opacity:0.1; fill:none" points="205.121,503.575 2352.76,503.575 "></polyline>
<polyline clip-path="url(#clip952)" style="stroke:#000000; stroke-linecap:round; stroke-linejoin:round; stroke-width:2; stroke-opacity:0.1; fill:none" points="205.121,209.302 2352.76,209.302 "></polyline>
<polyline clip-path="url(#clip950)" style="stroke:#000000; stroke-linecap:round; stroke-linejoin:round; stroke-width:4; stroke-opacity:1; fill:none" points="205.121,1423.18 205.121,123.472 "></polyline>
<polyline clip-path="url(#clip950)" style="stroke:#000000; stroke-linecap:round; stroke-linejoin:round; stroke-width:4; stroke-opacity:1; fill:none" points="205.121,1386.4 224.019,1386.4 "></polyline>
<polyline clip-path="url(#clip950)" style="stroke:#000000; stroke-linecap:round; stroke-linejoin:round; stroke-width:4; stroke-opacity:1; fill:none" points="205.121,1092.12 224.019,1092.12 "></polyline>
<polyline clip-path="url(#clip950)" style="stroke:#000000; stroke-linecap:round; stroke-linejoin:round; stroke-width:4; stroke-opacity:1; fill:none" points="205.121,797.849 224.019,797.849 "></polyline>
<polyline clip-path="url(#clip950)" style="stroke:#000000; stroke-linecap:round; stroke-linejoin:round; stroke-width:4; stroke-opacity:1; fill:none" points="205.121,503.575 224.019,503.575 "></polyline>
<polyline clip-path="url(#clip950)" style="stroke:#000000; stroke-linecap:round; stroke-linejoin:round; stroke-width:4; stroke-opacity:1; fill:none" points="205.121,209.302 224.019,209.302 "></polyline>
<path clip-path="url(#clip950)" d="M157.177 1372.19 Q153.566 1372.19 151.737 1375.76 Q149.931 1379.3 149.931 1386.43 Q149.931 1393.54 151.737 1397.1 Q153.566 1400.64 157.177 1400.64 Q160.811 1400.64 162.616 1397.1 Q164.445 1393.54 164.445 1386.43 Q164.445 1379.3 162.616 1375.76 Q160.811 1372.19 157.177 1372.19 M157.177 1368.49 Q162.987 1368.49 166.042 1373.1 Q169.121 1377.68 169.121 1386.43 Q169.121 1395.16 166.042 1399.76 Q162.987 1404.35 157.177 1404.35 Q151.366 1404.35 148.288 1399.76 Q145.232 1395.16 145.232 1386.43 Q145.232 1377.68 148.288 1373.1 Q151.366 1368.49 157.177 1368.49 Z" fill="#000000" fill-rule="nonzero" fill-opacity="1"></path><path clip-path="url(#clip950)" d="M121.043 1105.47 L137.362 1105.47 L137.362 1109.4 L115.418 1109.4 L115.418 1105.47 Q118.08 1102.71 122.663 1098.08 Q127.269 1093.43 128.45 1092.09 Q130.695 1089.56 131.575 1087.83 Q132.478 1086.07 132.478 1084.38 Q132.478 1081.62 130.533 1079.89 Q128.612 1078.15 125.51 1078.15 Q123.311 1078.15 120.857 1078.92 Q118.427 1079.68 115.649 1081.23 L115.649 1076.51 Q118.473 1075.37 120.927 1074.8 Q123.38 1074.22 125.418 1074.22 Q130.788 1074.22 133.982 1076.9 Q137.177 1079.59 137.177 1084.08 Q137.177 1086.21 136.367 1088.13 Q135.579 1090.03 133.473 1092.62 Q132.894 1093.29 129.792 1096.51 Q126.691 1099.7 121.043 1105.47 Z" fill="#000000" fill-rule="nonzero" fill-opacity="1"></path><path clip-path="url(#clip950)" d="M157.177 1077.92 Q153.566 1077.92 151.737 1081.49 Q149.931 1085.03 149.931 1092.16 Q149.931 1099.26 151.737 1102.83 Q153.566 1106.37 157.177 1106.37 Q160.811 1106.37 162.616 1102.83 Q164.445 1099.26 164.445 1092.16 Q164.445 1085.03 162.616 1081.49 Q160.811 1077.92 157.177 1077.92 M157.177 1074.22 Q162.987 1074.22 166.042 1078.82 Q169.121 1083.41 169.121 1092.16 Q169.121 1100.88 166.042 1105.49 Q162.987 1110.07 157.177 1110.07 Q151.366 1110.07 148.288 1105.49 Q145.232 1100.88 145.232 1092.16 Q145.232 1083.41 148.288 1078.82 Q151.366 1074.22 157.177 1074.22 Z" fill="#000000" fill-rule="nonzero" fill-opacity="1"></path><path clip-path="url(#clip950)" d="M129.862 784.643 L118.056 803.092 L129.862 803.092 L129.862 784.643 M128.635 780.569 L134.515 780.569 L134.515 803.092 L139.445 803.092 L139.445 806.981 L134.515 806.981 L134.515 815.129 L129.862 815.129 L129.862 806.981 L114.26 806.981 L114.26 802.467 L128.635 780.569 Z" fill="#000000" fill-rule="nonzero" fill-opacity="1"></path><path clip-path="url(#clip950)" d="M157.177 783.647 Q153.566 783.647 151.737 787.212 Q149.931 790.754 149.931 797.883 Q149.931 804.99 151.737 808.555 Q153.566 812.096 157.177 812.096 Q160.811 812.096 162.616 808.555 Q164.445 804.99 164.445 797.883 Q164.445 790.754 162.616 787.212 Q160.811 783.647 157.177 783.647 M157.177 779.944 Q162.987 779.944 166.042 784.55 Q169.121 789.134 169.121 797.883 Q169.121 806.61 166.042 811.217 Q162.987 815.8 157.177 815.8 Q151.366 815.8 148.288 811.217 Q145.232 806.61 145.232 797.883 Q145.232 789.134 148.288 784.55 Q151.366 779.944 157.177 779.944 Z" fill="#000000" fill-rule="nonzero" fill-opacity="1"></path><path clip-path="url(#clip950)" d="M127.593 501.712 Q124.445 501.712 122.593 503.865 Q120.765 506.017 120.765 509.767 Q120.765 513.494 122.593 515.67 Q124.445 517.823 127.593 517.823 Q130.742 517.823 132.57 515.67 Q134.422 513.494 134.422 509.767 Q134.422 506.017 132.57 503.865 Q130.742 501.712 127.593 501.712 M136.876 487.059 L136.876 491.318 Q135.117 490.485 133.311 490.045 Q131.529 489.605 129.769 489.605 Q125.14 489.605 122.686 492.73 Q120.255 495.855 119.908 502.175 Q121.274 500.161 123.334 499.096 Q125.394 498.008 127.871 498.008 Q133.08 498.008 136.089 501.18 Q139.121 504.328 139.121 509.767 Q139.121 515.091 135.973 518.309 Q132.825 521.527 127.593 521.527 Q121.598 521.527 118.427 516.943 Q115.256 512.337 115.256 503.61 Q115.256 495.416 119.144 490.555 Q123.033 485.67 129.584 485.67 Q131.343 485.67 133.126 486.018 Q134.931 486.365 136.876 487.059 Z" fill="#000000" fill-rule="nonzero" fill-opacity="1"></path><path clip-path="url(#clip950)" d="M157.177 489.374 Q153.566 489.374 151.737 492.939 Q149.931 496.48 149.931 503.61 Q149.931 510.716 151.737 514.281 Q153.566 517.823 157.177 517.823 Q160.811 517.823 162.616 514.281 Q164.445 510.716 164.445 503.61 Q164.445 496.48 162.616 492.939 Q160.811 489.374 157.177 489.374 M157.177 485.67 Q162.987 485.67 166.042 490.277 Q169.121 494.86 169.121 503.61 Q169.121 512.337 166.042 516.943 Q162.987 521.527 157.177 521.527 Q151.366 521.527 148.288 516.943 Q145.232 512.337 145.232 503.61 Q145.232 494.86 148.288 490.277 Q151.366 485.67 157.177 485.67 Z" fill="#000000" fill-rule="nonzero" fill-opacity="1"></path><path clip-path="url(#clip950)" d="M127.015 210.17 Q123.681 210.17 121.76 211.952 Q119.862 213.735 119.862 216.86 Q119.862 219.985 121.76 221.767 Q123.681 223.549 127.015 223.549 Q130.348 223.549 132.269 221.767 Q134.191 219.962 134.191 216.86 Q134.191 213.735 132.269 211.952 Q130.371 210.17 127.015 210.17 M122.339 208.179 Q119.33 207.438 117.64 205.378 Q115.973 203.318 115.973 200.355 Q115.973 196.212 118.913 193.804 Q121.876 191.397 127.015 191.397 Q132.177 191.397 135.117 193.804 Q138.056 196.212 138.056 200.355 Q138.056 203.318 136.367 205.378 Q134.7 207.438 131.714 208.179 Q135.093 208.966 136.968 211.258 Q138.867 213.55 138.867 216.86 Q138.867 221.883 135.788 224.568 Q132.732 227.253 127.015 227.253 Q121.297 227.253 118.218 224.568 Q115.163 221.883 115.163 216.86 Q115.163 213.55 117.061 211.258 Q118.959 208.966 122.339 208.179 M120.626 200.795 Q120.626 203.48 122.293 204.985 Q123.982 206.489 127.015 206.489 Q130.024 206.489 131.714 204.985 Q133.427 203.48 133.427 200.795 Q133.427 198.11 131.714 196.605 Q130.024 195.101 127.015 195.101 Q123.982 195.101 122.293 196.605 Q120.626 198.11 120.626 200.795 Z" fill="#000000" fill-rule="nonzero" fill-opacity="1"></path><path clip-path="url(#clip950)" d="M157.177 195.101 Q153.566 195.101 151.737 198.665 Q149.931 202.207 149.931 209.337 Q149.931 216.443 151.737 220.008 Q153.566 223.549 157.177 223.549 Q160.811 223.549 162.616 220.008 Q164.445 216.443 164.445 209.337 Q164.445 202.207 162.616 198.665 Q160.811 195.101 157.177 195.101 M157.177 191.397 Q162.987 191.397 166.042 196.003 Q169.121 200.587 169.121 209.337 Q169.121 218.063 166.042 222.67 Q162.987 227.253 157.177 227.253 Q151.366 227.253 148.288 222.67 Q145.232 218.063 145.232 209.337 Q145.232 200.587 148.288 196.003 Q151.366 191.397 157.177 191.397 Z" fill="#000000" fill-rule="nonzero" fill-opacity="1"></path><path clip-path="url(#clip950)" d="M21.7677 1186.48 L39.6235 1186.48 L39.6235 1178.39 Q39.6235 1173.9 37.3 1171.45 Q34.9765 1169 30.6797 1169 Q26.4147 1169 24.0912 1171.45 Q21.7677 1173.9 21.7677 1178.39 L21.7677 1186.48 M16.4842 1192.91 L16.4842 1178.39 Q16.4842 1170.4 20.1126 1166.33 Q23.7092 1162.22 30.6797 1162.22 Q37.7138 1162.22 41.3104 1166.33 Q44.907 1170.4 44.907 1178.39 L44.907 1186.48 L64.0042 1186.48 L64.0042 1192.91 L16.4842 1192.91 Z" fill="#000000" fill-rule="nonzero" fill-opacity="1"></path><path clip-path="url(#clip950)" d="M44.7161 1125.68 L47.5806 1125.68 L47.5806 1152.61 Q53.6281 1152.23 56.8109 1148.98 Q59.9619 1145.7 59.9619 1139.88 Q59.9619 1136.51 59.1344 1133.35 Q58.3069 1130.17 56.6518 1127.05 L62.1899 1127.05 Q63.5267 1130.2 64.227 1133.51 Q64.9272 1136.82 64.9272 1140.23 Q64.9272 1148.76 59.9619 1153.76 Q54.9967 1158.72 46.5303 1158.72 Q37.7774 1158.72 32.6531 1154.01 Q27.4968 1149.27 27.4968 1141.25 Q27.4968 1134.05 32.1438 1129.89 Q36.7589 1125.68 44.7161 1125.68 M42.9973 1131.54 Q38.1912 1131.6 35.3266 1134.25 Q32.4621 1136.86 32.4621 1141.18 Q32.4621 1146.09 35.2312 1149.05 Q38.0002 1151.97 43.0292 1152.42 L42.9973 1131.54 Z" fill="#000000" fill-rule="nonzero" fill-opacity="1"></path><path clip-path="url(#clip950)" d="M33.8307 1095.41 Q33.2578 1096.4 33.0032 1097.58 Q32.7167 1098.72 32.7167 1100.13 Q32.7167 1105.09 35.9632 1107.76 Q39.1779 1110.41 45.2253 1110.41 L64.0042 1110.41 L64.0042 1116.29 L28.3562 1116.29 L28.3562 1110.41 L33.8944 1110.41 Q30.6479 1108.56 29.0883 1105.6 Q27.4968 1102.64 27.4968 1098.41 Q27.4968 1097.8 27.5923 1097.07 Q27.656 1096.34 27.8151 1095.45 L33.8307 1095.41 Z" fill="#000000" fill-rule="nonzero" fill-opacity="1"></path><path clip-path="url(#clip950)" d="M29.7248 1065.05 L35.1993 1065.05 Q33.8307 1067.53 33.1623 1070.05 Q32.4621 1072.53 32.4621 1075.08 Q32.4621 1080.77 36.0905 1083.92 Q39.6872 1087.08 46.212 1087.08 Q52.7369 1087.08 56.3653 1083.92 Q59.9619 1080.77 59.9619 1075.08 Q59.9619 1072.53 59.2935 1070.05 Q58.5933 1067.53 57.2247 1065.05 L62.6355 1065.05 Q63.7814 1067.5 64.3543 1070.14 Q64.9272 1072.75 64.9272 1075.71 Q64.9272 1083.77 59.8664 1088.51 Q54.8057 1093.25 46.212 1093.25 Q37.491 1093.25 32.4939 1088.48 Q27.4968 1083.67 27.4968 1075.33 Q27.4968 1072.63 28.0697 1070.05 Q28.6108 1067.47 29.7248 1065.05 Z" fill="#000000" fill-rule="nonzero" fill-opacity="1"></path><path clip-path="url(#clip950)" d="M44.7161 1024.37 L47.5806 1024.37 L47.5806 1051.3 Q53.6281 1050.92 56.8109 1047.67 Q59.9619 1044.39 59.9619 1038.57 Q59.9619 1035.2 59.1344 1032.04 Q58.3069 1028.86 56.6518 1025.74 L62.1899 1025.74 Q63.5267 1028.89 64.227 1032.2 Q64.9272 1035.51 64.9272 1038.92 Q64.9272 1047.45 59.9619 1052.45 Q54.9967 1057.41 46.5303 1057.41 Q37.7774 1057.41 32.6531 1052.7 Q27.4968 1047.96 27.4968 1039.94 Q27.4968 1032.74 32.1438 1028.57 Q36.7589 1024.37 44.7161 1024.37 M42.9973 1030.23 Q38.1912 1030.29 35.3266 1032.94 Q32.4621 1035.55 32.4621 1039.87 Q32.4621 1044.78 35.2312 1047.74 Q38.0002 1050.66 43.0292 1051.11 L42.9973 1030.23 Z" fill="#000000" fill-rule="nonzero" fill-opacity="1"></path><path clip-path="url(#clip950)" d="M42.4881 985.129 L64.0042 985.129 L64.0042 990.985 L42.679 990.985 Q37.6183 990.985 35.1038 992.959 Q32.5894 994.932 32.5894 998.879 Q32.5894 1003.62 35.6131 1006.36 Q38.6368 1009.1 43.8567 1009.1 L64.0042 1009.1 L64.0042 1014.98 L28.3562 1014.98 L28.3562 1009.1 L33.8944 1009.1 Q30.6797 1007 29.0883 1004.16 Q27.4968 1001.3 27.4968 997.574 Q27.4968 991.431 31.3163 988.28 Q35.1038 985.129 42.4881 985.129 Z" fill="#000000" fill-rule="nonzero" fill-opacity="1"></path><path clip-path="url(#clip950)" d="M18.2347 967.655 L28.3562 967.655 L28.3562 955.592 L32.9077 955.592 L32.9077 967.655 L52.2594 967.655 Q56.6199 967.655 57.8613 966.477 Q59.1026 965.268 59.1026 961.608 L59.1026 955.592 L64.0042 955.592 L64.0042 961.608 Q64.0042 968.387 61.4897 970.965 Q58.9434 973.543 52.2594 973.543 L32.9077 973.543 L32.9077 977.84 L28.3562 977.84 L28.3562 973.543 L18.2347 973.543 L18.2347 967.655 Z" fill="#000000" fill-rule="nonzero" fill-opacity="1"></path><path clip-path="url(#clip950)" d="M46.0847 931.689 Q46.0847 938.787 47.7079 941.524 Q49.3312 944.261 53.2461 944.261 Q56.3653 944.261 58.2114 942.224 Q60.0256 940.155 60.0256 936.622 Q60.0256 931.753 56.5881 928.824 Q53.1188 925.864 47.3897 925.864 L46.0847 925.864 L46.0847 931.689 M43.6657 920.008 L64.0042 920.008 L64.0042 925.864 L58.5933 925.864 Q61.8398 927.869 63.3994 930.861 Q64.9272 933.853 64.9272 938.182 Q64.9272 943.656 61.8716 946.903 Q58.7843 950.118 53.6281 950.118 Q47.6125 950.118 44.5569 946.107 Q41.5014 942.065 41.5014 934.076 L41.5014 925.864 L40.9285 925.864 Q36.8862 925.864 34.6901 928.538 Q32.4621 931.18 32.4621 935.986 Q32.4621 939.041 33.1941 941.938 Q33.9262 944.834 35.3903 947.508 L29.9795 947.508 Q28.7381 944.293 28.1334 941.269 Q27.4968 938.246 27.4968 935.381 Q27.4968 927.647 31.5072 923.827 Q35.5176 920.008 43.6657 920.008 Z" fill="#000000" fill-rule="nonzero" fill-opacity="1"></path><path clip-path="url(#clip950)" d="M45.7664 884.487 Q39.4007 884.487 35.8996 887.129 Q32.3984 889.739 32.3984 894.481 Q32.3984 899.192 35.8996 901.834 Q39.4007 904.444 45.7664 904.444 Q52.1003 904.444 55.6014 901.834 Q59.1026 899.192 59.1026 894.481 Q59.1026 889.739 55.6014 887.129 Q52.1003 884.487 45.7664 884.487 M59.58 878.631 Q68.683 878.631 73.1071 882.673 Q77.5631 886.715 77.5631 895.054 Q77.5631 898.142 77.0857 900.879 Q76.6401 903.616 75.6852 906.194 L69.9879 906.194 Q71.3884 903.616 72.0568 901.102 Q72.7252 898.587 72.7252 895.977 Q72.7252 890.216 69.7015 887.352 Q66.7096 884.487 60.6303 884.487 L57.7339 884.487 Q60.885 886.301 62.4446 889.134 Q64.0042 891.967 64.0042 895.914 Q64.0042 902.47 59.0071 906.481 Q54.01 910.491 45.7664 910.491 Q37.491 910.491 32.4939 906.481 Q27.4968 902.47 27.4968 895.914 Q27.4968 891.967 29.0564 889.134 Q30.616 886.301 33.7671 884.487 L28.3562 884.487 L28.3562 878.631 L59.58 878.631 Z" fill="#000000" fill-rule="nonzero" fill-opacity="1"></path><path clip-path="url(#clip950)" d="M44.7161 836.076 L47.5806 836.076 L47.5806 863.003 Q53.6281 862.621 56.8109 859.374 Q59.9619 856.096 59.9619 850.271 Q59.9619 846.898 59.1344 843.747 Q58.3069 840.564 56.6518 837.445 L62.1899 837.445 Q63.5267 840.596 64.227 843.906 Q64.9272 847.216 64.9272 850.622 Q64.9272 859.152 59.9619 864.149 Q54.9967 869.114 46.5303 869.114 Q37.7774 869.114 32.6531 864.403 Q27.4968 859.661 27.4968 851.64 Q27.4968 844.447 32.1438 840.277 Q36.7589 836.076 44.7161 836.076 M42.9973 841.932 Q38.1912 841.996 35.3266 844.638 Q32.4621 847.248 32.4621 851.576 Q32.4621 856.478 35.2312 859.438 Q38.0002 862.366 43.0292 862.812 L42.9973 841.932 Z" fill="#000000" fill-rule="nonzero" fill-opacity="1"></path><path clip-path="url(#clip950)" d="M32.4621 791.93 Q32.4621 796.64 36.1542 799.378 Q39.8145 802.115 46.212 802.115 Q52.6095 802.115 56.3017 799.409 Q59.9619 796.672 59.9619 791.93 Q59.9619 787.251 56.2698 784.514 Q52.5777 781.776 46.212 781.776 Q39.8781 781.776 36.186 784.514 Q32.4621 787.251 32.4621 791.93 M27.4968 791.93 Q27.4968 784.291 32.4621 779.93 Q37.4273 775.57 46.212 775.57 Q54.9649 775.57 59.9619 779.93 Q64.9272 784.291 64.9272 791.93 Q64.9272 799.6 59.9619 803.961 Q54.9649 808.29 46.212 808.29 Q37.4273 808.29 32.4621 803.961 Q27.4968 799.6 27.4968 791.93 Z" fill="#000000" fill-rule="nonzero" fill-opacity="1"></path><path clip-path="url(#clip950)" d="M14.479 747.815 L19.3487 747.815 L19.3487 753.417 Q19.3487 756.568 20.6219 757.81 Q21.895 759.019 25.2052 759.019 L28.3562 759.019 L28.3562 749.375 L32.9077 749.375 L32.9077 759.019 L64.0042 759.019 L64.0042 764.907 L32.9077 764.907 L32.9077 770.509 L28.3562 770.509 L28.3562 764.907 L25.8736 764.907 Q19.9216 764.907 17.2162 762.138 Q14.479 759.369 14.479 753.354 L14.479 747.815 Z" fill="#000000" fill-rule="nonzero" fill-opacity="1"></path><path clip-path="url(#clip950)" d="M28.3562 725.599 L28.3562 719.743 L56.1743 712.422 L28.3562 705.133 L28.3562 698.227 L56.1743 690.906 L28.3562 683.617 L28.3562 677.761 L64.0042 687.087 L64.0042 693.993 L34.7856 701.664 L64.0042 709.367 L64.0042 716.273 L28.3562 725.599 Z" fill="#000000" fill-rule="nonzero" fill-opacity="1"></path><path clip-path="url(#clip950)" d="M28.3562 668.881 L28.3562 663.024 L64.0042 663.024 L64.0042 668.881 L28.3562 668.881 M14.479 668.881 L14.479 663.024 L21.895 663.024 L21.895 668.881 L14.479 668.881 Z" fill="#000000" fill-rule="nonzero" fill-opacity="1"></path><path clip-path="url(#clip950)" d="M14.479 650.77 L14.479 644.914 L64.0042 644.914 L64.0042 650.77 L14.479 650.77 Z" fill="#000000" fill-rule="nonzero" fill-opacity="1"></path><path clip-path="url(#clip950)" d="M33.7671 609.202 L14.479 609.202 L14.479 603.346 L64.0042 603.346 L64.0042 609.202 L58.657 609.202 Q61.8398 611.048 63.3994 613.881 Q64.9272 616.682 64.9272 620.629 Q64.9272 627.09 59.771 631.164 Q54.6147 635.206 46.212 635.206 Q37.8093 635.206 32.6531 631.164 Q27.4968 627.09 27.4968 620.629 Q27.4968 616.682 29.0564 613.881 Q30.5842 611.048 33.7671 609.202 M46.212 629.159 Q52.6732 629.159 56.3653 626.517 Q60.0256 623.843 60.0256 619.196 Q60.0256 614.549 56.3653 611.876 Q52.6732 609.202 46.212 609.202 Q39.7508 609.202 36.0905 611.876 Q32.3984 614.549 32.3984 619.196 Q32.3984 623.843 36.0905 626.517 Q39.7508 629.159 46.212 629.159 Z" fill="#000000" fill-rule="nonzero" fill-opacity="1"></path><path clip-path="url(#clip950)" d="M14.479 573.236 L19.3487 573.236 L19.3487 578.838 Q19.3487 581.989 20.6219 583.23 Q21.895 584.44 25.2052 584.44 L28.3562 584.44 L28.3562 574.796 L32.9077 574.796 L32.9077 584.44 L64.0042 584.44 L64.0042 590.328 L32.9077 590.328 L32.9077 595.93 L28.3562 595.93 L28.3562 590.328 L25.8736 590.328 Q19.9216 590.328 17.2162 587.559 Q14.479 584.79 14.479 578.774 L14.479 573.236 Z" fill="#000000" fill-rule="nonzero" fill-opacity="1"></path><path clip-path="url(#clip950)" d="M28.3562 568.334 L28.3562 562.478 L64.0042 562.478 L64.0042 568.334 L28.3562 568.334 M14.479 568.334 L14.479 562.478 L21.895 562.478 L21.895 568.334 L14.479 568.334 Z" fill="#000000" fill-rule="nonzero" fill-opacity="1"></path><path clip-path="url(#clip950)" d="M33.8307 529.567 Q33.2578 530.554 33.0032 531.732 Q32.7167 532.877 32.7167 534.278 Q32.7167 539.243 35.9632 541.917 Q39.1779 544.558 45.2253 544.558 L64.0042 544.558 L64.0042 550.447 L28.3562 550.447 L28.3562 544.558 L33.8944 544.558 Q30.6479 542.712 29.0883 539.752 Q27.4968 536.792 27.4968 532.559 Q27.4968 531.954 27.5923 531.222 Q27.656 530.49 27.8151 529.599 L33.8307 529.567 Z" fill="#000000" fill-rule="nonzero" fill-opacity="1"></path><path clip-path="url(#clip950)" d="M44.7161 494.365 L47.5806 494.365 L47.5806 521.292 Q53.6281 520.91 56.8109 517.663 Q59.9619 514.385 59.9619 508.56 Q59.9619 505.187 59.1344 502.035 Q58.3069 498.853 56.6518 495.733 L62.1899 495.733 Q63.5267 498.884 64.227 502.195 Q64.9272 505.505 64.9272 508.91 Q64.9272 517.44 59.9619 522.438 Q54.9967 527.403 46.5303 527.403 Q37.7774 527.403 32.6531 522.692 Q27.4968 517.95 27.4968 509.929 Q27.4968 502.736 32.1438 498.566 Q36.7589 494.365 44.7161 494.365 M42.9973 500.221 Q38.1912 500.285 35.3266 502.927 Q32.4621 505.537 32.4621 509.865 Q32.4621 514.767 35.2312 517.727 Q38.0002 520.655 43.0292 521.101 L42.9973 500.221 Z" fill="#000000" fill-rule="nonzero" fill-opacity="1"></path><path clip-path="url(#clip950)" d="M33.8307 443.375 Q33.2578 444.362 33.0032 445.54 Q32.7167 446.686 32.7167 448.086 Q32.7167 453.051 35.9632 455.725 Q39.1779 458.367 45.2253 458.367 L64.0042 458.367 L64.0042 464.255 L28.3562 464.255 L28.3562 458.367 L33.8944 458.367 Q30.6479 456.521 29.0883 453.561 Q27.4968 450.601 27.4968 446.367 Q27.4968 445.763 27.5923 445.031 Q27.656 444.299 27.8151 443.407 L33.8307 443.375 Z" fill="#000000" fill-rule="nonzero" fill-opacity="1"></path><path clip-path="url(#clip950)" d="M28.3562 437.233 L28.3562 431.376 L64.0042 431.376 L64.0042 437.233 L28.3562 437.233 M14.479 437.233 L14.479 431.376 L21.895 431.376 L21.895 437.233 L14.479 437.233 Z" fill="#000000" fill-rule="nonzero" fill-opacity="1"></path><path clip-path="url(#clip950)" d="M29.4065 396.397 L34.9447 396.397 Q33.6716 398.879 33.035 401.553 Q32.3984 404.226 32.3984 407.091 Q32.3984 411.451 33.7352 413.648 Q35.072 415.812 37.7456 415.812 Q39.7826 415.812 40.9603 414.252 Q42.1061 412.693 43.1565 407.982 L43.6021 405.977 Q44.9389 399.739 47.3897 397.129 Q49.8086 394.487 54.1691 394.487 Q59.1344 394.487 62.0308 398.434 Q64.9272 402.349 64.9272 409.223 Q64.9272 412.088 64.3543 415.207 Q63.8132 418.295 62.6992 421.732 L56.6518 421.732 Q58.3387 418.486 59.198 415.335 Q60.0256 412.184 60.0256 409.096 Q60.0256 404.958 58.6251 402.73 Q57.1929 400.502 54.6147 400.502 Q52.2276 400.502 50.9545 402.126 Q49.6813 403.717 48.5037 409.16 L48.0262 411.197 Q46.8804 416.64 44.5251 419.058 Q42.138 421.477 38.0002 421.477 Q32.9713 421.477 30.2341 417.913 Q27.4968 414.348 27.4968 407.791 Q27.4968 404.545 27.9743 401.68 Q28.4517 398.816 29.4065 396.397 Z" fill="#000000" fill-rule="nonzero" fill-opacity="1"></path><path clip-path="url(#clip950)" d="M14.479 385.384 L14.479 379.496 L43.7294 379.496 L28.3562 362.022 L28.3562 354.542 L45.0344 373.448 L64.0042 353.746 L64.0042 361.385 L46.5939 379.496 L64.0042 379.496 L64.0042 385.384 L14.479 385.384 Z" fill="#000000" fill-rule="nonzero" fill-opacity="1"></path><path clip-path="url(#clip950)" d="M471.37 12.096 L479.634 12.096 L492.354 63.2184 L505.033 12.096 L514.229 12.096 L526.949 63.2184 L539.628 12.096 L547.933 12.096 L532.742 72.576 L522.452 72.576 L509.692 20.0763 L496.81 72.576 L486.521 72.576 L471.37 12.096 Z" fill="#000000" fill-rule="nonzero" fill-opacity="1"></path><path clip-path="url(#clip950)" d="M556.642 27.2059 L564.096 27.2059 L564.096 72.576 L556.642 72.576 L556.642 27.2059 M556.642 9.54393 L564.096 9.54393 L564.096 18.9825 L556.642 18.9825 L556.642 9.54393 Z" fill="#000000" fill-rule="nonzero" fill-opacity="1"></path><path clip-path="url(#clip950)" d="M579.692 9.54393 L587.145 9.54393 L587.145 72.576 L579.692 72.576 L579.692 9.54393 Z" fill="#000000" fill-rule="nonzero" fill-opacity="1"></path><path clip-path="url(#clip950)" d="M632.596 34.0924 L632.596 9.54393 L640.05 9.54393 L640.05 72.576 L632.596 72.576 L632.596 65.7705 Q630.247 69.8214 626.642 71.8063 Q623.077 73.7508 618.054 73.7508 Q609.83 73.7508 604.645 67.1883 Q599.501 60.6258 599.501 49.9314 Q599.501 39.2371 604.645 32.6746 Q609.83 26.1121 618.054 26.1121 Q623.077 26.1121 626.642 28.0971 Q630.247 30.0415 632.596 34.0924 M607.197 49.9314 Q607.197 58.1548 610.559 62.8538 Q613.962 67.5124 619.877 67.5124 Q625.791 67.5124 629.194 62.8538 Q632.596 58.1548 632.596 49.9314 Q632.596 41.7081 629.194 37.0496 Q625.791 32.3505 619.877 32.3505 Q613.962 32.3505 610.559 37.0496 Q607.197 41.7081 607.197 49.9314 Z" fill="#000000" fill-rule="nonzero" fill-opacity="1"></path><path clip-path="url(#clip950)" d="M678.372 9.54393 L678.372 15.7418 L671.242 15.7418 Q667.232 15.7418 665.652 17.3622 Q664.112 18.9825 664.112 23.1955 L664.112 27.2059 L676.387 27.2059 L676.387 32.9987 L664.112 32.9987 L664.112 72.576 L656.618 72.576 L656.618 32.9987 L649.489 32.9987 L649.489 27.2059 L656.618 27.2059 L656.618 24.0462 Q656.618 16.471 660.143 13.0277 Q663.667 9.54393 671.323 9.54393 L678.372 9.54393 Z" fill="#000000" fill-rule="nonzero" fill-opacity="1"></path><path clip-path="url(#clip950)" d="M684.61 27.2059 L692.064 27.2059 L692.064 72.576 L684.61 72.576 L684.61 27.2059 M684.61 9.54393 L692.064 9.54393 L692.064 18.9825 L684.61 18.9825 L684.61 9.54393 Z" fill="#000000" fill-rule="nonzero" fill-opacity="1"></path><path clip-path="url(#clip950)" d="M733.95 34.1734 Q732.694 33.4443 731.195 33.1202 Q729.737 32.7556 727.955 32.7556 Q721.635 32.7556 718.233 36.8875 Q714.87 40.9789 714.87 48.6757 L714.87 72.576 L707.376 72.576 L707.376 27.2059 L714.87 27.2059 L714.87 34.2544 Q717.22 30.1225 720.987 28.1376 Q724.754 26.1121 730.142 26.1121 Q730.912 26.1121 731.844 26.2337 Q732.775 26.3147 733.91 26.5172 L733.95 34.1734 Z" fill="#000000" fill-rule="nonzero" fill-opacity="1"></path><path clip-path="url(#clip950)" d="M778.753 48.0275 L778.753 51.6733 L744.482 51.6733 Q744.969 59.3701 749.1 63.421 Q753.273 67.4314 760.686 67.4314 Q764.98 67.4314 768.99 66.3781 Q773.041 65.3249 777.011 63.2184 L777.011 70.267 Q773.001 71.9684 768.788 72.8596 Q764.575 73.7508 760.24 73.7508 Q749.384 73.7508 743.024 67.4314 Q736.705 61.1119 736.705 50.3365 Q736.705 39.1965 742.7 32.6746 Q748.736 26.1121 758.944 26.1121 Q768.099 26.1121 773.406 32.0264 Q778.753 37.9003 778.753 48.0275 M771.299 45.84 Q771.218 39.7232 767.856 36.0774 Q764.534 32.4315 759.025 32.4315 Q752.787 32.4315 749.019 35.9558 Q745.293 39.4801 744.725 45.8805 L771.299 45.84 Z" fill="#000000" fill-rule="nonzero" fill-opacity="1"></path><path clip-path="url(#clip950)" d="M846.363 44.2197 Q848.996 45.1109 851.467 48.0275 Q853.978 50.9442 856.49 56.0483 L864.794 72.576 L856.004 72.576 L848.267 57.061 Q845.269 50.9847 842.433 48.9997 Q839.638 47.0148 834.777 47.0148 L825.865 47.0148 L825.865 72.576 L817.682 72.576 L817.682 12.096 L836.154 12.096 Q846.525 12.096 851.629 16.4305 Q856.733 20.7649 856.733 29.5149 Q856.733 35.2267 854.059 38.994 Q851.426 42.7613 846.363 44.2197 M825.865 18.8205 L825.865 40.2903 L836.154 40.2903 Q842.069 40.2903 845.066 37.5762 Q848.105 34.8216 848.105 29.5149 Q848.105 24.2082 845.066 21.5346 Q842.069 18.8205 836.154 18.8205 L825.865 18.8205 Z" fill="#000000" fill-rule="nonzero" fill-opacity="1"></path><path clip-path="url(#clip950)" d="M875.003 27.2059 L882.456 27.2059 L882.456 72.576 L875.003 72.576 L875.003 27.2059 M875.003 9.54393 L882.456 9.54393 L882.456 18.9825 L875.003 18.9825 L875.003 9.54393 Z" fill="#000000" fill-rule="nonzero" fill-opacity="1"></path><path clip-path="url(#clip950)" d="M926.976 28.5427 L926.976 35.5912 Q923.816 33.9709 920.413 33.1607 Q917.01 32.3505 913.365 32.3505 Q907.815 32.3505 905.02 34.0519 Q902.265 35.7533 902.265 39.156 Q902.265 41.7486 904.25 43.2475 Q906.235 44.7058 912.23 46.0426 L914.782 46.6097 Q922.722 48.3111 926.044 51.4303 Q929.406 54.509 929.406 60.0587 Q929.406 66.3781 924.383 70.0644 Q919.4 73.7508 910.65 73.7508 Q907.005 73.7508 903.035 73.0216 Q899.105 72.3329 894.73 70.9151 L894.73 63.2184 Q898.862 65.3654 902.873 66.4591 Q906.883 67.5124 910.813 67.5124 Q916.079 67.5124 918.914 65.73 Q921.75 63.9071 921.75 60.6258 Q921.75 57.5877 919.684 55.9673 Q917.659 54.3469 910.732 52.8481 L908.139 52.2405 Q901.212 50.7821 898.133 47.7845 Q895.055 44.7463 895.055 39.4801 Q895.055 33.0797 899.592 29.5959 Q904.129 26.1121 912.473 26.1121 Q916.605 26.1121 920.251 26.7198 Q923.897 27.3274 926.976 28.5427 Z" fill="#000000" fill-rule="nonzero" fill-opacity="1"></path><path clip-path="url(#clip950)" d="M940.992 9.54393 L948.486 9.54393 L948.486 46.7717 L970.725 27.2059 L980.245 27.2059 L956.183 48.4326 L981.258 72.576 L971.536 72.576 L948.486 50.4176 L948.486 72.576 L940.992 72.576 L940.992 9.54393 Z" fill="#000000" fill-rule="nonzero" fill-opacity="1"></path><path clip-path="url(#clip950)" d="M1010.34 27.2059 L1018.24 27.2059 L1032.42 65.2844 L1046.6 27.2059 L1054.5 27.2059 L1037.48 72.576 L1027.36 72.576 L1010.34 27.2059 Z" fill="#000000" fill-rule="nonzero" fill-opacity="1"></path><path clip-path="url(#clip950)" d="M1093.71 28.5427 L1093.71 35.5912 Q1090.55 33.9709 1087.15 33.1607 Q1083.75 32.3505 1080.1 32.3505 Q1074.55 32.3505 1071.75 34.0519 Q1069 35.7533 1069 39.156 Q1069 41.7486 1070.99 43.2475 Q1072.97 44.7058 1078.97 46.0426 L1081.52 46.6097 Q1089.46 48.3111 1092.78 51.4303 Q1096.14 54.509 1096.14 60.0587 Q1096.14 66.3781 1091.12 70.0644 Q1086.14 73.7508 1077.39 73.7508 Q1073.74 73.7508 1069.77 73.0216 Q1065.84 72.3329 1061.47 70.9151 L1061.47 63.2184 Q1065.6 65.3654 1069.61 66.4591 Q1073.62 67.5124 1077.55 67.5124 Q1082.81 67.5124 1085.65 65.73 Q1088.49 63.9071 1088.49 60.6258 Q1088.49 57.5877 1086.42 55.9673 Q1084.39 54.3469 1077.47 52.8481 L1074.87 52.2405 Q1067.95 50.7821 1064.87 47.7845 Q1061.79 44.7463 1061.79 39.4801 Q1061.79 33.0797 1066.33 29.5959 Q1070.86 26.1121 1079.21 26.1121 Q1083.34 26.1121 1086.99 26.7198 Q1090.63 27.3274 1093.71 28.5427 Z" fill="#000000" fill-rule="nonzero" fill-opacity="1"></path><path clip-path="url(#clip950)" d="M1134.71 12.096 L1142.89 12.096 L1142.89 65.6895 L1172.34 65.6895 L1172.34 72.576 L1134.71 72.576 L1134.71 12.096 Z" fill="#000000" fill-rule="nonzero" fill-opacity="1"></path><path clip-path="url(#clip950)" d="M1196.73 32.4315 Q1190.73 32.4315 1187.25 37.1306 Q1183.76 41.7891 1183.76 49.9314 Q1183.76 58.0738 1187.21 62.7728 Q1190.69 67.4314 1196.73 67.4314 Q1202.68 67.4314 1206.16 62.7323 Q1209.65 58.0333 1209.65 49.9314 Q1209.65 41.8701 1206.16 37.1711 Q1202.68 32.4315 1196.73 32.4315 M1196.73 26.1121 Q1206.45 26.1121 1212 32.4315 Q1217.55 38.7509 1217.55 49.9314 Q1217.55 61.0714 1212 67.4314 Q1206.45 73.7508 1196.73 73.7508 Q1186.96 73.7508 1181.41 67.4314 Q1175.9 61.0714 1175.9 49.9314 Q1175.9 38.7509 1181.41 32.4315 Q1186.96 26.1121 1196.73 26.1121 Z" fill="#000000" fill-rule="nonzero" fill-opacity="1"></path><path clip-path="url(#clip950)" d="M1250.52 49.7694 Q1241.49 49.7694 1238 51.8354 Q1234.52 53.9013 1234.52 58.8839 Q1234.52 62.8538 1237.11 65.2034 Q1239.75 67.5124 1244.24 67.5124 Q1250.44 67.5124 1254.17 63.1374 Q1257.93 58.7219 1257.93 51.4303 L1257.93 49.7694 L1250.52 49.7694 M1265.39 46.6907 L1265.39 72.576 L1257.93 72.576 L1257.93 65.6895 Q1255.38 69.8214 1251.57 71.8063 Q1247.77 73.7508 1242.26 73.7508 Q1235.29 73.7508 1231.16 69.8619 Q1227.07 65.9325 1227.07 59.3701 Q1227.07 51.7138 1232.17 47.825 Q1237.32 43.9361 1247.48 43.9361 L1257.93 43.9361 L1257.93 43.2069 Q1257.93 38.0623 1254.53 35.2672 Q1251.17 32.4315 1245.05 32.4315 Q1241.16 32.4315 1237.48 33.3632 Q1233.79 34.295 1230.39 36.1584 L1230.39 29.2718 Q1234.48 27.692 1238.33 26.9223 Q1242.18 26.1121 1245.82 26.1121 Q1255.67 26.1121 1260.53 31.2163 Q1265.39 36.3204 1265.39 46.6907 Z" fill="#000000" fill-rule="nonzero" fill-opacity="1"></path><path clip-path="url(#clip950)" d="M1310.6 34.0924 L1310.6 9.54393 L1318.05 9.54393 L1318.05 72.576 L1310.6 72.576 L1310.6 65.7705 Q1308.25 69.8214 1304.64 71.8063 Q1301.08 73.7508 1296.05 73.7508 Q1287.83 73.7508 1282.65 67.1883 Q1277.5 60.6258 1277.5 49.9314 Q1277.5 39.2371 1282.65 32.6746 Q1287.83 26.1121 1296.05 26.1121 Q1301.08 26.1121 1304.64 28.0971 Q1308.25 30.0415 1310.6 34.0924 M1285.2 49.9314 Q1285.2 58.1548 1288.56 62.8538 Q1291.96 67.5124 1297.88 67.5124 Q1303.79 67.5124 1307.19 62.8538 Q1310.6 58.1548 1310.6 49.9314 Q1310.6 41.7081 1307.19 37.0496 Q1303.79 32.3505 1297.88 32.3505 Q1291.96 32.3505 1288.56 37.0496 Q1285.2 41.7081 1285.2 49.9314 Z" fill="#000000" fill-rule="nonzero" fill-opacity="1"></path><path clip-path="url(#clip950)" d="M1396.35 14.0809 L1396.35 22.0612 Q1391.7 19.8332 1387.56 18.7395 Q1383.43 17.6457 1379.58 17.6457 Q1372.9 17.6457 1369.25 20.2383 Q1365.65 22.8309 1365.65 27.611 Q1365.65 31.6214 1368.04 33.6873 Q1370.47 35.7128 1377.19 36.9686 L1382.14 37.9813 Q1391.29 39.7232 1395.62 44.1387 Q1400 48.5136 1400 55.8863 Q1400 64.6767 1394.09 69.2137 Q1388.21 73.7508 1376.83 73.7508 Q1372.53 73.7508 1367.67 72.7785 Q1362.85 71.8063 1357.67 69.9024 L1357.67 61.4765 Q1362.65 64.2716 1367.43 65.6895 Q1372.21 67.1073 1376.83 67.1073 Q1383.84 67.1073 1387.64 64.3527 Q1391.45 61.598 1391.45 56.4939 Q1391.45 52.0379 1388.7 49.5264 Q1385.98 47.0148 1379.75 45.759 L1374.76 44.7868 Q1365.61 42.9639 1361.52 39.075 Q1357.42 35.1862 1357.42 28.2591 Q1357.42 20.2383 1363.06 15.6203 Q1368.73 11.0023 1378.65 11.0023 Q1382.9 11.0023 1387.32 11.7719 Q1391.74 12.5416 1396.35 14.0809 Z" fill="#000000" fill-rule="nonzero" fill-opacity="1"></path><path clip-path="url(#clip950)" d="M1450.15 45.1919 L1450.15 72.576 L1442.7 72.576 L1442.7 45.4349 Q1442.7 38.994 1440.18 35.7938 Q1437.67 32.5936 1432.65 32.5936 Q1426.61 32.5936 1423.13 36.4419 Q1419.65 40.2903 1419.65 46.9338 L1419.65 72.576 L1412.15 72.576 L1412.15 9.54393 L1419.65 9.54393 L1419.65 34.2544 Q1422.32 30.163 1425.93 28.1376 Q1429.57 26.1121 1434.31 26.1121 Q1442.13 26.1121 1446.14 30.9732 Q1450.15 35.7938 1450.15 45.1919 Z" fill="#000000" fill-rule="nonzero" fill-opacity="1"></path><path clip-path="url(#clip950)" d="M1503.82 48.0275 L1503.82 51.6733 L1469.55 51.6733 Q1470.04 59.3701 1474.17 63.421 Q1478.34 67.4314 1485.76 67.4314 Q1490.05 67.4314 1494.06 66.3781 Q1498.11 65.3249 1502.08 63.2184 L1502.08 70.267 Q1498.07 71.9684 1493.86 72.8596 Q1489.65 73.7508 1485.31 73.7508 Q1474.46 73.7508 1468.1 67.4314 Q1461.78 61.1119 1461.78 50.3365 Q1461.78 39.1965 1467.77 32.6746 Q1473.81 26.1121 1484.02 26.1121 Q1493.17 26.1121 1498.48 32.0264 Q1503.82 37.9003 1503.82 48.0275 M1496.37 45.84 Q1496.29 39.7232 1492.93 36.0774 Q1489.61 32.4315 1484.1 32.4315 Q1477.86 32.4315 1474.09 35.9558 Q1470.36 39.4801 1469.8 45.8805 L1496.37 45.84 Z" fill="#000000" fill-rule="nonzero" fill-opacity="1"></path><path clip-path="url(#clip950)" d="M1545.91 34.0924 L1545.91 9.54393 L1553.37 9.54393 L1553.37 72.576 L1545.91 72.576 L1545.91 65.7705 Q1543.56 69.8214 1539.96 71.8063 Q1536.39 73.7508 1531.37 73.7508 Q1523.15 73.7508 1517.96 67.1883 Q1512.82 60.6258 1512.82 49.9314 Q1512.82 39.2371 1517.96 32.6746 Q1523.15 26.1121 1531.37 26.1121 Q1536.39 26.1121 1539.96 28.0971 Q1543.56 30.0415 1545.91 34.0924 M1520.51 49.9314 Q1520.51 58.1548 1523.88 62.8538 Q1527.28 67.5124 1533.19 67.5124 Q1539.11 67.5124 1542.51 62.8538 Q1545.91 58.1548 1545.91 49.9314 Q1545.91 41.7081 1542.51 37.0496 Q1539.11 32.3505 1533.19 32.3505 Q1527.28 32.3505 1523.88 37.0496 Q1520.51 41.7081 1520.51 49.9314 Z" fill="#000000" fill-rule="nonzero" fill-opacity="1"></path><path clip-path="url(#clip950)" d="M1618.06 9.54393 L1618.06 15.7418 L1610.93 15.7418 Q1606.92 15.7418 1605.34 17.3622 Q1603.8 18.9825 1603.8 23.1955 L1603.8 27.2059 L1616.07 27.2059 L1616.07 32.9987 L1603.8 32.9987 L1603.8 72.576 L1596.31 72.576 L1596.31 32.9987 L1589.18 32.9987 L1589.18 27.2059 L1596.31 27.2059 L1596.31 24.0462 Q1596.31 16.471 1599.83 13.0277 Q1603.36 9.54393 1611.01 9.54393 L1618.06 9.54393 Z" fill="#000000" fill-rule="nonzero" fill-opacity="1"></path><path clip-path="url(#clip950)" d="M1641.88 32.4315 Q1635.88 32.4315 1632.4 37.1306 Q1628.92 41.7891 1628.92 49.9314 Q1628.92 58.0738 1632.36 62.7728 Q1635.84 67.4314 1641.88 67.4314 Q1647.83 67.4314 1651.32 62.7323 Q1654.8 58.0333 1654.8 49.9314 Q1654.8 41.8701 1651.32 37.1711 Q1647.83 32.4315 1641.88 32.4315 M1641.88 26.1121 Q1651.6 26.1121 1657.15 32.4315 Q1662.7 38.7509 1662.7 49.9314 Q1662.7 61.0714 1657.15 67.4314 Q1651.6 73.7508 1641.88 73.7508 Q1632.12 73.7508 1626.57 67.4314 Q1621.06 61.0714 1621.06 49.9314 Q1621.06 38.7509 1626.57 32.4315 Q1632.12 26.1121 1641.88 26.1121 Z" fill="#000000" fill-rule="nonzero" fill-opacity="1"></path><path clip-path="url(#clip950)" d="M1701.35 34.1734 Q1700.09 33.4443 1698.59 33.1202 Q1697.13 32.7556 1695.35 32.7556 Q1689.03 32.7556 1685.63 36.8875 Q1682.27 40.9789 1682.27 48.6757 L1682.27 72.576 L1674.77 72.576 L1674.77 27.2059 L1682.27 27.2059 L1682.27 34.2544 Q1684.62 30.1225 1688.38 28.1376 Q1692.15 26.1121 1697.54 26.1121 Q1698.31 26.1121 1699.24 26.2337 Q1700.17 26.3147 1701.31 26.5172 L1701.35 34.1734 Z" fill="#000000" fill-rule="nonzero" fill-opacity="1"></path><path clip-path="url(#clip950)" d="M1764.46 28.5427 L1764.46 35.5912 Q1761.3 33.9709 1757.9 33.1607 Q1754.49 32.3505 1750.85 32.3505 Q1745.3 32.3505 1742.5 34.0519 Q1739.75 35.7533 1739.75 39.156 Q1739.75 41.7486 1741.73 43.2475 Q1743.72 44.7058 1749.71 46.0426 L1752.27 46.6097 Q1760.21 48.3111 1763.53 51.4303 Q1766.89 54.509 1766.89 60.0587 Q1766.89 66.3781 1761.87 70.0644 Q1756.88 73.7508 1748.13 73.7508 Q1744.49 73.7508 1740.52 73.0216 Q1736.59 72.3329 1732.21 70.9151 L1732.21 63.2184 Q1736.35 65.3654 1740.36 66.4591 Q1744.37 67.5124 1748.3 67.5124 Q1753.56 67.5124 1756.4 65.73 Q1759.23 63.9071 1759.23 60.6258 Q1759.23 57.5877 1757.17 55.9673 Q1755.14 54.3469 1748.22 52.8481 L1745.62 52.2405 Q1738.7 50.7821 1735.62 47.7845 Q1732.54 44.7463 1732.54 39.4801 Q1732.54 33.0797 1737.08 29.5959 Q1741.61 26.1121 1749.96 26.1121 Q1754.09 26.1121 1757.74 26.7198 Q1761.38 27.3274 1764.46 28.5427 Z" fill="#000000" fill-rule="nonzero" fill-opacity="1"></path><path clip-path="url(#clip950)" d="M1796.34 32.4315 Q1790.34 32.4315 1786.86 37.1306 Q1783.38 41.7891 1783.38 49.9314 Q1783.38 58.0738 1786.82 62.7728 Q1790.3 67.4314 1796.34 67.4314 Q1802.3 67.4314 1805.78 62.7323 Q1809.26 58.0333 1809.26 49.9314 Q1809.26 41.8701 1805.78 37.1711 Q1802.3 32.4315 1796.34 32.4315 M1796.34 26.1121 Q1806.06 26.1121 1811.61 32.4315 Q1817.16 38.7509 1817.16 49.9314 Q1817.16 61.0714 1811.61 67.4314 Q1806.06 73.7508 1796.34 73.7508 Q1786.58 73.7508 1781.03 67.4314 Q1775.52 61.0714 1775.52 49.9314 Q1775.52 38.7509 1781.03 32.4315 Q1786.58 26.1121 1796.34 26.1121 Z" fill="#000000" fill-rule="nonzero" fill-opacity="1"></path><path clip-path="url(#clip950)" d="M1829.52 9.54393 L1836.97 9.54393 L1836.97 72.576 L1829.52 72.576 L1829.52 9.54393 Z" fill="#000000" fill-rule="nonzero" fill-opacity="1"></path><path clip-path="url(#clip950)" d="M1891.37 48.0275 L1891.37 51.6733 L1857.1 51.6733 Q1857.59 59.3701 1861.72 63.421 Q1865.89 67.4314 1873.31 67.4314 Q1877.6 67.4314 1881.61 66.3781 Q1885.66 65.3249 1889.63 63.2184 L1889.63 70.267 Q1885.62 71.9684 1881.41 72.8596 Q1877.2 73.7508 1872.86 73.7508 Q1862.01 73.7508 1855.65 67.4314 Q1849.33 61.1119 1849.33 50.3365 Q1849.33 39.1965 1855.32 32.6746 Q1861.36 26.1121 1871.57 26.1121 Q1880.72 26.1121 1886.03 32.0264 Q1891.37 37.9003 1891.37 48.0275 M1883.92 45.84 Q1883.84 39.7232 1880.48 36.0774 Q1877.16 32.4315 1871.65 32.4315 Q1865.41 32.4315 1861.64 35.9558 Q1857.91 39.4801 1857.35 45.8805 L1883.92 45.84 Z" fill="#000000" fill-rule="nonzero" fill-opacity="1"></path><path clip-path="url(#clip950)" d="M1938.08 86.3491 L1938.08 92.1419 L1894.98 92.1419 L1894.98 86.3491 L1938.08 86.3491 Z" fill="#000000" fill-rule="nonzero" fill-opacity="1"></path><path clip-path="url(#clip950)" d="M1974.94 49.3643 Q1974.94 41.2625 1971.58 36.8065 Q1968.26 32.3505 1962.22 32.3505 Q1956.23 32.3505 1952.87 36.8065 Q1949.55 41.2625 1949.55 49.3643 Q1949.55 57.4256 1952.87 61.8816 Q1956.23 66.3376 1962.22 66.3376 Q1968.26 66.3376 1971.58 61.8816 Q1974.94 57.4256 1974.94 49.3643 M1982.4 66.9452 Q1982.4 78.5308 1977.25 84.1616 Q1972.11 89.8329 1961.5 89.8329 Q1957.57 89.8329 1954.08 89.2252 Q1950.6 88.6581 1947.32 87.4428 L1947.32 80.1917 Q1950.6 81.9741 1953.8 82.8248 Q1957 83.6755 1960.32 83.6755 Q1967.65 83.6755 1971.3 79.8271 Q1974.94 76.0193 1974.94 68.282 L1974.94 64.5957 Q1972.64 68.6061 1969.03 70.5911 Q1965.42 72.576 1960.4 72.576 Q1952.06 72.576 1946.95 66.2161 Q1941.85 59.8562 1941.85 49.3643 Q1941.85 38.832 1946.95 32.472 Q1952.06 26.1121 1960.4 26.1121 Q1965.42 26.1121 1969.03 28.0971 Q1972.64 30.082 1974.94 34.0924 L1974.94 27.2059 L1982.4 27.2059 L1982.4 66.9452 Z" fill="#000000" fill-rule="nonzero" fill-opacity="1"></path><path clip-path="url(#clip950)" d="M2036.56 48.0275 L2036.56 51.6733 L2002.29 51.6733 Q2002.77 59.3701 2006.91 63.421 Q2011.08 67.4314 2018.49 67.4314 Q2022.79 67.4314 2026.8 66.3781 Q2030.85 65.3249 2034.82 63.2184 L2034.82 70.267 Q2030.81 71.9684 2026.59 72.8596 Q2022.38 73.7508 2018.05 73.7508 Q2007.19 73.7508 2000.83 67.4314 Q1994.51 61.1119 1994.51 50.3365 Q1994.51 39.1965 2000.51 32.6746 Q2006.54 26.1121 2016.75 26.1121 Q2025.9 26.1121 2031.21 32.0264 Q2036.56 37.9003 2036.56 48.0275 M2029.11 45.84 Q2029.02 39.7232 2025.66 36.0774 Q2022.34 32.4315 2016.83 32.4315 Q2010.59 32.4315 2006.83 35.9558 Q2003.1 39.4801 2002.53 45.8805 L2029.11 45.84 Z" fill="#000000" fill-rule="nonzero" fill-opacity="1"></path><path clip-path="url(#clip950)" d="M2086.51 45.1919 L2086.51 72.576 L2079.05 72.576 L2079.05 45.4349 Q2079.05 38.994 2076.54 35.7938 Q2074.03 32.5936 2069.01 32.5936 Q2062.97 32.5936 2059.49 36.4419 Q2056 40.2903 2056 46.9338 L2056 72.576 L2048.51 72.576 L2048.51 27.2059 L2056 27.2059 L2056 34.2544 Q2058.68 30.163 2062.28 28.1376 Q2065.93 26.1121 2070.67 26.1121 Q2078.49 26.1121 2082.5 30.9732 Q2086.51 35.7938 2086.51 45.1919 Z" fill="#000000" fill-rule="nonzero" fill-opacity="1"></path><polyline clip-path="url(#clip952)" style="stroke:#009af9; stroke-linecap:round; stroke-linejoin:round; stroke-width:4; stroke-opacity:1; fill:none" points="265.903,160.256 265.903,160.256 265.903,160.256 265.903,160.256 327.519,405.484 623.816,650.712 1254.93,1141.17 1699.38,1386.4 2291.97,1386.4 "></polyline>
<polyline clip-path="url(#clip952)" style="stroke:#e26f46; stroke-linecap:round; stroke-linejoin:round; stroke-width:4; stroke-opacity:1; fill:none" points="368.357,405.484 368.357,405.484 368.357,405.484 623.226,405.484 662.307,650.712 662.307,650.712 721.975,650.712 662.307,650.712 662.307,650.712 931.892,895.94 963.934,895.94 931.892,895.94 963.934,895.94 931.892,895.94 963.934,895.94 963.934,895.94 1274.94,1141.17 1274.94,1141.17 1274.94,1141.17 1274.94,1141.17 1274.94,1141.17 1274.94,1141.17 1274.94,1141.17 1274.94,1141.17 1274.94,1141.17 1274.94,1141.17 1274.94,1141.17 1274.94,1141.17 1274.94,1141.17 1274.94,1141.17 "></polyline>
<path clip-path="url(#clip950)" d="M1818.37 322.316 L2281.17 322.316 L2281.17 166.796 L1818.37 166.796  Z" fill="#ffffff" fill-rule="evenodd" fill-opacity="1"></path>
<polyline clip-path="url(#clip950)" style="stroke:#000000; stroke-linecap:round; stroke-linejoin:round; stroke-width:4; stroke-opacity:1; fill:none" points="1818.37,322.316 2281.17,322.316 2281.17,166.796 1818.37,166.796 1818.37,322.316 "></polyline>
<polyline clip-path="url(#clip950)" style="stroke:#009af9; stroke-linecap:round; stroke-linejoin:round; stroke-width:4; stroke-opacity:1; fill:none" points="1842.24,218.636 1985.41,218.636 "></polyline>
<path clip-path="url(#clip950)" d="M2033.67 205.198 L2033.67 232.073 L2039.32 232.073 Q2046.47 232.073 2049.78 228.832 Q2053.12 225.592 2053.12 218.601 Q2053.12 211.657 2049.78 208.439 Q2046.47 205.198 2039.32 205.198 L2033.67 205.198 M2029 201.356 L2038.6 201.356 Q2048.65 201.356 2053.35 205.546 Q2058.05 209.712 2058.05 218.601 Q2058.05 227.536 2053.33 231.726 Q2048.6 235.916 2038.6 235.916 L2029 235.916 L2029 201.356 Z" fill="#000000" fill-rule="nonzero" fill-opacity="1"></path><path clip-path="url(#clip950)" d="M2091.38 204.018 L2091.38 208.948 Q2089.02 206.749 2086.33 205.661 Q2083.67 204.573 2080.66 204.573 Q2074.74 204.573 2071.59 208.208 Q2068.44 211.819 2068.44 218.67 Q2068.44 225.499 2071.59 229.133 Q2074.74 232.744 2080.66 232.744 Q2083.67 232.744 2086.33 231.656 Q2089.02 230.569 2091.38 228.369 L2091.38 233.254 Q2088.93 234.92 2086.17 235.754 Q2083.44 236.587 2080.39 236.587 Q2072.54 236.587 2068.02 231.795 Q2063.51 226.981 2063.51 218.67 Q2063.51 210.337 2068.02 205.546 Q2072.54 200.731 2080.39 200.731 Q2083.49 200.731 2086.22 201.564 Q2088.97 202.374 2091.38 204.018 Z" fill="#000000" fill-rule="nonzero" fill-opacity="1"></path><path clip-path="url(#clip950)" d="M2112.63 204.527 Q2107.54 204.527 2104.53 208.323 Q2101.54 212.12 2101.54 218.67 Q2101.54 225.198 2104.53 228.994 Q2107.54 232.791 2112.63 232.791 Q2117.72 232.791 2120.69 228.994 Q2123.67 225.198 2123.67 218.67 Q2123.67 212.12 2120.69 208.323 Q2117.72 204.527 2112.63 204.527 M2112.63 200.731 Q2119.9 200.731 2124.25 205.615 Q2128.6 210.476 2128.6 218.67 Q2128.6 226.842 2124.25 231.726 Q2119.9 236.587 2112.63 236.587 Q2105.34 236.587 2100.96 231.726 Q2096.61 226.865 2096.61 218.67 Q2096.61 210.476 2100.96 205.615 Q2105.34 200.731 2112.63 200.731 Z" fill="#000000" fill-rule="nonzero" fill-opacity="1"></path><path clip-path="url(#clip950)" d="M2140.59 205.198 L2140.59 218.184 L2146.47 218.184 Q2149.74 218.184 2151.52 216.495 Q2153.3 214.805 2153.3 211.68 Q2153.3 208.578 2151.52 206.888 Q2149.74 205.198 2146.47 205.198 L2140.59 205.198 M2135.92 201.356 L2146.47 201.356 Q2152.28 201.356 2155.25 203.995 Q2158.23 206.61 2158.23 211.68 Q2158.23 216.795 2155.25 219.411 Q2152.28 222.027 2146.47 222.027 L2140.59 222.027 L2140.59 235.916 L2135.92 235.916 L2135.92 201.356 Z" fill="#000000" fill-rule="nonzero" fill-opacity="1"></path><path clip-path="url(#clip950)" d="M2185.22 202.49 L2185.22 207.05 Q2182.56 205.777 2180.2 205.152 Q2177.84 204.527 2175.64 204.527 Q2171.82 204.527 2169.74 206.008 Q2167.68 207.49 2167.68 210.221 Q2167.68 212.513 2169.04 213.694 Q2170.43 214.851 2174.27 215.569 L2177.1 216.147 Q2182.33 217.143 2184.81 219.666 Q2187.31 222.166 2187.31 226.379 Q2187.31 231.402 2183.93 233.994 Q2180.57 236.587 2174.07 236.587 Q2171.61 236.587 2168.83 236.031 Q2166.08 235.476 2163.12 234.388 L2163.12 229.573 Q2165.96 231.17 2168.69 231.981 Q2171.43 232.791 2174.07 232.791 Q2178.07 232.791 2180.25 231.217 Q2182.42 229.643 2182.42 226.726 Q2182.42 224.18 2180.85 222.744 Q2179.3 221.309 2175.73 220.592 L2172.88 220.036 Q2167.65 218.995 2165.32 216.772 Q2162.98 214.55 2162.98 210.592 Q2162.98 206.008 2166.19 203.37 Q2169.44 200.731 2175.11 200.731 Q2177.54 200.731 2180.06 201.171 Q2182.58 201.61 2185.22 202.49 Z" fill="#000000" fill-rule="nonzero" fill-opacity="1"></path><polyline clip-path="url(#clip950)" style="stroke:#e26f46; stroke-linecap:round; stroke-linejoin:round; stroke-width:4; stroke-opacity:1; fill:none" points="1842.24,270.476 1985.41,270.476 "></polyline>
<path clip-path="url(#clip950)" d="M2009.27 253.196 L2015.57 253.196 L2030.89 282.108 L2030.89 253.196 L2035.43 253.196 L2035.43 287.756 L2029.14 287.756 L2013.81 258.844 L2013.81 287.756 L2009.27 287.756 L2009.27 253.196 Z" fill="#000000" fill-rule="nonzero" fill-opacity="1"></path><path clip-path="url(#clip950)" d="M2044.74 253.196 L2051.03 253.196 L2066.36 282.108 L2066.36 253.196 L2070.89 253.196 L2070.89 287.756 L2064.6 287.756 L2049.27 258.844 L2049.27 287.756 L2044.74 287.756 L2044.74 253.196 Z" fill="#000000" fill-rule="nonzero" fill-opacity="1"></path><path clip-path="url(#clip950)" d="M2099.71 295.626 L2099.71 298.936 L2075.08 298.936 L2075.08 295.626 L2099.71 295.626 Z" fill="#000000" fill-rule="nonzero" fill-opacity="1"></path><path clip-path="url(#clip950)" d="M2115.45 257.802 L2109.11 275.001 L2121.82 275.001 L2115.45 257.802 M2112.82 253.196 L2118.12 253.196 L2131.29 287.756 L2126.43 287.756 L2123.28 278.89 L2107.7 278.89 L2104.55 287.756 L2099.62 287.756 L2112.82 253.196 Z" fill="#000000" fill-rule="nonzero" fill-opacity="1"></path><path clip-path="url(#clip950)" d="M2161.38 255.858 L2161.38 260.788 Q2159.02 258.589 2156.33 257.501 Q2153.67 256.413 2150.66 256.413 Q2144.74 256.413 2141.59 260.048 Q2138.44 263.659 2138.44 270.51 Q2138.44 277.339 2141.59 280.973 Q2144.74 284.584 2150.66 284.584 Q2153.67 284.584 2156.33 283.496 Q2159.02 282.409 2161.38 280.209 L2161.38 285.094 Q2158.93 286.76 2156.17 287.594 Q2153.44 288.427 2150.38 288.427 Q2142.54 288.427 2138.02 283.635 Q2133.51 278.821 2133.51 270.51 Q2133.51 262.177 2138.02 257.386 Q2142.54 252.571 2150.38 252.571 Q2153.49 252.571 2156.22 253.404 Q2158.97 254.214 2161.38 255.858 Z" fill="#000000" fill-rule="nonzero" fill-opacity="1"></path><path clip-path="url(#clip950)" d="M2182.63 256.367 Q2177.54 256.367 2174.53 260.163 Q2171.54 263.96 2171.54 270.51 Q2171.54 277.038 2174.53 280.834 Q2177.54 284.631 2182.63 284.631 Q2187.72 284.631 2190.69 280.834 Q2193.67 277.038 2193.67 270.51 Q2193.67 263.96 2190.69 260.163 Q2187.72 256.367 2182.63 256.367 M2182.63 252.571 Q2189.9 252.571 2194.25 257.455 Q2198.6 262.316 2198.6 270.51 Q2198.6 278.682 2194.25 283.566 Q2189.9 288.427 2182.63 288.427 Q2175.34 288.427 2170.96 283.566 Q2166.61 278.705 2166.61 270.51 Q2166.61 262.316 2170.96 257.455 Q2175.34 252.571 2182.63 252.571 Z" fill="#000000" fill-rule="nonzero" fill-opacity="1"></path><path clip-path="url(#clip950)" d="M2210.59 257.038 L2210.59 270.024 L2216.47 270.024 Q2219.74 270.024 2221.52 268.335 Q2223.3 266.645 2223.3 263.52 Q2223.3 260.418 2221.52 258.728 Q2219.74 257.038 2216.47 257.038 L2210.59 257.038 M2205.92 253.196 L2216.47 253.196 Q2222.28 253.196 2225.25 255.835 Q2228.23 258.45 2228.23 263.52 Q2228.23 268.635 2225.25 271.251 Q2222.28 273.867 2216.47 273.867 L2210.59 273.867 L2210.59 287.756 L2205.92 287.756 L2205.92 253.196 Z" fill="#000000" fill-rule="nonzero" fill-opacity="1"></path><path clip-path="url(#clip950)" d="M2255.22 254.33 L2255.22 258.89 Q2252.56 257.617 2250.2 256.992 Q2247.84 256.367 2245.64 256.367 Q2241.82 256.367 2239.74 257.848 Q2237.68 259.33 2237.68 262.061 Q2237.68 264.353 2239.04 265.534 Q2240.43 266.691 2244.27 267.409 L2247.1 267.987 Q2252.33 268.983 2254.81 271.506 Q2257.31 274.006 2257.31 278.219 Q2257.31 283.242 2253.93 285.834 Q2250.57 288.427 2244.06 288.427 Q2241.61 288.427 2238.83 287.871 Q2236.08 287.316 2233.12 286.228 L2233.12 281.413 Q2235.96 283.01 2238.69 283.821 Q2241.43 284.631 2244.06 284.631 Q2248.07 284.631 2250.25 283.057 Q2252.42 281.483 2252.42 278.566 Q2252.42 276.02 2250.85 274.584 Q2249.3 273.149 2245.73 272.432 L2242.88 271.876 Q2237.65 270.835 2235.31 268.612 Q2232.98 266.39 2232.98 262.432 Q2232.98 257.848 2236.19 255.21 Q2239.44 252.571 2245.11 252.571 Q2247.54 252.571 2250.06 253.011 Q2252.58 253.45 2255.22 254.33 Z" fill="#000000" fill-rule="nonzero" fill-opacity="1"></path></svg>