<svg xmlns="http://www.w3.org/2000/svg" xmlns:xlink="http://www.w3.org/1999/xlink" width="600" height="400" viewBox="0 0 2400 1600">
<defs>
  <clipPath id="clip900">
    <rect x="0" y="0" width="2400" height="1600"></rect>
  </clipPath>
</defs>
<path clip-path="url(#clip900)" d="M0 1600 L2400 1600 L2400 0 L0 0  Z" fill="#ffffff" fill-rule="evenodd" fill-opacity="1"></path>
<defs>
  <clipPath id="clip901">
    <rect x="480" y="0" width="1681" height="1600"></rect>
  </clipPath>
</defs>
<path clip-path="url(#clip900)" d="M203.964 1423.18 L2352.76 1423.18 L2352.76 123.472 L203.964 123.472  Z" fill="#ffffff" fill-rule="evenodd" fill-opacity="1"></path>
<defs>
  <clipPath id="clip902">
    <rect x="203" y="123" width="2150" height="1301"></rect>
  </clipPath>
</defs>
<polyline clip-path="url(#clip902)" style="stroke:#000000; stroke-linecap:round; stroke-linejoin:round; stroke-width:2; stroke-opacity:0.1; fill:none" points="264.778,1423.18 264.778,123.472 "></polyline>
<polyline clip-path="url(#clip902)" style="stroke:#000000; stroke-linecap:round; stroke-linejoin:round; stroke-width:2; stroke-opacity:0.1; fill:none" points="771.569,1423.18 771.569,123.472 "></polyline>
<polyline clip-path="url(#clip902)" style="stroke:#000000; stroke-linecap:round; stroke-linejoin:round; stroke-width:2; stroke-opacity:0.1; fill:none" points="1278.36,1423.18 1278.36,123.472 "></polyline>
<polyline clip-path="url(#clip902)" style="stroke:#000000; stroke-linecap:round; stroke-linejoin:round; stroke-width:2; stroke-opacity:0.1; fill:none" points="1785.15,1423.18 1785.15,123.472 "></polyline>
<polyline clip-path="url(#clip902)" style="stroke:#000000; stroke-linecap:round; stroke-linejoin:round; stroke-width:2; stroke-opacity:0.1; fill:none" points="2291.94,1423.18 2291.94,123.472 "></polyline>
<polyline clip-path="url(#clip900)" style="stroke:#000000; stroke-linecap:round; stroke-linejoin:round; stroke-width:4; stroke-opacity:1; fill:none" points="203.964,1423.18 2352.76,1423.18 "></polyline>
<polyline clip-path="url(#clip900)" style="stroke:#000000; stroke-linecap:round; stroke-linejoin:round; stroke-width:4; stroke-opacity:1; fill:none" points="264.778,1423.18 264.778,1404.28 "></polyline>
<polyline clip-path="url(#clip900)" style="stroke:#000000; stroke-linecap:round; stroke-linejoin:round; stroke-width:4; stroke-opacity:1; fill:none" points="771.569,1423.18 771.569,1404.28 "></polyline>
<polyline clip-path="url(#clip900)" style="stroke:#000000; stroke-linecap:round; stroke-linejoin:round; stroke-width:4; stroke-opacity:1; fill:none" points="1278.36,1423.18 1278.36,1404.28 "></polyline>
<polyline clip-path="url(#clip900)" style="stroke:#000000; stroke-linecap:round; stroke-linejoin:round; stroke-width:4; stroke-opacity:1; fill:none" points="1785.15,1423.18 1785.15,1404.28 "></polyline>
<polyline clip-path="url(#clip900)" style="stroke:#000000; stroke-linecap:round; stroke-linejoin:round; stroke-width:4; stroke-opacity:1; fill:none" points="2291.94,1423.18 2291.94,1404.28 "></polyline>
<path clip-path="url(#clip900)" d="M264.778 1454.1 Q261.167 1454.1 259.339 1457.66 Q257.533 1461.2 257.533 1468.33 Q257.533 1475.44 259.339 1479.01 Q261.167 1482.55 264.778 1482.55 Q268.413 1482.55 270.218 1479.01 Q272.047 1475.44 272.047 1468.33 Q272.047 1461.2 270.218 1457.66 Q268.413 1454.1 264.778 1454.1 M264.778 1450.39 Q270.589 1450.39 273.644 1455 Q276.723 1459.58 276.723 1468.33 Q276.723 1477.06 273.644 1481.67 Q270.589 1486.25 264.778 1486.25 Q258.968 1486.25 255.89 1481.67 Q252.834 1477.06 252.834 1468.33 Q252.834 1459.58 255.89 1455 Q258.968 1450.39 264.778 1450.39 Z" fill="#000000" fill-rule="nonzero" fill-opacity="1"></path><path clip-path="url(#clip900)" d="M750.84 1481.64 L767.159 1481.64 L767.159 1485.58 L745.215 1485.58 L745.215 1481.64 Q747.877 1478.89 752.46 1474.26 Q757.067 1469.61 758.247 1468.27 Q760.493 1465.74 761.372 1464.01 Q762.275 1462.25 762.275 1460.56 Q762.275 1457.8 760.331 1456.07 Q758.409 1454.33 755.308 1454.33 Q753.109 1454.33 750.655 1455.09 Q748.224 1455.86 745.447 1457.41 L745.447 1452.69 Q748.271 1451.55 750.724 1450.97 Q753.178 1450.39 755.215 1450.39 Q760.585 1450.39 763.78 1453.08 Q766.974 1455.77 766.974 1460.26 Q766.974 1462.39 766.164 1464.31 Q765.377 1466.2 763.271 1468.8 Q762.692 1469.47 759.59 1472.69 Q756.488 1475.88 750.84 1481.64 Z" fill="#000000" fill-rule="nonzero" fill-opacity="1"></path><path clip-path="url(#clip900)" d="M777.02 1451.02 L795.377 1451.02 L795.377 1454.96 L781.303 1454.96 L781.303 1463.43 Q782.321 1463.08 783.34 1462.92 Q784.358 1462.73 785.377 1462.73 Q791.164 1462.73 794.544 1465.9 Q797.923 1469.08 797.923 1474.49 Q797.923 1480.07 794.451 1483.17 Q790.979 1486.25 784.659 1486.25 Q782.483 1486.25 780.215 1485.88 Q777.97 1485.51 775.562 1484.77 L775.562 1480.07 Q777.645 1481.2 779.868 1481.76 Q782.09 1482.32 784.567 1482.32 Q788.571 1482.32 790.909 1480.21 Q793.247 1478.1 793.247 1474.49 Q793.247 1470.88 790.909 1468.77 Q788.571 1466.67 784.567 1466.67 Q782.692 1466.67 780.817 1467.08 Q778.965 1467.5 777.02 1468.38 L777.02 1451.02 Z" fill="#000000" fill-rule="nonzero" fill-opacity="1"></path><path clip-path="url(#clip900)" d="M1253.06 1451.02 L1271.42 1451.02 L1271.42 1454.96 L1257.34 1454.96 L1257.34 1463.43 Q1258.36 1463.08 1259.38 1462.92 Q1260.4 1462.73 1261.42 1462.73 Q1267.2 1462.73 1270.58 1465.9 Q1273.96 1469.08 1273.96 1474.49 Q1273.96 1480.07 1270.49 1483.17 Q1267.02 1486.25 1260.7 1486.25 Q1258.52 1486.25 1256.25 1485.88 Q1254.01 1485.51 1251.6 1484.77 L1251.6 1480.07 Q1253.68 1481.2 1255.91 1481.76 Q1258.13 1482.32 1260.61 1482.32 Q1264.61 1482.32 1266.95 1480.21 Q1269.29 1478.1 1269.29 1474.49 Q1269.29 1470.88 1266.95 1468.77 Q1264.61 1466.67 1260.61 1466.67 Q1258.73 1466.67 1256.86 1467.08 Q1255 1467.5 1253.06 1468.38 L1253.06 1451.02 Z" fill="#000000" fill-rule="nonzero" fill-opacity="1"></path><path clip-path="url(#clip900)" d="M1293.17 1454.1 Q1289.56 1454.1 1287.73 1457.66 Q1285.93 1461.2 1285.93 1468.33 Q1285.93 1475.44 1287.73 1479.01 Q1289.56 1482.55 1293.17 1482.55 Q1296.81 1482.55 1298.61 1479.01 Q1300.44 1475.44 1300.44 1468.33 Q1300.44 1461.2 1298.61 1457.66 Q1296.81 1454.1 1293.17 1454.1 M1293.17 1450.39 Q1298.98 1450.39 1302.04 1455 Q1305.12 1459.58 1305.12 1468.33 Q1305.12 1477.06 1302.04 1481.67 Q1298.98 1486.25 1293.17 1486.25 Q1287.36 1486.25 1284.29 1481.67 Q1281.23 1477.06 1281.23 1468.33 Q1281.23 1459.58 1284.29 1455 Q1287.36 1450.39 1293.17 1450.39 Z" fill="#000000" fill-rule="nonzero" fill-opacity="1"></path><path clip-path="url(#clip900)" d="M1759 1451.02 L1781.23 1451.02 L1781.23 1453.01 L1768.68 1485.58 L1763.8 1485.58 L1775.6 1454.96 L1759 1454.96 L1759 1451.02 Z" fill="#000000" fill-rule="nonzero" fill-opacity="1"></path><path clip-path="url(#clip900)" d="M1790.39 1451.02 L1808.75 1451.02 L1808.75 1454.96 L1794.68 1454.96 L1794.68 1463.43 Q1795.69 1463.08 1796.71 1462.92 Q1797.73 1462.73 1798.75 1462.73 Q1804.54 1462.73 1807.92 1465.9 Q1811.3 1469.08 1811.3 1474.49 Q1811.3 1480.07 1807.82 1483.17 Q1804.35 1486.25 1798.03 1486.25 Q1795.86 1486.25 1793.59 1485.88 Q1791.34 1485.51 1788.94 1484.77 L1788.94 1480.07 Q1791.02 1481.2 1793.24 1481.76 Q1795.46 1482.32 1797.94 1482.32 Q1801.94 1482.32 1804.28 1480.21 Q1806.62 1478.1 1806.62 1474.49 Q1806.62 1470.88 1804.28 1468.77 Q1801.94 1466.67 1797.94 1466.67 Q1796.06 1466.67 1794.19 1467.08 Q1792.34 1467.5 1790.39 1468.38 L1790.39 1451.02 Z" fill="#000000" fill-rule="nonzero" fill-opacity="1"></path><path clip-path="url(#clip900)" d="M2251.55 1481.64 L2259.19 1481.64 L2259.19 1455.28 L2250.88 1456.95 L2250.88 1452.69 L2259.14 1451.02 L2263.82 1451.02 L2263.82 1481.64 L2271.46 1481.64 L2271.46 1485.58 L2251.55 1485.58 L2251.55 1481.64 Z" fill="#000000" fill-rule="nonzero" fill-opacity="1"></path><path clip-path="url(#clip900)" d="M2290.9 1454.1 Q2287.29 1454.1 2285.46 1457.66 Q2283.65 1461.2 2283.65 1468.33 Q2283.65 1475.44 2285.46 1479.01 Q2287.29 1482.55 2290.9 1482.55 Q2294.53 1482.55 2296.34 1479.01 Q2298.17 1475.44 2298.17 1468.33 Q2298.17 1461.2 2296.34 1457.66 Q2294.53 1454.1 2290.9 1454.1 M2290.9 1450.39 Q2296.71 1450.39 2299.77 1455 Q2302.84 1459.58 2302.84 1468.33 Q2302.84 1477.06 2299.77 1481.67 Q2296.71 1486.25 2290.9 1486.25 Q2285.09 1486.25 2282.01 1481.67 Q2278.95 1477.06 2278.95 1468.33 Q2278.95 1459.58 2282.01 1455 Q2285.09 1450.39 2290.9 1450.39 Z" fill="#000000" fill-rule="nonzero" fill-opacity="1"></path><path clip-path="url(#clip900)" d="M2321.06 1454.1 Q2317.45 1454.1 2315.62 1457.66 Q2313.82 1461.2 2313.82 1468.33 Q2313.82 1475.44 2315.62 1479.01 Q2317.45 1482.55 2321.06 1482.55 Q2324.7 1482.55 2326.5 1479.01 Q2328.33 1475.44 2328.33 1468.33 Q2328.33 1461.2 2326.5 1457.66 Q2324.7 1454.1 2321.06 1454.1 M2321.06 1450.39 Q2326.87 1450.39 2329.93 1455 Q2333.01 1459.58 2333.01 1468.33 Q2333.01 1477.06 2329.93 1481.67 Q2326.87 1486.25 2321.06 1486.25 Q2315.25 1486.25 2312.17 1481.67 Q2309.12 1477.06 2309.12 1468.33 Q2309.12 1459.58 2312.17 1455 Q2315.25 1450.39 2321.06 1450.39 Z" fill="#000000" fill-rule="nonzero" fill-opacity="1"></path><path clip-path="url(#clip900)" d="M884.832 1525.81 L884.832 1543.66 L892.916 1543.66 Q897.404 1543.66 899.855 1541.34 Q902.306 1539.02 902.306 1534.72 Q902.306 1530.45 899.855 1528.13 Q897.404 1525.81 892.916 1525.81 L884.832 1525.81 M878.402 1520.52 L892.916 1520.52 Q900.905 1520.52 904.979 1524.15 Q909.085 1527.75 909.085 1534.72 Q909.085 1541.75 904.979 1545.35 Q900.905 1548.95 892.916 1548.95 L884.832 1548.95 L884.832 1568.04 L878.402 1568.04 L878.402 1520.52 Z" fill="#000000" fill-rule="nonzero" fill-opacity="1"></path><path clip-path="url(#clip900)" d="M945.624 1548.76 L945.624 1551.62 L918.697 1551.62 Q919.079 1557.67 922.326 1560.85 Q925.604 1564 931.429 1564 Q934.803 1564 937.954 1563.17 Q941.136 1562.35 944.256 1560.69 L944.256 1566.23 Q941.105 1567.57 937.794 1568.27 Q934.484 1568.97 931.079 1568.97 Q922.549 1568.97 917.551 1564 Q912.586 1559.04 912.586 1550.57 Q912.586 1541.82 917.297 1536.69 Q922.039 1531.54 930.06 1531.54 Q937.253 1531.54 941.423 1536.18 Q945.624 1540.8 945.624 1548.76 M939.768 1547.04 Q939.704 1542.23 937.062 1539.37 Q934.452 1536.5 930.124 1536.5 Q925.222 1536.5 922.262 1539.27 Q919.334 1542.04 918.888 1547.07 L939.768 1547.04 Z" fill="#000000" fill-rule="nonzero" fill-opacity="1"></path><path clip-path="url(#clip900)" d="M975.893 1537.87 Q974.907 1537.3 973.729 1537.04 Q972.583 1536.76 971.183 1536.76 Q966.217 1536.76 963.544 1540 Q960.902 1543.22 960.902 1549.27 L960.902 1568.04 L955.014 1568.04 L955.014 1532.4 L960.902 1532.4 L960.902 1537.93 Q962.748 1534.69 965.708 1533.13 Q968.668 1531.54 972.901 1531.54 Q973.506 1531.54 974.238 1531.63 Q974.97 1531.7 975.861 1531.85 L975.893 1537.87 Z" fill="#000000" fill-rule="nonzero" fill-opacity="1"></path><path clip-path="url(#clip900)" d="M1006.26 1533.76 L1006.26 1539.24 Q1003.77 1537.87 1001.26 1537.2 Q998.778 1536.5 996.232 1536.5 Q990.534 1536.5 987.383 1540.13 Q984.232 1543.73 984.232 1550.25 Q984.232 1556.78 987.383 1560.4 Q990.534 1564 996.232 1564 Q998.778 1564 1001.26 1563.33 Q1003.77 1562.63 1006.26 1561.26 L1006.26 1566.68 Q1003.81 1567.82 1001.17 1568.39 Q998.555 1568.97 995.595 1568.97 Q987.542 1568.97 982.8 1563.91 Q978.058 1558.85 978.058 1550.25 Q978.058 1541.53 982.832 1536.53 Q987.638 1531.54 995.977 1531.54 Q998.682 1531.54 1001.26 1532.11 Q1003.84 1532.65 1006.26 1533.76 Z" fill="#000000" fill-rule="nonzero" fill-opacity="1"></path><path clip-path="url(#clip900)" d="M1046.93 1548.76 L1046.93 1551.62 L1020.01 1551.62 Q1020.39 1557.67 1023.64 1560.85 Q1026.91 1564 1032.74 1564 Q1036.11 1564 1039.26 1563.17 Q1042.45 1562.35 1045.57 1560.69 L1045.57 1566.23 Q1042.41 1567.57 1039.1 1568.27 Q1035.79 1568.97 1032.39 1568.97 Q1023.86 1568.97 1018.86 1564 Q1013.9 1559.04 1013.9 1550.57 Q1013.9 1541.82 1018.61 1536.69 Q1023.35 1531.54 1031.37 1531.54 Q1038.56 1531.54 1042.73 1536.18 Q1046.93 1540.8 1046.93 1548.76 M1041.08 1547.04 Q1041.01 1542.23 1038.37 1539.37 Q1035.76 1536.5 1031.43 1536.5 Q1026.53 1536.5 1023.57 1539.27 Q1020.64 1542.04 1020.2 1547.07 L1041.08 1547.04 Z" fill="#000000" fill-rule="nonzero" fill-opacity="1"></path><path clip-path="url(#clip900)" d="M1086.18 1546.53 L1086.18 1568.04 L1080.32 1568.04 L1080.32 1546.72 Q1080.32 1541.66 1078.35 1539.14 Q1076.38 1536.63 1072.43 1536.63 Q1067.69 1536.63 1064.95 1539.65 Q1062.21 1542.68 1062.21 1547.9 L1062.21 1568.04 L1056.32 1568.04 L1056.32 1532.4 L1062.21 1532.4 L1062.21 1537.93 Q1064.31 1534.72 1067.15 1533.13 Q1070.01 1531.54 1073.73 1531.54 Q1079.88 1531.54 1083.03 1535.36 Q1086.18 1539.14 1086.18 1546.53 Z" fill="#000000" fill-rule="nonzero" fill-opacity="1"></path><path clip-path="url(#clip900)" d="M1103.65 1522.27 L1103.65 1532.4 L1115.72 1532.4 L1115.72 1536.95 L1103.65 1536.95 L1103.65 1556.3 Q1103.65 1560.66 1104.83 1561.9 Q1106.04 1563.14 1109.7 1563.14 L1115.72 1563.14 L1115.72 1568.04 L1109.7 1568.04 Q1102.92 1568.04 1100.34 1565.53 Q1097.76 1562.98 1097.76 1556.3 L1097.76 1536.95 L1093.47 1536.95 L1093.47 1532.4 L1097.76 1532.4 L1097.76 1522.27 L1103.65 1522.27 Z" fill="#000000" fill-rule="nonzero" fill-opacity="1"></path><path clip-path="url(#clip900)" d="M1139.62 1550.12 Q1132.52 1550.12 1129.78 1551.75 Q1127.05 1553.37 1127.05 1557.29 Q1127.05 1560.4 1129.08 1562.25 Q1131.15 1564.07 1134.69 1564.07 Q1139.56 1564.07 1142.48 1560.63 Q1145.44 1557.16 1145.44 1551.43 L1145.44 1550.12 L1139.62 1550.12 M1151.3 1547.71 L1151.3 1568.04 L1145.44 1568.04 L1145.44 1562.63 Q1143.44 1565.88 1140.45 1567.44 Q1137.45 1568.97 1133.13 1568.97 Q1127.65 1568.97 1124.41 1565.91 Q1121.19 1562.82 1121.19 1557.67 Q1121.19 1551.65 1125.2 1548.6 Q1129.24 1545.54 1137.23 1545.54 L1145.44 1545.54 L1145.44 1544.97 Q1145.44 1540.93 1142.77 1538.73 Q1140.13 1536.5 1135.32 1536.5 Q1132.27 1536.5 1129.37 1537.23 Q1126.47 1537.97 1123.8 1539.43 L1123.8 1534.02 Q1127.02 1532.78 1130.04 1532.17 Q1133.06 1531.54 1135.93 1531.54 Q1143.66 1531.54 1147.48 1535.55 Q1151.3 1539.56 1151.3 1547.71 Z" fill="#000000" fill-rule="nonzero" fill-opacity="1"></path><path clip-path="url(#clip900)" d="M1186.82 1549.81 Q1186.82 1543.44 1184.18 1539.94 Q1181.57 1536.44 1176.83 1536.44 Q1172.12 1536.44 1169.47 1539.94 Q1166.86 1543.44 1166.86 1549.81 Q1166.86 1556.14 1169.47 1559.64 Q1172.12 1563.14 1176.83 1563.14 Q1181.57 1563.14 1184.18 1559.64 Q1186.82 1556.14 1186.82 1549.81 M1192.68 1563.62 Q1192.68 1572.72 1188.64 1577.15 Q1184.59 1581.6 1176.25 1581.6 Q1173.17 1581.6 1170.43 1581.13 Q1167.69 1580.68 1165.11 1579.72 L1165.11 1574.03 Q1167.69 1575.43 1170.21 1576.1 Q1172.72 1576.76 1175.33 1576.76 Q1181.09 1576.76 1183.96 1573.74 Q1186.82 1570.75 1186.82 1564.67 L1186.82 1561.77 Q1185.01 1564.92 1182.17 1566.48 Q1179.34 1568.04 1175.39 1568.04 Q1168.84 1568.04 1164.83 1563.05 Q1160.82 1558.05 1160.82 1549.81 Q1160.82 1541.53 1164.83 1536.53 Q1168.84 1531.54 1175.39 1531.54 Q1179.34 1531.54 1182.17 1533.1 Q1185.01 1534.66 1186.82 1537.81 L1186.82 1532.4 L1192.68 1532.4 L1192.68 1563.62 Z" fill="#000000" fill-rule="nonzero" fill-opacity="1"></path><path clip-path="url(#clip900)" d="M1235.23 1548.76 L1235.23 1551.62 L1208.31 1551.62 Q1208.69 1557.67 1211.93 1560.85 Q1215.21 1564 1221.04 1564 Q1224.41 1564 1227.56 1563.17 Q1230.74 1562.35 1233.86 1560.69 L1233.86 1566.23 Q1230.71 1567.57 1227.4 1568.27 Q1224.09 1568.97 1220.69 1568.97 Q1212.16 1568.97 1207.16 1564 Q1202.19 1559.04 1202.19 1550.57 Q1202.19 1541.82 1206.9 1536.69 Q1211.65 1531.54 1219.67 1531.54 Q1226.86 1531.54 1231.03 1536.18 Q1235.23 1540.8 1235.23 1548.76 M1229.38 1547.04 Q1229.31 1542.23 1226.67 1539.37 Q1224.06 1536.5 1219.73 1536.5 Q1214.83 1536.5 1211.87 1539.27 Q1208.94 1542.04 1208.5 1547.07 L1229.38 1547.04 Z" fill="#000000" fill-rule="nonzero" fill-opacity="1"></path><path clip-path="url(#clip900)" d="M1279.38 1536.5 Q1274.67 1536.5 1271.93 1540.19 Q1269.19 1543.85 1269.19 1550.25 Q1269.19 1556.65 1271.9 1560.34 Q1274.64 1564 1279.38 1564 Q1284.06 1564 1286.79 1560.31 Q1289.53 1556.62 1289.53 1550.25 Q1289.53 1543.92 1286.79 1540.23 Q1284.06 1536.5 1279.38 1536.5 M1279.38 1531.54 Q1287.02 1531.54 1291.38 1536.5 Q1295.74 1541.47 1295.74 1550.25 Q1295.74 1559 1291.38 1564 Q1287.02 1568.97 1279.38 1568.97 Q1271.71 1568.97 1267.35 1564 Q1263.02 1559 1263.02 1550.25 Q1263.02 1541.47 1267.35 1536.5 Q1271.71 1531.54 1279.38 1531.54 Z" fill="#000000" fill-rule="nonzero" fill-opacity="1"></path><path clip-path="url(#clip900)" d="M1323.49 1518.52 L1323.49 1523.39 L1317.89 1523.39 Q1314.74 1523.39 1313.5 1524.66 Q1312.29 1525.93 1312.29 1529.24 L1312.29 1532.4 L1321.93 1532.4 L1321.93 1536.95 L1312.29 1536.95 L1312.29 1568.04 L1306.4 1568.04 L1306.4 1536.95 L1300.8 1536.95 L1300.8 1532.4 L1306.4 1532.4 L1306.4 1529.91 Q1306.4 1523.96 1309.17 1521.26 Q1311.94 1518.52 1317.95 1518.52 L1323.49 1518.52 Z" fill="#000000" fill-rule="nonzero" fill-opacity="1"></path><path clip-path="url(#clip900)" d="M1349.37 1520.52 L1355.8 1520.52 L1355.8 1562.63 L1378.94 1562.63 L1378.94 1568.04 L1349.37 1568.04 L1349.37 1520.52 Z" fill="#000000" fill-rule="nonzero" fill-opacity="1"></path><path clip-path="url(#clip900)" d="M1398.1 1536.5 Q1393.39 1536.5 1390.65 1540.19 Q1387.91 1543.85 1387.91 1550.25 Q1387.91 1556.65 1390.62 1560.34 Q1393.36 1564 1398.1 1564 Q1402.78 1564 1405.51 1560.31 Q1408.25 1556.62 1408.25 1550.25 Q1408.25 1543.92 1405.51 1540.23 Q1402.78 1536.5 1398.1 1536.5 M1398.1 1531.54 Q1405.74 1531.54 1410.1 1536.5 Q1414.46 1541.47 1414.46 1550.25 Q1414.46 1559 1410.1 1564 Q1405.74 1568.97 1398.1 1568.97 Q1390.43 1568.97 1386.07 1564 Q1381.74 1559 1381.74 1550.25 Q1381.74 1541.47 1386.07 1536.5 Q1390.43 1531.54 1398.1 1531.54 Z" fill="#000000" fill-rule="nonzero" fill-opacity="1"></path><path clip-path="url(#clip900)" d="M1440.37 1550.12 Q1433.27 1550.12 1430.53 1551.75 Q1427.79 1553.37 1427.79 1557.29 Q1427.79 1560.4 1429.83 1562.25 Q1431.9 1564.07 1435.43 1564.07 Q1440.3 1564.07 1443.23 1560.63 Q1446.19 1557.16 1446.19 1551.43 L1446.19 1550.12 L1440.37 1550.12 M1452.05 1547.71 L1452.05 1568.04 L1446.19 1568.04 L1446.19 1562.63 Q1444.19 1565.88 1441.19 1567.44 Q1438.2 1568.97 1433.87 1568.97 Q1428.4 1568.97 1425.15 1565.91 Q1421.94 1562.82 1421.94 1557.67 Q1421.94 1551.65 1425.95 1548.6 Q1429.99 1545.54 1437.98 1545.54 L1446.19 1545.54 L1446.19 1544.97 Q1446.19 1540.93 1443.52 1538.73 Q1440.88 1536.5 1436.07 1536.5 Q1433.01 1536.5 1430.12 1537.23 Q1427.22 1537.97 1424.55 1539.43 L1424.55 1534.02 Q1427.76 1532.78 1430.79 1532.17 Q1433.81 1531.54 1436.67 1531.54 Q1444.41 1531.54 1448.23 1535.55 Q1452.05 1539.56 1452.05 1547.71 Z" fill="#000000" fill-rule="nonzero" fill-opacity="1"></path><path clip-path="url(#clip900)" d="M1487.57 1537.81 L1487.57 1518.52 L1493.43 1518.52 L1493.43 1568.04 L1487.57 1568.04 L1487.57 1562.7 Q1485.72 1565.88 1482.89 1567.44 Q1480.09 1568.97 1476.14 1568.97 Q1469.68 1568.97 1465.61 1563.81 Q1461.56 1558.65 1461.56 1550.25 Q1461.56 1541.85 1465.61 1536.69 Q1469.68 1531.54 1476.14 1531.54 Q1480.09 1531.54 1482.89 1533.1 Q1485.72 1534.62 1487.57 1537.81 M1467.61 1550.25 Q1467.61 1556.71 1470.25 1560.4 Q1472.93 1564.07 1477.57 1564.07 Q1482.22 1564.07 1484.9 1560.4 Q1487.57 1556.71 1487.57 1550.25 Q1487.57 1543.79 1484.9 1540.13 Q1482.22 1536.44 1477.57 1536.44 Q1472.93 1536.44 1470.25 1540.13 Q1467.61 1543.79 1467.61 1550.25 Z" fill="#000000" fill-rule="nonzero" fill-opacity="1"></path><path clip-path="url(#clip900)" d="M1554.95 1522.08 L1554.95 1528.35 Q1551.29 1526.6 1548.04 1525.74 Q1544.8 1524.88 1541.77 1524.88 Q1536.52 1524.88 1533.66 1526.92 Q1530.82 1528.96 1530.82 1532.71 Q1530.82 1535.87 1532.7 1537.49 Q1534.61 1539.08 1539.89 1540.07 L1543.78 1540.86 Q1550.97 1542.23 1554.38 1545.7 Q1557.81 1549.14 1557.81 1554.93 Q1557.81 1561.84 1553.17 1565.4 Q1548.55 1568.97 1539.61 1568.97 Q1536.23 1568.97 1532.42 1568.2 Q1528.63 1567.44 1524.55 1565.94 L1524.55 1559.32 Q1528.47 1561.52 1532.22 1562.63 Q1535.98 1563.75 1539.61 1563.75 Q1545.11 1563.75 1548.11 1561.58 Q1551.1 1559.42 1551.1 1555.41 Q1551.1 1551.91 1548.93 1549.93 Q1546.8 1547.96 1541.9 1546.97 L1537.99 1546.21 Q1530.79 1544.78 1527.58 1541.72 Q1524.36 1538.67 1524.36 1533.22 Q1524.36 1526.92 1528.79 1523.29 Q1533.24 1519.66 1541.04 1519.66 Q1544.38 1519.66 1547.85 1520.27 Q1551.32 1520.87 1554.95 1522.08 Z" fill="#000000" fill-rule="nonzero" fill-opacity="1"></path><path clip-path="url(#clip900)" d="M1597.22 1546.53 L1597.22 1568.04 L1591.36 1568.04 L1591.36 1546.72 Q1591.36 1541.66 1589.39 1539.14 Q1587.41 1536.63 1583.47 1536.63 Q1578.73 1536.63 1575.99 1539.65 Q1573.25 1542.68 1573.25 1547.9 L1573.25 1568.04 L1567.36 1568.04 L1567.36 1518.52 L1573.25 1518.52 L1573.25 1537.93 Q1575.35 1534.72 1578.18 1533.13 Q1581.05 1531.54 1584.77 1531.54 Q1590.92 1531.54 1594.07 1535.36 Q1597.22 1539.14 1597.22 1546.53 Z" fill="#000000" fill-rule="nonzero" fill-opacity="1"></path><path clip-path="url(#clip900)" d="M1639.39 1548.76 L1639.39 1551.62 L1612.46 1551.62 Q1612.85 1557.67 1616.09 1560.85 Q1619.37 1564 1625.2 1564 Q1628.57 1564 1631.72 1563.17 Q1634.9 1562.35 1638.02 1560.69 L1638.02 1566.23 Q1634.87 1567.57 1631.56 1568.27 Q1628.25 1568.97 1624.85 1568.97 Q1616.32 1568.97 1611.32 1564 Q1606.35 1559.04 1606.35 1550.57 Q1606.35 1541.82 1611.06 1536.69 Q1615.81 1531.54 1623.83 1531.54 Q1631.02 1531.54 1635.19 1536.18 Q1639.39 1540.8 1639.39 1548.76 M1633.53 1547.04 Q1633.47 1542.23 1630.83 1539.37 Q1628.22 1536.5 1623.89 1536.5 Q1618.99 1536.5 1616.03 1539.27 Q1613.1 1542.04 1612.65 1547.07 L1633.53 1547.04 Z" fill="#000000" fill-rule="nonzero" fill-opacity="1"></path><path clip-path="url(#clip900)" d="M1672.46 1537.81 L1672.46 1518.52 L1678.32 1518.52 L1678.32 1568.04 L1672.46 1568.04 L1672.46 1562.7 Q1670.61 1565.88 1667.78 1567.44 Q1664.98 1568.97 1661.03 1568.97 Q1654.57 1568.97 1650.5 1563.81 Q1646.46 1558.65 1646.46 1550.25 Q1646.46 1541.85 1650.5 1536.69 Q1654.57 1531.54 1661.03 1531.54 Q1664.98 1531.54 1667.78 1533.1 Q1670.61 1534.62 1672.46 1537.81 M1652.5 1550.25 Q1652.5 1556.71 1655.15 1560.4 Q1657.82 1564.07 1662.47 1564.07 Q1667.11 1564.07 1669.79 1560.4 Q1672.46 1556.71 1672.46 1550.25 Q1672.46 1543.79 1669.79 1540.13 Q1667.11 1536.44 1662.47 1536.44 Q1657.82 1536.44 1655.15 1540.13 Q1652.5 1543.79 1652.5 1550.25 Z" fill="#000000" fill-rule="nonzero" fill-opacity="1"></path><polyline clip-path="url(#clip902)" style="stroke:#000000; stroke-linecap:round; stroke-linejoin:round; stroke-width:2; stroke-opacity:0.1; fill:none" points="203.964,1386.4 2352.76,1386.4 "></polyline>
<polyline clip-path="url(#clip902)" style="stroke:#000000; stroke-linecap:round; stroke-linejoin:round; stroke-width:2; stroke-opacity:0.1; fill:none" points="203.964,1059.43 2352.76,1059.43 "></polyline>
<polyline clip-path="url(#clip902)" style="stroke:#000000; stroke-linecap:round; stroke-linejoin:round; stroke-width:2; stroke-opacity:0.1; fill:none" points="203.964,732.455 2352.76,732.455 "></polyline>
<polyline clip-path="url(#clip902)" style="stroke:#000000; stroke-linecap:round; stroke-linejoin:round; stroke-width:2; stroke-opacity:0.1; fill:none" points="203.964,405.484 2352.76,405.484 "></polyline>
<polyline clip-path="url(#clip900)" style="stroke:#000000; stroke-linecap:round; stroke-linejoin:round; stroke-width:4; stroke-opacity:1; fill:none" points="203.964,1423.18 203.964,123.472 "></polyline>
<polyline clip-path="url(#clip900)" style="stroke:#000000; stroke-linecap:round; stroke-linejoin:round; stroke-width:4; stroke-opacity:1; fill:none" points="203.964,1386.4 222.861,1386.4 "></polyline>
<polyline clip-path="url(#clip900)" style="stroke:#000000; stroke-linecap:round; stroke-linejoin:round; stroke-width:4; stroke-opacity:1; fill:none" points="203.964,1059.43 222.861,1059.43 "></polyline>
<polyline clip-path="url(#clip900)" style="stroke:#000000; stroke-linecap:round; stroke-linejoin:round; stroke-width:4; stroke-opacity:1; fill:none" points="203.964,732.455 222.861,732.455 "></polyline>
<polyline clip-path="url(#clip900)" style="stroke:#000000; stroke-linecap:round; stroke-linejoin:round; stroke-width:4; stroke-opacity:1; fill:none" points="203.964,405.484 222.861,405.484 "></polyline>
<path clip-path="url(#clip900)" d="M156.019 1372.19 Q152.408 1372.19 150.579 1375.76 Q148.774 1379.3 148.774 1386.43 Q148.774 1393.54 150.579 1397.1 Q152.408 1400.64 156.019 1400.64 Q159.653 1400.64 161.459 1397.1 Q163.288 1393.54 163.288 1386.43 Q163.288 1379.3 161.459 1375.76 Q159.653 1372.19 156.019 1372.19 M156.019 1368.49 Q161.829 1368.49 164.885 1373.1 Q167.964 1377.68 167.964 1386.43 Q167.964 1395.16 164.885 1399.76 Q161.829 1404.35 156.019 1404.35 Q150.209 1404.35 147.13 1399.76 Q144.075 1395.16 144.075 1386.43 Q144.075 1377.68 147.13 1373.1 Q150.209 1368.49 156.019 1368.49 Z" fill="#000000" fill-rule="nonzero" fill-opacity="1"></path><path clip-path="url(#clip900)" d="M116.668 1072.77 L124.306 1072.77 L124.306 1046.4 L115.996 1048.07 L115.996 1043.81 L124.26 1042.15 L128.936 1042.15 L128.936 1072.77 L136.575 1072.77 L136.575 1076.71 L116.668 1076.71 L116.668 1072.77 Z" fill="#000000" fill-rule="nonzero" fill-opacity="1"></path><path clip-path="url(#clip900)" d="M156.019 1045.22 Q152.408 1045.22 150.579 1048.79 Q148.774 1052.33 148.774 1059.46 Q148.774 1066.57 150.579 1070.13 Q152.408 1073.67 156.019 1073.67 Q159.653 1073.67 161.459 1070.13 Q163.288 1066.57 163.288 1059.46 Q163.288 1052.33 161.459 1048.79 Q159.653 1045.22 156.019 1045.22 M156.019 1041.52 Q161.829 1041.52 164.885 1046.13 Q167.964 1050.71 167.964 1059.46 Q167.964 1068.19 164.885 1072.79 Q161.829 1077.38 156.019 1077.38 Q150.209 1077.38 147.13 1072.79 Q144.075 1068.19 144.075 1059.46 Q144.075 1050.71 147.13 1046.13 Q150.209 1041.52 156.019 1041.52 Z" fill="#000000" fill-rule="nonzero" fill-opacity="1"></path><path clip-path="url(#clip900)" d="M119.885 745.8 L136.204 745.8 L136.204 749.735 L114.26 749.735 L114.26 745.8 Q116.922 743.045 121.505 738.415 Q126.112 733.763 127.292 732.42 Q129.538 729.897 130.417 728.161 Q131.32 726.401 131.32 724.712 Q131.32 721.957 129.376 720.221 Q127.455 718.485 124.353 718.485 Q122.154 718.485 119.7 719.249 Q117.269 720.013 114.492 721.564 L114.492 716.841 Q117.316 715.707 119.769 715.128 Q122.223 714.55 124.26 714.55 Q129.63 714.55 132.825 717.235 Q136.019 719.92 136.019 724.411 Q136.019 726.54 135.209 728.462 Q134.422 730.36 132.316 732.952 Q131.737 733.624 128.635 736.841 Q125.533 740.036 119.885 745.8 Z" fill="#000000" fill-rule="nonzero" fill-opacity="1"></path><path clip-path="url(#clip900)" d="M156.019 718.253 Q152.408 718.253 150.579 721.818 Q148.774 725.36 148.774 732.489 Q148.774 739.596 150.579 743.161 Q152.408 746.702 156.019 746.702 Q159.653 746.702 161.459 743.161 Q163.288 739.596 163.288 732.489 Q163.288 725.36 161.459 721.818 Q159.653 718.253 156.019 718.253 M156.019 714.55 Q161.829 714.55 164.885 719.156 Q167.964 723.739 167.964 732.489 Q167.964 741.216 164.885 745.823 Q161.829 750.406 156.019 750.406 Q150.209 750.406 147.13 745.823 Q144.075 741.216 144.075 732.489 Q144.075 723.739 147.13 719.156 Q150.209 714.55 156.019 714.55 Z" fill="#000000" fill-rule="nonzero" fill-opacity="1"></path><path clip-path="url(#clip900)" d="M130.024 404.13 Q133.38 404.848 135.255 407.116 Q137.154 409.385 137.154 412.718 Q137.154 417.834 133.635 420.635 Q130.117 423.435 123.635 423.435 Q121.459 423.435 119.144 422.996 Q116.853 422.579 114.399 421.723 L114.399 417.209 Q116.343 418.343 118.658 418.922 Q120.973 419.5 123.496 419.5 Q127.894 419.5 130.186 417.764 Q132.501 416.028 132.501 412.718 Q132.501 409.662 130.348 407.949 Q128.218 406.213 124.399 406.213 L120.371 406.213 L120.371 402.371 L124.584 402.371 Q128.033 402.371 129.862 401.005 Q131.691 399.616 131.691 397.024 Q131.691 394.362 129.792 392.95 Q127.917 391.514 124.399 391.514 Q122.478 391.514 120.279 391.931 Q118.08 392.348 115.441 393.227 L115.441 389.061 Q118.103 388.32 120.418 387.95 Q122.755 387.579 124.816 387.579 Q130.14 387.579 133.242 390.01 Q136.343 392.417 136.343 396.537 Q136.343 399.408 134.7 401.399 Q133.056 403.366 130.024 404.13 Z" fill="#000000" fill-rule="nonzero" fill-opacity="1"></path><path clip-path="url(#clip900)" d="M156.019 391.283 Q152.408 391.283 150.579 394.848 Q148.774 398.389 148.774 405.519 Q148.774 412.625 150.579 416.19 Q152.408 419.732 156.019 419.732 Q159.653 419.732 161.459 416.19 Q163.288 412.625 163.288 405.519 Q163.288 398.389 161.459 394.848 Q159.653 391.283 156.019 391.283 M156.019 387.579 Q161.829 387.579 164.885 392.186 Q167.964 396.769 167.964 405.519 Q167.964 414.246 164.885 418.852 Q161.829 423.435 156.019 423.435 Q150.209 423.435 147.13 418.852 Q144.075 414.246 144.075 405.519 Q144.075 396.769 147.13 392.186 Q150.209 387.579 156.019 387.579 Z" fill="#000000" fill-rule="nonzero" fill-opacity="1"></path><path clip-path="url(#clip900)" d="M21.7677 1186.48 L39.6235 1186.48 L39.6235 1178.39 Q39.6235 1173.9 37.3 1171.45 Q34.9765 1169 30.6797 1169 Q26.4147 1169 24.0912 1171.45 Q21.7677 1173.9 21.7677 1178.39 L21.7677 1186.48 M16.4842 1192.91 L16.4842 1178.39 Q16.4842 1170.4 20.1126 1166.33 Q23.7092 1162.22 30.6797 1162.22 Q37.7138 1162.22 41.3104 1166.33 Q44.907 1170.4 44.907 1178.39 L44.907 1186.48 L64.0042 1186.48 L64.0042 1192.91 L16.4842 1192.91 Z" fill="#000000" fill-rule="nonzero" fill-opacity="1"></path><path clip-path="url(#clip900)" d="M44.7161 1125.68 L47.5806 1125.68 L47.5806 1152.61 Q53.6281 1152.23 56.8109 1148.98 Q59.9619 1145.7 59.9619 1139.88 Q59.9619 1136.51 59.1344 1133.35 Q58.3069 1130.17 56.6518 1127.05 L62.1899 1127.05 Q63.5267 1130.2 64.227 1133.51 Q64.9272 1136.82 64.9272 1140.23 Q64.9272 1148.76 59.9619 1153.76 Q54.9967 1158.72 46.5303 1158.72 Q37.7774 1158.72 32.6531 1154.01 Q27.4968 1149.27 27.4968 1141.25 Q27.4968 1134.05 32.1438 1129.89 Q36.7589 1125.68 44.7161 1125.68 M42.9973 1131.54 Q38.1912 1131.6 35.3266 1134.25 Q32.4621 1136.86 32.4621 1141.18 Q32.4621 1146.09 35.2312 1149.05 Q38.0002 1151.97 43.0292 1152.42 L42.9973 1131.54 Z" fill="#000000" fill-rule="nonzero" fill-opacity="1"></path><path clip-path="url(#clip900)" d="M33.8307 1095.41 Q33.2578 1096.4 33.0032 1097.58 Q32.7167 1098.72 32.7167 1100.13 Q32.7167 1105.09 35.9632 1107.76 Q39.1779 1110.41 45.2253 1110.41 L64.0042 1110.41 L64.0042 1116.29 L28.3562 1116.29 L28.3562 1110.41 L33.8944 1110.41 Q30.6479 1108.56 29.0883 1105.6 Q27.4968 1102.64 27.4968 1098.41 Q27.4968 1097.8 27.5923 1097.07 Q27.656 1096.34 27.8151 1095.45 L33.8307 1095.41 Z" fill="#000000" fill-rule="nonzero" fill-opacity="1"></path><path clip-path="url(#clip900)" d="M29.7248 1065.05 L35.1993 1065.05 Q33.8307 1067.53 33.1623 1070.05 Q32.4621 1072.53 32.4621 1075.08 Q32.4621 1080.77 36.0905 1083.92 Q39.6872 1087.08 46.212 1087.08 Q52.7369 1087.08 56.3653 1083.92 Q59.9619 1080.77 59.9619 1075.08 Q59.9619 1072.53 59.2935 1070.05 Q58.5933 1067.53 57.2247 1065.05 L62.6355 1065.05 Q63.7814 1067.5 64.3543 1070.14 Q64.9272 1072.75 64.9272 1075.71 Q64.9272 1083.77 59.8664 1088.51 Q54.8057 1093.25 46.212 1093.25 Q37.491 1093.25 32.4939 1088.48 Q27.4968 1083.67 27.4968 1075.33 Q27.4968 1072.63 28.0697 1070.05 Q28.6108 1067.47 29.7248 1065.05 Z" fill="#000000" fill-rule="nonzero" fill-opacity="1"></path><path clip-path="url(#clip900)" d="M44.7161 1024.37 L47.5806 1024.37 L47.5806 1051.3 Q53.6281 1050.92 56.8109 1047.67 Q59.9619 1044.39 59.9619 1038.57 Q59.9619 1035.2 59.1344 1032.04 Q58.3069 1028.86 56.6518 1025.74 L62.1899 1025.74 Q63.5267 1028.89 64.227 1032.2 Q64.9272 1035.51 64.9272 1038.92 Q64.9272 1047.45 59.9619 1052.45 Q54.9967 1057.41 46.5303 1057.41 Q37.7774 1057.41 32.6531 1052.7 Q27.4968 1047.96 27.4968 1039.94 Q27.4968 1032.74 32.1438 1028.57 Q36.7589 1024.37 44.7161 1024.37 M42.9973 1030.23 Q38.1912 1030.29 35.3266 1032.94 Q32.4621 1035.55 32.4621 1039.87 Q32.4621 1044.78 35.2312 1047.74 Q38.0002 1050.66 43.0292 1051.11 L42.9973 1030.23 Z" fill="#000000" fill-rule="nonzero" fill-opacity="1"></path><path clip-path="url(#clip900)" d="M42.4881 985.129 L64.0042 985.129 L64.0042 990.985 L42.679 990.985 Q37.6183 990.985 35.1038 992.959 Q32.5894 994.932 32.5894 998.879 Q32.5894 1003.62 35.6131 1006.36 Q38.6368 1009.1 43.8567 1009.1 L64.0042 1009.1 L64.0042 1014.98 L28.3562 1014.98 L28.3562 1009.1 L33.8944 1009.1 Q30.6797 1007 29.0883 1004.16 Q27.4968 1001.3 27.4968 997.574 Q27.4968 991.431 31.3163 988.28 Q35.1038 985.129 42.4881 985.129 Z" fill="#000000" fill-rule="nonzero" fill-opacity="1"></path><path clip-path="url(#clip900)" d="M18.2347 967.655 L28.3562 967.655 L28.3562 955.592 L32.9077 955.592 L32.9077 967.655 L52.2594 967.655 Q56.6199 967.655 57.8613 966.477 Q59.1026 965.268 59.1026 961.608 L59.1026 955.592 L64.0042 955.592 L64.0042 961.608 Q64.0042 968.387 61.4897 970.965 Q58.9434 973.543 52.2594 973.543 L32.9077 973.543 L32.9077 977.84 L28.3562 977.84 L28.3562 973.543 L18.2347 973.543 L18.2347 967.655 Z" fill="#000000" fill-rule="nonzero" fill-opacity="1"></path><path clip-path="url(#clip900)" d="M46.0847 931.689 Q46.0847 938.787 47.7079 941.524 Q49.3312 944.261 53.2461 944.261 Q56.3653 944.261 58.2114 942.224 Q60.0256 940.155 60.0256 936.622 Q60.0256 931.753 56.5881 928.824 Q53.1188 925.864 47.3897 925.864 L46.0847 925.864 L46.0847 931.689 M43.6657 920.008 L64.0042 920.008 L64.0042 925.864 L58.5933 925.864 Q61.8398 927.869 63.3994 930.861 Q64.9272 933.853 64.9272 938.182 Q64.9272 943.656 61.8716 946.903 Q58.7843 950.118 53.6281 950.118 Q47.6125 950.118 44.5569 946.107 Q41.5014 942.065 41.5014 934.076 L41.5014 925.864 L40.9285 925.864 Q36.8862 925.864 34.6901 928.538 Q32.4621 931.18 32.4621 935.986 Q32.4621 939.041 33.1941 941.938 Q33.9262 944.834 35.3903 947.508 L29.9795 947.508 Q28.7381 944.293 28.1334 941.269 Q27.4968 938.246 27.4968 935.381 Q27.4968 927.647 31.5072 923.827 Q35.5176 920.008 43.6657 920.008 Z" fill="#000000" fill-rule="nonzero" fill-opacity="1"></path><path clip-path="url(#clip900)" d="M45.7664 884.487 Q39.4007 884.487 35.8996 887.129 Q32.3984 889.739 32.3984 894.481 Q32.3984 899.192 35.8996 901.834 Q39.4007 904.444 45.7664 904.444 Q52.1003 904.444 55.6014 901.834 Q59.1026 899.192 59.1026 894.481 Q59.1026 889.739 55.6014 887.129 Q52.1003 884.487 45.7664 884.487 M59.58 878.631 Q68.683 878.631 73.1071 882.673 Q77.5631 886.715 77.5631 895.054 Q77.5631 898.142 77.0857 900.879 Q76.6401 903.616 75.6852 906.194 L69.9879 906.194 Q71.3884 903.616 72.0568 901.102 Q72.7252 898.587 72.7252 895.977 Q72.7252 890.216 69.7015 887.352 Q66.7096 884.487 60.6303 884.487 L57.7339 884.487 Q60.885 886.301 62.4446 889.134 Q64.0042 891.967 64.0042 895.914 Q64.0042 902.47 59.0071 906.481 Q54.01 910.491 45.7664 910.491 Q37.491 910.491 32.4939 906.481 Q27.4968 902.47 27.4968 895.914 Q27.4968 891.967 29.0564 889.134 Q30.616 886.301 33.7671 884.487 L28.3562 884.487 L28.3562 878.631 L59.58 878.631 Z" fill="#000000" fill-rule="nonzero" fill-opacity="1"></path><path clip-path="url(#clip900)" d="M44.7161 836.076 L47.5806 836.076 L47.5806 863.003 Q53.6281 862.621 56.8109 859.374 Q59.9619 856.096 59.9619 850.271 Q59.9619 846.898 59.1344 843.747 Q58.3069 840.564 56.6518 837.445 L62.1899 837.445 Q63.5267 840.596 64.227 843.906 Q64.9272 847.216 64.9272 850.622 Q64.9272 859.152 59.9619 864.149 Q54.9967 869.114 46.5303 869.114 Q37.7774 869.114 32.6531 864.403 Q27.4968 859.661 27.4968 851.64 Q27.4968 844.447 32.1438 840.277 Q36.7589 836.076 44.7161 836.076 M42.9973 841.932 Q38.1912 841.996 35.3266 844.638 Q32.4621 847.248 32.4621 851.576 Q32.4621 856.478 35.2312 859.438 Q38.0002 862.366 43.0292 862.812 L42.9973 841.932 Z" fill="#000000" fill-rule="nonzero" fill-opacity="1"></path><path clip-path="url(#clip900)" d="M32.4621 791.93 Q32.4621 796.64 36.1542 799.378 Q39.8145 802.115 46.212 802.115 Q52.6095 802.115 56.3017 799.409 Q59.9619 796.672 59.9619 791.93 Q59.9619 787.251 56.2698 784.514 Q52.5777 781.776 46.212 781.776 Q39.8781 781.776 36.186 784.514 Q32.4621 787.251 32.4621 791.93 M27.4968 791.93 Q27.4968 784.291 32.4621 779.93 Q37.4273 775.57 46.212 775.57 Q54.9649 775.57 59.9619 779.93 Q64.9272 784.291 64.9272 791.93 Q64.9272 799.6 59.9619 803.961 Q54.9649 808.29 46.212 808.29 Q37.4273 808.29 32.4621 803.961 Q27.4968 799.6 27.4968 791.93 Z" fill="#000000" fill-rule="nonzero" fill-opacity="1"></path><path clip-path="url(#clip900)" d="M14.479 747.815 L19.3487 747.815 L19.3487 753.417 Q19.3487 756.568 20.6219 757.81 Q21.895 759.019 25.2052 759.019 L28.3562 759.019 L28.3562 749.375 L32.9077 749.375 L32.9077 759.019 L64.0042 759.019 L64.0042 764.907 L32.9077 764.907 L32.9077 770.509 L28.3562 770.509 L28.3562 764.907 L25.8736 764.907 Q19.9216 764.907 17.2162 762.138 Q14.479 759.369 14.479 753.354 L14.479 747.815 Z" fill="#000000" fill-rule="nonzero" fill-opacity="1"></path><path clip-path="url(#clip900)" d="M28.3562 725.599 L28.3562 719.743 L56.1743 712.422 L28.3562 705.133 L28.3562 698.227 L56.1743 690.906 L28.3562 683.617 L28.3562 677.761 L64.0042 687.087 L64.0042 693.993 L34.7856 701.664 L64.0042 709.367 L64.0042 716.273 L28.3562 725.599 Z" fill="#000000" fill-rule="nonzero" fill-opacity="1"></path><path clip-path="url(#clip900)" d="M28.3562 668.881 L28.3562 663.024 L64.0042 663.024 L64.0042 668.881 L28.3562 668.881 M14.479 668.881 L14.479 663.024 L21.895 663.024 L21.895 668.881 L14.479 668.881 Z" fill="#000000" fill-rule="nonzero" fill-opacity="1"></path><path clip-path="url(#clip900)" d="M14.479 650.77 L14.479 644.914 L64.0042 644.914 L64.0042 650.77 L14.479 650.77 Z" fill="#000000" fill-rule="nonzero" fill-opacity="1"></path><path clip-path="url(#clip900)" d="M33.7671 609.202 L14.479 609.202 L14.479 603.346 L64.0042 603.346 L64.0042 609.202 L58.657 609.202 Q61.8398 611.048 63.3994 613.881 Q64.9272 616.682 64.9272 620.629 Q64.9272 627.09 59.771 631.164 Q54.6147 635.206 46.212 635.206 Q37.8093 635.206 32.6531 631.164 Q27.4968 627.09 27.4968 620.629 Q27.4968 616.682 29.0564 613.881 Q30.5842 611.048 33.7671 609.202 M46.212 629.159 Q52.6732 629.159 56.3653 626.517 Q60.0256 623.843 60.0256 619.196 Q60.0256 614.549 56.3653 611.876 Q52.6732 609.202 46.212 609.202 Q39.7508 609.202 36.0905 611.876 Q32.3984 614.549 32.3984 619.196 Q32.3984 623.843 36.0905 626.517 Q39.7508 629.159 46.212 629.159 Z" fill="#000000" fill-rule="nonzero" fill-opacity="1"></path><path clip-path="url(#clip900)" d="M14.479 573.236 L19.3487 573.236 L19.3487 578.838 Q19.3487 581.989 20.6219 583.23 Q21.895 584.44 25.2052 584.44 L28.3562 584.44 L28.3562 574.796 L32.9077 574.796 L32.9077 584.44 L64.0042 584.44 L64.0042 590.328 L32.9077 590.328 L32.9077 595.93 L28.3562 595.93 L28.3562 590.328 L25.8736 590.328 Q19.9216 590.328 17.2162 587.559 Q14.479 584.79 14.479 578.774 L14.479 573.236 Z" fill="#000000" fill-rule="nonzero" fill-opacity="1"></path><path clip-path="url(#clip900)" d="M28.3562 568.334 L28.3562 562.478 L64.0042 562.478 L64.0042 568.334 L28.3562 568.334 M14.479 568.334 L14.479 562.478 L21.895 562.478 L21.895 568.334 L14.479 568.334 Z" fill="#000000" fill-rule="nonzero" fill-opacity="1"></path><path clip-path="url(#clip900)" d="M33.8307 529.567 Q33.2578 530.554 33.0032 531.732 Q32.7167 532.877 32.7167 534.278 Q32.7167 539.243 35.9632 541.917 Q39.1779 544.558 45.2253 544.558 L64.0042 544.558 L64.0042 550.447 L28.3562 550.447 L28.3562 544.558 L33.8944 544.558 Q30.6479 542.712 29.0883 539.752 Q27.4968 536.792 27.4968 532.559 Q27.4968 531.954 27.5923 531.222 Q27.656 530.49 27.8151 529.599 L33.8307 529.567 Z" fill="#000000" fill-rule="nonzero" fill-opacity="1"></path><path clip-path="url(#clip900)" d="M44.7161 494.365 L47.5806 494.365 L47.5806 521.292 Q53.6281 520.91 56.8109 517.663 Q59.9619 514.385 59.9619 508.56 Q59.9619 505.187 59.1344 502.035 Q58.3069 498.853 56.6518 495.733 L62.1899 495.733 Q63.5267 498.884 64.227 502.195 Q64.9272 505.505 64.9272 508.91 Q64.9272 517.44 59.9619 522.438 Q54.9967 527.403 46.5303 527.403 Q37.7774 527.403 32.6531 522.692 Q27.4968 517.95 27.4968 509.929 Q27.4968 502.736 32.1438 498.566 Q36.7589 494.365 44.7161 494.365 M42.9973 500.221 Q38.1912 500.285 35.3266 502.927 Q32.4621 505.537 32.4621 509.865 Q32.4621 514.767 35.2312 517.727 Q38.0002 520.655 43.0292 521.101 L42.9973 500.221 Z" fill="#000000" fill-rule="nonzero" fill-opacity="1"></path><path clip-path="url(#clip900)" d="M33.8307 443.375 Q33.2578 444.362 33.0032 445.54 Q32.7167 446.686 32.7167 448.086 Q32.7167 453.051 35.9632 455.725 Q39.1779 458.367 45.2253 458.367 L64.0042 458.367 L64.0042 464.255 L28.3562 464.255 L28.3562 458.367 L33.8944 458.367 Q30.6479 456.521 29.0883 453.561 Q27.4968 450.601 27.4968 446.367 Q27.4968 445.763 27.5923 445.031 Q27.656 444.299 27.8151 443.407 L33.8307 443.375 Z" fill="#000000" fill-rule="nonzero" fill-opacity="1"></path><path clip-path="url(#clip900)" d="M28.3562 437.233 L28.3562 431.376 L64.0042 431.376 L64.0042 437.233 L28.3562 437.233 M14.479 437.233 L14.479 431.376 L21.895 431.376 L21.895 437.233 L14.479 437.233 Z" fill="#000000" fill-rule="nonzero" fill-opacity="1"></path><path clip-path="url(#clip900)" d="M29.4065 396.397 L34.9447 396.397 Q33.6716 398.879 33.035 401.553 Q32.3984 404.226 32.3984 407.091 Q32.3984 411.451 33.7352 413.648 Q35.072 415.812 37.7456 415.812 Q39.7826 415.812 40.9603 414.252 Q42.1061 412.693 43.1565 407.982 L43.6021 405.977 Q44.9389 399.739 47.3897 397.129 Q49.8086 394.487 54.1691 394.487 Q59.1344 394.487 62.0308 398.434 Q64.9272 402.349 64.9272 409.223 Q64.9272 412.088 64.3543 415.207 Q63.8132 418.295 62.6992 421.732 L56.6518 421.732 Q58.3387 418.486 59.198 415.335 Q60.0256 412.184 60.0256 409.096 Q60.0256 404.958 58.6251 402.73 Q57.1929 400.502 54.6147 400.502 Q52.2276 400.502 50.9545 402.126 Q49.6813 403.717 48.5037 409.16 L48.0262 411.197 Q46.8804 416.64 44.5251 419.058 Q42.138 421.477 38.0002 421.477 Q32.9713 421.477 30.2341 417.913 Q27.4968 414.348 27.4968 407.791 Q27.4968 404.545 27.9743 401.68 Q28.4517 398.816 29.4065 396.397 Z" fill="#000000" fill-rule="nonzero" fill-opacity="1"></path><path clip-path="url(#clip900)" d="M14.479 385.384 L14.479 379.496 L43.7294 379.496 L28.3562 362.022 L28.3562 354.542 L45.0344 373.448 L64.0042 353.746 L64.0042 361.385 L46.5939 379.496 L64.0042 379.496 L64.0042 385.384 L14.479 385.384 Z" fill="#000000" fill-rule="nonzero" fill-opacity="1"></path><path clip-path="url(#clip900)" d="M464.918 12.096 L473.182 12.096 L485.902 63.2184 L498.581 12.096 L507.776 12.096 L520.496 63.2184 L533.176 12.096 L541.48 12.096 L526.289 72.576 L516 72.576 L503.239 20.0763 L490.358 72.576 L480.068 72.576 L464.918 12.096 Z" fill="#000000" fill-rule="nonzero" fill-opacity="1"></path><path clip-path="url(#clip900)" d="M550.189 27.2059 L557.643 27.2059 L557.643 72.576 L550.189 72.576 L550.189 27.2059 M550.189 9.54393 L557.643 9.54393 L557.643 18.9825 L550.189 18.9825 L550.189 9.54393 Z" fill="#000000" fill-rule="nonzero" fill-opacity="1"></path><path clip-path="url(#clip900)" d="M573.239 9.54393 L580.693 9.54393 L580.693 72.576 L573.239 72.576 L573.239 9.54393 Z" fill="#000000" fill-rule="nonzero" fill-opacity="1"></path><path clip-path="url(#clip900)" d="M626.144 34.0924 L626.144 9.54393 L633.598 9.54393 L633.598 72.576 L626.144 72.576 L626.144 65.7705 Q623.794 69.8214 620.189 71.8063 Q616.624 73.7508 611.601 73.7508 Q603.378 73.7508 598.193 67.1883 Q593.048 60.6258 593.048 49.9314 Q593.048 39.2371 598.193 32.6746 Q603.378 26.1121 611.601 26.1121 Q616.624 26.1121 620.189 28.0971 Q623.794 30.0415 626.144 34.0924 M600.745 49.9314 Q600.745 58.1548 604.107 62.8538 Q607.51 67.5124 613.424 67.5124 Q619.338 67.5124 622.741 62.8538 Q626.144 58.1548 626.144 49.9314 Q626.144 41.7081 622.741 37.0496 Q619.338 32.3505 613.424 32.3505 Q607.51 32.3505 604.107 37.0496 Q600.745 41.7081 600.745 49.9314 Z" fill="#000000" fill-rule="nonzero" fill-opacity="1"></path><path clip-path="url(#clip900)" d="M671.919 9.54393 L671.919 15.7418 L664.79 15.7418 Q660.779 15.7418 659.199 17.3622 Q657.66 18.9825 657.66 23.1955 L657.66 27.2059 L669.934 27.2059 L669.934 32.9987 L657.66 32.9987 L657.66 72.576 L650.166 72.576 L650.166 32.9987 L643.036 32.9987 L643.036 27.2059 L650.166 27.2059 L650.166 24.0462 Q650.166 16.471 653.69 13.0277 Q657.214 9.54393 664.871 9.54393 L671.919 9.54393 Z" fill="#000000" fill-rule="nonzero" fill-opacity="1"></path><path clip-path="url(#clip900)" d="M678.158 27.2059 L685.611 27.2059 L685.611 72.576 L678.158 72.576 L678.158 27.2059 M678.158 9.54393 L685.611 9.54393 L685.611 18.9825 L678.158 18.9825 L678.158 9.54393 Z" fill="#000000" fill-rule="nonzero" fill-opacity="1"></path><path clip-path="url(#clip900)" d="M727.498 34.1734 Q726.242 33.4443 724.743 33.1202 Q723.285 32.7556 721.502 32.7556 Q715.183 32.7556 711.78 36.8875 Q708.418 40.9789 708.418 48.6757 L708.418 72.576 L700.924 72.576 L700.924 27.2059 L708.418 27.2059 L708.418 34.2544 Q710.767 30.1225 714.535 28.1376 Q718.302 26.1121 723.69 26.1121 Q724.459 26.1121 725.391 26.2337 Q726.323 26.3147 727.457 26.5172 L727.498 34.1734 Z" fill="#000000" fill-rule="nonzero" fill-opacity="1"></path><path clip-path="url(#clip900)" d="M772.301 48.0275 L772.301 51.6733 L738.03 51.6733 Q738.516 59.3701 742.648 63.421 Q746.82 67.4314 754.233 67.4314 Q758.527 67.4314 762.538 66.3781 Q766.589 65.3249 770.559 63.2184 L770.559 70.267 Q766.548 71.9684 762.335 72.8596 Q758.122 73.7508 753.788 73.7508 Q742.931 73.7508 736.572 67.4314 Q730.252 61.1119 730.252 50.3365 Q730.252 39.1965 736.247 32.6746 Q742.283 26.1121 752.492 26.1121 Q761.647 26.1121 766.953 32.0264 Q772.301 37.9003 772.301 48.0275 M764.847 45.84 Q764.766 39.7232 761.404 36.0774 Q758.082 32.4315 752.573 32.4315 Q746.334 32.4315 742.567 35.9558 Q738.84 39.4801 738.273 45.8805 L764.847 45.84 Z" fill="#000000" fill-rule="nonzero" fill-opacity="1"></path><path clip-path="url(#clip900)" d="M839.91 44.2197 Q842.543 45.1109 845.014 48.0275 Q847.526 50.9442 850.037 56.0483 L858.342 72.576 L849.551 72.576 L841.814 57.061 Q838.816 50.9847 835.981 48.9997 Q833.186 47.0148 828.325 47.0148 L819.413 47.0148 L819.413 72.576 L811.23 72.576 L811.23 12.096 L829.702 12.096 Q840.072 12.096 845.176 16.4305 Q850.28 20.7649 850.28 29.5149 Q850.28 35.2267 847.607 38.994 Q844.974 42.7613 839.91 44.2197 M819.413 18.8205 L819.413 40.2903 L829.702 40.2903 Q835.616 40.2903 838.614 37.5762 Q841.652 34.8216 841.652 29.5149 Q841.652 24.2082 838.614 21.5346 Q835.616 18.8205 829.702 18.8205 L819.413 18.8205 Z" fill="#000000" fill-rule="nonzero" fill-opacity="1"></path><path clip-path="url(#clip900)" d="M868.55 27.2059 L876.004 27.2059 L876.004 72.576 L868.55 72.576 L868.55 27.2059 M868.55 9.54393 L876.004 9.54393 L876.004 18.9825 L868.55 18.9825 L868.55 9.54393 Z" fill="#000000" fill-rule="nonzero" fill-opacity="1"></path><path clip-path="url(#clip900)" d="M920.523 28.5427 L920.523 35.5912 Q917.363 33.9709 913.961 33.1607 Q910.558 32.3505 906.912 32.3505 Q901.362 32.3505 898.567 34.0519 Q895.813 35.7533 895.813 39.156 Q895.813 41.7486 897.798 43.2475 Q899.782 44.7058 905.778 46.0426 L908.33 46.6097 Q916.27 48.3111 919.591 51.4303 Q922.954 54.509 922.954 60.0587 Q922.954 66.3781 917.931 70.0644 Q912.948 73.7508 904.198 73.7508 Q900.552 73.7508 896.582 73.0216 Q892.653 72.3329 888.278 70.9151 L888.278 63.2184 Q892.41 65.3654 896.42 66.4591 Q900.431 67.5124 904.36 67.5124 Q909.626 67.5124 912.462 65.73 Q915.297 63.9071 915.297 60.6258 Q915.297 57.5877 913.231 55.9673 Q911.206 54.3469 904.279 52.8481 L901.686 52.2405 Q894.759 50.7821 891.681 47.7845 Q888.602 44.7463 888.602 39.4801 Q888.602 33.0797 893.139 29.5959 Q897.676 26.1121 906.021 26.1121 Q910.153 26.1121 913.799 26.7198 Q917.444 27.3274 920.523 28.5427 Z" fill="#000000" fill-rule="nonzero" fill-opacity="1"></path><path clip-path="url(#clip900)" d="M934.539 9.54393 L942.033 9.54393 L942.033 46.7717 L964.273 27.2059 L973.793 27.2059 L949.73 48.4326 L974.805 72.576 L965.083 72.576 L942.033 50.4176 L942.033 72.576 L934.539 72.576 L934.539 9.54393 Z" fill="#000000" fill-rule="nonzero" fill-opacity="1"></path><path clip-path="url(#clip900)" d="M1003.89 27.2059 L1011.79 27.2059 L1025.97 65.2844 L1040.15 27.2059 L1048.05 27.2059 L1031.03 72.576 L1020.9 72.576 L1003.89 27.2059 Z" fill="#000000" fill-rule="nonzero" fill-opacity="1"></path><path clip-path="url(#clip900)" d="M1087.26 28.5427 L1087.26 35.5912 Q1084.1 33.9709 1080.7 33.1607 Q1077.29 32.3505 1073.65 32.3505 Q1068.1 32.3505 1065.3 34.0519 Q1062.55 35.7533 1062.55 39.156 Q1062.55 41.7486 1064.53 43.2475 Q1066.52 44.7058 1072.51 46.0426 L1075.07 46.6097 Q1083 48.3111 1086.33 51.4303 Q1089.69 54.509 1089.69 60.0587 Q1089.69 66.3781 1084.67 70.0644 Q1079.68 73.7508 1070.93 73.7508 Q1067.29 73.7508 1063.32 73.0216 Q1059.39 72.3329 1055.01 70.9151 L1055.01 63.2184 Q1059.15 65.3654 1063.16 66.4591 Q1067.17 67.5124 1071.1 67.5124 Q1076.36 67.5124 1079.2 65.73 Q1082.03 63.9071 1082.03 60.6258 Q1082.03 57.5877 1079.97 55.9673 Q1077.94 54.3469 1071.01 52.8481 L1068.42 52.2405 Q1061.49 50.7821 1058.42 47.7845 Q1055.34 44.7463 1055.34 39.4801 Q1055.34 33.0797 1059.87 29.5959 Q1064.41 26.1121 1072.76 26.1121 Q1076.89 26.1121 1080.53 26.7198 Q1084.18 27.3274 1087.26 28.5427 Z" fill="#000000" fill-rule="nonzero" fill-opacity="1"></path><path clip-path="url(#clip900)" d="M1128.25 12.096 L1136.44 12.096 L1136.44 65.6895 L1165.89 65.6895 L1165.89 72.576 L1128.25 72.576 L1128.25 12.096 Z" fill="#000000" fill-rule="nonzero" fill-opacity="1"></path><path clip-path="url(#clip900)" d="M1190.27 32.4315 Q1184.28 32.4315 1180.79 37.1306 Q1177.31 41.7891 1177.31 49.9314 Q1177.31 58.0738 1180.75 62.7728 Q1184.24 67.4314 1190.27 67.4314 Q1196.23 67.4314 1199.71 62.7323 Q1203.2 58.0333 1203.2 49.9314 Q1203.2 41.8701 1199.71 37.1711 Q1196.23 32.4315 1190.27 32.4315 M1190.27 26.1121 Q1199.99 26.1121 1205.54 32.4315 Q1211.09 38.7509 1211.09 49.9314 Q1211.09 61.0714 1205.54 67.4314 Q1199.99 73.7508 1190.27 73.7508 Q1180.51 73.7508 1174.96 67.4314 Q1169.45 61.0714 1169.45 49.9314 Q1169.45 38.7509 1174.96 32.4315 Q1180.51 26.1121 1190.27 26.1121 Z" fill="#000000" fill-rule="nonzero" fill-opacity="1"></path><path clip-path="url(#clip900)" d="M1244.07 49.7694 Q1235.04 49.7694 1231.55 51.8354 Q1228.07 53.9013 1228.07 58.8839 Q1228.07 62.8538 1230.66 65.2034 Q1233.29 67.5124 1237.79 67.5124 Q1243.99 67.5124 1247.71 63.1374 Q1251.48 58.7219 1251.48 51.4303 L1251.48 49.7694 L1244.07 49.7694 M1258.94 46.6907 L1258.94 72.576 L1251.48 72.576 L1251.48 65.6895 Q1248.93 69.8214 1245.12 71.8063 Q1241.31 73.7508 1235.8 73.7508 Q1228.84 73.7508 1224.71 69.8619 Q1220.61 65.9325 1220.61 59.3701 Q1220.61 51.7138 1225.72 47.825 Q1230.86 43.9361 1241.03 43.9361 L1251.48 43.9361 L1251.48 43.2069 Q1251.48 38.0623 1248.08 35.2672 Q1244.72 32.4315 1238.6 32.4315 Q1234.71 32.4315 1231.02 33.3632 Q1227.34 34.295 1223.94 36.1584 L1223.94 29.2718 Q1228.03 27.692 1231.88 26.9223 Q1235.72 26.1121 1239.37 26.1121 Q1249.21 26.1121 1254.07 31.2163 Q1258.94 36.3204 1258.94 46.6907 Z" fill="#000000" fill-rule="nonzero" fill-opacity="1"></path><path clip-path="url(#clip900)" d="M1304.14 34.0924 L1304.14 9.54393 L1311.6 9.54393 L1311.6 72.576 L1304.14 72.576 L1304.14 65.7705 Q1301.79 69.8214 1298.19 71.8063 Q1294.62 73.7508 1289.6 73.7508 Q1281.38 73.7508 1276.19 67.1883 Q1271.05 60.6258 1271.05 49.9314 Q1271.05 39.2371 1276.19 32.6746 Q1281.38 26.1121 1289.6 26.1121 Q1294.62 26.1121 1298.19 28.0971 Q1301.79 30.0415 1304.14 34.0924 M1278.74 49.9314 Q1278.74 58.1548 1282.11 62.8538 Q1285.51 67.5124 1291.42 67.5124 Q1297.34 67.5124 1300.74 62.8538 Q1304.14 58.1548 1304.14 49.9314 Q1304.14 41.7081 1300.74 37.0496 Q1297.34 32.3505 1291.42 32.3505 Q1285.51 32.3505 1282.11 37.0496 Q1278.74 41.7081 1278.74 49.9314 Z" fill="#000000" fill-rule="nonzero" fill-opacity="1"></path><path clip-path="url(#clip900)" d="M1389.9 14.0809 L1389.9 22.0612 Q1385.24 19.8332 1381.11 18.7395 Q1376.98 17.6457 1373.13 17.6457 Q1366.45 17.6457 1362.8 20.2383 Q1359.2 22.8309 1359.2 27.611 Q1359.2 31.6214 1361.59 33.6873 Q1364.02 35.7128 1370.74 36.9686 L1375.68 37.9813 Q1384.84 39.7232 1389.17 44.1387 Q1393.55 48.5136 1393.55 55.8863 Q1393.55 64.6767 1387.63 69.2137 Q1381.76 73.7508 1370.38 73.7508 Q1366.08 73.7508 1361.22 72.7785 Q1356.4 71.8063 1351.22 69.9024 L1351.22 61.4765 Q1356.2 64.2716 1360.98 65.6895 Q1365.76 67.1073 1370.38 67.1073 Q1377.38 67.1073 1381.19 64.3527 Q1385 61.598 1385 56.4939 Q1385 52.0379 1382.25 49.5264 Q1379.53 47.0148 1373.29 45.759 L1368.31 44.7868 Q1359.16 42.9639 1355.06 39.075 Q1350.97 35.1862 1350.97 28.2591 Q1350.97 20.2383 1356.6 15.6203 Q1362.27 11.0023 1372.2 11.0023 Q1376.45 11.0023 1380.87 11.7719 Q1385.28 12.5416 1389.9 14.0809 Z" fill="#000000" fill-rule="nonzero" fill-opacity="1"></path><path clip-path="url(#clip900)" d="M1443.7 45.1919 L1443.7 72.576 L1436.24 72.576 L1436.24 45.4349 Q1436.24 38.994 1433.73 35.7938 Q1431.22 32.5936 1426.2 32.5936 Q1420.16 32.5936 1416.68 36.4419 Q1413.19 40.2903 1413.19 46.9338 L1413.19 72.576 L1405.7 72.576 L1405.7 9.54393 L1413.19 9.54393 L1413.19 34.2544 Q1415.87 30.163 1419.47 28.1376 Q1423.12 26.1121 1427.86 26.1121 Q1435.68 26.1121 1439.69 30.9732 Q1443.7 35.7938 1443.7 45.1919 Z" fill="#000000" fill-rule="nonzero" fill-opacity="1"></path><path clip-path="url(#clip900)" d="M1497.37 48.0275 L1497.37 51.6733 L1463.1 51.6733 Q1463.59 59.3701 1467.72 63.421 Q1471.89 67.4314 1479.3 67.4314 Q1483.6 67.4314 1487.61 66.3781 Q1491.66 65.3249 1495.63 63.2184 L1495.63 70.267 Q1491.62 71.9684 1487.41 72.8596 Q1483.19 73.7508 1478.86 73.7508 Q1468 73.7508 1461.64 67.4314 Q1455.32 61.1119 1455.32 50.3365 Q1455.32 39.1965 1461.32 32.6746 Q1467.35 26.1121 1477.56 26.1121 Q1486.72 26.1121 1492.02 32.0264 Q1497.37 37.9003 1497.37 48.0275 M1489.92 45.84 Q1489.84 39.7232 1486.47 36.0774 Q1483.15 32.4315 1477.64 32.4315 Q1471.41 32.4315 1467.64 35.9558 Q1463.91 39.4801 1463.34 45.8805 L1489.92 45.84 Z" fill="#000000" fill-rule="nonzero" fill-opacity="1"></path><path clip-path="url(#clip900)" d="M1539.46 34.0924 L1539.46 9.54393 L1546.91 9.54393 L1546.91 72.576 L1539.46 72.576 L1539.46 65.7705 Q1537.11 69.8214 1533.51 71.8063 Q1529.94 73.7508 1524.92 73.7508 Q1516.69 73.7508 1511.51 67.1883 Q1506.36 60.6258 1506.36 49.9314 Q1506.36 39.2371 1511.51 32.6746 Q1516.69 26.1121 1524.92 26.1121 Q1529.94 26.1121 1533.51 28.0971 Q1537.11 30.0415 1539.46 34.0924 M1514.06 49.9314 Q1514.06 58.1548 1517.42 62.8538 Q1520.83 67.5124 1526.74 67.5124 Q1532.66 67.5124 1536.06 62.8538 Q1539.46 58.1548 1539.46 49.9314 Q1539.46 41.7081 1536.06 37.0496 Q1532.66 32.3505 1526.74 32.3505 Q1520.83 32.3505 1517.42 37.0496 Q1514.06 41.7081 1514.06 49.9314 Z" fill="#000000" fill-rule="nonzero" fill-opacity="1"></path><path clip-path="url(#clip900)" d="M1611.61 9.54393 L1611.61 15.7418 L1604.48 15.7418 Q1600.47 15.7418 1598.89 17.3622 Q1597.35 18.9825 1597.35 23.1955 L1597.35 27.2059 L1609.62 27.2059 L1609.62 32.9987 L1597.35 32.9987 L1597.35 72.576 L1589.85 72.576 L1589.85 32.9987 L1582.72 32.9987 L1582.72 27.2059 L1589.85 27.2059 L1589.85 24.0462 Q1589.85 16.471 1593.38 13.0277 Q1596.9 9.54393 1604.56 9.54393 L1611.61 9.54393 Z" fill="#000000" fill-rule="nonzero" fill-opacity="1"></path><path clip-path="url(#clip900)" d="M1635.43 32.4315 Q1629.43 32.4315 1625.95 37.1306 Q1622.46 41.7891 1622.46 49.9314 Q1622.46 58.0738 1625.91 62.7728 Q1629.39 67.4314 1635.43 67.4314 Q1641.38 67.4314 1644.87 62.7323 Q1648.35 58.0333 1648.35 49.9314 Q1648.35 41.8701 1644.87 37.1711 Q1641.38 32.4315 1635.43 32.4315 M1635.43 26.1121 Q1645.15 26.1121 1650.7 32.4315 Q1656.25 38.7509 1656.25 49.9314 Q1656.25 61.0714 1650.7 67.4314 Q1645.15 73.7508 1635.43 73.7508 Q1625.66 73.7508 1620.11 67.4314 Q1614.61 61.0714 1614.61 49.9314 Q1614.61 38.7509 1620.11 32.4315 Q1625.66 26.1121 1635.43 26.1121 Z" fill="#000000" fill-rule="nonzero" fill-opacity="1"></path><path clip-path="url(#clip900)" d="M1694.89 34.1734 Q1693.64 33.4443 1692.14 33.1202 Q1690.68 32.7556 1688.9 32.7556 Q1682.58 32.7556 1679.18 36.8875 Q1675.81 40.9789 1675.81 48.6757 L1675.81 72.576 L1668.32 72.576 L1668.32 27.2059 L1675.81 27.2059 L1675.81 34.2544 Q1678.16 30.1225 1681.93 28.1376 Q1685.7 26.1121 1691.09 26.1121 Q1691.86 26.1121 1692.79 26.2337 Q1693.72 26.3147 1694.85 26.5172 L1694.89 34.1734 Z" fill="#000000" fill-rule="nonzero" fill-opacity="1"></path><path clip-path="url(#clip900)" d="M1766.8 45.1919 L1766.8 72.576 L1759.34 72.576 L1759.34 45.4349 Q1759.34 38.994 1756.83 35.7938 Q1754.32 32.5936 1749.3 32.5936 Q1743.26 32.5936 1739.78 36.4419 Q1736.29 40.2903 1736.29 46.9338 L1736.29 72.576 L1728.8 72.576 L1728.8 9.54393 L1736.29 9.54393 L1736.29 34.2544 Q1738.97 30.163 1742.57 28.1376 Q1746.22 26.1121 1750.96 26.1121 Q1758.78 26.1121 1762.79 30.9732 Q1766.8 35.7938 1766.8 45.1919 Z" fill="#000000" fill-rule="nonzero" fill-opacity="1"></path><path clip-path="url(#clip900)" d="M1781.66 27.2059 L1789.12 27.2059 L1789.12 72.576 L1781.66 72.576 L1781.66 27.2059 M1781.66 9.54393 L1789.12 9.54393 L1789.12 18.9825 L1781.66 18.9825 L1781.66 9.54393 Z" fill="#000000" fill-rule="nonzero" fill-opacity="1"></path><path clip-path="url(#clip900)" d="M1834.57 49.3643 Q1834.57 41.2625 1831.21 36.8065 Q1827.89 32.3505 1821.85 32.3505 Q1815.85 32.3505 1812.49 36.8065 Q1809.17 41.2625 1809.17 49.3643 Q1809.17 57.4256 1812.49 61.8816 Q1815.85 66.3376 1821.85 66.3376 Q1827.89 66.3376 1831.21 61.8816 Q1834.57 57.4256 1834.57 49.3643 M1842.02 66.9452 Q1842.02 78.5308 1836.88 84.1616 Q1831.73 89.8329 1821.12 89.8329 Q1817.19 89.8329 1813.71 89.2252 Q1810.22 88.6581 1806.94 87.4428 L1806.94 80.1917 Q1810.22 81.9741 1813.42 82.8248 Q1816.62 83.6755 1819.95 83.6755 Q1827.28 83.6755 1830.92 79.8271 Q1834.57 76.0193 1834.57 68.282 L1834.57 64.5957 Q1832.26 68.6061 1828.65 70.5911 Q1825.05 72.576 1820.03 72.576 Q1811.68 72.576 1806.58 66.2161 Q1801.47 59.8562 1801.47 49.3643 Q1801.47 38.832 1806.58 32.472 Q1811.68 26.1121 1820.03 26.1121 Q1825.05 26.1121 1828.65 28.0971 Q1832.26 30.082 1834.57 34.0924 L1834.57 27.2059 L1842.02 27.2059 L1842.02 66.9452 Z" fill="#000000" fill-rule="nonzero" fill-opacity="1"></path><path clip-path="url(#clip900)" d="M1895.09 45.1919 L1895.09 72.576 L1887.64 72.576 L1887.64 45.4349 Q1887.64 38.994 1885.12 35.7938 Q1882.61 32.5936 1877.59 32.5936 Q1871.55 32.5936 1868.07 36.4419 Q1864.59 40.2903 1864.59 46.9338 L1864.59 72.576 L1857.09 72.576 L1857.09 9.54393 L1864.59 9.54393 L1864.59 34.2544 Q1867.26 30.163 1870.87 28.1376 Q1874.51 26.1121 1879.25 26.1121 Q1887.07 26.1121 1891.08 30.9732 Q1895.09 35.7938 1895.09 45.1919 Z" fill="#000000" fill-rule="nonzero" fill-opacity="1"></path><path clip-path="url(#clip900)" d="M1944.43 86.3491 L1944.43 92.1419 L1901.33 92.1419 L1901.33 86.3491 L1944.43 86.3491 Z" fill="#000000" fill-rule="nonzero" fill-opacity="1"></path><path clip-path="url(#clip900)" d="M1977.73 34.1734 Q1976.47 33.4443 1974.97 33.1202 Q1973.52 32.7556 1971.73 32.7556 Q1965.41 32.7556 1962.01 36.8875 Q1958.65 40.9789 1958.65 48.6757 L1958.65 72.576 L1951.15 72.576 L1951.15 27.2059 L1958.65 27.2059 L1958.65 34.2544 Q1961 30.1225 1964.77 28.1376 Q1968.53 26.1121 1973.92 26.1121 Q1974.69 26.1121 1975.62 26.2337 Q1976.55 26.3147 1977.69 26.5172 L1977.73 34.1734 Z" fill="#000000" fill-rule="nonzero" fill-opacity="1"></path><path clip-path="url(#clip900)" d="M1985.55 27.2059 L1993 27.2059 L1993 72.576 L1985.55 72.576 L1985.55 27.2059 M1985.55 9.54393 L1993 9.54393 L1993 18.9825 L1985.55 18.9825 L1985.55 9.54393 Z" fill="#000000" fill-rule="nonzero" fill-opacity="1"></path><path clip-path="url(#clip900)" d="M2037.52 28.5427 L2037.52 35.5912 Q2034.36 33.9709 2030.96 33.1607 Q2027.55 32.3505 2023.91 32.3505 Q2018.36 32.3505 2015.56 34.0519 Q2012.81 35.7533 2012.81 39.156 Q2012.81 41.7486 2014.79 43.2475 Q2016.78 44.7058 2022.77 46.0426 L2025.33 46.6097 Q2033.27 48.3111 2036.59 51.4303 Q2039.95 54.509 2039.95 60.0587 Q2039.95 66.3781 2034.93 70.0644 Q2029.94 73.7508 2021.19 73.7508 Q2017.55 73.7508 2013.58 73.0216 Q2009.65 72.3329 2005.27 70.9151 L2005.27 63.2184 Q2009.41 65.3654 2013.42 66.4591 Q2017.43 67.5124 2021.36 67.5124 Q2026.62 67.5124 2029.46 65.73 Q2032.29 63.9071 2032.29 60.6258 Q2032.29 57.5877 2030.23 55.9673 Q2028.2 54.3469 2021.28 52.8481 L2018.68 52.2405 Q2011.76 50.7821 2008.68 47.7845 Q2005.6 44.7463 2005.6 39.4801 Q2005.6 33.0797 2010.14 29.5959 Q2014.67 26.1121 2023.02 26.1121 Q2027.15 26.1121 2030.79 26.7198 Q2034.44 27.3274 2037.52 28.5427 Z" fill="#000000" fill-rule="nonzero" fill-opacity="1"></path><path clip-path="url(#clip900)" d="M2051.54 9.54393 L2059.03 9.54393 L2059.03 46.7717 L2081.27 27.2059 L2090.79 27.2059 L2066.73 48.4326 L2091.8 72.576 L2082.08 72.576 L2059.03 50.4176 L2059.03 72.576 L2051.54 72.576 L2051.54 9.54393 Z" fill="#000000" fill-rule="nonzero" fill-opacity="1"></path><polyline clip-path="url(#clip902)" style="stroke:#009af9; stroke-linecap:round; stroke-linejoin:round; stroke-width:4; stroke-opacity:1; fill:none" points="264.778,977.683 264.778,977.683 843.968,1386.4 1712.75,1386.4 2291.94,1386.4 "></polyline>
<polyline clip-path="url(#clip902)" style="stroke:#e26f46; stroke-linecap:round; stroke-linejoin:round; stroke-width:4; stroke-opacity:1; fill:none" points="265.172,160.256 265.172,160.256 512.619,977.683 566.023,1386.4 566.023,1386.4 566.023,1386.4 566.023,1386.4 566.023,1386.4 566.023,1386.4 566.023,1386.4 "></polyline>
<path clip-path="url(#clip900)" d="M1818.22 322.316 L2281.13 322.316 L2281.13 166.796 L1818.22 166.796  Z" fill="#ffffff" fill-rule="evenodd" fill-opacity="1"></path>
<polyline clip-path="url(#clip900)" style="stroke:#000000; stroke-linecap:round; stroke-linejoin:round; stroke-width:4; stroke-opacity:1; fill:none" points="1818.22,322.316 2281.13,322.316 2281.13,166.796 1818.22,166.796 1818.22,322.316 "></polyline>
<polyline clip-path="url(#clip900)" style="stroke:#009af9; stroke-linecap:round; stroke-linejoin:round; stroke-width:4; stroke-opacity:1; fill:none" points="1842.09,218.636 1985.35,218.636 "></polyline>
<path clip-path="url(#clip900)" d="M2033.62 205.198 L2033.62 232.073 L2039.27 232.073 Q2046.42 232.073 2049.73 228.832 Q2053.07 225.592 2053.07 218.601 Q2053.07 211.657 2049.73 208.439 Q2046.42 205.198 2039.27 205.198 L2033.62 205.198 M2028.95 201.356 L2038.55 201.356 Q2048.6 201.356 2053.3 205.546 Q2058 209.712 2058 218.601 Q2058 227.536 2053.27 231.726 Q2048.55 235.916 2038.55 235.916 L2028.95 235.916 L2028.95 201.356 Z" fill="#000000" fill-rule="nonzero" fill-opacity="1"></path><path clip-path="url(#clip900)" d="M2091.33 204.018 L2091.33 208.948 Q2088.97 206.749 2086.28 205.661 Q2083.62 204.573 2080.61 204.573 Q2074.69 204.573 2071.54 208.208 Q2068.39 211.819 2068.39 218.67 Q2068.39 225.499 2071.54 229.133 Q2074.69 232.744 2080.61 232.744 Q2083.62 232.744 2086.28 231.656 Q2088.97 230.569 2091.33 228.369 L2091.33 233.254 Q2088.88 234.92 2086.12 235.754 Q2083.39 236.587 2080.33 236.587 Q2072.49 236.587 2067.97 231.795 Q2063.46 226.981 2063.46 218.67 Q2063.46 210.337 2067.97 205.546 Q2072.49 200.731 2080.33 200.731 Q2083.44 200.731 2086.17 201.564 Q2088.92 202.374 2091.33 204.018 Z" fill="#000000" fill-rule="nonzero" fill-opacity="1"></path><path clip-path="url(#clip900)" d="M2112.58 204.527 Q2107.49 204.527 2104.48 208.323 Q2101.49 212.12 2101.49 218.67 Q2101.49 225.198 2104.48 228.994 Q2107.49 232.791 2112.58 232.791 Q2117.67 232.791 2120.63 228.994 Q2123.62 225.198 2123.62 218.67 Q2123.62 212.12 2120.63 208.323 Q2117.67 204.527 2112.58 204.527 M2112.58 200.731 Q2119.85 200.731 2124.2 205.615 Q2128.55 210.476 2128.55 218.67 Q2128.55 226.842 2124.2 231.726 Q2119.85 236.587 2112.58 236.587 Q2105.29 236.587 2100.91 231.726 Q2096.56 226.865 2096.56 218.67 Q2096.56 210.476 2100.91 205.615 Q2105.29 200.731 2112.58 200.731 Z" fill="#000000" fill-rule="nonzero" fill-opacity="1"></path><path clip-path="url(#clip900)" d="M2140.54 205.198 L2140.54 218.184 L2146.42 218.184 Q2149.69 218.184 2151.47 216.495 Q2153.25 214.805 2153.25 211.68 Q2153.25 208.578 2151.47 206.888 Q2149.69 205.198 2146.42 205.198 L2140.54 205.198 M2135.87 201.356 L2146.42 201.356 Q2152.23 201.356 2155.19 203.995 Q2158.18 206.61 2158.18 211.68 Q2158.18 216.795 2155.19 219.411 Q2152.23 222.027 2146.42 222.027 L2140.54 222.027 L2140.54 235.916 L2135.87 235.916 L2135.87 201.356 Z" fill="#000000" fill-rule="nonzero" fill-opacity="1"></path><path clip-path="url(#clip900)" d="M2185.17 202.49 L2185.17 207.05 Q2182.51 205.777 2180.15 205.152 Q2177.79 204.527 2175.59 204.527 Q2171.77 204.527 2169.69 206.008 Q2167.62 207.49 2167.62 210.221 Q2167.62 212.513 2168.99 213.694 Q2170.38 214.851 2174.22 215.569 L2177.05 216.147 Q2182.28 217.143 2184.75 219.666 Q2187.25 222.166 2187.25 226.379 Q2187.25 231.402 2183.87 233.994 Q2180.52 236.587 2174.01 236.587 Q2171.56 236.587 2168.78 236.031 Q2166.03 235.476 2163.06 234.388 L2163.06 229.573 Q2165.91 231.17 2168.64 231.981 Q2171.37 232.791 2174.01 232.791 Q2178.02 232.791 2180.19 231.217 Q2182.37 229.643 2182.37 226.726 Q2182.37 224.18 2180.8 222.744 Q2179.25 221.309 2175.68 220.592 L2172.83 220.036 Q2167.6 218.995 2165.26 216.772 Q2162.93 214.55 2162.93 210.592 Q2162.93 206.008 2166.14 203.37 Q2169.38 200.731 2175.06 200.731 Q2177.49 200.731 2180.01 201.171 Q2182.53 201.61 2185.17 202.49 Z" fill="#000000" fill-rule="nonzero" fill-opacity="1"></path><polyline clip-path="url(#clip900)" style="stroke:#e26f46; stroke-linecap:round; stroke-linejoin:round; stroke-width:4; stroke-opacity:1; fill:none" points="1842.09,270.476 1985.35,270.476 "></polyline>
<path clip-path="url(#clip900)" d="M2009.22 253.196 L2015.52 253.196 L2030.84 282.108 L2030.84 253.196 L2035.38 253.196 L2035.38 287.756 L2029.08 287.756 L2013.76 258.844 L2013.76 287.756 L2009.22 287.756 L2009.22 253.196 Z" fill="#000000" fill-rule="nonzero" fill-opacity="1"></path><path clip-path="url(#clip900)" d="M2044.69 253.196 L2050.98 253.196 L2066.31 282.108 L2066.31 253.196 L2070.84 253.196 L2070.84 287.756 L2064.55 287.756 L2049.22 258.844 L2049.22 287.756 L2044.69 287.756 L2044.69 253.196 Z" fill="#000000" fill-rule="nonzero" fill-opacity="1"></path><path clip-path="url(#clip900)" d="M2099.66 295.626 L2099.66 298.936 L2075.03 298.936 L2075.03 295.626 L2099.66 295.626 Z" fill="#000000" fill-rule="nonzero" fill-opacity="1"></path><path clip-path="url(#clip900)" d="M2115.4 257.802 L2109.06 275.001 L2121.77 275.001 L2115.4 257.802 M2112.76 253.196 L2118.06 253.196 L2131.24 287.756 L2126.38 287.756 L2123.23 278.89 L2107.65 278.89 L2104.5 287.756 L2099.57 287.756 L2112.76 253.196 Z" fill="#000000" fill-rule="nonzero" fill-opacity="1"></path><path clip-path="url(#clip900)" d="M2161.33 255.858 L2161.33 260.788 Q2158.97 258.589 2156.28 257.501 Q2153.62 256.413 2150.61 256.413 Q2144.69 256.413 2141.54 260.048 Q2138.39 263.659 2138.39 270.51 Q2138.39 277.339 2141.54 280.973 Q2144.69 284.584 2150.61 284.584 Q2153.62 284.584 2156.28 283.496 Q2158.97 282.409 2161.33 280.209 L2161.33 285.094 Q2158.87 286.76 2156.12 287.594 Q2153.39 288.427 2150.33 288.427 Q2142.49 288.427 2137.97 283.635 Q2133.46 278.821 2133.46 270.51 Q2133.46 262.177 2137.97 257.386 Q2142.49 252.571 2150.33 252.571 Q2153.44 252.571 2156.17 253.404 Q2158.92 254.214 2161.33 255.858 Z" fill="#000000" fill-rule="nonzero" fill-opacity="1"></path><path clip-path="url(#clip900)" d="M2182.58 256.367 Q2177.49 256.367 2174.48 260.163 Q2171.49 263.96 2171.49 270.51 Q2171.49 277.038 2174.48 280.834 Q2177.49 284.631 2182.58 284.631 Q2187.67 284.631 2190.63 280.834 Q2193.62 277.038 2193.62 270.51 Q2193.62 263.96 2190.63 260.163 Q2187.67 256.367 2182.58 256.367 M2182.58 252.571 Q2189.85 252.571 2194.2 257.455 Q2198.55 262.316 2198.55 270.51 Q2198.55 278.682 2194.2 283.566 Q2189.85 288.427 2182.58 288.427 Q2175.29 288.427 2170.91 283.566 Q2166.56 278.705 2166.56 270.51 Q2166.56 262.316 2170.91 257.455 Q2175.29 252.571 2182.58 252.571 Z" fill="#000000" fill-rule="nonzero" fill-opacity="1"></path><path clip-path="url(#clip900)" d="M2210.54 257.038 L2210.54 270.024 L2216.42 270.024 Q2219.68 270.024 2221.47 268.335 Q2223.25 266.645 2223.25 263.52 Q2223.25 260.418 2221.47 258.728 Q2219.68 257.038 2216.42 257.038 L2210.54 257.038 M2205.87 253.196 L2216.42 253.196 Q2222.23 253.196 2225.19 255.835 Q2228.18 258.45 2228.18 263.52 Q2228.18 268.635 2225.19 271.251 Q2222.23 273.867 2216.42 273.867 L2210.54 273.867 L2210.54 287.756 L2205.87 287.756 L2205.87 253.196 Z" fill="#000000" fill-rule="nonzero" fill-opacity="1"></path><path clip-path="url(#clip900)" d="M2255.17 254.33 L2255.17 258.89 Q2252.51 257.617 2250.15 256.992 Q2247.79 256.367 2245.59 256.367 Q2241.77 256.367 2239.68 257.848 Q2237.62 259.33 2237.62 262.061 Q2237.62 264.353 2238.99 265.534 Q2240.38 266.691 2244.22 267.409 L2247.05 267.987 Q2252.28 268.983 2254.75 271.506 Q2257.25 274.006 2257.25 278.219 Q2257.25 283.242 2253.87 285.834 Q2250.52 288.427 2244.01 288.427 Q2241.56 288.427 2238.78 287.871 Q2236.03 287.316 2233.06 286.228 L2233.06 281.413 Q2235.91 283.01 2238.64 283.821 Q2241.37 284.631 2244.01 284.631 Q2248.02 284.631 2250.19 283.057 Q2252.37 281.483 2252.37 278.566 Q2252.37 276.02 2250.8 274.584 Q2249.24 273.149 2245.68 272.432 L2242.83 271.876 Q2237.6 270.835 2235.26 268.612 Q2232.93 266.39 2232.93 262.432 Q2232.93 257.848 2236.14 255.21 Q2239.38 252.571 2245.06 252.571 Q2247.49 252.571 2250.01 253.011 Q2252.53 253.45 2255.17 254.33 Z" fill="#000000" fill-rule="nonzero" fill-opacity="1"></path></svg>