<svg xmlns="http://www.w3.org/2000/svg" xmlns:xlink="http://www.w3.org/1999/xlink" width="600" height="400" viewBox="0 0 2400 1600">
<defs>
  <clipPath id="clip830">
    <rect x="0" y="0" width="2400" height="1600"></rect>
  </clipPath>
</defs>
<path clip-path="url(#clip830)" d="M0 1600 L2400 1600 L2400 0 L0 0  Z" fill="#ffffff" fill-rule="evenodd" fill-opacity="1"></path>
<defs>
  <clipPath id="clip831">
    <rect x="480" y="0" width="1681" height="1600"></rect>
  </clipPath>
</defs>
<path clip-path="url(#clip830)" d="M203.964 1423.18 L2352.76 1423.18 L2352.76 123.472 L203.964 123.472  Z" fill="#ffffff" fill-rule="evenodd" fill-opacity="1"></path>
<defs>
  <clipPath id="clip832">
    <rect x="203" y="123" width="2150" height="1301"></rect>
  </clipPath>
</defs>
<polyline clip-path="url(#clip832)" style="stroke:#000000; stroke-linecap:round; stroke-linejoin:round; stroke-width:2; stroke-opacity:0.1; fill:none" points="264.778,1423.18 264.778,123.472 "></polyline>
<polyline clip-path="url(#clip832)" style="stroke:#000000; stroke-linecap:round; stroke-linejoin:round; stroke-width:2; stroke-opacity:0.1; fill:none" points="771.569,1423.18 771.569,123.472 "></polyline>
<polyline clip-path="url(#clip832)" style="stroke:#000000; stroke-linecap:round; stroke-linejoin:round; stroke-width:2; stroke-opacity:0.1; fill:none" points="1278.36,1423.18 1278.36,123.472 "></polyline>
<polyline clip-path="url(#clip832)" style="stroke:#000000; stroke-linecap:round; stroke-linejoin:round; stroke-width:2; stroke-opacity:0.1; fill:none" points="1785.15,1423.18 1785.15,123.472 "></polyline>
<polyline clip-path="url(#clip832)" style="stroke:#000000; stroke-linecap:round; stroke-linejoin:round; stroke-width:2; stroke-opacity:0.1; fill:none" points="2291.94,1423.18 2291.94,123.472 "></polyline>
<polyline clip-path="url(#clip830)" style="stroke:#000000; stroke-linecap:round; stroke-linejoin:round; stroke-width:4; stroke-opacity:1; fill:none" points="203.964,1423.18 2352.76,1423.18 "></polyline>
<polyline clip-path="url(#clip830)" style="stroke:#000000; stroke-linecap:round; stroke-linejoin:round; stroke-width:4; stroke-opacity:1; fill:none" points="264.778,1423.18 264.778,1404.28 "></polyline>
<polyline clip-path="url(#clip830)" style="stroke:#000000; stroke-linecap:round; stroke-linejoin:round; stroke-width:4; stroke-opacity:1; fill:none" points="771.569,1423.18 771.569,1404.28 "></polyline>
<polyline clip-path="url(#clip830)" style="stroke:#000000; stroke-linecap:round; stroke-linejoin:round; stroke-width:4; stroke-opacity:1; fill:none" points="1278.36,1423.18 1278.36,1404.28 "></polyline>
<polyline clip-path="url(#clip830)" style="stroke:#000000; stroke-linecap:round; stroke-linejoin:round; stroke-width:4; stroke-opacity:1; fill:none" points="1785.15,1423.18 1785.15,1404.28 "></polyline>
<polyline clip-path="url(#clip830)" style="stroke:#000000; stroke-linecap:round; stroke-linejoin:round; stroke-width:4; stroke-opacity:1; fill:none" points="2291.94,1423.18 2291.94,1404.28 "></polyline>
<path clip-path="url(#clip830)" d="M264.778 1454.1 Q261.167 1454.1 259.339 1457.66 Q257.533 1461.2 257.533 1468.33 Q257.533 1475.44 259.339 1479.01 Q261.167 1482.55 264.778 1482.55 Q268.413 1482.55 270.218 1479.01 Q272.047 1475.44 272.047 1468.33 Q272.047 1461.2 270.218 1457.66 Q268.413 1454.1 264.778 1454.1 M264.778 1450.39 Q270.589 1450.39 273.644 1455 Q276.723 1459.58 276.723 1468.33 Q276.723 1477.06 273.644 1481.67 Q270.589 1486.25 264.778 1486.25 Q258.968 1486.25 255.89 1481.67 Q252.834 1477.06 252.834 1468.33 Q252.834 1459.58 255.89 1455 Q258.968 1450.39 264.778 1450.39 Z" fill="#000000" fill-rule="nonzero" fill-opacity="1"></path><path clip-path="url(#clip830)" d="M750.84 1481.64 L767.159 1481.64 L767.159 1485.58 L745.215 1485.58 L745.215 1481.64 Q747.877 1478.89 752.46 1474.26 Q757.067 1469.61 758.247 1468.27 Q760.493 1465.74 761.372 1464.01 Q762.275 1462.25 762.275 1460.56 Q762.275 1457.8 760.331 1456.07 Q758.409 1454.33 755.308 1454.33 Q753.109 1454.33 750.655 1455.09 Q748.224 1455.86 745.447 1457.41 L745.447 1452.69 Q748.271 1451.55 750.724 1450.97 Q753.178 1450.39 755.215 1450.39 Q760.585 1450.39 763.78 1453.08 Q766.974 1455.77 766.974 1460.26 Q766.974 1462.39 766.164 1464.31 Q765.377 1466.2 763.271 1468.8 Q762.692 1469.47 759.59 1472.69 Q756.488 1475.88 750.84 1481.64 Z" fill="#000000" fill-rule="nonzero" fill-opacity="1"></path><path clip-path="url(#clip830)" d="M777.02 1451.02 L795.377 1451.02 L795.377 1454.96 L781.303 1454.96 L781.303 1463.43 Q782.321 1463.08 783.34 1462.92 Q784.358 1462.73 785.377 1462.73 Q791.164 1462.73 794.544 1465.9 Q797.923 1469.08 797.923 1474.49 Q797.923 1480.07 794.451 1483.17 Q790.979 1486.25 784.659 1486.25 Q782.483 1486.25 780.215 1485.88 Q777.97 1485.51 775.562 1484.77 L775.562 1480.07 Q777.645 1481.2 779.868 1481.76 Q782.09 1482.32 784.567 1482.32 Q788.571 1482.32 790.909 1480.21 Q793.247 1478.1 793.247 1474.49 Q793.247 1470.88 790.909 1468.77 Q788.571 1466.67 784.567 1466.67 Q782.692 1466.67 780.817 1467.08 Q778.965 1467.5 777.02 1468.38 L777.02 1451.02 Z" fill="#000000" fill-rule="nonzero" fill-opacity="1"></path><path clip-path="url(#clip830)" d="M1253.06 1451.02 L1271.42 1451.02 L1271.42 1454.96 L1257.34 1454.96 L1257.34 1463.43 Q1258.36 1463.08 1259.38 1462.92 Q1260.4 1462.73 1261.42 1462.73 Q1267.2 1462.73 1270.58 1465.9 Q1273.96 1469.08 1273.96 1474.49 Q1273.96 1480.07 1270.49 1483.17 Q1267.02 1486.25 1260.7 1486.25 Q1258.52 1486.25 1256.25 1485.88 Q1254.01 1485.51 1251.6 1484.77 L1251.6 1480.07 Q1253.68 1481.2 1255.91 1481.76 Q1258.13 1482.32 1260.61 1482.32 Q1264.61 1482.32 1266.95 1480.21 Q1269.29 1478.1 1269.29 1474.49 Q1269.29 1470.88 1266.95 1468.77 Q1264.61 1466.67 1260.61 1466.67 Q1258.73 1466.67 1256.86 1467.08 Q1255 1467.5 1253.06 1468.38 L1253.06 1451.02 Z" fill="#000000" fill-rule="nonzero" fill-opacity="1"></path><path clip-path="url(#clip830)" d="M1293.17 1454.1 Q1289.56 1454.1 1287.73 1457.66 Q1285.93 1461.2 1285.93 1468.33 Q1285.93 1475.44 1287.73 1479.01 Q1289.56 1482.55 1293.17 1482.55 Q1296.81 1482.55 1298.61 1479.01 Q1300.44 1475.44 1300.44 1468.33 Q1300.44 1461.2 1298.61 1457.66 Q1296.81 1454.1 1293.17 1454.1 M1293.17 1450.39 Q1298.98 1450.39 1302.04 1455 Q1305.12 1459.58 1305.12 1468.33 Q1305.12 1477.06 1302.04 1481.67 Q1298.98 1486.25 1293.17 1486.25 Q1287.36 1486.25 1284.29 1481.67 Q1281.23 1477.06 1281.23 1468.33 Q1281.23 1459.58 1284.29 1455 Q1287.36 1450.39 1293.17 1450.39 Z" fill="#000000" fill-rule="nonzero" fill-opacity="1"></path><path clip-path="url(#clip830)" d="M1759 1451.02 L1781.23 1451.02 L1781.23 1453.01 L1768.68 1485.58 L1763.8 1485.58 L1775.6 1454.96 L1759 1454.96 L1759 1451.02 Z" fill="#000000" fill-rule="nonzero" fill-opacity="1"></path><path clip-path="url(#clip830)" d="M1790.39 1451.02 L1808.75 1451.02 L1808.75 1454.96 L1794.68 1454.96 L1794.68 1463.43 Q1795.69 1463.08 1796.71 1462.92 Q1797.73 1462.73 1798.75 1462.73 Q1804.54 1462.73 1807.92 1465.9 Q1811.3 1469.08 1811.3 1474.49 Q1811.3 1480.07 1807.82 1483.17 Q1804.35 1486.25 1798.03 1486.25 Q1795.86 1486.25 1793.59 1485.88 Q1791.34 1485.51 1788.94 1484.77 L1788.94 1480.07 Q1791.02 1481.2 1793.24 1481.76 Q1795.46 1482.32 1797.94 1482.32 Q1801.94 1482.32 1804.28 1480.21 Q1806.62 1478.1 1806.62 1474.49 Q1806.62 1470.88 1804.28 1468.77 Q1801.94 1466.67 1797.94 1466.67 Q1796.06 1466.67 1794.19 1467.08 Q1792.34 1467.5 1790.39 1468.38 L1790.39 1451.02 Z" fill="#000000" fill-rule="nonzero" fill-opacity="1"></path><path clip-path="url(#clip830)" d="M2251.55 1481.64 L2259.19 1481.64 L2259.19 1455.28 L2250.88 1456.95 L2250.88 1452.69 L2259.14 1451.02 L2263.82 1451.02 L2263.82 1481.64 L2271.46 1481.64 L2271.46 1485.58 L2251.55 1485.58 L2251.55 1481.64 Z" fill="#000000" fill-rule="nonzero" fill-opacity="1"></path><path clip-path="url(#clip830)" d="M2290.9 1454.1 Q2287.29 1454.1 2285.46 1457.66 Q2283.65 1461.2 2283.65 1468.33 Q2283.65 1475.44 2285.46 1479.01 Q2287.29 1482.55 2290.9 1482.55 Q2294.53 1482.55 2296.34 1479.01 Q2298.17 1475.44 2298.17 1468.33 Q2298.17 1461.2 2296.34 1457.66 Q2294.53 1454.1 2290.9 1454.1 M2290.9 1450.39 Q2296.71 1450.39 2299.77 1455 Q2302.84 1459.58 2302.84 1468.33 Q2302.84 1477.06 2299.77 1481.67 Q2296.71 1486.25 2290.9 1486.25 Q2285.09 1486.25 2282.01 1481.67 Q2278.95 1477.06 2278.95 1468.33 Q2278.95 1459.58 2282.01 1455 Q2285.09 1450.39 2290.9 1450.39 Z" fill="#000000" fill-rule="nonzero" fill-opacity="1"></path><path clip-path="url(#clip830)" d="M2321.06 1454.1 Q2317.45 1454.1 2315.62 1457.66 Q2313.82 1461.2 2313.82 1468.33 Q2313.82 1475.44 2315.62 1479.01 Q2317.45 1482.55 2321.06 1482.55 Q2324.7 1482.55 2326.5 1479.01 Q2328.33 1475.44 2328.33 1468.33 Q2328.33 1461.2 2326.5 1457.66 Q2324.7 1454.1 2321.06 1454.1 M2321.06 1450.39 Q2326.87 1450.39 2329.93 1455 Q2333.01 1459.58 2333.01 1468.33 Q2333.01 1477.06 2329.93 1481.67 Q2326.87 1486.25 2321.06 1486.25 Q2315.25 1486.25 2312.17 1481.67 Q2309.12 1477.06 2309.12 1468.33 Q2309.12 1459.58 2312.17 1455 Q2315.25 1450.39 2321.06 1450.39 Z" fill="#000000" fill-rule="nonzero" fill-opacity="1"></path><path clip-path="url(#clip830)" d="M884.832 1525.81 L884.832 1543.66 L892.916 1543.66 Q897.404 1543.66 899.855 1541.34 Q902.306 1539.02 902.306 1534.72 Q902.306 1530.45 899.855 1528.13 Q897.404 1525.81 892.916 1525.81 L884.832 1525.81 M878.402 1520.52 L892.916 1520.52 Q900.905 1520.52 904.979 1524.15 Q909.085 1527.75 909.085 1534.72 Q909.085 1541.75 904.979 1545.35 Q900.905 1548.95 892.916 1548.95 L884.832 1548.95 L884.832 1568.04 L878.402 1568.04 L878.402 1520.52 Z" fill="#000000" fill-rule="nonzero" fill-opacity="1"></path><path clip-path="url(#clip830)" d="M945.624 1548.76 L945.624 1551.62 L918.697 1551.62 Q919.079 1557.67 922.326 1560.85 Q925.604 1564 931.429 1564 Q934.803 1564 937.954 1563.17 Q941.136 1562.35 944.256 1560.69 L944.256 1566.23 Q941.105 1567.57 937.794 1568.27 Q934.484 1568.97 931.079 1568.97 Q922.549 1568.97 917.551 1564 Q912.586 1559.04 912.586 1550.57 Q912.586 1541.82 917.297 1536.69 Q922.039 1531.54 930.06 1531.54 Q937.253 1531.54 941.423 1536.18 Q945.624 1540.8 945.624 1548.76 M939.768 1547.04 Q939.704 1542.23 937.062 1539.37 Q934.452 1536.5 930.124 1536.5 Q925.222 1536.5 922.262 1539.27 Q919.334 1542.04 918.888 1547.07 L939.768 1547.04 Z" fill="#000000" fill-rule="nonzero" fill-opacity="1"></path><path clip-path="url(#clip830)" d="M975.893 1537.87 Q974.907 1537.3 973.729 1537.04 Q972.583 1536.76 971.183 1536.76 Q966.217 1536.76 963.544 1540 Q960.902 1543.22 960.902 1549.27 L960.902 1568.04 L955.014 1568.04 L955.014 1532.4 L960.902 1532.4 L960.902 1537.93 Q962.748 1534.69 965.708 1533.13 Q968.668 1531.54 972.901 1531.54 Q973.506 1531.54 974.238 1531.63 Q974.97 1531.7 975.861 1531.85 L975.893 1537.87 Z" fill="#000000" fill-rule="nonzero" fill-opacity="1"></path><path clip-path="url(#clip830)" d="M1006.26 1533.76 L1006.26 1539.24 Q1003.77 1537.87 1001.26 1537.2 Q998.778 1536.5 996.232 1536.5 Q990.534 1536.5 987.383 1540.13 Q984.232 1543.73 984.232 1550.25 Q984.232 1556.78 987.383 1560.4 Q990.534 1564 996.232 1564 Q998.778 1564 1001.26 1563.33 Q1003.77 1562.63 1006.26 1561.26 L1006.26 1566.68 Q1003.81 1567.82 1001.17 1568.39 Q998.555 1568.97 995.595 1568.97 Q987.542 1568.97 982.8 1563.91 Q978.058 1558.85 978.058 1550.25 Q978.058 1541.53 982.832 1536.53 Q987.638 1531.54 995.977 1531.54 Q998.682 1531.54 1001.26 1532.11 Q1003.84 1532.65 1006.26 1533.76 Z" fill="#000000" fill-rule="nonzero" fill-opacity="1"></path><path clip-path="url(#clip830)" d="M1046.93 1548.76 L1046.93 1551.62 L1020.01 1551.62 Q1020.39 1557.67 1023.64 1560.85 Q1026.91 1564 1032.74 1564 Q1036.11 1564 1039.26 1563.17 Q1042.45 1562.35 1045.57 1560.69 L1045.57 1566.23 Q1042.41 1567.57 1039.1 1568.27 Q1035.79 1568.97 1032.39 1568.97 Q1023.86 1568.97 1018.86 1564 Q1013.9 1559.04 1013.9 1550.57 Q1013.9 1541.82 1018.61 1536.69 Q1023.35 1531.54 1031.37 1531.54 Q1038.56 1531.54 1042.73 1536.18 Q1046.93 1540.8 1046.93 1548.76 M1041.08 1547.04 Q1041.01 1542.23 1038.37 1539.37 Q1035.76 1536.5 1031.43 1536.5 Q1026.53 1536.5 1023.57 1539.27 Q1020.64 1542.04 1020.2 1547.07 L1041.08 1547.04 Z" fill="#000000" fill-rule="nonzero" fill-opacity="1"></path><path clip-path="url(#clip830)" d="M1086.18 1546.53 L1086.18 1568.04 L1080.32 1568.04 L1080.32 1546.72 Q1080.32 1541.66 1078.35 1539.14 Q1076.38 1536.63 1072.43 1536.63 Q1067.69 1536.63 1064.95 1539.65 Q1062.21 1542.68 1062.21 1547.9 L1062.21 1568.04 L1056.32 1568.04 L1056.32 1532.4 L1062.21 1532.4 L1062.21 1537.93 Q1064.31 1534.72 1067.15 1533.13 Q1070.01 1531.54 1073.73 1531.54 Q1079.88 1531.54 1083.03 1535.36 Q1086.18 1539.14 1086.18 1546.53 Z" fill="#000000" fill-rule="nonzero" fill-opacity="1"></path><path clip-path="url(#clip830)" d="M1103.65 1522.27 L1103.65 1532.4 L1115.72 1532.4 L1115.72 1536.95 L1103.65 1536.95 L1103.65 1556.3 Q1103.65 1560.66 1104.83 1561.9 Q1106.04 1563.14 1109.7 1563.14 L1115.72 1563.14 L1115.72 1568.04 L1109.7 1568.04 Q1102.92 1568.04 1100.34 1565.53 Q1097.76 1562.98 1097.76 1556.3 L1097.76 1536.95 L1093.47 1536.95 L1093.47 1532.4 L1097.76 1532.4 L1097.76 1522.27 L1103.65 1522.27 Z" fill="#000000" fill-rule="nonzero" fill-opacity="1"></path><path clip-path="url(#clip830)" d="M1139.62 1550.12 Q1132.52 1550.12 1129.78 1551.75 Q1127.05 1553.37 1127.05 1557.29 Q1127.05 1560.4 1129.08 1562.25 Q1131.15 1564.07 1134.69 1564.07 Q1139.56 1564.07 1142.48 1560.63 Q1145.44 1557.16 1145.44 1551.43 L1145.44 1550.12 L1139.62 1550.12 M1151.3 1547.71 L1151.3 1568.04 L1145.44 1568.04 L1145.44 1562.63 Q1143.44 1565.88 1140.45 1567.44 Q1137.45 1568.97 1133.13 1568.97 Q1127.65 1568.97 1124.41 1565.91 Q1121.19 1562.82 1121.19 1557.67 Q1121.19 1551.65 1125.2 1548.6 Q1129.24 1545.54 1137.23 1545.54 L1145.44 1545.54 L1145.44 1544.97 Q1145.44 1540.93 1142.77 1538.73 Q1140.13 1536.5 1135.32 1536.5 Q1132.27 1536.5 1129.37 1537.23 Q1126.47 1537.97 1123.8 1539.43 L1123.8 1534.02 Q1127.02 1532.78 1130.04 1532.17 Q1133.06 1531.54 1135.93 1531.54 Q1143.66 1531.54 1147.48 1535.55 Q1151.3 1539.56 1151.3 1547.71 Z" fill="#000000" fill-rule="nonzero" fill-opacity="1"></path><path clip-path="url(#clip830)" d="M1186.82 1549.81 Q1186.82 1543.44 1184.18 1539.94 Q1181.57 1536.44 1176.83 1536.44 Q1172.12 1536.44 1169.47 1539.94 Q1166.86 1543.44 1166.86 1549.81 Q1166.86 1556.14 1169.47 1559.64 Q1172.12 1563.14 1176.83 1563.14 Q1181.57 1563.14 1184.18 1559.64 Q1186.82 1556.14 1186.82 1549.81 M1192.68 1563.62 Q1192.68 1572.72 1188.64 1577.15 Q1184.59 1581.6 1176.25 1581.6 Q1173.17 1581.6 1170.43 1581.13 Q1167.69 1580.68 1165.11 1579.72 L1165.11 1574.03 Q1167.69 1575.43 1170.21 1576.1 Q1172.72 1576.76 1175.33 1576.76 Q1181.09 1576.76 1183.96 1573.74 Q1186.82 1570.75 1186.82 1564.67 L1186.82 1561.77 Q1185.01 1564.92 1182.17 1566.48 Q1179.34 1568.04 1175.39 1568.04 Q1168.84 1568.04 1164.83 1563.05 Q1160.82 1558.05 1160.82 1549.81 Q1160.82 1541.53 1164.83 1536.53 Q1168.84 1531.54 1175.39 1531.54 Q1179.34 1531.54 1182.17 1533.1 Q1185.01 1534.66 1186.82 1537.81 L1186.82 1532.4 L1192.68 1532.4 L1192.68 1563.62 Z" fill="#000000" fill-rule="nonzero" fill-opacity="1"></path><path clip-path="url(#clip830)" d="M1235.23 1548.76 L1235.23 1551.62 L1208.31 1551.62 Q1208.69 1557.67 1211.93 1560.85 Q1215.21 1564 1221.04 1564 Q1224.41 1564 1227.56 1563.17 Q1230.74 1562.35 1233.86 1560.69 L1233.86 1566.23 Q1230.71 1567.57 1227.4 1568.27 Q1224.09 1568.97 1220.69 1568.97 Q1212.16 1568.97 1207.16 1564 Q1202.19 1559.04 1202.19 1550.57 Q1202.19 1541.82 1206.9 1536.69 Q1211.65 1531.54 1219.67 1531.54 Q1226.86 1531.54 1231.03 1536.18 Q1235.23 1540.8 1235.23 1548.76 M1229.38 1547.04 Q1229.31 1542.23 1226.67 1539.37 Q1224.06 1536.5 1219.73 1536.5 Q1214.83 1536.5 1211.87 1539.27 Q1208.94 1542.04 1208.5 1547.07 L1229.38 1547.04 Z" fill="#000000" fill-rule="nonzero" fill-opacity="1"></path><path clip-path="url(#clip830)" d="M1279.38 1536.5 Q1274.67 1536.5 1271.93 1540.19 Q1269.19 1543.85 1269.19 1550.25 Q1269.19 1556.65 1271.9 1560.34 Q1274.64 1564 1279.38 1564 Q1284.06 1564 1286.79 1560.31 Q1289.53 1556.62 1289.53 1550.25 Q1289.53 1543.92 1286.79 1540.23 Q1284.06 1536.5 1279.38 1536.5 M1279.38 1531.54 Q1287.02 1531.54 1291.38 1536.5 Q1295.74 1541.47 1295.74 1550.25 Q1295.74 1559 1291.38 1564 Q1287.02 1568.97 1279.38 1568.97 Q1271.71 1568.97 1267.35 1564 Q1263.02 1559 1263.02 1550.25 Q1263.02 1541.47 1267.35 1536.5 Q1271.71 1531.54 1279.38 1531.54 Z" fill="#000000" fill-rule="nonzero" fill-opacity="1"></path><path clip-path="url(#clip830)" d="M1323.49 1518.52 L1323.49 1523.39 L1317.89 1523.39 Q1314.74 1523.39 1313.5 1524.66 Q1312.29 1525.93 1312.29 1529.24 L1312.29 1532.4 L1321.93 1532.4 L1321.93 1536.95 L1312.29 1536.95 L1312.29 1568.04 L1306.4 1568.04 L1306.4 1536.95 L1300.8 1536.95 L1300.8 1532.4 L1306.4 1532.4 L1306.4 1529.91 Q1306.4 1523.96 1309.17 1521.26 Q1311.94 1518.52 1317.95 1518.52 L1323.49 1518.52 Z" fill="#000000" fill-rule="nonzero" fill-opacity="1"></path><path clip-path="url(#clip830)" d="M1349.37 1520.52 L1355.8 1520.52 L1355.8 1562.63 L1378.94 1562.63 L1378.94 1568.04 L1349.37 1568.04 L1349.37 1520.52 Z" fill="#000000" fill-rule="nonzero" fill-opacity="1"></path><path clip-path="url(#clip830)" d="M1398.1 1536.5 Q1393.39 1536.5 1390.65 1540.19 Q1387.91 1543.85 1387.91 1550.25 Q1387.91 1556.65 1390.62 1560.34 Q1393.36 1564 1398.1 1564 Q1402.78 1564 1405.51 1560.31 Q1408.25 1556.62 1408.25 1550.25 Q1408.25 1543.92 1405.51 1540.23 Q1402.78 1536.5 1398.1 1536.5 M1398.1 1531.54 Q1405.74 1531.54 1410.1 1536.5 Q1414.46 1541.47 1414.46 1550.25 Q1414.46 1559 1410.1 1564 Q1405.74 1568.97 1398.1 1568.97 Q1390.43 1568.97 1386.07 1564 Q1381.74 1559 1381.74 1550.25 Q1381.74 1541.47 1386.07 1536.5 Q1390.43 1531.54 1398.1 1531.54 Z" fill="#000000" fill-rule="nonzero" fill-opacity="1"></path><path clip-path="url(#clip830)" d="M1440.37 1550.12 Q1433.27 1550.12 1430.53 1551.75 Q1427.79 1553.37 1427.79 1557.29 Q1427.79 1560.4 1429.83 1562.25 Q1431.9 1564.07 1435.43 1564.07 Q1440.3 1564.07 1443.23 1560.63 Q1446.19 1557.16 1446.19 1551.43 L1446.19 1550.12 L1440.37 1550.12 M1452.05 1547.71 L1452.05 1568.04 L1446.19 1568.04 L1446.19 1562.63 Q1444.19 1565.88 1441.19 1567.44 Q1438.2 1568.97 1433.87 1568.97 Q1428.4 1568.97 1425.15 1565.91 Q1421.94 1562.82 1421.94 1557.67 Q1421.94 1551.65 1425.95 1548.6 Q1429.99 1545.54 1437.98 1545.54 L1446.19 1545.54 L1446.19 1544.97 Q1446.19 1540.93 1443.52 1538.73 Q1440.88 1536.5 1436.07 1536.5 Q1433.01 1536.5 1430.12 1537.23 Q1427.22 1537.97 1424.55 1539.43 L1424.55 1534.02 Q1427.76 1532.78 1430.79 1532.17 Q1433.81 1531.54 1436.67 1531.54 Q1444.41 1531.54 1448.23 1535.55 Q1452.05 1539.56 1452.05 1547.71 Z" fill="#000000" fill-rule="nonzero" fill-opacity="1"></path><path clip-path="url(#clip830)" d="M1487.57 1537.81 L1487.57 1518.52 L1493.43 1518.52 L1493.43 1568.04 L1487.57 1568.04 L1487.57 1562.7 Q1485.72 1565.88 1482.89 1567.44 Q1480.09 1568.97 1476.14 1568.97 Q1469.68 1568.97 1465.61 1563.81 Q1461.56 1558.65 1461.56 1550.25 Q1461.56 1541.85 1465.61 1536.69 Q1469.68 1531.54 1476.14 1531.54 Q1480.09 1531.54 1482.89 1533.1 Q1485.72 1534.62 1487.57 1537.81 M1467.61 1550.25 Q1467.61 1556.71 1470.25 1560.4 Q1472.93 1564.07 1477.57 1564.07 Q1482.22 1564.07 1484.9 1560.4 Q1487.57 1556.71 1487.57 1550.25 Q1487.57 1543.79 1484.9 1540.13 Q1482.22 1536.44 1477.57 1536.44 Q1472.93 1536.44 1470.25 1540.13 Q1467.61 1543.79 1467.61 1550.25 Z" fill="#000000" fill-rule="nonzero" fill-opacity="1"></path><path clip-path="url(#clip830)" d="M1554.95 1522.08 L1554.95 1528.35 Q1551.29 1526.6 1548.04 1525.74 Q1544.8 1524.88 1541.77 1524.88 Q1536.52 1524.88 1533.66 1526.92 Q1530.82 1528.96 1530.82 1532.71 Q1530.82 1535.87 1532.7 1537.49 Q1534.61 1539.08 1539.89 1540.07 L1543.78 1540.86 Q1550.97 1542.23 1554.38 1545.7 Q1557.81 1549.14 1557.81 1554.93 Q1557.81 1561.84 1553.17 1565.4 Q1548.55 1568.97 1539.61 1568.97 Q1536.23 1568.97 1532.42 1568.2 Q1528.63 1567.44 1524.55 1565.94 L1524.55 1559.32 Q1528.47 1561.52 1532.22 1562.63 Q1535.98 1563.75 1539.61 1563.75 Q1545.11 1563.75 1548.11 1561.58 Q1551.1 1559.42 1551.1 1555.41 Q1551.1 1551.91 1548.93 1549.93 Q1546.8 1547.96 1541.9 1546.97 L1537.99 1546.21 Q1530.79 1544.78 1527.58 1541.72 Q1524.36 1538.67 1524.36 1533.22 Q1524.36 1526.92 1528.79 1523.29 Q1533.24 1519.66 1541.04 1519.66 Q1544.38 1519.66 1547.85 1520.27 Q1551.32 1520.87 1554.95 1522.08 Z" fill="#000000" fill-rule="nonzero" fill-opacity="1"></path><path clip-path="url(#clip830)" d="M1597.22 1546.53 L1597.22 1568.04 L1591.36 1568.04 L1591.36 1546.72 Q1591.36 1541.66 1589.39 1539.14 Q1587.41 1536.63 1583.47 1536.63 Q1578.73 1536.63 1575.99 1539.65 Q1573.25 1542.68 1573.25 1547.9 L1573.25 1568.04 L1567.36 1568.04 L1567.36 1518.52 L1573.25 1518.52 L1573.25 1537.93 Q1575.35 1534.72 1578.18 1533.13 Q1581.05 1531.54 1584.77 1531.54 Q1590.92 1531.54 1594.07 1535.36 Q1597.22 1539.14 1597.22 1546.53 Z" fill="#000000" fill-rule="nonzero" fill-opacity="1"></path><path clip-path="url(#clip830)" d="M1639.39 1548.76 L1639.39 1551.62 L1612.46 1551.62 Q1612.85 1557.67 1616.09 1560.85 Q1619.37 1564 1625.2 1564 Q1628.57 1564 1631.72 1563.17 Q1634.9 1562.35 1638.02 1560.69 L1638.02 1566.23 Q1634.87 1567.57 1631.56 1568.27 Q1628.25 1568.97 1624.85 1568.97 Q1616.32 1568.97 1611.32 1564 Q1606.35 1559.04 1606.35 1550.57 Q1606.35 1541.82 1611.06 1536.69 Q1615.81 1531.54 1623.83 1531.54 Q1631.02 1531.54 1635.19 1536.18 Q1639.39 1540.8 1639.39 1548.76 M1633.53 1547.04 Q1633.47 1542.23 1630.83 1539.37 Q1628.22 1536.5 1623.89 1536.5 Q1618.99 1536.5 1616.03 1539.27 Q1613.1 1542.04 1612.65 1547.07 L1633.53 1547.04 Z" fill="#000000" fill-rule="nonzero" fill-opacity="1"></path><path clip-path="url(#clip830)" d="M1672.46 1537.81 L1672.46 1518.52 L1678.32 1518.52 L1678.32 1568.04 L1672.46 1568.04 L1672.46 1562.7 Q1670.61 1565.88 1667.78 1567.44 Q1664.98 1568.97 1661.03 1568.97 Q1654.57 1568.97 1650.5 1563.81 Q1646.46 1558.65 1646.46 1550.25 Q1646.46 1541.85 1650.5 1536.69 Q1654.57 1531.54 1661.03 1531.54 Q1664.98 1531.54 1667.78 1533.1 Q1670.61 1534.62 1672.46 1537.81 M1652.5 1550.25 Q1652.5 1556.71 1655.15 1560.4 Q1657.82 1564.07 1662.47 1564.07 Q1667.11 1564.07 1669.79 1560.4 Q1672.46 1556.71 1672.46 1550.25 Q1672.46 1543.79 1669.79 1540.13 Q1667.11 1536.44 1662.47 1536.44 Q1657.82 1536.44 1655.15 1540.13 Q1652.5 1543.79 1652.5 1550.25 Z" fill="#000000" fill-rule="nonzero" fill-opacity="1"></path><polyline clip-path="url(#clip832)" style="stroke:#000000; stroke-linecap:round; stroke-linejoin:round; stroke-width:2; stroke-opacity:0.1; fill:none" points="203.964,1386.4 2352.76,1386.4 "></polyline>
<polyline clip-path="url(#clip832)" style="stroke:#000000; stroke-linecap:round; stroke-linejoin:round; stroke-width:2; stroke-opacity:0.1; fill:none" points="203.964,1018.55 2352.76,1018.55 "></polyline>
<polyline clip-path="url(#clip832)" style="stroke:#000000; stroke-linecap:round; stroke-linejoin:round; stroke-width:2; stroke-opacity:0.1; fill:none" points="203.964,650.712 2352.76,650.712 "></polyline>
<polyline clip-path="url(#clip832)" style="stroke:#000000; stroke-linecap:round; stroke-linejoin:round; stroke-width:2; stroke-opacity:0.1; fill:none" points="203.964,282.87 2352.76,282.87 "></polyline>
<polyline clip-path="url(#clip830)" style="stroke:#000000; stroke-linecap:round; stroke-linejoin:round; stroke-width:4; stroke-opacity:1; fill:none" points="203.964,1423.18 203.964,123.472 "></polyline>
<polyline clip-path="url(#clip830)" style="stroke:#000000; stroke-linecap:round; stroke-linejoin:round; stroke-width:4; stroke-opacity:1; fill:none" points="203.964,1386.4 222.861,1386.4 "></polyline>
<polyline clip-path="url(#clip830)" style="stroke:#000000; stroke-linecap:round; stroke-linejoin:round; stroke-width:4; stroke-opacity:1; fill:none" points="203.964,1018.55 222.861,1018.55 "></polyline>
<polyline clip-path="url(#clip830)" style="stroke:#000000; stroke-linecap:round; stroke-linejoin:round; stroke-width:4; stroke-opacity:1; fill:none" points="203.964,650.712 222.861,650.712 "></polyline>
<polyline clip-path="url(#clip830)" style="stroke:#000000; stroke-linecap:round; stroke-linejoin:round; stroke-width:4; stroke-opacity:1; fill:none" points="203.964,282.87 222.861,282.87 "></polyline>
<path clip-path="url(#clip830)" d="M156.019 1372.19 Q152.408 1372.19 150.579 1375.76 Q148.774 1379.3 148.774 1386.43 Q148.774 1393.54 150.579 1397.1 Q152.408 1400.64 156.019 1400.64 Q159.653 1400.64 161.459 1397.1 Q163.288 1393.54 163.288 1386.43 Q163.288 1379.3 161.459 1375.76 Q159.653 1372.19 156.019 1372.19 M156.019 1368.49 Q161.829 1368.49 164.885 1373.1 Q167.964 1377.68 167.964 1386.43 Q167.964 1395.16 164.885 1399.76 Q161.829 1404.35 156.019 1404.35 Q150.209 1404.35 147.13 1399.76 Q144.075 1395.16 144.075 1386.43 Q144.075 1377.68 147.13 1373.1 Q150.209 1368.49 156.019 1368.49 Z" fill="#000000" fill-rule="nonzero" fill-opacity="1"></path><path clip-path="url(#clip830)" d="M116.668 1031.9 L124.306 1031.9 L124.306 1005.53 L115.996 1007.2 L115.996 1002.94 L124.26 1001.27 L128.936 1001.27 L128.936 1031.9 L136.575 1031.9 L136.575 1035.83 L116.668 1035.83 L116.668 1031.9 Z" fill="#000000" fill-rule="nonzero" fill-opacity="1"></path><path clip-path="url(#clip830)" d="M156.019 1004.35 Q152.408 1004.35 150.579 1007.92 Q148.774 1011.46 148.774 1018.59 Q148.774 1025.7 150.579 1029.26 Q152.408 1032.8 156.019 1032.8 Q159.653 1032.8 161.459 1029.26 Q163.288 1025.7 163.288 1018.59 Q163.288 1011.46 161.459 1007.92 Q159.653 1004.35 156.019 1004.35 M156.019 1000.65 Q161.829 1000.65 164.885 1005.26 Q167.964 1009.84 167.964 1018.59 Q167.964 1027.32 164.885 1031.92 Q161.829 1036.51 156.019 1036.51 Q150.209 1036.51 147.13 1031.92 Q144.075 1027.32 144.075 1018.59 Q144.075 1009.84 147.13 1005.26 Q150.209 1000.65 156.019 1000.65 Z" fill="#000000" fill-rule="nonzero" fill-opacity="1"></path><path clip-path="url(#clip830)" d="M119.885 664.057 L136.204 664.057 L136.204 667.992 L114.26 667.992 L114.26 664.057 Q116.922 661.302 121.505 656.673 Q126.112 652.02 127.292 650.677 Q129.538 648.154 130.417 646.418 Q131.32 644.659 131.32 642.969 Q131.32 640.214 129.376 638.478 Q127.455 636.742 124.353 636.742 Q122.154 636.742 119.7 637.506 Q117.269 638.27 114.492 639.821 L114.492 635.099 Q117.316 633.964 119.769 633.386 Q122.223 632.807 124.26 632.807 Q129.63 632.807 132.825 635.492 Q136.019 638.177 136.019 642.668 Q136.019 644.798 135.209 646.719 Q134.422 648.617 132.316 651.21 Q131.737 651.881 128.635 655.099 Q125.533 658.293 119.885 664.057 Z" fill="#000000" fill-rule="nonzero" fill-opacity="1"></path><path clip-path="url(#clip830)" d="M156.019 636.511 Q152.408 636.511 150.579 640.076 Q148.774 643.617 148.774 650.747 Q148.774 657.853 150.579 661.418 Q152.408 664.96 156.019 664.96 Q159.653 664.96 161.459 661.418 Q163.288 657.853 163.288 650.747 Q163.288 643.617 161.459 640.076 Q159.653 636.511 156.019 636.511 M156.019 632.807 Q161.829 632.807 164.885 637.414 Q167.964 641.997 167.964 650.747 Q167.964 659.474 164.885 664.08 Q161.829 668.663 156.019 668.663 Q150.209 668.663 147.13 664.08 Q144.075 659.474 144.075 650.747 Q144.075 641.997 147.13 637.414 Q150.209 632.807 156.019 632.807 Z" fill="#000000" fill-rule="nonzero" fill-opacity="1"></path><path clip-path="url(#clip830)" d="M130.024 281.516 Q133.38 282.234 135.255 284.502 Q137.154 286.771 137.154 290.104 Q137.154 295.22 133.635 298.021 Q130.117 300.822 123.635 300.822 Q121.459 300.822 119.144 300.382 Q116.853 299.965 114.399 299.109 L114.399 294.595 Q116.343 295.729 118.658 296.308 Q120.973 296.886 123.496 296.886 Q127.894 296.886 130.186 295.15 Q132.501 293.414 132.501 290.104 Q132.501 287.048 130.348 285.336 Q128.218 283.599 124.399 283.599 L120.371 283.599 L120.371 279.757 L124.584 279.757 Q128.033 279.757 129.862 278.391 Q131.691 277.002 131.691 274.41 Q131.691 271.748 129.792 270.336 Q127.917 268.9 124.399 268.9 Q122.478 268.9 120.279 269.317 Q118.08 269.734 115.441 270.613 L115.441 266.447 Q118.103 265.706 120.418 265.336 Q122.755 264.965 124.816 264.965 Q130.14 264.965 133.242 267.396 Q136.343 269.803 136.343 273.924 Q136.343 276.794 134.7 278.785 Q133.056 280.752 130.024 281.516 Z" fill="#000000" fill-rule="nonzero" fill-opacity="1"></path><path clip-path="url(#clip830)" d="M156.019 268.669 Q152.408 268.669 150.579 272.234 Q148.774 275.775 148.774 282.905 Q148.774 290.011 150.579 293.576 Q152.408 297.118 156.019 297.118 Q159.653 297.118 161.459 293.576 Q163.288 290.011 163.288 282.905 Q163.288 275.775 161.459 272.234 Q159.653 268.669 156.019 268.669 M156.019 264.965 Q161.829 264.965 164.885 269.572 Q167.964 274.155 167.964 282.905 Q167.964 291.632 164.885 296.238 Q161.829 300.822 156.019 300.822 Q150.209 300.822 147.13 296.238 Q144.075 291.632 144.075 282.905 Q144.075 274.155 147.13 269.572 Q150.209 264.965 156.019 264.965 Z" fill="#000000" fill-rule="nonzero" fill-opacity="1"></path><path clip-path="url(#clip830)" d="M21.7677 1186.48 L39.6235 1186.48 L39.6235 1178.39 Q39.6235 1173.9 37.3 1171.45 Q34.9765 1169 30.6797 1169 Q26.4147 1169 24.0912 1171.45 Q21.7677 1173.9 21.7677 1178.39 L21.7677 1186.48 M16.4842 1192.91 L16.4842 1178.39 Q16.4842 1170.4 20.1126 1166.33 Q23.7092 1162.22 30.6797 1162.22 Q37.7138 1162.22 41.3104 1166.33 Q44.907 1170.4 44.907 1178.39 L44.907 1186.48 L64.0042 1186.48 L64.0042 1192.91 L16.4842 1192.91 Z" fill="#000000" fill-rule="nonzero" fill-opacity="1"></path><path clip-path="url(#clip830)" d="M44.7161 1125.68 L47.5806 1125.68 L47.5806 1152.61 Q53.6281 1152.23 56.8109 1148.98 Q59.9619 1145.7 59.9619 1139.88 Q59.9619 1136.51 59.1344 1133.35 Q58.3069 1130.17 56.6518 1127.05 L62.1899 1127.05 Q63.5267 1130.2 64.227 1133.51 Q64.9272 1136.82 64.9272 1140.23 Q64.9272 1148.76 59.9619 1153.76 Q54.9967 1158.72 46.5303 1158.72 Q37.7774 1158.72 32.6531 1154.01 Q27.4968 1149.27 27.4968 1141.25 Q27.4968 1134.05 32.1438 1129.89 Q36.7589 1125.68 44.7161 1125.68 M42.9973 1131.54 Q38.1912 1131.6 35.3266 1134.25 Q32.4621 1136.86 32.4621 1141.18 Q32.4621 1146.09 35.2312 1149.05 Q38.0002 1151.97 43.0292 1152.42 L42.9973 1131.54 Z" fill="#000000" fill-rule="nonzero" fill-opacity="1"></path><path clip-path="url(#clip830)" d="M33.8307 1095.41 Q33.2578 1096.4 33.0032 1097.58 Q32.7167 1098.72 32.7167 1100.13 Q32.7167 1105.09 35.9632 1107.76 Q39.1779 1110.41 45.2253 1110.41 L64.0042 1110.41 L64.0042 1116.29 L28.3562 1116.29 L28.3562 1110.41 L33.8944 1110.41 Q30.6479 1108.56 29.0883 1105.6 Q27.4968 1102.64 27.4968 1098.41 Q27.4968 1097.8 27.5923 1097.07 Q27.656 1096.34 27.8151 1095.45 L33.8307 1095.41 Z" fill="#000000" fill-rule="nonzero" fill-opacity="1"></path><path clip-path="url(#clip830)" d="M29.7248 1065.05 L35.1993 1065.05 Q33.8307 1067.53 33.1623 1070.05 Q32.4621 1072.53 32.4621 1075.08 Q32.4621 1080.77 36.0905 1083.92 Q39.6872 1087.08 46.212 1087.08 Q52.7369 1087.08 56.3653 1083.92 Q59.9619 1080.77 59.9619 1075.08 Q59.9619 1072.53 59.2935 1070.05 Q58.5933 1067.53 57.2247 1065.05 L62.6355 1065.05 Q63.7814 1067.5 64.3543 1070.14 Q64.9272 1072.75 64.9272 1075.71 Q64.9272 1083.77 59.8664 1088.51 Q54.8057 1093.25 46.212 1093.25 Q37.491 1093.25 32.4939 1088.48 Q27.4968 1083.67 27.4968 1075.33 Q27.4968 1072.63 28.0697 1070.05 Q28.6108 1067.47 29.7248 1065.05 Z" fill="#000000" fill-rule="nonzero" fill-opacity="1"></path><path clip-path="url(#clip830)" d="M44.7161 1024.37 L47.5806 1024.37 L47.5806 1051.3 Q53.6281 1050.92 56.8109 1047.67 Q59.9619 1044.39 59.9619 1038.57 Q59.9619 1035.2 59.1344 1032.04 Q58.3069 1028.86 56.6518 1025.74 L62.1899 1025.74 Q63.5267 1028.89 64.227 1032.2 Q64.9272 1035.51 64.9272 1038.92 Q64.9272 1047.45 59.9619 1052.45 Q54.9967 1057.41 46.5303 1057.41 Q37.7774 1057.41 32.6531 1052.7 Q27.4968 1047.96 27.4968 1039.94 Q27.4968 1032.74 32.1438 1028.57 Q36.7589 1024.37 44.7161 1024.37 M42.9973 1030.23 Q38.1912 1030.29 35.3266 1032.94 Q32.4621 1035.55 32.4621 1039.87 Q32.4621 1044.78 35.2312 1047.74 Q38.0002 1050.66 43.0292 1051.11 L42.9973 1030.23 Z" fill="#000000" fill-rule="nonzero" fill-opacity="1"></path><path clip-path="url(#clip830)" d="M42.4881 985.129 L64.0042 985.129 L64.0042 990.985 L42.679 990.985 Q37.6183 990.985 35.1038 992.959 Q32.5894 994.932 32.5894 998.879 Q32.5894 1003.62 35.6131 1006.36 Q38.6368 1009.1 43.8567 1009.1 L64.0042 1009.1 L64.0042 1014.98 L28.3562 1014.98 L28.3562 1009.1 L33.8944 1009.1 Q30.6797 1007 29.0883 1004.16 Q27.4968 1001.3 27.4968 997.574 Q27.4968 991.431 31.3163 988.28 Q35.1038 985.129 42.4881 985.129 Z" fill="#000000" fill-rule="nonzero" fill-opacity="1"></path><path clip-path="url(#clip830)" d="M18.2347 967.655 L28.3562 967.655 L28.3562 955.592 L32.9077 955.592 L32.9077 967.655 L52.2594 967.655 Q56.6199 967.655 57.8613 966.477 Q59.1026 965.268 59.1026 961.608 L59.1026 955.592 L64.0042 955.592 L64.0042 961.608 Q64.0042 968.387 61.4897 970.965 Q58.9434 973.543 52.2594 973.543 L32.9077 973.543 L32.9077 977.84 L28.3562 977.84 L28.3562 973.543 L18.2347 973.543 L18.2347 967.655 Z" fill="#000000" fill-rule="nonzero" fill-opacity="1"></path><path clip-path="url(#clip830)" d="M46.0847 931.689 Q46.0847 938.787 47.7079 941.524 Q49.3312 944.261 53.2461 944.261 Q56.3653 944.261 58.2114 942.224 Q60.0256 940.155 60.0256 936.622 Q60.0256 931.753 56.5881 928.824 Q53.1188 925.864 47.3897 925.864 L46.0847 925.864 L46.0847 931.689 M43.6657 920.008 L64.0042 920.008 L64.0042 925.864 L58.5933 925.864 Q61.8398 927.869 63.3994 930.861 Q64.9272 933.853 64.9272 938.182 Q64.9272 943.656 61.8716 946.903 Q58.7843 950.118 53.6281 950.118 Q47.6125 950.118 44.5569 946.107 Q41.5014 942.065 41.5014 934.076 L41.5014 925.864 L40.9285 925.864 Q36.8862 925.864 34.6901 928.538 Q32.4621 931.18 32.4621 935.986 Q32.4621 939.041 33.1941 941.938 Q33.9262 944.834 35.3903 947.508 L29.9795 947.508 Q28.7381 944.293 28.1334 941.269 Q27.4968 938.246 27.4968 935.381 Q27.4968 927.647 31.5072 923.827 Q35.5176 920.008 43.6657 920.008 Z" fill="#000000" fill-rule="nonzero" fill-opacity="1"></path><path clip-path="url(#clip830)" d="M45.7664 884.487 Q39.4007 884.487 35.8996 887.129 Q32.3984 889.739 32.3984 894.481 Q32.3984 899.192 35.8996 901.834 Q39.4007 904.444 45.7664 904.444 Q52.1003 904.444 55.6014 901.834 Q59.1026 899.192 59.1026 894.481 Q59.1026 889.739 55.6014 887.129 Q52.1003 884.487 45.7664 884.487 M59.58 878.631 Q68.683 878.631 73.1071 882.673 Q77.5631 886.715 77.5631 895.054 Q77.5631 898.142 77.0857 900.879 Q76.6401 903.616 75.6852 906.194 L69.9879 906.194 Q71.3884 903.616 72.0568 901.102 Q72.7252 898.587 72.7252 895.977 Q72.7252 890.216 69.7015 887.352 Q66.7096 884.487 60.6303 884.487 L57.7339 884.487 Q60.885 886.301 62.4446 889.134 Q64.0042 891.967 64.0042 895.914 Q64.0042 902.47 59.0071 906.481 Q54.01 910.491 45.7664 910.491 Q37.491 910.491 32.4939 906.481 Q27.4968 902.47 27.4968 895.914 Q27.4968 891.967 29.0564 889.134 Q30.616 886.301 33.7671 884.487 L28.3562 884.487 L28.3562 878.631 L59.58 878.631 Z" fill="#000000" fill-rule="nonzero" fill-opacity="1"></path><path clip-path="url(#clip830)" d="M44.7161 836.076 L47.5806 836.076 L47.5806 863.003 Q53.6281 862.621 56.8109 859.374 Q59.9619 856.096 59.9619 850.271 Q59.9619 846.898 59.1344 843.747 Q58.3069 840.564 56.6518 837.445 L62.1899 837.445 Q63.5267 840.596 64.227 843.906 Q64.9272 847.216 64.9272 850.622 Q64.9272 859.152 59.9619 864.149 Q54.9967 869.114 46.5303 869.114 Q37.7774 869.114 32.6531 864.403 Q27.4968 859.661 27.4968 851.64 Q27.4968 844.447 32.1438 840.277 Q36.7589 836.076 44.7161 836.076 M42.9973 841.932 Q38.1912 841.996 35.3266 844.638 Q32.4621 847.248 32.4621 851.576 Q32.4621 856.478 35.2312 859.438 Q38.0002 862.366 43.0292 862.812 L42.9973 841.932 Z" fill="#000000" fill-rule="nonzero" fill-opacity="1"></path><path clip-path="url(#clip830)" d="M32.4621 791.93 Q32.4621 796.64 36.1542 799.378 Q39.8145 802.115 46.212 802.115 Q52.6095 802.115 56.3017 799.409 Q59.9619 796.672 59.9619 791.93 Q59.9619 787.251 56.2698 784.514 Q52.5777 781.776 46.212 781.776 Q39.8781 781.776 36.186 784.514 Q32.4621 787.251 32.4621 791.93 M27.4968 791.93 Q27.4968 784.291 32.4621 779.93 Q37.4273 775.57 46.212 775.57 Q54.9649 775.57 59.9619 779.93 Q64.9272 784.291 64.9272 791.93 Q64.9272 799.6 59.9619 803.961 Q54.9649 808.29 46.212 808.29 Q37.4273 808.29 32.4621 803.961 Q27.4968 799.6 27.4968 791.93 Z" fill="#000000" fill-rule="nonzero" fill-opacity="1"></path><path clip-path="url(#clip830)" d="M14.479 747.815 L19.3487 747.815 L19.3487 753.417 Q19.3487 756.568 20.6219 757.81 Q21.895 759.019 25.2052 759.019 L28.3562 759.019 L28.3562 749.375 L32.9077 749.375 L32.9077 759.019 L64.0042 759.019 L64.0042 764.907 L32.9077 764.907 L32.9077 770.509 L28.3562 770.509 L28.3562 764.907 L25.8736 764.907 Q19.9216 764.907 17.2162 762.138 Q14.479 759.369 14.479 753.354 L14.479 747.815 Z" fill="#000000" fill-rule="nonzero" fill-opacity="1"></path><path clip-path="url(#clip830)" d="M28.3562 725.599 L28.3562 719.743 L56.1743 712.422 L28.3562 705.133 L28.3562 698.227 L56.1743 690.906 L28.3562 683.617 L28.3562 677.761 L64.0042 687.087 L64.0042 693.993 L34.7856 701.664 L64.0042 709.367 L64.0042 716.273 L28.3562 725.599 Z" fill="#000000" fill-rule="nonzero" fill-opacity="1"></path><path clip-path="url(#clip830)" d="M28.3562 668.881 L28.3562 663.024 L64.0042 663.024 L64.0042 668.881 L28.3562 668.881 M14.479 668.881 L14.479 663.024 L21.895 663.024 L21.895 668.881 L14.479 668.881 Z" fill="#000000" fill-rule="nonzero" fill-opacity="1"></path><path clip-path="url(#clip830)" d="M14.479 650.77 L14.479 644.914 L64.0042 644.914 L64.0042 650.77 L14.479 650.77 Z" fill="#000000" fill-rule="nonzero" fill-opacity="1"></path><path clip-path="url(#clip830)" d="M33.7671 609.202 L14.479 609.202 L14.479 603.346 L64.0042 603.346 L64.0042 609.202 L58.657 609.202 Q61.8398 611.048 63.3994 613.881 Q64.9272 616.682 64.9272 620.629 Q64.9272 627.09 59.771 631.164 Q54.6147 635.206 46.212 635.206 Q37.8093 635.206 32.6531 631.164 Q27.4968 627.09 27.4968 620.629 Q27.4968 616.682 29.0564 613.881 Q30.5842 611.048 33.7671 609.202 M46.212 629.159 Q52.6732 629.159 56.3653 626.517 Q60.0256 623.843 60.0256 619.196 Q60.0256 614.549 56.3653 611.876 Q52.6732 609.202 46.212 609.202 Q39.7508 609.202 36.0905 611.876 Q32.3984 614.549 32.3984 619.196 Q32.3984 623.843 36.0905 626.517 Q39.7508 629.159 46.212 629.159 Z" fill="#000000" fill-rule="nonzero" fill-opacity="1"></path><path clip-path="url(#clip830)" d="M14.479 573.236 L19.3487 573.236 L19.3487 578.838 Q19.3487 581.989 20.6219 583.23 Q21.895 584.44 25.2052 584.44 L28.3562 584.44 L28.3562 574.796 L32.9077 574.796 L32.9077 584.44 L64.0042 584.44 L64.0042 590.328 L32.9077 590.328 L32.9077 595.93 L28.3562 595.93 L28.3562 590.328 L25.8736 590.328 Q19.9216 590.328 17.2162 587.559 Q14.479 584.79 14.479 578.774 L14.479 573.236 Z" fill="#000000" fill-rule="nonzero" fill-opacity="1"></path><path clip-path="url(#clip830)" d="M28.3562 568.334 L28.3562 562.478 L64.0042 562.478 L64.0042 568.334 L28.3562 568.334 M14.479 568.334 L14.479 562.478 L21.895 562.478 L21.895 568.334 L14.479 568.334 Z" fill="#000000" fill-rule="nonzero" fill-opacity="1"></path><path clip-path="url(#clip830)" d="M33.8307 529.567 Q33.2578 530.554 33.0032 531.732 Q32.7167 532.877 32.7167 534.278 Q32.7167 539.243 35.9632 541.917 Q39.1779 544.558 45.2253 544.558 L64.0042 544.558 L64.0042 550.447 L28.3562 550.447 L28.3562 544.558 L33.8944 544.558 Q30.6479 542.712 29.0883 539.752 Q27.4968 536.792 27.4968 532.559 Q27.4968 531.954 27.5923 531.222 Q27.656 530.49 27.8151 529.599 L33.8307 529.567 Z" fill="#000000" fill-rule="nonzero" fill-opacity="1"></path><path clip-path="url(#clip830)" d="M44.7161 494.365 L47.5806 494.365 L47.5806 521.292 Q53.6281 520.91 56.8109 517.663 Q59.9619 514.385 59.9619 508.56 Q59.9619 505.187 59.1344 502.035 Q58.3069 498.853 56.6518 495.733 L62.1899 495.733 Q63.5267 498.884 64.227 502.195 Q64.9272 505.505 64.9272 508.91 Q64.9272 517.44 59.9619 522.438 Q54.9967 527.403 46.5303 527.403 Q37.7774 527.403 32.6531 522.692 Q27.4968 517.95 27.4968 509.929 Q27.4968 502.736 32.1438 498.566 Q36.7589 494.365 44.7161 494.365 M42.9973 500.221 Q38.1912 500.285 35.3266 502.927 Q32.4621 505.537 32.4621 509.865 Q32.4621 514.767 35.2312 517.727 Q38.0002 520.655 43.0292 521.101 L42.9973 500.221 Z" fill="#000000" fill-rule="nonzero" fill-opacity="1"></path><path clip-path="url(#clip830)" d="M33.8307 443.375 Q33.2578 444.362 33.0032 445.54 Q32.7167 446.686 32.7167 448.086 Q32.7167 453.051 35.9632 455.725 Q39.1779 458.367 45.2253 458.367 L64.0042 458.367 L64.0042 464.255 L28.3562 464.255 L28.3562 458.367 L33.8944 458.367 Q30.6479 456.521 29.0883 453.561 Q27.4968 450.601 27.4968 446.367 Q27.4968 445.763 27.5923 445.031 Q27.656 444.299 27.8151 443.407 L33.8307 443.375 Z" fill="#000000" fill-rule="nonzero" fill-opacity="1"></path><path clip-path="url(#clip830)" d="M28.3562 437.233 L28.3562 431.376 L64.0042 431.376 L64.0042 437.233 L28.3562 437.233 M14.479 437.233 L14.479 431.376 L21.895 431.376 L21.895 437.233 L14.479 437.233 Z" fill="#000000" fill-rule="nonzero" fill-opacity="1"></path><path clip-path="url(#clip830)" d="M29.4065 396.397 L34.9447 396.397 Q33.6716 398.879 33.035 401.553 Q32.3984 404.226 32.3984 407.091 Q32.3984 411.451 33.7352 413.648 Q35.072 415.812 37.7456 415.812 Q39.7826 415.812 40.9603 414.252 Q42.1061 412.693 43.1565 407.982 L43.6021 405.977 Q44.9389 399.739 47.3897 397.129 Q49.8086 394.487 54.1691 394.487 Q59.1344 394.487 62.0308 398.434 Q64.9272 402.349 64.9272 409.223 Q64.9272 412.088 64.3543 415.207 Q63.8132 418.295 62.6992 421.732 L56.6518 421.732 Q58.3387 418.486 59.198 415.335 Q60.0256 412.184 60.0256 409.096 Q60.0256 404.958 58.6251 402.73 Q57.1929 400.502 54.6147 400.502 Q52.2276 400.502 50.9545 402.126 Q49.6813 403.717 48.5037 409.16 L48.0262 411.197 Q46.8804 416.64 44.5251 419.058 Q42.138 421.477 38.0002 421.477 Q32.9713 421.477 30.2341 417.913 Q27.4968 414.348 27.4968 407.791 Q27.4968 404.545 27.9743 401.68 Q28.4517 398.816 29.4065 396.397 Z" fill="#000000" fill-rule="nonzero" fill-opacity="1"></path><path clip-path="url(#clip830)" d="M14.479 385.384 L14.479 379.496 L43.7294 379.496 L28.3562 362.022 L28.3562 354.542 L45.0344 373.448 L64.0042 353.746 L64.0042 361.385 L46.5939 379.496 L64.0042 379.496 L64.0042 385.384 L14.479 385.384 Z" fill="#000000" fill-rule="nonzero" fill-opacity="1"></path><path clip-path="url(#clip830)" d="M437.412 12.096 L445.676 12.096 L458.396 63.2184 L471.075 12.096 L480.271 12.096 L492.991 63.2184 L505.67 12.096 L513.974 12.096 L498.783 72.576 L488.494 72.576 L475.734 20.0763 L462.852 72.576 L452.563 72.576 L437.412 12.096 Z" fill="#000000" fill-rule="nonzero" fill-opacity="1"></path><path clip-path="url(#clip830)" d="M522.684 27.2059 L530.137 27.2059 L530.137 72.576 L522.684 72.576 L522.684 27.2059 M522.684 9.54393 L530.137 9.54393 L530.137 18.9825 L522.684 18.9825 L522.684 9.54393 Z" fill="#000000" fill-rule="nonzero" fill-opacity="1"></path><path clip-path="url(#clip830)" d="M545.733 9.54393 L553.187 9.54393 L553.187 72.576 L545.733 72.576 L545.733 9.54393 Z" fill="#000000" fill-rule="nonzero" fill-opacity="1"></path><path clip-path="url(#clip830)" d="M598.638 34.0924 L598.638 9.54393 L606.092 9.54393 L606.092 72.576 L598.638 72.576 L598.638 65.7705 Q596.289 69.8214 592.683 71.8063 Q589.119 73.7508 584.096 73.7508 Q575.872 73.7508 570.687 67.1883 Q565.542 60.6258 565.542 49.9314 Q565.542 39.2371 570.687 32.6746 Q575.872 26.1121 584.096 26.1121 Q589.119 26.1121 592.683 28.0971 Q596.289 30.0415 598.638 34.0924 M573.239 49.9314 Q573.239 58.1548 576.601 62.8538 Q580.004 67.5124 585.918 67.5124 Q591.833 67.5124 595.236 62.8538 Q598.638 58.1548 598.638 49.9314 Q598.638 41.7081 595.236 37.0496 Q591.833 32.3505 585.918 32.3505 Q580.004 32.3505 576.601 37.0496 Q573.239 41.7081 573.239 49.9314 Z" fill="#000000" fill-rule="nonzero" fill-opacity="1"></path><path clip-path="url(#clip830)" d="M644.413 9.54393 L644.413 15.7418 L637.284 15.7418 Q633.273 15.7418 631.694 17.3622 Q630.154 18.9825 630.154 23.1955 L630.154 27.2059 L642.429 27.2059 L642.429 32.9987 L630.154 32.9987 L630.154 72.576 L622.66 72.576 L622.66 32.9987 L615.531 32.9987 L615.531 27.2059 L622.66 27.2059 L622.66 24.0462 Q622.66 16.471 626.184 13.0277 Q629.709 9.54393 637.365 9.54393 L644.413 9.54393 Z" fill="#000000" fill-rule="nonzero" fill-opacity="1"></path><path clip-path="url(#clip830)" d="M650.652 27.2059 L658.106 27.2059 L658.106 72.576 L650.652 72.576 L650.652 27.2059 M650.652 9.54393 L658.106 9.54393 L658.106 18.9825 L650.652 18.9825 L650.652 9.54393 Z" fill="#000000" fill-rule="nonzero" fill-opacity="1"></path><path clip-path="url(#clip830)" d="M699.992 34.1734 Q698.736 33.4443 697.237 33.1202 Q695.779 32.7556 693.997 32.7556 Q687.677 32.7556 684.274 36.8875 Q680.912 40.9789 680.912 48.6757 L680.912 72.576 L673.418 72.576 L673.418 27.2059 L680.912 27.2059 L680.912 34.2544 Q683.262 30.1225 687.029 28.1376 Q690.796 26.1121 696.184 26.1121 Q696.954 26.1121 697.885 26.2337 Q698.817 26.3147 699.951 26.5172 L699.992 34.1734 Z" fill="#000000" fill-rule="nonzero" fill-opacity="1"></path><path clip-path="url(#clip830)" d="M744.795 48.0275 L744.795 51.6733 L710.524 51.6733 Q711.01 59.3701 715.142 63.421 Q719.315 67.4314 726.728 67.4314 Q731.022 67.4314 735.032 66.3781 Q739.083 65.3249 743.053 63.2184 L743.053 70.267 Q739.043 71.9684 734.83 72.8596 Q730.617 73.7508 726.282 73.7508 Q715.426 73.7508 709.066 67.4314 Q702.747 61.1119 702.747 50.3365 Q702.747 39.1965 708.742 32.6746 Q714.778 26.1121 724.986 26.1121 Q734.141 26.1121 739.448 32.0264 Q744.795 37.9003 744.795 48.0275 M737.341 45.84 Q737.26 39.7232 733.898 36.0774 Q730.576 32.4315 725.067 32.4315 Q718.829 32.4315 715.061 35.9558 Q711.334 39.4801 710.767 45.8805 L737.341 45.84 Z" fill="#000000" fill-rule="nonzero" fill-opacity="1"></path><path clip-path="url(#clip830)" d="M812.404 44.2197 Q815.038 45.1109 817.509 48.0275 Q820.02 50.9442 822.532 56.0483 L830.836 72.576 L822.046 72.576 L814.308 57.061 Q811.311 50.9847 808.475 48.9997 Q805.68 47.0148 800.819 47.0148 L791.907 47.0148 L791.907 72.576 L783.724 72.576 L783.724 12.096 L802.196 12.096 Q812.567 12.096 817.671 16.4305 Q822.775 20.7649 822.775 29.5149 Q822.775 35.2267 820.101 38.994 Q817.468 42.7613 812.404 44.2197 M791.907 18.8205 L791.907 40.2903 L802.196 40.2903 Q808.111 40.2903 811.108 37.5762 Q814.146 34.8216 814.146 29.5149 Q814.146 24.2082 811.108 21.5346 Q808.111 18.8205 802.196 18.8205 L791.907 18.8205 Z" fill="#000000" fill-rule="nonzero" fill-opacity="1"></path><path clip-path="url(#clip830)" d="M841.044 27.2059 L848.498 27.2059 L848.498 72.576 L841.044 72.576 L841.044 27.2059 M841.044 9.54393 L848.498 9.54393 L848.498 18.9825 L841.044 18.9825 L841.044 9.54393 Z" fill="#000000" fill-rule="nonzero" fill-opacity="1"></path><path clip-path="url(#clip830)" d="M893.017 28.5427 L893.017 35.5912 Q889.858 33.9709 886.455 33.1607 Q883.052 32.3505 879.406 32.3505 Q873.857 32.3505 871.062 34.0519 Q868.307 35.7533 868.307 39.156 Q868.307 41.7486 870.292 43.2475 Q872.277 44.7058 878.272 46.0426 L880.824 46.6097 Q888.764 48.3111 892.086 51.4303 Q895.448 54.509 895.448 60.0587 Q895.448 66.3781 890.425 70.0644 Q885.442 73.7508 876.692 73.7508 Q873.047 73.7508 869.077 73.0216 Q865.147 72.3329 860.772 70.9151 L860.772 63.2184 Q864.904 65.3654 868.915 66.4591 Q872.925 67.5124 876.854 67.5124 Q882.121 67.5124 884.956 65.73 Q887.792 63.9071 887.792 60.6258 Q887.792 57.5877 885.726 55.9673 Q883.7 54.3469 876.773 52.8481 L874.181 52.2405 Q867.254 50.7821 864.175 47.7845 Q861.096 44.7463 861.096 39.4801 Q861.096 33.0797 865.633 29.5959 Q870.17 26.1121 878.515 26.1121 Q882.647 26.1121 886.293 26.7198 Q889.939 27.3274 893.017 28.5427 Z" fill="#000000" fill-rule="nonzero" fill-opacity="1"></path><path clip-path="url(#clip830)" d="M907.034 9.54393 L914.528 9.54393 L914.528 46.7717 L936.767 27.2059 L946.287 27.2059 L922.224 48.4326 L947.3 72.576 L937.577 72.576 L914.528 50.4176 L914.528 72.576 L907.034 72.576 L907.034 9.54393 Z" fill="#000000" fill-rule="nonzero" fill-opacity="1"></path><path clip-path="url(#clip830)" d="M976.385 27.2059 L984.284 27.2059 L998.463 65.2844 L1012.64 27.2059 L1020.54 27.2059 L1003.53 72.576 L993.399 72.576 L976.385 27.2059 Z" fill="#000000" fill-rule="nonzero" fill-opacity="1"></path><path clip-path="url(#clip830)" d="M1059.75 28.5427 L1059.75 35.5912 Q1056.59 33.9709 1053.19 33.1607 Q1049.79 32.3505 1046.14 32.3505 Q1040.59 32.3505 1037.8 34.0519 Q1035.04 35.7533 1035.04 39.156 Q1035.04 41.7486 1037.03 43.2475 Q1039.01 44.7058 1045.01 46.0426 L1047.56 46.6097 Q1055.5 48.3111 1058.82 51.4303 Q1062.18 54.509 1062.18 60.0587 Q1062.18 66.3781 1057.16 70.0644 Q1052.18 73.7508 1043.43 73.7508 Q1039.78 73.7508 1035.81 73.0216 Q1031.88 72.3329 1027.51 70.9151 L1027.51 63.2184 Q1031.64 65.3654 1035.65 66.4591 Q1039.66 67.5124 1043.59 67.5124 Q1048.86 67.5124 1051.69 65.73 Q1054.53 63.9071 1054.53 60.6258 Q1054.53 57.5877 1052.46 55.9673 Q1050.44 54.3469 1043.51 52.8481 L1040.92 52.2405 Q1033.99 50.7821 1030.91 47.7845 Q1027.83 44.7463 1027.83 39.4801 Q1027.83 33.0797 1032.37 29.5959 Q1036.91 26.1121 1045.25 26.1121 Q1049.38 26.1121 1053.03 26.7198 Q1056.67 27.3274 1059.75 28.5427 Z" fill="#000000" fill-rule="nonzero" fill-opacity="1"></path><path clip-path="url(#clip830)" d="M1100.75 12.096 L1108.93 12.096 L1108.93 65.6895 L1138.38 65.6895 L1138.38 72.576 L1100.75 72.576 L1100.75 12.096 Z" fill="#000000" fill-rule="nonzero" fill-opacity="1"></path><path clip-path="url(#clip830)" d="M1162.77 32.4315 Q1156.77 32.4315 1153.29 37.1306 Q1149.8 41.7891 1149.8 49.9314 Q1149.8 58.0738 1153.25 62.7728 Q1156.73 67.4314 1162.77 67.4314 Q1168.72 67.4314 1172.21 62.7323 Q1175.69 58.0333 1175.69 49.9314 Q1175.69 41.8701 1172.21 37.1711 Q1168.72 32.4315 1162.77 32.4315 M1162.77 26.1121 Q1172.49 26.1121 1178.04 32.4315 Q1183.59 38.7509 1183.59 49.9314 Q1183.59 61.0714 1178.04 67.4314 Q1172.49 73.7508 1162.77 73.7508 Q1153 73.7508 1147.45 67.4314 Q1141.95 61.0714 1141.95 49.9314 Q1141.95 38.7509 1147.45 32.4315 Q1153 26.1121 1162.77 26.1121 Z" fill="#000000" fill-rule="nonzero" fill-opacity="1"></path><path clip-path="url(#clip830)" d="M1216.56 49.7694 Q1207.53 49.7694 1204.05 51.8354 Q1200.56 53.9013 1200.56 58.8839 Q1200.56 62.8538 1203.15 65.2034 Q1205.79 67.5124 1210.28 67.5124 Q1216.48 67.5124 1220.21 63.1374 Q1223.98 58.7219 1223.98 51.4303 L1223.98 49.7694 L1216.56 49.7694 M1231.43 46.6907 L1231.43 72.576 L1223.98 72.576 L1223.98 65.6895 Q1221.42 69.8214 1217.62 71.8063 Q1213.81 73.7508 1208.3 73.7508 Q1201.33 73.7508 1197.2 69.8619 Q1193.11 65.9325 1193.11 59.3701 Q1193.11 51.7138 1198.21 47.825 Q1203.36 43.9361 1213.53 43.9361 L1223.98 43.9361 L1223.98 43.2069 Q1223.98 38.0623 1220.57 35.2672 Q1217.21 32.4315 1211.09 32.4315 Q1207.21 32.4315 1203.52 33.3632 Q1199.83 34.295 1196.43 36.1584 L1196.43 29.2718 Q1200.52 27.692 1204.37 26.9223 Q1208.22 26.1121 1211.86 26.1121 Q1221.71 26.1121 1226.57 31.2163 Q1231.43 36.3204 1231.43 46.6907 Z" fill="#000000" fill-rule="nonzero" fill-opacity="1"></path><path clip-path="url(#clip830)" d="M1276.64 34.0924 L1276.64 9.54393 L1284.09 9.54393 L1284.09 72.576 L1276.64 72.576 L1276.64 65.7705 Q1274.29 69.8214 1270.68 71.8063 Q1267.12 73.7508 1262.1 73.7508 Q1253.87 73.7508 1248.69 67.1883 Q1243.54 60.6258 1243.54 49.9314 Q1243.54 39.2371 1248.69 32.6746 Q1253.87 26.1121 1262.1 26.1121 Q1267.12 26.1121 1270.68 28.0971 Q1274.29 30.0415 1276.64 34.0924 M1251.24 49.9314 Q1251.24 58.1548 1254.6 62.8538 Q1258 67.5124 1263.92 67.5124 Q1269.83 67.5124 1273.24 62.8538 Q1276.64 58.1548 1276.64 49.9314 Q1276.64 41.7081 1273.24 37.0496 Q1269.83 32.3505 1263.92 32.3505 Q1258 32.3505 1254.6 37.0496 Q1251.24 41.7081 1251.24 49.9314 Z" fill="#000000" fill-rule="nonzero" fill-opacity="1"></path><path clip-path="url(#clip830)" d="M1362.4 14.0809 L1362.4 22.0612 Q1357.74 19.8332 1353.61 18.7395 Q1349.47 17.6457 1345.63 17.6457 Q1338.94 17.6457 1335.3 20.2383 Q1331.69 22.8309 1331.69 27.611 Q1331.69 31.6214 1334.08 33.6873 Q1336.51 35.7128 1343.23 36.9686 L1348.18 37.9813 Q1357.33 39.7232 1361.67 44.1387 Q1366.04 48.5136 1366.04 55.8863 Q1366.04 64.6767 1360.13 69.2137 Q1354.25 73.7508 1342.87 73.7508 Q1338.58 73.7508 1333.72 72.7785 Q1328.89 71.8063 1323.71 69.9024 L1323.71 61.4765 Q1328.69 64.2716 1333.47 65.6895 Q1338.25 67.1073 1342.87 67.1073 Q1349.88 67.1073 1353.69 64.3527 Q1357.49 61.598 1357.49 56.4939 Q1357.49 52.0379 1354.74 49.5264 Q1352.03 47.0148 1345.79 45.759 L1340.8 44.7868 Q1331.65 42.9639 1327.56 39.075 Q1323.47 35.1862 1323.47 28.2591 Q1323.47 20.2383 1329.1 15.6203 Q1334.77 11.0023 1344.69 11.0023 Q1348.95 11.0023 1353.36 11.7719 Q1357.78 12.5416 1362.4 14.0809 Z" fill="#000000" fill-rule="nonzero" fill-opacity="1"></path><path clip-path="url(#clip830)" d="M1416.19 45.1919 L1416.19 72.576 L1408.74 72.576 L1408.74 45.4349 Q1408.74 38.994 1406.23 35.7938 Q1403.71 32.5936 1398.69 32.5936 Q1392.66 32.5936 1389.17 36.4419 Q1385.69 40.2903 1385.69 46.9338 L1385.69 72.576 L1378.19 72.576 L1378.19 9.54393 L1385.69 9.54393 L1385.69 34.2544 Q1388.36 30.163 1391.97 28.1376 Q1395.61 26.1121 1400.35 26.1121 Q1408.17 26.1121 1412.18 30.9732 Q1416.19 35.7938 1416.19 45.1919 Z" fill="#000000" fill-rule="nonzero" fill-opacity="1"></path><path clip-path="url(#clip830)" d="M1469.87 48.0275 L1469.87 51.6733 L1435.6 51.6733 Q1436.08 59.3701 1440.21 63.421 Q1444.39 67.4314 1451.8 67.4314 Q1456.09 67.4314 1460.1 66.3781 Q1464.15 65.3249 1468.12 63.2184 L1468.12 70.267 Q1464.11 71.9684 1459.9 72.8596 Q1455.69 73.7508 1451.35 73.7508 Q1440.5 73.7508 1434.14 67.4314 Q1427.82 61.1119 1427.82 50.3365 Q1427.82 39.1965 1433.81 32.6746 Q1439.85 26.1121 1450.06 26.1121 Q1459.21 26.1121 1464.52 32.0264 Q1469.87 37.9003 1469.87 48.0275 M1462.41 45.84 Q1462.33 39.7232 1458.97 36.0774 Q1455.65 32.4315 1450.14 32.4315 Q1443.9 32.4315 1440.13 35.9558 Q1436.41 39.4801 1435.84 45.8805 L1462.41 45.84 Z" fill="#000000" fill-rule="nonzero" fill-opacity="1"></path><path clip-path="url(#clip830)" d="M1511.96 34.0924 L1511.96 9.54393 L1519.41 9.54393 L1519.41 72.576 L1511.96 72.576 L1511.96 65.7705 Q1509.61 69.8214 1506 71.8063 Q1502.44 73.7508 1497.41 73.7508 Q1489.19 73.7508 1484 67.1883 Q1478.86 60.6258 1478.86 49.9314 Q1478.86 39.2371 1484 32.6746 Q1489.19 26.1121 1497.41 26.1121 Q1502.44 26.1121 1506 28.0971 Q1509.61 30.0415 1511.96 34.0924 M1486.56 49.9314 Q1486.56 58.1548 1489.92 62.8538 Q1493.32 67.5124 1499.24 67.5124 Q1505.15 67.5124 1508.55 62.8538 Q1511.96 58.1548 1511.96 49.9314 Q1511.96 41.7081 1508.55 37.0496 Q1505.15 32.3505 1499.24 32.3505 Q1493.32 32.3505 1489.92 37.0496 Q1486.56 41.7081 1486.56 49.9314 Z" fill="#000000" fill-rule="nonzero" fill-opacity="1"></path><path clip-path="url(#clip830)" d="M1584.1 9.54393 L1584.1 15.7418 L1576.97 15.7418 Q1572.96 15.7418 1571.38 17.3622 Q1569.84 18.9825 1569.84 23.1955 L1569.84 27.2059 L1582.12 27.2059 L1582.12 32.9987 L1569.84 32.9987 L1569.84 72.576 L1562.35 72.576 L1562.35 32.9987 L1555.22 32.9987 L1555.22 27.2059 L1562.35 27.2059 L1562.35 24.0462 Q1562.35 16.471 1565.87 13.0277 Q1569.4 9.54393 1577.05 9.54393 L1584.1 9.54393 Z" fill="#000000" fill-rule="nonzero" fill-opacity="1"></path><path clip-path="url(#clip830)" d="M1607.92 32.4315 Q1601.93 32.4315 1598.44 37.1306 Q1594.96 41.7891 1594.96 49.9314 Q1594.96 58.0738 1598.4 62.7728 Q1601.89 67.4314 1607.92 67.4314 Q1613.88 67.4314 1617.36 62.7323 Q1620.84 58.0333 1620.84 49.9314 Q1620.84 41.8701 1617.36 37.1711 Q1613.88 32.4315 1607.92 32.4315 M1607.92 26.1121 Q1617.64 26.1121 1623.19 32.4315 Q1628.74 38.7509 1628.74 49.9314 Q1628.74 61.0714 1623.19 67.4314 Q1617.64 73.7508 1607.92 73.7508 Q1598.16 73.7508 1592.61 67.4314 Q1587.1 61.0714 1587.1 49.9314 Q1587.1 38.7509 1592.61 32.4315 Q1598.16 26.1121 1607.92 26.1121 Z" fill="#000000" fill-rule="nonzero" fill-opacity="1"></path><path clip-path="url(#clip830)" d="M1667.39 34.1734 Q1666.13 33.4443 1664.63 33.1202 Q1663.18 32.7556 1661.39 32.7556 Q1655.07 32.7556 1651.67 36.8875 Q1648.31 40.9789 1648.31 48.6757 L1648.31 72.576 L1640.81 72.576 L1640.81 27.2059 L1648.31 27.2059 L1648.31 34.2544 Q1650.66 30.1225 1654.43 28.1376 Q1658.19 26.1121 1663.58 26.1121 Q1664.35 26.1121 1665.28 26.2337 Q1666.21 26.3147 1667.35 26.5172 L1667.39 34.1734 Z" fill="#000000" fill-rule="nonzero" fill-opacity="1"></path><path clip-path="url(#clip830)" d="M1734.15 49.9314 Q1734.15 41.7081 1730.74 37.0496 Q1727.38 32.3505 1721.47 32.3505 Q1715.55 32.3505 1712.15 37.0496 Q1708.79 41.7081 1708.79 49.9314 Q1708.79 58.1548 1712.15 62.8538 Q1715.55 67.5124 1721.47 67.5124 Q1727.38 67.5124 1730.74 62.8538 Q1734.15 58.1548 1734.15 49.9314 M1708.79 34.0924 Q1711.14 30.0415 1714.7 28.0971 Q1718.31 26.1121 1723.29 26.1121 Q1731.55 26.1121 1736.7 32.6746 Q1741.88 39.2371 1741.88 49.9314 Q1741.88 60.6258 1736.7 67.1883 Q1731.55 73.7508 1723.29 73.7508 Q1718.31 73.7508 1714.7 71.8063 Q1711.14 69.8214 1708.79 65.7705 L1708.79 72.576 L1701.29 72.576 L1701.29 9.54393 L1708.79 9.54393 L1708.79 34.0924 Z" fill="#000000" fill-rule="nonzero" fill-opacity="1"></path><path clip-path="url(#clip830)" d="M1774.86 49.7694 Q1765.83 49.7694 1762.34 51.8354 Q1758.86 53.9013 1758.86 58.8839 Q1758.86 62.8538 1761.45 65.2034 Q1764.08 67.5124 1768.58 67.5124 Q1774.78 67.5124 1778.5 63.1374 Q1782.27 58.7219 1782.27 51.4303 L1782.27 49.7694 L1774.86 49.7694 M1789.73 46.6907 L1789.73 72.576 L1782.27 72.576 L1782.27 65.6895 Q1779.72 69.8214 1775.91 71.8063 Q1772.1 73.7508 1766.59 73.7508 Q1759.63 73.7508 1755.5 69.8619 Q1751.4 65.9325 1751.4 59.3701 Q1751.4 51.7138 1756.51 47.825 Q1761.65 43.9361 1771.82 43.9361 L1782.27 43.9361 L1782.27 43.2069 Q1782.27 38.0623 1778.87 35.2672 Q1775.51 32.4315 1769.39 32.4315 Q1765.5 32.4315 1761.81 33.3632 Q1758.13 34.295 1754.73 36.1584 L1754.73 29.2718 Q1758.82 27.692 1762.67 26.9223 Q1766.51 26.1121 1770.16 26.1121 Q1780 26.1121 1784.86 31.2163 Q1789.73 36.3204 1789.73 46.6907 Z" fill="#000000" fill-rule="nonzero" fill-opacity="1"></path><path clip-path="url(#clip830)" d="M1834 28.5427 L1834 35.5912 Q1830.84 33.9709 1827.44 33.1607 Q1824.04 32.3505 1820.39 32.3505 Q1814.84 32.3505 1812.05 34.0519 Q1809.29 35.7533 1809.29 39.156 Q1809.29 41.7486 1811.28 43.2475 Q1813.26 44.7058 1819.26 46.0426 L1821.81 46.6097 Q1829.75 48.3111 1833.07 51.4303 Q1836.43 54.509 1836.43 60.0587 Q1836.43 66.3781 1831.41 70.0644 Q1826.43 73.7508 1817.68 73.7508 Q1814.03 73.7508 1810.06 73.0216 Q1806.13 72.3329 1801.76 70.9151 L1801.76 63.2184 Q1805.89 65.3654 1809.9 66.4591 Q1813.91 67.5124 1817.84 67.5124 Q1823.11 67.5124 1825.94 65.73 Q1828.78 63.9071 1828.78 60.6258 Q1828.78 57.5877 1826.71 55.9673 Q1824.68 54.3469 1817.76 52.8481 L1815.17 52.2405 Q1808.24 50.7821 1805.16 47.7845 Q1802.08 44.7463 1802.08 39.4801 Q1802.08 33.0797 1806.62 29.5959 Q1811.15 26.1121 1819.5 26.1121 Q1823.63 26.1121 1827.28 26.7198 Q1830.92 27.3274 1834 28.5427 Z" fill="#000000" fill-rule="nonzero" fill-opacity="1"></path><path clip-path="url(#clip830)" d="M1887.11 48.0275 L1887.11 51.6733 L1852.84 51.6733 Q1853.32 59.3701 1857.46 63.421 Q1861.63 67.4314 1869.04 67.4314 Q1873.34 67.4314 1877.35 66.3781 Q1881.4 65.3249 1885.37 63.2184 L1885.37 70.267 Q1881.36 71.9684 1877.14 72.8596 Q1872.93 73.7508 1868.6 73.7508 Q1857.74 73.7508 1851.38 67.4314 Q1845.06 61.1119 1845.06 50.3365 Q1845.06 39.1965 1851.06 32.6746 Q1857.09 26.1121 1867.3 26.1121 Q1876.46 26.1121 1881.76 32.0264 Q1887.11 37.9003 1887.11 48.0275 M1879.66 45.84 Q1879.57 39.7232 1876.21 36.0774 Q1872.89 32.4315 1867.38 32.4315 Q1861.14 32.4315 1857.38 35.9558 Q1853.65 39.4801 1853.08 45.8805 L1879.66 45.84 Z" fill="#000000" fill-rule="nonzero" fill-opacity="1"></path><path clip-path="url(#clip830)" d="M1933.82 86.3491 L1933.82 92.1419 L1890.71 92.1419 L1890.71 86.3491 L1933.82 86.3491 Z" fill="#000000" fill-rule="nonzero" fill-opacity="1"></path><path clip-path="url(#clip830)" d="M1973.47 28.9478 L1973.47 35.9153 Q1970.31 34.1734 1967.11 33.3227 Q1963.96 32.4315 1960.71 32.4315 Q1953.46 32.4315 1949.45 37.0496 Q1945.44 41.6271 1945.44 49.9314 Q1945.44 58.2358 1949.45 62.8538 Q1953.46 67.4314 1960.71 67.4314 Q1963.96 67.4314 1967.11 66.5807 Q1970.31 65.6895 1973.47 63.9476 L1973.47 70.8341 Q1970.36 72.2924 1966.99 73.0216 Q1963.67 73.7508 1959.9 73.7508 Q1949.66 73.7508 1943.62 67.3098 Q1937.58 60.8689 1937.58 49.9314 Q1937.58 38.832 1943.66 32.472 Q1949.78 26.1121 1960.39 26.1121 Q1963.83 26.1121 1967.11 26.8413 Q1970.4 27.5299 1973.47 28.9478 Z" fill="#000000" fill-rule="nonzero" fill-opacity="1"></path><path clip-path="url(#clip830)" d="M2007.06 49.7694 Q1998.02 49.7694 1994.54 51.8354 Q1991.06 53.9013 1991.06 58.8839 Q1991.06 62.8538 1993.65 65.2034 Q1996.28 67.5124 2000.78 67.5124 Q2006.98 67.5124 2010.7 63.1374 Q2014.47 58.7219 2014.47 51.4303 L2014.47 49.7694 L2007.06 49.7694 M2021.92 46.6907 L2021.92 72.576 L2014.47 72.576 L2014.47 65.6895 Q2011.92 69.8214 2008.11 71.8063 Q2004.3 73.7508 1998.79 73.7508 Q1991.83 73.7508 1987.69 69.8619 Q1983.6 65.9325 1983.6 59.3701 Q1983.6 51.7138 1988.71 47.825 Q1993.85 43.9361 2004.02 43.9361 L2014.47 43.9361 L2014.47 43.2069 Q2014.47 38.0623 2011.07 35.2672 Q2007.7 32.4315 2001.59 32.4315 Q1997.7 32.4315 1994.01 33.3632 Q1990.33 34.295 1986.92 36.1584 L1986.92 29.2718 Q1991.02 27.692 1994.86 26.9223 Q1998.71 26.1121 2002.36 26.1121 Q2012.2 26.1121 2017.06 31.2163 Q2021.92 36.3204 2021.92 46.6907 Z" fill="#000000" fill-rule="nonzero" fill-opacity="1"></path><path clip-path="url(#clip830)" d="M2066.2 28.5427 L2066.2 35.5912 Q2063.04 33.9709 2059.64 33.1607 Q2056.23 32.3505 2052.59 32.3505 Q2047.04 32.3505 2044.24 34.0519 Q2041.49 35.7533 2041.49 39.156 Q2041.49 41.7486 2043.47 43.2475 Q2045.46 44.7058 2051.45 46.0426 L2054.01 46.6097 Q2061.95 48.3111 2065.27 51.4303 Q2068.63 54.509 2068.63 60.0587 Q2068.63 66.3781 2063.61 70.0644 Q2058.62 73.7508 2049.87 73.7508 Q2046.23 73.7508 2042.26 73.0216 Q2038.33 72.3329 2033.95 70.9151 L2033.95 63.2184 Q2038.09 65.3654 2042.1 66.4591 Q2046.11 67.5124 2050.04 67.5124 Q2055.3 67.5124 2058.14 65.73 Q2060.97 63.9071 2060.97 60.6258 Q2060.97 57.5877 2058.91 55.9673 Q2056.88 54.3469 2049.96 52.8481 L2047.36 52.2405 Q2040.44 50.7821 2037.36 47.7845 Q2034.28 44.7463 2034.28 39.4801 Q2034.28 33.0797 2038.82 29.5959 Q2043.35 26.1121 2051.7 26.1121 Q2055.83 26.1121 2059.48 26.7198 Q2063.12 27.3274 2066.2 28.5427 Z" fill="#000000" fill-rule="nonzero" fill-opacity="1"></path><path clip-path="url(#clip830)" d="M2119.31 48.0275 L2119.31 51.6733 L2085.04 51.6733 Q2085.52 59.3701 2089.65 63.421 Q2093.83 67.4314 2101.24 67.4314 Q2105.53 67.4314 2109.54 66.3781 Q2113.6 65.3249 2117.57 63.2184 L2117.57 70.267 Q2113.55 71.9684 2109.34 72.8596 Q2105.13 73.7508 2100.79 73.7508 Q2089.94 73.7508 2083.58 67.4314 Q2077.26 61.1119 2077.26 50.3365 Q2077.26 39.1965 2083.25 32.6746 Q2089.29 26.1121 2099.5 26.1121 Q2108.65 26.1121 2113.96 32.0264 Q2119.31 37.9003 2119.31 48.0275 M2111.85 45.84 Q2111.77 39.7232 2108.41 36.0774 Q2105.09 32.4315 2099.58 32.4315 Q2093.34 32.4315 2089.57 35.9558 Q2085.85 39.4801 2085.28 45.8805 L2111.85 45.84 Z" fill="#000000" fill-rule="nonzero" fill-opacity="1"></path><polyline clip-path="url(#clip832)" style="stroke:#009af9; stroke-linecap:round; stroke-linejoin:round; stroke-width:4; stroke-opacity:1; fill:none" points="264.778,773.326 264.778,773.326 843.968,1386.4 1712.75,1386.4 2291.94,1386.4 "></polyline>
<polyline clip-path="url(#clip832)" style="stroke:#e26f46; stroke-linecap:round; stroke-linejoin:round; stroke-width:4; stroke-opacity:1; fill:none" points="265.909,160.256 265.909,160.256 511.027,773.326 559.649,773.326 569.857,1386.4 569.857,1386.4 569.857,1386.4 "></polyline>
<path clip-path="url(#clip830)" d="M1818.22 322.316 L2281.13 322.316 L2281.13 166.796 L1818.22 166.796  Z" fill="#ffffff" fill-rule="evenodd" fill-opacity="1"></path>
<polyline clip-path="url(#clip830)" style="stroke:#000000; stroke-linecap:round; stroke-linejoin:round; stroke-width:4; stroke-opacity:1; fill:none" points="1818.22,322.316 2281.13,322.316 2281.13,166.796 1818.22,166.796 1818.22,322.316 "></polyline>
<polyline clip-path="url(#clip830)" style="stroke:#009af9; stroke-linecap:round; stroke-linejoin:round; stroke-width:4; stroke-opacity:1; fill:none" points="1842.09,218.636 1985.35,218.636 "></polyline>
<path clip-path="url(#clip830)" d="M2033.62 205.198 L2033.62 232.073 L2039.27 232.073 Q2046.42 232.073 2049.73 228.832 Q2053.07 225.592 2053.07 218.601 Q2053.07 211.657 2049.73 208.439 Q2046.42 205.198 2039.27 205.198 L2033.62 205.198 M2028.95 201.356 L2038.55 201.356 Q2048.6 201.356 2053.3 205.546 Q2058 209.712 2058 218.601 Q2058 227.536 2053.27 231.726 Q2048.55 235.916 2038.55 235.916 L2028.95 235.916 L2028.95 201.356 Z" fill="#000000" fill-rule="nonzero" fill-opacity="1"></path><path clip-path="url(#clip830)" d="M2091.33 204.018 L2091.33 208.948 Q2088.97 206.749 2086.28 205.661 Q2083.62 204.573 2080.61 204.573 Q2074.69 204.573 2071.54 208.208 Q2068.39 211.819 2068.39 218.67 Q2068.39 225.499 2071.54 229.133 Q2074.69 232.744 2080.61 232.744 Q2083.62 232.744 2086.28 231.656 Q2088.97 230.569 2091.33 228.369 L2091.33 233.254 Q2088.88 234.92 2086.12 235.754 Q2083.39 236.587 2080.33 236.587 Q2072.49 236.587 2067.97 231.795 Q2063.46 226.981 2063.46 218.67 Q2063.46 210.337 2067.97 205.546 Q2072.49 200.731 2080.33 200.731 Q2083.44 200.731 2086.17 201.564 Q2088.92 202.374 2091.33 204.018 Z" fill="#000000" fill-rule="nonzero" fill-opacity="1"></path><path clip-path="url(#clip830)" d="M2112.58 204.527 Q2107.49 204.527 2104.48 208.323 Q2101.49 212.12 2101.49 218.67 Q2101.49 225.198 2104.48 228.994 Q2107.49 232.791 2112.58 232.791 Q2117.67 232.791 2120.63 228.994 Q2123.62 225.198 2123.62 218.67 Q2123.62 212.12 2120.63 208.323 Q2117.67 204.527 2112.58 204.527 M2112.58 200.731 Q2119.85 200.731 2124.2 205.615 Q2128.55 210.476 2128.55 218.67 Q2128.55 226.842 2124.2 231.726 Q2119.85 236.587 2112.58 236.587 Q2105.29 236.587 2100.91 231.726 Q2096.56 226.865 2096.56 218.67 Q2096.56 210.476 2100.91 205.615 Q2105.29 200.731 2112.58 200.731 Z" fill="#000000" fill-rule="nonzero" fill-opacity="1"></path><path clip-path="url(#clip830)" d="M2140.54 205.198 L2140.54 218.184 L2146.42 218.184 Q2149.69 218.184 2151.47 216.495 Q2153.25 214.805 2153.25 211.68 Q2153.25 208.578 2151.47 206.888 Q2149.69 205.198 2146.42 205.198 L2140.54 205.198 M2135.87 201.356 L2146.42 201.356 Q2152.23 201.356 2155.19 203.995 Q2158.18 206.61 2158.18 211.68 Q2158.18 216.795 2155.19 219.411 Q2152.23 222.027 2146.42 222.027 L2140.54 222.027 L2140.54 235.916 L2135.87 235.916 L2135.87 201.356 Z" fill="#000000" fill-rule="nonzero" fill-opacity="1"></path><path clip-path="url(#clip830)" d="M2185.17 202.49 L2185.17 207.05 Q2182.51 205.777 2180.15 205.152 Q2177.79 204.527 2175.59 204.527 Q2171.77 204.527 2169.69 206.008 Q2167.62 207.49 2167.62 210.221 Q2167.62 212.513 2168.99 213.694 Q2170.38 214.851 2174.22 215.569 L2177.05 216.147 Q2182.28 217.143 2184.75 219.666 Q2187.25 222.166 2187.25 226.379 Q2187.25 231.402 2183.87 233.994 Q2180.52 236.587 2174.01 236.587 Q2171.56 236.587 2168.78 236.031 Q2166.03 235.476 2163.06 234.388 L2163.06 229.573 Q2165.91 231.17 2168.64 231.981 Q2171.37 232.791 2174.01 232.791 Q2178.02 232.791 2180.19 231.217 Q2182.37 229.643 2182.37 226.726 Q2182.37 224.18 2180.8 222.744 Q2179.25 221.309 2175.68 220.592 L2172.83 220.036 Q2167.6 218.995 2165.26 216.772 Q2162.93 214.55 2162.93 210.592 Q2162.93 206.008 2166.14 203.37 Q2169.38 200.731 2175.06 200.731 Q2177.49 200.731 2180.01 201.171 Q2182.53 201.61 2185.17 202.49 Z" fill="#000000" fill-rule="nonzero" fill-opacity="1"></path><polyline clip-path="url(#clip830)" style="stroke:#e26f46; stroke-linecap:round; stroke-linejoin:round; stroke-width:4; stroke-opacity:1; fill:none" points="1842.09,270.476 1985.35,270.476 "></polyline>
<path clip-path="url(#clip830)" d="M2009.22 253.196 L2015.52 253.196 L2030.84 282.108 L2030.84 253.196 L2035.38 253.196 L2035.38 287.756 L2029.08 287.756 L2013.76 258.844 L2013.76 287.756 L2009.22 287.756 L2009.22 253.196 Z" fill="#000000" fill-rule="nonzero" fill-opacity="1"></path><path clip-path="url(#clip830)" d="M2044.69 253.196 L2050.98 253.196 L2066.31 282.108 L2066.31 253.196 L2070.84 253.196 L2070.84 287.756 L2064.55 287.756 L2049.22 258.844 L2049.22 287.756 L2044.69 287.756 L2044.69 253.196 Z" fill="#000000" fill-rule="nonzero" fill-opacity="1"></path><path clip-path="url(#clip830)" d="M2099.66 295.626 L2099.66 298.936 L2075.03 298.936 L2075.03 295.626 L2099.66 295.626 Z" fill="#000000" fill-rule="nonzero" fill-opacity="1"></path><path clip-path="url(#clip830)" d="M2115.4 257.802 L2109.06 275.001 L2121.77 275.001 L2115.4 257.802 M2112.76 253.196 L2118.06 253.196 L2131.24 287.756 L2126.38 287.756 L2123.23 278.89 L2107.65 278.89 L2104.5 287.756 L2099.57 287.756 L2112.76 253.196 Z" fill="#000000" fill-rule="nonzero" fill-opacity="1"></path><path clip-path="url(#clip830)" d="M2161.33 255.858 L2161.33 260.788 Q2158.97 258.589 2156.28 257.501 Q2153.62 256.413 2150.61 256.413 Q2144.69 256.413 2141.54 260.048 Q2138.39 263.659 2138.39 270.51 Q2138.39 277.339 2141.54 280.973 Q2144.69 284.584 2150.61 284.584 Q2153.62 284.584 2156.28 283.496 Q2158.97 282.409 2161.33 280.209 L2161.33 285.094 Q2158.87 286.76 2156.12 287.594 Q2153.39 288.427 2150.33 288.427 Q2142.49 288.427 2137.97 283.635 Q2133.46 278.821 2133.46 270.51 Q2133.46 262.177 2137.97 257.386 Q2142.49 252.571 2150.33 252.571 Q2153.44 252.571 2156.17 253.404 Q2158.92 254.214 2161.33 255.858 Z" fill="#000000" fill-rule="nonzero" fill-opacity="1"></path><path clip-path="url(#clip830)" d="M2182.58 256.367 Q2177.49 256.367 2174.48 260.163 Q2171.49 263.96 2171.49 270.51 Q2171.49 277.038 2174.48 280.834 Q2177.49 284.631 2182.58 284.631 Q2187.67 284.631 2190.63 280.834 Q2193.62 277.038 2193.62 270.51 Q2193.62 263.96 2190.63 260.163 Q2187.67 256.367 2182.58 256.367 M2182.58 252.571 Q2189.85 252.571 2194.2 257.455 Q2198.55 262.316 2198.55 270.51 Q2198.55 278.682 2194.2 283.566 Q2189.85 288.427 2182.58 288.427 Q2175.29 288.427 2170.91 283.566 Q2166.56 278.705 2166.56 270.51 Q2166.56 262.316 2170.91 257.455 Q2175.29 252.571 2182.58 252.571 Z" fill="#000000" fill-rule="nonzero" fill-opacity="1"></path><path clip-path="url(#clip830)" d="M2210.54 257.038 L2210.54 270.024 L2216.42 270.024 Q2219.68 270.024 2221.47 268.335 Q2223.25 266.645 2223.25 263.52 Q2223.25 260.418 2221.47 258.728 Q2219.68 257.038 2216.42 257.038 L2210.54 257.038 M2205.87 253.196 L2216.42 253.196 Q2222.23 253.196 2225.19 255.835 Q2228.18 258.45 2228.18 263.52 Q2228.18 268.635 2225.19 271.251 Q2222.23 273.867 2216.42 273.867 L2210.54 273.867 L2210.54 287.756 L2205.87 287.756 L2205.87 253.196 Z" fill="#000000" fill-rule="nonzero" fill-opacity="1"></path><path clip-path="url(#clip830)" d="M2255.17 254.33 L2255.17 258.89 Q2252.51 257.617 2250.15 256.992 Q2247.79 256.367 2245.59 256.367 Q2241.77 256.367 2239.68 257.848 Q2237.62 259.33 2237.62 262.061 Q2237.62 264.353 2238.99 265.534 Q2240.38 266.691 2244.22 267.409 L2247.05 267.987 Q2252.28 268.983 2254.75 271.506 Q2257.25 274.006 2257.25 278.219 Q2257.25 283.242 2253.87 285.834 Q2250.52 288.427 2244.01 288.427 Q2241.56 288.427 2238.78 287.871 Q2236.03 287.316 2233.06 286.228 L2233.06 281.413 Q2235.91 283.01 2238.64 283.821 Q2241.37 284.631 2244.01 284.631 Q2248.02 284.631 2250.19 283.057 Q2252.37 281.483 2252.37 278.566 Q2252.37 276.02 2250.8 274.584 Q2249.24 273.149 2245.68 272.432 L2242.83 271.876 Q2237.6 270.835 2235.26 268.612 Q2232.93 266.39 2232.93 262.432 Q2232.93 257.848 2236.14 255.21 Q2239.38 252.571 2245.06 252.571 Q2247.49 252.571 2250.01 253.011 Q2252.53 253.45 2255.17 254.33 Z" fill="#000000" fill-rule="nonzero" fill-opacity="1"></path></svg>