<svg xmlns="http://www.w3.org/2000/svg" xmlns:xlink="http://www.w3.org/1999/xlink" width="600" height="400" viewBox="0 0 2400 1600">
<defs>
  <clipPath id="clip530">
    <rect x="0" y="0" width="2400" height="1600"></rect>
  </clipPath>
</defs>
<path clip-path="url(#clip530)" d="M0 1600 L2400 1600 L2400 0 L0 0  Z" fill="#ffffff" fill-rule="evenodd" fill-opacity="1"></path>
<defs>
  <clipPath id="clip531">
    <rect x="480" y="0" width="1681" height="1600"></rect>
  </clipPath>
</defs>
<path clip-path="url(#clip530)" d="M219.38 1423.18 L2352.76 1423.18 L2352.76 123.472 L219.38 123.472  Z" fill="#ffffff" fill-rule="evenodd" fill-opacity="1"></path>
<defs>
  <clipPath id="clip532">
    <rect x="219" y="123" width="2134" height="1301"></rect>
  </clipPath>
</defs>
<polyline clip-path="url(#clip532)" style="stroke:#000000; stroke-linecap:round; stroke-linejoin:round; stroke-width:2; stroke-opacity:0.1; fill:none" points="277.125,1423.18 277.125,123.472 "></polyline>
<polyline clip-path="url(#clip532)" style="stroke:#000000; stroke-linecap:round; stroke-linejoin:round; stroke-width:2; stroke-opacity:0.1; fill:none" points="955.186,1423.18 955.186,123.472 "></polyline>
<polyline clip-path="url(#clip532)" style="stroke:#000000; stroke-linecap:round; stroke-linejoin:round; stroke-width:2; stroke-opacity:0.1; fill:none" points="1633.25,1423.18 1633.25,123.472 "></polyline>
<polyline clip-path="url(#clip532)" style="stroke:#000000; stroke-linecap:round; stroke-linejoin:round; stroke-width:2; stroke-opacity:0.1; fill:none" points="2311.31,1423.18 2311.31,123.472 "></polyline>
<polyline clip-path="url(#clip530)" style="stroke:#000000; stroke-linecap:round; stroke-linejoin:round; stroke-width:4; stroke-opacity:1; fill:none" points="219.38,1423.18 2352.76,1423.18 "></polyline>
<polyline clip-path="url(#clip530)" style="stroke:#000000; stroke-linecap:round; stroke-linejoin:round; stroke-width:4; stroke-opacity:1; fill:none" points="277.125,1423.18 277.125,1404.28 "></polyline>
<polyline clip-path="url(#clip530)" style="stroke:#000000; stroke-linecap:round; stroke-linejoin:round; stroke-width:4; stroke-opacity:1; fill:none" points="955.186,1423.18 955.186,1404.28 "></polyline>
<polyline clip-path="url(#clip530)" style="stroke:#000000; stroke-linecap:round; stroke-linejoin:round; stroke-width:4; stroke-opacity:1; fill:none" points="1633.25,1423.18 1633.25,1404.28 "></polyline>
<polyline clip-path="url(#clip530)" style="stroke:#000000; stroke-linecap:round; stroke-linejoin:round; stroke-width:4; stroke-opacity:1; fill:none" points="2311.31,1423.18 2311.31,1404.28 "></polyline>
<path clip-path="url(#clip530)" d="M239.428 1454.1 Q235.817 1454.1 233.988 1457.66 Q232.183 1461.2 232.183 1468.33 Q232.183 1475.44 233.988 1479.01 Q235.817 1482.55 239.428 1482.55 Q243.062 1482.55 244.868 1479.01 Q246.696 1475.44 246.696 1468.33 Q246.696 1461.2 244.868 1457.66 Q243.062 1454.1 239.428 1454.1 M239.428 1450.39 Q245.238 1450.39 248.294 1455 Q251.372 1459.58 251.372 1468.33 Q251.372 1477.06 248.294 1481.67 Q245.238 1486.25 239.428 1486.25 Q233.618 1486.25 230.539 1481.67 Q227.484 1477.06 227.484 1468.33 Q227.484 1459.58 230.539 1455 Q233.618 1450.39 239.428 1450.39 Z" fill="#000000" fill-rule="nonzero" fill-opacity="1"></path><path clip-path="url(#clip530)" d="M259.59 1479.7 L264.474 1479.7 L264.474 1485.58 L259.59 1485.58 L259.59 1479.7 Z" fill="#000000" fill-rule="nonzero" fill-opacity="1"></path><path clip-path="url(#clip530)" d="M284.659 1454.1 Q281.048 1454.1 279.219 1457.66 Q277.414 1461.2 277.414 1468.33 Q277.414 1475.44 279.219 1479.01 Q281.048 1482.55 284.659 1482.55 Q288.293 1482.55 290.099 1479.01 Q291.928 1475.44 291.928 1468.33 Q291.928 1461.2 290.099 1457.66 Q288.293 1454.1 284.659 1454.1 M284.659 1450.39 Q290.469 1450.39 293.525 1455 Q296.604 1459.58 296.604 1468.33 Q296.604 1477.06 293.525 1481.67 Q290.469 1486.25 284.659 1486.25 Q278.849 1486.25 275.77 1481.67 Q272.715 1477.06 272.715 1468.33 Q272.715 1459.58 275.77 1455 Q278.849 1450.39 284.659 1450.39 Z" fill="#000000" fill-rule="nonzero" fill-opacity="1"></path><path clip-path="url(#clip530)" d="M314.821 1454.1 Q311.21 1454.1 309.381 1457.66 Q307.576 1461.2 307.576 1468.33 Q307.576 1475.44 309.381 1479.01 Q311.21 1482.55 314.821 1482.55 Q318.455 1482.55 320.261 1479.01 Q322.09 1475.44 322.09 1468.33 Q322.09 1461.2 320.261 1457.66 Q318.455 1454.1 314.821 1454.1 M314.821 1450.39 Q320.631 1450.39 323.687 1455 Q326.765 1459.58 326.765 1468.33 Q326.765 1477.06 323.687 1481.67 Q320.631 1486.25 314.821 1486.25 Q309.011 1486.25 305.932 1481.67 Q302.877 1477.06 302.877 1468.33 Q302.877 1459.58 305.932 1455 Q309.011 1450.39 314.821 1450.39 Z" fill="#000000" fill-rule="nonzero" fill-opacity="1"></path><path clip-path="url(#clip530)" d="M917.987 1454.1 Q914.376 1454.1 912.548 1457.66 Q910.742 1461.2 910.742 1468.33 Q910.742 1475.44 912.548 1479.01 Q914.376 1482.55 917.987 1482.55 Q921.622 1482.55 923.427 1479.01 Q925.256 1475.44 925.256 1468.33 Q925.256 1461.2 923.427 1457.66 Q921.622 1454.1 917.987 1454.1 M917.987 1450.39 Q923.798 1450.39 926.853 1455 Q929.932 1459.58 929.932 1468.33 Q929.932 1477.06 926.853 1481.67 Q923.798 1486.25 917.987 1486.25 Q912.177 1486.25 909.099 1481.67 Q906.043 1477.06 906.043 1468.33 Q906.043 1459.58 909.099 1455 Q912.177 1450.39 917.987 1450.39 Z" fill="#000000" fill-rule="nonzero" fill-opacity="1"></path><path clip-path="url(#clip530)" d="M938.149 1479.7 L943.034 1479.7 L943.034 1485.58 L938.149 1485.58 L938.149 1479.7 Z" fill="#000000" fill-rule="nonzero" fill-opacity="1"></path><path clip-path="url(#clip530)" d="M963.219 1454.1 Q959.607 1454.1 957.779 1457.66 Q955.973 1461.2 955.973 1468.33 Q955.973 1475.44 957.779 1479.01 Q959.607 1482.55 963.219 1482.55 Q966.853 1482.55 968.658 1479.01 Q970.487 1475.44 970.487 1468.33 Q970.487 1461.2 968.658 1457.66 Q966.853 1454.1 963.219 1454.1 M963.219 1450.39 Q969.029 1450.39 972.084 1455 Q975.163 1459.58 975.163 1468.33 Q975.163 1477.06 972.084 1481.67 Q969.029 1486.25 963.219 1486.25 Q957.408 1486.25 954.33 1481.67 Q951.274 1477.06 951.274 1468.33 Q951.274 1459.58 954.33 1455 Q957.408 1450.39 963.219 1450.39 Z" fill="#000000" fill-rule="nonzero" fill-opacity="1"></path><path clip-path="url(#clip530)" d="M983.427 1451.02 L1001.78 1451.02 L1001.78 1454.96 L987.709 1454.96 L987.709 1463.43 Q988.728 1463.08 989.746 1462.92 Q990.765 1462.73 991.783 1462.73 Q997.57 1462.73 1000.95 1465.9 Q1004.33 1469.08 1004.33 1474.49 Q1004.33 1480.07 1000.86 1483.17 Q997.385 1486.25 991.066 1486.25 Q988.89 1486.25 986.621 1485.88 Q984.376 1485.51 981.968 1484.77 L981.968 1480.07 Q984.052 1481.2 986.274 1481.76 Q988.496 1482.32 990.973 1482.32 Q994.978 1482.32 997.316 1480.21 Q999.654 1478.1 999.654 1474.49 Q999.654 1470.88 997.316 1468.77 Q994.978 1466.67 990.973 1466.67 Q989.098 1466.67 987.223 1467.08 Q985.371 1467.5 983.427 1468.38 L983.427 1451.02 Z" fill="#000000" fill-rule="nonzero" fill-opacity="1"></path><path clip-path="url(#clip530)" d="M1595.55 1454.1 Q1591.94 1454.1 1590.11 1457.66 Q1588.31 1461.2 1588.31 1468.33 Q1588.31 1475.44 1590.11 1479.01 Q1591.94 1482.55 1595.55 1482.55 Q1599.19 1482.55 1600.99 1479.01 Q1602.82 1475.44 1602.82 1468.33 Q1602.82 1461.2 1600.99 1457.66 Q1599.19 1454.1 1595.55 1454.1 M1595.55 1450.39 Q1601.36 1450.39 1604.42 1455 Q1607.5 1459.58 1607.5 1468.33 Q1607.5 1477.06 1604.42 1481.67 Q1601.36 1486.25 1595.55 1486.25 Q1589.74 1486.25 1586.66 1481.67 Q1583.61 1477.06 1583.61 1468.33 Q1583.61 1459.58 1586.66 1455 Q1589.74 1450.39 1595.55 1450.39 Z" fill="#000000" fill-rule="nonzero" fill-opacity="1"></path><path clip-path="url(#clip530)" d="M1615.71 1479.7 L1620.6 1479.7 L1620.6 1485.58 L1615.71 1485.58 L1615.71 1479.7 Z" fill="#000000" fill-rule="nonzero" fill-opacity="1"></path><path clip-path="url(#clip530)" d="M1631.59 1481.64 L1639.23 1481.64 L1639.23 1455.28 L1630.92 1456.95 L1630.92 1452.69 L1639.19 1451.02 L1643.86 1451.02 L1643.86 1481.64 L1651.5 1481.64 L1651.5 1485.58 L1631.59 1485.58 L1631.59 1481.64 Z" fill="#000000" fill-rule="nonzero" fill-opacity="1"></path><path clip-path="url(#clip530)" d="M1670.94 1454.1 Q1667.33 1454.1 1665.5 1457.66 Q1663.7 1461.2 1663.7 1468.33 Q1663.7 1475.44 1665.5 1479.01 Q1667.33 1482.55 1670.94 1482.55 Q1674.58 1482.55 1676.38 1479.01 Q1678.21 1475.44 1678.21 1468.33 Q1678.21 1461.2 1676.38 1457.66 Q1674.58 1454.1 1670.94 1454.1 M1670.94 1450.39 Q1676.75 1450.39 1679.81 1455 Q1682.89 1459.58 1682.89 1468.33 Q1682.89 1477.06 1679.81 1481.67 Q1676.75 1486.25 1670.94 1486.25 Q1665.13 1486.25 1662.06 1481.67 Q1659 1477.06 1659 1468.33 Q1659 1459.58 1662.06 1455 Q1665.13 1450.39 1670.94 1450.39 Z" fill="#000000" fill-rule="nonzero" fill-opacity="1"></path><path clip-path="url(#clip530)" d="M2274.11 1454.1 Q2270.5 1454.1 2268.67 1457.66 Q2266.87 1461.2 2266.87 1468.33 Q2266.87 1475.44 2268.67 1479.01 Q2270.5 1482.55 2274.11 1482.55 Q2277.75 1482.55 2279.55 1479.01 Q2281.38 1475.44 2281.38 1468.33 Q2281.38 1461.2 2279.55 1457.66 Q2277.75 1454.1 2274.11 1454.1 M2274.11 1450.39 Q2279.92 1450.39 2282.98 1455 Q2286.06 1459.58 2286.06 1468.33 Q2286.06 1477.06 2282.98 1481.67 Q2279.92 1486.25 2274.11 1486.25 Q2268.3 1486.25 2265.22 1481.67 Q2262.17 1477.06 2262.17 1468.33 Q2262.17 1459.58 2265.22 1455 Q2268.3 1450.39 2274.11 1450.39 Z" fill="#000000" fill-rule="nonzero" fill-opacity="1"></path><path clip-path="url(#clip530)" d="M2294.27 1479.7 L2299.16 1479.7 L2299.16 1485.58 L2294.27 1485.58 L2294.27 1479.7 Z" fill="#000000" fill-rule="nonzero" fill-opacity="1"></path><path clip-path="url(#clip530)" d="M2310.15 1481.64 L2317.79 1481.64 L2317.79 1455.28 L2309.48 1456.95 L2309.48 1452.69 L2317.74 1451.02 L2322.42 1451.02 L2322.42 1481.64 L2330.06 1481.64 L2330.06 1485.58 L2310.15 1485.58 L2310.15 1481.64 Z" fill="#000000" fill-rule="nonzero" fill-opacity="1"></path><path clip-path="url(#clip530)" d="M2339.55 1451.02 L2357.91 1451.02 L2357.91 1454.96 L2343.83 1454.96 L2343.83 1463.43 Q2344.85 1463.08 2345.87 1462.92 Q2346.89 1462.73 2347.91 1462.73 Q2353.69 1462.73 2357.07 1465.9 Q2360.45 1469.08 2360.45 1474.49 Q2360.45 1480.07 2356.98 1483.17 Q2353.51 1486.25 2347.19 1486.25 Q2345.01 1486.25 2342.74 1485.88 Q2340.5 1485.51 2338.09 1484.77 L2338.09 1480.07 Q2340.18 1481.2 2342.4 1481.76 Q2344.62 1482.32 2347.1 1482.32 Q2351.1 1482.32 2353.44 1480.21 Q2355.78 1478.1 2355.78 1474.49 Q2355.78 1470.88 2353.44 1468.77 Q2351.1 1466.67 2347.1 1466.67 Q2345.22 1466.67 2343.35 1467.08 Q2341.49 1467.5 2339.55 1468.38 L2339.55 1451.02 Z" fill="#000000" fill-rule="nonzero" fill-opacity="1"></path><path clip-path="url(#clip530)" d="M1093.12 1547.13 Q1090.35 1547.13 1088.76 1549.49 Q1087.2 1551.84 1087.2 1556.04 Q1087.2 1560.18 1088.76 1562.57 Q1090.35 1564.92 1093.12 1564.92 Q1095.83 1564.92 1097.39 1562.57 Q1098.98 1560.18 1098.98 1556.04 Q1098.98 1551.87 1097.39 1549.52 Q1095.83 1547.13 1093.12 1547.13 M1093.12 1543.09 Q1098.15 1543.09 1101.11 1546.59 Q1104.07 1550.09 1104.07 1556.04 Q1104.07 1562 1101.08 1565.5 Q1098.12 1568.97 1093.12 1568.97 Q1088.03 1568.97 1085.07 1565.5 Q1082.11 1562 1082.11 1556.04 Q1082.11 1550.06 1085.07 1546.59 Q1088.06 1543.09 1093.12 1543.09 M1060.28 1523.71 Q1057.54 1523.71 1055.95 1526.09 Q1054.39 1528.45 1054.39 1532.59 Q1054.39 1536.79 1055.95 1539.14 Q1057.51 1541.5 1060.28 1541.5 Q1063.05 1541.5 1064.61 1539.14 Q1066.2 1536.79 1066.2 1532.59 Q1066.2 1528.48 1064.61 1526.09 Q1063.01 1523.71 1060.28 1523.71 M1089.02 1519.66 L1094.11 1519.66 L1064.38 1568.97 L1059.29 1568.97 L1089.02 1519.66 M1060.28 1519.66 Q1065.31 1519.66 1068.3 1523.17 Q1071.29 1526.63 1071.29 1532.59 Q1071.29 1538.6 1068.3 1542.07 Q1065.34 1545.54 1060.28 1545.54 Q1055.22 1545.54 1052.26 1542.07 Q1049.33 1538.57 1049.33 1532.59 Q1049.33 1526.67 1052.29 1523.17 Q1055.25 1519.66 1060.28 1519.66 Z" fill="#000000" fill-rule="nonzero" fill-opacity="1"></path><path clip-path="url(#clip530)" d="M1148.35 1536.5 Q1143.64 1536.5 1140.9 1540.19 Q1138.16 1543.85 1138.16 1550.25 Q1138.16 1556.65 1140.87 1560.34 Q1143.6 1564 1148.35 1564 Q1153.02 1564 1155.76 1560.31 Q1158.5 1556.62 1158.5 1550.25 Q1158.5 1543.92 1155.76 1540.23 Q1153.02 1536.5 1148.35 1536.5 M1148.35 1531.54 Q1155.98 1531.54 1160.35 1536.5 Q1164.71 1541.47 1164.71 1550.25 Q1164.71 1559 1160.35 1564 Q1155.98 1568.97 1148.35 1568.97 Q1140.68 1568.97 1136.31 1564 Q1131.99 1559 1131.99 1550.25 Q1131.99 1541.47 1136.31 1536.5 Q1140.68 1531.54 1148.35 1531.54 Z" fill="#000000" fill-rule="nonzero" fill-opacity="1"></path><path clip-path="url(#clip530)" d="M1192.46 1518.52 L1192.46 1523.39 L1186.86 1523.39 Q1183.71 1523.39 1182.47 1524.66 Q1181.26 1525.93 1181.26 1529.24 L1181.26 1532.4 L1190.9 1532.4 L1190.9 1536.95 L1181.26 1536.95 L1181.26 1568.04 L1175.37 1568.04 L1175.37 1536.95 L1169.77 1536.95 L1169.77 1532.4 L1175.37 1532.4 L1175.37 1529.91 Q1175.37 1523.96 1178.14 1521.26 Q1180.91 1518.52 1186.92 1518.52 L1192.46 1518.52 Z" fill="#000000" fill-rule="nonzero" fill-opacity="1"></path><path clip-path="url(#clip530)" d="M1218.08 1518.52 L1223.94 1518.52 L1223.94 1568.04 L1218.08 1568.04 L1218.08 1518.52 Z" fill="#000000" fill-rule="nonzero" fill-opacity="1"></path><path clip-path="url(#clip530)" d="M1250.01 1536.5 Q1245.3 1536.5 1242.56 1540.19 Q1239.82 1543.85 1239.82 1550.25 Q1239.82 1556.65 1242.53 1560.34 Q1245.26 1564 1250.01 1564 Q1254.69 1564 1257.42 1560.31 Q1260.16 1556.62 1260.16 1550.25 Q1260.16 1543.92 1257.42 1540.23 Q1254.69 1536.5 1250.01 1536.5 M1250.01 1531.54 Q1257.65 1531.54 1262.01 1536.5 Q1266.37 1541.47 1266.37 1550.25 Q1266.37 1559 1262.01 1564 Q1257.65 1568.97 1250.01 1568.97 Q1242.34 1568.97 1237.98 1564 Q1233.65 1559 1233.65 1550.25 Q1233.65 1541.47 1237.98 1536.5 Q1242.34 1531.54 1250.01 1531.54 Z" fill="#000000" fill-rule="nonzero" fill-opacity="1"></path><path clip-path="url(#clip530)" d="M1292.27 1550.12 Q1285.18 1550.12 1282.44 1551.75 Q1279.7 1553.37 1279.7 1557.29 Q1279.7 1560.4 1281.74 1562.25 Q1283.81 1564.07 1287.34 1564.07 Q1292.21 1564.07 1295.14 1560.63 Q1298.1 1557.16 1298.1 1551.43 L1298.1 1550.12 L1292.27 1550.12 M1303.96 1547.71 L1303.96 1568.04 L1298.1 1568.04 L1298.1 1562.63 Q1296.09 1565.88 1293.1 1567.44 Q1290.11 1568.97 1285.78 1568.97 Q1280.31 1568.97 1277.06 1565.91 Q1273.85 1562.82 1273.85 1557.67 Q1273.85 1551.65 1277.86 1548.6 Q1281.9 1545.54 1289.89 1545.54 L1298.1 1545.54 L1298.1 1544.97 Q1298.1 1540.93 1295.43 1538.73 Q1292.78 1536.5 1287.98 1536.5 Q1284.92 1536.5 1282.03 1537.23 Q1279.13 1537.97 1276.46 1539.43 L1276.46 1534.02 Q1279.67 1532.78 1282.69 1532.17 Q1285.72 1531.54 1288.58 1531.54 Q1296.32 1531.54 1300.14 1535.55 Q1303.96 1539.56 1303.96 1547.71 Z" fill="#000000" fill-rule="nonzero" fill-opacity="1"></path><path clip-path="url(#clip530)" d="M1339.48 1537.81 L1339.48 1518.52 L1345.33 1518.52 L1345.33 1568.04 L1339.48 1568.04 L1339.48 1562.7 Q1337.63 1565.88 1334.8 1567.44 Q1332 1568.97 1328.05 1568.97 Q1321.59 1568.97 1317.51 1563.81 Q1313.47 1558.65 1313.47 1550.25 Q1313.47 1541.85 1317.51 1536.69 Q1321.59 1531.54 1328.05 1531.54 Q1332 1531.54 1334.8 1533.1 Q1337.63 1534.62 1339.48 1537.81 M1319.52 1550.25 Q1319.52 1556.71 1322.16 1560.4 Q1324.84 1564.07 1329.48 1564.07 Q1334.13 1564.07 1336.8 1560.4 Q1339.48 1556.71 1339.48 1550.25 Q1339.48 1543.79 1336.8 1540.13 Q1334.13 1536.44 1329.48 1536.44 Q1324.84 1536.44 1322.16 1540.13 Q1319.52 1543.79 1319.52 1550.25 Z" fill="#000000" fill-rule="nonzero" fill-opacity="1"></path><path clip-path="url(#clip530)" d="M1400.84 1533.45 L1400.84 1538.98 Q1398.36 1537.71 1395.69 1537.07 Q1393.01 1536.44 1390.15 1536.44 Q1385.79 1536.44 1383.59 1537.77 Q1381.43 1539.11 1381.43 1541.79 Q1381.43 1543.82 1382.99 1545 Q1384.55 1546.15 1389.26 1547.2 L1391.26 1547.64 Q1397.5 1548.98 1400.11 1551.43 Q1402.75 1553.85 1402.75 1558.21 Q1402.75 1563.17 1398.8 1566.07 Q1394.89 1568.97 1388.01 1568.97 Q1385.15 1568.97 1382.03 1568.39 Q1378.94 1567.85 1375.51 1566.74 L1375.51 1560.69 Q1378.75 1562.38 1381.9 1563.24 Q1385.05 1564.07 1388.14 1564.07 Q1392.28 1564.07 1394.51 1562.66 Q1396.74 1561.23 1396.74 1558.65 Q1396.74 1556.27 1395.11 1554.99 Q1393.52 1553.72 1388.08 1552.54 L1386.04 1552.07 Q1380.6 1550.92 1378.18 1548.56 Q1375.76 1546.18 1375.76 1542.04 Q1375.76 1537.01 1379.33 1534.27 Q1382.89 1531.54 1389.45 1531.54 Q1392.69 1531.54 1395.56 1532.01 Q1398.42 1532.49 1400.84 1533.45 Z" fill="#000000" fill-rule="nonzero" fill-opacity="1"></path><path clip-path="url(#clip530)" d="M1441.71 1546.53 L1441.71 1568.04 L1435.85 1568.04 L1435.85 1546.72 Q1435.85 1541.66 1433.88 1539.14 Q1431.91 1536.63 1427.96 1536.63 Q1423.22 1536.63 1420.48 1539.65 Q1417.74 1542.68 1417.74 1547.9 L1417.74 1568.04 L1411.85 1568.04 L1411.85 1518.52 L1417.74 1518.52 L1417.74 1537.93 Q1419.84 1534.72 1422.68 1533.13 Q1425.54 1531.54 1429.26 1531.54 Q1435.41 1531.54 1438.56 1535.36 Q1441.71 1539.14 1441.71 1546.53 Z" fill="#000000" fill-rule="nonzero" fill-opacity="1"></path><path clip-path="url(#clip530)" d="M1483.88 1548.76 L1483.88 1551.62 L1456.96 1551.62 Q1457.34 1557.67 1460.58 1560.85 Q1463.86 1564 1469.69 1564 Q1473.06 1564 1476.21 1563.17 Q1479.39 1562.35 1482.51 1560.69 L1482.51 1566.23 Q1479.36 1567.57 1476.05 1568.27 Q1472.74 1568.97 1469.34 1568.97 Q1460.81 1568.97 1455.81 1564 Q1450.84 1559.04 1450.84 1550.57 Q1450.84 1541.82 1455.55 1536.69 Q1460.3 1531.54 1468.32 1531.54 Q1475.51 1531.54 1479.68 1536.18 Q1483.88 1540.8 1483.88 1548.76 M1478.03 1547.04 Q1477.96 1542.23 1475.32 1539.37 Q1472.71 1536.5 1468.38 1536.5 Q1463.48 1536.5 1460.52 1539.27 Q1457.59 1542.04 1457.15 1547.07 L1478.03 1547.04 Z" fill="#000000" fill-rule="nonzero" fill-opacity="1"></path><path clip-path="url(#clip530)" d="M1516.95 1537.81 L1516.95 1518.52 L1522.81 1518.52 L1522.81 1568.04 L1516.95 1568.04 L1516.95 1562.7 Q1515.11 1565.88 1512.27 1567.44 Q1509.47 1568.97 1505.53 1568.97 Q1499.06 1568.97 1494.99 1563.81 Q1490.95 1558.65 1490.95 1550.25 Q1490.95 1541.85 1494.99 1536.69 Q1499.06 1531.54 1505.53 1531.54 Q1509.47 1531.54 1512.27 1533.1 Q1515.11 1534.62 1516.95 1537.81 M1497 1550.25 Q1497 1556.71 1499.64 1560.4 Q1502.31 1564.07 1506.96 1564.07 Q1511.61 1564.07 1514.28 1560.4 Q1516.95 1556.71 1516.95 1550.25 Q1516.95 1543.79 1514.28 1540.13 Q1511.61 1536.44 1506.96 1536.44 Q1502.31 1536.44 1499.64 1540.13 Q1497 1543.79 1497 1550.25 Z" fill="#000000" fill-rule="nonzero" fill-opacity="1"></path><polyline clip-path="url(#clip532)" style="stroke:#000000; stroke-linecap:round; stroke-linejoin:round; stroke-width:2; stroke-opacity:0.1; fill:none" points="219.38,1386.4 2352.76,1386.4 "></polyline>
<polyline clip-path="url(#clip532)" style="stroke:#000000; stroke-linecap:round; stroke-linejoin:round; stroke-width:2; stroke-opacity:0.1; fill:none" points="219.38,1059.43 2352.76,1059.43 "></polyline>
<polyline clip-path="url(#clip532)" style="stroke:#000000; stroke-linecap:round; stroke-linejoin:round; stroke-width:2; stroke-opacity:0.1; fill:none" points="219.38,732.455 2352.76,732.455 "></polyline>
<polyline clip-path="url(#clip532)" style="stroke:#000000; stroke-linecap:round; stroke-linejoin:round; stroke-width:2; stroke-opacity:0.1; fill:none" points="219.38,405.484 2352.76,405.484 "></polyline>
<polyline clip-path="url(#clip530)" style="stroke:#000000; stroke-linecap:round; stroke-linejoin:round; stroke-width:4; stroke-opacity:1; fill:none" points="219.38,1423.18 219.38,123.472 "></polyline>
<polyline clip-path="url(#clip530)" style="stroke:#000000; stroke-linecap:round; stroke-linejoin:round; stroke-width:4; stroke-opacity:1; fill:none" points="219.38,1386.4 238.278,1386.4 "></polyline>
<polyline clip-path="url(#clip530)" style="stroke:#000000; stroke-linecap:round; stroke-linejoin:round; stroke-width:4; stroke-opacity:1; fill:none" points="219.38,1059.43 238.278,1059.43 "></polyline>
<polyline clip-path="url(#clip530)" style="stroke:#000000; stroke-linecap:round; stroke-linejoin:round; stroke-width:4; stroke-opacity:1; fill:none" points="219.38,732.455 238.278,732.455 "></polyline>
<polyline clip-path="url(#clip530)" style="stroke:#000000; stroke-linecap:round; stroke-linejoin:round; stroke-width:4; stroke-opacity:1; fill:none" points="219.38,405.484 238.278,405.484 "></polyline>
<path clip-path="url(#clip530)" d="M126.205 1372.19 Q122.593 1372.19 120.765 1375.76 Q118.959 1379.3 118.959 1386.43 Q118.959 1393.54 120.765 1397.1 Q122.593 1400.64 126.205 1400.64 Q129.839 1400.64 131.644 1397.1 Q133.473 1393.54 133.473 1386.43 Q133.473 1379.3 131.644 1375.76 Q129.839 1372.19 126.205 1372.19 M126.205 1368.49 Q132.015 1368.49 135.07 1373.1 Q138.149 1377.68 138.149 1386.43 Q138.149 1395.16 135.07 1399.76 Q132.015 1404.35 126.205 1404.35 Q120.394 1404.35 117.316 1399.76 Q114.26 1395.16 114.26 1386.43 Q114.26 1377.68 117.316 1373.1 Q120.394 1368.49 126.205 1368.49 Z" fill="#000000" fill-rule="nonzero" fill-opacity="1"></path><path clip-path="url(#clip530)" d="M146.366 1397.8 L151.251 1397.8 L151.251 1403.68 L146.366 1403.68 L146.366 1397.8 Z" fill="#000000" fill-rule="nonzero" fill-opacity="1"></path><path clip-path="url(#clip530)" d="M171.436 1372.19 Q167.825 1372.19 165.996 1375.76 Q164.19 1379.3 164.19 1386.43 Q164.19 1393.54 165.996 1397.1 Q167.825 1400.64 171.436 1400.64 Q175.07 1400.64 176.876 1397.1 Q178.704 1393.54 178.704 1386.43 Q178.704 1379.3 176.876 1375.76 Q175.07 1372.19 171.436 1372.19 M171.436 1368.49 Q177.246 1368.49 180.301 1373.1 Q183.38 1377.68 183.38 1386.43 Q183.38 1395.16 180.301 1399.76 Q177.246 1404.35 171.436 1404.35 Q165.626 1404.35 162.547 1399.76 Q159.491 1395.16 159.491 1386.43 Q159.491 1377.68 162.547 1373.1 Q165.626 1368.49 171.436 1368.49 Z" fill="#000000" fill-rule="nonzero" fill-opacity="1"></path><path clip-path="url(#clip530)" d="M127.431 1045.22 Q123.82 1045.22 121.992 1048.79 Q120.186 1052.33 120.186 1059.46 Q120.186 1066.57 121.992 1070.13 Q123.82 1073.67 127.431 1073.67 Q131.066 1073.67 132.871 1070.13 Q134.7 1066.57 134.7 1059.46 Q134.7 1052.33 132.871 1048.79 Q131.066 1045.22 127.431 1045.22 M127.431 1041.52 Q133.242 1041.52 136.297 1046.13 Q139.376 1050.71 139.376 1059.46 Q139.376 1068.19 136.297 1072.79 Q133.242 1077.38 127.431 1077.38 Q121.621 1077.38 118.543 1072.79 Q115.487 1068.19 115.487 1059.46 Q115.487 1050.71 118.543 1046.13 Q121.621 1041.52 127.431 1041.52 Z" fill="#000000" fill-rule="nonzero" fill-opacity="1"></path><path clip-path="url(#clip530)" d="M147.593 1070.83 L152.478 1070.83 L152.478 1076.71 L147.593 1076.71 L147.593 1070.83 Z" fill="#000000" fill-rule="nonzero" fill-opacity="1"></path><path clip-path="url(#clip530)" d="M163.473 1072.77 L171.112 1072.77 L171.112 1046.4 L162.802 1048.07 L162.802 1043.81 L171.065 1042.15 L175.741 1042.15 L175.741 1072.77 L183.38 1072.77 L183.38 1076.71 L163.473 1076.71 L163.473 1072.77 Z" fill="#000000" fill-rule="nonzero" fill-opacity="1"></path><path clip-path="url(#clip530)" d="M127.802 718.253 Q124.191 718.253 122.362 721.818 Q120.556 725.36 120.556 732.489 Q120.556 739.596 122.362 743.161 Q124.191 746.702 127.802 746.702 Q131.436 746.702 133.242 743.161 Q135.07 739.596 135.07 732.489 Q135.07 725.36 133.242 721.818 Q131.436 718.253 127.802 718.253 M127.802 714.55 Q133.612 714.55 136.667 719.156 Q139.746 723.739 139.746 732.489 Q139.746 741.216 136.667 745.823 Q133.612 750.406 127.802 750.406 Q121.992 750.406 118.913 745.823 Q115.857 741.216 115.857 732.489 Q115.857 723.739 118.913 719.156 Q121.992 714.55 127.802 714.55 Z" fill="#000000" fill-rule="nonzero" fill-opacity="1"></path><path clip-path="url(#clip530)" d="M147.964 743.855 L152.848 743.855 L152.848 749.735 L147.964 749.735 L147.964 743.855 Z" fill="#000000" fill-rule="nonzero" fill-opacity="1"></path><path clip-path="url(#clip530)" d="M167.061 745.8 L183.38 745.8 L183.38 749.735 L161.436 749.735 L161.436 745.8 Q164.098 743.045 168.681 738.415 Q173.288 733.763 174.468 732.42 Q176.714 729.897 177.593 728.161 Q178.496 726.401 178.496 724.712 Q178.496 721.957 176.551 720.221 Q174.63 718.485 171.528 718.485 Q169.329 718.485 166.876 719.249 Q164.445 720.013 161.667 721.564 L161.667 716.841 Q164.491 715.707 166.945 715.128 Q169.399 714.55 171.436 714.55 Q176.806 714.55 180.001 717.235 Q183.195 719.92 183.195 724.411 Q183.195 726.54 182.385 728.462 Q181.598 730.36 179.491 732.952 Q178.913 733.624 175.811 736.841 Q172.709 740.036 167.061 745.8 Z" fill="#000000" fill-rule="nonzero" fill-opacity="1"></path><path clip-path="url(#clip530)" d="M126.853 391.283 Q123.242 391.283 121.413 394.848 Q119.607 398.389 119.607 405.519 Q119.607 412.625 121.413 416.19 Q123.242 419.732 126.853 419.732 Q130.487 419.732 132.292 416.19 Q134.121 412.625 134.121 405.519 Q134.121 398.389 132.292 394.848 Q130.487 391.283 126.853 391.283 M126.853 387.579 Q132.663 387.579 135.718 392.186 Q138.797 396.769 138.797 405.519 Q138.797 414.246 135.718 418.852 Q132.663 423.435 126.853 423.435 Q121.043 423.435 117.964 418.852 Q114.908 414.246 114.908 405.519 Q114.908 396.769 117.964 392.186 Q121.043 387.579 126.853 387.579 Z" fill="#000000" fill-rule="nonzero" fill-opacity="1"></path><path clip-path="url(#clip530)" d="M147.015 416.885 L151.899 416.885 L151.899 422.764 L147.015 422.764 L147.015 416.885 Z" fill="#000000" fill-rule="nonzero" fill-opacity="1"></path><path clip-path="url(#clip530)" d="M176.251 404.13 Q179.607 404.848 181.482 407.116 Q183.38 409.385 183.38 412.718 Q183.38 417.834 179.862 420.635 Q176.343 423.435 169.862 423.435 Q167.686 423.435 165.371 422.996 Q163.079 422.579 160.626 421.723 L160.626 417.209 Q162.57 418.343 164.885 418.922 Q167.2 419.5 169.723 419.5 Q174.121 419.5 176.413 417.764 Q178.727 416.028 178.727 412.718 Q178.727 409.662 176.575 407.949 Q174.445 406.213 170.626 406.213 L166.598 406.213 L166.598 402.371 L170.811 402.371 Q174.26 402.371 176.089 401.005 Q177.917 399.616 177.917 397.024 Q177.917 394.362 176.019 392.95 Q174.144 391.514 170.626 391.514 Q168.704 391.514 166.505 391.931 Q164.306 392.348 161.667 393.227 L161.667 389.061 Q164.329 388.32 166.644 387.95 Q168.982 387.579 171.042 387.579 Q176.366 387.579 179.468 390.01 Q182.57 392.417 182.57 396.537 Q182.57 399.408 180.926 401.399 Q179.283 403.366 176.251 404.13 Z" fill="#000000" fill-rule="nonzero" fill-opacity="1"></path><path clip-path="url(#clip530)" d="M16.4842 1052.05 L16.4842 1011.85 L21.895 1011.85 L21.895 1028.72 L64.0042 1028.72 L64.0042 1035.18 L21.895 1035.18 L21.895 1052.05 L16.4842 1052.05 Z" fill="#000000" fill-rule="nonzero" fill-opacity="1"></path><path clip-path="url(#clip530)" d="M32.4621 1003.16 Q32.4621 1007.87 36.1542 1010.61 Q39.8145 1013.34 46.212 1013.34 Q52.6095 1013.34 56.3017 1010.64 Q59.9619 1007.9 59.9619 1003.16 Q59.9619 998.481 56.2698 995.744 Q52.5777 993.007 46.212 993.007 Q39.8781 993.007 36.186 995.744 Q32.4621 998.481 32.4621 1003.16 M27.4968 1003.16 Q27.4968 995.521 32.4621 991.16 Q37.4273 986.8 46.212 986.8 Q54.9649 986.8 59.9619 991.16 Q64.9272 995.521 64.9272 1003.16 Q64.9272 1010.83 59.9619 1015.19 Q54.9649 1019.52 46.212 1019.52 Q37.4273 1019.52 32.4621 1015.19 Q27.4968 1010.83 27.4968 1003.16 Z" fill="#000000" fill-rule="nonzero" fill-opacity="1"></path><path clip-path="url(#clip530)" d="M18.2347 971.299 L28.3562 971.299 L28.3562 959.236 L32.9077 959.236 L32.9077 971.299 L52.2594 971.299 Q56.6199 971.299 57.8613 970.122 Q59.1026 968.912 59.1026 965.252 L59.1026 959.236 L64.0042 959.236 L64.0042 965.252 Q64.0042 972.032 61.4897 974.61 Q58.9434 977.188 52.2594 977.188 L32.9077 977.188 L32.9077 981.485 L28.3562 981.485 L28.3562 977.188 L18.2347 977.188 L18.2347 971.299 Z" fill="#000000" fill-rule="nonzero" fill-opacity="1"></path><path clip-path="url(#clip530)" d="M46.0847 935.333 Q46.0847 942.431 47.7079 945.168 Q49.3312 947.905 53.2461 947.905 Q56.3653 947.905 58.2114 945.868 Q60.0256 943.8 60.0256 940.267 Q60.0256 935.397 56.5881 932.469 Q53.1188 929.509 47.3897 929.509 L46.0847 929.509 L46.0847 935.333 M43.6657 923.652 L64.0042 923.652 L64.0042 929.509 L58.5933 929.509 Q61.8398 931.514 63.3994 934.506 Q64.9272 937.498 64.9272 941.826 Q64.9272 947.301 61.8716 950.547 Q58.7843 953.762 53.6281 953.762 Q47.6125 953.762 44.5569 949.752 Q41.5014 945.709 41.5014 937.72 L41.5014 929.509 L40.9285 929.509 Q36.8862 929.509 34.6901 932.182 Q32.4621 934.824 32.4621 939.63 Q32.4621 942.686 33.1941 945.582 Q33.9262 948.478 35.3903 951.152 L29.9795 951.152 Q28.7381 947.937 28.1334 944.914 Q27.4968 941.89 27.4968 939.025 Q27.4968 931.291 31.5072 927.472 Q35.5176 923.652 43.6657 923.652 Z" fill="#000000" fill-rule="nonzero" fill-opacity="1"></path><path clip-path="url(#clip530)" d="M14.479 911.589 L14.479 905.733 L64.0042 905.733 L64.0042 911.589 L14.479 911.589 Z" fill="#000000" fill-rule="nonzero" fill-opacity="1"></path><path clip-path="url(#clip530)" d="M16.4842 876.737 L16.4842 870.244 L56.6518 860.25 L16.4842 850.287 L16.4842 843.062 L56.6518 833.068 L16.4842 823.106 L16.4842 816.581 L64.0042 828.517 L64.0042 836.601 L22.7544 846.627 L64.0042 856.749 L64.0042 864.833 L16.4842 876.737 Z" fill="#000000" fill-rule="nonzero" fill-opacity="1"></path><path clip-path="url(#clip530)" d="M28.3562 809.738 L28.3562 803.881 L64.0042 803.881 L64.0042 809.738 L28.3562 809.738 M14.479 809.738 L14.479 803.881 L21.895 803.881 L21.895 809.738 L14.479 809.738 Z" fill="#000000" fill-rule="nonzero" fill-opacity="1"></path><path clip-path="url(#clip530)" d="M14.479 791.627 L14.479 785.771 L64.0042 785.771 L64.0042 791.627 L14.479 791.627 Z" fill="#000000" fill-rule="nonzero" fill-opacity="1"></path><path clip-path="url(#clip530)" d="M33.7671 750.059 L14.479 750.059 L14.479 744.203 L64.0042 744.203 L64.0042 750.059 L58.657 750.059 Q61.8398 751.905 63.3994 754.738 Q64.9272 757.539 64.9272 761.486 Q64.9272 767.947 59.771 772.021 Q54.6147 776.063 46.212 776.063 Q37.8093 776.063 32.6531 772.021 Q27.4968 767.947 27.4968 761.486 Q27.4968 757.539 29.0564 754.738 Q30.5842 751.905 33.7671 750.059 M46.212 770.016 Q52.6732 770.016 56.3653 767.374 Q60.0256 764.7 60.0256 760.053 Q60.0256 755.407 56.3653 752.733 Q52.6732 750.059 46.212 750.059 Q39.7508 750.059 36.0905 752.733 Q32.3984 755.407 32.3984 760.053 Q32.3984 764.7 36.0905 767.374 Q39.7508 770.016 46.212 770.016 Z" fill="#000000" fill-rule="nonzero" fill-opacity="1"></path><path clip-path="url(#clip530)" d="M14.479 714.093 L19.3487 714.093 L19.3487 719.695 Q19.3487 722.846 20.6219 724.087 Q21.895 725.297 25.2052 725.297 L28.3562 725.297 L28.3562 715.653 L32.9077 715.653 L32.9077 725.297 L64.0042 725.297 L64.0042 731.185 L32.9077 731.185 L32.9077 736.787 L28.3562 736.787 L28.3562 731.185 L25.8736 731.185 Q19.9216 731.185 17.2162 728.416 Q14.479 725.647 14.479 719.631 L14.479 714.093 Z" fill="#000000" fill-rule="nonzero" fill-opacity="1"></path><path clip-path="url(#clip530)" d="M28.3562 709.191 L28.3562 703.335 L64.0042 703.335 L64.0042 709.191 L28.3562 709.191 M14.479 709.191 L14.479 703.335 L21.895 703.335 L21.895 709.191 L14.479 709.191 Z" fill="#000000" fill-rule="nonzero" fill-opacity="1"></path><path clip-path="url(#clip530)" d="M33.8307 670.424 Q33.2578 671.411 33.0032 672.589 Q32.7167 673.735 32.7167 675.135 Q32.7167 680.1 35.9632 682.774 Q39.1779 685.416 45.2253 685.416 L64.0042 685.416 L64.0042 691.304 L28.3562 691.304 L28.3562 685.416 L33.8944 685.416 Q30.6479 683.57 29.0883 680.609 Q27.4968 677.649 27.4968 673.416 Q27.4968 672.811 27.5923 672.079 Q27.656 671.347 27.8151 670.456 L33.8307 670.424 Z" fill="#000000" fill-rule="nonzero" fill-opacity="1"></path><path clip-path="url(#clip530)" d="M44.7161 635.222 L47.5806 635.222 L47.5806 662.149 Q53.6281 661.767 56.8109 658.52 Q59.9619 655.242 59.9619 649.418 Q59.9619 646.044 59.1344 642.893 Q58.3069 639.71 56.6518 636.591 L62.1899 636.591 Q63.5267 639.742 64.227 643.052 Q64.9272 646.362 64.9272 649.768 Q64.9272 658.298 59.9619 663.295 Q54.9967 668.26 46.5303 668.26 Q37.7774 668.26 32.6531 663.549 Q27.4968 658.807 27.4968 650.786 Q27.4968 643.593 32.1438 639.423 Q36.7589 635.222 44.7161 635.222 M42.9973 641.078 Q38.1912 641.142 35.3266 643.784 Q32.4621 646.394 32.4621 650.722 Q32.4621 655.624 35.2312 658.584 Q38.0002 661.512 43.0292 661.958 L42.9973 641.078 Z" fill="#000000" fill-rule="nonzero" fill-opacity="1"></path><path clip-path="url(#clip530)" d="M33.8307 584.233 Q33.2578 585.219 33.0032 586.397 Q32.7167 587.543 32.7167 588.943 Q32.7167 593.909 35.9632 596.582 Q39.1779 599.224 45.2253 599.224 L64.0042 599.224 L64.0042 605.112 L28.3562 605.112 L28.3562 599.224 L33.8944 599.224 Q30.6479 597.378 29.0883 594.418 Q27.4968 591.458 27.4968 587.225 Q27.4968 586.62 27.5923 585.888 Q27.656 585.156 27.8151 584.264 L33.8307 584.233 Z" fill="#000000" fill-rule="nonzero" fill-opacity="1"></path><path clip-path="url(#clip530)" d="M28.3562 578.09 L28.3562 572.233 L64.0042 572.233 L64.0042 578.09 L28.3562 578.09 M14.479 578.09 L14.479 572.233 L21.895 572.233 L21.895 578.09 L14.479 578.09 Z" fill="#000000" fill-rule="nonzero" fill-opacity="1"></path><path clip-path="url(#clip530)" d="M29.4065 537.254 L34.9447 537.254 Q33.6716 539.736 33.035 542.41 Q32.3984 545.084 32.3984 547.948 Q32.3984 552.309 33.7352 554.505 Q35.072 556.669 37.7456 556.669 Q39.7826 556.669 40.9603 555.11 Q42.1061 553.55 43.1565 548.839 L43.6021 546.834 Q44.9389 540.596 47.3897 537.986 Q49.8086 535.344 54.1691 535.344 Q59.1344 535.344 62.0308 539.291 Q64.9272 543.206 64.9272 550.081 Q64.9272 552.945 64.3543 556.064 Q63.8132 559.152 62.6992 562.589 L56.6518 562.589 Q58.3387 559.343 59.198 556.192 Q60.0256 553.041 60.0256 549.953 Q60.0256 545.816 58.6251 543.588 Q57.1929 541.36 54.6147 541.36 Q52.2276 541.36 50.9545 542.983 Q49.6813 544.574 48.5037 550.017 L48.0262 552.054 Q46.8804 557.497 44.5251 559.916 Q42.138 562.335 38.0002 562.335 Q32.9713 562.335 30.2341 558.77 Q27.4968 555.205 27.4968 548.648 Q27.4968 545.402 27.9743 542.537 Q28.4517 539.673 29.4065 537.254 Z" fill="#000000" fill-rule="nonzero" fill-opacity="1"></path><path clip-path="url(#clip530)" d="M14.479 526.241 L14.479 520.353 L43.7294 520.353 L28.3562 502.879 L28.3562 495.399 L45.0344 514.305 L64.0042 494.604 L64.0042 502.242 L46.5939 520.353 L64.0042 520.353 L64.0042 526.241 L14.479 526.241 Z" fill="#000000" fill-rule="nonzero" fill-opacity="1"></path><path clip-path="url(#clip530)" d="M412.916 12.096 L464.079 12.096 L464.079 18.9825 L442.609 18.9825 L442.609 72.576 L434.386 72.576 L434.386 18.9825 L412.916 18.9825 L412.916 12.096 Z" fill="#000000" fill-rule="nonzero" fill-opacity="1"></path><path clip-path="url(#clip530)" d="M475.138 32.4315 Q469.142 32.4315 465.659 37.1306 Q462.175 41.7891 462.175 49.9314 Q462.175 58.0738 465.618 62.7728 Q469.102 67.4314 475.138 67.4314 Q481.093 67.4314 484.576 62.7323 Q488.06 58.0333 488.06 49.9314 Q488.06 41.8701 484.576 37.1711 Q481.093 32.4315 475.138 32.4315 M475.138 26.1121 Q484.86 26.1121 490.41 32.4315 Q495.959 38.7509 495.959 49.9314 Q495.959 61.0714 490.41 67.4314 Q484.86 73.7508 475.138 73.7508 Q465.375 73.7508 459.825 67.4314 Q454.316 61.0714 454.316 49.9314 Q454.316 38.7509 459.825 32.4315 Q465.375 26.1121 475.138 26.1121 Z" fill="#000000" fill-rule="nonzero" fill-opacity="1"></path><path clip-path="url(#clip530)" d="M515.687 14.324 L515.687 27.2059 L531.04 27.2059 L531.04 32.9987 L515.687 32.9987 L515.687 57.6282 Q515.687 63.1779 517.186 64.7578 Q518.725 66.3376 523.384 66.3376 L531.04 66.3376 L531.04 72.576 L523.384 72.576 Q514.756 72.576 511.474 69.3758 Q508.193 66.1351 508.193 57.6282 L508.193 32.9987 L502.724 32.9987 L502.724 27.2059 L508.193 27.2059 L508.193 14.324 L515.687 14.324 Z" fill="#000000" fill-rule="nonzero" fill-opacity="1"></path><path clip-path="url(#clip530)" d="M561.463 49.7694 Q552.429 49.7694 548.945 51.8354 Q545.461 53.9013 545.461 58.8839 Q545.461 62.8538 548.054 65.2034 Q550.687 67.5124 555.184 67.5124 Q561.382 67.5124 565.108 63.1374 Q568.876 58.7219 568.876 51.4303 L568.876 49.7694 L561.463 49.7694 M576.329 46.6907 L576.329 72.576 L568.876 72.576 L568.876 65.6895 Q566.324 69.8214 562.516 71.8063 Q558.708 73.7508 553.199 73.7508 Q546.231 73.7508 542.099 69.8619 Q538.008 65.9325 538.008 59.3701 Q538.008 51.7138 543.112 47.825 Q548.257 43.9361 558.424 43.9361 L568.876 43.9361 L568.876 43.2069 Q568.876 38.0623 565.473 35.2672 Q562.111 32.4315 555.994 32.4315 Q552.105 32.4315 548.419 33.3632 Q544.732 34.295 541.33 36.1584 L541.33 29.2718 Q545.421 27.692 549.269 26.9223 Q553.118 26.1121 556.763 26.1121 Q566.607 26.1121 571.468 31.2163 Q576.329 36.3204 576.329 46.6907 Z" fill="#000000" fill-rule="nonzero" fill-opacity="1"></path><path clip-path="url(#clip530)" d="M591.682 9.54393 L599.136 9.54393 L599.136 72.576 L591.682 72.576 L591.682 9.54393 Z" fill="#000000" fill-rule="nonzero" fill-opacity="1"></path><path clip-path="url(#clip530)" d="M670.108 44.2197 Q672.741 45.1109 675.212 48.0275 Q677.723 50.9442 680.235 56.0483 L688.539 72.576 L679.749 72.576 L672.012 57.061 Q669.014 50.9847 666.178 48.9997 Q663.383 47.0148 658.522 47.0148 L649.61 47.0148 L649.61 72.576 L641.427 72.576 L641.427 12.096 L659.9 12.096 Q670.27 12.096 675.374 16.4305 Q680.478 20.7649 680.478 29.5149 Q680.478 35.2267 677.805 38.994 Q675.171 42.7613 670.108 44.2197 M649.61 18.8205 L649.61 40.2903 L659.9 40.2903 Q665.814 40.2903 668.812 37.5762 Q671.85 34.8216 671.85 29.5149 Q671.85 24.2082 668.812 21.5346 Q665.814 18.8205 659.9 18.8205 L649.61 18.8205 Z" fill="#000000" fill-rule="nonzero" fill-opacity="1"></path><path clip-path="url(#clip530)" d="M698.748 27.2059 L706.201 27.2059 L706.201 72.576 L698.748 72.576 L698.748 27.2059 M698.748 9.54393 L706.201 9.54393 L706.201 18.9825 L698.748 18.9825 L698.748 9.54393 Z" fill="#000000" fill-rule="nonzero" fill-opacity="1"></path><path clip-path="url(#clip530)" d="M750.721 28.5427 L750.721 35.5912 Q747.561 33.9709 744.158 33.1607 Q740.756 32.3505 737.11 32.3505 Q731.56 32.3505 728.765 34.0519 Q726.01 35.7533 726.01 39.156 Q726.01 41.7486 727.995 43.2475 Q729.98 44.7058 735.975 46.0426 L738.528 46.6097 Q746.467 48.3111 749.789 51.4303 Q753.151 54.509 753.151 60.0587 Q753.151 66.3781 748.128 70.0644 Q743.146 73.7508 734.396 73.7508 Q730.75 73.7508 726.78 73.0216 Q722.851 72.3329 718.476 70.9151 L718.476 63.2184 Q722.608 65.3654 726.618 66.4591 Q730.628 67.5124 734.558 67.5124 Q739.824 67.5124 742.659 65.73 Q745.495 63.9071 745.495 60.6258 Q745.495 57.5877 743.429 55.9673 Q741.404 54.3469 734.477 52.8481 L731.884 52.2405 Q724.957 50.7821 721.878 47.7845 Q718.8 44.7463 718.8 39.4801 Q718.8 33.0797 723.337 29.5959 Q727.874 26.1121 736.219 26.1121 Q740.35 26.1121 743.996 26.7198 Q747.642 27.3274 750.721 28.5427 Z" fill="#000000" fill-rule="nonzero" fill-opacity="1"></path><path clip-path="url(#clip530)" d="M764.737 9.54393 L772.231 9.54393 L772.231 46.7717 L794.471 27.2059 L803.99 27.2059 L779.928 48.4326 L805.003 72.576 L795.281 72.576 L772.231 50.4176 L772.231 72.576 L764.737 72.576 L764.737 9.54393 Z" fill="#000000" fill-rule="nonzero" fill-opacity="1"></path><path clip-path="url(#clip530)" d="M855.356 72.576 L832.265 12.096 L840.813 12.096 L859.974 63.0159 L879.175 12.096 L887.682 12.096 L864.632 72.576 L855.356 72.576 Z" fill="#000000" fill-rule="nonzero" fill-opacity="1"></path><path clip-path="url(#clip530)" d="M932.768 14.0809 L932.768 22.0612 Q928.11 19.8332 923.978 18.7395 Q919.846 17.6457 915.998 17.6457 Q909.314 17.6457 905.668 20.2383 Q902.063 22.8309 902.063 27.611 Q902.063 31.6214 904.453 33.6873 Q906.883 35.7128 913.608 36.9686 L918.55 37.9813 Q927.705 39.7232 932.039 44.1387 Q936.414 48.5136 936.414 55.8863 Q936.414 64.6767 930.5 69.2137 Q924.626 73.7508 913.243 73.7508 Q908.949 73.7508 904.088 72.7785 Q899.267 71.8063 894.082 69.9024 L894.082 61.4765 Q899.065 64.2716 903.845 65.6895 Q908.625 67.1073 913.243 67.1073 Q920.251 67.1073 924.059 64.3527 Q927.867 61.598 927.867 56.4939 Q927.867 52.0379 925.112 49.5264 Q922.398 47.0148 916.16 45.759 L911.177 44.7868 Q902.022 42.9639 897.931 39.075 Q893.839 35.1862 893.839 28.2591 Q893.839 20.2383 899.47 15.6203 Q905.141 11.0023 915.066 11.0023 Q919.319 11.0023 923.735 11.7719 Q928.15 12.5416 932.768 14.0809 Z" fill="#000000" fill-rule="nonzero" fill-opacity="1"></path><path clip-path="url(#clip530)" d="M967.161 12.096 L1018.32 12.096 L1018.32 18.9825 L996.854 18.9825 L996.854 72.576 L988.63 72.576 L988.63 18.9825 L967.161 18.9825 L967.161 12.096 Z" fill="#000000" fill-rule="nonzero" fill-opacity="1"></path><path clip-path="url(#clip530)" d="M1029.38 32.4315 Q1023.39 32.4315 1019.9 37.1306 Q1016.42 41.7891 1016.42 49.9314 Q1016.42 58.0738 1019.86 62.7728 Q1023.35 67.4314 1029.38 67.4314 Q1035.34 67.4314 1038.82 62.7323 Q1042.3 58.0333 1042.3 49.9314 Q1042.3 41.8701 1038.82 37.1711 Q1035.34 32.4315 1029.38 32.4315 M1029.38 26.1121 Q1039.1 26.1121 1044.65 32.4315 Q1050.2 38.7509 1050.2 49.9314 Q1050.2 61.0714 1044.65 67.4314 Q1039.1 73.7508 1029.38 73.7508 Q1019.62 73.7508 1014.07 67.4314 Q1008.56 61.0714 1008.56 49.9314 Q1008.56 38.7509 1014.07 32.4315 Q1019.62 26.1121 1029.38 26.1121 Z" fill="#000000" fill-rule="nonzero" fill-opacity="1"></path><path clip-path="url(#clip530)" d="M1069.93 14.324 L1069.93 27.2059 L1085.28 27.2059 L1085.28 32.9987 L1069.93 32.9987 L1069.93 57.6282 Q1069.93 63.1779 1071.43 64.7578 Q1072.97 66.3376 1077.63 66.3376 L1085.28 66.3376 L1085.28 72.576 L1077.63 72.576 Q1069 72.576 1065.72 69.3758 Q1062.44 66.1351 1062.44 57.6282 L1062.44 32.9987 L1056.97 32.9987 L1056.97 27.2059 L1062.44 27.2059 L1062.44 14.324 L1069.93 14.324 Z" fill="#000000" fill-rule="nonzero" fill-opacity="1"></path><path clip-path="url(#clip530)" d="M1115.71 49.7694 Q1106.67 49.7694 1103.19 51.8354 Q1099.71 53.9013 1099.71 58.8839 Q1099.71 62.8538 1102.3 65.2034 Q1104.93 67.5124 1109.43 67.5124 Q1115.63 67.5124 1119.35 63.1374 Q1123.12 58.7219 1123.12 51.4303 L1123.12 49.7694 L1115.71 49.7694 M1130.57 46.6907 L1130.57 72.576 L1123.12 72.576 L1123.12 65.6895 Q1120.57 69.8214 1116.76 71.8063 Q1112.95 73.7508 1107.44 73.7508 Q1100.48 73.7508 1096.34 69.8619 Q1092.25 65.9325 1092.25 59.3701 Q1092.25 51.7138 1097.36 47.825 Q1102.5 43.9361 1112.67 43.9361 L1123.12 43.9361 L1123.12 43.2069 Q1123.12 38.0623 1119.72 35.2672 Q1116.36 32.4315 1110.24 32.4315 Q1106.35 32.4315 1102.66 33.3632 Q1098.98 34.295 1095.57 36.1584 L1095.57 29.2718 Q1099.67 27.692 1103.51 26.9223 Q1107.36 26.1121 1111.01 26.1121 Q1120.85 26.1121 1125.71 31.2163 Q1130.57 36.3204 1130.57 46.6907 Z" fill="#000000" fill-rule="nonzero" fill-opacity="1"></path><path clip-path="url(#clip530)" d="M1145.93 9.54393 L1153.38 9.54393 L1153.38 72.576 L1145.93 72.576 L1145.93 9.54393 Z" fill="#000000" fill-rule="nonzero" fill-opacity="1"></path><path clip-path="url(#clip530)" d="M1195.67 12.096 L1203.85 12.096 L1203.85 65.6895 L1233.31 65.6895 L1233.31 72.576 L1195.67 72.576 L1195.67 12.096 Z" fill="#000000" fill-rule="nonzero" fill-opacity="1"></path><path clip-path="url(#clip530)" d="M1257.69 32.4315 Q1251.7 32.4315 1248.21 37.1306 Q1244.73 41.7891 1244.73 49.9314 Q1244.73 58.0738 1248.17 62.7728 Q1251.66 67.4314 1257.69 67.4314 Q1263.65 67.4314 1267.13 62.7323 Q1270.61 58.0333 1270.61 49.9314 Q1270.61 41.8701 1267.13 37.1711 Q1263.65 32.4315 1257.69 32.4315 M1257.69 26.1121 Q1267.41 26.1121 1272.96 32.4315 Q1278.51 38.7509 1278.51 49.9314 Q1278.51 61.0714 1272.96 67.4314 Q1267.41 73.7508 1257.69 73.7508 Q1247.93 73.7508 1242.38 67.4314 Q1236.87 61.0714 1236.87 49.9314 Q1236.87 38.7509 1242.38 32.4315 Q1247.93 26.1121 1257.69 26.1121 Z" fill="#000000" fill-rule="nonzero" fill-opacity="1"></path><path clip-path="url(#clip530)" d="M1311.49 49.7694 Q1302.45 49.7694 1298.97 51.8354 Q1295.49 53.9013 1295.49 58.8839 Q1295.49 62.8538 1298.08 65.2034 Q1300.71 67.5124 1305.21 67.5124 Q1311.41 67.5124 1315.13 63.1374 Q1318.9 58.7219 1318.9 51.4303 L1318.9 49.7694 L1311.49 49.7694 M1326.35 46.6907 L1326.35 72.576 L1318.9 72.576 L1318.9 65.6895 Q1316.35 69.8214 1312.54 71.8063 Q1308.73 73.7508 1303.22 73.7508 Q1296.26 73.7508 1292.12 69.8619 Q1288.03 65.9325 1288.03 59.3701 Q1288.03 51.7138 1293.14 47.825 Q1298.28 43.9361 1308.45 43.9361 L1318.9 43.9361 L1318.9 43.2069 Q1318.9 38.0623 1315.5 35.2672 Q1312.14 32.4315 1306.02 32.4315 Q1302.13 32.4315 1298.44 33.3632 Q1294.76 34.295 1291.35 36.1584 L1291.35 29.2718 Q1295.45 27.692 1299.29 26.9223 Q1303.14 26.1121 1306.79 26.1121 Q1316.63 26.1121 1321.49 31.2163 Q1326.35 36.3204 1326.35 46.6907 Z" fill="#000000" fill-rule="nonzero" fill-opacity="1"></path><path clip-path="url(#clip530)" d="M1371.56 34.0924 L1371.56 9.54393 L1379.02 9.54393 L1379.02 72.576 L1371.56 72.576 L1371.56 65.7705 Q1369.21 69.8214 1365.61 71.8063 Q1362.04 73.7508 1357.02 73.7508 Q1348.8 73.7508 1343.61 67.1883 Q1338.47 60.6258 1338.47 49.9314 Q1338.47 39.2371 1343.61 32.6746 Q1348.8 26.1121 1357.02 26.1121 Q1362.04 26.1121 1365.61 28.0971 Q1369.21 30.0415 1371.56 34.0924 M1346.16 49.9314 Q1346.16 58.1548 1349.53 62.8538 Q1352.93 67.5124 1358.84 67.5124 Q1364.76 67.5124 1368.16 62.8538 Q1371.56 58.1548 1371.56 49.9314 Q1371.56 41.7081 1368.16 37.0496 Q1364.76 32.3505 1358.84 32.3505 Q1352.93 32.3505 1349.53 37.0496 Q1346.16 41.7081 1346.16 49.9314 Z" fill="#000000" fill-rule="nonzero" fill-opacity="1"></path><path clip-path="url(#clip530)" d="M1457.32 14.0809 L1457.32 22.0612 Q1452.66 19.8332 1448.53 18.7395 Q1444.4 17.6457 1440.55 17.6457 Q1433.87 17.6457 1430.22 20.2383 Q1426.61 22.8309 1426.61 27.611 Q1426.61 31.6214 1429 33.6873 Q1431.43 35.7128 1438.16 36.9686 L1443.1 37.9813 Q1452.26 39.7232 1456.59 44.1387 Q1460.97 48.5136 1460.97 55.8863 Q1460.97 64.6767 1455.05 69.2137 Q1449.18 73.7508 1437.79 73.7508 Q1433.5 73.7508 1428.64 72.7785 Q1423.82 71.8063 1418.63 69.9024 L1418.63 61.4765 Q1423.62 64.2716 1428.4 65.6895 Q1433.18 67.1073 1437.79 67.1073 Q1444.8 67.1073 1448.61 64.3527 Q1452.42 61.598 1452.42 56.4939 Q1452.42 52.0379 1449.66 49.5264 Q1446.95 47.0148 1440.71 45.759 L1435.73 44.7868 Q1426.57 42.9639 1422.48 39.075 Q1418.39 35.1862 1418.39 28.2591 Q1418.39 20.2383 1424.02 15.6203 Q1429.69 11.0023 1439.62 11.0023 Q1443.87 11.0023 1448.29 11.7719 Q1452.7 12.5416 1457.32 14.0809 Z" fill="#000000" fill-rule="nonzero" fill-opacity="1"></path><path clip-path="url(#clip530)" d="M1511.12 45.1919 L1511.12 72.576 L1503.66 72.576 L1503.66 45.4349 Q1503.66 38.994 1501.15 35.7938 Q1498.64 32.5936 1493.62 32.5936 Q1487.58 32.5936 1484.1 36.4419 Q1480.61 40.2903 1480.61 46.9338 L1480.61 72.576 L1473.12 72.576 L1473.12 9.54393 L1480.61 9.54393 L1480.61 34.2544 Q1483.29 30.163 1486.89 28.1376 Q1490.54 26.1121 1495.28 26.1121 Q1503.1 26.1121 1507.11 30.9732 Q1511.12 35.7938 1511.12 45.1919 Z" fill="#000000" fill-rule="nonzero" fill-opacity="1"></path><path clip-path="url(#clip530)" d="M1564.79 48.0275 L1564.79 51.6733 L1530.52 51.6733 Q1531.01 59.3701 1535.14 63.421 Q1539.31 67.4314 1546.72 67.4314 Q1551.02 67.4314 1555.03 66.3781 Q1559.08 65.3249 1563.05 63.2184 L1563.05 70.267 Q1559.04 71.9684 1554.83 72.8596 Q1550.61 73.7508 1546.28 73.7508 Q1535.42 73.7508 1529.06 67.4314 Q1522.74 61.1119 1522.74 50.3365 Q1522.74 39.1965 1528.74 32.6746 Q1534.77 26.1121 1544.98 26.1121 Q1554.14 26.1121 1559.44 32.0264 Q1564.79 37.9003 1564.79 48.0275 M1557.34 45.84 Q1557.26 39.7232 1553.89 36.0774 Q1550.57 32.4315 1545.06 32.4315 Q1538.82 32.4315 1535.06 35.9558 Q1531.33 39.4801 1530.76 45.8805 L1557.34 45.84 Z" fill="#000000" fill-rule="nonzero" fill-opacity="1"></path><path clip-path="url(#clip530)" d="M1606.88 34.0924 L1606.88 9.54393 L1614.33 9.54393 L1614.33 72.576 L1606.88 72.576 L1606.88 65.7705 Q1604.53 69.8214 1600.92 71.8063 Q1597.36 73.7508 1592.34 73.7508 Q1584.11 73.7508 1578.93 67.1883 Q1573.78 60.6258 1573.78 49.9314 Q1573.78 39.2371 1578.93 32.6746 Q1584.11 26.1121 1592.34 26.1121 Q1597.36 26.1121 1600.92 28.0971 Q1604.53 30.0415 1606.88 34.0924 M1581.48 49.9314 Q1581.48 58.1548 1584.84 62.8538 Q1588.25 67.5124 1594.16 67.5124 Q1600.07 67.5124 1603.48 62.8538 Q1606.88 58.1548 1606.88 49.9314 Q1606.88 41.7081 1603.48 37.0496 Q1600.07 32.3505 1594.16 32.3505 Q1588.25 32.3505 1584.84 37.0496 Q1581.48 41.7081 1581.48 49.9314 Z" fill="#000000" fill-rule="nonzero" fill-opacity="1"></path><path clip-path="url(#clip530)" d="M1679.03 9.54393 L1679.03 15.7418 L1671.9 15.7418 Q1667.89 15.7418 1666.31 17.3622 Q1664.77 18.9825 1664.77 23.1955 L1664.77 27.2059 L1677.04 27.2059 L1677.04 32.9987 L1664.77 32.9987 L1664.77 72.576 L1657.27 72.576 L1657.27 32.9987 L1650.14 32.9987 L1650.14 27.2059 L1657.27 27.2059 L1657.27 24.0462 Q1657.27 16.471 1660.8 13.0277 Q1664.32 9.54393 1671.98 9.54393 L1679.03 9.54393 Z" fill="#000000" fill-rule="nonzero" fill-opacity="1"></path><path clip-path="url(#clip530)" d="M1702.85 32.4315 Q1696.85 32.4315 1693.37 37.1306 Q1689.88 41.7891 1689.88 49.9314 Q1689.88 58.0738 1693.33 62.7728 Q1696.81 67.4314 1702.85 67.4314 Q1708.8 67.4314 1712.28 62.7323 Q1715.77 58.0333 1715.77 49.9314 Q1715.77 41.8701 1712.28 37.1711 Q1708.8 32.4315 1702.85 32.4315 M1702.85 26.1121 Q1712.57 26.1121 1718.12 32.4315 Q1723.67 38.7509 1723.67 49.9314 Q1723.67 61.0714 1718.12 67.4314 Q1712.57 73.7508 1702.85 73.7508 Q1693.08 73.7508 1687.53 67.4314 Q1682.02 61.0714 1682.02 49.9314 Q1682.02 38.7509 1687.53 32.4315 Q1693.08 26.1121 1702.85 26.1121 Z" fill="#000000" fill-rule="nonzero" fill-opacity="1"></path><path clip-path="url(#clip530)" d="M1762.31 34.1734 Q1761.06 33.4443 1759.56 33.1202 Q1758.1 32.7556 1756.32 32.7556 Q1750 32.7556 1746.6 36.8875 Q1743.23 40.9789 1743.23 48.6757 L1743.23 72.576 L1735.74 72.576 L1735.74 27.2059 L1743.23 27.2059 L1743.23 34.2544 Q1745.58 30.1225 1749.35 28.1376 Q1753.12 26.1121 1758.5 26.1121 Q1759.27 26.1121 1760.21 26.2337 Q1761.14 26.3147 1762.27 26.5172 L1762.31 34.1734 Z" fill="#000000" fill-rule="nonzero" fill-opacity="1"></path><path clip-path="url(#clip530)" d="M1834.22 45.1919 L1834.22 72.576 L1826.76 72.576 L1826.76 45.4349 Q1826.76 38.994 1824.25 35.7938 Q1821.74 32.5936 1816.72 32.5936 Q1810.68 32.5936 1807.2 36.4419 Q1803.71 40.2903 1803.71 46.9338 L1803.71 72.576 L1796.22 72.576 L1796.22 9.54393 L1803.71 9.54393 L1803.71 34.2544 Q1806.39 30.163 1809.99 28.1376 Q1813.64 26.1121 1818.38 26.1121 Q1826.2 26.1121 1830.21 30.9732 Q1834.22 35.7938 1834.22 45.1919 Z" fill="#000000" fill-rule="nonzero" fill-opacity="1"></path><path clip-path="url(#clip530)" d="M1849.08 27.2059 L1856.54 27.2059 L1856.54 72.576 L1849.08 72.576 L1849.08 27.2059 M1849.08 9.54393 L1856.54 9.54393 L1856.54 18.9825 L1849.08 18.9825 L1849.08 9.54393 Z" fill="#000000" fill-rule="nonzero" fill-opacity="1"></path><path clip-path="url(#clip530)" d="M1901.99 49.3643 Q1901.99 41.2625 1898.63 36.8065 Q1895.3 32.3505 1889.27 32.3505 Q1883.27 32.3505 1879.91 36.8065 Q1876.59 41.2625 1876.59 49.3643 Q1876.59 57.4256 1879.91 61.8816 Q1883.27 66.3376 1889.27 66.3376 Q1895.3 66.3376 1898.63 61.8816 Q1901.99 57.4256 1901.99 49.3643 M1909.44 66.9452 Q1909.44 78.5308 1904.3 84.1616 Q1899.15 89.8329 1888.54 89.8329 Q1884.61 89.8329 1881.13 89.2252 Q1877.64 88.6581 1874.36 87.4428 L1874.36 80.1917 Q1877.64 81.9741 1880.84 82.8248 Q1884.04 83.6755 1887.36 83.6755 Q1894.7 83.6755 1898.34 79.8271 Q1901.99 76.0193 1901.99 68.282 L1901.99 64.5957 Q1899.68 68.6061 1896.07 70.5911 Q1892.47 72.576 1887.45 72.576 Q1879.1 72.576 1874 66.2161 Q1868.89 59.8562 1868.89 49.3643 Q1868.89 38.832 1874 32.472 Q1879.1 26.1121 1887.45 26.1121 Q1892.47 26.1121 1896.07 28.0971 Q1899.68 30.082 1901.99 34.0924 L1901.99 27.2059 L1909.44 27.2059 L1909.44 66.9452 Z" fill="#000000" fill-rule="nonzero" fill-opacity="1"></path><path clip-path="url(#clip530)" d="M1962.51 45.1919 L1962.51 72.576 L1955.05 72.576 L1955.05 45.4349 Q1955.05 38.994 1952.54 35.7938 Q1950.03 32.5936 1945.01 32.5936 Q1938.97 32.5936 1935.49 36.4419 Q1932 40.2903 1932 46.9338 L1932 72.576 L1924.51 72.576 L1924.51 9.54393 L1932 9.54393 L1932 34.2544 Q1934.68 30.163 1938.28 28.1376 Q1941.93 26.1121 1946.67 26.1121 Q1954.49 26.1121 1958.5 30.9732 Q1962.51 35.7938 1962.51 45.1919 Z" fill="#000000" fill-rule="nonzero" fill-opacity="1"></path><path clip-path="url(#clip530)" d="M2011.85 86.3491 L2011.85 92.1419 L1968.75 92.1419 L1968.75 86.3491 L2011.85 86.3491 Z" fill="#000000" fill-rule="nonzero" fill-opacity="1"></path><path clip-path="url(#clip530)" d="M2045.15 34.1734 Q2043.89 33.4443 2042.39 33.1202 Q2040.93 32.7556 2039.15 32.7556 Q2032.83 32.7556 2029.43 36.8875 Q2026.07 40.9789 2026.07 48.6757 L2026.07 72.576 L2018.57 72.576 L2018.57 27.2059 L2026.07 27.2059 L2026.07 34.2544 Q2028.42 30.1225 2032.18 28.1376 Q2035.95 26.1121 2041.34 26.1121 Q2042.11 26.1121 2043.04 26.2337 Q2043.97 26.3147 2045.11 26.5172 L2045.15 34.1734 Z" fill="#000000" fill-rule="nonzero" fill-opacity="1"></path><path clip-path="url(#clip530)" d="M2052.96 27.2059 L2060.42 27.2059 L2060.42 72.576 L2052.96 72.576 L2052.96 27.2059 M2052.96 9.54393 L2060.42 9.54393 L2060.42 18.9825 L2052.96 18.9825 L2052.96 9.54393 Z" fill="#000000" fill-rule="nonzero" fill-opacity="1"></path><path clip-path="url(#clip530)" d="M2104.94 28.5427 L2104.94 35.5912 Q2101.78 33.9709 2098.38 33.1607 Q2094.97 32.3505 2091.33 32.3505 Q2085.78 32.3505 2082.98 34.0519 Q2080.23 35.7533 2080.23 39.156 Q2080.23 41.7486 2082.21 43.2475 Q2084.2 44.7058 2090.19 46.0426 L2092.74 46.6097 Q2100.68 48.3111 2104.01 51.4303 Q2107.37 54.509 2107.37 60.0587 Q2107.37 66.3781 2102.35 70.0644 Q2097.36 73.7508 2088.61 73.7508 Q2084.97 73.7508 2081 73.0216 Q2077.07 72.3329 2072.69 70.9151 L2072.69 63.2184 Q2076.82 65.3654 2080.84 66.4591 Q2084.85 67.5124 2088.77 67.5124 Q2094.04 67.5124 2096.88 65.73 Q2099.71 63.9071 2099.71 60.6258 Q2099.71 57.5877 2097.65 55.9673 Q2095.62 54.3469 2088.69 52.8481 L2086.1 52.2405 Q2079.17 50.7821 2076.1 47.7845 Q2073.02 44.7463 2073.02 39.4801 Q2073.02 33.0797 2077.55 29.5959 Q2082.09 26.1121 2090.44 26.1121 Q2094.57 26.1121 2098.21 26.7198 Q2101.86 27.3274 2104.94 28.5427 Z" fill="#000000" fill-rule="nonzero" fill-opacity="1"></path><path clip-path="url(#clip530)" d="M2118.95 9.54393 L2126.45 9.54393 L2126.45 46.7717 L2148.69 27.2059 L2158.21 27.2059 L2134.15 48.4326 L2159.22 72.576 L2149.5 72.576 L2126.45 50.4176 L2126.45 72.576 L2118.95 72.576 L2118.95 9.54393 Z" fill="#000000" fill-rule="nonzero" fill-opacity="1"></path><polyline clip-path="url(#clip532)" style="stroke:#009af9; stroke-linecap:round; stroke-linejoin:round; stroke-width:4; stroke-opacity:1; fill:none" points="279.759,160.256 279.759,160.256 1848.43,568.969 1935.12,977.683 1935.12,977.683 2292.38,1386.4 2292.38,1386.4 2292.38,1386.4 2292.38,1386.4 2292.38,1386.4 2292.38,1386.4 "></polyline>
<path clip-path="url(#clip530)" d="M1844.26 270.476 L2281.64 270.476 L2281.64 166.796 L1844.26 166.796  Z" fill="#ffffff" fill-rule="evenodd" fill-opacity="1"></path>
<polyline clip-path="url(#clip530)" style="stroke:#000000; stroke-linecap:round; stroke-linejoin:round; stroke-width:4; stroke-opacity:1; fill:none" points="1844.26,270.476 2281.64,270.476 2281.64,166.796 1844.26,166.796 1844.26,270.476 "></polyline>
<polyline clip-path="url(#clip530)" style="stroke:#009af9; stroke-linecap:round; stroke-linejoin:round; stroke-width:4; stroke-opacity:1; fill:none" points="1867.96,218.636 2010.19,218.636 "></polyline>
<path clip-path="url(#clip530)" d="M2033.89 201.356 L2063.13 201.356 L2063.13 205.291 L2050.86 205.291 L2050.86 235.916 L2046.16 235.916 L2046.16 205.291 L2033.89 205.291 L2033.89 201.356 Z" fill="#000000" fill-rule="nonzero" fill-opacity="1"></path><path clip-path="url(#clip530)" d="M2069.44 212.976 Q2066.02 212.976 2064.03 215.661 Q2062.04 218.323 2062.04 222.976 Q2062.04 227.629 2064.01 230.314 Q2066 232.976 2069.44 232.976 Q2072.85 232.976 2074.84 230.291 Q2076.83 227.606 2076.83 222.976 Q2076.83 218.37 2074.84 215.684 Q2072.85 212.976 2069.44 212.976 M2069.44 209.365 Q2075 209.365 2078.17 212.976 Q2081.34 216.587 2081.34 222.976 Q2081.34 229.342 2078.17 232.976 Q2075 236.587 2069.44 236.587 Q2063.87 236.587 2060.69 232.976 Q2057.55 229.342 2057.55 222.976 Q2057.55 216.587 2060.69 212.976 Q2063.87 209.365 2069.44 209.365 Z" fill="#000000" fill-rule="nonzero" fill-opacity="1"></path><path clip-path="url(#clip530)" d="M2092.62 202.629 L2092.62 209.99 L2101.39 209.99 L2101.39 213.3 L2092.62 213.3 L2092.62 227.374 Q2092.62 230.545 2093.47 231.448 Q2094.35 232.351 2097.01 232.351 L2101.39 232.351 L2101.39 235.916 L2097.01 235.916 Q2092.08 235.916 2090.21 234.087 Q2088.33 232.235 2088.33 227.374 L2088.33 213.3 L2085.21 213.3 L2085.21 209.99 L2088.33 209.99 L2088.33 202.629 L2092.62 202.629 Z" fill="#000000" fill-rule="nonzero" fill-opacity="1"></path><path clip-path="url(#clip530)" d="M2118.77 222.883 Q2113.61 222.883 2111.62 224.064 Q2109.63 225.244 2109.63 228.092 Q2109.63 230.36 2111.11 231.703 Q2112.62 233.022 2115.19 233.022 Q2118.73 233.022 2120.86 230.522 Q2123.01 227.999 2123.01 223.832 L2123.01 222.883 L2118.77 222.883 M2127.27 221.124 L2127.27 235.916 L2123.01 235.916 L2123.01 231.981 Q2121.55 234.342 2119.38 235.476 Q2117.2 236.587 2114.05 236.587 Q2110.07 236.587 2107.71 234.365 Q2105.37 232.119 2105.37 228.369 Q2105.37 223.994 2108.29 221.772 Q2111.23 219.55 2117.04 219.55 L2123.01 219.55 L2123.01 219.133 Q2123.01 216.194 2121.06 214.596 Q2119.14 212.976 2115.65 212.976 Q2113.43 212.976 2111.32 213.508 Q2109.21 214.041 2107.27 215.106 L2107.27 211.17 Q2109.61 210.268 2111.81 209.828 Q2114 209.365 2116.09 209.365 Q2121.71 209.365 2124.49 212.282 Q2127.27 215.198 2127.27 221.124 Z" fill="#000000" fill-rule="nonzero" fill-opacity="1"></path><path clip-path="url(#clip530)" d="M2136.04 199.897 L2140.3 199.897 L2140.3 235.916 L2136.04 235.916 L2136.04 199.897 Z" fill="#000000" fill-rule="nonzero" fill-opacity="1"></path><path clip-path="url(#clip530)" d="M2180.86 219.712 Q2182.36 220.221 2183.77 221.888 Q2185.21 223.555 2186.64 226.471 L2191.39 235.916 L2186.37 235.916 L2181.94 227.05 Q2180.23 223.578 2178.61 222.444 Q2177.01 221.309 2174.24 221.309 L2169.14 221.309 L2169.14 235.916 L2164.47 235.916 L2164.47 201.356 L2175.02 201.356 Q2180.95 201.356 2183.87 203.833 Q2186.78 206.309 2186.78 211.309 Q2186.78 214.573 2185.25 216.726 Q2183.75 218.879 2180.86 219.712 M2169.14 205.198 L2169.14 217.467 L2175.02 217.467 Q2178.4 217.467 2180.12 215.916 Q2181.85 214.342 2181.85 211.309 Q2181.85 208.277 2180.12 206.749 Q2178.4 205.198 2175.02 205.198 L2169.14 205.198 Z" fill="#000000" fill-rule="nonzero" fill-opacity="1"></path><path clip-path="url(#clip530)" d="M2197.22 209.99 L2201.48 209.99 L2201.48 235.916 L2197.22 235.916 L2197.22 209.99 M2197.22 199.897 L2201.48 199.897 L2201.48 205.291 L2197.22 205.291 L2197.22 199.897 Z" fill="#000000" fill-rule="nonzero" fill-opacity="1"></path><path clip-path="url(#clip530)" d="M2226.92 210.754 L2226.92 214.782 Q2225.12 213.856 2223.17 213.393 Q2221.23 212.93 2219.14 212.93 Q2215.97 212.93 2214.37 213.902 Q2212.8 214.874 2212.8 216.819 Q2212.8 218.3 2213.93 219.157 Q2215.07 219.99 2218.49 220.754 L2219.95 221.078 Q2224.49 222.05 2226.39 223.832 Q2228.31 225.592 2228.31 228.763 Q2228.31 232.374 2225.44 234.481 Q2222.59 236.587 2217.59 236.587 Q2215.51 236.587 2213.24 236.17 Q2211 235.777 2208.5 234.967 L2208.5 230.569 Q2210.86 231.795 2213.15 232.42 Q2215.44 233.022 2217.68 233.022 Q2220.69 233.022 2222.31 232.004 Q2223.93 230.962 2223.93 229.087 Q2223.93 227.351 2222.75 226.425 Q2221.6 225.499 2217.64 224.643 L2216.16 224.295 Q2212.2 223.462 2210.44 221.749 Q2208.68 220.013 2208.68 217.004 Q2208.68 213.346 2211.27 211.356 Q2213.87 209.365 2218.63 209.365 Q2220.99 209.365 2223.08 209.712 Q2225.16 210.059 2226.92 210.754 Z" fill="#000000" fill-rule="nonzero" fill-opacity="1"></path><path clip-path="url(#clip530)" d="M2234.93 199.897 L2239.21 199.897 L2239.21 221.17 L2251.92 209.99 L2257.36 209.99 L2243.61 222.119 L2257.94 235.916 L2252.38 235.916 L2239.21 223.254 L2239.21 235.916 L2234.93 235.916 L2234.93 199.897 Z" fill="#000000" fill-rule="nonzero" fill-opacity="1"></path></svg>