<svg xmlns="http://www.w3.org/2000/svg" xmlns:xlink="http://www.w3.org/1999/xlink" width="600" height="400" viewBox="0 0 2400 1600">
<defs>
  <clipPath id="clip370">
    <rect x="0" y="0" width="2400" height="1600"></rect>
  </clipPath>
</defs>
<path clip-path="url(#clip370)" d="M0 1600 L2400 1600 L2400 0 L0 0  Z" fill="#ffffff" fill-rule="evenodd" fill-opacity="1"></path>
<defs>
  <clipPath id="clip371">
    <rect x="480" y="0" width="1681" height="1600"></rect>
  </clipPath>
</defs>
<path clip-path="url(#clip370)" d="M219.38 1423.18 L2352.76 1423.18 L2352.76 123.472 L219.38 123.472  Z" fill="#ffffff" fill-rule="evenodd" fill-opacity="1"></path>
<defs>
  <clipPath id="clip372">
    <rect x="219" y="123" width="2134" height="1301"></rect>
  </clipPath>
</defs>
<polyline clip-path="url(#clip372)" style="stroke:#000000; stroke-linecap:round; stroke-linejoin:round; stroke-width:2; stroke-opacity:0.1; fill:none" points="272.275,1423.18 272.275,123.472 "></polyline>
<polyline clip-path="url(#clip372)" style="stroke:#000000; stroke-linecap:round; stroke-linejoin:round; stroke-width:2; stroke-opacity:0.1; fill:none" points="943.427,1423.18 943.427,123.472 "></polyline>
<polyline clip-path="url(#clip372)" style="stroke:#000000; stroke-linecap:round; stroke-linejoin:round; stroke-width:2; stroke-opacity:0.1; fill:none" points="1614.58,1423.18 1614.58,123.472 "></polyline>
<polyline clip-path="url(#clip372)" style="stroke:#000000; stroke-linecap:round; stroke-linejoin:round; stroke-width:2; stroke-opacity:0.1; fill:none" points="2285.73,1423.18 2285.73,123.472 "></polyline>
<polyline clip-path="url(#clip370)" style="stroke:#000000; stroke-linecap:round; stroke-linejoin:round; stroke-width:4; stroke-opacity:1; fill:none" points="219.38,1423.18 2352.76,1423.18 "></polyline>
<polyline clip-path="url(#clip370)" style="stroke:#000000; stroke-linecap:round; stroke-linejoin:round; stroke-width:4; stroke-opacity:1; fill:none" points="272.275,1423.18 272.275,1404.28 "></polyline>
<polyline clip-path="url(#clip370)" style="stroke:#000000; stroke-linecap:round; stroke-linejoin:round; stroke-width:4; stroke-opacity:1; fill:none" points="943.427,1423.18 943.427,1404.28 "></polyline>
<polyline clip-path="url(#clip370)" style="stroke:#000000; stroke-linecap:round; stroke-linejoin:round; stroke-width:4; stroke-opacity:1; fill:none" points="1614.58,1423.18 1614.58,1404.28 "></polyline>
<polyline clip-path="url(#clip370)" style="stroke:#000000; stroke-linecap:round; stroke-linejoin:round; stroke-width:4; stroke-opacity:1; fill:none" points="2285.73,1423.18 2285.73,1404.28 "></polyline>
<path clip-path="url(#clip370)" d="M234.578 1454.1 Q230.967 1454.1 229.139 1457.66 Q227.333 1461.2 227.333 1468.33 Q227.333 1475.44 229.139 1479.01 Q230.967 1482.55 234.578 1482.55 Q238.213 1482.55 240.018 1479.01 Q241.847 1475.44 241.847 1468.33 Q241.847 1461.2 240.018 1457.66 Q238.213 1454.1 234.578 1454.1 M234.578 1450.39 Q240.389 1450.39 243.444 1455 Q246.523 1459.58 246.523 1468.33 Q246.523 1477.06 243.444 1481.67 Q240.389 1486.25 234.578 1486.25 Q228.768 1486.25 225.69 1481.67 Q222.634 1477.06 222.634 1468.33 Q222.634 1459.58 225.69 1455 Q228.768 1450.39 234.578 1450.39 Z" fill="#000000" fill-rule="nonzero" fill-opacity="1"></path><path clip-path="url(#clip370)" d="M254.74 1479.7 L259.625 1479.7 L259.625 1485.58 L254.74 1485.58 L254.74 1479.7 Z" fill="#000000" fill-rule="nonzero" fill-opacity="1"></path><path clip-path="url(#clip370)" d="M279.81 1454.1 Q276.199 1454.1 274.37 1457.66 Q272.564 1461.2 272.564 1468.33 Q272.564 1475.44 274.37 1479.01 Q276.199 1482.55 279.81 1482.55 Q283.444 1482.55 285.249 1479.01 Q287.078 1475.44 287.078 1468.33 Q287.078 1461.2 285.249 1457.66 Q283.444 1454.1 279.81 1454.1 M279.81 1450.39 Q285.62 1450.39 288.675 1455 Q291.754 1459.58 291.754 1468.33 Q291.754 1477.06 288.675 1481.67 Q285.62 1486.25 279.81 1486.25 Q273.999 1486.25 270.921 1481.67 Q267.865 1477.06 267.865 1468.33 Q267.865 1459.58 270.921 1455 Q273.999 1450.39 279.81 1450.39 Z" fill="#000000" fill-rule="nonzero" fill-opacity="1"></path><path clip-path="url(#clip370)" d="M309.971 1454.1 Q306.36 1454.1 304.532 1457.66 Q302.726 1461.2 302.726 1468.33 Q302.726 1475.44 304.532 1479.01 Q306.36 1482.55 309.971 1482.55 Q313.606 1482.55 315.411 1479.01 Q317.24 1475.44 317.24 1468.33 Q317.24 1461.2 315.411 1457.66 Q313.606 1454.1 309.971 1454.1 M309.971 1450.39 Q315.782 1450.39 318.837 1455 Q321.916 1459.58 321.916 1468.33 Q321.916 1477.06 318.837 1481.67 Q315.782 1486.25 309.971 1486.25 Q304.161 1486.25 301.083 1481.67 Q298.027 1477.06 298.027 1468.33 Q298.027 1459.58 301.083 1455 Q304.161 1450.39 309.971 1450.39 Z" fill="#000000" fill-rule="nonzero" fill-opacity="1"></path><path clip-path="url(#clip370)" d="M906.228 1454.1 Q902.617 1454.1 900.788 1457.66 Q898.982 1461.2 898.982 1468.33 Q898.982 1475.44 900.788 1479.01 Q902.617 1482.55 906.228 1482.55 Q909.862 1482.55 911.667 1479.01 Q913.496 1475.44 913.496 1468.33 Q913.496 1461.2 911.667 1457.66 Q909.862 1454.1 906.228 1454.1 M906.228 1450.39 Q912.038 1450.39 915.093 1455 Q918.172 1459.58 918.172 1468.33 Q918.172 1477.06 915.093 1481.67 Q912.038 1486.25 906.228 1486.25 Q900.417 1486.25 897.339 1481.67 Q894.283 1477.06 894.283 1468.33 Q894.283 1459.58 897.339 1455 Q900.417 1450.39 906.228 1450.39 Z" fill="#000000" fill-rule="nonzero" fill-opacity="1"></path><path clip-path="url(#clip370)" d="M926.39 1479.7 L931.274 1479.7 L931.274 1485.58 L926.39 1485.58 L926.39 1479.7 Z" fill="#000000" fill-rule="nonzero" fill-opacity="1"></path><path clip-path="url(#clip370)" d="M951.459 1454.1 Q947.848 1454.1 946.019 1457.66 Q944.214 1461.2 944.214 1468.33 Q944.214 1475.44 946.019 1479.01 Q947.848 1482.55 951.459 1482.55 Q955.093 1482.55 956.899 1479.01 Q958.727 1475.44 958.727 1468.33 Q958.727 1461.2 956.899 1457.66 Q955.093 1454.1 951.459 1454.1 M951.459 1450.39 Q957.269 1450.39 960.325 1455 Q963.403 1459.58 963.403 1468.33 Q963.403 1477.06 960.325 1481.67 Q957.269 1486.25 951.459 1486.25 Q945.649 1486.25 942.57 1481.67 Q939.514 1477.06 939.514 1468.33 Q939.514 1459.58 942.57 1455 Q945.649 1450.39 951.459 1450.39 Z" fill="#000000" fill-rule="nonzero" fill-opacity="1"></path><path clip-path="url(#clip370)" d="M971.667 1451.02 L990.023 1451.02 L990.023 1454.96 L975.949 1454.96 L975.949 1463.43 Q976.968 1463.08 977.987 1462.92 Q979.005 1462.73 980.024 1462.73 Q985.811 1462.73 989.19 1465.9 Q992.57 1469.08 992.57 1474.49 Q992.57 1480.07 989.098 1483.17 Q985.625 1486.25 979.306 1486.25 Q977.13 1486.25 974.862 1485.88 Q972.616 1485.51 970.209 1484.77 L970.209 1480.07 Q972.292 1481.2 974.514 1481.76 Q976.737 1482.32 979.213 1482.32 Q983.218 1482.32 985.556 1480.21 Q987.894 1478.1 987.894 1474.49 Q987.894 1470.88 985.556 1468.77 Q983.218 1466.67 979.213 1466.67 Q977.338 1466.67 975.463 1467.08 Q973.612 1467.5 971.667 1468.38 L971.667 1451.02 Z" fill="#000000" fill-rule="nonzero" fill-opacity="1"></path><path clip-path="url(#clip370)" d="M1576.88 1454.1 Q1573.27 1454.1 1571.44 1457.66 Q1569.64 1461.2 1569.64 1468.33 Q1569.64 1475.44 1571.44 1479.01 Q1573.27 1482.55 1576.88 1482.55 Q1580.52 1482.55 1582.32 1479.01 Q1584.15 1475.44 1584.15 1468.33 Q1584.15 1461.2 1582.32 1457.66 Q1580.52 1454.1 1576.88 1454.1 M1576.88 1450.39 Q1582.69 1450.39 1585.75 1455 Q1588.83 1459.58 1588.83 1468.33 Q1588.83 1477.06 1585.75 1481.67 Q1582.69 1486.25 1576.88 1486.25 Q1571.07 1486.25 1567.99 1481.67 Q1564.94 1477.06 1564.94 1468.33 Q1564.94 1459.58 1567.99 1455 Q1571.07 1450.39 1576.88 1450.39 Z" fill="#000000" fill-rule="nonzero" fill-opacity="1"></path><path clip-path="url(#clip370)" d="M1597.04 1479.7 L1601.93 1479.7 L1601.93 1485.58 L1597.04 1485.58 L1597.04 1479.7 Z" fill="#000000" fill-rule="nonzero" fill-opacity="1"></path><path clip-path="url(#clip370)" d="M1612.92 1481.64 L1620.56 1481.64 L1620.56 1455.28 L1612.25 1456.95 L1612.25 1452.69 L1620.52 1451.02 L1625.19 1451.02 L1625.19 1481.64 L1632.83 1481.64 L1632.83 1485.58 L1612.92 1485.58 L1612.92 1481.64 Z" fill="#000000" fill-rule="nonzero" fill-opacity="1"></path><path clip-path="url(#clip370)" d="M1652.27 1454.1 Q1648.66 1454.1 1646.83 1457.66 Q1645.03 1461.2 1645.03 1468.33 Q1645.03 1475.44 1646.83 1479.01 Q1648.66 1482.55 1652.27 1482.55 Q1655.91 1482.55 1657.71 1479.01 Q1659.54 1475.44 1659.54 1468.33 Q1659.54 1461.2 1657.71 1457.66 Q1655.91 1454.1 1652.27 1454.1 M1652.27 1450.39 Q1658.08 1450.39 1661.14 1455 Q1664.22 1459.58 1664.22 1468.33 Q1664.22 1477.06 1661.14 1481.67 Q1658.08 1486.25 1652.27 1486.25 Q1646.46 1486.25 1643.39 1481.67 Q1640.33 1477.06 1640.33 1468.33 Q1640.33 1459.58 1643.39 1455 Q1646.46 1450.39 1652.27 1450.39 Z" fill="#000000" fill-rule="nonzero" fill-opacity="1"></path><path clip-path="url(#clip370)" d="M2248.53 1454.1 Q2244.92 1454.1 2243.09 1457.66 Q2241.29 1461.2 2241.29 1468.33 Q2241.29 1475.44 2243.09 1479.01 Q2244.92 1482.55 2248.53 1482.55 Q2252.17 1482.55 2253.97 1479.01 Q2255.8 1475.44 2255.8 1468.33 Q2255.8 1461.2 2253.97 1457.66 Q2252.17 1454.1 2248.53 1454.1 M2248.53 1450.39 Q2254.34 1450.39 2257.4 1455 Q2260.48 1459.58 2260.48 1468.33 Q2260.48 1477.06 2257.4 1481.67 Q2254.34 1486.25 2248.53 1486.25 Q2242.72 1486.25 2239.64 1481.67 Q2236.59 1477.06 2236.59 1468.33 Q2236.59 1459.58 2239.64 1455 Q2242.72 1450.39 2248.53 1450.39 Z" fill="#000000" fill-rule="nonzero" fill-opacity="1"></path><path clip-path="url(#clip370)" d="M2268.69 1479.7 L2273.58 1479.7 L2273.58 1485.58 L2268.69 1485.58 L2268.69 1479.7 Z" fill="#000000" fill-rule="nonzero" fill-opacity="1"></path><path clip-path="url(#clip370)" d="M2284.57 1481.64 L2292.21 1481.64 L2292.21 1455.28 L2283.9 1456.95 L2283.9 1452.69 L2292.16 1451.02 L2296.84 1451.02 L2296.84 1481.64 L2304.48 1481.64 L2304.48 1485.58 L2284.57 1485.58 L2284.57 1481.64 Z" fill="#000000" fill-rule="nonzero" fill-opacity="1"></path><path clip-path="url(#clip370)" d="M2313.97 1451.02 L2332.33 1451.02 L2332.33 1454.96 L2318.25 1454.96 L2318.25 1463.43 Q2319.27 1463.08 2320.29 1462.92 Q2321.31 1462.73 2322.33 1462.73 Q2328.11 1462.73 2331.49 1465.9 Q2334.87 1469.08 2334.87 1474.49 Q2334.87 1480.07 2331.4 1483.17 Q2327.93 1486.25 2321.61 1486.25 Q2319.43 1486.25 2317.16 1485.88 Q2314.92 1485.51 2312.51 1484.77 L2312.51 1480.07 Q2314.6 1481.2 2316.82 1481.76 Q2319.04 1482.32 2321.52 1482.32 Q2325.52 1482.32 2327.86 1480.21 Q2330.2 1478.1 2330.2 1474.49 Q2330.2 1470.88 2327.86 1468.77 Q2325.52 1466.67 2321.52 1466.67 Q2319.64 1466.67 2317.77 1467.08 Q2315.91 1467.5 2313.97 1468.38 L2313.97 1451.02 Z" fill="#000000" fill-rule="nonzero" fill-opacity="1"></path><path clip-path="url(#clip370)" d="M1093.12 1547.13 Q1090.35 1547.13 1088.76 1549.49 Q1087.2 1551.84 1087.2 1556.04 Q1087.2 1560.18 1088.76 1562.57 Q1090.35 1564.92 1093.12 1564.92 Q1095.83 1564.92 1097.39 1562.57 Q1098.98 1560.18 1098.98 1556.04 Q1098.98 1551.87 1097.39 1549.52 Q1095.83 1547.13 1093.12 1547.13 M1093.12 1543.09 Q1098.15 1543.09 1101.11 1546.59 Q1104.07 1550.09 1104.07 1556.04 Q1104.07 1562 1101.08 1565.5 Q1098.12 1568.97 1093.12 1568.97 Q1088.03 1568.97 1085.07 1565.5 Q1082.11 1562 1082.11 1556.04 Q1082.11 1550.06 1085.07 1546.59 Q1088.06 1543.09 1093.12 1543.09 M1060.28 1523.71 Q1057.54 1523.71 1055.95 1526.09 Q1054.39 1528.45 1054.39 1532.59 Q1054.39 1536.79 1055.95 1539.14 Q1057.51 1541.5 1060.28 1541.5 Q1063.05 1541.5 1064.61 1539.14 Q1066.2 1536.79 1066.2 1532.59 Q1066.2 1528.48 1064.61 1526.09 Q1063.01 1523.71 1060.28 1523.71 M1089.02 1519.66 L1094.11 1519.66 L1064.38 1568.97 L1059.29 1568.97 L1089.02 1519.66 M1060.28 1519.66 Q1065.31 1519.66 1068.3 1523.17 Q1071.29 1526.63 1071.29 1532.59 Q1071.29 1538.6 1068.3 1542.07 Q1065.34 1545.54 1060.28 1545.54 Q1055.22 1545.54 1052.26 1542.07 Q1049.33 1538.57 1049.33 1532.59 Q1049.33 1526.67 1052.29 1523.17 Q1055.25 1519.66 1060.28 1519.66 Z" fill="#000000" fill-rule="nonzero" fill-opacity="1"></path><path clip-path="url(#clip370)" d="M1148.35 1536.5 Q1143.64 1536.5 1140.9 1540.19 Q1138.16 1543.85 1138.16 1550.25 Q1138.16 1556.65 1140.87 1560.34 Q1143.6 1564 1148.35 1564 Q1153.02 1564 1155.76 1560.31 Q1158.5 1556.62 1158.5 1550.25 Q1158.5 1543.92 1155.76 1540.23 Q1153.02 1536.5 1148.35 1536.5 M1148.35 1531.54 Q1155.98 1531.54 1160.35 1536.5 Q1164.71 1541.47 1164.71 1550.25 Q1164.71 1559 1160.35 1564 Q1155.98 1568.97 1148.35 1568.97 Q1140.68 1568.97 1136.31 1564 Q1131.99 1559 1131.99 1550.25 Q1131.99 1541.47 1136.31 1536.5 Q1140.68 1531.54 1148.35 1531.54 Z" fill="#000000" fill-rule="nonzero" fill-opacity="1"></path><path clip-path="url(#clip370)" d="M1192.46 1518.52 L1192.46 1523.39 L1186.86 1523.39 Q1183.71 1523.39 1182.47 1524.66 Q1181.26 1525.93 1181.26 1529.24 L1181.26 1532.4 L1190.9 1532.4 L1190.9 1536.95 L1181.26 1536.95 L1181.26 1568.04 L1175.37 1568.04 L1175.37 1536.95 L1169.77 1536.95 L1169.77 1532.4 L1175.37 1532.4 L1175.37 1529.91 Q1175.37 1523.96 1178.14 1521.26 Q1180.91 1518.52 1186.92 1518.52 L1192.46 1518.52 Z" fill="#000000" fill-rule="nonzero" fill-opacity="1"></path><path clip-path="url(#clip370)" d="M1218.08 1518.52 L1223.94 1518.52 L1223.94 1568.04 L1218.08 1568.04 L1218.08 1518.52 Z" fill="#000000" fill-rule="nonzero" fill-opacity="1"></path><path clip-path="url(#clip370)" d="M1250.01 1536.5 Q1245.3 1536.5 1242.56 1540.19 Q1239.82 1543.85 1239.82 1550.25 Q1239.82 1556.65 1242.53 1560.34 Q1245.26 1564 1250.01 1564 Q1254.69 1564 1257.42 1560.31 Q1260.16 1556.62 1260.16 1550.25 Q1260.16 1543.92 1257.42 1540.23 Q1254.69 1536.5 1250.01 1536.5 M1250.01 1531.54 Q1257.65 1531.54 1262.01 1536.5 Q1266.37 1541.47 1266.37 1550.25 Q1266.37 1559 1262.01 1564 Q1257.65 1568.97 1250.01 1568.97 Q1242.34 1568.97 1237.98 1564 Q1233.65 1559 1233.65 1550.25 Q1233.65 1541.47 1237.98 1536.5 Q1242.34 1531.54 1250.01 1531.54 Z" fill="#000000" fill-rule="nonzero" fill-opacity="1"></path><path clip-path="url(#clip370)" d="M1292.27 1550.12 Q1285.18 1550.12 1282.44 1551.75 Q1279.7 1553.37 1279.7 1557.29 Q1279.7 1560.4 1281.74 1562.25 Q1283.81 1564.07 1287.34 1564.07 Q1292.21 1564.07 1295.14 1560.63 Q1298.1 1557.16 1298.1 1551.43 L1298.1 1550.12 L1292.27 1550.12 M1303.96 1547.71 L1303.96 1568.04 L1298.1 1568.04 L1298.1 1562.63 Q1296.09 1565.88 1293.1 1567.44 Q1290.11 1568.97 1285.78 1568.97 Q1280.31 1568.97 1277.06 1565.91 Q1273.85 1562.82 1273.85 1557.67 Q1273.85 1551.65 1277.86 1548.6 Q1281.9 1545.54 1289.89 1545.54 L1298.1 1545.54 L1298.1 1544.97 Q1298.1 1540.93 1295.43 1538.73 Q1292.78 1536.5 1287.98 1536.5 Q1284.92 1536.5 1282.03 1537.23 Q1279.13 1537.97 1276.46 1539.43 L1276.46 1534.02 Q1279.67 1532.78 1282.69 1532.17 Q1285.72 1531.54 1288.58 1531.54 Q1296.32 1531.54 1300.14 1535.55 Q1303.96 1539.56 1303.96 1547.71 Z" fill="#000000" fill-rule="nonzero" fill-opacity="1"></path><path clip-path="url(#clip370)" d="M1339.48 1537.81 L1339.48 1518.52 L1345.33 1518.52 L1345.33 1568.04 L1339.48 1568.04 L1339.48 1562.7 Q1337.63 1565.88 1334.8 1567.44 Q1332 1568.97 1328.05 1568.97 Q1321.59 1568.97 1317.51 1563.81 Q1313.47 1558.65 1313.47 1550.25 Q1313.47 1541.85 1317.51 1536.69 Q1321.59 1531.54 1328.05 1531.54 Q1332 1531.54 1334.8 1533.1 Q1337.63 1534.62 1339.48 1537.81 M1319.52 1550.25 Q1319.52 1556.71 1322.16 1560.4 Q1324.84 1564.07 1329.48 1564.07 Q1334.13 1564.07 1336.8 1560.4 Q1339.48 1556.71 1339.48 1550.25 Q1339.48 1543.79 1336.8 1540.13 Q1334.13 1536.44 1329.48 1536.44 Q1324.84 1536.44 1322.16 1540.13 Q1319.52 1543.79 1319.52 1550.25 Z" fill="#000000" fill-rule="nonzero" fill-opacity="1"></path><path clip-path="url(#clip370)" d="M1400.84 1533.45 L1400.84 1538.98 Q1398.36 1537.71 1395.69 1537.07 Q1393.01 1536.44 1390.15 1536.44 Q1385.79 1536.44 1383.59 1537.77 Q1381.43 1539.11 1381.43 1541.79 Q1381.43 1543.82 1382.99 1545 Q1384.55 1546.15 1389.26 1547.2 L1391.26 1547.64 Q1397.5 1548.98 1400.11 1551.43 Q1402.75 1553.85 1402.75 1558.21 Q1402.75 1563.17 1398.8 1566.07 Q1394.89 1568.97 1388.01 1568.97 Q1385.15 1568.97 1382.03 1568.39 Q1378.94 1567.85 1375.51 1566.74 L1375.51 1560.69 Q1378.75 1562.38 1381.9 1563.24 Q1385.05 1564.07 1388.14 1564.07 Q1392.28 1564.07 1394.51 1562.66 Q1396.74 1561.23 1396.74 1558.65 Q1396.74 1556.27 1395.11 1554.99 Q1393.52 1553.72 1388.08 1552.54 L1386.04 1552.07 Q1380.6 1550.92 1378.18 1548.56 Q1375.76 1546.18 1375.76 1542.04 Q1375.76 1537.01 1379.33 1534.27 Q1382.89 1531.54 1389.45 1531.54 Q1392.69 1531.54 1395.56 1532.01 Q1398.42 1532.49 1400.84 1533.45 Z" fill="#000000" fill-rule="nonzero" fill-opacity="1"></path><path clip-path="url(#clip370)" d="M1441.71 1546.53 L1441.71 1568.04 L1435.85 1568.04 L1435.85 1546.72 Q1435.85 1541.66 1433.88 1539.14 Q1431.91 1536.63 1427.96 1536.63 Q1423.22 1536.63 1420.48 1539.65 Q1417.74 1542.68 1417.74 1547.9 L1417.74 1568.04 L1411.85 1568.04 L1411.85 1518.52 L1417.74 1518.52 L1417.74 1537.93 Q1419.84 1534.72 1422.68 1533.13 Q1425.54 1531.54 1429.26 1531.54 Q1435.41 1531.54 1438.56 1535.36 Q1441.71 1539.14 1441.71 1546.53 Z" fill="#000000" fill-rule="nonzero" fill-opacity="1"></path><path clip-path="url(#clip370)" d="M1483.88 1548.76 L1483.88 1551.62 L1456.96 1551.62 Q1457.34 1557.67 1460.58 1560.85 Q1463.86 1564 1469.69 1564 Q1473.06 1564 1476.21 1563.17 Q1479.39 1562.35 1482.51 1560.69 L1482.51 1566.23 Q1479.36 1567.57 1476.05 1568.27 Q1472.74 1568.97 1469.34 1568.97 Q1460.81 1568.97 1455.81 1564 Q1450.84 1559.04 1450.84 1550.57 Q1450.84 1541.82 1455.55 1536.69 Q1460.3 1531.54 1468.32 1531.54 Q1475.51 1531.54 1479.68 1536.18 Q1483.88 1540.8 1483.88 1548.76 M1478.03 1547.04 Q1477.96 1542.23 1475.32 1539.37 Q1472.71 1536.5 1468.38 1536.5 Q1463.48 1536.5 1460.52 1539.27 Q1457.59 1542.04 1457.15 1547.07 L1478.03 1547.04 Z" fill="#000000" fill-rule="nonzero" fill-opacity="1"></path><path clip-path="url(#clip370)" d="M1516.95 1537.81 L1516.95 1518.52 L1522.81 1518.52 L1522.81 1568.04 L1516.95 1568.04 L1516.95 1562.7 Q1515.11 1565.88 1512.27 1567.44 Q1509.47 1568.97 1505.53 1568.97 Q1499.06 1568.97 1494.99 1563.81 Q1490.95 1558.65 1490.95 1550.25 Q1490.95 1541.85 1494.99 1536.69 Q1499.06 1531.54 1505.53 1531.54 Q1509.47 1531.54 1512.27 1533.1 Q1515.11 1534.62 1516.95 1537.81 M1497 1550.25 Q1497 1556.71 1499.64 1560.4 Q1502.31 1564.07 1506.96 1564.07 Q1511.61 1564.07 1514.28 1560.4 Q1516.95 1556.71 1516.95 1550.25 Q1516.95 1543.79 1514.28 1540.13 Q1511.61 1536.44 1506.96 1536.44 Q1502.31 1536.44 1499.64 1540.13 Q1497 1543.79 1497 1550.25 Z" fill="#000000" fill-rule="nonzero" fill-opacity="1"></path><polyline clip-path="url(#clip372)" style="stroke:#000000; stroke-linecap:round; stroke-linejoin:round; stroke-width:2; stroke-opacity:0.1; fill:none" points="219.38,1386.4 2352.76,1386.4 "></polyline>
<polyline clip-path="url(#clip372)" style="stroke:#000000; stroke-linecap:round; stroke-linejoin:round; stroke-width:2; stroke-opacity:0.1; fill:none" points="219.38,1018.55 2352.76,1018.55 "></polyline>
<polyline clip-path="url(#clip372)" style="stroke:#000000; stroke-linecap:round; stroke-linejoin:round; stroke-width:2; stroke-opacity:0.1; fill:none" points="219.38,650.712 2352.76,650.712 "></polyline>
<polyline clip-path="url(#clip372)" style="stroke:#000000; stroke-linecap:round; stroke-linejoin:round; stroke-width:2; stroke-opacity:0.1; fill:none" points="219.38,282.87 2352.76,282.87 "></polyline>
<polyline clip-path="url(#clip370)" style="stroke:#000000; stroke-linecap:round; stroke-linejoin:round; stroke-width:4; stroke-opacity:1; fill:none" points="219.38,1423.18 219.38,123.472 "></polyline>
<polyline clip-path="url(#clip370)" style="stroke:#000000; stroke-linecap:round; stroke-linejoin:round; stroke-width:4; stroke-opacity:1; fill:none" points="219.38,1386.4 238.278,1386.4 "></polyline>
<polyline clip-path="url(#clip370)" style="stroke:#000000; stroke-linecap:round; stroke-linejoin:round; stroke-width:4; stroke-opacity:1; fill:none" points="219.38,1018.55 238.278,1018.55 "></polyline>
<polyline clip-path="url(#clip370)" style="stroke:#000000; stroke-linecap:round; stroke-linejoin:round; stroke-width:4; stroke-opacity:1; fill:none" points="219.38,650.712 238.278,650.712 "></polyline>
<polyline clip-path="url(#clip370)" style="stroke:#000000; stroke-linecap:round; stroke-linejoin:round; stroke-width:4; stroke-opacity:1; fill:none" points="219.38,282.87 238.278,282.87 "></polyline>
<path clip-path="url(#clip370)" d="M126.205 1372.19 Q122.593 1372.19 120.765 1375.76 Q118.959 1379.3 118.959 1386.43 Q118.959 1393.54 120.765 1397.1 Q122.593 1400.64 126.205 1400.64 Q129.839 1400.64 131.644 1397.1 Q133.473 1393.54 133.473 1386.43 Q133.473 1379.3 131.644 1375.76 Q129.839 1372.19 126.205 1372.19 M126.205 1368.49 Q132.015 1368.49 135.07 1373.1 Q138.149 1377.68 138.149 1386.43 Q138.149 1395.16 135.07 1399.76 Q132.015 1404.35 126.205 1404.35 Q120.394 1404.35 117.316 1399.76 Q114.26 1395.16 114.26 1386.43 Q114.26 1377.68 117.316 1373.1 Q120.394 1368.49 126.205 1368.49 Z" fill="#000000" fill-rule="nonzero" fill-opacity="1"></path><path clip-path="url(#clip370)" d="M146.366 1397.8 L151.251 1397.8 L151.251 1403.68 L146.366 1403.68 L146.366 1397.8 Z" fill="#000000" fill-rule="nonzero" fill-opacity="1"></path><path clip-path="url(#clip370)" d="M171.436 1372.19 Q167.825 1372.19 165.996 1375.76 Q164.19 1379.3 164.19 1386.43 Q164.19 1393.54 165.996 1397.1 Q167.825 1400.64 171.436 1400.64 Q175.07 1400.64 176.876 1397.1 Q178.704 1393.54 178.704 1386.43 Q178.704 1379.3 176.876 1375.76 Q175.07 1372.19 171.436 1372.19 M171.436 1368.49 Q177.246 1368.49 180.301 1373.1 Q183.38 1377.68 183.38 1386.43 Q183.38 1395.16 180.301 1399.76 Q177.246 1404.35 171.436 1404.35 Q165.626 1404.35 162.547 1399.76 Q159.491 1395.16 159.491 1386.43 Q159.491 1377.68 162.547 1373.1 Q165.626 1368.49 171.436 1368.49 Z" fill="#000000" fill-rule="nonzero" fill-opacity="1"></path><path clip-path="url(#clip370)" d="M127.431 1004.35 Q123.82 1004.35 121.992 1007.92 Q120.186 1011.46 120.186 1018.59 Q120.186 1025.7 121.992 1029.26 Q123.82 1032.8 127.431 1032.8 Q131.066 1032.8 132.871 1029.26 Q134.7 1025.7 134.7 1018.59 Q134.7 1011.46 132.871 1007.92 Q131.066 1004.35 127.431 1004.35 M127.431 1000.65 Q133.242 1000.65 136.297 1005.26 Q139.376 1009.84 139.376 1018.59 Q139.376 1027.32 136.297 1031.92 Q133.242 1036.51 127.431 1036.51 Q121.621 1036.51 118.543 1031.92 Q115.487 1027.32 115.487 1018.59 Q115.487 1009.84 118.543 1005.26 Q121.621 1000.65 127.431 1000.65 Z" fill="#000000" fill-rule="nonzero" fill-opacity="1"></path><path clip-path="url(#clip370)" d="M147.593 1029.95 L152.478 1029.95 L152.478 1035.83 L147.593 1035.83 L147.593 1029.95 Z" fill="#000000" fill-rule="nonzero" fill-opacity="1"></path><path clip-path="url(#clip370)" d="M163.473 1031.9 L171.112 1031.9 L171.112 1005.53 L162.802 1007.2 L162.802 1002.94 L171.065 1001.27 L175.741 1001.27 L175.741 1031.9 L183.38 1031.9 L183.38 1035.83 L163.473 1035.83 L163.473 1031.9 Z" fill="#000000" fill-rule="nonzero" fill-opacity="1"></path><path clip-path="url(#clip370)" d="M127.802 636.511 Q124.191 636.511 122.362 640.076 Q120.556 643.617 120.556 650.747 Q120.556 657.853 122.362 661.418 Q124.191 664.96 127.802 664.96 Q131.436 664.96 133.242 661.418 Q135.07 657.853 135.07 650.747 Q135.07 643.617 133.242 640.076 Q131.436 636.511 127.802 636.511 M127.802 632.807 Q133.612 632.807 136.667 637.414 Q139.746 641.997 139.746 650.747 Q139.746 659.474 136.667 664.08 Q133.612 668.663 127.802 668.663 Q121.992 668.663 118.913 664.08 Q115.857 659.474 115.857 650.747 Q115.857 641.997 118.913 637.414 Q121.992 632.807 127.802 632.807 Z" fill="#000000" fill-rule="nonzero" fill-opacity="1"></path><path clip-path="url(#clip370)" d="M147.964 662.112 L152.848 662.112 L152.848 667.992 L147.964 667.992 L147.964 662.112 Z" fill="#000000" fill-rule="nonzero" fill-opacity="1"></path><path clip-path="url(#clip370)" d="M167.061 664.057 L183.38 664.057 L183.38 667.992 L161.436 667.992 L161.436 664.057 Q164.098 661.302 168.681 656.673 Q173.288 652.02 174.468 650.677 Q176.714 648.154 177.593 646.418 Q178.496 644.659 178.496 642.969 Q178.496 640.214 176.551 638.478 Q174.63 636.742 171.528 636.742 Q169.329 636.742 166.876 637.506 Q164.445 638.27 161.667 639.821 L161.667 635.099 Q164.491 633.964 166.945 633.386 Q169.399 632.807 171.436 632.807 Q176.806 632.807 180.001 635.492 Q183.195 638.177 183.195 642.668 Q183.195 644.798 182.385 646.719 Q181.598 648.617 179.491 651.21 Q178.913 651.881 175.811 655.099 Q172.709 658.293 167.061 664.057 Z" fill="#000000" fill-rule="nonzero" fill-opacity="1"></path><path clip-path="url(#clip370)" d="M126.853 268.669 Q123.242 268.669 121.413 272.234 Q119.607 275.775 119.607 282.905 Q119.607 290.011 121.413 293.576 Q123.242 297.118 126.853 297.118 Q130.487 297.118 132.292 293.576 Q134.121 290.011 134.121 282.905 Q134.121 275.775 132.292 272.234 Q130.487 268.669 126.853 268.669 M126.853 264.965 Q132.663 264.965 135.718 269.572 Q138.797 274.155 138.797 282.905 Q138.797 291.632 135.718 296.238 Q132.663 300.822 126.853 300.822 Q121.043 300.822 117.964 296.238 Q114.908 291.632 114.908 282.905 Q114.908 274.155 117.964 269.572 Q121.043 264.965 126.853 264.965 Z" fill="#000000" fill-rule="nonzero" fill-opacity="1"></path><path clip-path="url(#clip370)" d="M147.015 294.271 L151.899 294.271 L151.899 300.15 L147.015 300.15 L147.015 294.271 Z" fill="#000000" fill-rule="nonzero" fill-opacity="1"></path><path clip-path="url(#clip370)" d="M176.251 281.516 Q179.607 282.234 181.482 284.502 Q183.38 286.771 183.38 290.104 Q183.38 295.22 179.862 298.021 Q176.343 300.822 169.862 300.822 Q167.686 300.822 165.371 300.382 Q163.079 299.965 160.626 299.109 L160.626 294.595 Q162.57 295.729 164.885 296.308 Q167.2 296.886 169.723 296.886 Q174.121 296.886 176.413 295.15 Q178.727 293.414 178.727 290.104 Q178.727 287.048 176.575 285.336 Q174.445 283.599 170.626 283.599 L166.598 283.599 L166.598 279.757 L170.811 279.757 Q174.26 279.757 176.089 278.391 Q177.917 277.002 177.917 274.41 Q177.917 271.748 176.019 270.336 Q174.144 268.9 170.626 268.9 Q168.704 268.9 166.505 269.317 Q164.306 269.734 161.667 270.613 L161.667 266.447 Q164.329 265.706 166.644 265.336 Q168.982 264.965 171.042 264.965 Q176.366 264.965 179.468 267.396 Q182.57 269.803 182.57 273.924 Q182.57 276.794 180.926 278.785 Q179.283 280.752 176.251 281.516 Z" fill="#000000" fill-rule="nonzero" fill-opacity="1"></path><path clip-path="url(#clip370)" d="M16.4842 1052.05 L16.4842 1011.85 L21.895 1011.85 L21.895 1028.72 L64.0042 1028.72 L64.0042 1035.18 L21.895 1035.18 L21.895 1052.05 L16.4842 1052.05 Z" fill="#000000" fill-rule="nonzero" fill-opacity="1"></path><path clip-path="url(#clip370)" d="M32.4621 1003.16 Q32.4621 1007.87 36.1542 1010.61 Q39.8145 1013.34 46.212 1013.34 Q52.6095 1013.34 56.3017 1010.64 Q59.9619 1007.9 59.9619 1003.16 Q59.9619 998.481 56.2698 995.744 Q52.5777 993.007 46.212 993.007 Q39.8781 993.007 36.186 995.744 Q32.4621 998.481 32.4621 1003.16 M27.4968 1003.16 Q27.4968 995.521 32.4621 991.16 Q37.4273 986.8 46.212 986.8 Q54.9649 986.8 59.9619 991.16 Q64.9272 995.521 64.9272 1003.16 Q64.9272 1010.83 59.9619 1015.19 Q54.9649 1019.52 46.212 1019.52 Q37.4273 1019.52 32.4621 1015.19 Q27.4968 1010.83 27.4968 1003.16 Z" fill="#000000" fill-rule="nonzero" fill-opacity="1"></path><path clip-path="url(#clip370)" d="M18.2347 971.299 L28.3562 971.299 L28.3562 959.236 L32.9077 959.236 L32.9077 971.299 L52.2594 971.299 Q56.6199 971.299 57.8613 970.122 Q59.1026 968.912 59.1026 965.252 L59.1026 959.236 L64.0042 959.236 L64.0042 965.252 Q64.0042 972.032 61.4897 974.61 Q58.9434 977.188 52.2594 977.188 L32.9077 977.188 L32.9077 981.485 L28.3562 981.485 L28.3562 977.188 L18.2347 977.188 L18.2347 971.299 Z" fill="#000000" fill-rule="nonzero" fill-opacity="1"></path><path clip-path="url(#clip370)" d="M46.0847 935.333 Q46.0847 942.431 47.7079 945.168 Q49.3312 947.905 53.2461 947.905 Q56.3653 947.905 58.2114 945.868 Q60.0256 943.8 60.0256 940.267 Q60.0256 935.397 56.5881 932.469 Q53.1188 929.509 47.3897 929.509 L46.0847 929.509 L46.0847 935.333 M43.6657 923.652 L64.0042 923.652 L64.0042 929.509 L58.5933 929.509 Q61.8398 931.514 63.3994 934.506 Q64.9272 937.498 64.9272 941.826 Q64.9272 947.301 61.8716 950.547 Q58.7843 953.762 53.6281 953.762 Q47.6125 953.762 44.5569 949.752 Q41.5014 945.709 41.5014 937.72 L41.5014 929.509 L40.9285 929.509 Q36.8862 929.509 34.6901 932.182 Q32.4621 934.824 32.4621 939.63 Q32.4621 942.686 33.1941 945.582 Q33.9262 948.478 35.3903 951.152 L29.9795 951.152 Q28.7381 947.937 28.1334 944.914 Q27.4968 941.89 27.4968 939.025 Q27.4968 931.291 31.5072 927.472 Q35.5176 923.652 43.6657 923.652 Z" fill="#000000" fill-rule="nonzero" fill-opacity="1"></path><path clip-path="url(#clip370)" d="M14.479 911.589 L14.479 905.733 L64.0042 905.733 L64.0042 911.589 L14.479 911.589 Z" fill="#000000" fill-rule="nonzero" fill-opacity="1"></path><path clip-path="url(#clip370)" d="M16.4842 876.737 L16.4842 870.244 L56.6518 860.25 L16.4842 850.287 L16.4842 843.062 L56.6518 833.068 L16.4842 823.106 L16.4842 816.581 L64.0042 828.517 L64.0042 836.601 L22.7544 846.627 L64.0042 856.749 L64.0042 864.833 L16.4842 876.737 Z" fill="#000000" fill-rule="nonzero" fill-opacity="1"></path><path clip-path="url(#clip370)" d="M28.3562 809.738 L28.3562 803.881 L64.0042 803.881 L64.0042 809.738 L28.3562 809.738 M14.479 809.738 L14.479 803.881 L21.895 803.881 L21.895 809.738 L14.479 809.738 Z" fill="#000000" fill-rule="nonzero" fill-opacity="1"></path><path clip-path="url(#clip370)" d="M14.479 791.627 L14.479 785.771 L64.0042 785.771 L64.0042 791.627 L14.479 791.627 Z" fill="#000000" fill-rule="nonzero" fill-opacity="1"></path><path clip-path="url(#clip370)" d="M33.7671 750.059 L14.479 750.059 L14.479 744.203 L64.0042 744.203 L64.0042 750.059 L58.657 750.059 Q61.8398 751.905 63.3994 754.738 Q64.9272 757.539 64.9272 761.486 Q64.9272 767.947 59.771 772.021 Q54.6147 776.063 46.212 776.063 Q37.8093 776.063 32.6531 772.021 Q27.4968 767.947 27.4968 761.486 Q27.4968 757.539 29.0564 754.738 Q30.5842 751.905 33.7671 750.059 M46.212 770.016 Q52.6732 770.016 56.3653 767.374 Q60.0256 764.7 60.0256 760.053 Q60.0256 755.407 56.3653 752.733 Q52.6732 750.059 46.212 750.059 Q39.7508 750.059 36.0905 752.733 Q32.3984 755.407 32.3984 760.053 Q32.3984 764.7 36.0905 767.374 Q39.7508 770.016 46.212 770.016 Z" fill="#000000" fill-rule="nonzero" fill-opacity="1"></path><path clip-path="url(#clip370)" d="M14.479 714.093 L19.3487 714.093 L19.3487 719.695 Q19.3487 722.846 20.6219 724.087 Q21.895 725.297 25.2052 725.297 L28.3562 725.297 L28.3562 715.653 L32.9077 715.653 L32.9077 725.297 L64.0042 725.297 L64.0042 731.185 L32.9077 731.185 L32.9077 736.787 L28.3562 736.787 L28.3562 731.185 L25.8736 731.185 Q19.9216 731.185 17.2162 728.416 Q14.479 725.647 14.479 719.631 L14.479 714.093 Z" fill="#000000" fill-rule="nonzero" fill-opacity="1"></path><path clip-path="url(#clip370)" d="M28.3562 709.191 L28.3562 703.335 L64.0042 703.335 L64.0042 709.191 L28.3562 709.191 M14.479 709.191 L14.479 703.335 L21.895 703.335 L21.895 709.191 L14.479 709.191 Z" fill="#000000" fill-rule="nonzero" fill-opacity="1"></path><path clip-path="url(#clip370)" d="M33.8307 670.424 Q33.2578 671.411 33.0032 672.589 Q32.7167 673.735 32.7167 675.135 Q32.7167 680.1 35.9632 682.774 Q39.1779 685.416 45.2253 685.416 L64.0042 685.416 L64.0042 691.304 L28.3562 691.304 L28.3562 685.416 L33.8944 685.416 Q30.6479 683.57 29.0883 680.609 Q27.4968 677.649 27.4968 673.416 Q27.4968 672.811 27.5923 672.079 Q27.656 671.347 27.8151 670.456 L33.8307 670.424 Z" fill="#000000" fill-rule="nonzero" fill-opacity="1"></path><path clip-path="url(#clip370)" d="M44.7161 635.222 L47.5806 635.222 L47.5806 662.149 Q53.6281 661.767 56.8109 658.52 Q59.9619 655.242 59.9619 649.418 Q59.9619 646.044 59.1344 642.893 Q58.3069 639.71 56.6518 636.591 L62.1899 636.591 Q63.5267 639.742 64.227 643.052 Q64.9272 646.362 64.9272 649.768 Q64.9272 658.298 59.9619 663.295 Q54.9967 668.26 46.5303 668.26 Q37.7774 668.26 32.6531 663.549 Q27.4968 658.807 27.4968 650.786 Q27.4968 643.593 32.1438 639.423 Q36.7589 635.222 44.7161 635.222 M42.9973 641.078 Q38.1912 641.142 35.3266 643.784 Q32.4621 646.394 32.4621 650.722 Q32.4621 655.624 35.2312 658.584 Q38.0002 661.512 43.0292 661.958 L42.9973 641.078 Z" fill="#000000" fill-rule="nonzero" fill-opacity="1"></path><path clip-path="url(#clip370)" d="M33.8307 584.233 Q33.2578 585.219 33.0032 586.397 Q32.7167 587.543 32.7167 588.943 Q32.7167 593.909 35.9632 596.582 Q39.1779 599.224 45.2253 599.224 L64.0042 599.224 L64.0042 605.112 L28.3562 605.112 L28.3562 599.224 L33.8944 599.224 Q30.6479 597.378 29.0883 594.418 Q27.4968 591.458 27.4968 587.225 Q27.4968 586.62 27.5923 585.888 Q27.656 585.156 27.8151 584.264 L33.8307 584.233 Z" fill="#000000" fill-rule="nonzero" fill-opacity="1"></path><path clip-path="url(#clip370)" d="M28.3562 578.09 L28.3562 572.233 L64.0042 572.233 L64.0042 578.09 L28.3562 578.09 M14.479 578.09 L14.479 572.233 L21.895 572.233 L21.895 578.09 L14.479 578.09 Z" fill="#000000" fill-rule="nonzero" fill-opacity="1"></path><path clip-path="url(#clip370)" d="M29.4065 537.254 L34.9447 537.254 Q33.6716 539.736 33.035 542.41 Q32.3984 545.084 32.3984 547.948 Q32.3984 552.309 33.7352 554.505 Q35.072 556.669 37.7456 556.669 Q39.7826 556.669 40.9603 555.11 Q42.1061 553.55 43.1565 548.839 L43.6021 546.834 Q44.9389 540.596 47.3897 537.986 Q49.8086 535.344 54.1691 535.344 Q59.1344 535.344 62.0308 539.291 Q64.9272 543.206 64.9272 550.081 Q64.9272 552.945 64.3543 556.064 Q63.8132 559.152 62.6992 562.589 L56.6518 562.589 Q58.3387 559.343 59.198 556.192 Q60.0256 553.041 60.0256 549.953 Q60.0256 545.816 58.6251 543.588 Q57.1929 541.36 54.6147 541.36 Q52.2276 541.36 50.9545 542.983 Q49.6813 544.574 48.5037 550.017 L48.0262 552.054 Q46.8804 557.497 44.5251 559.916 Q42.138 562.335 38.0002 562.335 Q32.9713 562.335 30.2341 558.77 Q27.4968 555.205 27.4968 548.648 Q27.4968 545.402 27.9743 542.537 Q28.4517 539.673 29.4065 537.254 Z" fill="#000000" fill-rule="nonzero" fill-opacity="1"></path><path clip-path="url(#clip370)" d="M14.479 526.241 L14.479 520.353 L43.7294 520.353 L28.3562 502.879 L28.3562 495.399 L45.0344 514.305 L64.0042 494.604 L64.0042 502.242 L46.5939 520.353 L64.0042 520.353 L64.0042 526.241 L14.479 526.241 Z" fill="#000000" fill-rule="nonzero" fill-opacity="1"></path><path clip-path="url(#clip370)" d="M385.41 12.096 L436.573 12.096 L436.573 18.9825 L415.103 18.9825 L415.103 72.576 L406.88 72.576 L406.88 18.9825 L385.41 18.9825 L385.41 12.096 Z" fill="#000000" fill-rule="nonzero" fill-opacity="1"></path><path clip-path="url(#clip370)" d="M447.632 32.4315 Q441.637 32.4315 438.153 37.1306 Q434.669 41.7891 434.669 49.9314 Q434.669 58.0738 438.113 62.7728 Q441.596 67.4314 447.632 67.4314 Q453.587 67.4314 457.071 62.7323 Q460.555 58.0333 460.555 49.9314 Q460.555 41.8701 457.071 37.1711 Q453.587 32.4315 447.632 32.4315 M447.632 26.1121 Q457.354 26.1121 462.904 32.4315 Q468.454 38.7509 468.454 49.9314 Q468.454 61.0714 462.904 67.4314 Q457.354 73.7508 447.632 73.7508 Q437.869 73.7508 432.32 67.4314 Q426.81 61.0714 426.81 49.9314 Q426.81 38.7509 432.32 32.4315 Q437.869 26.1121 447.632 26.1121 Z" fill="#000000" fill-rule="nonzero" fill-opacity="1"></path><path clip-path="url(#clip370)" d="M488.182 14.324 L488.182 27.2059 L503.535 27.2059 L503.535 32.9987 L488.182 32.9987 L488.182 57.6282 Q488.182 63.1779 489.681 64.7578 Q491.22 66.3376 495.878 66.3376 L503.535 66.3376 L503.535 72.576 L495.878 72.576 Q487.25 72.576 483.969 69.3758 Q480.688 66.1351 480.688 57.6282 L480.688 32.9987 L475.219 32.9987 L475.219 27.2059 L480.688 27.2059 L480.688 14.324 L488.182 14.324 Z" fill="#000000" fill-rule="nonzero" fill-opacity="1"></path><path clip-path="url(#clip370)" d="M533.957 49.7694 Q524.923 49.7694 521.44 51.8354 Q517.956 53.9013 517.956 58.8839 Q517.956 62.8538 520.548 65.2034 Q523.181 67.5124 527.678 67.5124 Q533.876 67.5124 537.603 63.1374 Q541.37 58.7219 541.37 51.4303 L541.37 49.7694 L533.957 49.7694 M548.824 46.6907 L548.824 72.576 L541.37 72.576 L541.37 65.6895 Q538.818 69.8214 535.01 71.8063 Q531.202 73.7508 525.693 73.7508 Q518.725 73.7508 514.594 69.8619 Q510.502 65.9325 510.502 59.3701 Q510.502 51.7138 515.606 47.825 Q520.751 43.9361 530.919 43.9361 L541.37 43.9361 L541.37 43.2069 Q541.37 38.0623 537.967 35.2672 Q534.605 32.4315 528.488 32.4315 Q524.599 32.4315 520.913 33.3632 Q517.227 34.295 513.824 36.1584 L513.824 29.2718 Q517.915 27.692 521.764 26.9223 Q525.612 26.1121 529.258 26.1121 Q539.102 26.1121 543.963 31.2163 Q548.824 36.3204 548.824 46.6907 Z" fill="#000000" fill-rule="nonzero" fill-opacity="1"></path><path clip-path="url(#clip370)" d="M564.177 9.54393 L571.63 9.54393 L571.63 72.576 L564.177 72.576 L564.177 9.54393 Z" fill="#000000" fill-rule="nonzero" fill-opacity="1"></path><path clip-path="url(#clip370)" d="M642.602 44.2197 Q645.235 45.1109 647.706 48.0275 Q650.218 50.9442 652.729 56.0483 L661.034 72.576 L652.243 72.576 L644.506 57.061 Q641.508 50.9847 638.673 48.9997 Q635.878 47.0148 631.017 47.0148 L622.105 47.0148 L622.105 72.576 L613.922 72.576 L613.922 12.096 L632.394 12.096 Q642.764 12.096 647.868 16.4305 Q652.972 20.7649 652.972 29.5149 Q652.972 35.2267 650.299 38.994 Q647.666 42.7613 642.602 44.2197 M622.105 18.8205 L622.105 40.2903 L632.394 40.2903 Q638.308 40.2903 641.306 37.5762 Q644.344 34.8216 644.344 29.5149 Q644.344 24.2082 641.306 21.5346 Q638.308 18.8205 632.394 18.8205 L622.105 18.8205 Z" fill="#000000" fill-rule="nonzero" fill-opacity="1"></path><path clip-path="url(#clip370)" d="M671.242 27.2059 L678.696 27.2059 L678.696 72.576 L671.242 72.576 L671.242 27.2059 M671.242 9.54393 L678.696 9.54393 L678.696 18.9825 L671.242 18.9825 L671.242 9.54393 Z" fill="#000000" fill-rule="nonzero" fill-opacity="1"></path><path clip-path="url(#clip370)" d="M723.215 28.5427 L723.215 35.5912 Q720.055 33.9709 716.653 33.1607 Q713.25 32.3505 709.604 32.3505 Q704.054 32.3505 701.259 34.0519 Q698.505 35.7533 698.505 39.156 Q698.505 41.7486 700.49 43.2475 Q702.475 44.7058 708.47 46.0426 L711.022 46.6097 Q718.962 48.3111 722.283 51.4303 Q725.646 54.509 725.646 60.0587 Q725.646 66.3781 720.623 70.0644 Q715.64 73.7508 706.89 73.7508 Q703.244 73.7508 699.274 73.0216 Q695.345 72.3329 690.97 70.9151 L690.97 63.2184 Q695.102 65.3654 699.112 66.4591 Q703.123 67.5124 707.052 67.5124 Q712.318 67.5124 715.154 65.73 Q717.989 63.9071 717.989 60.6258 Q717.989 57.5877 715.924 55.9673 Q713.898 54.3469 706.971 52.8481 L704.378 52.2405 Q697.451 50.7821 694.373 47.7845 Q691.294 44.7463 691.294 39.4801 Q691.294 33.0797 695.831 29.5959 Q700.368 26.1121 708.713 26.1121 Q712.845 26.1121 716.491 26.7198 Q720.136 27.3274 723.215 28.5427 Z" fill="#000000" fill-rule="nonzero" fill-opacity="1"></path><path clip-path="url(#clip370)" d="M737.231 9.54393 L744.725 9.54393 L744.725 46.7717 L766.965 27.2059 L776.485 27.2059 L752.422 48.4326 L777.497 72.576 L767.775 72.576 L744.725 50.4176 L744.725 72.576 L737.231 72.576 L737.231 9.54393 Z" fill="#000000" fill-rule="nonzero" fill-opacity="1"></path><path clip-path="url(#clip370)" d="M827.85 72.576 L804.76 12.096 L813.307 12.096 L832.468 63.0159 L851.669 12.096 L860.176 12.096 L837.127 72.576 L827.85 72.576 Z" fill="#000000" fill-rule="nonzero" fill-opacity="1"></path><path clip-path="url(#clip370)" d="M905.263 14.0809 L905.263 22.0612 Q900.604 19.8332 896.472 18.7395 Q892.34 17.6457 888.492 17.6457 Q881.808 17.6457 878.162 20.2383 Q874.557 22.8309 874.557 27.611 Q874.557 31.6214 876.947 33.6873 Q879.378 35.7128 886.102 36.9686 L891.044 37.9813 Q900.199 39.7232 904.534 44.1387 Q908.909 48.5136 908.909 55.8863 Q908.909 64.6767 902.994 69.2137 Q897.12 73.7508 885.737 73.7508 Q881.443 73.7508 876.582 72.7785 Q871.762 71.8063 866.577 69.9024 L866.577 61.4765 Q871.559 64.2716 876.339 65.6895 Q881.119 67.1073 885.737 67.1073 Q892.745 67.1073 896.553 64.3527 Q900.361 61.598 900.361 56.4939 Q900.361 52.0379 897.607 49.5264 Q894.892 47.0148 888.654 45.759 L883.671 44.7868 Q874.516 42.9639 870.425 39.075 Q866.334 35.1862 866.334 28.2591 Q866.334 20.2383 871.964 15.6203 Q877.636 11.0023 887.56 11.0023 Q891.814 11.0023 896.229 11.7719 Q900.645 12.5416 905.263 14.0809 Z" fill="#000000" fill-rule="nonzero" fill-opacity="1"></path><path clip-path="url(#clip370)" d="M939.655 12.096 L990.818 12.096 L990.818 18.9825 L969.348 18.9825 L969.348 72.576 L961.125 72.576 L961.125 18.9825 L939.655 18.9825 L939.655 12.096 Z" fill="#000000" fill-rule="nonzero" fill-opacity="1"></path><path clip-path="url(#clip370)" d="M1001.88 32.4315 Q995.882 32.4315 992.398 37.1306 Q988.914 41.7891 988.914 49.9314 Q988.914 58.0738 992.357 62.7728 Q995.841 67.4314 1001.88 67.4314 Q1007.83 67.4314 1011.32 62.7323 Q1014.8 58.0333 1014.8 49.9314 Q1014.8 41.8701 1011.32 37.1711 Q1007.83 32.4315 1001.88 32.4315 M1001.88 26.1121 Q1011.6 26.1121 1017.15 32.4315 Q1022.7 38.7509 1022.7 49.9314 Q1022.7 61.0714 1017.15 67.4314 Q1011.6 73.7508 1001.88 73.7508 Q992.114 73.7508 986.564 67.4314 Q981.055 61.0714 981.055 49.9314 Q981.055 38.7509 986.564 32.4315 Q992.114 26.1121 1001.88 26.1121 Z" fill="#000000" fill-rule="nonzero" fill-opacity="1"></path><path clip-path="url(#clip370)" d="M1042.43 14.324 L1042.43 27.2059 L1057.78 27.2059 L1057.78 32.9987 L1042.43 32.9987 L1042.43 57.6282 Q1042.43 63.1779 1043.93 64.7578 Q1045.46 66.3376 1050.12 66.3376 L1057.78 66.3376 L1057.78 72.576 L1050.12 72.576 Q1041.49 72.576 1038.21 69.3758 Q1034.93 66.1351 1034.93 57.6282 L1034.93 32.9987 L1029.46 32.9987 L1029.46 27.2059 L1034.93 27.2059 L1034.93 14.324 L1042.43 14.324 Z" fill="#000000" fill-rule="nonzero" fill-opacity="1"></path><path clip-path="url(#clip370)" d="M1088.2 49.7694 Q1079.17 49.7694 1075.68 51.8354 Q1072.2 53.9013 1072.2 58.8839 Q1072.2 62.8538 1074.79 65.2034 Q1077.43 67.5124 1081.92 67.5124 Q1088.12 67.5124 1091.85 63.1374 Q1095.61 58.7219 1095.61 51.4303 L1095.61 49.7694 L1088.2 49.7694 M1103.07 46.6907 L1103.07 72.576 L1095.61 72.576 L1095.61 65.6895 Q1093.06 69.8214 1089.25 71.8063 Q1085.45 73.7508 1079.94 73.7508 Q1072.97 73.7508 1068.84 69.8619 Q1064.75 65.9325 1064.75 59.3701 Q1064.75 51.7138 1069.85 47.825 Q1075 43.9361 1085.16 43.9361 L1095.61 43.9361 L1095.61 43.2069 Q1095.61 38.0623 1092.21 35.2672 Q1088.85 32.4315 1082.73 32.4315 Q1078.84 32.4315 1075.16 33.3632 Q1071.47 34.295 1068.07 36.1584 L1068.07 29.2718 Q1072.16 27.692 1076.01 26.9223 Q1079.86 26.1121 1083.5 26.1121 Q1093.35 26.1121 1098.21 31.2163 Q1103.07 36.3204 1103.07 46.6907 Z" fill="#000000" fill-rule="nonzero" fill-opacity="1"></path><path clip-path="url(#clip370)" d="M1118.42 9.54393 L1125.88 9.54393 L1125.88 72.576 L1118.42 72.576 L1118.42 9.54393 Z" fill="#000000" fill-rule="nonzero" fill-opacity="1"></path><path clip-path="url(#clip370)" d="M1168.17 12.096 L1176.35 12.096 L1176.35 65.6895 L1205.8 65.6895 L1205.8 72.576 L1168.17 72.576 L1168.17 12.096 Z" fill="#000000" fill-rule="nonzero" fill-opacity="1"></path><path clip-path="url(#clip370)" d="M1230.19 32.4315 Q1224.19 32.4315 1220.71 37.1306 Q1217.22 41.7891 1217.22 49.9314 Q1217.22 58.0738 1220.67 62.7728 Q1224.15 67.4314 1230.19 67.4314 Q1236.14 67.4314 1239.62 62.7323 Q1243.11 58.0333 1243.11 49.9314 Q1243.11 41.8701 1239.62 37.1711 Q1236.14 32.4315 1230.19 32.4315 M1230.19 26.1121 Q1239.91 26.1121 1245.46 32.4315 Q1251.01 38.7509 1251.01 49.9314 Q1251.01 61.0714 1245.46 67.4314 Q1239.91 73.7508 1230.19 73.7508 Q1220.42 73.7508 1214.87 67.4314 Q1209.36 61.0714 1209.36 49.9314 Q1209.36 38.7509 1214.87 32.4315 Q1220.42 26.1121 1230.19 26.1121 Z" fill="#000000" fill-rule="nonzero" fill-opacity="1"></path><path clip-path="url(#clip370)" d="M1283.98 49.7694 Q1274.95 49.7694 1271.46 51.8354 Q1267.98 53.9013 1267.98 58.8839 Q1267.98 62.8538 1270.57 65.2034 Q1273.21 67.5124 1277.7 67.5124 Q1283.9 67.5124 1287.63 63.1374 Q1291.39 58.7219 1291.39 51.4303 L1291.39 49.7694 L1283.98 49.7694 M1298.85 46.6907 L1298.85 72.576 L1291.39 72.576 L1291.39 65.6895 Q1288.84 69.8214 1285.04 71.8063 Q1281.23 73.7508 1275.72 73.7508 Q1268.75 73.7508 1264.62 69.8619 Q1260.53 65.9325 1260.53 59.3701 Q1260.53 51.7138 1265.63 47.825 Q1270.78 43.9361 1280.94 43.9361 L1291.39 43.9361 L1291.39 43.2069 Q1291.39 38.0623 1287.99 35.2672 Q1284.63 32.4315 1278.51 32.4315 Q1274.62 32.4315 1270.94 33.3632 Q1267.25 34.295 1263.85 36.1584 L1263.85 29.2718 Q1267.94 27.692 1271.79 26.9223 Q1275.64 26.1121 1279.28 26.1121 Q1289.13 26.1121 1293.99 31.2163 Q1298.85 36.3204 1298.85 46.6907 Z" fill="#000000" fill-rule="nonzero" fill-opacity="1"></path><path clip-path="url(#clip370)" d="M1344.06 34.0924 L1344.06 9.54393 L1351.51 9.54393 L1351.51 72.576 L1344.06 72.576 L1344.06 65.7705 Q1341.71 69.8214 1338.1 71.8063 Q1334.54 73.7508 1329.51 73.7508 Q1321.29 73.7508 1316.11 67.1883 Q1310.96 60.6258 1310.96 49.9314 Q1310.96 39.2371 1316.11 32.6746 Q1321.29 26.1121 1329.51 26.1121 Q1334.54 26.1121 1338.1 28.0971 Q1341.71 30.0415 1344.06 34.0924 M1318.66 49.9314 Q1318.66 58.1548 1322.02 62.8538 Q1325.42 67.5124 1331.34 67.5124 Q1337.25 67.5124 1340.65 62.8538 Q1344.06 58.1548 1344.06 49.9314 Q1344.06 41.7081 1340.65 37.0496 Q1337.25 32.3505 1331.34 32.3505 Q1325.42 32.3505 1322.02 37.0496 Q1318.66 41.7081 1318.66 49.9314 Z" fill="#000000" fill-rule="nonzero" fill-opacity="1"></path><path clip-path="url(#clip370)" d="M1429.81 14.0809 L1429.81 22.0612 Q1425.16 19.8332 1421.02 18.7395 Q1416.89 17.6457 1413.04 17.6457 Q1406.36 17.6457 1402.71 20.2383 Q1399.11 22.8309 1399.11 27.611 Q1399.11 31.6214 1401.5 33.6873 Q1403.93 35.7128 1410.65 36.9686 L1415.6 37.9813 Q1424.75 39.7232 1429.09 44.1387 Q1433.46 48.5136 1433.46 55.8863 Q1433.46 64.6767 1427.55 69.2137 Q1421.67 73.7508 1410.29 73.7508 Q1406 73.7508 1401.13 72.7785 Q1396.31 71.8063 1391.13 69.9024 L1391.13 61.4765 Q1396.11 64.2716 1400.89 65.6895 Q1405.67 67.1073 1410.29 67.1073 Q1417.3 67.1073 1421.1 64.3527 Q1424.91 61.598 1424.91 56.4939 Q1424.91 52.0379 1422.16 49.5264 Q1419.44 47.0148 1413.21 45.759 L1408.22 44.7868 Q1399.07 42.9639 1394.98 39.075 Q1390.89 35.1862 1390.89 28.2591 Q1390.89 20.2383 1396.52 15.6203 Q1402.19 11.0023 1412.11 11.0023 Q1416.37 11.0023 1420.78 11.7719 Q1425.2 12.5416 1429.81 14.0809 Z" fill="#000000" fill-rule="nonzero" fill-opacity="1"></path><path clip-path="url(#clip370)" d="M1483.61 45.1919 L1483.61 72.576 L1476.16 72.576 L1476.16 45.4349 Q1476.16 38.994 1473.65 35.7938 Q1471.13 32.5936 1466.11 32.5936 Q1460.07 32.5936 1456.59 36.4419 Q1453.11 40.2903 1453.11 46.9338 L1453.11 72.576 L1445.61 72.576 L1445.61 9.54393 L1453.11 9.54393 L1453.11 34.2544 Q1455.78 30.163 1459.39 28.1376 Q1463.03 26.1121 1467.77 26.1121 Q1475.59 26.1121 1479.6 30.9732 Q1483.61 35.7938 1483.61 45.1919 Z" fill="#000000" fill-rule="nonzero" fill-opacity="1"></path><path clip-path="url(#clip370)" d="M1537.28 48.0275 L1537.28 51.6733 L1503.01 51.6733 Q1503.5 59.3701 1507.63 63.421 Q1511.8 67.4314 1519.22 67.4314 Q1523.51 67.4314 1527.52 66.3781 Q1531.57 65.3249 1535.54 63.2184 L1535.54 70.267 Q1531.53 71.9684 1527.32 72.8596 Q1523.11 73.7508 1518.77 73.7508 Q1507.92 73.7508 1501.56 67.4314 Q1495.24 61.1119 1495.24 50.3365 Q1495.24 39.1965 1501.23 32.6746 Q1507.27 26.1121 1517.48 26.1121 Q1526.63 26.1121 1531.94 32.0264 Q1537.28 37.9003 1537.28 48.0275 M1529.83 45.84 Q1529.75 39.7232 1526.39 36.0774 Q1523.07 32.4315 1517.56 32.4315 Q1511.32 32.4315 1507.55 35.9558 Q1503.82 39.4801 1503.26 45.8805 L1529.83 45.84 Z" fill="#000000" fill-rule="nonzero" fill-opacity="1"></path><path clip-path="url(#clip370)" d="M1579.37 34.0924 L1579.37 9.54393 L1586.83 9.54393 L1586.83 72.576 L1579.37 72.576 L1579.37 65.7705 Q1577.02 69.8214 1573.42 71.8063 Q1569.85 73.7508 1564.83 73.7508 Q1556.61 73.7508 1551.42 67.1883 Q1546.28 60.6258 1546.28 49.9314 Q1546.28 39.2371 1551.42 32.6746 Q1556.61 26.1121 1564.83 26.1121 Q1569.85 26.1121 1573.42 28.0971 Q1577.02 30.0415 1579.37 34.0924 M1553.97 49.9314 Q1553.97 58.1548 1557.34 62.8538 Q1560.74 67.5124 1566.65 67.5124 Q1572.57 67.5124 1575.97 62.8538 Q1579.37 58.1548 1579.37 49.9314 Q1579.37 41.7081 1575.97 37.0496 Q1572.57 32.3505 1566.65 32.3505 Q1560.74 32.3505 1557.34 37.0496 Q1553.97 41.7081 1553.97 49.9314 Z" fill="#000000" fill-rule="nonzero" fill-opacity="1"></path><path clip-path="url(#clip370)" d="M1651.52 9.54393 L1651.52 15.7418 L1644.39 15.7418 Q1640.38 15.7418 1638.8 17.3622 Q1637.26 18.9825 1637.26 23.1955 L1637.26 27.2059 L1649.54 27.2059 L1649.54 32.9987 L1637.26 32.9987 L1637.26 72.576 L1629.77 72.576 L1629.77 32.9987 L1622.64 32.9987 L1622.64 27.2059 L1629.77 27.2059 L1629.77 24.0462 Q1629.77 16.471 1633.29 13.0277 Q1636.82 9.54393 1644.47 9.54393 L1651.52 9.54393 Z" fill="#000000" fill-rule="nonzero" fill-opacity="1"></path><path clip-path="url(#clip370)" d="M1675.34 32.4315 Q1669.34 32.4315 1665.86 37.1306 Q1662.38 41.7891 1662.38 49.9314 Q1662.38 58.0738 1665.82 62.7728 Q1669.3 67.4314 1675.34 67.4314 Q1681.29 67.4314 1684.78 62.7323 Q1688.26 58.0333 1688.26 49.9314 Q1688.26 41.8701 1684.78 37.1711 Q1681.29 32.4315 1675.34 32.4315 M1675.34 26.1121 Q1685.06 26.1121 1690.61 32.4315 Q1696.16 38.7509 1696.16 49.9314 Q1696.16 61.0714 1690.61 67.4314 Q1685.06 73.7508 1675.34 73.7508 Q1665.58 73.7508 1660.03 67.4314 Q1654.52 61.0714 1654.52 49.9314 Q1654.52 38.7509 1660.03 32.4315 Q1665.58 26.1121 1675.34 26.1121 Z" fill="#000000" fill-rule="nonzero" fill-opacity="1"></path><path clip-path="url(#clip370)" d="M1734.81 34.1734 Q1733.55 33.4443 1732.05 33.1202 Q1730.59 32.7556 1728.81 32.7556 Q1722.49 32.7556 1719.09 36.8875 Q1715.73 40.9789 1715.73 48.6757 L1715.73 72.576 L1708.23 72.576 L1708.23 27.2059 L1715.73 27.2059 L1715.73 34.2544 Q1718.08 30.1225 1721.84 28.1376 Q1725.61 26.1121 1731 26.1121 Q1731.77 26.1121 1732.7 26.2337 Q1733.63 26.3147 1734.77 26.5172 L1734.81 34.1734 Z" fill="#000000" fill-rule="nonzero" fill-opacity="1"></path><path clip-path="url(#clip370)" d="M1801.57 49.9314 Q1801.57 41.7081 1798.16 37.0496 Q1794.8 32.3505 1788.89 32.3505 Q1782.97 32.3505 1779.57 37.0496 Q1776.21 41.7081 1776.21 49.9314 Q1776.21 58.1548 1779.57 62.8538 Q1782.97 67.5124 1788.89 67.5124 Q1794.8 67.5124 1798.16 62.8538 Q1801.57 58.1548 1801.57 49.9314 M1776.21 34.0924 Q1778.56 30.0415 1782.12 28.0971 Q1785.73 26.1121 1790.71 26.1121 Q1798.97 26.1121 1804.12 32.6746 Q1809.3 39.2371 1809.3 49.9314 Q1809.3 60.6258 1804.12 67.1883 Q1798.97 73.7508 1790.71 73.7508 Q1785.73 73.7508 1782.12 71.8063 Q1778.56 69.8214 1776.21 65.7705 L1776.21 72.576 L1768.71 72.576 L1768.71 9.54393 L1776.21 9.54393 L1776.21 34.0924 Z" fill="#000000" fill-rule="nonzero" fill-opacity="1"></path><path clip-path="url(#clip370)" d="M1842.28 49.7694 Q1833.24 49.7694 1829.76 51.8354 Q1826.28 53.9013 1826.28 58.8839 Q1826.28 62.8538 1828.87 65.2034 Q1831.5 67.5124 1836 67.5124 Q1842.2 67.5124 1845.92 63.1374 Q1849.69 58.7219 1849.69 51.4303 L1849.69 49.7694 L1842.28 49.7694 M1857.14 46.6907 L1857.14 72.576 L1849.69 72.576 L1849.69 65.6895 Q1847.14 69.8214 1843.33 71.8063 Q1839.52 73.7508 1834.01 73.7508 Q1827.05 73.7508 1822.91 69.8619 Q1818.82 65.9325 1818.82 59.3701 Q1818.82 51.7138 1823.93 47.825 Q1829.07 43.9361 1839.24 43.9361 L1849.69 43.9361 L1849.69 43.2069 Q1849.69 38.0623 1846.29 35.2672 Q1842.93 32.4315 1836.81 32.4315 Q1832.92 32.4315 1829.23 33.3632 Q1825.55 34.295 1822.14 36.1584 L1822.14 29.2718 Q1826.24 27.692 1830.08 26.9223 Q1833.93 26.1121 1837.58 26.1121 Q1847.42 26.1121 1852.28 31.2163 Q1857.14 36.3204 1857.14 46.6907 Z" fill="#000000" fill-rule="nonzero" fill-opacity="1"></path><path clip-path="url(#clip370)" d="M1901.42 28.5427 L1901.42 35.5912 Q1898.26 33.9709 1894.86 33.1607 Q1891.46 32.3505 1887.81 32.3505 Q1882.26 32.3505 1879.46 34.0519 Q1876.71 35.7533 1876.71 39.156 Q1876.71 41.7486 1878.7 43.2475 Q1880.68 44.7058 1886.68 46.0426 L1889.23 46.6097 Q1897.17 48.3111 1900.49 51.4303 Q1903.85 54.509 1903.85 60.0587 Q1903.85 66.3781 1898.83 70.0644 Q1893.85 73.7508 1885.1 73.7508 Q1881.45 73.7508 1877.48 73.0216 Q1873.55 72.3329 1869.18 70.9151 L1869.18 63.2184 Q1873.31 65.3654 1877.32 66.4591 Q1881.33 67.5124 1885.26 67.5124 Q1890.52 67.5124 1893.36 65.73 Q1896.19 63.9071 1896.19 60.6258 Q1896.19 57.5877 1894.13 55.9673 Q1892.1 54.3469 1885.18 52.8481 L1882.58 52.2405 Q1875.66 50.7821 1872.58 47.7845 Q1869.5 44.7463 1869.5 39.4801 Q1869.5 33.0797 1874.04 29.5959 Q1878.57 26.1121 1886.92 26.1121 Q1891.05 26.1121 1894.7 26.7198 Q1898.34 27.3274 1901.42 28.5427 Z" fill="#000000" fill-rule="nonzero" fill-opacity="1"></path><path clip-path="url(#clip370)" d="M1954.53 48.0275 L1954.53 51.6733 L1920.26 51.6733 Q1920.74 59.3701 1924.88 63.421 Q1929.05 67.4314 1936.46 67.4314 Q1940.75 67.4314 1944.77 66.3781 Q1948.82 65.3249 1952.79 63.2184 L1952.79 70.267 Q1948.78 71.9684 1944.56 72.8596 Q1940.35 73.7508 1936.02 73.7508 Q1925.16 73.7508 1918.8 67.4314 Q1912.48 61.1119 1912.48 50.3365 Q1912.48 39.1965 1918.47 32.6746 Q1924.51 26.1121 1934.72 26.1121 Q1943.87 26.1121 1949.18 32.0264 Q1954.53 37.9003 1954.53 48.0275 M1947.07 45.84 Q1946.99 39.7232 1943.63 36.0774 Q1940.31 32.4315 1934.8 32.4315 Q1928.56 32.4315 1924.79 35.9558 Q1921.07 39.4801 1920.5 45.8805 L1947.07 45.84 Z" fill="#000000" fill-rule="nonzero" fill-opacity="1"></path><path clip-path="url(#clip370)" d="M2001.23 86.3491 L2001.23 92.1419 L1958.13 92.1419 L1958.13 86.3491 L2001.23 86.3491 Z" fill="#000000" fill-rule="nonzero" fill-opacity="1"></path><path clip-path="url(#clip370)" d="M2040.89 28.9478 L2040.89 35.9153 Q2037.73 34.1734 2034.53 33.3227 Q2031.37 32.4315 2028.13 32.4315 Q2020.88 32.4315 2016.87 37.0496 Q2012.86 41.6271 2012.86 49.9314 Q2012.86 58.2358 2016.87 62.8538 Q2020.88 67.4314 2028.13 67.4314 Q2031.37 67.4314 2034.53 66.5807 Q2037.73 65.6895 2040.89 63.9476 L2040.89 70.8341 Q2037.77 72.2924 2034.41 73.0216 Q2031.09 73.7508 2027.32 73.7508 Q2017.07 73.7508 2011.04 67.3098 Q2005 60.8689 2005 49.9314 Q2005 38.832 2011.08 32.472 Q2017.2 26.1121 2027.81 26.1121 Q2031.25 26.1121 2034.53 26.8413 Q2037.81 27.5299 2040.89 28.9478 Z" fill="#000000" fill-rule="nonzero" fill-opacity="1"></path><path clip-path="url(#clip370)" d="M2074.48 49.7694 Q2065.44 49.7694 2061.96 51.8354 Q2058.47 53.9013 2058.47 58.8839 Q2058.47 62.8538 2061.07 65.2034 Q2063.7 67.5124 2068.2 67.5124 Q2074.39 67.5124 2078.12 63.1374 Q2081.89 58.7219 2081.89 51.4303 L2081.89 49.7694 L2074.48 49.7694 M2089.34 46.6907 L2089.34 72.576 L2081.89 72.576 L2081.89 65.6895 Q2079.34 69.8214 2075.53 71.8063 Q2071.72 73.7508 2066.21 73.7508 Q2059.24 73.7508 2055.11 69.8619 Q2051.02 65.9325 2051.02 59.3701 Q2051.02 51.7138 2056.12 47.825 Q2061.27 43.9361 2071.44 43.9361 L2081.89 43.9361 L2081.89 43.2069 Q2081.89 38.0623 2078.49 35.2672 Q2075.12 32.4315 2069.01 32.4315 Q2065.12 32.4315 2061.43 33.3632 Q2057.75 34.295 2054.34 36.1584 L2054.34 29.2718 Q2058.43 27.692 2062.28 26.9223 Q2066.13 26.1121 2069.78 26.1121 Q2079.62 26.1121 2084.48 31.2163 Q2089.34 36.3204 2089.34 46.6907 Z" fill="#000000" fill-rule="nonzero" fill-opacity="1"></path><path clip-path="url(#clip370)" d="M2133.62 28.5427 L2133.62 35.5912 Q2130.46 33.9709 2127.06 33.1607 Q2123.65 32.3505 2120.01 32.3505 Q2114.46 32.3505 2111.66 34.0519 Q2108.91 35.7533 2108.91 39.156 Q2108.91 41.7486 2110.89 43.2475 Q2112.88 44.7058 2118.87 46.0426 L2121.43 46.6097 Q2129.37 48.3111 2132.69 51.4303 Q2136.05 54.509 2136.05 60.0587 Q2136.05 66.3781 2131.03 70.0644 Q2126.04 73.7508 2117.29 73.7508 Q2113.65 73.7508 2109.68 73.0216 Q2105.75 72.3329 2101.37 70.9151 L2101.37 63.2184 Q2105.51 65.3654 2109.52 66.4591 Q2113.53 67.5124 2117.46 67.5124 Q2122.72 67.5124 2125.56 65.73 Q2128.39 63.9071 2128.39 60.6258 Q2128.39 57.5877 2126.33 55.9673 Q2124.3 54.3469 2117.37 52.8481 L2114.78 52.2405 Q2107.85 50.7821 2104.78 47.7845 Q2101.7 44.7463 2101.7 39.4801 Q2101.7 33.0797 2106.23 29.5959 Q2110.77 26.1121 2119.12 26.1121 Q2123.25 26.1121 2126.89 26.7198 Q2130.54 27.3274 2133.62 28.5427 Z" fill="#000000" fill-rule="nonzero" fill-opacity="1"></path><path clip-path="url(#clip370)" d="M2186.73 48.0275 L2186.73 51.6733 L2152.46 51.6733 Q2152.94 59.3701 2157.07 63.421 Q2161.25 67.4314 2168.66 67.4314 Q2172.95 67.4314 2176.96 66.3781 Q2181.01 65.3249 2184.98 63.2184 L2184.98 70.267 Q2180.97 71.9684 2176.76 72.8596 Q2172.55 73.7508 2168.21 73.7508 Q2157.36 73.7508 2151 67.4314 Q2144.68 61.1119 2144.68 50.3365 Q2144.68 39.1965 2150.67 32.6746 Q2156.71 26.1121 2166.92 26.1121 Q2176.07 26.1121 2181.38 32.0264 Q2186.73 37.9003 2186.73 48.0275 M2179.27 45.84 Q2179.19 39.7232 2175.83 36.0774 Q2172.51 32.4315 2167 32.4315 Q2160.76 32.4315 2156.99 35.9558 Q2153.27 39.4801 2152.7 45.8805 L2179.27 45.84 Z" fill="#000000" fill-rule="nonzero" fill-opacity="1"></path><polyline clip-path="url(#clip372)" style="stroke:#009af9; stroke-linecap:round; stroke-linejoin:round; stroke-width:4; stroke-opacity:1; fill:none" points="279.759,160.256 279.759,160.256 1902.83,773.326 1902.83,773.326 2224.78,773.326 2292.38,1386.4 "></polyline>
<path clip-path="url(#clip370)" d="M1844.26 270.476 L2281.64 270.476 L2281.64 166.796 L1844.26 166.796  Z" fill="#ffffff" fill-rule="evenodd" fill-opacity="1"></path>
<polyline clip-path="url(#clip370)" style="stroke:#000000; stroke-linecap:round; stroke-linejoin:round; stroke-width:4; stroke-opacity:1; fill:none" points="1844.26,270.476 2281.64,270.476 2281.64,166.796 1844.26,166.796 1844.26,270.476 "></polyline>
<polyline clip-path="url(#clip370)" style="stroke:#009af9; stroke-linecap:round; stroke-linejoin:round; stroke-width:4; stroke-opacity:1; fill:none" points="1867.96,218.636 2010.19,218.636 "></polyline>
<path clip-path="url(#clip370)" d="M2033.89 201.356 L2063.13 201.356 L2063.13 205.291 L2050.86 205.291 L2050.86 235.916 L2046.16 235.916 L2046.16 205.291 L2033.89 205.291 L2033.89 201.356 Z" fill="#000000" fill-rule="nonzero" fill-opacity="1"></path><path clip-path="url(#clip370)" d="M2069.44 212.976 Q2066.02 212.976 2064.03 215.661 Q2062.04 218.323 2062.04 222.976 Q2062.04 227.629 2064.01 230.314 Q2066 232.976 2069.44 232.976 Q2072.85 232.976 2074.84 230.291 Q2076.83 227.606 2076.83 222.976 Q2076.83 218.37 2074.84 215.684 Q2072.85 212.976 2069.44 212.976 M2069.44 209.365 Q2075 209.365 2078.17 212.976 Q2081.34 216.587 2081.34 222.976 Q2081.34 229.342 2078.17 232.976 Q2075 236.587 2069.44 236.587 Q2063.87 236.587 2060.69 232.976 Q2057.55 229.342 2057.55 222.976 Q2057.55 216.587 2060.69 212.976 Q2063.87 209.365 2069.44 209.365 Z" fill="#000000" fill-rule="nonzero" fill-opacity="1"></path><path clip-path="url(#clip370)" d="M2092.62 202.629 L2092.62 209.99 L2101.39 209.99 L2101.39 213.3 L2092.62 213.3 L2092.62 227.374 Q2092.62 230.545 2093.47 231.448 Q2094.35 232.351 2097.01 232.351 L2101.39 232.351 L2101.39 235.916 L2097.01 235.916 Q2092.08 235.916 2090.21 234.087 Q2088.33 232.235 2088.33 227.374 L2088.33 213.3 L2085.21 213.3 L2085.21 209.99 L2088.33 209.99 L2088.33 202.629 L2092.62 202.629 Z" fill="#000000" fill-rule="nonzero" fill-opacity="1"></path><path clip-path="url(#clip370)" d="M2118.77 222.883 Q2113.61 222.883 2111.62 224.064 Q2109.63 225.244 2109.63 228.092 Q2109.63 230.36 2111.11 231.703 Q2112.62 233.022 2115.19 233.022 Q2118.73 233.022 2120.86 230.522 Q2123.01 227.999 2123.01 223.832 L2123.01 222.883 L2118.77 222.883 M2127.27 221.124 L2127.27 235.916 L2123.01 235.916 L2123.01 231.981 Q2121.55 234.342 2119.38 235.476 Q2117.2 236.587 2114.05 236.587 Q2110.07 236.587 2107.71 234.365 Q2105.37 232.119 2105.37 228.369 Q2105.37 223.994 2108.29 221.772 Q2111.23 219.55 2117.04 219.55 L2123.01 219.55 L2123.01 219.133 Q2123.01 216.194 2121.06 214.596 Q2119.14 212.976 2115.65 212.976 Q2113.43 212.976 2111.32 213.508 Q2109.21 214.041 2107.27 215.106 L2107.27 211.17 Q2109.61 210.268 2111.81 209.828 Q2114 209.365 2116.09 209.365 Q2121.71 209.365 2124.49 212.282 Q2127.27 215.198 2127.27 221.124 Z" fill="#000000" fill-rule="nonzero" fill-opacity="1"></path><path clip-path="url(#clip370)" d="M2136.04 199.897 L2140.3 199.897 L2140.3 235.916 L2136.04 235.916 L2136.04 199.897 Z" fill="#000000" fill-rule="nonzero" fill-opacity="1"></path><path clip-path="url(#clip370)" d="M2180.86 219.712 Q2182.36 220.221 2183.77 221.888 Q2185.21 223.555 2186.64 226.471 L2191.39 235.916 L2186.37 235.916 L2181.94 227.05 Q2180.23 223.578 2178.61 222.444 Q2177.01 221.309 2174.24 221.309 L2169.14 221.309 L2169.14 235.916 L2164.47 235.916 L2164.47 201.356 L2175.02 201.356 Q2180.95 201.356 2183.87 203.833 Q2186.78 206.309 2186.78 211.309 Q2186.78 214.573 2185.25 216.726 Q2183.75 218.879 2180.86 219.712 M2169.14 205.198 L2169.14 217.467 L2175.02 217.467 Q2178.4 217.467 2180.12 215.916 Q2181.85 214.342 2181.85 211.309 Q2181.85 208.277 2180.12 206.749 Q2178.4 205.198 2175.02 205.198 L2169.14 205.198 Z" fill="#000000" fill-rule="nonzero" fill-opacity="1"></path><path clip-path="url(#clip370)" d="M2197.22 209.99 L2201.48 209.99 L2201.48 235.916 L2197.22 235.916 L2197.22 209.99 M2197.22 199.897 L2201.48 199.897 L2201.48 205.291 L2197.22 205.291 L2197.22 199.897 Z" fill="#000000" fill-rule="nonzero" fill-opacity="1"></path><path clip-path="url(#clip370)" d="M2226.92 210.754 L2226.92 214.782 Q2225.12 213.856 2223.17 213.393 Q2221.23 212.93 2219.14 212.93 Q2215.97 212.93 2214.37 213.902 Q2212.8 214.874 2212.8 216.819 Q2212.8 218.3 2213.93 219.157 Q2215.07 219.99 2218.49 220.754 L2219.95 221.078 Q2224.49 222.05 2226.39 223.832 Q2228.31 225.592 2228.31 228.763 Q2228.31 232.374 2225.44 234.481 Q2222.59 236.587 2217.59 236.587 Q2215.51 236.587 2213.24 236.17 Q2211 235.777 2208.5 234.967 L2208.5 230.569 Q2210.86 231.795 2213.15 232.42 Q2215.44 233.022 2217.68 233.022 Q2220.69 233.022 2222.31 232.004 Q2223.93 230.962 2223.93 229.087 Q2223.93 227.351 2222.75 226.425 Q2221.6 225.499 2217.64 224.643 L2216.16 224.295 Q2212.2 223.462 2210.44 221.749 Q2208.68 220.013 2208.68 217.004 Q2208.68 213.346 2211.27 211.356 Q2213.87 209.365 2218.63 209.365 Q2220.99 209.365 2223.08 209.712 Q2225.16 210.059 2226.92 210.754 Z" fill="#000000" fill-rule="nonzero" fill-opacity="1"></path><path clip-path="url(#clip370)" d="M2234.93 199.897 L2239.21 199.897 L2239.21 221.17 L2251.92 209.99 L2257.36 209.99 L2243.61 222.119 L2257.94 235.916 L2252.38 235.916 L2239.21 223.254 L2239.21 235.916 L2234.93 235.916 L2234.93 199.897 Z" fill="#000000" fill-rule="nonzero" fill-opacity="1"></path></svg>