<svg xmlns="http://www.w3.org/2000/svg" xmlns:xlink="http://www.w3.org/1999/xlink" width="600" height="400" viewBox="0 0 2400 1600">
<defs>
  <clipPath id="clip450">
    <rect x="0" y="0" width="2400" height="1600"></rect>
  </clipPath>
</defs>
<path clip-path="url(#clip450)" d="M0 1600 L2400 1600 L2400 0 L0 0  Z" fill="#ffffff" fill-rule="evenodd" fill-opacity="1"></path>
<defs>
  <clipPath id="clip451">
    <rect x="480" y="0" width="1681" height="1600"></rect>
  </clipPath>
</defs>
<path clip-path="url(#clip450)" d="M219.866 1423.18 L2352.76 1423.18 L2352.76 123.472 L219.866 123.472  Z" fill="#ffffff" fill-rule="evenodd" fill-opacity="1"></path>
<defs>
  <clipPath id="clip452">
    <rect x="219" y="123" width="2134" height="1301"></rect>
  </clipPath>
</defs>
<polyline clip-path="url(#clip452)" style="stroke:#000000; stroke-linecap:round; stroke-linejoin:round; stroke-width:2; stroke-opacity:0.1; fill:none" points="406.609,1423.18 406.609,123.472 "></polyline>
<polyline clip-path="url(#clip452)" style="stroke:#000000; stroke-linecap:round; stroke-linejoin:round; stroke-width:2; stroke-opacity:0.1; fill:none" points="866.95,1423.18 866.95,123.472 "></polyline>
<polyline clip-path="url(#clip452)" style="stroke:#000000; stroke-linecap:round; stroke-linejoin:round; stroke-width:2; stroke-opacity:0.1; fill:none" points="1327.29,1423.18 1327.29,123.472 "></polyline>
<polyline clip-path="url(#clip452)" style="stroke:#000000; stroke-linecap:round; stroke-linejoin:round; stroke-width:2; stroke-opacity:0.1; fill:none" points="1787.63,1423.18 1787.63,123.472 "></polyline>
<polyline clip-path="url(#clip452)" style="stroke:#000000; stroke-linecap:round; stroke-linejoin:round; stroke-width:2; stroke-opacity:0.1; fill:none" points="2247.97,1423.18 2247.97,123.472 "></polyline>
<polyline clip-path="url(#clip450)" style="stroke:#000000; stroke-linecap:round; stroke-linejoin:round; stroke-width:4; stroke-opacity:1; fill:none" points="219.866,1423.18 2352.76,1423.18 "></polyline>
<polyline clip-path="url(#clip450)" style="stroke:#000000; stroke-linecap:round; stroke-linejoin:round; stroke-width:4; stroke-opacity:1; fill:none" points="406.609,1423.18 406.609,1404.28 "></polyline>
<polyline clip-path="url(#clip450)" style="stroke:#000000; stroke-linecap:round; stroke-linejoin:round; stroke-width:4; stroke-opacity:1; fill:none" points="866.95,1423.18 866.95,1404.28 "></polyline>
<polyline clip-path="url(#clip450)" style="stroke:#000000; stroke-linecap:round; stroke-linejoin:round; stroke-width:4; stroke-opacity:1; fill:none" points="1327.29,1423.18 1327.29,1404.28 "></polyline>
<polyline clip-path="url(#clip450)" style="stroke:#000000; stroke-linecap:round; stroke-linejoin:round; stroke-width:4; stroke-opacity:1; fill:none" points="1787.63,1423.18 1787.63,1404.28 "></polyline>
<polyline clip-path="url(#clip450)" style="stroke:#000000; stroke-linecap:round; stroke-linejoin:round; stroke-width:4; stroke-opacity:1; fill:none" points="2247.97,1423.18 2247.97,1404.28 "></polyline>
<path clip-path="url(#clip450)" d="M384.606 1454.1 Q380.995 1454.1 379.167 1457.66 Q377.361 1461.2 377.361 1468.33 Q377.361 1475.44 379.167 1479.01 Q380.995 1482.55 384.606 1482.55 Q388.241 1482.55 390.046 1479.01 Q391.875 1475.44 391.875 1468.33 Q391.875 1461.2 390.046 1457.66 Q388.241 1454.1 384.606 1454.1 M384.606 1450.39 Q390.417 1450.39 393.472 1455 Q396.551 1459.58 396.551 1468.33 Q396.551 1477.06 393.472 1481.67 Q390.417 1486.25 384.606 1486.25 Q378.796 1486.25 375.718 1481.67 Q372.662 1477.06 372.662 1468.33 Q372.662 1459.58 375.718 1455 Q378.796 1450.39 384.606 1450.39 Z" fill="#000000" fill-rule="nonzero" fill-opacity="1"></path><path clip-path="url(#clip450)" d="M404.768 1479.7 L409.653 1479.7 L409.653 1485.58 L404.768 1485.58 L404.768 1479.7 Z" fill="#000000" fill-rule="nonzero" fill-opacity="1"></path><path clip-path="url(#clip450)" d="M420.648 1481.64 L428.287 1481.64 L428.287 1455.28 L419.977 1456.95 L419.977 1452.69 L428.241 1451.02 L432.916 1451.02 L432.916 1481.64 L440.555 1481.64 L440.555 1485.58 L420.648 1485.58 L420.648 1481.64 Z" fill="#000000" fill-rule="nonzero" fill-opacity="1"></path><path clip-path="url(#clip450)" d="M845.133 1454.1 Q841.522 1454.1 839.693 1457.66 Q837.888 1461.2 837.888 1468.33 Q837.888 1475.44 839.693 1479.01 Q841.522 1482.55 845.133 1482.55 Q848.767 1482.55 850.573 1479.01 Q852.402 1475.44 852.402 1468.33 Q852.402 1461.2 850.573 1457.66 Q848.767 1454.1 845.133 1454.1 M845.133 1450.39 Q850.943 1450.39 853.999 1455 Q857.077 1459.58 857.077 1468.33 Q857.077 1477.06 853.999 1481.67 Q850.943 1486.25 845.133 1486.25 Q839.323 1486.25 836.244 1481.67 Q833.189 1477.06 833.189 1468.33 Q833.189 1459.58 836.244 1455 Q839.323 1450.39 845.133 1450.39 Z" fill="#000000" fill-rule="nonzero" fill-opacity="1"></path><path clip-path="url(#clip450)" d="M865.295 1479.7 L870.179 1479.7 L870.179 1485.58 L865.295 1485.58 L865.295 1479.7 Z" fill="#000000" fill-rule="nonzero" fill-opacity="1"></path><path clip-path="url(#clip450)" d="M884.392 1481.64 L900.711 1481.64 L900.711 1485.58 L878.767 1485.58 L878.767 1481.64 Q881.429 1478.89 886.012 1474.26 Q890.619 1469.61 891.799 1468.27 Q894.045 1465.74 894.924 1464.01 Q895.827 1462.25 895.827 1460.56 Q895.827 1457.8 893.883 1456.07 Q891.962 1454.33 888.86 1454.33 Q886.661 1454.33 884.207 1455.09 Q881.776 1455.86 878.999 1457.41 L878.999 1452.69 Q881.823 1451.55 884.276 1450.97 Q886.73 1450.39 888.767 1450.39 Q894.137 1450.39 897.332 1453.08 Q900.526 1455.77 900.526 1460.26 Q900.526 1462.39 899.716 1464.31 Q898.929 1466.2 896.823 1468.8 Q896.244 1469.47 893.142 1472.69 Q890.04 1475.88 884.392 1481.64 Z" fill="#000000" fill-rule="nonzero" fill-opacity="1"></path><path clip-path="url(#clip450)" d="M1305 1454.1 Q1301.39 1454.1 1299.56 1457.66 Q1297.75 1461.2 1297.75 1468.33 Q1297.75 1475.44 1299.56 1479.01 Q1301.39 1482.55 1305 1482.55 Q1308.63 1482.55 1310.44 1479.01 Q1312.27 1475.44 1312.27 1468.33 Q1312.27 1461.2 1310.44 1457.66 Q1308.63 1454.1 1305 1454.1 M1305 1450.39 Q1310.81 1450.39 1313.87 1455 Q1316.94 1459.58 1316.94 1468.33 Q1316.94 1477.06 1313.87 1481.67 Q1310.81 1486.25 1305 1486.25 Q1299.19 1486.25 1296.11 1481.67 Q1293.06 1477.06 1293.06 1468.33 Q1293.06 1459.58 1296.11 1455 Q1299.19 1450.39 1305 1450.39 Z" fill="#000000" fill-rule="nonzero" fill-opacity="1"></path><path clip-path="url(#clip450)" d="M1325.16 1479.7 L1330.05 1479.7 L1330.05 1485.58 L1325.16 1485.58 L1325.16 1479.7 Z" fill="#000000" fill-rule="nonzero" fill-opacity="1"></path><path clip-path="url(#clip450)" d="M1354.4 1466.95 Q1357.75 1467.66 1359.63 1469.93 Q1361.53 1472.2 1361.53 1475.53 Q1361.53 1480.65 1358.01 1483.45 Q1354.49 1486.25 1348.01 1486.25 Q1345.83 1486.25 1343.52 1485.81 Q1341.23 1485.39 1338.77 1484.54 L1338.77 1480.02 Q1340.72 1481.16 1343.03 1481.74 Q1345.35 1482.32 1347.87 1482.32 Q1352.27 1482.32 1354.56 1480.58 Q1356.87 1478.84 1356.87 1475.53 Q1356.87 1472.48 1354.72 1470.77 Q1352.59 1469.03 1348.77 1469.03 L1344.75 1469.03 L1344.75 1465.19 L1348.96 1465.19 Q1352.41 1465.19 1354.24 1463.82 Q1356.06 1462.43 1356.06 1459.84 Q1356.06 1457.18 1354.17 1455.77 Q1352.29 1454.33 1348.77 1454.33 Q1346.85 1454.33 1344.65 1454.75 Q1342.45 1455.16 1339.81 1456.04 L1339.81 1451.88 Q1342.48 1451.14 1344.79 1450.77 Q1347.13 1450.39 1349.19 1450.39 Q1354.51 1450.39 1357.62 1452.83 Q1360.72 1455.23 1360.72 1459.35 Q1360.72 1462.22 1359.07 1464.21 Q1357.43 1466.18 1354.4 1466.95 Z" fill="#000000" fill-rule="nonzero" fill-opacity="1"></path><path clip-path="url(#clip450)" d="M1764.77 1454.1 Q1761.16 1454.1 1759.33 1457.66 Q1757.53 1461.2 1757.53 1468.33 Q1757.53 1475.44 1759.33 1479.01 Q1761.16 1482.55 1764.77 1482.55 Q1768.41 1482.55 1770.21 1479.01 Q1772.04 1475.44 1772.04 1468.33 Q1772.04 1461.2 1770.21 1457.66 Q1768.41 1454.1 1764.77 1454.1 M1764.77 1450.39 Q1770.58 1450.39 1773.64 1455 Q1776.72 1459.58 1776.72 1468.33 Q1776.72 1477.06 1773.64 1481.67 Q1770.58 1486.25 1764.77 1486.25 Q1758.96 1486.25 1755.89 1481.67 Q1752.83 1477.06 1752.83 1468.33 Q1752.83 1459.58 1755.89 1455 Q1758.96 1450.39 1764.77 1450.39 Z" fill="#000000" fill-rule="nonzero" fill-opacity="1"></path><path clip-path="url(#clip450)" d="M1784.94 1479.7 L1789.82 1479.7 L1789.82 1485.58 L1784.94 1485.58 L1784.94 1479.7 Z" fill="#000000" fill-rule="nonzero" fill-opacity="1"></path><path clip-path="url(#clip450)" d="M1812.85 1455.09 L1801.05 1473.54 L1812.85 1473.54 L1812.85 1455.09 M1811.63 1451.02 L1817.51 1451.02 L1817.51 1473.54 L1822.44 1473.54 L1822.44 1477.43 L1817.51 1477.43 L1817.51 1485.58 L1812.85 1485.58 L1812.85 1477.43 L1797.25 1477.43 L1797.25 1472.92 L1811.63 1451.02 Z" fill="#000000" fill-rule="nonzero" fill-opacity="1"></path><path clip-path="url(#clip450)" d="M2225.86 1454.1 Q2222.25 1454.1 2220.42 1457.66 Q2218.61 1461.2 2218.61 1468.33 Q2218.61 1475.44 2220.42 1479.01 Q2222.25 1482.55 2225.86 1482.55 Q2229.49 1482.55 2231.3 1479.01 Q2233.12 1475.44 2233.12 1468.33 Q2233.12 1461.2 2231.3 1457.66 Q2229.49 1454.1 2225.86 1454.1 M2225.86 1450.39 Q2231.67 1450.39 2234.72 1455 Q2237.8 1459.58 2237.8 1468.33 Q2237.8 1477.06 2234.72 1481.67 Q2231.67 1486.25 2225.86 1486.25 Q2220.05 1486.25 2216.97 1481.67 Q2213.91 1477.06 2213.91 1468.33 Q2213.91 1459.58 2216.97 1455 Q2220.05 1450.39 2225.86 1450.39 Z" fill="#000000" fill-rule="nonzero" fill-opacity="1"></path><path clip-path="url(#clip450)" d="M2246.02 1479.7 L2250.9 1479.7 L2250.9 1485.58 L2246.02 1485.58 L2246.02 1479.7 Z" fill="#000000" fill-rule="nonzero" fill-opacity="1"></path><path clip-path="url(#clip450)" d="M2261.13 1451.02 L2279.49 1451.02 L2279.49 1454.96 L2265.42 1454.96 L2265.42 1463.43 Q2266.43 1463.08 2267.45 1462.92 Q2268.47 1462.73 2269.49 1462.73 Q2275.28 1462.73 2278.66 1465.9 Q2282.04 1469.08 2282.04 1474.49 Q2282.04 1480.07 2278.56 1483.17 Q2275.09 1486.25 2268.77 1486.25 Q2266.6 1486.25 2264.33 1485.88 Q2262.08 1485.51 2259.68 1484.77 L2259.68 1480.07 Q2261.76 1481.2 2263.98 1481.76 Q2266.2 1482.32 2268.68 1482.32 Q2272.68 1482.32 2275.02 1480.21 Q2277.36 1478.1 2277.36 1474.49 Q2277.36 1470.88 2275.02 1468.77 Q2272.68 1466.67 2268.68 1466.67 Q2266.81 1466.67 2264.93 1467.08 Q2263.08 1467.5 2261.13 1468.38 L2261.13 1451.02 Z" fill="#000000" fill-rule="nonzero" fill-opacity="1"></path><path clip-path="url(#clip450)" d="M1093.37 1547.13 Q1090.6 1547.13 1089.01 1549.49 Q1087.45 1551.84 1087.45 1556.04 Q1087.45 1560.18 1089.01 1562.57 Q1090.6 1564.92 1093.37 1564.92 Q1096.07 1564.92 1097.63 1562.57 Q1099.22 1560.18 1099.22 1556.04 Q1099.22 1551.87 1097.63 1549.52 Q1096.07 1547.13 1093.37 1547.13 M1093.37 1543.09 Q1098.4 1543.09 1101.36 1546.59 Q1104.32 1550.09 1104.32 1556.04 Q1104.32 1562 1101.32 1565.5 Q1098.36 1568.97 1093.37 1568.97 Q1088.27 1568.97 1085.31 1565.5 Q1082.35 1562 1082.35 1556.04 Q1082.35 1550.06 1085.31 1546.59 Q1088.31 1543.09 1093.37 1543.09 M1060.52 1523.71 Q1057.78 1523.71 1056.19 1526.09 Q1054.63 1528.45 1054.63 1532.59 Q1054.63 1536.79 1056.19 1539.14 Q1057.75 1541.5 1060.52 1541.5 Q1063.29 1541.5 1064.85 1539.14 Q1066.44 1536.79 1066.44 1532.59 Q1066.44 1528.48 1064.85 1526.09 Q1063.26 1523.71 1060.52 1523.71 M1089.26 1519.66 L1094.35 1519.66 L1064.63 1568.97 L1059.53 1568.97 L1089.26 1519.66 M1060.52 1519.66 Q1065.55 1519.66 1068.54 1523.17 Q1071.53 1526.63 1071.53 1532.59 Q1071.53 1538.6 1068.54 1542.07 Q1065.58 1545.54 1060.52 1545.54 Q1055.46 1545.54 1052.5 1542.07 Q1049.57 1538.57 1049.57 1532.59 Q1049.57 1526.67 1052.53 1523.17 Q1055.49 1519.66 1060.52 1519.66 Z" fill="#000000" fill-rule="nonzero" fill-opacity="1"></path><path clip-path="url(#clip450)" d="M1148.59 1536.5 Q1143.88 1536.5 1141.14 1540.19 Q1138.4 1543.85 1138.4 1550.25 Q1138.4 1556.65 1141.11 1560.34 Q1143.85 1564 1148.59 1564 Q1153.27 1564 1156.01 1560.31 Q1158.74 1556.62 1158.74 1550.25 Q1158.74 1543.92 1156.01 1540.23 Q1153.27 1536.5 1148.59 1536.5 M1148.59 1531.54 Q1156.23 1531.54 1160.59 1536.5 Q1164.95 1541.47 1164.95 1550.25 Q1164.95 1559 1160.59 1564 Q1156.23 1568.97 1148.59 1568.97 Q1140.92 1568.97 1136.56 1564 Q1132.23 1559 1132.23 1550.25 Q1132.23 1541.47 1136.56 1536.5 Q1140.92 1531.54 1148.59 1531.54 Z" fill="#000000" fill-rule="nonzero" fill-opacity="1"></path><path clip-path="url(#clip450)" d="M1192.7 1518.52 L1192.7 1523.39 L1187.1 1523.39 Q1183.95 1523.39 1182.71 1524.66 Q1181.5 1525.93 1181.5 1529.24 L1181.5 1532.4 L1191.14 1532.4 L1191.14 1536.95 L1181.5 1536.95 L1181.5 1568.04 L1175.61 1568.04 L1175.61 1536.95 L1170.01 1536.95 L1170.01 1532.4 L1175.61 1532.4 L1175.61 1529.91 Q1175.61 1523.96 1178.38 1521.26 Q1181.15 1518.52 1187.17 1518.52 L1192.7 1518.52 Z" fill="#000000" fill-rule="nonzero" fill-opacity="1"></path><path clip-path="url(#clip450)" d="M1218.33 1518.52 L1224.18 1518.52 L1224.18 1568.04 L1218.33 1568.04 L1218.33 1518.52 Z" fill="#000000" fill-rule="nonzero" fill-opacity="1"></path><path clip-path="url(#clip450)" d="M1250.25 1536.5 Q1245.54 1536.5 1242.8 1540.19 Q1240.06 1543.85 1240.06 1550.25 Q1240.06 1556.65 1242.77 1560.34 Q1245.51 1564 1250.25 1564 Q1254.93 1564 1257.67 1560.31 Q1260.4 1556.62 1260.4 1550.25 Q1260.4 1543.92 1257.67 1540.23 Q1254.93 1536.5 1250.25 1536.5 M1250.25 1531.54 Q1257.89 1531.54 1262.25 1536.5 Q1266.61 1541.47 1266.61 1550.25 Q1266.61 1559 1262.25 1564 Q1257.89 1568.97 1250.25 1568.97 Q1242.58 1568.97 1238.22 1564 Q1233.89 1559 1233.89 1550.25 Q1233.89 1541.47 1238.22 1536.5 Q1242.58 1531.54 1250.25 1531.54 Z" fill="#000000" fill-rule="nonzero" fill-opacity="1"></path><path clip-path="url(#clip450)" d="M1292.52 1550.12 Q1285.42 1550.12 1282.68 1551.75 Q1279.95 1553.37 1279.95 1557.29 Q1279.95 1560.4 1281.98 1562.25 Q1284.05 1564.07 1287.58 1564.07 Q1292.45 1564.07 1295.38 1560.63 Q1298.34 1557.16 1298.34 1551.43 L1298.34 1550.12 L1292.52 1550.12 M1304.2 1547.71 L1304.2 1568.04 L1298.34 1568.04 L1298.34 1562.63 Q1296.34 1565.88 1293.35 1567.44 Q1290.35 1568.97 1286.02 1568.97 Q1280.55 1568.97 1277.3 1565.91 Q1274.09 1562.82 1274.09 1557.67 Q1274.09 1551.65 1278.1 1548.6 Q1282.14 1545.54 1290.13 1545.54 L1298.34 1545.54 L1298.34 1544.97 Q1298.34 1540.93 1295.67 1538.73 Q1293.03 1536.5 1288.22 1536.5 Q1285.17 1536.5 1282.27 1537.23 Q1279.37 1537.97 1276.7 1539.43 L1276.7 1534.02 Q1279.91 1532.78 1282.94 1532.17 Q1285.96 1531.54 1288.83 1531.54 Q1296.56 1531.54 1300.38 1535.55 Q1304.2 1539.56 1304.2 1547.71 Z" fill="#000000" fill-rule="nonzero" fill-opacity="1"></path><path clip-path="url(#clip450)" d="M1339.72 1537.81 L1339.72 1518.52 L1345.58 1518.52 L1345.58 1568.04 L1339.72 1568.04 L1339.72 1562.7 Q1337.87 1565.88 1335.04 1567.44 Q1332.24 1568.97 1328.29 1568.97 Q1321.83 1568.97 1317.76 1563.81 Q1313.72 1558.65 1313.72 1550.25 Q1313.72 1541.85 1317.76 1536.69 Q1321.83 1531.54 1328.29 1531.54 Q1332.24 1531.54 1335.04 1533.1 Q1337.87 1534.62 1339.72 1537.81 M1319.76 1550.25 Q1319.76 1556.71 1322.4 1560.4 Q1325.08 1564.07 1329.73 1564.07 Q1334.37 1564.07 1337.05 1560.4 Q1339.72 1556.71 1339.72 1550.25 Q1339.72 1543.79 1337.05 1540.13 Q1334.37 1536.44 1329.73 1536.44 Q1325.08 1536.44 1322.4 1540.13 Q1319.76 1543.79 1319.76 1550.25 Z" fill="#000000" fill-rule="nonzero" fill-opacity="1"></path><path clip-path="url(#clip450)" d="M1401.08 1533.45 L1401.08 1538.98 Q1398.6 1537.71 1395.93 1537.07 Q1393.25 1536.44 1390.39 1536.44 Q1386.03 1536.44 1383.83 1537.77 Q1381.67 1539.11 1381.67 1541.79 Q1381.67 1543.82 1383.23 1545 Q1384.79 1546.15 1389.5 1547.2 L1391.5 1547.64 Q1397.74 1548.98 1400.35 1551.43 Q1402.99 1553.85 1402.99 1558.21 Q1402.99 1563.17 1399.05 1566.07 Q1395.13 1568.97 1388.26 1568.97 Q1385.39 1568.97 1382.27 1568.39 Q1379.19 1567.85 1375.75 1566.74 L1375.75 1560.69 Q1379 1562.38 1382.15 1563.24 Q1385.3 1564.07 1388.39 1564.07 Q1392.52 1564.07 1394.75 1562.66 Q1396.98 1561.23 1396.98 1558.65 Q1396.98 1556.27 1395.36 1554.99 Q1393.76 1553.72 1388.32 1552.54 L1386.28 1552.07 Q1380.84 1550.92 1378.42 1548.56 Q1376 1546.18 1376 1542.04 Q1376 1537.01 1379.57 1534.27 Q1383.13 1531.54 1389.69 1531.54 Q1392.94 1531.54 1395.8 1532.01 Q1398.67 1532.49 1401.08 1533.45 Z" fill="#000000" fill-rule="nonzero" fill-opacity="1"></path><path clip-path="url(#clip450)" d="M1441.95 1546.53 L1441.95 1568.04 L1436.1 1568.04 L1436.1 1546.72 Q1436.1 1541.66 1434.12 1539.14 Q1432.15 1536.63 1428.2 1536.63 Q1423.46 1536.63 1420.72 1539.65 Q1417.99 1542.68 1417.99 1547.9 L1417.99 1568.04 L1412.1 1568.04 L1412.1 1518.52 L1417.99 1518.52 L1417.99 1537.93 Q1420.09 1534.72 1422.92 1533.13 Q1425.78 1531.54 1429.51 1531.54 Q1435.65 1531.54 1438.8 1535.36 Q1441.95 1539.14 1441.95 1546.53 Z" fill="#000000" fill-rule="nonzero" fill-opacity="1"></path><path clip-path="url(#clip450)" d="M1484.13 1548.76 L1484.13 1551.62 L1457.2 1551.62 Q1457.58 1557.67 1460.83 1560.85 Q1464.11 1564 1469.93 1564 Q1473.3 1564 1476.45 1563.17 Q1479.64 1562.35 1482.76 1560.69 L1482.76 1566.23 Q1479.61 1567.57 1476.3 1568.27 Q1472.99 1568.97 1469.58 1568.97 Q1461.05 1568.97 1456.05 1564 Q1451.09 1559.04 1451.09 1550.57 Q1451.09 1541.82 1455.8 1536.69 Q1460.54 1531.54 1468.56 1531.54 Q1475.75 1531.54 1479.92 1536.18 Q1484.13 1540.8 1484.13 1548.76 M1478.27 1547.04 Q1478.21 1542.23 1475.56 1539.37 Q1472.95 1536.5 1468.62 1536.5 Q1463.72 1536.5 1460.76 1539.27 Q1457.84 1542.04 1457.39 1547.07 L1478.27 1547.04 Z" fill="#000000" fill-rule="nonzero" fill-opacity="1"></path><path clip-path="url(#clip450)" d="M1517.2 1537.81 L1517.2 1518.52 L1523.05 1518.52 L1523.05 1568.04 L1517.2 1568.04 L1517.2 1562.7 Q1515.35 1565.88 1512.52 1567.44 Q1509.72 1568.97 1505.77 1568.97 Q1499.31 1568.97 1495.23 1563.81 Q1491.19 1558.65 1491.19 1550.25 Q1491.19 1541.85 1495.23 1536.69 Q1499.31 1531.54 1505.77 1531.54 Q1509.72 1531.54 1512.52 1533.1 Q1515.35 1534.62 1517.2 1537.81 M1497.24 1550.25 Q1497.24 1556.71 1499.88 1560.4 Q1502.55 1564.07 1507.2 1564.07 Q1511.85 1564.07 1514.52 1560.4 Q1517.2 1556.71 1517.2 1550.25 Q1517.2 1543.79 1514.52 1540.13 Q1511.85 1536.44 1507.2 1536.44 Q1502.55 1536.44 1499.88 1540.13 Q1497.24 1543.79 1497.24 1550.25 Z" fill="#000000" fill-rule="nonzero" fill-opacity="1"></path><polyline clip-path="url(#clip452)" style="stroke:#000000; stroke-linecap:round; stroke-linejoin:round; stroke-width:2; stroke-opacity:0.1; fill:none" points="219.866,1304.65 2352.76,1304.65 "></polyline>
<polyline clip-path="url(#clip452)" style="stroke:#000000; stroke-linecap:round; stroke-linejoin:round; stroke-width:2; stroke-opacity:0.1; fill:none" points="219.866,1059.43 2352.76,1059.43 "></polyline>
<polyline clip-path="url(#clip452)" style="stroke:#000000; stroke-linecap:round; stroke-linejoin:round; stroke-width:2; stroke-opacity:0.1; fill:none" points="219.866,814.197 2352.76,814.197 "></polyline>
<polyline clip-path="url(#clip452)" style="stroke:#000000; stroke-linecap:round; stroke-linejoin:round; stroke-width:2; stroke-opacity:0.1; fill:none" points="219.866,568.969 2352.76,568.969 "></polyline>
<polyline clip-path="url(#clip452)" style="stroke:#000000; stroke-linecap:round; stroke-linejoin:round; stroke-width:2; stroke-opacity:0.1; fill:none" points="219.866,323.742 2352.76,323.742 "></polyline>
<polyline clip-path="url(#clip450)" style="stroke:#000000; stroke-linecap:round; stroke-linejoin:round; stroke-width:4; stroke-opacity:1; fill:none" points="219.866,1423.18 219.866,123.472 "></polyline>
<polyline clip-path="url(#clip450)" style="stroke:#000000; stroke-linecap:round; stroke-linejoin:round; stroke-width:4; stroke-opacity:1; fill:none" points="219.866,1304.65 238.764,1304.65 "></polyline>
<polyline clip-path="url(#clip450)" style="stroke:#000000; stroke-linecap:round; stroke-linejoin:round; stroke-width:4; stroke-opacity:1; fill:none" points="219.866,1059.43 238.764,1059.43 "></polyline>
<polyline clip-path="url(#clip450)" style="stroke:#000000; stroke-linecap:round; stroke-linejoin:round; stroke-width:4; stroke-opacity:1; fill:none" points="219.866,814.197 238.764,814.197 "></polyline>
<polyline clip-path="url(#clip450)" style="stroke:#000000; stroke-linecap:round; stroke-linejoin:round; stroke-width:4; stroke-opacity:1; fill:none" points="219.866,568.969 238.764,568.969 "></polyline>
<polyline clip-path="url(#clip450)" style="stroke:#000000; stroke-linecap:round; stroke-linejoin:round; stroke-width:4; stroke-opacity:1; fill:none" points="219.866,323.742 238.764,323.742 "></polyline>
<path clip-path="url(#clip450)" d="M128.288 1290.45 Q124.677 1290.45 122.848 1294.02 Q121.043 1297.56 121.043 1304.69 Q121.043 1311.79 122.848 1315.36 Q124.677 1318.9 128.288 1318.9 Q131.922 1318.9 133.728 1315.36 Q135.556 1311.79 135.556 1304.69 Q135.556 1297.56 133.728 1294.02 Q131.922 1290.45 128.288 1290.45 M128.288 1286.75 Q134.098 1286.75 137.154 1291.35 Q140.232 1295.94 140.232 1304.69 Q140.232 1313.41 137.154 1318.02 Q134.098 1322.6 128.288 1322.6 Q122.478 1322.6 119.399 1318.02 Q116.343 1313.41 116.343 1304.69 Q116.343 1295.94 119.399 1291.35 Q122.478 1286.75 128.288 1286.75 Z" fill="#000000" fill-rule="nonzero" fill-opacity="1"></path><path clip-path="url(#clip450)" d="M148.45 1316.05 L153.334 1316.05 L153.334 1321.93 L148.45 1321.93 L148.45 1316.05 Z" fill="#000000" fill-rule="nonzero" fill-opacity="1"></path><path clip-path="url(#clip450)" d="M167.547 1318 L183.866 1318 L183.866 1321.93 L161.922 1321.93 L161.922 1318 Q164.584 1315.24 169.167 1310.61 Q173.774 1305.96 174.954 1304.62 Q177.2 1302.1 178.079 1300.36 Q178.982 1298.6 178.982 1296.91 Q178.982 1294.16 177.038 1292.42 Q175.116 1290.68 172.014 1290.68 Q169.815 1290.68 167.362 1291.45 Q164.931 1292.21 162.153 1293.76 L162.153 1289.04 Q164.977 1287.91 167.431 1287.33 Q169.885 1286.75 171.922 1286.75 Q177.292 1286.75 180.487 1289.43 Q183.681 1292.12 183.681 1296.61 Q183.681 1298.74 182.871 1300.66 Q182.084 1302.56 179.977 1305.15 Q179.399 1305.82 176.297 1309.04 Q173.195 1312.23 167.547 1318 Z" fill="#000000" fill-rule="nonzero" fill-opacity="1"></path><path clip-path="url(#clip450)" d="M127.339 1045.22 Q123.728 1045.22 121.899 1048.79 Q120.093 1052.33 120.093 1059.46 Q120.093 1066.57 121.899 1070.13 Q123.728 1073.67 127.339 1073.67 Q130.973 1073.67 132.779 1070.13 Q134.607 1066.57 134.607 1059.46 Q134.607 1052.33 132.779 1048.79 Q130.973 1045.22 127.339 1045.22 M127.339 1041.52 Q133.149 1041.52 136.204 1046.13 Q139.283 1050.71 139.283 1059.46 Q139.283 1068.19 136.204 1072.79 Q133.149 1077.38 127.339 1077.38 Q121.529 1077.38 118.45 1072.79 Q115.394 1068.19 115.394 1059.46 Q115.394 1050.71 118.45 1046.13 Q121.529 1041.52 127.339 1041.52 Z" fill="#000000" fill-rule="nonzero" fill-opacity="1"></path><path clip-path="url(#clip450)" d="M147.501 1070.83 L152.385 1070.83 L152.385 1076.71 L147.501 1076.71 L147.501 1070.83 Z" fill="#000000" fill-rule="nonzero" fill-opacity="1"></path><path clip-path="url(#clip450)" d="M176.737 1058.07 Q180.093 1058.79 181.968 1061.06 Q183.866 1063.33 183.866 1066.66 Q183.866 1071.77 180.348 1074.58 Q176.829 1077.38 170.348 1077.38 Q168.172 1077.38 165.857 1076.94 Q163.565 1076.52 161.112 1075.66 L161.112 1071.15 Q163.056 1072.28 165.371 1072.86 Q167.686 1073.44 170.209 1073.44 Q174.607 1073.44 176.899 1071.71 Q179.214 1069.97 179.214 1066.66 Q179.214 1063.6 177.061 1061.89 Q174.931 1060.15 171.112 1060.15 L167.084 1060.15 L167.084 1056.31 L171.297 1056.31 Q174.746 1056.31 176.575 1054.95 Q178.403 1053.56 178.403 1050.96 Q178.403 1048.3 176.505 1046.89 Q174.63 1045.46 171.112 1045.46 Q169.19 1045.46 166.991 1045.87 Q164.792 1046.29 162.153 1047.17 L162.153 1043 Q164.815 1042.26 167.13 1041.89 Q169.468 1041.52 171.528 1041.52 Q176.852 1041.52 179.954 1043.95 Q183.056 1046.36 183.056 1050.48 Q183.056 1053.35 181.413 1055.34 Q179.769 1057.31 176.737 1058.07 Z" fill="#000000" fill-rule="nonzero" fill-opacity="1"></path><path clip-path="url(#clip450)" d="M126.205 799.996 Q122.593 799.996 120.765 803.561 Q118.959 807.102 118.959 814.232 Q118.959 821.338 120.765 824.903 Q122.593 828.445 126.205 828.445 Q129.839 828.445 131.644 824.903 Q133.473 821.338 133.473 814.232 Q133.473 807.102 131.644 803.561 Q129.839 799.996 126.205 799.996 M126.205 796.292 Q132.015 796.292 135.07 800.899 Q138.149 805.482 138.149 814.232 Q138.149 822.959 135.07 827.565 Q132.015 832.149 126.205 832.149 Q120.394 832.149 117.316 827.565 Q114.26 822.959 114.26 814.232 Q114.26 805.482 117.316 800.899 Q120.394 796.292 126.205 796.292 Z" fill="#000000" fill-rule="nonzero" fill-opacity="1"></path><path clip-path="url(#clip450)" d="M146.366 825.598 L151.251 825.598 L151.251 831.477 L146.366 831.477 L146.366 825.598 Z" fill="#000000" fill-rule="nonzero" fill-opacity="1"></path><path clip-path="url(#clip450)" d="M174.283 800.991 L162.477 819.44 L174.283 819.44 L174.283 800.991 M173.056 796.917 L178.936 796.917 L178.936 819.44 L183.866 819.44 L183.866 823.329 L178.936 823.329 L178.936 831.477 L174.283 831.477 L174.283 823.329 L158.681 823.329 L158.681 818.815 L173.056 796.917 Z" fill="#000000" fill-rule="nonzero" fill-opacity="1"></path><path clip-path="url(#clip450)" d="M127.686 554.768 Q124.075 554.768 122.246 558.333 Q120.441 561.875 120.441 569.004 Q120.441 576.111 122.246 579.675 Q124.075 583.217 127.686 583.217 Q131.32 583.217 133.126 579.675 Q134.954 576.111 134.954 569.004 Q134.954 561.875 133.126 558.333 Q131.32 554.768 127.686 554.768 M127.686 551.064 Q133.496 551.064 136.552 555.671 Q139.63 560.254 139.63 569.004 Q139.63 577.731 136.552 582.337 Q133.496 586.921 127.686 586.921 Q121.876 586.921 118.797 582.337 Q115.742 577.731 115.742 569.004 Q115.742 560.254 118.797 555.671 Q121.876 551.064 127.686 551.064 Z" fill="#000000" fill-rule="nonzero" fill-opacity="1"></path><path clip-path="url(#clip450)" d="M147.848 580.37 L152.732 580.37 L152.732 586.249 L147.848 586.249 L147.848 580.37 Z" fill="#000000" fill-rule="nonzero" fill-opacity="1"></path><path clip-path="url(#clip450)" d="M162.964 551.689 L181.32 551.689 L181.32 555.625 L167.246 555.625 L167.246 564.097 Q168.264 563.75 169.283 563.588 Q170.302 563.402 171.32 563.402 Q177.107 563.402 180.487 566.574 Q183.866 569.745 183.866 575.162 Q183.866 580.74 180.394 583.842 Q176.922 586.921 170.602 586.921 Q168.427 586.921 166.158 586.55 Q163.913 586.18 161.505 585.439 L161.505 580.74 Q163.589 581.874 165.811 582.43 Q168.033 582.986 170.51 582.986 Q174.514 582.986 176.852 580.879 Q179.19 578.773 179.19 575.162 Q179.19 571.55 176.852 569.444 Q174.514 567.337 170.51 567.337 Q168.635 567.337 166.76 567.754 Q164.908 568.171 162.964 569.05 L162.964 551.689 Z" fill="#000000" fill-rule="nonzero" fill-opacity="1"></path><path clip-path="url(#clip450)" d="M126.529 309.54 Q122.918 309.54 121.089 313.105 Q119.283 316.647 119.283 323.776 Q119.283 330.883 121.089 334.448 Q122.918 337.989 126.529 337.989 Q130.163 337.989 131.968 334.448 Q133.797 330.883 133.797 323.776 Q133.797 316.647 131.968 313.105 Q130.163 309.54 126.529 309.54 M126.529 305.837 Q132.339 305.837 135.394 310.443 Q138.473 315.026 138.473 323.776 Q138.473 332.503 135.394 337.11 Q132.339 341.693 126.529 341.693 Q120.718 341.693 117.64 337.11 Q114.584 332.503 114.584 323.776 Q114.584 315.026 117.64 310.443 Q120.718 305.837 126.529 305.837 Z" fill="#000000" fill-rule="nonzero" fill-opacity="1"></path><path clip-path="url(#clip450)" d="M146.691 335.142 L151.575 335.142 L151.575 341.022 L146.691 341.022 L146.691 335.142 Z" fill="#000000" fill-rule="nonzero" fill-opacity="1"></path><path clip-path="url(#clip450)" d="M172.339 321.878 Q169.19 321.878 167.339 324.031 Q165.51 326.184 165.51 329.934 Q165.51 333.66 167.339 335.836 Q169.19 337.989 172.339 337.989 Q175.487 337.989 177.315 335.836 Q179.167 333.66 179.167 329.934 Q179.167 326.184 177.315 324.031 Q175.487 321.878 172.339 321.878 M181.621 307.225 L181.621 311.485 Q179.862 310.651 178.056 310.212 Q176.274 309.772 174.514 309.772 Q169.885 309.772 167.431 312.897 Q165.001 316.022 164.653 322.341 Q166.019 320.327 168.079 319.262 Q170.139 318.174 172.616 318.174 Q177.825 318.174 180.834 321.346 Q183.866 324.494 183.866 329.934 Q183.866 335.258 180.718 338.475 Q177.57 341.693 172.339 341.693 Q166.343 341.693 163.172 337.11 Q160.001 332.503 160.001 323.776 Q160.001 315.582 163.89 310.721 Q167.778 305.837 174.329 305.837 Q176.089 305.837 177.871 306.184 Q179.676 306.531 181.621 307.225 Z" fill="#000000" fill-rule="nonzero" fill-opacity="1"></path><path clip-path="url(#clip450)" d="M16.4842 1052.05 L16.4842 1011.85 L21.895 1011.85 L21.895 1028.72 L64.0042 1028.72 L64.0042 1035.18 L21.895 1035.18 L21.895 1052.05 L16.4842 1052.05 Z" fill="#000000" fill-rule="nonzero" fill-opacity="1"></path><path clip-path="url(#clip450)" d="M32.4621 1003.16 Q32.4621 1007.87 36.1542 1010.61 Q39.8145 1013.34 46.212 1013.34 Q52.6095 1013.34 56.3017 1010.64 Q59.9619 1007.9 59.9619 1003.16 Q59.9619 998.481 56.2698 995.744 Q52.5777 993.007 46.212 993.007 Q39.8781 993.007 36.186 995.744 Q32.4621 998.481 32.4621 1003.16 M27.4968 1003.16 Q27.4968 995.521 32.4621 991.16 Q37.4273 986.8 46.212 986.8 Q54.9649 986.8 59.9619 991.16 Q64.9272 995.521 64.9272 1003.16 Q64.9272 1010.83 59.9619 1015.19 Q54.9649 1019.52 46.212 1019.52 Q37.4273 1019.52 32.4621 1015.19 Q27.4968 1010.83 27.4968 1003.16 Z" fill="#000000" fill-rule="nonzero" fill-opacity="1"></path><path clip-path="url(#clip450)" d="M18.2347 971.299 L28.3562 971.299 L28.3562 959.236 L32.9077 959.236 L32.9077 971.299 L52.2594 971.299 Q56.6199 971.299 57.8613 970.122 Q59.1026 968.912 59.1026 965.252 L59.1026 959.236 L64.0042 959.236 L64.0042 965.252 Q64.0042 972.032 61.4897 974.61 Q58.9434 977.188 52.2594 977.188 L32.9077 977.188 L32.9077 981.485 L28.3562 981.485 L28.3562 977.188 L18.2347 977.188 L18.2347 971.299 Z" fill="#000000" fill-rule="nonzero" fill-opacity="1"></path><path clip-path="url(#clip450)" d="M46.0847 935.333 Q46.0847 942.431 47.7079 945.168 Q49.3312 947.905 53.2461 947.905 Q56.3653 947.905 58.2114 945.868 Q60.0256 943.8 60.0256 940.267 Q60.0256 935.397 56.5881 932.469 Q53.1188 929.509 47.3897 929.509 L46.0847 929.509 L46.0847 935.333 M43.6657 923.652 L64.0042 923.652 L64.0042 929.509 L58.5933 929.509 Q61.8398 931.514 63.3994 934.506 Q64.9272 937.498 64.9272 941.826 Q64.9272 947.301 61.8716 950.547 Q58.7843 953.762 53.6281 953.762 Q47.6125 953.762 44.5569 949.752 Q41.5014 945.709 41.5014 937.72 L41.5014 929.509 L40.9285 929.509 Q36.8862 929.509 34.6901 932.182 Q32.4621 934.824 32.4621 939.63 Q32.4621 942.686 33.1941 945.582 Q33.9262 948.478 35.3903 951.152 L29.9795 951.152 Q28.7381 947.937 28.1334 944.914 Q27.4968 941.89 27.4968 939.025 Q27.4968 931.291 31.5072 927.472 Q35.5176 923.652 43.6657 923.652 Z" fill="#000000" fill-rule="nonzero" fill-opacity="1"></path><path clip-path="url(#clip450)" d="M14.479 911.589 L14.479 905.733 L64.0042 905.733 L64.0042 911.589 L14.479 911.589 Z" fill="#000000" fill-rule="nonzero" fill-opacity="1"></path><path clip-path="url(#clip450)" d="M16.4842 876.737 L16.4842 870.244 L56.6518 860.25 L16.4842 850.287 L16.4842 843.062 L56.6518 833.068 L16.4842 823.106 L16.4842 816.581 L64.0042 828.517 L64.0042 836.601 L22.7544 846.627 L64.0042 856.749 L64.0042 864.833 L16.4842 876.737 Z" fill="#000000" fill-rule="nonzero" fill-opacity="1"></path><path clip-path="url(#clip450)" d="M28.3562 809.738 L28.3562 803.881 L64.0042 803.881 L64.0042 809.738 L28.3562 809.738 M14.479 809.738 L14.479 803.881 L21.895 803.881 L21.895 809.738 L14.479 809.738 Z" fill="#000000" fill-rule="nonzero" fill-opacity="1"></path><path clip-path="url(#clip450)" d="M14.479 791.627 L14.479 785.771 L64.0042 785.771 L64.0042 791.627 L14.479 791.627 Z" fill="#000000" fill-rule="nonzero" fill-opacity="1"></path><path clip-path="url(#clip450)" d="M33.7671 750.059 L14.479 750.059 L14.479 744.203 L64.0042 744.203 L64.0042 750.059 L58.657 750.059 Q61.8398 751.905 63.3994 754.738 Q64.9272 757.539 64.9272 761.486 Q64.9272 767.947 59.771 772.021 Q54.6147 776.063 46.212 776.063 Q37.8093 776.063 32.6531 772.021 Q27.4968 767.947 27.4968 761.486 Q27.4968 757.539 29.0564 754.738 Q30.5842 751.905 33.7671 750.059 M46.212 770.016 Q52.6732 770.016 56.3653 767.374 Q60.0256 764.7 60.0256 760.053 Q60.0256 755.407 56.3653 752.733 Q52.6732 750.059 46.212 750.059 Q39.7508 750.059 36.0905 752.733 Q32.3984 755.407 32.3984 760.053 Q32.3984 764.7 36.0905 767.374 Q39.7508 770.016 46.212 770.016 Z" fill="#000000" fill-rule="nonzero" fill-opacity="1"></path><path clip-path="url(#clip450)" d="M14.479 714.093 L19.3487 714.093 L19.3487 719.695 Q19.3487 722.846 20.6219 724.087 Q21.895 725.297 25.2052 725.297 L28.3562 725.297 L28.3562 715.653 L32.9077 715.653 L32.9077 725.297 L64.0042 725.297 L64.0042 731.185 L32.9077 731.185 L32.9077 736.787 L28.3562 736.787 L28.3562 731.185 L25.8736 731.185 Q19.9216 731.185 17.2162 728.416 Q14.479 725.647 14.479 719.631 L14.479 714.093 Z" fill="#000000" fill-rule="nonzero" fill-opacity="1"></path><path clip-path="url(#clip450)" d="M28.3562 709.191 L28.3562 703.335 L64.0042 703.335 L64.0042 709.191 L28.3562 709.191 M14.479 709.191 L14.479 703.335 L21.895 703.335 L21.895 709.191 L14.479 709.191 Z" fill="#000000" fill-rule="nonzero" fill-opacity="1"></path><path clip-path="url(#clip450)" d="M33.8307 670.424 Q33.2578 671.411 33.0032 672.589 Q32.7167 673.735 32.7167 675.135 Q32.7167 680.1 35.9632 682.774 Q39.1779 685.416 45.2253 685.416 L64.0042 685.416 L64.0042 691.304 L28.3562 691.304 L28.3562 685.416 L33.8944 685.416 Q30.6479 683.57 29.0883 680.609 Q27.4968 677.649 27.4968 673.416 Q27.4968 672.811 27.5923 672.079 Q27.656 671.347 27.8151 670.456 L33.8307 670.424 Z" fill="#000000" fill-rule="nonzero" fill-opacity="1"></path><path clip-path="url(#clip450)" d="M44.7161 635.222 L47.5806 635.222 L47.5806 662.149 Q53.6281 661.767 56.8109 658.52 Q59.9619 655.242 59.9619 649.418 Q59.9619 646.044 59.1344 642.893 Q58.3069 639.71 56.6518 636.591 L62.1899 636.591 Q63.5267 639.742 64.227 643.052 Q64.9272 646.362 64.9272 649.768 Q64.9272 658.298 59.9619 663.295 Q54.9967 668.26 46.5303 668.26 Q37.7774 668.26 32.6531 663.549 Q27.4968 658.807 27.4968 650.786 Q27.4968 643.593 32.1438 639.423 Q36.7589 635.222 44.7161 635.222 M42.9973 641.078 Q38.1912 641.142 35.3266 643.784 Q32.4621 646.394 32.4621 650.722 Q32.4621 655.624 35.2312 658.584 Q38.0002 661.512 43.0292 661.958 L42.9973 641.078 Z" fill="#000000" fill-rule="nonzero" fill-opacity="1"></path><path clip-path="url(#clip450)" d="M33.8307 584.233 Q33.2578 585.219 33.0032 586.397 Q32.7167 587.543 32.7167 588.943 Q32.7167 593.909 35.9632 596.582 Q39.1779 599.224 45.2253 599.224 L64.0042 599.224 L64.0042 605.112 L28.3562 605.112 L28.3562 599.224 L33.8944 599.224 Q30.6479 597.378 29.0883 594.418 Q27.4968 591.458 27.4968 587.225 Q27.4968 586.62 27.5923 585.888 Q27.656 585.156 27.8151 584.264 L33.8307 584.233 Z" fill="#000000" fill-rule="nonzero" fill-opacity="1"></path><path clip-path="url(#clip450)" d="M28.3562 578.09 L28.3562 572.233 L64.0042 572.233 L64.0042 578.09 L28.3562 578.09 M14.479 578.09 L14.479 572.233 L21.895 572.233 L21.895 578.09 L14.479 578.09 Z" fill="#000000" fill-rule="nonzero" fill-opacity="1"></path><path clip-path="url(#clip450)" d="M29.4065 537.254 L34.9447 537.254 Q33.6716 539.736 33.035 542.41 Q32.3984 545.084 32.3984 547.948 Q32.3984 552.309 33.7352 554.505 Q35.072 556.669 37.7456 556.669 Q39.7826 556.669 40.9603 555.11 Q42.1061 553.55 43.1565 548.839 L43.6021 546.834 Q44.9389 540.596 47.3897 537.986 Q49.8086 535.344 54.1691 535.344 Q59.1344 535.344 62.0308 539.291 Q64.9272 543.206 64.9272 550.081 Q64.9272 552.945 64.3543 556.064 Q63.8132 559.152 62.6992 562.589 L56.6518 562.589 Q58.3387 559.343 59.198 556.192 Q60.0256 553.041 60.0256 549.953 Q60.0256 545.816 58.6251 543.588 Q57.1929 541.36 54.6147 541.36 Q52.2276 541.36 50.9545 542.983 Q49.6813 544.574 48.5037 550.017 L48.0262 552.054 Q46.8804 557.497 44.5251 559.916 Q42.138 562.335 38.0002 562.335 Q32.9713 562.335 30.2341 558.77 Q27.4968 555.205 27.4968 548.648 Q27.4968 545.402 27.9743 542.537 Q28.4517 539.673 29.4065 537.254 Z" fill="#000000" fill-rule="nonzero" fill-opacity="1"></path><path clip-path="url(#clip450)" d="M14.479 526.241 L14.479 520.353 L43.7294 520.353 L28.3562 502.879 L28.3562 495.399 L45.0344 514.305 L64.0042 494.604 L64.0042 502.242 L46.5939 520.353 L64.0042 520.353 L64.0042 526.241 L14.479 526.241 Z" fill="#000000" fill-rule="nonzero" fill-opacity="1"></path><path clip-path="url(#clip450)" d="M419.033 12.096 L470.196 12.096 L470.196 18.9825 L448.726 18.9825 L448.726 72.576 L440.503 72.576 L440.503 18.9825 L419.033 18.9825 L419.033 12.096 Z" fill="#000000" fill-rule="nonzero" fill-opacity="1"></path><path clip-path="url(#clip450)" d="M481.255 32.4315 Q475.259 32.4315 471.776 37.1306 Q468.292 41.7891 468.292 49.9314 Q468.292 58.0738 471.735 62.7728 Q475.219 67.4314 481.255 67.4314 Q487.209 67.4314 490.693 62.7323 Q494.177 58.0333 494.177 49.9314 Q494.177 41.8701 490.693 37.1711 Q487.209 32.4315 481.255 32.4315 M481.255 26.1121 Q490.977 26.1121 496.527 32.4315 Q502.076 38.7509 502.076 49.9314 Q502.076 61.0714 496.527 67.4314 Q490.977 73.7508 481.255 73.7508 Q471.492 73.7508 465.942 67.4314 Q460.433 61.0714 460.433 49.9314 Q460.433 38.7509 465.942 32.4315 Q471.492 26.1121 481.255 26.1121 Z" fill="#000000" fill-rule="nonzero" fill-opacity="1"></path><path clip-path="url(#clip450)" d="M521.804 14.324 L521.804 27.2059 L537.157 27.2059 L537.157 32.9987 L521.804 32.9987 L521.804 57.6282 Q521.804 63.1779 523.303 64.7578 Q524.842 66.3376 529.501 66.3376 L537.157 66.3376 L537.157 72.576 L529.501 72.576 Q520.872 72.576 517.591 69.3758 Q514.31 66.1351 514.31 57.6282 L514.31 32.9987 L508.841 32.9987 L508.841 27.2059 L514.31 27.2059 L514.31 14.324 L521.804 14.324 Z" fill="#000000" fill-rule="nonzero" fill-opacity="1"></path><path clip-path="url(#clip450)" d="M567.579 49.7694 Q558.546 49.7694 555.062 51.8354 Q551.578 53.9013 551.578 58.8839 Q551.578 62.8538 554.171 65.2034 Q556.804 67.5124 561.301 67.5124 Q567.498 67.5124 571.225 63.1374 Q574.993 58.7219 574.993 51.4303 L574.993 49.7694 L567.579 49.7694 M582.446 46.6907 L582.446 72.576 L574.993 72.576 L574.993 65.6895 Q572.44 69.8214 568.633 71.8063 Q564.825 73.7508 559.316 73.7508 Q552.348 73.7508 548.216 69.8619 Q544.125 65.9325 544.125 59.3701 Q544.125 51.7138 549.229 47.825 Q554.373 43.9361 564.541 43.9361 L574.993 43.9361 L574.993 43.2069 Q574.993 38.0623 571.59 35.2672 Q568.228 32.4315 562.111 32.4315 Q558.222 32.4315 554.535 33.3632 Q550.849 34.295 547.446 36.1584 L547.446 29.2718 Q551.538 27.692 555.386 26.9223 Q559.235 26.1121 562.88 26.1121 Q572.724 26.1121 577.585 31.2163 Q582.446 36.3204 582.446 46.6907 Z" fill="#000000" fill-rule="nonzero" fill-opacity="1"></path><path clip-path="url(#clip450)" d="M597.799 9.54393 L605.253 9.54393 L605.253 72.576 L597.799 72.576 L597.799 9.54393 Z" fill="#000000" fill-rule="nonzero" fill-opacity="1"></path><path clip-path="url(#clip450)" d="M676.225 44.2197 Q678.858 45.1109 681.329 48.0275 Q683.84 50.9442 686.352 56.0483 L694.656 72.576 L685.866 72.576 L678.129 57.061 Q675.131 50.9847 672.295 48.9997 Q669.5 47.0148 664.639 47.0148 L655.727 47.0148 L655.727 72.576 L647.544 72.576 L647.544 12.096 L666.016 12.096 Q676.387 12.096 681.491 16.4305 Q686.595 20.7649 686.595 29.5149 Q686.595 35.2267 683.921 38.994 Q681.288 42.7613 676.225 44.2197 M655.727 18.8205 L655.727 40.2903 L666.016 40.2903 Q671.931 40.2903 674.928 37.5762 Q677.967 34.8216 677.967 29.5149 Q677.967 24.2082 674.928 21.5346 Q671.931 18.8205 666.016 18.8205 L655.727 18.8205 Z" fill="#000000" fill-rule="nonzero" fill-opacity="1"></path><path clip-path="url(#clip450)" d="M704.865 27.2059 L712.318 27.2059 L712.318 72.576 L704.865 72.576 L704.865 27.2059 M704.865 9.54393 L712.318 9.54393 L712.318 18.9825 L704.865 18.9825 L704.865 9.54393 Z" fill="#000000" fill-rule="nonzero" fill-opacity="1"></path><path clip-path="url(#clip450)" d="M756.838 28.5427 L756.838 35.5912 Q753.678 33.9709 750.275 33.1607 Q746.872 32.3505 743.227 32.3505 Q737.677 32.3505 734.882 34.0519 Q732.127 35.7533 732.127 39.156 Q732.127 41.7486 734.112 43.2475 Q736.097 44.7058 742.092 46.0426 L744.644 46.6097 Q752.584 48.3111 755.906 51.4303 Q759.268 54.509 759.268 60.0587 Q759.268 66.3781 754.245 70.0644 Q749.262 73.7508 740.513 73.7508 Q736.867 73.7508 732.897 73.0216 Q728.967 72.3329 724.592 70.9151 L724.592 63.2184 Q728.724 65.3654 732.735 66.4591 Q736.745 67.5124 740.675 67.5124 Q745.941 67.5124 748.776 65.73 Q751.612 63.9071 751.612 60.6258 Q751.612 57.5877 749.546 55.9673 Q747.521 54.3469 740.594 52.8481 L738.001 52.2405 Q731.074 50.7821 727.995 47.7845 Q724.917 44.7463 724.917 39.4801 Q724.917 33.0797 729.454 29.5959 Q733.991 26.1121 742.335 26.1121 Q746.467 26.1121 750.113 26.7198 Q753.759 27.3274 756.838 28.5427 Z" fill="#000000" fill-rule="nonzero" fill-opacity="1"></path><path clip-path="url(#clip450)" d="M770.854 9.54393 L778.348 9.54393 L778.348 46.7717 L800.587 27.2059 L810.107 27.2059 L786.045 48.4326 L811.12 72.576 L801.398 72.576 L778.348 50.4176 L778.348 72.576 L770.854 72.576 L770.854 9.54393 Z" fill="#000000" fill-rule="nonzero" fill-opacity="1"></path><path clip-path="url(#clip450)" d="M861.473 72.576 L838.382 12.096 L846.93 12.096 L866.091 63.0159 L885.292 12.096 L893.799 12.096 L870.749 72.576 L861.473 72.576 Z" fill="#000000" fill-rule="nonzero" fill-opacity="1"></path><path clip-path="url(#clip450)" d="M938.885 14.0809 L938.885 22.0612 Q934.227 19.8332 930.095 18.7395 Q925.963 17.6457 922.115 17.6457 Q915.431 17.6457 911.785 20.2383 Q908.179 22.8309 908.179 27.611 Q908.179 31.6214 910.569 33.6873 Q913 35.7128 919.725 36.9686 L924.667 37.9813 Q933.822 39.7232 938.156 44.1387 Q942.531 48.5136 942.531 55.8863 Q942.531 64.6767 936.617 69.2137 Q930.743 73.7508 919.36 73.7508 Q915.066 73.7508 910.205 72.7785 Q905.384 71.8063 900.199 69.9024 L900.199 61.4765 Q905.182 64.2716 909.962 65.6895 Q914.742 67.1073 919.36 67.1073 Q926.368 67.1073 930.176 64.3527 Q933.984 61.598 933.984 56.4939 Q933.984 52.0379 931.229 49.5264 Q928.515 47.0148 922.277 45.759 L917.294 44.7868 Q908.139 42.9639 904.048 39.075 Q899.956 35.1862 899.956 28.2591 Q899.956 20.2383 905.587 15.6203 Q911.258 11.0023 921.183 11.0023 Q925.436 11.0023 929.852 11.7719 Q934.267 12.5416 938.885 14.0809 Z" fill="#000000" fill-rule="nonzero" fill-opacity="1"></path><path clip-path="url(#clip450)" d="M973.277 12.096 L1024.44 12.096 L1024.44 18.9825 L1002.97 18.9825 L1002.97 72.576 L994.747 72.576 L994.747 18.9825 L973.277 18.9825 L973.277 12.096 Z" fill="#000000" fill-rule="nonzero" fill-opacity="1"></path><path clip-path="url(#clip450)" d="M1035.5 32.4315 Q1029.5 32.4315 1026.02 37.1306 Q1022.54 41.7891 1022.54 49.9314 Q1022.54 58.0738 1025.98 62.7728 Q1029.46 67.4314 1035.5 67.4314 Q1041.45 67.4314 1044.94 62.7323 Q1048.42 58.0333 1048.42 49.9314 Q1048.42 41.8701 1044.94 37.1711 Q1041.45 32.4315 1035.5 32.4315 M1035.5 26.1121 Q1045.22 26.1121 1050.77 32.4315 Q1056.32 38.7509 1056.32 49.9314 Q1056.32 61.0714 1050.77 67.4314 Q1045.22 73.7508 1035.5 73.7508 Q1025.74 73.7508 1020.19 67.4314 Q1014.68 61.0714 1014.68 49.9314 Q1014.68 38.7509 1020.19 32.4315 Q1025.74 26.1121 1035.5 26.1121 Z" fill="#000000" fill-rule="nonzero" fill-opacity="1"></path><path clip-path="url(#clip450)" d="M1076.05 14.324 L1076.05 27.2059 L1091.4 27.2059 L1091.4 32.9987 L1076.05 32.9987 L1076.05 57.6282 Q1076.05 63.1779 1077.55 64.7578 Q1079.09 66.3376 1083.75 66.3376 L1091.4 66.3376 L1091.4 72.576 L1083.75 72.576 Q1075.12 72.576 1071.84 69.3758 Q1068.55 66.1351 1068.55 57.6282 L1068.55 32.9987 L1063.09 32.9987 L1063.09 27.2059 L1068.55 27.2059 L1068.55 14.324 L1076.05 14.324 Z" fill="#000000" fill-rule="nonzero" fill-opacity="1"></path><path clip-path="url(#clip450)" d="M1121.82 49.7694 Q1112.79 49.7694 1109.31 51.8354 Q1105.82 53.9013 1105.82 58.8839 Q1105.82 62.8538 1108.42 65.2034 Q1111.05 67.5124 1115.55 67.5124 Q1121.74 67.5124 1125.47 63.1374 Q1129.24 58.7219 1129.24 51.4303 L1129.24 49.7694 L1121.82 49.7694 M1136.69 46.6907 L1136.69 72.576 L1129.24 72.576 L1129.24 65.6895 Q1126.69 69.8214 1122.88 71.8063 Q1119.07 73.7508 1113.56 73.7508 Q1106.59 73.7508 1102.46 69.8619 Q1098.37 65.9325 1098.37 59.3701 Q1098.37 51.7138 1103.47 47.825 Q1108.62 43.9361 1118.79 43.9361 L1129.24 43.9361 L1129.24 43.2069 Q1129.24 38.0623 1125.83 35.2672 Q1122.47 32.4315 1116.36 32.4315 Q1112.47 32.4315 1108.78 33.3632 Q1105.09 34.295 1101.69 36.1584 L1101.69 29.2718 Q1105.78 27.692 1109.63 26.9223 Q1113.48 26.1121 1117.13 26.1121 Q1126.97 26.1121 1131.83 31.2163 Q1136.69 36.3204 1136.69 46.6907 Z" fill="#000000" fill-rule="nonzero" fill-opacity="1"></path><path clip-path="url(#clip450)" d="M1152.04 9.54393 L1159.5 9.54393 L1159.5 72.576 L1152.04 72.576 L1152.04 9.54393 Z" fill="#000000" fill-rule="nonzero" fill-opacity="1"></path><path clip-path="url(#clip450)" d="M1201.79 12.096 L1209.97 12.096 L1209.97 65.6895 L1239.42 65.6895 L1239.42 72.576 L1201.79 72.576 L1201.79 12.096 Z" fill="#000000" fill-rule="nonzero" fill-opacity="1"></path><path clip-path="url(#clip450)" d="M1263.81 32.4315 Q1257.81 32.4315 1254.33 37.1306 Q1250.85 41.7891 1250.85 49.9314 Q1250.85 58.0738 1254.29 62.7728 Q1257.77 67.4314 1263.81 67.4314 Q1269.76 67.4314 1273.25 62.7323 Q1276.73 58.0333 1276.73 49.9314 Q1276.73 41.8701 1273.25 37.1711 Q1269.76 32.4315 1263.81 32.4315 M1263.81 26.1121 Q1273.53 26.1121 1279.08 32.4315 Q1284.63 38.7509 1284.63 49.9314 Q1284.63 61.0714 1279.08 67.4314 Q1273.53 73.7508 1263.81 73.7508 Q1254.05 73.7508 1248.5 67.4314 Q1242.99 61.0714 1242.99 49.9314 Q1242.99 38.7509 1248.5 32.4315 Q1254.05 26.1121 1263.81 26.1121 Z" fill="#000000" fill-rule="nonzero" fill-opacity="1"></path><path clip-path="url(#clip450)" d="M1317.6 49.7694 Q1308.57 49.7694 1305.09 51.8354 Q1301.6 53.9013 1301.6 58.8839 Q1301.6 62.8538 1304.2 65.2034 Q1306.83 67.5124 1311.33 67.5124 Q1317.52 67.5124 1321.25 63.1374 Q1325.02 58.7219 1325.02 51.4303 L1325.02 49.7694 L1317.6 49.7694 M1332.47 46.6907 L1332.47 72.576 L1325.02 72.576 L1325.02 65.6895 Q1322.47 69.8214 1318.66 71.8063 Q1314.85 73.7508 1309.34 73.7508 Q1302.37 73.7508 1298.24 69.8619 Q1294.15 65.9325 1294.15 59.3701 Q1294.15 51.7138 1299.25 47.825 Q1304.4 43.9361 1314.57 43.9361 L1325.02 43.9361 L1325.02 43.2069 Q1325.02 38.0623 1321.61 35.2672 Q1318.25 32.4315 1312.14 32.4315 Q1308.25 32.4315 1304.56 33.3632 Q1300.87 34.295 1297.47 36.1584 L1297.47 29.2718 Q1301.56 27.692 1305.41 26.9223 Q1309.26 26.1121 1312.91 26.1121 Q1322.75 26.1121 1327.61 31.2163 Q1332.47 36.3204 1332.47 46.6907 Z" fill="#000000" fill-rule="nonzero" fill-opacity="1"></path><path clip-path="url(#clip450)" d="M1377.68 34.0924 L1377.68 9.54393 L1385.13 9.54393 L1385.13 72.576 L1377.68 72.576 L1377.68 65.7705 Q1375.33 69.8214 1371.72 71.8063 Q1368.16 73.7508 1363.14 73.7508 Q1354.91 73.7508 1349.73 67.1883 Q1344.58 60.6258 1344.58 49.9314 Q1344.58 39.2371 1349.73 32.6746 Q1354.91 26.1121 1363.14 26.1121 Q1368.16 26.1121 1371.72 28.0971 Q1375.33 30.0415 1377.68 34.0924 M1352.28 49.9314 Q1352.28 58.1548 1355.64 62.8538 Q1359.05 67.5124 1364.96 67.5124 Q1370.87 67.5124 1374.28 62.8538 Q1377.68 58.1548 1377.68 49.9314 Q1377.68 41.7081 1374.28 37.0496 Q1370.87 32.3505 1364.96 32.3505 Q1359.05 32.3505 1355.64 37.0496 Q1352.28 41.7081 1352.28 49.9314 Z" fill="#000000" fill-rule="nonzero" fill-opacity="1"></path><path clip-path="url(#clip450)" d="M1463.44 14.0809 L1463.44 22.0612 Q1458.78 19.8332 1454.65 18.7395 Q1450.51 17.6457 1446.67 17.6457 Q1439.98 17.6457 1436.34 20.2383 Q1432.73 22.8309 1432.73 27.611 Q1432.73 31.6214 1435.12 33.6873 Q1437.55 35.7128 1444.28 36.9686 L1449.22 37.9813 Q1458.37 39.7232 1462.71 44.1387 Q1467.08 48.5136 1467.08 55.8863 Q1467.08 64.6767 1461.17 69.2137 Q1455.29 73.7508 1443.91 73.7508 Q1439.62 73.7508 1434.76 72.7785 Q1429.94 71.8063 1424.75 69.9024 L1424.75 61.4765 Q1429.73 64.2716 1434.51 65.6895 Q1439.29 67.1073 1443.91 67.1073 Q1450.92 67.1073 1454.73 64.3527 Q1458.54 61.598 1458.54 56.4939 Q1458.54 52.0379 1455.78 49.5264 Q1453.07 47.0148 1446.83 45.759 L1441.85 44.7868 Q1432.69 42.9639 1428.6 39.075 Q1424.51 35.1862 1424.51 28.2591 Q1424.51 20.2383 1430.14 15.6203 Q1435.81 11.0023 1445.73 11.0023 Q1449.99 11.0023 1454.4 11.7719 Q1458.82 12.5416 1463.44 14.0809 Z" fill="#000000" fill-rule="nonzero" fill-opacity="1"></path><path clip-path="url(#clip450)" d="M1517.23 45.1919 L1517.23 72.576 L1509.78 72.576 L1509.78 45.4349 Q1509.78 38.994 1507.27 35.7938 Q1504.76 32.5936 1499.73 32.5936 Q1493.7 32.5936 1490.21 36.4419 Q1486.73 40.2903 1486.73 46.9338 L1486.73 72.576 L1479.24 72.576 L1479.24 9.54393 L1486.73 9.54393 L1486.73 34.2544 Q1489.4 30.163 1493.01 28.1376 Q1496.65 26.1121 1501.39 26.1121 Q1509.21 26.1121 1513.22 30.9732 Q1517.23 35.7938 1517.23 45.1919 Z" fill="#000000" fill-rule="nonzero" fill-opacity="1"></path><path clip-path="url(#clip450)" d="M1570.91 48.0275 L1570.91 51.6733 L1536.64 51.6733 Q1537.12 59.3701 1541.25 63.421 Q1545.43 67.4314 1552.84 67.4314 Q1557.13 67.4314 1561.14 66.3781 Q1565.2 65.3249 1569.17 63.2184 L1569.17 70.267 Q1565.16 71.9684 1560.94 72.8596 Q1556.73 73.7508 1552.39 73.7508 Q1541.54 73.7508 1535.18 67.4314 Q1528.86 61.1119 1528.86 50.3365 Q1528.86 39.1965 1534.85 32.6746 Q1540.89 26.1121 1551.1 26.1121 Q1560.25 26.1121 1565.56 32.0264 Q1570.91 37.9003 1570.91 48.0275 M1563.45 45.84 Q1563.37 39.7232 1560.01 36.0774 Q1556.69 32.4315 1551.18 32.4315 Q1544.94 32.4315 1541.17 35.9558 Q1537.45 39.4801 1536.88 45.8805 L1563.45 45.84 Z" fill="#000000" fill-rule="nonzero" fill-opacity="1"></path><path clip-path="url(#clip450)" d="M1613 34.0924 L1613 9.54393 L1620.45 9.54393 L1620.45 72.576 L1613 72.576 L1613 65.7705 Q1610.65 69.8214 1607.04 71.8063 Q1603.48 73.7508 1598.45 73.7508 Q1590.23 73.7508 1585.05 67.1883 Q1579.9 60.6258 1579.9 49.9314 Q1579.9 39.2371 1585.05 32.6746 Q1590.23 26.1121 1598.45 26.1121 Q1603.48 26.1121 1607.04 28.0971 Q1610.65 30.0415 1613 34.0924 M1587.6 49.9314 Q1587.6 58.1548 1590.96 62.8538 Q1594.36 67.5124 1600.28 67.5124 Q1606.19 67.5124 1609.59 62.8538 Q1613 58.1548 1613 49.9314 Q1613 41.7081 1609.59 37.0496 Q1606.19 32.3505 1600.28 32.3505 Q1594.36 32.3505 1590.96 37.0496 Q1587.6 41.7081 1587.6 49.9314 Z" fill="#000000" fill-rule="nonzero" fill-opacity="1"></path><path clip-path="url(#clip450)" d="M1685.14 9.54393 L1685.14 15.7418 L1678.01 15.7418 Q1674 15.7418 1672.42 17.3622 Q1670.88 18.9825 1670.88 23.1955 L1670.88 27.2059 L1683.16 27.2059 L1683.16 32.9987 L1670.88 32.9987 L1670.88 72.576 L1663.39 72.576 L1663.39 32.9987 L1656.26 32.9987 L1656.26 27.2059 L1663.39 27.2059 L1663.39 24.0462 Q1663.39 16.471 1666.91 13.0277 Q1670.44 9.54393 1678.09 9.54393 L1685.14 9.54393 Z" fill="#000000" fill-rule="nonzero" fill-opacity="1"></path><path clip-path="url(#clip450)" d="M1708.96 32.4315 Q1702.97 32.4315 1699.48 37.1306 Q1696 41.7891 1696 49.9314 Q1696 58.0738 1699.44 62.7728 Q1702.93 67.4314 1708.96 67.4314 Q1714.92 67.4314 1718.4 62.7323 Q1721.88 58.0333 1721.88 49.9314 Q1721.88 41.8701 1718.4 37.1711 Q1714.92 32.4315 1708.96 32.4315 M1708.96 26.1121 Q1718.68 26.1121 1724.23 32.4315 Q1729.78 38.7509 1729.78 49.9314 Q1729.78 61.0714 1724.23 67.4314 Q1718.68 73.7508 1708.96 73.7508 Q1699.2 73.7508 1693.65 67.4314 Q1688.14 61.0714 1688.14 49.9314 Q1688.14 38.7509 1693.65 32.4315 Q1699.2 26.1121 1708.96 26.1121 Z" fill="#000000" fill-rule="nonzero" fill-opacity="1"></path><path clip-path="url(#clip450)" d="M1768.43 34.1734 Q1767.17 33.4443 1765.67 33.1202 Q1764.22 32.7556 1762.43 32.7556 Q1756.11 32.7556 1752.71 36.8875 Q1749.35 40.9789 1749.35 48.6757 L1749.35 72.576 L1741.86 72.576 L1741.86 27.2059 L1749.35 27.2059 L1749.35 34.2544 Q1751.7 30.1225 1755.47 28.1376 Q1759.23 26.1121 1764.62 26.1121 Q1765.39 26.1121 1766.32 26.2337 Q1767.25 26.3147 1768.39 26.5172 L1768.43 34.1734 Z" fill="#000000" fill-rule="nonzero" fill-opacity="1"></path><path clip-path="url(#clip450)" d="M1831.54 28.5427 L1831.54 35.5912 Q1828.38 33.9709 1824.98 33.1607 Q1821.58 32.3505 1817.93 32.3505 Q1812.38 32.3505 1809.59 34.0519 Q1806.83 35.7533 1806.83 39.156 Q1806.83 41.7486 1808.82 43.2475 Q1810.8 44.7058 1816.8 46.0426 L1819.35 46.6097 Q1827.29 48.3111 1830.61 51.4303 Q1833.97 54.509 1833.97 60.0587 Q1833.97 66.3781 1828.95 70.0644 Q1823.97 73.7508 1815.22 73.7508 Q1811.57 73.7508 1807.6 73.0216 Q1803.67 72.3329 1799.3 70.9151 L1799.3 63.2184 Q1803.43 65.3654 1807.44 66.4591 Q1811.45 67.5124 1815.38 67.5124 Q1820.65 67.5124 1823.48 65.73 Q1826.32 63.9071 1826.32 60.6258 Q1826.32 57.5877 1824.25 55.9673 Q1822.23 54.3469 1815.3 52.8481 L1812.71 52.2405 Q1805.78 50.7821 1802.7 47.7845 Q1799.62 44.7463 1799.62 39.4801 Q1799.62 33.0797 1804.16 29.5959 Q1808.7 26.1121 1817.04 26.1121 Q1821.17 26.1121 1824.82 26.7198 Q1828.46 27.3274 1831.54 28.5427 Z" fill="#000000" fill-rule="nonzero" fill-opacity="1"></path><path clip-path="url(#clip450)" d="M1863.42 32.4315 Q1857.43 32.4315 1853.94 37.1306 Q1850.46 41.7891 1850.46 49.9314 Q1850.46 58.0738 1853.9 62.7728 Q1857.39 67.4314 1863.42 67.4314 Q1869.38 67.4314 1872.86 62.7323 Q1876.35 58.0333 1876.35 49.9314 Q1876.35 41.8701 1872.86 37.1711 Q1869.38 32.4315 1863.42 32.4315 M1863.42 26.1121 Q1873.15 26.1121 1878.7 32.4315 Q1884.24 38.7509 1884.24 49.9314 Q1884.24 61.0714 1878.7 67.4314 Q1873.15 73.7508 1863.42 73.7508 Q1853.66 73.7508 1848.11 67.4314 Q1842.6 61.0714 1842.6 49.9314 Q1842.6 38.7509 1848.11 32.4315 Q1853.66 26.1121 1863.42 26.1121 Z" fill="#000000" fill-rule="nonzero" fill-opacity="1"></path><path clip-path="url(#clip450)" d="M1896.6 9.54393 L1904.05 9.54393 L1904.05 72.576 L1896.6 72.576 L1896.6 9.54393 Z" fill="#000000" fill-rule="nonzero" fill-opacity="1"></path><path clip-path="url(#clip450)" d="M1958.46 48.0275 L1958.46 51.6733 L1924.19 51.6733 Q1924.67 59.3701 1928.8 63.421 Q1932.98 67.4314 1940.39 67.4314 Q1944.68 67.4314 1948.69 66.3781 Q1952.75 65.3249 1956.72 63.2184 L1956.72 70.267 Q1952.71 71.9684 1948.49 72.8596 Q1944.28 73.7508 1939.94 73.7508 Q1929.09 73.7508 1922.73 67.4314 Q1916.41 61.1119 1916.41 50.3365 Q1916.41 39.1965 1922.4 32.6746 Q1928.44 26.1121 1938.65 26.1121 Q1947.8 26.1121 1953.11 32.0264 Q1958.46 37.9003 1958.46 48.0275 M1951 45.84 Q1950.92 39.7232 1947.56 36.0774 Q1944.24 32.4315 1938.73 32.4315 Q1932.49 32.4315 1928.72 35.9558 Q1925 39.4801 1924.43 45.8805 L1951 45.84 Z" fill="#000000" fill-rule="nonzero" fill-opacity="1"></path><path clip-path="url(#clip450)" d="M2005.16 86.3491 L2005.16 92.1419 L1962.06 92.1419 L1962.06 86.3491 L2005.16 86.3491 Z" fill="#000000" fill-rule="nonzero" fill-opacity="1"></path><path clip-path="url(#clip450)" d="M2042.03 49.3643 Q2042.03 41.2625 2038.67 36.8065 Q2035.34 32.3505 2029.31 32.3505 Q2023.31 32.3505 2019.95 36.8065 Q2016.63 41.2625 2016.63 49.3643 Q2016.63 57.4256 2019.95 61.8816 Q2023.31 66.3376 2029.31 66.3376 Q2035.34 66.3376 2038.67 61.8816 Q2042.03 57.4256 2042.03 49.3643 M2049.48 66.9452 Q2049.48 78.5308 2044.34 84.1616 Q2039.19 89.8329 2028.58 89.8329 Q2024.65 89.8329 2021.17 89.2252 Q2017.68 88.6581 2014.4 87.4428 L2014.4 80.1917 Q2017.68 81.9741 2020.88 82.8248 Q2024.08 83.6755 2027.4 83.6755 Q2034.74 83.6755 2038.38 79.8271 Q2042.03 76.0193 2042.03 68.282 L2042.03 64.5957 Q2039.72 68.6061 2036.11 70.5911 Q2032.51 72.576 2027.48 72.576 Q2019.14 72.576 2014.04 66.2161 Q2008.93 59.8562 2008.93 49.3643 Q2008.93 38.832 2014.04 32.472 Q2019.14 26.1121 2027.48 26.1121 Q2032.51 26.1121 2036.11 28.0971 Q2039.72 30.082 2042.03 34.0924 L2042.03 27.2059 L2049.48 27.2059 L2049.48 66.9452 Z" fill="#000000" fill-rule="nonzero" fill-opacity="1"></path><path clip-path="url(#clip450)" d="M2103.64 48.0275 L2103.64 51.6733 L2069.37 51.6733 Q2069.86 59.3701 2073.99 63.421 Q2078.16 67.4314 2085.57 67.4314 Q2089.87 67.4314 2093.88 66.3781 Q2097.93 65.3249 2101.9 63.2184 L2101.9 70.267 Q2097.89 71.9684 2093.68 72.8596 Q2089.46 73.7508 2085.13 73.7508 Q2074.27 73.7508 2067.91 67.4314 Q2061.59 61.1119 2061.59 50.3365 Q2061.59 39.1965 2067.59 32.6746 Q2073.62 26.1121 2083.83 26.1121 Q2092.99 26.1121 2098.29 32.0264 Q2103.64 37.9003 2103.64 48.0275 M2096.19 45.84 Q2096.11 39.7232 2092.74 36.0774 Q2089.42 32.4315 2083.91 32.4315 Q2077.68 32.4315 2073.91 35.9558 Q2070.18 39.4801 2069.61 45.8805 L2096.19 45.84 Z" fill="#000000" fill-rule="nonzero" fill-opacity="1"></path><path clip-path="url(#clip450)" d="M2153.59 45.1919 L2153.59 72.576 L2146.14 72.576 L2146.14 45.4349 Q2146.14 38.994 2143.62 35.7938 Q2141.11 32.5936 2136.09 32.5936 Q2130.05 32.5936 2126.57 36.4419 Q2123.09 40.2903 2123.09 46.9338 L2123.09 72.576 L2115.59 72.576 L2115.59 27.2059 L2123.09 27.2059 L2123.09 34.2544 Q2125.76 30.163 2129.37 28.1376 Q2133.01 26.1121 2137.75 26.1121 Q2145.57 26.1121 2149.58 30.9732 Q2153.59 35.7938 2153.59 45.1919 Z" fill="#000000" fill-rule="nonzero" fill-opacity="1"></path><polyline clip-path="url(#clip452)" style="stroke:#009af9; stroke-linecap:round; stroke-linejoin:round; stroke-width:4; stroke-opacity:1; fill:none" points="280.231,160.256 280.231,160.256 936.152,568.969 1530.99,977.683 2073.58,977.683 2292.39,1386.4 2292.39,1386.4 2292.39,1386.4 2292.39,1386.4 "></polyline>
<path clip-path="url(#clip450)" d="M1844.32 270.476 L2281.66 270.476 L2281.66 166.796 L1844.32 166.796  Z" fill="#ffffff" fill-rule="evenodd" fill-opacity="1"></path>
<polyline clip-path="url(#clip450)" style="stroke:#000000; stroke-linecap:round; stroke-linejoin:round; stroke-width:4; stroke-opacity:1; fill:none" points="1844.32,270.476 2281.66,270.476 2281.66,166.796 1844.32,166.796 1844.32,270.476 "></polyline>
<polyline clip-path="url(#clip450)" style="stroke:#009af9; stroke-linecap:round; stroke-linejoin:round; stroke-width:4; stroke-opacity:1; fill:none" points="1868.02,218.636 2010.21,218.636 "></polyline>
<path clip-path="url(#clip450)" d="M2033.91 201.356 L2063.15 201.356 L2063.15 205.291 L2050.88 205.291 L2050.88 235.916 L2046.18 235.916 L2046.18 205.291 L2033.91 205.291 L2033.91 201.356 Z" fill="#000000" fill-rule="nonzero" fill-opacity="1"></path><path clip-path="url(#clip450)" d="M2069.47 212.976 Q2066.04 212.976 2064.05 215.661 Q2062.06 218.323 2062.06 222.976 Q2062.06 227.629 2064.03 230.314 Q2066.02 232.976 2069.47 232.976 Q2072.87 232.976 2074.86 230.291 Q2076.85 227.606 2076.85 222.976 Q2076.85 218.37 2074.86 215.684 Q2072.87 212.976 2069.47 212.976 M2069.47 209.365 Q2075.02 209.365 2078.19 212.976 Q2081.36 216.587 2081.36 222.976 Q2081.36 229.342 2078.19 232.976 Q2075.02 236.587 2069.47 236.587 Q2063.89 236.587 2060.72 232.976 Q2057.57 229.342 2057.57 222.976 Q2057.57 216.587 2060.72 212.976 Q2063.89 209.365 2069.47 209.365 Z" fill="#000000" fill-rule="nonzero" fill-opacity="1"></path><path clip-path="url(#clip450)" d="M2092.64 202.629 L2092.64 209.99 L2101.41 209.99 L2101.41 213.3 L2092.64 213.3 L2092.64 227.374 Q2092.64 230.545 2093.49 231.448 Q2094.37 232.351 2097.04 232.351 L2101.41 232.351 L2101.41 235.916 L2097.04 235.916 Q2092.11 235.916 2090.23 234.087 Q2088.36 232.235 2088.36 227.374 L2088.36 213.3 L2085.23 213.3 L2085.23 209.99 L2088.36 209.99 L2088.36 202.629 L2092.64 202.629 Z" fill="#000000" fill-rule="nonzero" fill-opacity="1"></path><path clip-path="url(#clip450)" d="M2118.79 222.883 Q2113.63 222.883 2111.64 224.064 Q2109.65 225.244 2109.65 228.092 Q2109.65 230.36 2111.13 231.703 Q2112.64 233.022 2115.21 233.022 Q2118.75 233.022 2120.88 230.522 Q2123.03 227.999 2123.03 223.832 L2123.03 222.883 L2118.79 222.883 M2127.29 221.124 L2127.29 235.916 L2123.03 235.916 L2123.03 231.981 Q2121.57 234.342 2119.4 235.476 Q2117.22 236.587 2114.07 236.587 Q2110.09 236.587 2107.73 234.365 Q2105.39 232.119 2105.39 228.369 Q2105.39 223.994 2108.31 221.772 Q2111.25 219.55 2117.06 219.55 L2123.03 219.55 L2123.03 219.133 Q2123.03 216.194 2121.09 214.596 Q2119.17 212.976 2115.67 212.976 Q2113.45 212.976 2111.34 213.508 Q2109.23 214.041 2107.29 215.106 L2107.29 211.17 Q2109.63 210.268 2111.83 209.828 Q2114.03 209.365 2116.11 209.365 Q2121.73 209.365 2124.51 212.282 Q2127.29 215.198 2127.29 221.124 Z" fill="#000000" fill-rule="nonzero" fill-opacity="1"></path><path clip-path="url(#clip450)" d="M2136.06 199.897 L2140.32 199.897 L2140.32 235.916 L2136.06 235.916 L2136.06 199.897 Z" fill="#000000" fill-rule="nonzero" fill-opacity="1"></path><path clip-path="url(#clip450)" d="M2180.88 219.712 Q2182.38 220.221 2183.79 221.888 Q2185.23 223.555 2186.66 226.471 L2191.41 235.916 L2186.39 235.916 L2181.97 227.05 Q2180.25 223.578 2178.63 222.444 Q2177.04 221.309 2174.26 221.309 L2169.16 221.309 L2169.16 235.916 L2164.49 235.916 L2164.49 201.356 L2175.04 201.356 Q2180.97 201.356 2183.89 203.833 Q2186.8 206.309 2186.8 211.309 Q2186.8 214.573 2185.28 216.726 Q2183.77 218.879 2180.88 219.712 M2169.16 205.198 L2169.16 217.467 L2175.04 217.467 Q2178.42 217.467 2180.14 215.916 Q2181.87 214.342 2181.87 211.309 Q2181.87 208.277 2180.14 206.749 Q2178.42 205.198 2175.04 205.198 L2169.16 205.198 Z" fill="#000000" fill-rule="nonzero" fill-opacity="1"></path><path clip-path="url(#clip450)" d="M2197.24 209.99 L2201.5 209.99 L2201.5 235.916 L2197.24 235.916 L2197.24 209.99 M2197.24 199.897 L2201.5 199.897 L2201.5 205.291 L2197.24 205.291 L2197.24 199.897 Z" fill="#000000" fill-rule="nonzero" fill-opacity="1"></path><path clip-path="url(#clip450)" d="M2226.94 210.754 L2226.94 214.782 Q2225.14 213.856 2223.19 213.393 Q2221.25 212.93 2219.16 212.93 Q2215.99 212.93 2214.4 213.902 Q2212.82 214.874 2212.82 216.819 Q2212.82 218.3 2213.96 219.157 Q2215.09 219.99 2218.52 220.754 L2219.97 221.078 Q2224.51 222.05 2226.41 223.832 Q2228.33 225.592 2228.33 228.763 Q2228.33 232.374 2225.46 234.481 Q2222.61 236.587 2217.61 236.587 Q2215.53 236.587 2213.26 236.17 Q2211.02 235.777 2208.52 234.967 L2208.52 230.569 Q2210.88 231.795 2213.17 232.42 Q2215.46 233.022 2217.71 233.022 Q2220.72 233.022 2222.34 232.004 Q2223.96 230.962 2223.96 229.087 Q2223.96 227.351 2222.78 226.425 Q2221.62 225.499 2217.66 224.643 L2216.18 224.295 Q2212.22 223.462 2210.46 221.749 Q2208.7 220.013 2208.7 217.004 Q2208.7 213.346 2211.29 211.356 Q2213.89 209.365 2218.66 209.365 Q2221.02 209.365 2223.1 209.712 Q2225.18 210.059 2226.94 210.754 Z" fill="#000000" fill-rule="nonzero" fill-opacity="1"></path><path clip-path="url(#clip450)" d="M2234.95 199.897 L2239.23 199.897 L2239.23 221.17 L2251.94 209.99 L2257.38 209.99 L2243.63 222.119 L2257.96 235.916 L2252.41 235.916 L2239.23 223.254 L2239.23 235.916 L2234.95 235.916 L2234.95 199.897 Z" fill="#000000" fill-rule="nonzero" fill-opacity="1"></path></svg>